<svg id="logo" xmlns="http://www.w3.org/2000/svg" width="477" height="477" viewBox="0 0 477 477">
  <defs>
    <style>
      .cls-1 {
        fill: #fff;
      }

      .cls-2, .cls-4 {
        fill: #31323d;
      }

      .cls-3 {
        fill: #fbd819;
      }

      .cls-4 {
        fill-rule: evenodd;
      }
    </style>
  </defs>
  <rect class="cls-1" x="-234" y="-225" width="957" height="924"/>
  <ellipse class="cls-2" cx="238.109" cy="240.813" rx="200.734" ry="94.969"/>
  <ellipse id="Ellipse_2_copy" data-name="Ellipse 2 copy" class="cls-3" cx="238.609" cy="240.828" rx="182.516" ry="81.109"/>
  <path class="cls-4" d="M258.4,199.511l-2.307-27L246.932,185.8a45.265,45.265,0,0,0-15.645.653l-10.046-13.72L218.57,199.77s-2.706,21.707-31.869,21.713-40.709-25.652-18.062-43.445c0,0-104.574,16.87-102.014,64.077,1.883,34.727,48.687,49.679,63.661,55.28,0,0-16.474-17.723-3.745-29.2S169,270.307,174.264,278.36c0,0,10.1-14.035,25.513-14.5s35.731,25.869,39.368,38.344c0,0,16.348-38.4,38.871-38.852,13.513-.272,19.981,9.979,24.99,14.726,0,0,25.492-23.859,48.285-13,9.513,4.533,4.422,24.05-3.358,30.9,0,0,65.54-21.2,62.941-56.655s-52.491-51.125-102.119-62.75c0,0,35.576,38.552-18.917,44.789C277.164,222.814,263,214,258.4,199.511Z"/>
</svg>
