<svg id="scarf" xmlns="http://www.w3.org/2000/svg" width="625" height="625" viewBox="0 0 625 625">
  <defs>
    <style>
      .cls-1 {
        fill: #fff;
      }

      .cls-1, .cls-2, .cls-3, .cls-4, .cls-5 {
        fill-rule: evenodd;
      }

      .cls-2 {
        fill: #31323d;
      }

      .cls-3 {
        fill: #d8d9e4;
      }

      .cls-4 {
        fill: #e1e2ec;
      }

      .cls-5 {
        fill: #eeeff8;
      }
    </style>
  </defs>
  <path class="cls-1" d="M-242.388-223.357H989.583V796.775H-242.388V-223.357Z"/>
  <path class="cls-2" d="M94.171,226.157s-49.638,4.212-28.953,43.611c0,0-8.338,7.379-3.443,22.484,0,0-16.149,14.015,2.357,45.116,0,0,105.494,12.1,163.789,4.635,69.489-8.9,133.65-5.866,158.316-6.472s83.154,3.841,120.788-4.57,57.5-29.879,62.446-50.085-16.294-56.86-28.764-64.072c0,0-4.853,62.28-153.329,79.678-64.791,4.218-120.036-10.193-156.887-18.548S158.528,248.979,94.171,226.157Z"/>
  <path id="Shape_127_copy" data-name="Shape 127 copy" class="cls-3" d="M94.074,232.166S54.6,233.509,71.243,269.883c0,0-8.11,9.236-3.33,23.97,0,0-14.61,9.786-.09,37.564,0,0,104.28,12.377,161.213,5.1,67.867-8.682,131.643-1.882,155.734-2.472s80.967-.457,117.722-8.661,54.444-24.916,59.276-44.627-7.013-45.362-19.192-52.4c0,0-11.28,55.148-156.289,72.118-63.279,4.113-117.824-9.847-153.814-18S156.929,254.43,94.074,232.166Z"/>
  <path class="cls-2" d="M338.9,308.225s-94.164,10.007-191.263-21.1c0,0,70.282,37.692,190.677,25.6Z"/>
  <path class="cls-2" d="M388.237,307.014s47.743,1.769,78.709-7.25c0,0-42.393,16.849-77.241,11.782Z"/>
  <path class="cls-2" d="M66.293,266.781s18.278,13.316,38.355,10.633c0,0-29.207-4.476-37.664-21.641Z"/>
  <path class="cls-4" d="M68.1,314.392c-4.369-6.864-3.426-10.573,4.855-14.447,0,0,24.644-7.3,93.216,17.024,27.523,9.763,64.064,9.044,78.973,8.281,0,0-37.706,12.918-78.613,1.242S72.606,321.476,68.1,314.392Z"/>
  <path class="cls-4" d="M94.981,239.694s113.724,51.413,192.705,59.193c0,0-65.923,12.689-195.038-39.973C92.648,258.914,64.152,240.2,94.981,239.694Z"/>
  <path class="cls-4" d="M75.785,277.865s27.461,5.912,44.335,7.774,33.865,11.252,48.4,18.512c0,0-35.483-9.831-61.971-14.69S67.748,283.975,75.785,277.865Z"/>
  <path class="cls-2" d="M64.294,295.3c12.373-2.807,57.962,5.188,64.1,7.04S97.1,292.1,65.939,288.813A9.935,9.935,0,0,0,64.294,295.3Z"/>
  <path class="cls-4" d="M545.457,240.922s21.575,31.9-1.431,57.076-70.8,26.41-88.251,25.628l-27.675-3.95s74.216-15.337,83.26-34.725a541.653,541.653,0,0,1-81.414,15.721S524.736,283.663,545.457,240.922Z"/>
  <path class="cls-5" d="M518.329,278.446c0-5.76,23.464-24.654,28.546-20.033,7.176,6.527,3.255,40.315-33.554,53.586-5.619,2.026,30.536-33.167,27.044-39.563C538.091,268.272,518.329,280.85,518.329,278.446Z"/>
  <path class="cls-5" d="M80.567,305.577s-4.493-8.087,10.873-5.335c0,0,31.807,2.514,47.093,10.273C138.533,310.515,96.952,308.845,80.567,305.577Z"/>
  <path class="cls-5" d="M92.325,245.161s-2.463-6.551,5.2-3.924c0,0,61.769,24.033,74.519,29.747C172.043,270.984,122.832,264.684,92.325,245.161Z"/>
  <g id="knot">
    <path class="cls-2" d="M343.309,300.161c-7.212,6.073-9.056,11.085-8.273,21.353,0,0-48.911-.853-85.637,29.548-27.2,22.514-35.461,44.628-43.069,55.088,0,0,48.045,13.234,93.034-7.475s45.119-43.086,47.19-46.111a55.528,55.528,0,0,0,35.846-9.337s10.712,34.514,49.226,48.119,58.819,8,90.983-2.3c0,0-11.8-38.914-53.2-62.421-25.659-15.139-64.236-8.84-74.241-5.435,0,0,.184-10.56-11.244-20.988C373.766,290.931,357.3,288.384,343.309,300.161Z"/>
    <path id="Shape_128_copy" data-name="Shape 128 copy" class="cls-3" d="M348.774,301.371c-10.02,5.943-10.113,16.124-9.141,25.4,0,0-48.383-1.832-82.589,24.9-26.441,20.665-34.887,40.906-42.122,50.839,0,0,42.32,9.473,85.093-10.2s40.977-41.788,42.947-44.661c0,0,24,4.08,41.767-11.111,0,0,11.471,35.827,48.078,48.733s51.662,9.654,82.24-.13c0,0-10.381-33.3-49.727-55.606-24.388-14.367-63.566-6.684-73.078-3.448,0,0-.592-14.6-12.467-23.4C370.173,295.575,361.219,293.991,348.774,301.371Z"/>
    <path class="cls-2" d="M342.328,350.854s3.2-23.49-6.241-27.147l1.083-3.489s14.462,4.145,8.383,30.844Z"/>
    <path class="cls-2" d="M383.637,337.493s8.553-6.477,7.99-16.479l4.593,0.654s-1.273,15.256-10.585,19.363Z"/>
    <path class="cls-2" d="M342.113,332.318s-53.133,13.922-76.135,38.846c0,0,24.449-3.113,29.409-8.042,0,0-12.374,2.806-20.1,4.185,0,0,14.111-15.05,68.319-31.96Z"/>
    <path class="cls-2" d="M394.077,327.143s53.373,3.111,80.714,27.843c0,0-16.718,1.484-27.715-1.448,0,0,15.928-.244,20.557-0.671,0,0-19.04-13.829-74.118-22.728Z"/>
    <path class="cls-4" d="M352.063,306.49c1.641-4.43,13.233-10.363,26.914,1.377s8.393,26.167-12.891,33.679c-15.968,5.636,9.638-15.393,1.5-20.532S349.559,313.251,352.063,306.49Z"/>
    <path class="cls-4" d="M232.717,395.172s59.426,9.97,94.983-29.027c0,0-51.139,17.711-65.935,11.463-7.526-11.14,11.17-23.862,17.405-28.27C279.17,349.338,241.537,357.749,232.717,395.172Z"/>
    <path class="cls-4" d="M397.382,345.227s35.585,55.166,108.83,36.308a140.161,140.161,0,0,0-28.66-38.526s12,20.728,4.227,24.61C473.958,371.528,444.852,364.021,397.382,345.227Z"/>
    <path class="cls-5" d="M360.076,307.993c-2.253-5.008,5.353-5.14,13.522-2s17.548,16.787,4.507,26.041c0,0,3.476-9.6-1-16.025C373.3,310.555,361.111,310.292,360.076,307.993Z"/>
    <path class="cls-5" d="M422.778,363.165s23.759,23.923,69.6,16.145C492.379,379.31,453.365,377.681,422.778,363.165Z"/>
    <path class="cls-5" d="M238.406,392.759s48.209,4.782,65.421-11.47c0,0-34.568,9.462-46.8,3.255,0,0-9.155-5.657-3.3-18.085C253.725,366.459,239.715,375.25,238.406,392.759Z"/>
  </g>
</svg>
