<svg id="tattoo" xmlns="http://www.w3.org/2000/svg" width="625" height="625" viewBox="0 0 625 625">
  <defs>
    <style>
      .cls-1, .cls-2 {
        fill: #fff;
      }

      .cls-2, .cls-3, .cls-4, .cls-5, .cls-6 {
        fill-rule: evenodd;
      }

      .cls-3 {
        fill: #31323d;
      }

      .cls-4 {
        fill: #bcbcc4;
      }

      .cls-5 {
        fill: #e7e7f0;
      }

      .cls-6 {
        fill: #32323b;
      }
    </style>
  </defs>
  <rect class="cls-1" x="-13" y="-15" width="664" height="660"/>
  <path class="cls-2" d="M211.577,393.533c2.529-12.594,10.256-35.4,22.373-35.4l113.178,9.178L383.976,389.6q-1.316,25.568-2.632,51.139l-10.528,11.8c-57.127,0-171.083,21.407-171.083-55.072l11.844-7.868v3.934Z"/>
  <path class="cls-2" d="M415.561,234.873c-59.649,29.716-178.979-5.826-178.979-68.184,14.319-14.267,149.623,11.373,172.4,17.046l21.056,14.424q0.659,9.177,1.316,18.357l-15.792,18.357h-9.212"/>
  <path class="cls-3" d="M218,385s-40.969,1.5-44,20c0.156,18.813,31.281,52.156,111,69,75.469,15.656,125.135-6.652,127-18,2.25-13.687-7.646-29.865-29-36-1.313,17.126-10.5,32.916-89,21-21.992-4.046-68.25-19.062-80-36Z"/>
  <path class="cls-3" d="M381,389v20s-36.912,17.015-97,2c-32.658-8.161-52.5-21.5-65-33l3-49s55,20,74,27,82,33,82,33h3Z"/>
  <path class="cls-3" d="M235,206l2-31s3.5,23,87,43,105.5,2,111-3-27,91-27,91-63-33.5-87-43S251.25,230.563,235,206Z"/>
  <path class="cls-3" d="M238,168s16.5,28,90,41,89.661,9.28,108-1c13.156-7.375-9-23.5-19-29s-51.5-20.5-83-27S234.344,145.219,238,168Z"/>
  <path class="cls-3" d="M272.206,233.58c35.4,17.234,100.4,46.7,148.249,76.695,34.893,21.874,57.323,44.742,57.019,68.174-3.879,11.524-7.9,30.9-8.553,36.928-0.452,4.616,17.5,15.375,31.361,25.565,9.093,6.714,16.593,12.213,22.7,16.681-27.039,15.142-35.5,13.453-39.8,17.406-3.656,3.358-.081,10.143,11.4,51.13,0.181,0.441-3.557,2.714-4,2.8a3.2,3.2,0,0,1-.885,0,11.287,11.287,0,0,1-1.29-.235,71.079,71.079,0,0,1-8.475-2.876c-7.1-2.774-16.434-6.864-25.257-10.788-17.769-7.91-33.359-15.183-33.369-15.2,1.054,0.754,20-51.435-7.9-80.9C282.294,336.654,166.15,356.9,183.826,256.3c-25.878-10.2-49.884-25.013-79.826-34.087,14.468-10.271,28.916-23.345,42.764-34.087-7.881-17.558-17.417-33.228-25.658-51.13,31.715,6.281,61.006,15.912,88.379,22.725C209.485,159.725,216.381,201.008,272.206,233.58Z"/>
  <path id="Shape_42_copy" data-name="Shape 42 copy" class="cls-4" d="M206,165s-1.321,46.548,53.508,76.709c54.019,29.716,215.086,80.876,209.728,134.833-1.57,15.811-7.793,35.942-7.724,41.772,0.105,8.845,53.221,35.487,45.1,38.681-40.1,15.762-37.675,11.257-19.54,58.584,2.407,6.282-54.5-26.215-54.5-26.215s19.637-46.726-20.5-83.787C391.776,386.832,263.935,341.641,243.7,333c-22.435-9.579-60.017-19.742-52.371-84.55l-66.138-27.633,31.631-26.251-19.385-46.771Z"/>
  <path class="cls-5" d="M206.4,175.02s-23.2,132.236,45.659,157.607c78.44,28.9,208.254,55.878,180.184,153.687,0,0,66.473-145.483-76.241-200.314C356,286,225.766,238.525,206.4,175.02Z"/>
  <path class="cls-2" d="M291.3,346.045q-19.168-9.837-38.338-19.678,13.938-2.894,27.882-5.787L242.5,293.956,295.942,309,236.693,268.49l73.191,25.466-2.324-4.63-45.308-28.938,53.44,16.205L282,252.285c36.786,17.361,75.193,30.77,110,54.715-18.973-3.858-37.584-10.343-56.558-14.2l45.308,30.1L324.987,309l52.278,37.041-59.249-13.89L370.3,361.093l-58.088-15.048,39.5,21.993C305.184,351.153,297.949,347.86,291.3,346.045Z"/>
  <path class="cls-3" d="M246.547,321.638L255.1,242.1l14.255,8.522L266.5,284.71l28.509-19.884,14.255,8.522-28.509,22.724,22.807,45.45-17.1-2.841L266.5,301.754l-5.7,25.565Z"/>
  <path class="cls-3" d="M314.97,347.2l8.553-68.174,14.255,5.681-2.851,25.565,19.956,8.522,2.851-25.565,14.255,5.681-8.553,71.015-14.255-5.682,2.851-28.4-19.956-8.522-2.851,25.565Z"/>
  <path class="cls-6" d="M425,498s33.313-76,40-99c3.125-3.146,6,3,6,3l-41,99Z"/>
  <path class="cls-6" d="M189.528,253.464l17.106-90.9-5.7-2.84-17.106,90.9Z"/>
</svg>
