<svg id="logo" xmlns="http://www.w3.org/2000/svg" width="360" height="360" viewBox="0 0 360 360">
  <defs>
    <style>
      .cls-1 {
        fill: #fff;
      }

      .cls-2, .cls-5 {
        fill: #31323d;
      }

      .cls-2, .cls-3, .cls-4, .cls-5 {
        fill-rule: evenodd;
      }

      .cls-3 {
        fill: #e31a2d;
      }

      .cls-4 {
        fill: #fbd819;
      }

      .cls-5 {
        opacity: 0.98;
      }
    </style>
  </defs>
  <rect class="cls-1" x="-392" y="-345" width="1227" height="1047"/>
  <path id="Shape_206_copy" data-name="Shape 206 copy" class="cls-2" d="M21.844,138.558l56.007-49.1h205.36l56.007,48.115-158.2,163Z"/>
  <path class="cls-3" d="M35.349,139.537L82.4,99.186H279.459l46.159,39.575L180.04,286.973Z"/>
  <g id="yellow">
    <path class="cls-4" d="M285.673,119.361l22.191,20.952-32.843,34.143S260.634,158.7,242.177,154.28s-60.095-6.447-82.554-5.432-31.009-6.224-34.619-8.535S118.79,131,118.79,131l5.326-8.536,12.428-6.984,22.192-5.431,30.18,1.552,17.754,3.1,16.866,8.536,7.1,10.088,2.663,9.312h50.6Z"/>
    <path class="cls-4" d="M229.749,108.5l17.754,0.776-2.663,7.759-9.765-6.983Z"/>
    <path class="cls-4" d="M89.5,108.5c1.089,0.007,15.978,1.552,15.978,1.552L83.284,131,70.856,156.608,53.1,139.537S88.408,108.49,89.5,108.5Z"/>
    <path class="cls-4" d="M95.711,183.767l47.046,3.88,47.047,3.1,34.619,2.328,15.091,3.88,1.775,6.984-6.214,6.208-13.315,5.432H177.377L166.725,205.5l-15.978-3.1-19.529.776-9.765,4.656-16.865-14.744Z"/>
    <path class="cls-4" d="M149.859,234.982l25.742,3.1,25.743-.776,12.427-2.328L197.793,252.83,180.04,269.125Z"/>
  </g>
  <path class="cls-2" d="M137.431,229.55s41.969,11.295,85.217,1.552L180.04,273.781Zm17.754,9.312s24.592,5.268,49.71.776l-23.968,24.831Z"/>
  <path class="cls-2" d="M85.947,177.56s48.389,7.981,91.431,9.311,68.933,5.073,68.35,15.52S230.175,221.329,175.6,217.91c0,0-16.717-26.95-56.811-6.207Zm18.435,9.113s64.479,7.147,87.45,7.855,44.856,1.225,45.2,8.838-21.853,10.972-57.972,7.855c0,0-15.795-22.552-56.99-6.874Z"/>
  <path class="cls-2" d="M281.234,113.153L312.3,139.537l-38.17,40.351s-6.652-28.193-83.285-27.583c-74.8,2.214-74.9-15.477-75.659-22.584s14.3-22.918,57.749-22.775,61.332,15.852,63.025,32.591h45.271V113.153Zm6.214,13.192v19.4H230.637s2.106-32.567-55.036-32.592c-41.737,1.579-51.785,10.532-51.485,17.848,0.366,8.924,14.216,14.927,51.485,14.744s79.284,0.1,99.749,23.253l27.512-28.476Z"/>
  <path class="cls-2" d="M251.053,106.946s1.242,9.044-7.989,17.071c0,0-8.959-14.328-22.191-17.071h30.18Zm-9.764,4.656,3.551,0.775-0.888,3.1A8.3,8.3,0,0,0,241.289,111.6Z"/>
  <path class="cls-5" d="M71.744,163.592L49.552,140.313l38.17-33.367h26.63S77.245,128.966,71.744,163.592ZM68.193,150.4l-9.764-10.087,30.181-27.16h7.1S77.362,125.393,68.193,150.4Z"/>
</svg>
