<svg id="batman" xmlns="http://www.w3.org/2000/svg" width="3000" height="3000" viewBox="0 0 3000 3000">
  <defs>
    <style>
      .cls-1 {
        fill: #444555;
      }

      .cls-1, .cls-10, .cls-11, .cls-12, .cls-14, .cls-15, .cls-16, .cls-17, .cls-2, .cls-3, .cls-4, .cls-5, .cls-6, .cls-7, .cls-8, .cls-9 {
        fill-rule: evenodd;
      }

      .cls-2 {
        fill: #3b3c48;
      }

      .cls-3 {
        fill: #4f5163;
      }

      .cls-4 {
        fill: #3f404d;
      }

      .cls-5 {
        fill: #4a4c5c;
      }

      .cls-6 {
        fill: #4a4b5b;
      }

      .cls-15, .cls-7 {
        fill: #31323d;
      }

      .cls-8 {
        fill: #828282;
      }

      .cls-9 {
        fill: #797676;
      }

      .cls-10, .cls-14 {
        fill: #939492;
      }

      .cls-11, .cls-13 {
        fill: #fbd819;
      }

      .cls-12 {
        fill: #fbe56c;
      }

      .cls-14 {
        opacity: 0.55;
      }

      .cls-15 {
        opacity: 0.99;
      }

      .cls-16 {
        fill: #3b3f6d;
      }

      .cls-17 {
        fill: #5a5c70;
      }
    </style>
  </defs>
  <g id="boots">
    <path class="cls-1" d="M2063.05,2133.64s136.23,42.82,141.68,70.23c3.44,17.31-5.9,31.16-23.61,35.61l-167.27-2.97Z"/>
    <path class="cls-2" d="M2019.75,2115.83l52.15,19.78s-27.55,79.63-52.15,100.9c0,0-69.61.45-91.75-3.51C1949.27,2217.44,1992.04,2184.74,2019.75,2115.83Z"/>
    <path id="Shape_175_copy" data-name="Shape 175 copy" class="cls-1" d="M889.234,2125.72s-148.039,50.74-153.491,78.15c-3.444,17.31,7.546,35.68,25.257,40.13l184-3Z"/>
    <path class="cls-2" d="M887.266,2126.71s5.411,69.24,51.164,108.81l82.65-1.98s-62.972-41.54-90.522-115.73l-3.935-7.91Z"/>
    <path class="cls-3" d="M887.266,2127.7s3.936,26.21,11.807,48.47c0,0-49.688,17.31-47.228,60.34l-89.537,4.95s-43.784-22.75-18.694-48.47,112.167-58.36,112.167-58.36Z"/>
    <path id="Shape_505_copy" data-name="Shape 505 copy" class="cls-4" d="M1995,2170s49.01,6.22,75,14,13-47,13-47l-28-11-35-10-14,22Z"/>
    <path id="Shape_503_copy" data-name="Shape 503 copy" class="cls-5" d="M2056,2180c26.01,7.29,81.82,23.73,76,65l53,1,19-15,8-17-10-23-69-34s-45.1-15.4-63-23C2066.48,2158.47,2063.67,2159.74,2056,2180Z"/>
    <path class="cls-6" d="M899.073,2176.17s26.894-12.86,50.18-16.82c0,0-15.415-27.69-20.663-42.53l-3.935-4.95-37.389,12.86S890.546,2159.68,899.073,2176.17Z"/>
    <path class="cls-7" d="M2024.67,2108.91s131.56,39.19,179.08,78.14c26.77,21.95,1.41,63.48-29.52,62.32S1907,2244,1907,2244l18-12,203.97,4.51s21.01-30.24-25.58-46.49c-3.83-1.34-2.41-4.61,1.97-3.96s47.72,9.89,37.38,50.45h22.63s20.14-31.98-14.75-44.51c-3.45-1.24-2.46-3.96.98-3.96s37.88,7.42,27.55,48.47c0,0,23.58-1.69,24.6-25.72,0.98-23.24-73.8-54.16-183.01-91l-3.94-.99,4.92-11.87Z"/>
    <path id="Shape_174_copy" data-name="Shape 174 copy" class="cls-7" d="M917.268,2106.66s-130.861,40.82-177.827,80.36c-26.462,22.28-.634,63.49,30.237,61.95s272.062-4.55,272.062-4.55l-21.65-12.86-205.382,3.99s-21.312-29.36,25.33-43.55c3.875-1.18,4.359-4.67,0-3.96s-51.154,7.39-37.389,48.47l-23.614.99s-21.893-30.56,12.791-43.52c3.423-1.28,4.422-4,.984-3.96s-39.022,5.23-28.2,46.15c0,0-23.564-1.4-24.875-25.41-1.268-23.23,73.01-55.07,181.6-93.27l10.211-2.65-4.919-11.87Z"/>
    <path class="cls-7" d="M1929.23,2233.54a231.9,231.9,0,0,0,37.39-31.65c20.58-21.2,35.2-45.18,52.15-82.1v-5.94l-27.55,49.46-17.71,25.72-30.5,25.72S1914.09,2235.98,1929.23,2233.54Z"/>
  </g>
  <g id="base">
    <path class="cls-7" d="M1005.34,1545.08s517.01,239.96,892.02-16.16l131.04,430S2091.13,2190.8,1855,2271l-143.28,11.16H1182.61l-135.95-39.71S887.673,2157.37,921.7,1989.22Z"/>
    <path class="cls-8" d="M1017,1564l-79.554,429.17s-30.5,157.28,121.024,232.46l129.87,38.58,519.51,1.98,140.7-8.91s215.97-60.83,168.25-300.71l-130.86-407.54S1573.9,1786.56,1017,1564Z"/>
    <path class="cls-9" d="M1250.33,2067.36s-1.11-81.4,197.77-78.14c165.7,2.71,185.72,45.83,189.89,87.04l-38.37,10.89-107.25,11.87-180.05-4.95Z"/>
    <path class="cls-9" d="M1010,1561l-84,436s-1.062,8.49-2,21c-3.413,45.52,8.075,159.21,133.48,227.41l130.86,23.74,516.56-.99,149.56-9.89s208.09-60.34,164.31-296.75c0,0,18.04,140.55-72.81,151.34-54.11,6.43-40.34-65.28-40.34-65.28s-48.21,50.94-52.15,144.42-2.95,62.32-2.95,62.32l-140.7,7.91-36.4-202.78s4.42,137.99-157.43,158.27c0,0-122.5,10.88-205.64,0s-89.04-101.39-89.54-137.5-4.92,5.94-4.92,5.94l-30.5,180.03-136.76-31.66s10.82-161.23-51.165-215.64c0,0,27.055-334.51,41.325-440.36,0,0-2.65,10.57,0-5.76Z"/>
    <path class="cls-1" d="M921,2036s0.112,97.76,86.89,173.33c0,0,357.56-35.14,370.35,61.8l168.25-.99s-21.54-110.35,406.46-70.78c0,0,62.48-40.59,71.72-157.72,0,0-86.58,43.53-181.04,50.45s-336.5,28.69-377.82,31.65-229.25-21.76-245-22.75-182.02-37.59-215.47-44.51S921,2036,921,2036Z"/>
    <path class="cls-2" d="M2025.66,2039.66s-8.86,11.87-14.76,15.83c0,0-15.74,46.49-59.04,57.37-16.72,4.95-38.37-8.9-44.27-22.75l-30.5,1.98s-24.6,55.39-23.62,102.88c0,0,60.02,0,98.39,4.94C1951.86,2199.91,2021.53,2152.66,2025.66,2039.66Z"/>
    <path class="cls-2" d="M924,2058s-6.917,85.33,80,151l44.63-3.15s1.97-97.93-20.66-133.54Z"/>
    <path id="Shape_154_copy" data-name="Shape 154 copy" class="cls-2" d="M1193.29,2204.26c89.14,3.51,178.65,19.09,184.95,66.87l168.25-.99s-12.28-59.6,152.42-75.15c14.85-45.43,8.37-69.27-13.59-89.93-95.19,8.14-194.4,16.88-219.51,18.68-41.33,2.97-229.25-21.76-245-22.75-1.53-.09-4.5-0.53-8.64-1.24C1179.65,2149.19,1181.68,2172.59,1193.29,2204.26Z"/>
    <path class="cls-10" d="M1891.85,1546.07l-25.59,16.81,122.99,400.62s9.35,33.14,7.87,45.5a242.853,242.853,0,0,0,25.59-23.74s-0.99-18.3-2.96-29.68Z"/>
    <path class="cls-7" d="M1008.29,2210.79l11.8-.99-2.95-4.94-15.74.99Z"/>
    <path class="cls-7" d="M1197.2,2207.82c103.34,9.32,162.43,13.05,180.06,62.32v3.96l170.21-2.97s-5.57-61,146.61-74.19c0,0,8.85-3.62,0-6.92-29.19,4.29-142.67,12.2-154.48,79.13l-155.46-.99c-13.23-23.26-16.91-60.09-186.94-67.26l-4.92,2.97,0.98,3.95h3.94Z"/>
    <path class="cls-7" d="M1853.47,2195.95s63.18-1.34,100.36,5.94l4.92-4.95s-63.61-10.13-106.26-5.93Z"/>
    <path class="cls-7" d="M901.041,2009l72.279,11.99,225.85,34.5s282.3,56.58,494.91,11.87l235.15-32.64s65.18-4.86,104.3-63.31c0,0,7.35-5.25,7.87,2.97,1.31,20.64,7.22,68.64,0,95.95,0,0-5.19,37.73-141.68,52.43l-193.79,27.58s-190.41,40.41-521.52-7.8l-178.09-22.75-92.488-15.83S902.57,2066.33,901.041,2009Z"/>
    <path id="Shape_153_copy" data-name="Shape 153 copy" class="cls-11" d="M912.848,2021.86l100.362,16.82,205.64,30.66s262.34,48.49,458.5,10.88l229.25-32.64s84.77-5.33,124.96-59.35c0,0,10.04,47.87,0,83.09,0,0-36.4,33.14-162.35,45.5l-181.04,28.69s-175.62,29.67-481.13-10.88l-163.33-19.79-120.039-20.77S914.259,2070.09,912.848,2021.86Z"/>
    <path class="cls-12" d="M2032.55,1986.25s-28.54,49.46-126.93,62.32c-97.13,12.69-226.3,31.65-226.3,31.65s-72.42,10.1-137.75,13.85c-94.95,4.38-237.12-10.88-323.71-24.73-90.52-15.83-205.64-31.65-205.64-31.65l-99.372-15.83a84.216,84.216,0,0,0,.984,12.86l106.258,17.8,198.76,29.68s215.47,47.97,463.42,11.87c77.7-11.32,212.53-29.68,212.53-29.68s107.24-11.87,139.71-59.35Z"/>
    <path class="cls-7" d="M1024,2236c-28.965-20.51-64.872-48.03-96-124l1-11,4,3s35.918,84.74,92,121l25.57,17.26s0.93,6.6-.99,7.98c-1.46,1.05-21.58-10.24-21.58-10.24S1031.56,2241.35,1024,2236Z"/>
    <path class="cls-7" d="M2021,2109l-28,56-42,46-8-3s55-43.67,74-115l7-9,5,6Z"/>
    <g id="belt_and_logo" data-name="belt and logo">
      <path class="cls-7" d="M1539.6,2089.12l0.99,71.22-11.81-.99v-69.24Z"/>
      <path id="Shape_165_copy" data-name="Shape 165 copy" class="cls-7" d="M1382.18,2085.17l0.98,71.22-11.81-.99v-69.24Z"/>
      <path class="cls-7" d="M1369.93,2069.81l171.13,5.04-2.99,102.83-171.13-5.04Z"/>
      <path id="Rectangle_2_copy" data-name="Rectangle 2 copy" class="cls-12" d="M1382.77,2082.21l147.01,3.87-2.57,79.2-147.01-3.87Z"/>
      <path id="Shape_165_copy_3" data-name="Shape 165 copy 3" class="cls-7" d="M1514.02,2100.99c0.44,15.49,0,49.46,0,49.46s-80.31-1.15-115.12-1.98c-0.93-13.74-1.45-37.15-.98-51.43C1441.64,2098.79,1467.64,2100.11,1514.02,2100.99Z"/>
      <path id="Shape_165_copy_4" data-name="Shape 165 copy 4" class="cls-11" d="M1504.03,2112.13c0.36,8.74,0,25.46,0,25.46s-67.17-.64-96.28-1.11a200.25,200.25,0,0,1-.82-26.58C1443.49,2110.88,1465.24,2111.63,1504.03,2112.13Z"/>
      <g id="belt_loops" data-name="belt loops">
        <path class="cls-7" d="M1627.17,2082.2l4.92,73.2h8.86l-4.92-74.19Z"/>
        <path id="Shape_167_copy" data-name="Shape 167 copy" class="cls-7" d="M1606.51,2083.19l4.92,73.2h8.85l-4.92-74.19Z"/>
        <path class="cls-7" d="M1314.29,2079.23l-11.81,71.22-9.84-.99,12.79-72.21Z"/>
        <path id="Shape_168_copy" data-name="Shape 168 copy" class="cls-7" d="M1292.64,2077.25l-10.82,70.23-10.83-.98,12.79-72.21Z"/>
        <path class="cls-7" d="M982.706,2028.78v77.16H968.931l1.968-79.13Z"/>
        <path class="cls-7" d="M956.14,2023.84l0.984,77.15L946.3,2100l-0.984-79.13Z"/>
        <path class="cls-7" d="M1920.38,2042.63l8.85,69.24h11.81l-10.82-71.22Z"/>
        <path id="Shape_171_copy" data-name="Shape 171 copy" class="cls-7" d="M1943.01,2037.69l8.85,69.24,9.84-.99-8.85-71.22Z"/>
        <path class="cls-7" d="M2013.85,2004.05l0.98,78.15,11.81-2.97-2.95-84.08Z"/>
      </g>
      <g id="logo">
        <path class="cls-7" d="M1447.12,1747.85c110.86,0,200.73,42.52,200.73,94.96s-89.87,94.97-200.73,94.97-200.73-42.52-200.73-94.97S1336.26,1747.85,1447.12,1747.85Z"/>
        <ellipse id="Ellipse_2_copy" data-name="Ellipse 2 copy" class="cls-13" cx="1447.61" cy="1842.83" rx="182.52" ry="81.11"/>
        <path class="cls-7" d="M1467.4,1801.51l-2.31-27-9.16,13.29a45.164,45.164,0,0,0-15.64.65l-10.05-13.72-2.67,27.04s-2.71,21.71-31.87,21.71-40.71-25.65-18.06-43.44c0,0-104.58,16.87-102.02,64.07,1.89,34.73,48.69,49.68,63.67,55.28,0,0-16.48-17.72-3.75-29.2s42.46,2.12,47.72,10.17c0,0,10.11-14.03,25.52-14.5s35.73,25.87,39.36,38.34c0,0,16.35-38.4,38.88-38.85,13.51-.27,19.98,9.98,24.99,14.72,0,0,25.49-23.85,48.28-12.99,9.51,4.53,4.42,24.05-3.36,30.9,0,0,65.54-21.2,62.94-56.65s-52.49-51.13-102.12-62.75c0,0,35.58,38.55-18.91,44.78C1486.16,1824.81,1472,1816,1467.4,1801.51Z"/>
      </g>
    </g>
  </g>
  <g id="arms">
    <g id="right_arm" data-name="right arm">
      <path class="cls-8" d="M1673.42,2037.69l29.51,173.1,144.64-2.97s6.39-89.52,37.39-132.55l17.71-29.67,5.9-9.89s-54.61-39.57-122-36.6S1673.42,2037.69,1673.42,2037.69Z"/>
      <path class="cls-1" d="M1692.11,2137.59s153.49-.99,183.01-50.44c0,0-20.66,36.59-25.58,86.05l-1.97,97.93s14.76,13.85,29.52,16.82,24.59,15.82,22.63,30.66-10.83,29.68-28.54,30.67-108.23,1.97-108.23,1.97-45.26-25.71-47.23-55.39-12.79-89.02-12.79-89.02Z"/>
      <path class="cls-3" d="M1866.26,2104.95s-13.28,34.62-16.72,80.12a734.282,734.282,0,0,0-1.97,79.14s1.58,15.7,25.58,23.74c17.71,5.93,20.66,9.39,22.63,18.79,3,14.33-5.95-5.3-31.48-6.92-23.32-1.49-29.57-16.59-34.44-25.72-4.16-16.31,5.9-144.42,9.84-155.3l14.76-7.91Z"/>
      <path id="highlight" class="cls-14" d="M1840.68,2111.87s32.96-60.83,62.97-100.89c0,0,38.37-73.2-4.92-123.65,0,0,59.04,48.97,22.63,134.53l-27.55,38.58-20.66,36.6-13.77,8.9Z"/>
      <path id="blacks" class="cls-7" d="M1840.68,2268.16s0.49-64.29.99-77.15,4.91-94.47,74.77-167.17c0,0,12.3-10.88,1.97,3.95s-59.03,84.08-63.95,161.24c0,0-3.45,77.16,1.96,80.12,0,0,.5,9.9,16.73,12.86s17.8,0.52,29.52,15.83c0,0,3.93,8.41,4.92,13.85l-0.99,17.8s-1.47,22.26-27.55,27.7c0,0-101.83,3.96-108.23,2.97,0,0-58.54-5.94-62.97-78.15l-13.77-84.08s-22.14-142.44-23.62-154.31-8.36-62.81,6.89-1.98l45.26,255.21s10.33,63.31,85.6,48.47c0,0,2.88-35.62-26.56-40.56-11.81-1.97-2.46-4.94.98-4.94s32.47,0.49,37.39,45.5l38.37-.99s3.94-39.07-27.55-42.53c-7.38,0-5.41-5.94.99-4.95s31.97,0,39.35,46.49c0,0,17.22,1.49,21.65-15.83l0.98-11.87s-2.95-17.31-15.74-18.79-20.17-3.96-25.58-8.9S1842.65,2277.56,1840.68,2268.16Z"/>
      <path class="cls-7" d="M1691.13,2133.64s131.84,0,178.08-39.57l-4.91,11.87s-36.41,35.12-170.22,36.6Z"/>
      <path class="cls-7" d="M1851.18,2238.35s37.35-14.08,35.68-34.92v-4.51s-18.96,14.08-32.34,5.63h-8.92l1.12,34.93Z"/>
      <path id="Shape_161_copy" data-name="Shape 161 copy" class="cls-7" d="M1856.89,2182.99s38.75-9.51,39.56-30.4l0.53-4.47s-20.49,11.71-32.77,1.72l-8.86-1.07-3.03,34.81Z"/>
      <path id="Shape_161_copy_2" data-name="Shape 161 copy 2" class="cls-7" d="M1865.15,2130.09s39.86,1.56,46.35-18.31l1.74-4.16s-22.9,5.61-31.98-7.39l-8.23-3.47-12.42,32.63Z"/>
      <path class="cls-1" d="M1874.13,2104.95l-5.9,16.82s19.68,1.32,27.55-3.96C1895.78,2117.81,1880.04,2115.5,1874.13,2104.95Z"/>
      <path class="cls-1" d="M1859.38,2157.38s-4.27,10.88-3.94,17.8c0,0,16.07-.99,28.53-12.86C1883.97,2162.32,1869.21,2162.98,1859.38,2157.38Z"/>
      <path class="cls-1" d="M1854.46,2213.76l-0.99,14.84a50.048,50.048,0,0,0,23.62-15.83S1861.02,2217.72,1854.46,2213.76Z"/>
    </g>
    <g id="left_arm" data-name="left arm">
      <g id="fins">
        <path class="cls-7" d="M1041.42,2226.67s-35.97-17.68-32.25-38.17l0.44-4.47s17.57,15.85,31.78,8.8l8.92,0.89-4.54,34.51Z"/>
        <path id="Shape_161_copy-2" data-name="Shape 161 copy" class="cls-7" d="M1041.13,2171.23s-37.82-13.29-36.58-34.08l-0.09-4.49s19.33,13.65,32.6,4.98l8.96-.18-0.38,34.8Z"/>
        <path id="Shape_161_copy_2-2" data-name="Shape 161 copy 2" class="cls-7" d="M1038.05,2117.97s-40.014-2.43-44.555-22.77l-1.329-4.29s22.354,7.84,32.7-4.14l8.56-2.63,9.23,33.59Z"/>
        <path class="cls-1" d="M1031.53,2092.16l4.25,17.25s-19.8-.65-27.16-6.66C1008.62,2102.75,1024.59,2102.03,1031.53,2092.16Z"/>
        <path class="cls-1" d="M1041.15,2145.59s3.2,11.21,2.19,18.04c0,0-15.97-2.58-27.27-15.59C1016.07,2148.04,1030.76,2150.17,1041.15,2145.59Z"/>
        <path class="cls-1" d="M1040.55,2201.96l-0.47,14.81a50.392,50.392,0,0,1-22.06-18.04S1033.6,2205.23,1040.55,2201.96Z"/>
      </g>
      <path class="cls-8" d="M1220.43,2044.81l-31.39,172.61-144.56-4.56s3.55-103.8-15.53-144.51l-14.76-26.71-14.758-22.75s40.958-17.57,108.3-13.86S1220.43,2044.81,1220.43,2044.81Z"/>
      <path class="cls-1" d="M1205.07,2128.69s-119.53,17.59-168.25-42.53c0,0,5.46,38.57,9.84,88.03l-2.87,101.92s-14.91,13.67-29.69,16.47-24.764,15.54-22.958,30.39,10.5,29.76,28.188,30.95,108.18,3.16,108.18,3.16,45.53-25.19,47.82-54.82,13.75-88.79,13.75-88.79Z"/>
      <path class="cls-14" d="M1129.19,1824.01s104.68,18.98,99.69,123.98C1228.88,1947.99,1210.83,1863.04,1129.19,1824.01Z"/>
      <path class="cls-7" d="M1039.77,2084.18s40.58,50.19,163.33,37.59l-0.98,7.91s-100.08,18.07-160.38-32.64Z"/>
      <path class="cls-15" d="M1054.53,2271.13s3.85-17.44-.98-83.09c-5.03-68.24-5.21-119.99-49.83-164.57,0,0-12.176-11.42-2.37,3.72,9.63,14.86,39.75,40.12,40.39,173.71,0,0,4.51,54.06,1.26,66.1,0,0-2.61,18.74-18.97,19.96s-23.74.06-35.613,15.22c0,0-4.026,8.36-5.069,13.78l0.79,17.8s1.233,22.25,27.242,27.97c0,0,101.76,5.08,108.16,4.16,0,0,58.59-5.29,63.81-77.38l14.68-83.84s23.68-142.05,25.29-153.9,9.53-58.2-6.87-2.05l-48.02,254.46s-11.02,63.13-86.1,47.47c0,0-2.49-35.61,27-40.22,11.82-1.85,2.51-4.91-.93-4.95s-32.47.14-37.88,45.05l-38.35-1.42s-3.51-39.07,28.01-42.18c7.38,0.08,5.47-5.87-.93-4.96s-31.97-.35-39.85,46.02c0,0-17.23,1.29-21.47-16.05l-0.854-11.87s3.134-17.26,15.944-18.6,20.88-3.25,26.75-7.59S1051.59,2280.26,1054.53,2271.13Z"/>
      <path id="Shape_506_copy" data-name="Shape 506 copy" class="cls-8" d="M1012,2032s-69.64-46.3,26-209C1038,1823,1031.29,1963.95,1012,2032Z"/>
    </g>
  </g>
  <g id="cape">
    <path id="underside" class="cls-16" d="M851.845,2078.24s28.533-20.28,56.083-6.92c0,0-5.411-45.01-5.9-61.33l15.526,2.8s3.487-22.5,4.963-28.93,47.651-255.4,47.651-255.4l-57.317,95.56L850.861,1991.2l-16.727,83.09Z"/>
    <path id="base-2" data-name="base" class="cls-1" d="M1003,1543c-64.7,2.4-118.189-17.95-144,233-29.518,245.32-108.5,273.56-134.08,303.23-6.444,7.48,97.385,57.29,131.844,41.55,26.082-14.35-91.348,47.23,113.151-389.74,41.215-52.3,90.815-82.57,196.785-66.27,113.93,17.52,261.02,62.33,288.29,77.15,62.39-25.25,218.06-58.47,388.64-50.45,115.61,5.45,130.39-34.18,123.98-97.92-5.2-51.64-52.15-75.18-73.8-69.25,0,0,4.92,16.82,10.83,44.52-152.56,11.38-262.68,53.23-447.69,164.2C1380.4,1671.44,1207.72,1562.61,1002,1574,1002,1574,1000.6,1569.36,1003,1543Z"/>
    <path id="highlight-2" data-name="highlight" class="cls-17" d="M1900.7,1523.32s71.67,8.42,65.92,91.99c-51.92-22.44-93.56-13.89-372.9,39.57-0.45-3.22,147.27-55.87,212.52-69.25,68.49-14.03,106.27-10.46,128.9-4.94,22.18,5.4,13.28-18.8-28.54-22.26l-15.74-36.1Z"/>
    <path class="cls-17" d="M1386,1683s-170.59-112.1-364-109c0,0-58.564-14.11-88,48C934,1622,989,1526.42,1386,1683Z"/>
    <g id="blacks-2" data-name="blacks">
      <path class="cls-7" d="M1456.95,1741.92c68.88-24.73,172.21-44.51,330.6-49.46,96.67-3.01,180.63,26.79,184.98-76.66,0.45-10.91-.5-91.5-78.72-96.94l-3.93.99,11.8,45.01s-193.49-4.11-446.69,165.19C1454.99,1730.05,1452.03,1734.01,1456.95,1741.92Zm4.92-8.9s235.99-157.91,450.64-157.28l-10.83-46s63.96,0,62.97,86.06c-0.36,30.98-12.3,46.73-29.51,59.85-21.36,16.28-68.29,8.48-157.43,8.9-51.14,2.83-94.36,1.83-150.54,8.9C1583.14,1699,1530.98,1709.02,1461.87,1733.02Z"/>
      <path class="cls-7" d="M1455.97,1731.04S1310.96,1581.18,1011,1565c0,0-1-15-1-24-68.5-5.38-120.8-10.14-146,171-4.379,41.06-8.54,76.23-11,97-6.722,39.49-10.156,76.41-42,154-22.094,47.68-45.74,77.16-91,116.23-0.2,14.04,113.642,63.8,142.668,39.57-14.267-9.89-13.283-31.16-11.807-40.56,0,0-1.476-35.61,43.292-158.27s82.649-206.73,126.437-231.96c82.02-54.05,207.67-12.89,436.36,54.9C1462.66,1737.66,1455.97,1731.04,1455.97,1731.04Zm-3.94,3.96S1289.24,1584.28,998,1574c0,0-.5-9.5,0-23-57.5,3-100.112-7.26-125,171-5.481,41.57-6.409,70.29-18,136-4.144,19.43-8.378,42.49-27,91-30.113,57.98-30.3,73.32-93.241,130.23,0,0,52.639,41.19,110.2,35.61-8.855-12.86-10.062-32.56,16.727-124.63,22.7-78.01,67.916-193.13,78.713-213.67,31.843-60.55,51.967-85.3,82.6-102.54C1094.92,1633.52,1165.29,1646.08,1452.03,1735Z"/>
      <path class="cls-7" d="M848.893,2081.21s23.614-23.25,60.019-9.89v-6.93s-38.865-14.34-60.019,7.92C844.957,2076.26,848.893,2081.21,848.893,2081.21Z"/>
      <path class="cls-7" d="M1901.68,1565.85c15.35,4.19,17.32,4.63,21.65,5.93,28.62,13.53,8.71,7.49-4.92,4.95-11.18-2.08-20.66-2.97-20.66-2.97S1894.55,1563.9,1901.68,1565.85Z"/>
      <path class="cls-7" d="M1009,1574s-48.064-6.86-69,38c-1.538,9.4.736-49.89,70-47l2,6Z"/>
      <path class="cls-7" d="M1458.64,1729.82l3.23,8.15s135.06-60.41,212.6-71.33C1674.47,1666.64,1628.38,1655.09,1458.64,1729.82Z"/>
      <path id="Shape_188_copy" data-name="Shape 188 copy" class="cls-7" d="M1456.97,1731.89l-2.52,6.05s-169.4-78.2-246.24-88.71C1208.21,1649.23,1250.22,1630.46,1456.97,1731.89Z"/>
      <path class="cls-7" d="M914.816,2012.96s0.351-29.85,11.807-70.23l33.453-182.01,6.887-11.87-2.952,27.69-33.453,180.03-8.855,55.4-1.968,6.92-9.839.99,9.839,72.21,10.823,10.88,20.662,47.48,37.389,48.47,38.371,33.63-6.89,2.97s-64.814-42.08-91.5-120.68l-3.935-12.86-9.839-7.91-7.872-45.5-1.968-31.66Z"/>
    </g>
  </g>
</svg>
