<svg id="tattoo" xmlns="http://www.w3.org/2000/svg" width="3000" height="3000" viewBox="0 0 3000 3000">
  <defs>
    <style>
      .cls-1 {
        fill: #fff;
      }

      .cls-1, .cls-2, .cls-3, .cls-4, .cls-5 {
        fill-rule: evenodd;
      }

      .cls-2 {
        fill: #31323d;
      }

      .cls-3 {
        fill: #bcbcc4;
      }

      .cls-4 {
        fill: #e7e7f0;
      }

      .cls-5 {
        fill: #32323b;
      }
    </style>
  </defs>
  <path class="cls-1" d="M1778.21,2004.41q20.13,1.635,40.25,3.26,6.555,3.945,13.11,7.9-0.465,9.06-.94,18.13c-1.24,1.4-2.49,2.79-3.74,4.19-20.32,0-60.84,7.59-60.84-19.53,1.4-.93,4.55-0.43,5.95-1.36C1774.94,2008.19,1772.97,2005.41,1778.21,2004.41Z"/>
  <path class="cls-1" d="M1842.8,1960.71c-21.21,10.53-63.65-2.07-63.65-24.18,5.09-5.06,53.21,4.03,61.31,6.04q3.75,2.565,7.49,5.12c0.16,2.17.31,4.34,0.47,6.51q-2.805,3.255-5.62,6.51h-3.27"/>
  <path class="cls-2" d="M1772.54,2013.94s-14.57.53-15.65,7.09c0.06,6.67,11.13,18.49,39.48,24.47,26.84,5.55,44.5-2.36,45.17-6.39,0.8-4.85-2.72-10.58-10.32-12.76-0.46,6.07-3.73,11.67-31.65,7.45-7.82-1.44-24.27-6.76-28.45-12.77Z"/>
  <path class="cls-2" d="M1830.51,2015.36v7.09s-13.13,6.03-34.5.71c-11.61-2.9-18.67-7.63-23.11-11.7l1.06-17.38s19.56,7.09,26.32,9.58,29.16,11.7,29.16,11.7h1.07Z"/>
  <path class="cls-2" d="M1778.59,1950.47l0.71-11s1.24,8.16,30.94,15.25,37.52,0.71,39.48-1.06S1840,1987,1840,1987s-22.29-12.95-30.83-16.32S1784.37,1959.18,1778.59,1950.47Z"/>
  <path class="cls-2" d="M1779.66,1936.99s5.86,9.93,32,14.54,31.89,3.29,38.41-.35c4.68-2.62-3.2-8.34-6.76-10.29s-18.31-7.27-29.51-9.57S1778.35,1928.91,1779.66,1936.99Z"/>
  <path class="cls-2" d="M1791.82,1960.25c12.59,6.11,35.7,16.56,52.72,27.19,12.41,7.76,20.39,15.87,20.28,24.18a87.212,87.212,0,0,0-3.04,13.09c-0.16,1.64,6.22,5.45,11.15,9.07,3.24,2.38,5.9,4.33,8.07,5.91-9.61,5.37-12.62,4.77-14.15,6.17-1.3,1.19-.03,3.6,4.05,18.13a4.228,4.228,0,0,1-1.42.99,0.8,0.8,0,0,1-.31,0,3.189,3.189,0,0,1-.46-0.08,24.273,24.273,0,0,1-3.02-1.02c-2.52-.98-5.84-2.43-8.98-3.82-6.32-2.81-11.86-5.39-11.87-5.39,0.38,0.26,7.12-18.24-2.8-28.69-46.63-29.18-87.94-22-81.65-57.68-9.2-3.61-17.74-8.87-28.39-12.08,5.15-3.64,10.28-8.28,15.21-12.09-2.8-6.23-6.2-11.78-9.13-18.13,11.28,2.23,21.7,5.64,31.43,8.06C1769.51,1934.06,1771.97,1948.7,1791.82,1960.25Z"/>
  <path id="Shape_42_copy" data-name="Shape 42 copy" class="cls-3" d="M1768.27,1935.93s-0.46,16.5,19.03,27.2c19.22,10.54,76.5,28.68,74.59,47.81-0.56,5.61-2.77,12.74-2.75,14.81,0.04,3.14,18.93,12.59,16.04,13.72-14.26,5.59-13.4,3.99-6.95,20.77,0.86,2.23-19.38-9.29-19.38-9.29s6.98-16.57-7.29-29.71c-7.22-6.65-52.68-22.68-59.88-25.74-7.98-3.4-21.34-7-18.62-29.98l-23.53-9.8,11.25-9.31-6.89-16.58Z"/>
  <path class="cls-4" d="M1768.42,1939.48s-8.25,46.89,16.23,55.89c27.9,10.25,74.07,19.81,64.08,54.49,0,0,23.64-51.58-27.11-71.03C1821.62,1978.83,1775.3,1962,1768.42,1939.48Z"/>
  <path class="cls-1" d="M1798.61,2000.13q-6.825-3.5-13.64-6.98,4.965-1.035,9.92-2.05-6.81-4.725-13.63-9.44,9.495,2.655,19,5.33-10.53-7.185-21.07-14.36,13.02,4.515,26.03,9.03c-0.28-.55-0.55-1.1-0.83-1.65l-16.11-10.26q9.495,2.88,19.01,5.75-6-4.3-11.99-8.62c13.09,6.16,26.74,10.91,39.12,19.4-6.74-1.37-13.36-3.67-20.11-5.04l16.11,10.68q-9.915-2.46-19.83-4.93,9.3,6.57,18.59,13.14-10.53-2.475-21.07-4.93,9.3,5.13,18.59,10.26-10.32-2.67-20.65-5.33c4.68,2.59,9.36,5.2,14.04,7.79C1803.55,2001.94,1800.97,2000.77,1798.61,2000.13Z"/>
  <path class="cls-2" d="M1782.69,1991.47l3.05-28.2,5.07,3.02-1.02,12.09,10.14-7.05,5.07,3.02-10.14,8.06,8.11,16.11-6.08-1.01-7.1-13.09-2.03,9.07Z"/>
  <path class="cls-2" d="M1807.03,2000.54l3.04-24.18,5.07,2.02-1.01,9.06,7.09,3.02,1.02-9.06,5.07,2.01-3.05,25.18-5.06-2.01,1.01-10.07-7.1-3.02-1.01,9.06Z"/>
  <path class="cls-5" d="M1846.16,2054.01s13.06-27.65,17.84-43.01a68.267,68.267,0,0,1-3,15l-13.06,29.07Z"/>
  <path class="cls-5" d="M1763,1972l5.5-36.93-2.03-1.01-6.08,32.23Z"/>
</svg>
