<svg id="superman" xmlns="http://www.w3.org/2000/svg" width="3000" height="3000" viewBox="0 0 3000 3000">
  <defs>
    <style>
      .cls-1 {
        fill: #e31a2d;
      }

      .cls-1, .cls-10, .cls-11, .cls-12, .cls-13, .cls-14, .cls-15, .cls-16, .cls-17, .cls-2, .cls-3, .cls-4, .cls-5, .cls-6, .cls-7, .cls-8, .cls-9 {
        fill-rule: evenodd;
      }

      .cls-2 {
        fill: #c00b1c;
      }

      .cls-3 {
        fill: #f33143;
      }

      .cls-4 {
        fill: #c82333;
      }

      .cls-5 {
        fill: #ec2639;
      }

      .cls-6 {
        fill: #b00e1d;
      }

      .cls-14, .cls-16, .cls-7 {
        fill: #31323d;
      }

      .cls-8 {
        fill: #186cdd;
      }

      .cls-9 {
        fill: #175dbd;
      }

      .cls-10 {
        fill: #444555;
      }

      .cls-11, .cls-15 {
        fill: #3886ef;
      }

      .cls-12 {
        fill: #fbd819;
      }

      .cls-13 {
        fill: #fbe56c;
      }

      .cls-14 {
        opacity: 0.98;
      }

      .cls-15, .cls-17 {
        opacity: 0.55;
      }

      .cls-16 {
        opacity: 0.99;
      }

      .cls-17 {
        fill: #2a7ae7;
      }
    </style>
  </defs>
  <g id="boots">
    <path class="cls-1" d="M2064.22,2134.96s136.05,42.5,141.49,69.71c3.44,17.19-5.89,30.93-23.58,35.35l-167.04-2.94Z"/>
    <path class="cls-2" d="M2020,2117l53.07,19.92s-27.52,79.04-52.08,100.16c0,0-70.88-1.15-92.99-5.08C1949.24,2216.55,1992.78,2185.86,2020,2117Z"/>
    <path id="Shape_175_copy" data-name="Shape 175 copy" class="cls-1" d="M892,2127.1s-147.837,50.36-153.283,77.57c-3.439,17.19,5.9,30.93,23.582,35.35l182.76-2.94Z"/>
    <path class="cls-2" d="M890.039,2128.08s5.4,68.74,51.094,108.01l80.567-1.96s-61.9-41.24-89.41-114.89l-2.948-7.85Z"/>
    <path class="cls-3" d="M890.039,2129.06s3.93,26.02,11.791,48.12c0,0-49.621,17.18-47.164,59.9l-89.415,4.9s-43.725-22.58-18.669-48.11S858.6,2135.94,858.6,2135.94Z"/>
    <path class="cls-4" d="M1995,2170s49.01,6.22,75,14,13-47,13-47l-28-11-35-10-14,22Z"/>
    <path class="cls-5" d="M2056,2180c26.01,7.29,81.82,23.73,76,65l53,1,19-15,8-17-10-23-69-34s-45.1-15.4-63-23C2066.48,2158.47,2063.67,2159.74,2056,2180Z"/>
    <path class="cls-6" d="M901.83,2177.18s26.857-12.77,50.111-16.69c0,0-15.394-27.5-20.634-42.23l-3.93-4.91-37.338,12.77S893.314,2160.81,901.83,2177.18Z"/>
    <path class="cls-7" d="M2025.9,2110.41s131.37,38.9,178.83,77.57c26.74,21.78,1.42,63.01-29.48,61.86s-263.33-4.91-263.33-4.91l15.72-11.78,202.41,3.93s20.98-30.02-25.54-46.16c-3.83-1.32-2.41-4.58,1.96-3.92s47.66,9.82,37.34,50.08h22.6s20.11-31.75-14.74-44.19c-3.44-1.23-2.45-3.93.98-3.93s37.83,7.37,27.52,48.12c0,0,23.55-1.68,24.56-25.53,0.98-23.08-73.69-53.77-182.76-90.34l-3.93-.98,4.91-11.79Z"/>
    <path id="Shape_174_copy" data-name="Shape 174 copy" class="cls-7" d="M920,2108.18s-130.683,40.52-177.585,79.77c-26.427,22.11-.634,63.02,30.2,61.49s271.69-4.51,271.69-4.51l-21.61-12.76-205.111,3.95s-21.283-29.14,25.3-43.23c3.869-1.17,4.353-4.64,0-3.93s-51.085,7.33-37.338,48.12l-23.582.98s-21.864-30.34,12.773-43.21c3.419-1.27,4.416-3.97.983-3.93s-38.968,5.2-28.164,45.82c0,0-23.532-1.39-24.841-25.23-1.266-23.06,72.911-54.66,181.352-92.58l10.2-2.63-4.913-11.78Z"/>
    <path class="cls-7" d="M1930.59,2234.13a232.108,232.108,0,0,0,37.34-31.42c20.55-21.04,35.15-44.85,52.08-81.5v-5.89l-27.52,49.09-17.68,25.53-30.46,25.53S1915.47,2236.55,1930.59,2234.13Z"/>
  </g>
  <g id="base">
    <path class="cls-7" d="M1007.95,1550.71s524.14,236.32,887.27-14.73L2030,1962s42.52,177.6-99,272c-6.43,4.29-11.01,10.47-24,11-16.02,8.7-32.81,15.34-53,22l-140.56,10.33-527.64-2.94L1043,2245a6.329,6.329,0,0,1-4-1c-26.39-8.52-146.844-100.02-122-254,0,0,28.409-146.39,54-270C989.829,1629.05,1007.95,1550.71,1007.95,1550.71Z"/>
    <path class="cls-8" d="M1019.74,1568.38l-79.59,427.14s-30.46,156.13,120.86,230.75l129.7,38.3,518.8,1.96,140.51-8.83s215.68-60.39,168.02-298.51l-130.68-404.55S1575.88,1789.32,1019.74,1568.38Z"/>
    <path class="cls-9" d="M1252.61,2069.17s-1.11-80.8,197.5-77.58c165.47,2.69,185.47,45.5,189.64,86.41l-38.32,10.8-107.1,11.79-179.82-4.91Z"/>
    <path class="cls-9" d="M1009,1567s-58.756,302.37-77,399a238.872,238.872,0,0,0-4,30s-30.835,159.88,132.03,249.91l130.68,23.57,515.85-.98,149.36-9.82s207.81-59.9,164.09-294.58c0,0,18.01,139.52-72.71,150.23-54.05,6.39-40.29-64.8-40.29-64.8s-48.15,50.57-52.08,143.36-2.95,61.86-2.95,61.86l-140.5,7.86-36.36-201.3s4.42,136.98-157.21,157.11c0,0-122.33,10.8-205.36,0s-88.93-100.65-89.42-136.49-4.91,5.89-4.91,5.89l-30.46,178.71-136.58-31.42s10.81-160.05-51.09-214.06c0,0,27.02-332.06,41.27-437.13,0,0-2.65,10.49,0-5.72Z"/>
    <path class="cls-10" d="M925.412,2036.76s0.791,98.78,87.448,173.8c0,0,354.71-35.35,367.49,60.88l168.02-.98s-22.6-108.99,404.82-69.72c0,0,63.48-40.84,72.71-157.1,0,0-86.47,43.2-180.79,50.07s-336.05,28.48-377.31,31.43-228.95-21.61-244.67-22.59-181.77-37.31-215.18-44.18S925.412,2036.76,925.412,2036.76Z"/>
    <path class="cls-2" d="M2026.88,2041.67s-8.84,11.79-14.73,15.71c0,0-15.73,46.15-58.96,56.95-16.7,4.91-38.32-8.83-44.22-22.58l-30.46,1.96s-24.56,54.99-23.58,102.12c0,0,59.94,0,98.26,4.91C1953.19,2200.74,2022.76,2153.84,2026.88,2041.67Z"/>
    <path class="cls-2" d="M927,2059s9.511,107.51,81,152l43.18-4.36s1.97-97.21-20.63-132.56Z"/>
    <path id="Shape_154_copy" data-name="Shape 154 copy" class="cls-2" d="M1195.64,2205.06c89.03,3.49,178.41,18.95,184.71,66.38l168.02-.98s-12.27-59.16,152.21-74.6c14.83-45.1,8.36-68.77-13.58-89.27-95.05,8.08-194.13,16.76-219.2,18.55-41.27,2.94-228.95-21.61-244.67-22.59-1.53-.09-4.49-0.53-8.63-1.23C1182.03,2150.39,1184.05,2173.62,1195.64,2205.06Z"/>
    <path class="cls-11" d="M1893.25,1551.69l-25.54,16.69,122.82,397.68s9.33,32.9,7.86,45.17a242.833,242.833,0,0,0,25.55-23.56s-2.97-16.38-4.94-27.67Z"/>
    <path class="cls-7" d="M1002,2212l45.25-1.44,0.98-5.89L996,2206Z"/>
    <path class="cls-7" d="M1199.55,2208.6c103.2,9.25,162.21,12.95,179.81,61.86v3.93l169.99-2.95s-5.57-60.55,146.4-73.64c0,0,8.85-3.6,0-6.88-29.15,4.26-142.47,12.12-154.26,78.56l-155.25-.98c-13.21-23.1-16.89-59.66-186.69-66.77l-4.91,2.94,0.98,3.93h3.93Z"/>
    <path class="cls-7" d="M1854.93,2196.82s63.09-1.34,100.23,5.89l4.91-4.91s-63.53-10.06-106.12-5.89Z"/>
    <path class="cls-7" d="M903.8,2011.23l72.18,11.9,225.545,34.25s281.92,56.16,494.23,11.79l234.84-32.41s65.09-4.82,104.15-62.84c0,0,7.34-5.21,7.87,2.95,1.3,20.48,7.21,68.13,0,95.24,0,0-5.18,37.45-141.5,52.04l-193.52,27.38s-190.15,40.12-520.81-7.74l-177.85-22.58-92.362-15.71S905.322,2068.14,903.8,2011.23Z"/>
    <path id="Shape_153_copy" data-name="Shape 153 copy" class="cls-12" d="M915.586,2024l100.224,16.69,205.36,30.44s261.98,48.13,457.88,10.8l228.94-32.4s84.65-5.29,124.79-58.92c0,0,10.02,47.52,0,82.48,0,0-36.36,32.9-162.13,45.17l-180.79,28.48s-175.39,29.46-480.48-10.8l-163.11-19.64-119.876-20.62S917,2071.87,915.586,2024Z"/>
    <path class="cls-13" d="M2033.76,1988.65s-28.49,49.09-126.75,61.86c-97,12.6-225.99,31.42-225.99,31.42s-72.33,10.02-137.57,13.75c-94.82,4.35-236.8-10.8-323.26-24.55-90.4-15.71-205.36-31.42-205.36-31.42L915.586,2024a83.077,83.077,0,0,0,.982,12.76l106.122,17.68,198.48,29.46s215.18,47.62,462.79,11.78c77.6-11.23,212.24-29.46,212.24-29.46s107.1-11.78,139.53-58.92Z"/>
    <path class="cls-7" d="M1020.7,2234.13s-61.022-40.29-90.393-117.83L928,2106l9,1s19.4,66.62,87,115l9.48,12.13-6.88,4.91Z"/>
    <path class="cls-7" d="M1905,2235s85.69-43.94,113.3-144.19c-6.83-10.8,7.18-24.07,7.9-.99-1.64,7.29-3.2,14.18-3.2,14.18l-15,35-31,48-41,40-18,11Z"/>
    <g id="belt_and_logo" data-name="belt and logo">
      <path class="cls-7" d="M1541.49,2090.77l0.98,70.7-11.79-.98v-68.74Z"/>
      <path id="Shape_165_copy" data-name="Shape 165 copy" class="cls-7" d="M1384.28,2086.84l0.98,70.7-11.79-.98v-68.74Z"/>
      <path class="cls-7" d="M1372.05,2071.6l170.9,5-2.99,102.07-170.9-4.99Z"/>
      <path id="Rectangle_2_copy" data-name="Rectangle 2 copy" class="cls-13" d="M1384.87,2083.9l146.81,3.85-2.57,78.62-146.81-3.85Z"/>
      <path id="Shape_165_copy_3" data-name="Shape 165 copy 3" class="cls-7" d="M1515.94,2102.55c0.44,15.38,0,49.1,0,49.1s-80.2-1.14-114.96-1.97c-0.93-13.64-1.45-36.88-.98-51.06C1443.66,2100.36,1469.63,2101.67,1515.94,2102.55Z"/>
      <path id="Shape_165_copy_4" data-name="Shape 165 copy 4" class="cls-12" d="M1505.96,2113.6c0.37,8.68,0,25.28,0,25.28s-67.07-.64-96.14-1.1a197.341,197.341,0,0,1-.82-26.39C1445.51,2112.37,1467.23,2113.11,1505.96,2113.6Z"/>
      <g id="belt_loops" data-name="belt loops">
        <path class="cls-7" d="M1628.94,2083.9l4.91,72.66h8.85l-4.92-73.65Z"/>
        <path id="Shape_167_copy" data-name="Shape 167 copy" class="cls-7" d="M1608.3,2084.88l4.92,72.66h8.84l-4.91-73.64Z"/>
        <path class="cls-7" d="M1316.48,2080.95l-11.79,70.7-9.83-.98,12.78-71.68Z"/>
        <path id="Shape_168_copy" data-name="Shape 168 copy" class="cls-7" d="M1294.86,2078.99l-10.81,69.71-10.81-.98,12.78-71.68Z"/>
        <path class="cls-7" d="M985.349,2030.87v76.59H971.593l1.965-78.55Z"/>
        <path class="cls-7" d="M958.819,2025.96l0.983,76.59-10.809-.98-0.982-78.55Z"/>
        <path class="cls-7" d="M1921.75,2044.62l8.84,68.73h11.79l-10.81-70.7Z"/>
        <path id="Shape_171_copy" data-name="Shape 171 copy" class="cls-7" d="M1944.35,2039.71l8.84,68.73,9.83-.98-8.85-70.7Z"/>
        <path class="cls-7" d="M2015.09,2006.32l0.99,77.58,11.79-2.95-2.95-83.46Z"/>
      </g>
      <g id="logo">
        <path id="Shape_206_copy" data-name="Shape 206 copy" class="cls-7" d="M1295.84,1830.56l56.01-49.1h205.36l56.01,48.12-158.2,163Z"/>
        <path class="cls-1" d="M1309.35,1831.54l47.05-40.35h197.06l46.16,39.57-145.58,148.21Z"/>
        <g id="yellow">
          <path class="cls-12" d="M1559.67,1811.36l22.19,20.95-32.84,34.15s-14.39-15.76-32.84-20.18-60.1-6.45-82.56-5.43-31.01-6.23-34.62-8.54-6.21-9.31-6.21-9.31l5.33-8.53,12.42-6.99,22.2-5.43,30.18,1.55,17.75,3.11,16.87,8.53,7.1,10.09,2.66,9.31h50.6Z"/>
          <path class="cls-12" d="M1503.75,1800.5l17.75,0.77-2.66,7.76-9.76-6.98Z"/>
          <path class="cls-12" d="M1363.5,1800.5c1.09,0.01,15.98,1.55,15.98,1.55l-22.2,20.95-12.42,25.61-17.76-17.07S1362.41,1800.49,1363.5,1800.5Z"/>
          <path class="cls-12" d="M1369.71,1875.77l47.05,3.88,47.04,3.1,34.62,2.33,15.09,3.88,1.78,6.98-6.21,6.21-13.32,5.43h-44.38l-10.66-10.09-15.97-3.1-19.53.78-9.77,4.65-16.86-14.74Z"/>
          <path class="cls-12" d="M1423.86,1926.98l25.74,3.11,25.74-.78,12.43-2.33-15.98,17.85-17.75,16.3Z"/>
        </g>
        <path class="cls-7" d="M1411.43,1921.55s41.97,11.3,85.22,1.55l-42.61,42.68Zm17.75,9.31s24.6,5.27,49.71.78l-23.96,24.83Z"/>
        <path class="cls-7" d="M1359.95,1869.56s48.39,7.98,91.43,9.31,68.93,5.07,68.35,15.52-15.55,18.94-70.13,15.52c0,0-16.72-26.95-56.81-6.21Zm18.43,9.11s64.48,7.15,87.45,7.86,44.86,1.22,45.2,8.84-21.85,10.97-57.97,7.85c0,0-15.8-22.55-56.99-6.87Z"/>
        <path class="cls-7" d="M1555.23,1805.15l31.07,26.39-38.17,40.35s-6.65-28.2-83.28-27.58c-74.8,2.21-74.91-15.48-75.66-22.59s14.3-22.92,57.75-22.77,61.33,15.85,63.02,32.59h45.27v-26.39Zm6.22,13.2v19.39h-56.81s2.1-32.56-55.04-32.59c-41.74,1.58-51.78,10.53-51.48,17.85,0.36,8.92,14.21,14.93,51.48,14.74s79.29,0.11,99.75,23.26l27.51-28.48Z"/>
        <path class="cls-7" d="M1525.05,1798.95s1.24,9.04-7.99,17.07c0,0-8.95-14.33-22.19-17.07h30.18Zm-9.76,4.65,3.55,0.78-0.89,3.1A8.319,8.319,0,0,0,1515.29,1803.6Z"/>
        <path class="cls-14" d="M1345.74,1855.59l-22.19-23.28,38.17-33.36h26.63S1351.25,1820.97,1345.74,1855.59Zm-3.55-13.19-9.76-10.09,30.18-27.16h7.1S1351.36,1817.39,1342.19,1842.4Z"/>
      </g>
    </g>
  </g>
  <g id="arms">
    <g id="right_arm" data-name="right arm">
      <path class="cls-8" d="M1675.12,2039.71l41.27,232.71,130.68-9.81s-3.93-138.95,39.31-185.59l17.68-29.46,5.9-9.82s-54.54-39.27-121.84-36.33S1675.12,2039.71,1675.12,2039.71Z"/>
      <path class="cls-11" d="M1876.55,2081.93c-11.79,32.4-22.11,58.92-25.55,104.09a724.705,724.705,0,0,0-1.96,78.55,121.186,121.186,0,0,1-18.51,1.48c-1.17-33.95,7.11-137.1,10.65-146.81C1841.18,2119.24,1858.37,2084.39,1876.55,2081.93Z"/>
      <path id="highlight" class="cls-15" d="M1841.18,2134.96c-7.86-33.88,33.9-82,63.86-121.76,0,0,38.32-72.67-4.91-122.74,0,0,58.96,48.6,22.6,133.54l-27.51,38.29-20.64,36.33-13.75,8.84S1850.51,2136.43,1841.18,2134.96Z"/>
      <path id="blacks" class="cls-7" d="M1842.27,2255.76c0.17-19.31.52-54.7,0.87-63.85,0.49-12.77,4.91-93.78,74.68-165.95,0,0,12.28-10.8,1.96,3.93s-58.95,83.46-63.86,160.05c0,0-3.92,59.6-.92,76.06-39.23,4.05-81.06,8.26-145,14-2.46-14.94-14.25-81.22-14.25-81.22s-22.1-141.4-23.58-153.18-8.35-62.35,6.88-1.96c0,0,27.66,155.05,39.71,222.55C1750.9,2263.07,1803.65,2258.11,1842.27,2255.76Z"/>
      <path class="cls-7" d="M1720.32,2278.32l125.77-11.79,0.98-11.78-128.72,10.8"/>
    </g>
    <g id="left_arm" data-name="left arm">
      <path class="cls-8" d="M1222.75,2046.78s-37.88,201.95-39.9,224.66c-40.92,11.11-127.74-15.71-127.74-15.71s-4.53-145.17-23.58-185.58l-14.74-26.51-14.74-22.59s40.9-17.44,108.16-13.76S1222.75,2046.78,1222.75,2046.78Z"/>
      <path class="cls-16" d="M1057.08,2255.73c0.26-12.66,1.28-36.15-.99-66.77-5.01-67.74-5.2-119.11-49.76-163.37,0,0-12.155-11.33-2.36,3.7,9.61,14.75,39.7,39.82,40.33,172.44,0,0,3.35,44.6,2.95,63.82,57.67,12.41,112.9,10.14,139.53,9.82,3.71-21.1,13.6-69.9,13.6-69.9s23.65-141.02,25.25-152.77,9.52-57.78-6.85-2.04c0,0-27.69,144.62-40.85,213.91C1140.13,2264.22,1124.64,2265.13,1057.08,2255.73Z"/>
      <path id="Shape_198_copy" data-name="Shape 198 copy" class="cls-17" d="M1129.19,1824.01s104.68,18.98,99.69,123.98C1228.88,1947.99,1210.83,1863.04,1129.19,1824.01Z"/>
      <path class="cls-8" d="M1012,2032s-69.64-46.3,26-209C1038,1823,1031.29,1963.95,1012,2032Z"/>
    </g>
  </g>
  <g id="cape_copy" data-name="cape copy">
    <path id="underside" class="cls-6" d="M850,2076s31.45-20.35,59-7c0,0-3.508-40.68-4-57l12.551,0.79s3.487-22.5,4.963-28.93,47.651-255.4,47.651-255.4l-57.317,95.56L850.861,1991.2l-16.727,83.09Z"/>
    <path id="base-2" data-name="base" class="cls-1" d="M1003,1543c-64.7,2.4-118.189-17.95-144,233-29.518,245.32-108.5,273.56-134.08,303.23-6.444,7.48,97.385,57.29,131.844,41.55,26.082-14.35-91.348,47.23,113.151-389.74,41.215-52.3,90.815-82.57,196.785-66.27,113.93,17.52,261.02,62.33,288.29,77.15,62.39-25.25,218.06-58.47,388.64-50.45,115.61,5.45,130.39-34.18,123.98-97.92-5.2-51.64-52.15-75.18-73.8-69.25,0,0,4.92,16.82,10.83,44.52-152.56,11.38-262.68,53.23-447.69,164.2C1380.4,1671.44,1207.72,1562.61,1002,1574,1002,1574,1000.6,1569.36,1003,1543Z"/>
    <path id="highlight-2" data-name="highlight" class="cls-3" d="M1900.7,1523.32s71.67,8.42,65.92,91.99c-51.92-22.44-93.56-13.89-372.9,39.57-0.45-3.22,147.27-55.87,212.52-69.25,68.49-14.03,106.27-10.46,128.9-4.94,22.18,5.4,13.28-18.8-28.54-22.26l-15.74-36.1Z"/>
    <path class="cls-3" d="M1386,1683s-170.59-112.1-364-109c0,0-58.564-14.11-88,48C934,1622,989,1526.42,1386,1683Z"/>
    <g id="blacks-2" data-name="blacks">
      <path class="cls-7" d="M1456.95,1741.92c68.88-24.73,172.21-44.51,330.6-49.46,96.67-3.01,180.63,26.79,184.98-76.66,0.45-10.91-.5-91.5-78.72-96.94l-3.93.99,11.8,45.01s-193.49-4.11-446.69,165.19C1454.99,1730.05,1452.03,1734.01,1456.95,1741.92Zm4.92-8.9s235.99-157.91,450.64-157.28l-10.83-46s63.96,0,62.97,86.06c-0.36,30.98-12.3,46.73-29.51,59.85-21.36,16.28-68.29,8.48-157.43,8.9-51.14,2.83-94.36,1.83-150.54,8.9C1583.14,1699,1530.98,1709.02,1461.87,1733.02Z"/>
      <path class="cls-7" d="M1455.97,1731.04S1310.96,1581.18,1011,1565c0,0-1-15-1-24-68.5-5.38-120.8-10.14-146,171-4.379,41.06-8.54,76.23-11,97-6.722,39.49-10.156,76.41-42,154-22.094,47.68-45.74,77.16-91,116.23-0.2,14.04,113.642,63.8,142.668,39.57-14.267-9.89-13.283-31.16-11.807-40.56,0,0-1.476-35.61,43.292-158.27s82.649-206.73,126.437-231.96c82.02-54.05,207.67-12.89,436.36,54.9C1462.66,1737.66,1455.97,1731.04,1455.97,1731.04Zm-3.94,3.96S1289.24,1584.28,998,1574c0,0-.5-9.5,0-23-57.5,3-100.112-7.26-125,171-5.481,41.57-6.409,70.29-18,136-4.144,19.43-8.378,42.49-27,91-30.113,57.98-30.3,73.32-93.241,130.23,0,0,52.639,41.19,110.2,35.61-8.855-12.86-10.062-32.56,16.727-124.63,22.7-78.01,67.916-193.13,78.713-213.67,31.843-60.55,51.967-85.3,82.6-102.54C1094.92,1633.52,1165.29,1646.08,1452.03,1735Z"/>
      <path class="cls-7" d="M848.893,2081.21S874.6,2058.65,911,2072v-7s-40.953-14.95-62.107,7.31C844.957,2076.26,848.893,2081.21,848.893,2081.21Z"/>
      <path class="cls-7" d="M1901.68,1565.85c15.35,4.19,17.32,4.63,21.65,5.93,28.62,13.53,8.71,7.49-4.92,4.95-11.18-2.08-20.66-2.97-20.66-2.97S1894.55,1563.9,1901.68,1565.85Z"/>
      <path class="cls-7" d="M1009,1574s-48.064-6.86-69,38c-1.538,9.4.736-49.89,70-47l2,6Z"/>
      <path class="cls-7" d="M1458.64,1729.82l3.23,8.15s135.06-60.41,212.6-71.33C1674.47,1666.64,1628.38,1655.09,1458.64,1729.82Z"/>
      <path id="Shape_188_copy" data-name="Shape 188 copy" class="cls-7" d="M1456.97,1731.89l-2.52,6.05s-169.4-78.2-246.24-88.71C1208.21,1649.23,1250.22,1630.46,1456.97,1731.89Z"/>
      <path class="cls-7" d="M914.816,2012.96s0.351-29.85,11.807-70.23l33.453-182.01,6.887-11.87-2.952,27.69-33.453,180.03-8.855,55.4-1.968,6.92-9.839.99,9.839,72.21,10.823,10.88,20.662,47.48,37.389,48.47,38.371,33.63-6.89,2.97s-64.814-42.08-91.5-120.68l-3.935-12.86-9.839-7.91S911.181,2080.61,909,2068c-1.691-9.78-3-28-3-28l-1-28Z"/>
    </g>
  </g>
</svg>
