<svg id="white_flower" data-name="white flower" xmlns="http://www.w3.org/2000/svg" width="3000" height="3000" viewBox="0 0 3000 3000">
  <defs>
    <style>
      .cls-1, .cls-3 {
        fill: #31323d;
      }

      .cls-1, .cls-2 {
        fill-rule: evenodd;
      }

      .cls-2, .cls-4 {
        fill: #fff;
      }
    </style>
  </defs>
  <g>
    <path class="cls-1" d="M1218,854s-8-49-4-69c0,0,7-42,89-57,0,0,28,54-17,95C1252.63,843.75,1247.38,844.813,1218,854Z"/>
    <path id="Shape_115_copy" data-name="Shape 115 copy" class="cls-2" d="M1226.1,842s-6.4-39.278-3.2-55.31c0,0,5.6-33.666,71.2-45.69,0,0,22.4,43.286-13.6,76.151C1253.8,833.784,1249.6,834.635,1226.1,842Z"/>
    <path id="Shape_115_copy_2" data-name="Shape 115 copy 2" class="cls-1" d="M1223.46,859.192s39.63-29.9,59.2-35.665c0,0,40.44-13.337,91.98,52.442,0,0-34.73,49.979-92.01,29.132C1248.69,885.144,1245.3,880.981,1223.46,859.192Z"/>
    <path id="Shape_115_copy_3" data-name="Shape 115 copy 3" class="cls-2" d="M1237.86,860.794s31.78-23.96,47.46-28.583c0,0,32.41-10.7,73.66,41.912,0,0-27.86,40.022-73.74,23.375C1258.06,881.548,1255.34,878.218,1237.86,860.794Z"/>
    <path id="Shape_115_copy_4" data-name="Shape 115 copy 4" class="cls-1" d="M1214.67,854.886s41.97,29.937,53.33,47.351c0,0,24.98,35.57-29.18,105.123,0,0-61.47-19.27-55.57-81.287C1194.65,887.106,1198.04,882.579,1214.67,854.886Z"/>
    <path id="Shape_115_copy_5" data-name="Shape 115 copy 5" class="cls-2" d="M1216.97,869.411s33.63,24.006,42.74,37.961c0,0,20.03,28.5-23.28,84.166,0,0-49.24-15.48-44.56-65.141C1200.96,895.2,1203.68,891.576,1216.97,869.411Z"/>
    <path id="Shape_115_copy_6" data-name="Shape 115 copy 6" class="cls-1" d="M1217.1,852.272s-18.43,48.913-32.72,64.8c0,0-28.72,34.155-113.06,1.768,0,0,2.43-64.663,66.03-76.6C1179.42,842.147,1184.87,844.128,1217.1,852.272Z"/>
    <path id="Shape_115_copy_7" data-name="Shape 115 copy 7" class="cls-2" d="M1203.22,858.609s-14.79,39.2-26.24,51.942c0,0-23.01,27.384-90.5,1.5,0,0,1.99-51.808,52.91-61.417C1173.06,850.524,1177.42,852.107,1203.22,858.609Z"/>
    <path id="Shape_115_copy_8" data-name="Shape 115 copy 8" class="cls-1" d="M1221.69,852.442s-53.62-1.432-73.53-9.573c0,0-42.19-15.641-35.63-103.914,0,0,64.31-18.374,95.12,36.591C1220.35,814.389,1220.04,820.061,1221.69,852.442Z"/>
    <path id="Shape_115_copy_9" data-name="Shape 115 copy 9" class="cls-2" d="M1211.3,841.629s-42.98-1.161-58.94-7.681c0,0-33.83-12.525-28.6-83.149,0,0,51.54-14.682,76.25,29.3C1210.21,811.183,1209.96,815.721,1211.3,841.629Z"/>
    <path class="cls-1" d="M1224,841s26-47.5,48-63c0,0-31,46-45,72,0,0,64,12,92,23,0,0-76-14.5-96-13,0,0,4,51.5,0,85-0.62-26.75-6-62.5-9-77s-2-4-2-4-61,20.5-84,32,64-34,79-39,3-6,3-6a830.726,830.726,0,0,1-50-67s42.5,47.5,52,56S1224,841,1224,841Z"/>
    <circle class="cls-3" cx="1218" cy="855" r="21"/>
    <circle id="Ellipse_1_copy" data-name="Ellipse 1 copy" class="cls-4" cx="1218" cy="855" r="16"/>
  </g>
</svg>
