<?xml version="1.0" encoding="UTF-8" standalone="no"?>
<!DOCTYPE svg PUBLIC "-//W3C//DTD SVG 1.1//EN" "http://www.w3.org/Graphics/SVG/1.1/DTD/svg11.dtd">
<svg width="100%" height="100%" viewBox="0 0 360 360" version="1.1" xmlns="http://www.w3.org/2000/svg" xmlns:xlink="http://www.w3.org/1999/xlink" xml:space="preserve" xmlns:serif="http://www.serif.com/" style="fill-rule:evenodd;clip-rule:evenodd;stroke-miterlimit:10;">
    <g id="CK-WC-Glasses-360x360" transform="matrix(0.24,0,0,0.24,180,180)">
        <g transform="matrix(1,0,0,1,-750,-750)">
            <g id="Layer-1" serif:id="Layer 1" transform="matrix(4.16667,0,0,4.16667,0,0)">
                <g transform="matrix(1,0,0,1,298.813,233.28)">
                    <path d="M0,-0.001C0,7.577 -53.81,13.72 -120.186,13.72C-186.563,13.72 -240.372,7.577 -240.372,-0.001C-240.372,-7.578 -186.563,-13.721 -120.186,-13.721C-53.81,-13.721 0,-7.578 0,-0.001" style="fill:rgb(190,228,228);fill-rule:nonzero;"/>
                </g>
                <g transform="matrix(1,0,0,1,308.422,151.653)">
                    <path d="M0,1.36C-1.436,1.194 -2.769,0.73 -4.148,0.326C-5.637,-0.11 -7.335,0.134 -8.697,-0.663C-9.268,-0.434 -9.837,-0.206 -10.406,0.022C-8.819,0.389 -7.54,1.414 -5.906,1.647C-4.305,1.876 -2.646,2.015 -1.045,1.744C-0.947,1.728 0.277,1.399 0.106,1.151C-0.715,-0.039 -2.546,0.479 -3.75,0.11C-3.991,0.322 -4.232,0.535 -4.473,0.748C-4.161,0.669 -3.405,1.3 -3.094,1.397C-2.352,1.629 -1.604,1.742 -0.844,1.897C-0.404,1.987 1.26,1.277 0.75,1.172C-1.124,0.789 -2.71,-0.287 -4.621,0.197C-4.764,0.233 -5.914,0.66 -5.344,0.835C-4.308,1.152 -2.497,0.694 -1.825,1.669L-0.674,1.075C-2.131,1.322 -4.395,1.082 -5.795,0.541C-6.828,0.141 -7.72,-0.45 -8.813,-0.703C-9.131,-0.776 -10.839,-0.203 -10.521,-0.017C-9.388,0.646 -8.11,0.641 -6.836,0.801C-5.046,1.026 -3.401,1.877 -1.594,2.085C-1.148,2.136 0.479,1.415 0,1.36" style="fill:rgb(238,37,64);fill-rule:nonzero;"/>
                </g>
                <g transform="matrix(1,0,0,1,173.18,153.769)">
                    <path d="M0,-36.329L-23.945,-34.311L-52.879,-28.547L-80.5,-22.061L-109.063,-14.792L-121.804,-10.852L-115.311,-7.965L-117.253,0L-110.563,-0.123L-88.387,-8.472L-70.854,-13.9L-49.88,-18.75L-39.355,-20.584L-24.646,-22.392L-13.177,-22.905L-6.166,-22.279L-3.353,-20.992L-1.159,-15.663L-0.659,-10.474L2.5,-6.763L8.812,-3.543L12.66,-2.668L15.932,-4.286L16.273,-9.069L14.136,-17.109L11.182,-23.629L6.189,-31.637L2.996,-35.246L0,-36.329Z" style="fill:rgb(238,37,64);fill-rule:nonzero;"/>
                </g>
                <g transform="matrix(1,0,0,1,174.473,152.54)">
                    <path d="M0,-33.785C0,-33.785 -81.359,-18.689 -101.806,-8.903C-104.293,-7.713 -103.634,-4.849 -104.063,-3.853C-105.049,-1.556 -113.458,1.543 -115.181,1.612C-120.353,1.821 -122.722,-9.456 -122.722,-9.456L-113.033,-13.454L-89.395,-18.945L-64.928,-24.872L-42.936,-29.079L-28.087,-32.593L-18.496,-34.125L-9.881,-35.606L-4.979,-35.32L-1.121,-35.043L0,-33.785Z" style="fill:rgb(194,32,47);fill-rule:nonzero;"/>
                </g>
                <g transform="matrix(1,0,0,1,180.485,117.418)">
                    <path d="M0,8.334C0,8.334 -13.713,2.735 -24.216,4.878C-34.718,7.02 -15.664,0 -15.664,0L-8.167,0.057L-3.817,1.577L0.919,7.98L0,8.334Z" style="fill:rgb(194,32,47);fill-rule:nonzero;"/>
                </g>
                <g transform="matrix(1,0,0,1,43.4585,123.17)">
                    <path d="M0,21.357C0,21.357 123.662,-12.985 132.717,-4.647C141.774,3.693 154.37,33.381 138.533,27.056C122.696,20.731 132.222,16.667 126.369,9.607C121.569,3.818 59.846,11.253 22.104,30.185C13.818,34.342 0.189,26.541 3.143,22.473" style="fill:none;stroke:rgb(48,50,61);stroke-width:2px;"/>
                </g>
                <g transform="matrix(1,0,0,1,191.375,155.712)">
                    <path d="M0,-34.128L24.006,-33.039L53.142,-28.401L80.992,-22.991L109.816,-16.834L118.334,-14.559L122.7,-13.393L105.517,-4.297L89.4,-9.717L71.67,-14.463L50.524,-18.495L39.936,-19.92L25.168,-21.156L13.688,-21.225L6.706,-20.327L3.945,-18.932L1.96,-13.522L1.661,-8.316L-1.352,-4.485L-7.533,-1.024L-11.346,0L-14.677,-1.491L-15.204,-6.257L-13.38,-14.374L-10.68,-21.003L-6.002,-29.199L-2.951,-32.929L0,-34.128Z" style="fill:rgb(238,37,64);fill-rule:nonzero;"/>
                </g>
                <g transform="matrix(1,0,0,1,190.135,148.836)">
                    <path d="M0,-25.888C0,-25.888 72.336,-15.349 98.31,-6.62C103.333,-4.933 106.622,-3.313 107.319,-1.849C109.249,2.203 112.524,-0.538 116.047,-2.286C120.373,-4.433 124.844,-6.237 124.844,-6.237L113.735,-9.954L89.901,-14.525L65.225,-19.498L43.084,-22.85L28.111,-25.784L18.468,-26.945L9.802,-28.091L4.914,-27.616L1.069,-27.189L0,-25.888Z" style="fill:rgb(239,90,114);fill-rule:nonzero;"/>
                </g>
                <g transform="matrix(1,0,0,1,184.398,121.238)">
                    <path d="M0,8.935C0,8.935 13.484,2.81 24.063,4.542C34.641,6.276 15.328,0 15.328,0L7.84,0.347L3.552,2.036L-0.934,8.618L0,8.935Z" style="fill:rgb(239,90,114);fill-rule:nonzero;"/>
                </g>
                <g transform="matrix(1,0,0,1,322.049,132.102)">
                    <path d="M0,11.52C0,11.52 -124.9,-18.001 -133.625,-9.319C-142.352,-0.635 -153.787,29.521 -138.207,22.586C-122.628,15.652 -132.305,11.959 -126.729,4.678C-122.158,-1.293 -60.192,3.744 -21.745,21.199C-13.304,25.031 0.012,16.707 -3.098,12.757" style="fill:none;stroke:rgb(48,50,61);stroke-width:2px;"/>
                </g>
                <g transform="matrix(1,0,0,1,75.6802,226.345)">
                    <path d="M0,-78.701L-11.889,-65.485L-19.023,-48.117L-19.204,-32.179L-12.536,-15.994L-3.93,-4.61L6.094,2.438L23.477,8.749L36.823,8.481L48.599,5.95L61.343,-0.381L72.946,-11.343L80.485,-25.809L82.609,-39.632L80.698,-52.771L73.625,-67.008L64.529,-76.522L49.805,-84.793L39.237,-87.45L21.495,-87.45L9.391,-83.327L3.497,-80.204L0,-78.701Z" style="fill:rgb(238,37,64);fill-rule:nonzero;"/>
                </g>
                <g transform="matrix(1,0,0,1,70.4106,228.509)">
                    <path d="M0,-71.299C0,-71.299 -24.851,-32.819 7.368,-8.302C8.58,-7.38 14.886,-2.692 23.641,0.017C29.528,1.839 36.924,2.181 43.116,2.074C51.575,1.927 60.882,-2.305 69.418,-7.116L73.391,-8.949L66.863,-2.781L56.923,2.267L46.72,5.322L29.94,5.889L23.641,5.004L13.65,1.103L5.946,-3.535L-5.042,-13.725L-10.882,-23.81L-13.935,-32.705L-14.539,-47.109L-13.935,-53.102L-9.978,-61.783L-4.985,-70.598L-1.06,-75.855L-0.11,-77.188L0.337,-74.655L0,-71.299Z" style="fill:rgb(194,32,47);fill-rule:nonzero;"/>
                </g>
                <g transform="matrix(0,-1,-1,-0,107.082,135.504)">
                    <ellipse cx="-51.209" cy="0.001" rx="48.381" ry="51.209" style="fill:none;stroke:rgb(48,50,61);stroke-width:2px;"/>
                </g>
                <g transform="matrix(1,0,0,1,68.479,150.929)">
                    <path d="M0,-0.348C0.29,0.037 0.357,0.576 0.33,1.046C0.3,1.566 4.13,1.125 4.193,0.01C4.22,-0.459 4.153,-0.998 3.863,-1.383C3.464,-1.914 2.292,-1.574 1.779,-1.436C1.628,-1.396 -0.315,-0.767 0,-0.348" style="fill:rgb(48,50,61);fill-rule:nonzero;"/>
                </g>
                <g transform="matrix(1,0,0,1,69.0742,151)">
                    <path d="M0,-0.05C-0.089,-0.057 -0.173,-0.079 -0.253,-0.116C-0.188,-0.044 -0.173,-0.034 -0.208,-0.088C-0.121,0.052 -0.087,0.226 -0.059,0.385C-0.007,0.67 -0.018,0.88 -0.065,1.127C-0.211,1.885 1.12,1.735 1.526,1.67C2.033,1.59 2.54,1.435 2.995,1.198C3.221,1.08 3.708,0.818 3.765,0.52C3.852,0.072 3.87,-0.406 3.763,-0.852C3.608,-1.493 3.056,-1.746 2.453,-1.822C1.558,-1.935 0.448,-1.615 -0.279,-1.091C-0.463,-0.957 -0.78,-0.697 -0.705,-0.419C-0.629,-0.136 -0.228,-0.079 0,-0.05" style="fill:rgb(48,50,61);fill-rule:nonzero;"/>
                </g>
                <g transform="matrix(1,0,0,1,44.7207,155.732)">
                    <path d="M0,-12.511L-1.511,-7.554L0,-4.41L5.127,-2.704C5.127,-2.704 11.187,-4.996 11.151,-4.265C11.116,-3.533 21.557,-5.518 21.557,-5.518L23.803,-5.909L25.433,-5.909C25.433,-5.909 27.055,-5.753 26.204,-3.541C26.097,-3.264 25.838,-2.551 25.543,-1.781C25.235,-0.975 24.703,-0.219 24.443,0.163C21.949,3.831 29.835,-1.34 29.835,-1.34L34.383,-5.008L37.684,-8.088L46.145,-11.463L55.757,-15.278L45.093,-15.828L29.798,-16.342L21.399,-16.158L15.347,-15.461C15.347,-15.461 7.864,-14.581 7.754,-14.617C7.644,-14.655 3.903,-13.591 3.793,-13.7C3.683,-13.811 1.258,-13.206 1.168,-13.162C1.078,-13.119 0,-12.511 0,-12.511" style="fill:rgb(238,37,64);fill-rule:nonzero;"/>
                </g>
                <g transform="matrix(1,0,0,1,188.806,199.171)">
                    <path d="M0,-18.664L-9.741,-19.418L-17.404,-18.481L-24.053,-16.449L-28.904,-15.213L-30.028,-13.462L-33.066,-12.458L-34.921,0.754C-34.921,0.754 -35.133,-1.499 -33.015,-2.491C-29.44,-4.165 -22.732,-4.976 -22.686,-5.169C-22.611,-5.478 -16.875,-6.845 -16.875,-6.845L-8.807,-7.796L-4.12,-7.899L-0.722,-7.848L0,-18.664Z" style="fill:rgb(238,37,64);fill-rule:nonzero;"/>
                </g>
                <g transform="matrix(1,0,0,1,70.4106,136.862)">
                    <path d="M0,20.348C0,20.348 6.261,11.669 1.433,10.782C-3.395,9.893 -14.913,11.316 -14.913,11.316C-14.913,11.316 -23.527,10.549 -17.909,4.931C-12.291,-0.688 -23.995,5.68 -23.995,5.68L-25.992,7.348L-27.202,8.479L-26.879,12.96L-25.774,14.388L-22.51,15.63L-18.002,15.512L-12.541,14.961L-5.273,13.691L-1.887,13.202L-1.06,14.721L-3.18,18.631L-1.06,16.992L-0.824,15.46L0.115,14.961L0,16.702L-1.462,19.371L-2.365,20.271L-1.887,21.036L0,20.348Z" style="fill:rgb(194,32,47);fill-rule:nonzero;"/>
                </g>
                <g transform="matrix(1,0,0,1,97.9004,159.716)">
                    <path d="M0,-20.797C0,-20.797 -54.104,-22.798 -54.692,-14.375C-55.28,-5.953 -51.166,-8.499 -49.599,-6.932C-48.032,-5.365 -26.021,-11.795 -28.31,-8.482C-30.599,-5.169 -31.691,-3.281 -34.579,2.001" style="fill:none;stroke:rgb(48,50,61);stroke-width:2px;"/>
                </g>
                <g transform="matrix(0.979425,-0.201808,-0.201808,-0.979425,158.195,200.69)">
                    <path d="M-0.559,3.27C-0.559,3.27 18.838,8.211 31.62,3.27" style="fill:none;stroke:rgb(48,50,61);stroke-width:2px;"/>
                </g>
                <g transform="matrix(1,0,0,1,158.29,178.959)">
                    <path d="M0,5.643C0,5.643 12.978,0 25.123,0.838C37.267,1.676 29.431,0.753 29.431,0.753" style="fill:none;stroke:rgb(48,50,61);stroke-width:2px;"/>
                </g>
                <g transform="matrix(1,0,0,1,125.561,152.355)">
                    <path d="M0,67.692L-5.881,70.296L-11.519,71.776L-18.48,72.403L-23.911,72.021L-29.5,70.802L-35.674,68.366L-39.869,65.93L-43.787,62.936L-47.322,59.434L-50.884,54.75L-53.471,50.06L-55.156,45.771L-56.463,40.511L-57.038,33.845L-56.588,27.938L-55.476,22.954L-53.326,17.318L-50.459,12.298L-47.255,8.181L-44.273,4.778L-40.406,2.128L-35.714,-0.654L-31.699,-2.386L-26.631,-3.847L-21.883,-4.563L-18.028,-4.711L-13.383,-4.377L-7.889,-3.239L-2.998,-1.476L1.352,0.774L5.576,3.713L9.842,7.684L13.358,11.186L15.493,15.595L17.96,21.218L19.266,25.946L20.077,32.492L19.642,39.658L18.674,44.183L16.295,50.519L14.298,54.157L10.759,58.979L6.705,63.042L2.663,66.092L0,67.692Z" style="fill:rgb(245,247,251);fill-rule:nonzero;"/>
                </g>
                <g transform="matrix(-11.197,26.1668,26.1668,11.197,127.137,175.217)">
                    <path d="M-0.105,-0.441L0.037,-0.566L0.213,-0.628L0.335,-0.653L0.412,-0.649C0.412,-0.649 0.632,-0.614 0.642,-0.615C0.653,-0.616 0.899,-0.497 0.899,-0.497L1.066,-0.338L1.206,-0.087L1.234,0.146L1.183,0.359L0.981,0.572L0.743,0.653L0.344,0.632C0.344,0.632 -0.051,0.396 -0.048,0.39C-0.045,0.383 -0.2,0.166 -0.2,0.166L-0.258,-0.085L-0.188,-0.319L-0.105,-0.441Z" style="fill:url(#_Linear1);fill-rule:nonzero;"/>
                </g>
                <g transform="matrix(1,0,0,1,103.252,222.605)">
                    <path d="M0,-5.651L-1.33,-3.446L-2.091,-1.757L-3.211,-0.309L-3.732,0.909L-2.788,1.587L-0.199,1.476L5.945,1.952L11.025,1.483L14.987,0.513L19.932,-1.361L21.492,-2.123L22.233,-2.875L20.093,-4.064L16.934,-6.18L15.199,-7.603L12.556,-6.299C12.556,-6.299 8.938,-5.491 8.799,-5.586C8.66,-5.68 5.186,-5.357 5.186,-5.357L2.545,-5.336L0.92,-5.475L0.215,-5.705L0.096,-5.705" style="fill:rgb(61,61,69);fill-rule:nonzero;"/>
                </g>
                <g transform="matrix(1,0,0,1,94.6826,184.509)">
                    <path d="M0,20.891L-0.631,22.002C-0.631,22.002 -1.802,22.168 -1.917,22.177C-2.033,22.187 -3.255,22.002 -3.255,22.002L-5.789,21.289L-10.635,19.349L-12.908,17.508L-14.705,13.444L-15.506,9.211L-15.464,7.073L-15.506,3.553L-15.506,3.221L-10.782,1.127L-5.047,-1.296L-4.605,0.038L-3.102,1.936L1.343,7.195L4.475,10.314L2.415,15.156L0.798,18.959L0,20.891Z" style="fill:rgb(61,61,69);fill-rule:nonzero;"/>
                </g>
                <g transform="matrix(1,0,0,1,73.8823,164.81)">
                    <path d="M0,15.378L-1.94,14.985L-3.826,15.121L-4.532,15.182L-3.914,12.744L-3.224,10.272L-1.345,4.827L0.357,1.178L1.532,0L3.896,1.733L3.005,2.806L1.798,5.184L1.222,8.417L0.39,11.96C0.39,11.96 0.509,13.838 0.509,13.909C0.509,13.981 0.2,14.718 0.2,14.718L0,15.378Z" style="fill:rgb(61,61,69);fill-rule:nonzero;"/>
                </g>
                <g transform="matrix(1,0,0,1,92.5293,162.216)">
                    <path d="M0,-5.759L-1.044,-3.539L-1.608,-2.609L-0.774,-0.85L0.406,0.837L1.191,2.049L2.092,3.554L3.474,5.134L4.63,4.796L7.454,4.213L10.707,3.598L14.118,3.064L16.075,2.864L17.379,2.961L18.006,1.195L18.922,-1.923L20.164,-4.87L20.767,-6.24L20.998,-6.511L18.464,-8.437L14.551,-10.127L12.134,-10.709L9.723,-10.893L7.949,-10.719L5.855,-10.182L3.823,-9.276L2.172,-8.143L0.5,-6.435L0,-5.759Z" style="fill:rgb(61,61,69);fill-rule:nonzero;"/>
                </g>
                <g transform="matrix(1,0,0,1,128.53,169.417)">
                    <path d="M0,-14.935L-0.584,-12.627L0.198,-11.481L2.066,-9.872L4.362,-7.282L6.199,-4.733L8.493,-1.312L9.493,-1.158L12.692,0L11.328,-3.904L7.01,-9.231C7.01,-9.231 4.015,-12.72 3.805,-12.627C3.594,-12.535 1.543,-14.171 1.543,-14.171L0.623,-14.935L0.131,-14.935" style="fill:rgb(61,61,69);fill-rule:nonzero;"/>
                </g>
                <g transform="matrix(1,0,0,1,113.546,191.308)">
                    <path d="M0,-5.794C0,-5.734 -0.392,-3.311 -0.392,-3.311L-0.098,-0.535L0.547,1.537L1.095,3.375L2.007,5.597L3.794,7.795L6.12,9.545L8.993,10.434L12.044,10.673L14.917,9.769L17.458,8.185L19.3,5.836L21.189,1.806L21.821,-1.763L21.682,-5.794C21.682,-5.794 20.791,-8.672 20.788,-8.681C20.784,-8.69 18.437,-12.852 18.437,-12.852L14.507,-15.804L11.785,-16.467L9.377,-16.366L7.327,-15.816L5.422,-14.818L3.618,-13.497C3.618,-13.497 2.131,-11.486 2.112,-11.457C2.093,-11.429 1.096,-9.657 1.096,-9.657L0.51,-7.651L0.114,-6.924L0,-5.794Z" style="fill:rgb(61,61,69);fill-rule:nonzero;"/>
                </g>
                <g transform="matrix(0,-1,-1,-0,107.08,147.643)">
                    <circle cx="-38.558" cy="-0.001" r="38.558" style="fill:none;stroke:rgb(48,50,61);stroke-width:2px;"/>
                </g>
                <g transform="matrix(0,-1,-1,-0,121.822,170.135)">
                    <ellipse cx="-18.145" cy="0" rx="21.736" ry="18.145" style="fill:none;stroke:rgb(48,50,61);stroke-width:2px;"/>
                </g>
                <g transform="matrix(1,0,0,1,81.7744,179.245)">
                    <path d="M0,23.17C-3.097,17.376 -2.598,8.485 -2.598,8.485C-4.795,6.487 -7.692,0.993 -7.692,0.993C-7.692,0.993 -11.442,0 -12.188,0.993" style="fill:none;stroke:rgb(48,50,61);stroke-width:2px;"/>
                </g>
                <g transform="matrix(1,0,0,1,79.1768,190.429)">
                    <path d="M0,-2.698C2.398,-3.298 10.49,-7.393 10.49,-7.393C9.791,-5.296 19.98,4.395 19.98,4.395C19.98,4.395 22.53,4.695 24.501,4.395" style="fill:none;stroke:rgb(48,50,61);stroke-width:2px;"/>
                </g>
                <g transform="matrix(1,0,0,1,74.0825,162.555)">
                    <path d="M0,17.683C0,17.683 1.099,5.479 3.696,3.989C6.293,2.497 7.093,-2.498 16.783,-2.797C16.783,-2.797 19.979,3.296 21.978,4.696C21.978,4.696 16.583,13.987 15.584,20.48" style="fill:none;stroke:rgb(48,50,61);stroke-width:2px;"/>
                </g>
                <g transform="matrix(1,0,0,1,96.0605,166.047)">
                    <path d="M0,1.204C0,1.204 12.987,-1.693 13.986,-0.794C14.985,0.104 16.851,0.994 17.466,2.897" style="fill:none;stroke:rgb(48,50,61);stroke-width:2px;"/>
                </g>
                <g transform="matrix(1,0,0,1,110.046,150.367)">
                    <path d="M0,14.886C0,14.886 2.366,5.495 3.48,5.495C4.595,5.495 -2.797,0 -9.391,1.1C-15.984,2.198 -18.282,6.894 -19.181,9.391" style="fill:none;stroke:rgb(48,50,61);stroke-width:2px;"/>
                </g>
                <g transform="matrix(0,-1,-1,-0,101.901,149.423)">
                    <path d="M-2.044,1.245C-2.044,1.245 0.337,2.044 1.245,1.245" style="fill:none;stroke:rgb(48,50,61);stroke-width:2px;"/>
                </g>
                <g transform="matrix(-0.742801,-0.669512,-0.669512,0.742801,76.5613,164.185)">
                    <path d="M-2.483,0.937C-2.483,0.937 -0.222,1.599 0.341,0.937" style="fill:none;stroke:rgb(48,50,61);stroke-width:2px;"/>
                </g>
                <g transform="matrix(1,0,0,1,99.1572,217.999)">
                    <path d="M0,-23.176C0,-23.176 -4.396,-11.587 -5.295,-11.488C-5.295,-11.488 0.1,-2.197 3.896,-1.099C7.692,0 18.104,-1.406 19.38,-3.097" style="fill:none;stroke:rgb(48,50,61);stroke-width:2px;"/>
                </g>
                <g transform="matrix(1,0,0,1,135.184,154.444)">
                    <path d="M0,19.129C0,19.129 1.636,16.992 1.836,14.5C2.036,12.007 -6.656,3.216 -6.955,3.016C-7.181,2.866 -11.819,0 -16.571,0.038C-18.133,0.051 -20.111,0.208 -21.544,1.049" style="fill:none;stroke:rgb(48,50,61);stroke-width:2px;"/>
                </g>
                <g transform="matrix(0.119599,-0.992822,-0.992822,-0.119599,129.692,156.128)">
                    <path d="M-1.239,1.882C-1.239,1.882 1.813,1.359 2.064,1.882" style="fill:none;stroke:rgb(48,50,61);stroke-width:2px;"/>
                </g>
                <g transform="matrix(0.854553,0.519364,0.519364,-0.854553,138.33,166.728)">
                    <path d="M-0.483,-1.723C-0.483,-1.723 4.315,-0.294 6.153,-1.723" style="fill:none;stroke:rgb(48,50,61);stroke-width:2px;"/>
                </g>
                <g transform="matrix(0.682911,0.730501,0.730501,-0.682911,140.992,194.843)">
                    <path d="M-0.876,-2.018C-0.876,-2.018 3.66,-1.117 4.65,-2.019" style="fill:none;stroke:rgb(48,50,61);stroke-width:2px;"/>
                </g>
                <g transform="matrix(1,0,0,1,122.234,220.332)">
                    <path d="M0,-10.323L-3.697,-5.429C-3.697,-5.429 1.613,0 4.353,-0.866" style="fill:none;stroke:rgb(48,50,61);stroke-width:2px;"/>
                </g>
                <g transform="matrix(-0.541817,0.840496,0.840496,0.541817,102.546,223.79)">
                    <path d="M-6.065,-3.306C-6.065,-3.306 0.673,-2.379 1.802,-3.307" style="fill:none;stroke:rgb(48,50,61);stroke-width:2px;"/>
                </g>
                <g transform="matrix(1,0,0,1,77.0254,202.415)">
                    <path d="M0,7.936C0,7.936 1.022,6.014 2.29,3.968C3.212,2.481 3.866,0.927 4.749,0C4.749,0 12.73,5.712 17.026,3.969" style="fill:none;stroke:rgb(48,50,61);stroke-width:2px;"/>
                </g>
                <g transform="matrix(0,-1,-1,-0,124.278,177.333)">
                    <ellipse cx="-11.125" cy="0" rx="13.617" ry="11.125" style="fill:none;stroke:rgb(48,50,61);stroke-width:2px;"/>
                </g>
                <g transform="matrix(1,0,0,1,134.063,178.227)">
                    <path d="M0,0.001C0,3.522 -2.465,6.375 -5.507,6.375C-8.548,6.375 -11.014,3.522 -11.014,0.001C-11.014,-3.52 -8.548,-6.374 -5.507,-6.374C-2.465,-6.374 0,-3.52 0,0.001" style="fill:rgb(245,247,251);fill-rule:nonzero;"/>
                </g>
                <g transform="matrix(1,0,0,1,290.091,226.345)">
                    <path d="M0,-78.701L11.889,-65.485L19.022,-48.117L19.203,-32.179L12.535,-15.994L3.93,-4.61L-6.095,2.438L-23.478,8.749L-36.823,8.481L-48.599,5.95L-61.343,-0.381L-72.946,-11.343L-80.485,-25.809L-82.61,-39.632L-80.698,-52.771L-73.626,-67.008L-64.529,-76.522L-49.806,-84.793L-39.237,-87.45L-21.495,-87.45L-9.392,-83.327L-3.497,-80.204L0,-78.701Z" style="fill:rgb(238,37,64);fill-rule:nonzero;"/>
                </g>
                <g transform="matrix(1,0,0,1,293.603,151.623)">
                    <path d="M0,-1.444C-0.401,-0.913 -0.544,-0.314 -0.506,0.352C-0.471,0.976 1.346,0.56 1.602,0.492C2.077,0.365 3.396,0.003 3.357,-0.683C3.341,-0.978 3.425,-1.556 3.514,-1.674C4.021,-2.347 3.074,-2.42 2.58,-2.388C2.067,-2.355 1.555,-2.234 1.073,-2.055C0.745,-1.934 0.224,-1.741 0,-1.444" style="fill:rgb(48,50,61);fill-rule:nonzero;"/>
                </g>
                <g transform="matrix(1,0,0,1,295.707,153.127)">
                    <path d="M0,-4.23C-1.147,-4.085 -2.275,-3.556 -2.715,-2.432C-2.913,-1.928 -2.894,-1.31 -2.792,-0.786C-2.626,0.073 -1.133,-0.086 -0.574,-0.236C0.084,-0.412 1.239,-0.954 1.071,-1.821C1.056,-1.902 1.044,-1.983 1.034,-2.065C1.026,-2.193 1.023,-2.19 1.025,-2.056C1.025,-2.126 1.027,-2.195 1.032,-2.265C1.039,-2.404 1.065,-2.541 1.098,-2.677C1.143,-2.817 1.136,-2.805 1.078,-2.64C1.455,-3.214 0.938,-2.966 -0.475,-1.896C0.284,-1.992 1.521,-2.392 1.701,-3.278C1.883,-4.17 0.576,-4.303 0,-4.23" style="fill:rgb(48,50,61);fill-rule:nonzero;"/>
                </g>
                <g transform="matrix(1,0,0,1,321.05,155.732)">
                    <path d="M0,-12.511L1.511,-7.554L0,-4.41L-5.127,-2.704C-5.127,-2.704 -11.188,-4.996 -11.151,-4.265C-11.115,-3.533 -21.558,-5.518 -21.558,-5.518L-23.803,-5.909L-25.434,-5.909C-25.434,-5.909 -27.055,-5.753 -26.203,-3.541C-26.097,-3.264 -25.838,-2.551 -25.543,-1.781C-25.234,-0.975 -24.703,-0.219 -24.443,0.163C-21.949,3.831 -29.835,-1.34 -29.835,-1.34L-34.383,-5.008L-37.684,-8.088L-46.145,-11.463L-55.758,-15.278L-45.093,-15.828L-29.798,-16.342L-21.399,-16.158L-15.347,-15.461C-15.347,-15.461 -7.864,-14.581 -7.754,-14.617C-7.645,-14.655 -3.903,-13.591 -3.793,-13.7C-3.683,-13.811 -1.258,-13.206 -1.168,-13.162C-1.078,-13.119 0,-12.511 0,-12.511" style="fill:rgb(238,37,64);fill-rule:nonzero;"/>
                </g>
                <g transform="matrix(1,0,0,1,176.965,199.171)">
                    <path d="M0,-18.664L9.74,-19.418L17.404,-18.481L24.053,-16.449L28.904,-15.213L30.027,-13.462L33.066,-12.458L34.921,0.754C34.921,0.754 35.133,-1.499 33.015,-2.491C29.439,-4.165 22.732,-4.976 22.686,-5.169C22.611,-5.478 16.875,-6.845 16.875,-6.845L8.807,-7.796L4.121,-7.899L0.721,-7.848L0,-18.664Z" style="fill:rgb(238,37,64);fill-rule:nonzero;"/>
                </g>
                <g transform="matrix(-0.979425,-0.201808,-0.201808,0.979425,178.474,185.755)">
                    <path d="M-32.076,5.484C-32.076,5.484 -12.678,0.543 0.103,5.484" style="fill:none;stroke:rgb(48,50,61);stroke-width:2px;"/>
                </g>
                <g transform="matrix(1,0,0,1,207.481,178.959)">
                    <path d="M0,5.643C0,5.643 -12.978,0 -25.121,0.838C-37.266,1.676 -29.431,0.753 -29.431,0.753" style="fill:none;stroke:rgb(48,50,61);stroke-width:2px;"/>
                </g>
                <g transform="matrix(1,0,0,1,240.209,152.355)">
                    <path d="M0,67.692L5.882,70.296L11.52,71.776L18.48,72.403L23.911,72.021L29.501,70.802L35.674,68.366L39.869,65.93L43.787,62.936L47.323,59.434L50.885,54.75L53.472,50.06L55.156,45.771L56.463,40.511L57.038,33.845L56.588,27.938L55.477,22.954L53.326,17.318L50.46,12.298L47.256,8.181L44.273,4.778L40.406,2.128L35.715,-0.654L31.699,-2.386L26.632,-3.847L21.883,-4.563L18.028,-4.711L13.383,-4.377L7.889,-3.239L2.998,-1.476L-1.352,0.774L-5.576,3.713L-9.842,7.684L-13.357,11.186L-15.492,15.595L-17.96,21.218L-19.266,25.946L-20.076,32.492L-19.641,39.658L-18.674,44.183L-16.295,50.519L-14.297,54.157L-10.759,58.979L-6.704,63.042L-2.662,66.092L0,67.692Z" style="fill:rgb(245,247,251);fill-rule:nonzero;"/>
                </g>
                <g transform="matrix(11.1971,26.1671,-26.1671,11.1971,238.633,175.217)">
                    <path d="M-0.258,-0.085L-0.2,0.166C-0.2,0.166 -0.045,0.383 -0.048,0.39C-0.051,0.396 0.344,0.632 0.344,0.632L0.743,0.653L0.981,0.572L1.183,0.359L1.234,0.146L1.206,-0.087L1.066,-0.338L0.899,-0.497C0.899,-0.497 0.653,-0.616 0.642,-0.615C0.632,-0.614 0.412,-0.649 0.412,-0.649L0.335,-0.653L0.213,-0.628L0.037,-0.566L-0.105,-0.441L-0.188,-0.319L-0.258,-0.085Z" style="fill:url(#_Linear2);fill-rule:nonzero;"/>
                </g>
                <g transform="matrix(1,0,0,1,262.519,222.605)">
                    <path d="M0,-5.651L1.33,-3.446L2.091,-1.757L3.211,-0.309L3.731,0.909L2.787,1.587L0.198,1.476L-5.946,1.952L-11.025,1.483L-14.987,0.513L-19.933,-1.361L-21.493,-2.123L-22.233,-2.875L-20.093,-4.064L-16.935,-6.18L-15.199,-7.603L-12.556,-6.299C-12.556,-6.299 -8.938,-5.491 -8.799,-5.586C-8.66,-5.68 -5.187,-5.357 -5.187,-5.357L-2.546,-5.336L-0.921,-5.475L-0.216,-5.705L-0.097,-5.705" style="fill:rgb(61,61,69);fill-rule:nonzero;"/>
                </g>
                <g transform="matrix(1,0,0,1,271.088,184.509)">
                    <path d="M0,20.891L0.632,22.002C0.632,22.002 1.802,22.168 1.917,22.177C2.032,22.187 3.255,22.002 3.255,22.002L5.789,21.289L10.635,19.349L12.908,17.508L14.705,13.444L15.506,9.211L15.465,7.073L15.506,3.553L15.506,3.221L10.782,1.127L5.047,-1.296L4.604,0.038L3.102,1.936L-1.343,7.195L-4.475,10.314L-2.415,15.156L-0.798,18.959L0,20.891Z" style="fill:rgb(61,61,69);fill-rule:nonzero;"/>
                </g>
                <g transform="matrix(1,0,0,1,291.888,164.81)">
                    <path d="M0,15.378L1.94,14.985L3.826,15.121L4.532,15.182L3.914,12.744L3.225,10.272L1.346,4.827L-0.356,1.178L-1.531,0L-3.896,1.733L-3.005,2.806L-1.798,5.184L-1.222,8.417L-0.39,11.96C-0.39,11.96 -0.509,13.838 -0.509,13.909C-0.509,13.981 -0.2,14.718 -0.2,14.718L0,15.378Z" style="fill:rgb(61,61,69);fill-rule:nonzero;"/>
                </g>
                <g transform="matrix(1,0,0,1,273.241,162.216)">
                    <path d="M0,-5.759L1.044,-3.539L1.608,-2.609L0.774,-0.85L-0.406,0.837L-1.19,2.049L-2.093,3.554L-3.474,5.134L-4.63,4.796L-7.454,4.213L-10.707,3.598L-14.117,3.064L-16.075,2.864L-17.38,2.961L-18.007,1.195L-18.923,-1.923L-20.164,-4.87L-20.767,-6.24L-20.997,-6.511L-18.464,-8.437L-14.552,-10.127L-12.134,-10.709L-9.723,-10.893L-7.949,-10.719L-5.854,-10.182L-3.822,-9.276L-2.172,-8.143L-0.5,-6.435L0,-5.759Z" style="fill:rgb(61,61,69);fill-rule:nonzero;"/>
                </g>
                <g transform="matrix(1,0,0,1,237.24,169.417)">
                    <path d="M0,-14.935L0.584,-12.627L-0.198,-11.481L-2.066,-9.872L-4.362,-7.282L-6.199,-4.733L-8.492,-1.312L-9.492,-1.158L-12.692,0L-11.328,-3.904L-7.01,-9.231C-7.01,-9.231 -4.016,-12.72 -3.805,-12.627C-3.594,-12.535 -1.543,-14.171 -1.543,-14.171L-0.623,-14.935L-0.131,-14.935" style="fill:rgb(61,61,69);fill-rule:nonzero;"/>
                </g>
                <g transform="matrix(1,0,0,1,252.225,191.308)">
                    <path d="M0,-5.794C0,-5.734 0.392,-3.311 0.392,-3.311L0.098,-0.535L-0.548,1.537L-1.096,3.375L-2.008,5.597L-3.795,7.795L-6.12,9.545L-8.994,10.434L-12.045,10.673L-14.918,9.769L-17.459,8.185L-19.301,5.836L-21.189,1.806L-21.822,-1.763L-21.683,-5.794C-21.683,-5.794 -20.791,-8.672 -20.788,-8.681C-20.785,-8.69 -18.438,-12.852 -18.438,-12.852L-14.508,-15.804L-11.785,-16.467L-9.378,-16.366L-7.328,-15.816L-5.423,-14.818L-3.619,-13.497C-3.619,-13.497 -2.132,-11.486 -2.112,-11.457C-2.094,-11.429 -1.096,-9.657 -1.096,-9.657L-0.51,-7.651L-0.115,-6.924L0,-5.794Z" style="fill:rgb(61,61,69);fill-rule:nonzero;"/>
                </g>
                <g transform="matrix(0,1,1,0,258.69,147.644)">
                    <ellipse cx="38.557" cy="-0.001" rx="38.557" ry="38.557" style="fill:none;stroke:rgb(48,50,61);stroke-width:2px;"/>
                </g>
                <g transform="matrix(0,1,1,0,243.948,170.135)">
                    <ellipse cx="18.145" cy="0" rx="21.736" ry="18.145" style="fill:none;stroke:rgb(48,50,61);stroke-width:2px;"/>
                </g>
                <g transform="matrix(1,0,0,1,283.996,179.245)">
                    <path d="M0,23.17C3.097,17.376 2.598,8.485 2.598,8.485C4.795,6.487 7.691,0.993 7.691,0.993C7.691,0.993 11.442,0 12.188,0.993" style="fill:none;stroke:rgb(48,50,61);stroke-width:2px;"/>
                </g>
                <g transform="matrix(1,0,0,1,286.594,190.429)">
                    <path d="M0,-2.698C-2.398,-3.298 -10.489,-7.393 -10.489,-7.393C-9.791,-5.296 -19.98,4.395 -19.98,4.395C-19.98,4.395 -22.529,4.695 -24.502,4.395" style="fill:none;stroke:rgb(48,50,61);stroke-width:2px;"/>
                </g>
                <g transform="matrix(1,0,0,1,291.688,162.555)">
                    <path d="M0,17.683C0,17.683 -1.099,5.479 -3.695,3.989C-6.293,2.497 -7.093,-2.498 -16.782,-2.797C-16.782,-2.797 -19.979,3.296 -21.978,4.696C-21.978,4.696 -16.582,13.987 -15.583,20.48" style="fill:none;stroke:rgb(48,50,61);stroke-width:2px;"/>
                </g>
                <g transform="matrix(1,0,0,1,269.71,166.047)">
                    <path d="M0,1.204C0,1.204 -12.986,-1.693 -13.985,-0.794C-14.985,0.104 -16.851,0.994 -17.466,2.897" style="fill:none;stroke:rgb(48,50,61);stroke-width:2px;"/>
                </g>
                <g transform="matrix(1,0,0,1,255.725,150.367)">
                    <path d="M0,14.886C0,14.886 -2.366,5.495 -3.48,5.495C-4.596,5.495 2.797,0 9.39,1.1C15.983,2.198 18.281,6.894 19.181,9.391" style="fill:none;stroke:rgb(48,50,61);stroke-width:2px;"/>
                </g>
                <g transform="matrix(0,-1,-1,-0,267.159,150.222)">
                    <path d="M-1.245,2.045C-1.245,2.045 1.136,1.245 2.045,2.045" style="fill:none;stroke:rgb(48,50,61);stroke-width:2px;"/>
                </g>
                <g transform="matrix(0.742801,-0.669512,-0.669512,-0.742801,288.898,167.011)">
                    <path d="M-0.36,0.954C-0.36,0.954 1.901,0.292 2.464,0.954" style="fill:none;stroke:rgb(48,50,61);stroke-width:2px;"/>
                </g>
                <g transform="matrix(1,0,0,1,266.613,217.999)">
                    <path d="M0,-23.176C0,-23.176 4.396,-11.587 5.295,-11.488C5.295,-11.488 -0.1,-2.197 -3.896,-1.099C-7.692,0 -18.104,-1.406 -19.381,-3.097" style="fill:none;stroke:rgb(48,50,61);stroke-width:2px;"/>
                </g>
                <g transform="matrix(1,0,0,1,230.587,154.444)">
                    <path d="M0,19.129C0,19.129 -1.636,16.992 -1.836,14.5C-2.036,12.007 6.655,3.216 6.955,3.016C7.181,2.866 11.819,0 16.571,0.038C18.134,0.051 20.11,0.208 21.544,1.049" style="fill:none;stroke:rgb(48,50,61);stroke-width:2px;"/>
                </g>
                <g transform="matrix(-0.119599,-0.992822,-0.992822,0.119599,239.228,154.858)">
                    <path d="M-2.123,1.396C-2.123,1.396 0.928,1.92 1.18,1.396" style="fill:none;stroke:rgb(48,50,61);stroke-width:2px;"/>
                </g>
                <g transform="matrix(-0.854594,0.519297,0.519297,0.854594,224.384,172.618)">
                    <path d="M-6.153,-1.723C-6.153,-1.723 -1.355,-3.152 0.482,-1.723" style="fill:none;stroke:rgb(48,50,61);stroke-width:2px;"/>
                </g>
                <g transform="matrix(-0.682911,0.730501,0.730501,0.682911,225.15,200.357)">
                    <path d="M-4.65,-2.019C-4.65,-2.019 -0.114,-2.92 0.876,-2.019" style="fill:none;stroke:rgb(48,50,61);stroke-width:2px;"/>
                </g>
                <g transform="matrix(1,0,0,1,243.536,220.332)">
                    <path d="M0,-10.323L3.696,-5.429C3.696,-5.429 -1.613,0 -4.353,-0.866" style="fill:none;stroke:rgb(48,50,61);stroke-width:2px;"/>
                </g>
                <g transform="matrix(0.541817,0.840496,0.840496,-0.541817,266.473,216.624)">
                    <path d="M-1.802,-3.306C-1.802,-3.306 4.936,-4.234 6.065,-3.306" style="fill:none;stroke:rgb(48,50,61);stroke-width:2px;"/>
                </g>
                <g transform="matrix(1,0,0,1,288.745,202.415)">
                    <path d="M0,7.936C0,7.936 -1.022,6.014 -2.29,3.968C-3.213,2.481 -3.865,0.927 -4.749,0C-4.749,0 -12.73,5.712 -17.025,3.969" style="fill:none;stroke:rgb(48,50,61);stroke-width:2px;"/>
                </g>
                <g transform="matrix(0,1,1,0,241.492,177.333)">
                    <ellipse cx="11.125" cy="0" rx="13.617" ry="11.125" style="fill:none;stroke:rgb(48,50,61);stroke-width:2px;"/>
                </g>
                <g transform="matrix(1,0,0,1,207.481,189.813)">
                    <path d="M0,3.016C0,3.016 -4.086,-0.412 -6.057,-1.005C-7.293,-1.379 -8.635,-1.738 -10.053,-2.048C-11.426,-2.351 -12.904,-2.658 -14.441,-2.907C-15.58,-3.091 -16.75,-3.244 -17.931,-3.338C-19.768,-3.487 -21.762,-3.672 -23.579,-3.445C-23.579,-3.445 -27.651,-3.474 -32.563,-2.727C-34.188,-2.479 -35.699,-2.196 -37.143,-1.831C-38.964,-1.371 -40.68,-0.782 -42.383,0.026C-43.179,0.403 -46.411,2.171 -47.116,2.742L-51.288,6.688L-41.894,3.097L-35.593,1.333L-28.541,-0.169L-24.167,-0.266L-18.977,0.159L-13.361,1.366L-9.149,2.509L-4.252,4.174L2.242,6.688L1.754,5.323L0,3.016Z" style="fill:rgb(239,90,114);fill-rule:nonzero;"/>
                </g>
                <g transform="matrix(1,0,0,1,231.707,178.227)">
                    <path d="M0,0.001C0,3.522 2.465,6.375 5.508,6.375C8.549,6.375 11.014,3.522 11.014,0.001C11.014,-3.52 8.549,-6.374 5.508,-6.374C2.465,-6.374 0,-3.52 0,0.001" style="fill:rgb(245,247,251);fill-rule:nonzero;"/>
                </g>
                <g transform="matrix(1,0,0,1,253.268,143.743)">
                    <path d="M0,89.191C0,89.191 12.896,88.308 25.405,82.662C37.302,77.292 48.793,67.511 50.607,53.857C51.96,43.68 51.418,42.043 50.999,36.054C50.39,27.34 45.322,20.651 42.093,14.545C41.433,13.296 40.505,11.436 39.769,10.111C32.956,-2.16 44.731,1.243 49.041,0.851C50.473,0.72 60.407,4.047 64.221,3.496C67.024,3.089 63.683,-1.316 65.641,-1.059C69.036,-0.613 68.768,2.71 68.768,2.71L68.433,7.714L63.054,9.152L59.177,8.392L50.607,8.081L44.192,6.727L43.979,9.065L43.979,11.131L53.258,25.674L55.936,42.458L55.703,51.209L54.343,54.511L53.42,59.864L48.604,68.986L39.834,77.83L30.085,85.378L13.346,91.351L-3.846,91.351L0,89.191Z" style="fill:rgb(239,90,114);fill-rule:nonzero;"/>
                </g>
                <g transform="matrix(0,1,1,0,258.689,135.503)">
                    <ellipse cx="51.209" cy="0.001" rx="48.381" ry="51.209" style="fill:none;stroke:rgb(48,50,61);stroke-width:2px;"/>
                </g>
                <g transform="matrix(1,0,0,1,267.87,159.716)">
                    <path d="M0,-20.797C0,-20.797 54.104,-22.798 54.692,-14.375C55.279,-5.953 51.166,-8.499 49.6,-6.932C48.032,-5.365 26.021,-11.795 28.31,-8.482C30.6,-5.169 31.69,-3.281 34.578,2.001" style="fill:none;stroke:rgb(48,50,61);stroke-width:2px;"/>
                </g>
                <g transform="matrix(1,0,0,1,294.847,158.814)">
                    <path d="M0,-7.971C0,-7.971 -1.124,-8.344 3.104,-1.358C7.331,5.629 -0.406,-3.186 -0.406,-3.186L-3.051,-7.491C-3.051,-7.491 -3.851,-9.165 -3.858,-11.383C-3.866,-13.6 -0.92,-12.163 -0.92,-12.163L-0.569,-9.846L0,-7.971Z" style="fill:rgb(239,90,114);fill-rule:nonzero;"/>
                </g>
                <g transform="matrix(1,0,0,1,276.254,152.12)">
                    <path d="M0,-12.226L-8.384,-11.799L-4.633,-7.983L3.725,-4.476L15.952,0.125L15.27,-1.501L14.856,-3.38L15.021,-5.175L15.434,-6.449L15.924,-6.758L15.085,-8.505L13.438,-9.111L9.927,-10.399L3.723,-12.351L0,-12.226Z" style="fill:rgb(238,37,64);fill-rule:nonzero;"/>
                </g>
                <g transform="matrix(1,0,0,1,68.6284,154.532)">
                    <path d="M0,-1.893C-0.191,-1.756 -0.348,-1.586 -0.473,-1.389C-0.531,-1.296 -0.882,-0.893 -0.601,-1.059C-0.956,-0.85 -1.342,-0.423 -1.04,0.001C-0.764,0.39 -0.101,0.406 0.282,0.182C0.564,0.016 0.801,-0.162 0.988,-0.435C1.086,-0.579 1.188,-0.836 1.306,-0.921C1.661,-1.176 1.773,-1.707 1.39,-1.991C0.976,-2.299 0.388,-2.172 0,-1.893" style="fill:rgb(48,50,61);fill-rule:nonzero;"/>
                </g>
            </g>
        </g>
    </g>
    <g transform="matrix(5.22517,0,0,5.05769,-324.238,-461.538)">
        <rect x="62.053" y="91.255" width="68.897" height="71.179" style="fill:none;"/>
    </g>
    <defs>
        <linearGradient id="_Linear1" x1="0" y1="0" x2="1" y2="0" gradientUnits="userSpaceOnUse" gradientTransform="matrix(1,0,0,-1,0,2.85589e-05)"><stop offset="0" style="stop-color:rgb(6,103,56);stop-opacity:1"/><stop offset="0.98" style="stop-color:rgb(201,205,113);stop-opacity:1"/><stop offset="1" style="stop-color:rgb(201,205,113);stop-opacity:1"/></linearGradient>
        <linearGradient id="_Linear2" x1="0" y1="0" x2="1" y2="0" gradientUnits="userSpaceOnUse" gradientTransform="matrix(1,0,-5.55112e-17,-1,0,2.68352e-05)"><stop offset="0" style="stop-color:rgb(6,103,56);stop-opacity:1"/><stop offset="0.98" style="stop-color:rgb(201,205,113);stop-opacity:1"/><stop offset="1" style="stop-color:rgb(201,205,113);stop-opacity:1"/></linearGradient>
    </defs>
</svg>
