<?xml version="1.0" encoding="UTF-8" standalone="no"?>
<!DOCTYPE svg PUBLIC "-//W3C//DTD SVG 1.1//EN" "http://www.w3.org/Graphics/SVG/1.1/DTD/svg11.dtd">
<svg width="100%" height="100%" viewBox="0 0 360 360" version="1.1" xmlns="http://www.w3.org/2000/svg" xmlns:xlink="http://www.w3.org/1999/xlink" xml:space="preserve" xmlns:serif="http://www.serif.com/" style="fill-rule:evenodd;clip-rule:evenodd;stroke-miterlimit:10;">
    <g id="CK-WC-Hat2-France-360x360" transform="matrix(0.24,0,0,0.24,180,180)">
        <g transform="matrix(1,0,0,1,-750,-750)">
            <g id="Layer-1" serif:id="Layer 1" transform="matrix(4.16667,0,0,4.16667,0,0)">
                <g transform="matrix(1,0,0,1,112.155,172.2)">
                    <path d="M0,53.605L-3.567,51.18L-7.956,46.889L-9.151,45.151L-13.05,38.749L-14.532,34.344L-16.279,25.948L-16.003,16.418L-15.428,14.199L-12.632,8.58L-5.717,3.141L-0.837,1.138L5.02,0.178L9.428,0L12.554,0.401L20.106,1.176L24.401,1.925L30.94,3.222L36.946,4.048L43.751,5.359L55.956,8.654L64.294,10.754L82.105,13.717C82.105,13.717 88.59,14.719 92.968,15.542C94.96,15.917 97.127,16.344 97.167,16.352C97.292,16.377 103.023,17.746 103.023,17.746L118.059,21.127L124.336,23.041L128.063,24.711L130.116,27.838C130.116,27.838 132.461,32.344 132.382,32.416C132.302,32.485 131.774,36.751 131.774,36.751L129.599,42.416L125.86,48.671L122.565,51.706L119.573,49.782L117.613,47.741L109.81,45.863L106.746,43.938L99.265,40.304L84.933,35.834L69.9,33.246L67.011,33.047L62.929,32.682L55.163,32.583L50.384,32.75L45.105,33.178L35.549,34.509L21.841,38.127L10.888,42.31L8.718,43.85L7.902,45.77L6.722,48.921L3.669,50.654L2.168,51.962L0,53.605Z" style="fill:rgb(64,92,170);fill-rule:nonzero;"/>
                </g>
                <g transform="matrix(1,0,0,1,123.277,116.32)">
                    <path d="M0,55.153C0,55.153 -0.95,51.7 -0.943,51.728C-0.937,51.754 -1.402,50.073 -1.421,50.053C-1.441,50.034 -1.595,48.701 -1.595,48.701L-2.459,44.666L-2.68,40.118L-2.162,35.158L-1.155,31.258L-0.521,28.857L-0.855,27.955L-1.226,25.474C-1.226,25.474 -1.297,23.726 -1.335,23.772C-1.373,23.816 -1.172,19.782 -1.19,19.83C-1.21,19.879 0,16.47 0,16.47C0,16.47 2.053,13.012 2.068,12.988C2.084,12.963 4.581,9.007 4.552,9.007C4.523,9.007 7.452,5.175 7.452,5.175L10.192,2.623L13.252,-0.779L16.363,-3.902L19.601,-7.242L23.19,-9.942L24.697,-10.649L25.856,-12.049L29.282,-14.95L33.229,-17.326L37.781,-18.942L42.84,-20.102L47.922,-20.452L51.235,-20.351L53.357,-21.58L57.659,-21.984L62.701,-22.098L67.945,-21.561L73.631,-20.534L78.854,-19.381L84.024,-17.476C84.024,-17.476 88.156,-15.263 88.211,-15.291C88.267,-15.318 91.935,-12.63 91.935,-12.63L92.741,-10.19L92.81,-9.48L93.616,-9.797C93.616,-9.797 94.354,-9.864 94.384,-9.855C94.412,-9.845 97.236,-8.577 97.236,-8.577L100.751,-6.704L103.268,-4.245L105.783,-1.086L107.752,1.517L110.134,4.734L111.91,8.381L113.336,11.362L114.733,14.484L116.224,17.88L117.471,20.609L118.901,23.874L119.584,26.294L119.633,28.08L119.574,29.993L120.294,30.971L120.823,33.679L121.082,36.694L120.967,39.258L120.813,43.811L120.468,47.421L120.16,49.976L119.715,54.104L119.056,58.255L117.923,62.358L116.719,64.192L115.022,66.415L114.447,68.204L112.381,71.805L111.285,73.149L108.76,75.992L108.29,76.713L107.989,77.251L104.813,76.492L100.914,75.436L94.729,73.986L90.351,73.045L83.139,71.489L76.089,70.22L70.145,69.259L64.692,68.164L56.786,66.773L51.273,65.471L44.762,63.786L37.953,62.337L31.298,60.608L24.076,58.985L17.277,57.746L10.996,56.805L3.732,55.751L0.545,55.466L0,55.153Z" style="fill:rgb(245,247,251);fill-rule:nonzero;"/>
                </g>
                <g transform="matrix(1,0,0,1,140.982,163.08)">
                    <path d="M0,-41.746C0,-41.746 -3.342,-39.748 -4.486,-36.062C-4.838,-34.926 -5.597,-34.246 -5.976,-33.646C-6.826,-32.297 -7.229,-31.939 -7.229,-31.939L-9.299,-28.525L-12.145,-23.417L-13.567,-19.933L-14.204,-19.029L-14.115,-17.428L-13.802,-14.35L-13.295,-12.704L-12.063,-8.479L-10.201,-4.035L-9.396,-2.36L-7.991,0.254L-7.438,0.254L-6.611,-0.371L-4.99,-1.487L-2.29,-2.769L1.375,-4.36L4.203,-5.26C4.203,-5.26 7.184,-5.935 7.127,-5.925C7.071,-5.915 10.533,-6.286 10.533,-6.286L11.189,-6.6L11.189,-8.187C11.189,-8.187 11.323,-14.683 11.265,-14.629C11.206,-14.574 12.599,-22.178 12.599,-22.178L14.425,-30.285L16.083,-34.251C16.083,-34.251 15.989,-35.242 15.835,-35.207C15.683,-35.174 13.343,-37.49 13.343,-37.49L9.662,-39.225L5.548,-40.717L2.252,-41.511L0.726,-42L0,-41.746Z" style="fill:rgb(61,61,69);fill-rule:nonzero;"/>
                </g>
                <g transform="matrix(1,0,0,1,175.563,178.76)">
                    <path d="M0,-3.452L0.414,-1.627L1.271,-0.056L1.627,2.002L1.627,3.339L1.852,4.344L9.804,5.808L19.755,7.092L38.507,10.708L39.655,9.724L41.119,8.262L42.059,6.823L43.258,3.715L39.325,-2.877L28.974,-13.458L28.593,-14.16L24.463,-11.877L19.892,-9.999L15.579,-8.205L11.863,-6.731L5.201,-4.849L2.471,-4.094L0,-3.452Z" style="fill:rgb(61,61,69);fill-rule:nonzero;"/>
                </g>
                <g transform="matrix(1,0,0,1,192.136,135.203)">
                    <path d="M0,-34.382L-4.711,-25.869L-8.547,-17.943L-7.984,-17.492L-6.094,-17.031L-3.504,-16.276L-1.087,-15.417L1.853,-13.171L5.719,-10.531L8.582,-8.7L12.572,-3.986L14.271,-1.551L15.317,0.021L18.479,-2.493L22.369,-4.618L25.973,-6.932L29.029,-8.537L32.669,-9.132L32.669,-11.306L31.057,-18.477L27.192,-24.403L22.548,-27.842L15.664,-31.824L12.433,-33.224L4.923,-34.286L2.682,-34.088L1.012,-34.306L0.098,-34.403" style="fill:rgb(61,61,69);fill-rule:nonzero;"/>
                </g>
                <g transform="matrix(1,0,0,1,241.44,182.237)">
                    <path d="M0,-36.526L-0.849,-28.637L-2.322,-21.758L-2.879,-17.638L-3.437,-12.252L-3.767,-9.921L-2.879,-6.354L-2.673,-2.989L-2.888,0L-0.721,-2.59L1.064,-7.913L2.76,-21.484L3.127,-30.581C3.127,-30.581 2.596,-34.961 2.52,-34.802C2.443,-34.645 1.803,-36.077 1.644,-36.225C1.484,-36.373 0,-36.526 0,-36.526" style="fill:rgb(61,61,69);fill-rule:nonzero;"/>
                </g>
                <g transform="matrix(1,0,0,1,189.818,174.891)">
                    <path d="M0,-80.833C0,-80.833 -27.293,-74.019 -39.079,-51.555C-39.871,-50.047 -43.896,-47.934 -44.684,-46.818C-50.205,-39.01 -53.955,-37.39 -54.658,-31.21C-54.751,-30.402 -50.993,-18.391 -51.035,-17.639C-51.31,-12.739 -50.574,-9.04 -49.472,-6.299L-47.335,0L-55.317,-1.155L-58.991,-1.729L-65.781,-2.524L-68.945,-13.65L-68.582,-22.546L-67.08,-29.95L-67.925,-35.874L-66.569,-41.68L-63.329,-47.809L-61.159,-50.724L-52.647,-59.863L-46.643,-65.888L-42.237,-69.203L-39.307,-71.855L-36.359,-74.146L-32.39,-76.225L-27.186,-77.96L-20.907,-79.025L-15.431,-79.264L-13.184,-80.152L-7.112,-80.833L0,-80.833Z" style="fill:rgb(216,216,216);fill-rule:nonzero;"/>
                </g>
                <g transform="matrix(1,0,0,1,138.737,190.444)">
                    <path d="M0,-30.349C0,-30.349 12.121,-17.953 37.494,-12.849C53.014,-9.727 65.171,-7.411 72.515,-7.005C77.175,-6.748 80.084,-7.97 80.084,-7.97L83.035,-8.758C83.035,-8.758 81.122,0 79.27,-0.139C77.418,-0.279 73.654,-1.301 73.654,-1.301L63.511,-3.386L54.685,-4.865L44.191,-6.288L31.389,-9.356L23.994,-11.043L18.856,-12.161L10.887,-14.096L8.253,-14.557L3.747,-15.554L-0.641,-16.188L-2.855,-24.739L-2.855,-27.11L0,-30.349Z" style="fill:rgb(216,216,216);fill-rule:nonzero;"/>
                </g>
                <g transform="matrix(1,0,0,1,160.137,174.891)">
                    <path d="M0,-49.176C0,-49.176 -3.001,-23.905 3.938,-18.561C10.876,-13.216 19.023,-7.455 28.542,-8.2L43.938,-11.489L43.736,-10.682L42.057,-9.36L33.56,-5.544L26.572,-2.863L20.76,-1.018L17.22,0L15.62,-0.02L13.108,-2.863L10.927,-4.346L6.868,-7.083L0.837,-11.194L-3.611,-15.116L-5.298,-16.887L-7.301,-18.41L-7.89,-19.523L-8.165,-26.058L-7.005,-32.684C-7.005,-32.684 -5.291,-40.067 -5.276,-40.131C-5.26,-40.197 -3.293,-46.215 -3.293,-46.215L-2.324,-47.205C-2.324,-47.205 -1.523,-48.218 -1.46,-48.281C-1.397,-48.344 0,-49.176 0,-49.176" style="fill:rgb(216,216,216);fill-rule:nonzero;"/>
                </g>
                <g transform="matrix(1,0,0,1,211.564,181.547)">
                    <path d="M0,-48.866C0,-48.866 2.98,-38.227 3.04,-32.345C3.099,-26.462 1.451,-13.648 3.04,-9.995C4.629,-6.342 8.753,-0.867 7.809,-0.272C7.38,0 5.398,-2.506 3.548,-5.129C1.32,-8.285 -1.738,-11.095 -1.738,-11.095L-7.691,-17.339L-6.956,-18.213L-5.693,-24.259L-5.588,-30.109L-4.122,-37.652L-4.783,-45.166L-3.712,-46.837L-1.14,-48.211L0,-48.866Z" style="fill:rgb(216,216,216);fill-rule:nonzero;"/>
                </g>
                <g transform="matrix(1,0,0,1,182.478,145.58)">
                    <path d="M0,-25.94C0,-25.94 17.251,-18.616 21.596,-8.574C21.596,-8.574 21.536,-2.901 20.72,-1.451C19.904,0 11.415,-16.499 3.261,-20.241C-4.894,-23.982 -1.793,-23.241 -1.793,-24.346C-1.793,-25.45 0,-25.94 0,-25.94" style="fill:rgb(250,251,252);fill-rule:nonzero;"/>
                </g>
                <g transform="matrix(1,0,0,1,150.564,160.878)">
                    <path d="M0,-37.263L-4.32,-38.594L-8.323,-39.644L-9.464,-39.719L-10.369,-39.247L-12.159,-37.263L-15.172,-32.528L-17.905,-28.197L-20.559,-23.52L-22.212,-20.028L-23.15,-17.73L-23.786,-16.108L-22.877,-10.502L-20.261,-2.974L-17.648,1.372L-17.221,2.456L-14.945,0.907L-11.328,-0.783C-11.328,-0.783 -13.171,-14.127 -8.643,-21.346C-4.114,-28.564 0,-37.263 0,-37.263" style="fill:rgb(45,46,61);fill-rule:nonzero;"/>
                </g>
                <g transform="matrix(1,0,0,1,211.564,115.669)">
                    <path d="M0,17.012C0,17.012 -11.294,-2.014 -25.825,-2.853L-27.727,1.17L-27.962,1.943L-26.197,2.339L-22.481,3.227L-18.099,5.695L-12.892,9.525L-9.088,12.848C-9.088,12.848 -5.988,16.084 -6.021,16.214C-6.053,16.344 -4.397,18.806 -4.397,18.806L-3.719,19.865L-2.061,17.642L-0.729,17.012L0,17.012Z" style="fill:rgb(45,46,61);fill-rule:nonzero;"/>
                </g>
                <g transform="matrix(1,0,0,1,176.816,189.166)">
                    <path d="M0,-11.453C0,-11.453 39.226,-4.742 41.198,-6.745L42.161,-6.704L41.713,-5.419L40.984,-4.047L40.026,-2.39L38.058,-0.388L37.378,0L26.385,-1.838L20.337,-2.96L11.669,-4.256L5.432,-5.173L0.183,-6.432L-0.196,-7.375L-0.586,-9.435L-0.586,-10.845L0,-11.453Z" style="fill:rgb(45,46,61);fill-rule:nonzero;"/>
                </g>
                <g transform="matrix(1,0,0,1,192.51,123.563)">
                    <path d="M0,-22.457C0,-22.457 10.95,-21.969 12.195,-21.216C13.439,-20.462 21.406,-16.763 21.406,-16.763L23.684,-15.232L29.701,-9.091L32.834,2.152L31.938,2.567C31.938,2.567 14.646,-25.024 -1.301,-20.312L-0.935,-21.729L0,-22.457Z" style="fill:rgb(90,91,100);fill-rule:nonzero;"/>
                </g>
                <g transform="matrix(1,0,0,1,241.44,182.538)">
                    <path d="M0,-36.827L-0.615,-29.274C-0.615,-29.274 1.116,-13.897 -3.089,-8.214C-3.089,-8.214 -2.855,-2.415 -2.932,-2.414C-3.008,-2.414 -3.086,0 -3.086,0L-0.558,-3.378L0.865,-7.294C0.865,-7.294 1.617,-11.587 1.633,-11.7C1.647,-11.813 2.919,-20.249 2.919,-20.249L3.127,-28.506C3.127,-28.506 2.77,-34.055 2.704,-34.125C2.639,-34.195 2.024,-35.924 1.834,-36.225C1.644,-36.526 0,-36.827 0,-36.827" style="fill:rgb(90,91,100);fill-rule:nonzero;"/>
                </g>
                <g transform="matrix(1,0,0,1,154.807,156.579)">
                    <path d="M0,-29.349C-0.228,-28.895 -6.938,-9.944 -6.192,-0.249L-6.192,0.525L-2.636,-0.098L-2.834,-2.124L-1.731,-12.898L-0.42,-19.773L1.429,-26.042L2.259,-27.75L1.604,-29.007L0.828,-29.874L0,-29.349Z" style="fill:rgb(90,91,100);fill-rule:nonzero;"/>
                </g>
                <g transform="matrix(1,0,0,1,294.77,220.333)">
                    <path d="M0,-25.516L-0.883,-22.022L-2.034,-19.635L-3.732,-18.45L-6.392,-16.91L-8.701,-15.66C-8.701,-15.66 -7.494,-12.59 -7.283,-12.458C-7.074,-12.328 -2.14,-5.039 -2.087,-4.882C-2.034,-4.725 0.633,-1.511 0.633,-1.511L3.688,0L6.037,-1.134L7.131,-3.001L6.9,-6.156L3.926,-16.094L1.082,-23.633L0.328,-24.991L0,-25.516Z" style="fill:rgb(64,92,170);fill-rule:nonzero;"/>
                </g>
                <g transform="matrix(1,0,0,1,294.759,186.533)">
                    <path d="M0,7.73L-0.458,10.362L-1.238,12.056L-2.298,13.72L-3.556,15.035L-5.446,16.4L-7.813,17.599L-9.203,18.151L-14.487,11.425L-17.367,8.754L-20.716,6.922L-22.352,6.205L-22.125,5.702L-19.925,3.403L-17.121,-0.422L-15.508,-3.728L-14.487,-7.541L-14.3,-10.421L-11.176,-7.779L-6.495,-2.785L-3.222,1.737L-0.262,5.846L0,7.73Z" style="fill:rgb(238,55,44);fill-rule:nonzero;"/>
                </g>
                <g transform="matrix(1,0,0,1,261.322,192.656)">
                    <path d="M0,-26.576C0.044,-26.56 5.057,-24.659 5.057,-24.659L11.049,-22.619L14.4,-20.158L18.177,-17.375L19.384,-16.238L18.897,-12.532L18.108,-9.69L16.589,-6.627L15.135,-4.472L13.375,-2.341L11.357,0L6.89,-1.513L3.444,-3.089L-2.386,-4.696L-0.65,-8.861L1.35,-15.56L1.134,-21.818L-0.616,-26.576L0,-26.576Z" style="fill:rgb(245,247,251);fill-rule:nonzero;"/>
                </g>
                <g transform="matrix(1,0,0,1,258.936,160.63)">
                    <path d="M0,27.573L-7.803,27.06L-11.816,27.118L-12.234,20.653L-13.286,13.202L-15.64,6.963L-16.962,4.64L-18.241,2.967L-20.428,1.021L-21.593,0L-16.414,0.59L-10.271,1.48L-0.818,4.357L2.029,5.154L3.027,7.571L3.735,10.079L4.024,13.907L3.633,16.813L2.124,21.866L1.566,23.572L0,27.33" style="fill:rgb(64,92,170);fill-rule:nonzero;"/>
                </g>
                <g transform="matrix(1,0,0,1,271.216,219.228)">
                    <path d="M0,-19.776L1.464,-15.804L2.261,-11.652L2.896,-7.396L3.345,-4.094L2.863,-1.223L1.825,0.202L0.415,0.202L-2.449,-0.773L-4.107,-2.149L-5.386,-5.686L-6.755,-8.163L-8.904,-11.353L-7.1,-11.353L-5.157,-12.072L-3.478,-13.49L-2.428,-15.432L-1.22,-17.532L-0.271,-19.978L0,-19.776Z" style="fill:rgb(64,92,170);fill-rule:nonzero;"/>
                </g>
                <g transform="matrix(1,0,0,1,253.814,197.21)">
                    <path d="M0,3.075C0,3.075 2.021,4.353 2.024,4.355C2.028,4.356 4.239,6.084 4.239,6.084L6.357,8.124L8.261,9.946L8.831,10.665L10.077,10.663L11.442,10.366L13.091,9.231L14.171,8.071L15.188,6.214L16.182,4.486L16.881,2.708L16.881,1.073L15.342,-1.919L14.622,-4.933C14.622,-4.933 14.239,-6.779 14.029,-6.895C13.819,-7.012 11.771,-7.59 11.614,-7.536C11.457,-7.484 10.302,-7.54 10.302,-7.54L9.514,-6.014L8.79,-4.554L7.462,-2.574L6.102,-1.079L4.317,0.548L2.584,1.44L0.811,2.228L0,2.708L0,3.075Z" style="fill:rgb(238,55,44);fill-rule:nonzero;"/>
                </g>
                <g transform="matrix(1,0,0,1,263.862,198.141)">
                    <path d="M0,-8.673L-5.137,-9.734L-8.755,-10.19L-12.729,-10.45L-14.92,-9.938L-15.813,-10.181L-16.161,-7.834L-17.643,-4.235L-19.295,-1.907L-19.503,-1.003L-18.212,-0.96L-14.976,0.015L-11.298,1.777L-9.751,1.476L-6.798,0.167L-4.245,-1.737L-2.586,-3.505L-1.057,-5.863L0,-8.673Z" style="fill:rgb(245,247,251);fill-rule:nonzero;"/>
                </g>
                <g transform="matrix(1,0,0,1,248.348,197.304)">
                    <path d="M0,-9.614L-2.976,-9.101L-5.039,-9.101L-7.719,-8.138L-9.839,-7.316L-12.156,-6.419L-13.917,-5.027L-14.957,-3.501L-14.05,-2.669L-10.292,-1.694L-8.467,-0.544L-7.479,0L-5.076,0L-3.501,-1.121L-1.955,-3.734L-0.613,-6.685L0,-9.165L0,-9.614Z" style="fill:rgb(64,92,170);fill-rule:nonzero;"/>
                </g>
                <g transform="matrix(1,0,0,1,247.269,164.095)">
                    <path d="M0,23.321L-3.263,24.005L-6.64,24.749L-10.406,26.786L-12.094,23.653L-14.878,19.955L-18.488,16.029L-19.485,14.903L-22.46,12.641L-26.996,9.56L-30.623,8.104L-34.407,6.931L-37.169,6.614L-39.805,6.153L-43.396,6.153L-40.214,3.45L-33.558,0.029L-26.442,-2.411L-19.855,-3.191L-14.384,-3.465L-10.428,-3.315L-8.707,-2.982L-6.573,-0.498L-5.164,1.404L-2.54,7.294L-1.751,9.895L-0.831,14.897C-0.831,14.897 0.078,20.109 -0.148,20.061C-0.378,20.013 0,23.321 0,23.321" style="fill:rgb(238,55,44);fill-rule:nonzero;"/>
                </g>
                <g transform="matrix(1,0,0,1,203.782,193.9)">
                    <path d="M0,-23.912L2.842,-23.599L6.358,-23.448L10.274,-22.503L14.224,-21.154L19.582,-18.144L23.784,-14.908L26.737,-12.214L29.275,-9.022L31.04,-6.21L31.986,-5.05L32.999,-3.703L32.256,-2.894L30.844,-1.623L29.608,-0.097L28.874,0L26.193,-0.67L19.328,-2.24L11.823,-3.984L4.587,-5.596L-1.534,-6.749L-7.973,-7.698L-11.289,-8.277L-10.073,-11.891L-6.591,-16.805L-3.459,-20.971L0,-23.912Z" style="fill:rgb(245,247,251);fill-rule:nonzero;"/>
                </g>
                <g transform="matrix(1,0,0,1,244.704,163.053)">
                    <path d="M0,-10.954L1.774,-10.796L6.156,-6.817L6.156,-2.975L5.143,0L3.078,-0.229L-0.179,-1.17L-0.179,-5.567C-0.179,-5.567 -0.414,-8.57 -0.209,-8.701C-0.003,-8.832 0.029,-10.719 0.029,-10.719" style="fill:rgb(64,92,170);fill-rule:nonzero;"/>
                </g>
                <g transform="matrix(1,0,0,1,250.695,164.381)">
                    <path d="M0,-8.823L0,-4.981L-0.542,-3.39L-1.015,-2.006L0.438,-1.519L3.854,-0.595L5.815,0L5.815,-0.595L5.101,-2.341L2.4,-6.549L0.638,-7.961L0,-8.823Z" style="fill:rgb(245,247,251);fill-rule:nonzero;"/>
                </g>
                <g transform="matrix(1,0,0,1,142.525,160.912)">
                    <path d="M0,13.693L-2.329,11.116L-6.644,7.459L-12.195,3.468L-16.972,0.732L-19.441,-0.476L-21.053,0.804L-22.949,2.873L-26.028,5.975L-28.802,9.324L-30.34,11.721L-31.208,12.425L-28.281,11.939L-23.986,11.468L-19.441,11.48L-14.868,11.763L-8.023,12.824L-3.854,13.718L-1.15,14.169L-0.042,13.978L0.316,13.588" style="fill:rgb(245,247,251);fill-rule:nonzero;"/>
                </g>
                <g transform="matrix(1,0,0,1,122.051,158.909)">
                    <path d="M0,-17.115L-2.508,-16.281L-5.079,-15.344L-7.336,-14.139L-9.138,-12.964L-10.489,-12.404L-10.225,-10.521L-8.428,-5.149L-7.146,-2.128L-0.631,0L-0.898,-4.516L0.071,-11.331L0.725,-13.408L0.459,-15.56L0,-17.115Z" style="fill:rgb(245,247,251);fill-rule:nonzero;"/>
                </g>
                <g transform="matrix(1,0,0,1,111.317,157.422)">
                    <path d="M0,-10.747L-1.282,-9.789L-2.545,-8.219L-4.212,-7.119L-5.225,-5.994C-5.225,-5.994 -5.957,-4.384 -6.015,-4.331C-6.075,-4.277 -7.133,-2.572 -7.133,-2.572L-3.956,-1.63L0.245,-1.092L3.573,0L2.926,-2.16L1.279,-6.748L0.338,-9.572L0,-10.747Z" style="fill:rgb(238,55,44);fill-rule:nonzero;"/>
                </g>
                <g transform="matrix(1,0,0,1,122.34,173.877)">
                    <path d="M0,-13.44C0.037,-13.762 -2.4,-14.793 -2.4,-14.793L-9.05,-16.98L-14.744,-18.439L-18.658,-19.026L-21.568,-19.484L-23.333,-19.484L-23.333,-19.026L-24.262,-16.455L-25.334,-13.44L-26.333,-9.922L-27.111,-6.31L-27.545,-3.567L-27.947,0.413L-27.686,2.266L-24.683,3.707L-21.816,6.044L-21.038,5.387L-19.156,3.563L-16.349,1.816L-10.657,-0.539L-10.205,-1.611L-6.919,-5.849L-3.39,-9.614L-1.154,-11.907L0.001,-12.85L0,-13.44Z" style="fill:rgb(238,55,44);fill-rule:nonzero;"/>
                </g>
                <g transform="matrix(1,0,0,1,100.524,187.342)">
                    <path d="M0,-7.666C0,-7.421 -0.755,-5.258 -1.09,-5.482C-1.426,-5.708 -2.45,-2.93 -2.45,-2.93L-3.343,0.442L-4.025,2.887L-4.025,3.533L-5.222,3.533L-7.247,2.965L-10.082,0.916L-11.792,-0.489L-10.814,-3.335L-7.235,-11.199L-4.274,-10.078L-0.884,-8.314L0,-7.666Z" style="fill:rgb(64,92,170);fill-rule:nonzero;"/>
                </g>
                <g transform="matrix(1,0,0,1,96.2495,199.517)">
                    <path d="M0,-8.54L-0.374,-5.946L0.134,-2.543L0.875,1.345L1.11,3.535L0,4.124L-2.596,4.124L-6.324,3.182L-10.399,0.397L-9.992,-2.862L-8.822,-8.144L-7.252,-12.664L-5.807,-11.259L-2.654,-9.134L0.25,-8.642" style="fill:rgb(245,247,251);fill-rule:nonzero;"/>
                </g>
                <g transform="matrix(1,0,0,1,97.0674,212.877)">
                    <path d="M0,-9.67L2.366,-3.138L1.526,-2.154L0,-0.081L-1.191,2.822L-2.001,3.551L-3.119,4.09L-5.462,3.953L-10.009,2.19L-11.954,0.813L-12.245,-3.551C-12.245,-3.551 -10.974,-13.76 -11.253,-13.627C-11.532,-13.493 -9.532,-11.67 -9.532,-11.67L-6.718,-10.179L-4.32,-9.349L-2.178,-9.316L0,-9.67Z" style="fill:rgb(238,55,44);fill-rule:nonzero;"/>
                </g>
                <g transform="matrix(1,0,0,1,85.1138,228.96)">
                    <path d="M0,-15.27L0,-11.994L0.039,-8.786L0.736,-5.34L1.598,-2.34L2.194,-0.281L3.655,0L5.236,-1.222L6.518,-3.22L8.439,-5.729L10.596,-12.829C10.596,-12.829 9.368,-12.525 9.277,-12.462C9.187,-12.4 7.775,-12.046 7.775,-12.046L5.109,-12.462L3.03,-13.29L1.187,-14.458L0,-15.27Z" style="fill:rgb(64,92,170);fill-rule:nonzero;"/>
                </g>
                <g transform="matrix(1,0,0,1,95.0073,178.264)">
                    <path d="M0,-24.472L-5.471,-24.048L-9.063,-23.906C-9.857,-23.8 -10.644,-23.654 -11.425,-23.462C-12.706,-23.148 -14.079,-22.859 -15.262,-22.264C-16.196,-21.795 -17.105,-21.297 -18.071,-20.896C-18.263,-20.817 -18.44,-20.792 -18.599,-20.807L-18.974,-18.168L-18.974,-14.236L-18.619,-9.295L-17.683,-4.222L-16.305,0L-11.354,-1.647L-6.01,-2.236L-1.247,-1.943L-0.615,-2.764L-0.177,-8.529L1.588,-16.648L4.193,-23.413L4.426,-24.121L0,-24.472Z" style="fill:rgb(64,92,170);fill-rule:nonzero;"/>
                </g>
                <g transform="matrix(1,0,0,1,76.9844,167.85)">
                    <path d="M0,4.349L-0.808,-1.823L-0.849,-8.941L-0.516,-10.948C-1.557,-10.424 -2.496,-10.066 -3.468,-9.374C-4.197,-8.855 -4.953,-8.33 -5.738,-7.895C-6.416,-7.52 -7.225,-7.286 -7.825,-6.785C-8.26,-6.421 -15.419,-1.936 -16.081,-0.245C-16.347,0.436 -17.079,0.693 -17.647,0.521L-17.383,2.987L-16.387,6.367L-14.502,9.943L-13.044,13.041L-11.29,15.297L1.718,10.413L0,4.349Z" style="fill:rgb(245,247,251);fill-rule:nonzero;"/>
                </g>
                <g transform="matrix(1,0,0,1,47.1797,179.776)">
                    <path d="M0,-2.63L-0.481,-0.749L-0.089,1.933L1.318,5.141C1.318,5.141 2.761,6.706 2.873,6.795C2.985,6.883 5.197,8.071 5.197,8.071L7.357,8.766L10.538,6.797L14.249,5.417L18.954,3.635L16.998,1.501L14.119,-3.866L12.292,-10.15L12.091,-10.808L11.942,-11.396L0,-2.63Z" style="fill:rgb(238,55,44);fill-rule:nonzero;"/>
                </g>
                <g transform="matrix(1,0,0,1,36.2505,180.465)">
                    <path d="M0,12.63C0.142,12.799 2.373,14.168 2.373,14.168L4.25,15.114L6.589,15.114L9.977,13.83L14.202,11.163L18.4,7.859L15.155,6.965L12.4,4.682L11.545,3.044L10.448,-1.437L10.516,-2.484C10.516,-2.484 7.505,-0.661 4.575,4.434C2.144,8.663 -0.063,12.554 0,12.63" style="fill:rgb(64,92,170);fill-rule:nonzero;"/>
                </g>
                <g transform="matrix(1,0,0,1,36.9858,179.68)">
                    <path d="M0,12.098L0.033,11.174C0.033,11.174 4.63,4.478 7.41,0.562C8.563,-1.062 9.469,-1.54 9.48,-0.758C9.484,-0.497 9.499,-0.22 9.536,0.053C9.687,1.197 10.938,3.665 10.6,3.753C9.937,3.924 -0.534,13.638 -0.534,13.638L0,12.098Z" style="fill:rgb(38,53,116);fill-rule:nonzero;"/>
                </g>
                <g transform="matrix(1,0,0,1,59.2705,183.062)">
                    <path d="M0,-15.045L0.223,-13.062L0.413,-11.369L1.181,-9.245C0.779,-9.806 -11.666,0 -11.666,0L-12.407,-3.551L-12.794,-4.798L-11.414,-6.298L0,-15.045" style="fill:rgb(201,32,38);fill-rule:nonzero;"/>
                </g>
                <g transform="matrix(1,0,0,1,75.9468,170.782)">
                    <path d="M0,-10.716L0.488,-13.751C-0.2,-13.415 -0.885,-13.078 -1.599,-12.797C-1.746,-12.739 -1.9,-12.726 -2.05,-12.746C-2.621,-12.467 -3.183,-12.172 -3.701,-11.799C-3.871,-11.675 -4.068,-11.624 -4.269,-11.627C-5.298,-11.072 -6.299,-10.461 -7.198,-9.717C-7.348,-9.593 -7.506,-9.513 -7.666,-9.47C-7.837,-9.423 -9.955,-7.537 -10.637,-6.976C-11.23,-6.489 -11.94,-6.014 -12.368,-5.366C-12.732,-4.815 -13.327,-4.73 -13.811,-4.916C-13.86,-4.832 -13.905,-4.745 -13.956,-4.661C-14.219,-4.227 -14.666,-4.071 -15.088,-4.119C-15.092,-4.114 -15.095,-4.111 -15.099,-4.106C-15.149,-3.9 -15.25,-3.696 -15.404,-3.57C-15.42,-3.558 -15.433,-3.542 -15.446,-3.528C-15.565,-3.362 -15.678,-3.19 -15.78,-3.013C-15.972,-2.681 -16.314,-2.484 -16.676,-2.445L-16.676,-1.155L-16.264,0.911L-15.495,3.035L-15.318,2.826C-15.318,2.826 -0.508,-4.65 0.277,-4.105L0.133,-6.575L0,-10.716Z" style="fill:rgb(216,216,216);fill-rule:nonzero;"/>
                </g>
                <g transform="matrix(1,0,0,1,89.728,166.678)">
                    <path d="M0,-12.285L-4.026,-12.116C-5.338,-11.846 -6.667,-11.661 -7.971,-11.327C-8.897,-11.09 -9.768,-10.755 -10.628,-10.341C-11.217,-10.058 -11.959,-9.885 -12.419,-9.407C-12.735,-9.08 -13.104,-9.001 -13.438,-9.078L-13.717,-4.593L-13.781,-0.981L-13.504,0C-8.261,-3.327 6.687,-4.272 6.687,-4.272L7.851,-8.004L8.613,-9.76L9.54,-11.879L0,-12.285Z" style="fill:rgb(38,53,116);fill-rule:nonzero;"/>
                </g>
                <g transform="matrix(1,0,0,1,99.2681,165.452)">
                    <path d="M0,-10.809L-0.861,-8.302L-2.291,-4.917L-2.612,-3.059C-2.612,-3.059 11.222,-3.766 17.901,0.194C17.995,0.25 18.583,-0.095 18.583,-0.095L20.274,-1.643L22.128,-3.73L23.187,-4.691L22.721,-5.357L18.638,-7.037L12.294,-9.122C12.294,-9.122 7.126,-10.165 7.023,-10.256C6.921,-10.347 3.101,-10.809 3.101,-10.809L1.062,-11.059L0,-10.809Z" style="fill:rgb(201,32,38);fill-rule:nonzero;"/>
                </g>
                <g transform="matrix(1,0,0,1,122.455,174.316)">
                    <path d="M0,-13.425L-4.87,-8.663C-4.87,-8.663 5.999,-3.359 6.959,-1.682L7.82,-1.299L19.467,0.494L17.896,-2.117L8.814,-9.381C8.814,-9.381 1.328,-13.841 1.228,-13.88C1.129,-13.919 0.169,-13.88 0.169,-13.88L0,-13.425Z" style="fill:rgb(216,216,216);fill-rule:nonzero;"/>
                </g>
                <g transform="matrix(1,0,0,1,121.894,152.047)">
                    <path d="M0,-10.007C-0.084,-9.987 -3.043,-9.355 -5.613,-8.185C-8.106,-7.049 -10.211,-5.372 -10.332,-5.372C-10.576,-5.372 -8.803,0 -8.803,0C-8.803,0 -1.96,-5.627 0.229,-4.469L0.585,-5.817C0.585,-5.817 1.135,-7.616 1.015,-7.616C0.894,-7.616 0.637,-9.047 0.561,-9.096C0.485,-9.147 0,-10.007 0,-10.007" style="fill:rgb(216,216,216);fill-rule:nonzero;"/>
                </g>
                <g transform="matrix(1,0,0,1,112.913,150.428)">
                    <path d="M0,1.619C0,1.619 -2.414,3.873 -2.679,4.999C-2.679,4.999 -3.971,4.868 -4.071,4.999C-4.169,5.132 -8.652,4.297 -8.652,4.297L-8.078,2.149L-1.596,-3.513L-1.056,-1.757L0,1.619Z" style="fill:rgb(201,32,38);fill-rule:nonzero;"/>
                </g>
                <g transform="matrix(1,0,0,1,96.8608,188.092)">
                    <path d="M0,-10.51C0,-10.51 -4.473,-0.497 -4.792,1.262L-7.864,-1.021L-7.486,-4.624L-4.113,-11.772L-1.854,-11.299L0.499,-10.672L0,-10.51Z" style="fill:rgb(38,53,116);fill-rule:nonzero;"/>
                </g>
                <g transform="matrix(1,0,0,1,92.0693,199.571)">
                    <path d="M0,-10.216C0,-10.216 -2.437,0.576 -2.484,2.722L-4.636,1.307L-6.255,-0.32C-6.255,-0.32 -5.516,-4.128 -5.536,-4.323C-5.554,-4.52 -3.337,-12.938 -3.337,-12.938L-2.802,-12.451L-1.399,-10.655L-0.718,-10.655L0,-10.216Z" style="fill:rgb(216,216,216);fill-rule:nonzero;"/>
                </g>
                <g transform="matrix(1,0,0,1,89.5854,212.896)">
                    <path d="M0,-10.603C0,-10.603 -1.259,-0.37 -0.788,2.844L-2.637,2.017C-2.637,2.017 -4.181,1.042 -4.472,0.794C-4.763,0.547 -3.99,-8.229 -4.21,-8.235C-4.428,-8.242 -3.937,-12.528 -3.937,-12.528L-3.735,-13.447L-2.585,-12.125L-1.235,-11.208L-0.644,-10.603L0,-10.603Z" style="fill:rgb(201,32,38);fill-rule:nonzero;"/>
                </g>
                <g transform="matrix(1,0,0,1,88.7974,226.957)">
                    <path d="M0,-11.217C0,-11.217 -1.28,-4.496 0,1.548L-0.767,2.297L-2.78,-1.153L-3.916,-11.217L-3.975,-13.514L-3.146,-12.752L-1.219,-11.589L0,-11.217Z" style="fill:rgb(38,53,116);fill-rule:nonzero;"/>
                </g>
                <g transform="matrix(1,0,0,1,200.898,171.281)">
                    <path d="M0,15.102C0,15.102 6.314,1.956 13.158,0.117L9.242,-0.829L2.975,-1.033L0,1.161L-4.944,7.422L-7.452,11.257L-8.405,14.342L-4.825,14.867L-0.472,16.135L0,15.102Z" style="fill:rgb(245,247,251);fill-rule:nonzero;"/>
                </g>
                <g transform="matrix(1,0,0,1,213.614,160.538)">
                    <path d="M0,10.995C0,10.995 14.146,1.953 29.157,6.134C29.247,6.158 28.581,4.725 28.581,4.725L24.41,0.169L17.955,0L10.814,0.72L4.184,2.184L-0.829,4.061L-5.217,6.147L-8.792,8.616L-9.741,9.71L-4.599,9.843L-0.753,10.488L0,10.995Z" style="fill:rgb(239,103,113);fill-rule:nonzero;"/>
                </g>
                <g transform="matrix(1,0,0,1,242.771,165.446)">
                    <path d="M0,1.226C0,1.226 19.014,3.935 19.749,5.964L18.363,0.747L10.807,-1.653L3.07,-3.595L-3.9,-4.738L-4.554,-4.527C-4.554,-4.527 -2.077,-1.683 -1.959,-1.653C-1.842,-1.625 -0.547,0.111 -0.547,0.111L0,1.226Z" style="fill:rgb(113,139,198);fill-rule:nonzero;"/>
                </g>
                <g transform="matrix(1,0,0,1,244.872,159.145)">
                    <path d="M0,-7.265C0.029,-7.177 0,-3.587 0,-3.587C0,-3.587 5.559,-1.735 5.706,0C5.706,0 5.589,-2.647 5.706,-2.765C5.823,-2.883 4.809,-4.765 4.809,-4.765C4.809,-4.765 2.029,-7.03 1.912,-7.059C1.794,-7.089 0.706,-7.265 0.706,-7.265L0,-7.265Z" style="fill:rgb(113,139,198);fill-rule:nonzero;"/>
                </g>
                <g transform="matrix(1,0,0,1,250.578,160.98)">
                    <path d="M0,-1.835C0,-1.835 2,0.695 2.295,1.872C2.589,3.048 4.17,2.867 4.17,2.867L6.147,2.994C6.147,2.994 5.552,1.565 5.453,1.394C5.354,1.224 2.518,-2.765 2.518,-2.765C2.518,-2.765 0.078,-4.847 0.009,-4.865C-0.06,-4.883 0.009,-3.783 0.009,-3.783L0.117,-2.541L0,-1.835Z" style="fill:rgb(245,247,251);fill-rule:nonzero;"/>
                </g>
                <g transform="matrix(1,0,0,1,262.52,175.199)">
                    <path d="M0,-3.789C0,-3.789 17.119,2.594 17.413,5.33L17.668,5.33L18.211,0.828L12.395,-3.294L7.471,-5.701L-1.432,-9.119L-1.53,-8.642L-0.795,-7.142L-0.235,-4.848L0,-3.789Z" style="fill:rgb(245,247,251);fill-rule:nonzero;"/>
                </g>
                <g transform="matrix(1,0,0,1,280.544,198.773)">
                    <path d="M0,-22.626L-0.16,-19.864L-0.16,-18.45L-0.355,-18.243C-0.355,-18.243 13.8,-2.465 13.081,0L14.029,-1.959C14.029,-1.959 14.86,-4.908 14.655,-4.889C14.449,-4.871 12.632,-8.688 12.632,-8.688L7.654,-15.066L3.83,-19.804L0.802,-22.243L0,-22.626Z" style="fill:rgb(239,103,113);fill-rule:nonzero;"/>
                </g>
                <g transform="matrix(1,0,0,1,293.625,215.53)">
                    <path d="M0,-16.757C0,-16.757 6.692,1.886 6.191,3.591L6.818,3.845C6.818,3.845 8.465,1.37 8.473,1.353C8.479,1.336 7.375,-4.383 7.375,-4.383L2.92,-16.996C2.92,-16.996 1.438,-20.602 1.407,-20.472C1.376,-20.343 0.897,-19.676 0.897,-19.676C0.897,-19.676 0.604,-18.352 0.574,-18.264C0.545,-18.176 0,-16.757 0,-16.757" style="fill:rgb(113,139,198);fill-rule:nonzero;"/>
                </g>
                <g transform="matrix(1,0,0,1,271.579,200.531)">
                    <path d="M0,18.383C0,18.383 -1.088,3.765 -2.587,3.559C-2.587,3.559 -2.198,2.311 -2.176,2.236C-2.154,2.159 -0.884,0.029 -0.884,0.029L-0.363,-0.177L0.309,0.74L2.161,8.809L2.7,15C2.7,15 2.212,16.881 2.266,17.118C2.318,17.356 1.647,18.294 1.647,18.294L0.057,18.56L0,18.383Z" style="fill:rgb(113,139,198);fill-rule:nonzero;"/>
                </g>
                <g transform="matrix(1,0,0,1,268.992,189.866)">
                    <path d="M0,13.989C0,13.989 -5.375,5.017 -7.277,4.635L-6.896,3.508L-4.977,0L-2.59,0.45L-0.791,1.406L1.357,7.272L1.703,9.385L1.647,10.195C1.647,10.195 0.499,12.107 0.499,12.254C0.499,12.401 0,13.989 0,13.989" style="fill:rgb(239,103,113);fill-rule:nonzero;"/>
                </g>
                <g transform="matrix(1,0,0,1,261.715,187.981)">
                    <path d="M0,6.081C0,6.081 -3.815,1.567 -5.872,0.726C-7.928,-0.116 -2.46,0.49 -2.46,0.49L1.775,1.284L1.894,1.689L1.725,2.611L1.111,4.057L0.54,5.145L0,6.197" style="fill:rgb(245,247,251);fill-rule:nonzero;"/>
                </g>
                <g transform="matrix(1,0,0,1,113.659,243.372)">
                    <path d="M0,-24.647C0,-24.647 -21.035,-25.086 -17.087,-18.779C-13.138,-12.471 13.236,-7.41 41.045,-4.374C68.854,-1.336 125.206,0.439 128.149,-13.738C128.149,-13.738 129.508,-20.336 112.847,-20.453C96.185,-20.568 41.045,-23.846 41.045,-23.846L20.191,-22.942L0,-24.647Z" style="fill:rgb(191,226,225);fill-rule:nonzero;"/>
                </g>
                <g transform="matrix(1,0,0,1,122.082,217.197)">
                    <path d="M0,-1.762L-0.851,-0.503L-1.552,1.174L-2.269,2.748L-1.999,3.291C-1.999,3.291 -0.796,3.502 -0.723,3.559C-0.65,3.617 1.972,4.52 1.972,4.52C1.972,4.52 5.952,5.363 6.014,5.38C6.077,5.394 17.681,7.582 17.681,7.582C17.681,7.582 24.564,8.385 24.649,8.393C24.735,8.401 30.437,8.973 30.437,8.973L38.236,9.763L43.524,10.024L48.812,10.336C48.812,10.336 59.057,10.623 59.122,10.623C59.189,10.623 65.666,10.799 65.666,10.799L74.765,10.535L81.176,10.425L89.307,9.742L92.236,9.323L96.371,8.512L100.456,7.22L101.937,6.253L102.537,5.036L101.792,3.242L98.307,-0.114L95.453,-1.762L94.578,-2.147L88.917,-4.638L83.226,-6.738L75.522,-9.254L68.948,-10.727L65.145,-11.182L60.819,-11.453L58.22,-11.783L52.455,-12.183L48.126,-12.561L43.808,-12.537L38.374,-12.26L32.972,-11.277L28.301,-10.44L21.448,-9.139L16.381,-7.796L13.531,-7.398L10.388,-6.056L5.499,-4.706L1.599,-2.596L0.49,-1.945L0,-1.762Z" style="fill:rgb(24,31,75);fill-rule:nonzero;"/>
                </g>
                <g transform="matrix(1,0,0,1,231.492,232.301)">
                    <path d="M0,-25.553C-0.234,-25.172 4.032,-20.1 3.963,-20.206C3.896,-20.313 5.688,-16.218 5.688,-16.218L5.848,-14.257L4.707,-10.661L3.811,-8.48L2.655,-6.983L1.145,-6.078L-2.198,-4.164L-6.18,-2.388L-11.93,-0.926L-15.242,-0.614L-20.766,0.134L-35.243,1.568L-45.422,2.247L-59.054,1.46L-72.14,0.892L-72.909,0.806L-77.301,0.86L-84.667,-0.06L-97.665,-2.454L-105.826,-3.519L-110.354,-4.601L-118.779,-6.639L-118.441,-8.543L-115.646,-11.344L-111.702,-12.164L-108.75,-11.041L-98.637,-9.02L-85.486,-7.157L-68.954,-5.532L-50.602,-4.881L-33.182,-5.032C-33.182,-5.032 -22.196,-5.488 -22.131,-5.466C-22.065,-5.444 -13.334,-6.679 -13.313,-6.679C-13.291,-6.679 -8.465,-8.211 -8.465,-8.211L-6.775,-9.382L-6.812,-10.763L-7.744,-12.899L-10.158,-14.959C-10.158,-14.959 -6.493,-18.858 -6.458,-18.901C-6.423,-18.945 0.046,-21.683 -2.225,-27.8L-1.041,-27.315L0,-25.553Z" style="fill:rgb(38,53,116);fill-rule:nonzero;"/>
                </g>
                <g transform="matrix(1,0,0,1,160.456,222.543)">
                    <path d="M0,-43.512C0,-43.512 4.287,-38.121 11.465,-37.064C13.875,-36.707 16.385,-36.136 18.655,-35.535C23.145,-34.345 26.564,-33.986 26.564,-33.986L35.095,-33.036L42.29,-32.358C42.29,-32.358 61.364,-30.445 70.253,-25.448C72.388,-24.247 75.396,-21.719 76.019,-21.208C77.054,-20.358 78.186,-17.949 78.54,-17.06C80.244,-12.79 78.94,-9.856 77.353,-6.943C75.233,-3.061 73.254,0 73.254,0L76.015,-0.078L78.524,-2.51L80.766,-5.938L83.451,-12.24L83.75,-19.996L79.867,-26.036L72.52,-28.604L49.806,-33.935L17.771,-39.298L4.38,-42.38L0,-43.512Z" style="fill:rgb(113,139,198);fill-rule:nonzero;"/>
                </g>
                <g transform="matrix(1,0,0,1,116.359,225.667)">
                    <path d="M0,-52.882C0,-52.882 -16.117,-43.593 -10.185,-24.184C-6.848,-13.265 -3.747,-8.062 -1.673,-5.6C-0.06,-3.684 0.933,-3.427 0.933,-3.427L-1.318,-1.585L-3.392,0.112L-7.896,-2.787L-11.841,-6.539L-16.383,-15.178L-18.626,-22.334L-19.787,-32.058L-18.58,-39.588L-16.925,-43.521L-14.562,-46.386L-13.111,-48.079L-11.841,-49.207L-8.429,-51.15L-5.233,-52.079L-2.538,-52.702L-0.611,-52.994L0,-52.882Z" style="fill:rgb(38,53,116);fill-rule:nonzero;"/>
                </g>
                <g transform="matrix(1,0,0,1,109.848,211.131)">
                    <path d="M0,0.52C0,0.52 1.826,2.816 5.166,1.567C15.334,-2.234 38.252,-12.917 56.071,-11.754C79.742,-10.211 115.618,-5.923 118.857,3.756C122.096,13.437 121.611,-6.847 117.842,-8.858L121.645,-4.845L123.108,1.031L122.498,4.419L120.614,8.556L117.851,7.868L111.394,5.946L100.094,0.333L89.792,-2.356L81.183,-4.662L67.271,-6.123L55.663,-6.507L47.284,-5.584L39.214,-4.509L29.768,-2.165L24.467,-0.765L17.877,1.727L12.265,4.178L11.609,5.04L9.904,9.632L7.444,11.788L-1.221,4.784L0,0.52Z" style="fill:rgb(38,53,116);fill-rule:nonzero;"/>
                </g>
                <g transform="matrix(1,0,0,1,103.623,179.067)">
                    <path d="M0,20.652L1.982,20.31C1.982,20.31 7.499,0.396 26.7,0.306L23.319,0L18.471,0.214L14.89,1.08L12.028,1.841L9.357,3.164L1.397,9.237L-0.334,11.26L-2.782,15.427C-2.782,15.427 -1.845,17.965 -1.754,17.965C-1.664,17.965 -0.425,20.31 -0.425,20.31L0,20.652Z" style="fill:rgb(38,53,116);fill-rule:nonzero;"/>
                </g>
                <g transform="matrix(1,0,0,1,99.4336,239.631)">
                    <path d="M0,-0.002C0,2.402 -5.12,4.351 -11.436,4.351C-17.751,4.351 -22.871,2.402 -22.871,-0.002C-22.871,-2.404 -17.751,-4.353 -11.436,-4.353C-5.12,-4.353 0,-2.404 0,-0.002" style="fill:rgb(191,226,225);fill-rule:nonzero;"/>
                </g>
                <g transform="matrix(1,0,0,1,280.706,232.284)">
                    <path d="M0,-0.002C0,2.094 -4.392,3.791 -9.811,3.791C-15.228,3.791 -19.62,2.094 -19.62,-0.002C-19.62,-2.095 -15.228,-3.793 -9.811,-3.793C-4.392,-3.793 0,-2.095 0,-0.002" style="fill:rgb(191,226,225);fill-rule:nonzero;"/>
                </g>
                <g transform="matrix(1,0,0,1,315.381,237.193)">
                    <path d="M0,0.001C0,1.5 -5.147,2.715 -11.497,2.715C-17.847,2.715 -22.994,1.5 -22.994,0.001C-22.994,-1.498 -17.847,-2.714 -11.497,-2.714C-5.147,-2.714 0,-1.498 0,0.001" style="fill:rgb(191,226,225);fill-rule:nonzero;"/>
                </g>
                <g transform="matrix(1,0,0,1,176.299,223.236)">
                    <path d="M0,-40.951C-15.141,-44.39 -29.967,-48.076 -45.308,-50.58C-54.772,-52.125 -67.132,-52.264 -74.586,-45.045C-84.16,-35.77 -81.619,-20.527 -76.296,-9.648C-74.204,-5.373 -70.467,0.119 -66.025,2.173C-63.422,3.377 -60.607,3.904 -57.821,4.57C-33.091,10.479 -9.874,11.54 15.414,11.474C21.607,11.458 28.044,10.242 34.186,9.458C42.107,8.448 54.942,7.55 60.113,0.286C60.534,-0.305 58.64,-0.037 58.349,0.372C52.926,7.989 38.5,8.208 30.125,9.162C25.685,9.668 20.457,10.529 16.777,10.591C9.25,10.718 1.688,10.284 -5.832,9.99C-9.773,9.836 -15.276,8.533 -19.154,9.532C-21.901,10.241 -26.004,8.99 -28.736,8.588C-32.831,7.985 -36.91,7.272 -40.983,6.539C-47.671,5.336 -54.314,4.296 -60.92,2.61C-72.199,-0.27 -77.11,-14.341 -78.726,-24.554C-79.986,-32.519 -78.228,-40.604 -71.89,-45.908C-64.024,-52.491 -52.131,-50.717 -42.844,-49.083C-28.903,-46.63 -15.365,-43.277 -1.571,-40.144C-1.082,-40.033 0.627,-40.808 0,-40.951" style="fill:rgb(48,50,61);fill-rule:nonzero;"/>
                </g>
                <g transform="matrix(1,0,0,1,121.977,145.896)">
                    <path d="M0,13.406C-0.427,8.703 0.54,4.17 1.445,-0.418C1.595,-1.18 -0.356,-0.862 -0.49,-0.184C-1.414,4.499 -2.368,9.129 -1.932,13.924C-1.872,14.586 0.069,14.161 0,13.406" style="fill:rgb(48,50,61);fill-rule:nonzero;"/>
                </g>
                <g transform="matrix(1,0,0,1,126.32,145.857)">
                    <path d="M0,-3.567C-1.613,-3.122 -3.092,-2.219 -4.184,-0.945C-4.471,-0.609 -4.373,-0.19 -3.943,-0.048C-3.495,0.1 -2.888,-0.052 -2.577,-0.415C-1.805,-1.316 -0.808,-1.983 0.34,-2.299C0.701,-2.399 1.26,-2.73 1.136,-3.192C1.013,-3.65 0.361,-3.667 0,-3.567" style="fill:rgb(48,50,61);fill-rule:nonzero;"/>
                </g>
                <g transform="matrix(1,0,0,1,126.026,163.429)">
                    <path d="M0,-20.661C-1.104,-17.502 0.322,-13.314 1.305,-10.306C2.37,-7.046 3.756,-2.053 6.429,0.315C7.032,0.849 8.853,0.068 8.206,-0.505C5.941,-2.511 4.751,-6.686 3.729,-9.447C2.63,-12.412 0.712,-17.297 1.831,-20.5C2.184,-21.51 0.256,-21.395 0,-20.661" style="fill:rgb(48,50,61);fill-rule:nonzero;"/>
                </g>
                <g transform="matrix(1,0,0,1,132.154,165.912)">
                    <path d="M0,-2.144C-0.257,-1.409 -0.347,-0.65 -0.385,0.124C-0.42,0.86 1.512,0.448 1.541,-0.142C1.579,-0.916 1.668,-1.675 1.926,-2.41C2.133,-3.004 0.212,-2.751 0,-2.144" style="fill:rgb(48,50,61);fill-rule:nonzero;"/>
                </g>
                <g transform="matrix(1,0,0,1,134.311,156.677)">
                    <path d="M0,7.049C1.653,5.237 4.754,4.257 6.943,3.282C10.379,1.753 14.115,0.968 17.861,0.855C18.992,0.821 19.321,-0.685 18.01,-0.646C14.329,-0.535 10.632,0.171 7.216,1.581C4.258,2.801 0.578,3.99 -1.634,6.415C-2.466,7.327 -0.625,7.734 0,7.049" style="fill:rgb(48,50,61);fill-rule:nonzero;"/>
                </g>
                <g transform="matrix(1,0,0,1,155.766,156.644)">
                    <path d="M0,-27.112C-3.542,-19.003 -5.213,-8.718 -4.411,0.096C-4.345,0.819 -2.406,0.382 -2.479,-0.422C-3.249,-8.874 -1.593,-19.206 1.815,-27.01C2.218,-27.931 0.281,-27.757 0,-27.112" style="fill:rgb(48,50,61);fill-rule:nonzero;"/>
                </g>
                <g transform="matrix(1,0,0,1,127.783,121.302)">
                    <path d="M0,22.909C3.397,14.667 8.319,7.342 13.329,0.014C13.901,-0.822 11.93,-0.783 11.497,-0.15C6.487,7.178 1.565,14.503 -1.832,22.745C-2.238,23.731 -0.298,23.633 0,22.909" style="fill:rgb(48,50,61);fill-rule:nonzero;"/>
                </g>
                <g transform="matrix(1,0,0,1,140.92,127.365)">
                    <path d="M0,-5.64C1.215,-6.344 5.917,-4.282 7.135,-3.909C10.302,-2.94 13.065,-1.49 15.058,1.206C15.373,1.632 17.232,1.003 16.868,0.51C14.118,-3.212 9.909,-4.448 5.627,-5.621C3.41,-6.228 1.016,-7.272 -1.146,-6.02C-2.267,-5.371 -0.516,-5.341 0,-5.64" style="fill:rgb(48,50,61);fill-rule:nonzero;"/>
                </g>
                <g transform="matrix(1,0,0,1,146.726,121.415)">
                    <path d="M0,-15.665C-2.664,-10.722 -5.248,-5.664 -6.605,-0.188C-6.844,0.772 -4.862,0.55 -4.646,-0.324C-3.324,-5.653 -0.74,-10.613 1.853,-15.423C2.379,-16.399 0.416,-16.437 0,-15.665" style="fill:rgb(48,50,61);fill-rule:nonzero;"/>
                </g>
                <g transform="matrix(1,0,0,1,146.955,142.637)">
                    <path d="M0,-37.338C-7.331,-32.705 -12.958,-25.34 -18.859,-19.09C-23.264,-14.426 -26.892,-6.787 -25.631,-0.357C-25.471,0.464 -23.534,-0.028 -23.7,-0.875C-25.157,-8.311 -19.75,-15.975 -14.864,-21.149C-9.821,-26.488 -5.002,-32.607 1.254,-36.561C2.362,-37.261 0.734,-37.802 0,-37.338" style="fill:rgb(48,50,61);fill-rule:nonzero;"/>
                </g>
                <g transform="matrix(1,0,0,1,184.179,129.86)">
                    <path d="M0,-12.747C-5.885,-13.448 -11.634,-11.359 -16.862,-8.809C-20.659,-6.957 -26.64,-4.528 -28.461,-0.297C-28.892,0.701 -26.946,0.646 -26.623,-0.106C-25.217,-3.37 -21.476,-4.474 -18.666,-6.193C-13.407,-9.411 -6.96,-12.141 -0.682,-11.393C0.233,-11.284 1.306,-12.592 0,-12.747" style="fill:rgb(48,50,61);fill-rule:nonzero;"/>
                </g>
                <g transform="matrix(1,0,0,1,184.798,101.278)">
                    <path d="M0,15.534C2.249,9.99 5.285,4.853 8.173,-0.371C8.401,-0.786 6.553,-0.625 6.253,-0.083C3.366,5.141 0.329,10.278 -1.92,15.822C-2.122,16.32 -0.229,16.099 0,15.534" style="fill:rgb(48,50,61);fill-rule:nonzero;"/>
                </g>
                <g transform="matrix(1,0,0,1,148.535,93.2651)">
                    <path d="M0,12.565C10.111,0.763 29.501,0.64 42.344,7.905C42.863,8.199 44.501,7.41 44.155,7.214C30.319,-0.613 9.127,-0.068 -1.766,12.647C-2.221,13.178 -0.331,12.952 0,12.565" style="fill:rgb(48,50,61);fill-rule:nonzero;"/>
                </g>
                <g transform="matrix(1,0,0,1,191.93,107.475)">
                    <path d="M0,-5.624C8.439,-5.849 16.155,-4.096 22.911,1.146C23.609,1.688 25.286,0.703 24.396,0.012C17.248,-5.534 9.099,-7.312 0.162,-7.074C-0.95,-7.044 -1.313,-5.589 0,-5.624" style="fill:rgb(48,50,61);fill-rule:nonzero;"/>
                </g>
                <g transform="matrix(1,0,0,1,174.741,104.609)">
                    <path d="M0,-8.69C8.286,-11.438 18.102,-9.752 26.323,-7.4C29.718,-6.429 42.313,-2.419 39.884,2.869C39.686,3.301 41.551,3.11 41.8,2.568C44.735,-3.824 28.584,-8.102 24.808,-9.053C16.525,-11.139 7.49,-11.991 -0.707,-9.273C-2.007,-8.842 -0.791,-8.428 0,-8.69" style="fill:rgb(48,50,61);fill-rule:nonzero;"/>
                </g>
                <g transform="matrix(1,0,0,1,214.391,125.786)">
                    <path d="M0,-17.86C0.565,-17.197 1.247,-16.825 1.997,-16.376C3.759,-15.322 5.215,-13.403 6.404,-11.773C9.015,-8.194 8.991,-3.461 10.168,0.602C10.392,1.374 12.32,0.848 12.1,0.085C10.963,-3.841 10.604,-7.678 8.853,-11.454C8.176,-12.912 7.003,-14.138 5.919,-15.295C4.706,-16.588 2.897,-17.35 1.783,-18.657C1.291,-19.234 -0.559,-18.515 0,-17.86" style="fill:rgb(48,50,61);fill-rule:nonzero;"/>
                </g>
                <g transform="matrix(1,0,0,1,183.176,135.005)">
                    <path d="M0,-16.714C9.818,-15.197 18.082,-7.388 23.379,0.591C23.72,1.104 25.597,0.481 25.176,-0.152C19.748,-8.33 11.248,-16.175 1.191,-17.729C0.609,-17.818 -1.083,-16.881 0,-16.714" style="fill:rgb(48,50,61);fill-rule:nonzero;"/>
                </g>
                <g transform="matrix(1,0,0,1,244.339,103.398)">
                    <path d="M0,41.527C-0.26,36.548 -3.522,31.274 -5.53,26.771C-7.898,21.462 -10.546,16.706 -14.096,12.088C-16.697,8.705 -24.289,-1.16 -29.221,3.762C-30.027,4.567 -28.127,4.558 -27.666,4.098C-25.502,1.937 -18.93,9.052 -17.958,10.257C-15.17,13.717 -12.556,17.213 -10.367,21.092C-8.405,24.57 -6.93,28.41 -5.374,32.083C-4.001,35.325 -2.118,38.473 -1.932,42.045C-1.898,42.687 0.04,42.286 0,41.527" style="fill:rgb(48,50,61);fill-rule:nonzero;"/>
                </g>
                <g transform="matrix(1,0,0,1,224.876,145.942)">
                    <path d="M0,-19.17C0.935,-17.665 2.209,-16.555 3.539,-15.404C5.596,-13.623 7.113,-11.224 9.046,-9.297C10.646,-7.702 12.996,-5.629 13.943,-3.573C14.694,-1.945 15.58,-0.533 16.719,0.864C17.224,1.484 19.073,0.755 18.496,0.047C17.324,-1.392 16.435,-2.878 15.658,-4.563C14.896,-6.217 12.983,-7.769 11.766,-9.116C9.918,-11.161 8.083,-13.162 6.293,-15.261C4.849,-16.955 2.976,-18.057 1.777,-19.986C1.362,-20.654 -0.496,-19.969 0,-19.17" style="fill:rgb(48,50,61);fill-rule:nonzero;"/>
                </g>
                <g transform="matrix(1,0,0,1,241.68,145.008)">
                    <path d="M0,2.01C0.62,1.786 1.262,1.631 1.882,1.408C2.272,1.268 2.794,0.948 2.659,0.445C2.537,-0.011 1.896,-0.142 1.505,-0.001C0.884,0.221 0.242,0.377 -0.377,0.601C-0.768,0.742 -1.289,1.06 -1.154,1.564C-1.032,2.019 -0.391,2.152 0,2.01" style="fill:rgb(48,50,61);fill-rule:nonzero;"/>
                </g>
                <g transform="matrix(1,0,0,1,242.482,161.231)">
                    <path d="M0,-15.261C1.731,-10.037 0.819,-4.714 0.68,0.664C0.671,0.988 2.597,0.724 2.611,0.146C2.751,-5.232 3.663,-10.554 1.932,-15.779C1.775,-16.249 -0.14,-15.682 0,-15.261" style="fill:rgb(48,50,61);fill-rule:nonzero;"/>
                </g>
                <g transform="matrix(1,0,0,1,240.231,160.531)">
                    <path d="M0,-13.767C-0.299,-11.452 -0.076,-9.124 -0.424,-6.812C-0.785,-4.409 -1.61,-2.067 -2.054,0.327C-2.161,0.907 -0.238,0.568 -0.138,0.026C0.307,-2.377 0.975,-4.725 1.492,-7.113C1.985,-9.385 1.619,-11.768 1.916,-14.068C1.994,-14.674 0.068,-14.299 0,-13.767" style="fill:rgb(48,50,61);fill-rule:nonzero;"/>
                </g>
                <g transform="matrix(1,0,0,1,203.19,167.048)">
                    <path d="M0,-2.19C0.571,-0.826 1.767,-0.007 2.86,0.913C3.203,1.201 3.764,1.095 4.14,0.936C4.336,0.853 4.999,0.443 4.653,0.153C3.654,-0.687 2.454,-1.46 1.932,-2.708C1.646,-3.391 -0.257,-2.802 0,-2.19" style="fill:rgb(48,50,61);fill-rule:nonzero;"/>
                </g>
                <g transform="matrix(1,0,0,1,177.364,163.362)">
                    <path d="M0,11.807C5.991,9.997 11.803,7.886 17.756,6.002C20.804,5.037 25.901,3.233 27.714,0.526C28.299,-0.347 26.326,-0.358 25.871,0.321C25.081,1.5 21.33,3.107 20.461,3.611C18.189,4.932 14.965,5.44 12.46,6.299C8.183,7.765 3.993,9.204 -0.347,10.515C-1.52,10.869 -1.185,12.165 0,11.807" style="fill:rgb(48,50,61);fill-rule:nonzero;"/>
                </g>
                <g transform="matrix(1,0,0,1,174.4,181.827)">
                    <path d="M0,-6.261C0.074,-5.215 0.532,-4.275 0.974,-3.34C1.557,-2.105 1.795,-0.992 1.653,0.377C1.565,1.23 3.518,0.887 3.593,0.166C3.716,-1.026 3.626,-2.073 3.212,-3.203C2.768,-4.415 2.026,-5.452 1.932,-6.779C1.881,-7.491 -0.057,-7.065 0,-6.261" style="fill:rgb(48,50,61);fill-rule:nonzero;"/>
                </g>
                <g transform="matrix(1,0,0,1,205.31,123.935)">
                    <path d="M0,39.964C1.63,35.52 1.507,31.597 1.646,26.882C1.73,24.014 2.18,21.145 2.493,18.294C2.609,17.245 2.574,11.388 3.347,10.8C6.131,8.685 15.762,0.54 19.128,2.976C19.597,3.315 21.299,2.549 20.94,2.289C16.726,-0.761 7.915,6.392 4.738,8.581C0.87,11.246 1.253,11.58 0.76,16.868C0.432,20.383 -0.089,23.873 -0.285,27.4C-0.538,31.915 -0.326,35.948 -1.912,40.276C-2.077,40.725 -0.195,40.497 0,39.964" style="fill:rgb(48,50,61);fill-rule:nonzero;"/>
                </g>
                <g transform="matrix(1,0,0,1,151.271,174.661)">
                    <path d="M0,-17.964C1.216,-16.373 3.193,-15.329 4.672,-13.936C6.584,-12.133 8.639,-10.49 10.716,-8.884C15.098,-5.496 19.693,-3.012 23.807,0.787C24.279,1.224 26.085,0.494 25.606,0.052C21.781,-3.481 18.189,-5.816 13.818,-8.648C11.62,-10.071 9.608,-11.902 7.636,-13.616C5.953,-15.079 3.15,-16.931 1.8,-18.699C1.426,-19.188 -0.437,-18.535 0,-17.964" style="fill:rgb(48,50,61);fill-rule:nonzero;"/>
                </g>
                <g transform="matrix(1,0,0,1,175.867,173.84)">
                    <path d="M0,1.418C0.871,1.284 1.692,0.978 2.504,0.646C2.595,0.608 3.376,0.289 3.076,0.084C2.77,-0.126 2.131,0.063 1.83,0.186C1.35,0.382 0.87,0.604 0.354,0.683C0.03,0.732 -0.614,0.879 -0.777,1.217C-0.933,1.544 -0.098,1.433 0,1.418" style="fill:rgb(48,50,61);fill-rule:nonzero;"/>
                </g>
                <g transform="matrix(1,0,0,1,236.432,182.607)">
                    <path d="M0,40.987C4.034,36.373 9.49,30.127 9.119,23.495C8.689,15.8 3.455,12.448 -3.422,10.703C-12.676,8.354 -21.966,6.163 -31.354,4.419C-40.989,2.63 -50.748,1.648 -60.33,-0.453C-60.961,-0.592 -62.613,0.375 -61.506,0.617C-46.086,4 -30.373,5.541 -14.988,9.216C-7.413,11.026 2.669,11.654 6.356,19.549C9.939,27.22 2.883,35.571 -1.803,40.93C-2.369,41.579 -0.418,41.465 0,40.987" style="fill:rgb(48,50,61);fill-rule:nonzero;"/>
                </g>
                <g transform="matrix(1,0,0,1,121.986,215.386)">
                    <path d="M0,0.989C1.843,-1.914 8.752,-3.403 11.66,-4.324C15.26,-5.463 18.971,-6.24 22.647,-7.084C31.224,-9.055 39.674,-10.149 48.474,-10.048C63.097,-9.881 78.137,-7.162 91.565,-1.28C94.357,-0.057 106.499,5.838 98.557,8.69C95.814,9.675 93.014,10.168 90.126,10.348C83.333,10.774 76.535,11.131 69.734,11.394C58.147,11.843 46.637,10.948 35.056,10.224C29.524,9.879 24.017,8.798 18.619,8.269C16.038,8.016 13.462,7.694 10.893,7.34C9.05,7.086 0.473,6.698 -0.176,4.566C-0.282,4.217 -0.726,4.101 -1.049,4.143C-1.908,4.256 -0.063,1.264 -0.127,1.383C0.387,0.444 -1.575,0.471 -1.967,1.187C-2.572,2.292 -4.263,5.256 -1.815,5.516C-0.594,5.646 -2.805,4.965 -1.633,5.814C-0.643,6.531 0.571,6.837 1.734,7.15C6.765,8.506 14.026,8.307 18.087,9.776C23.594,11.767 30.614,11.357 36.375,11.707C40.011,11.927 43.65,12.108 47.289,12.276C48.446,12.329 52.116,12.275 52.436,12.448C53.835,13.203 56.025,12.956 57.538,12.983C61.203,13.05 64.872,12.922 68.534,12.795C75.552,12.552 82.566,12.167 89.575,11.735C93.721,11.479 100.841,11.013 103.523,7.424C107.406,2.226 87.071,-4.796 85.021,-5.475C70.466,-10.29 54.76,-12.214 39.445,-11.205C31.086,-10.656 22.854,-8.505 14.736,-6.578C10.006,-5.455 0.922,-3.557 -1.84,0.794C-2.403,1.681 -0.433,1.671 0,0.989" style="fill:rgb(48,50,61);fill-rule:nonzero;"/>
                </g>
                <g transform="matrix(1,0,0,1,182.981,117.682)">
                    <path d="M0,-0.915C-0.153,-0.619 -0.256,-0.301 -0.353,0.017C-0.496,0.482 0.235,0.616 0.523,0.59C0.987,0.548 1.455,0.307 1.597,-0.157C1.659,-0.36 1.736,-0.554 1.834,-0.743C2.053,-1.166 1.645,-1.453 1.263,-1.489C0.814,-1.531 0.221,-1.341 0,-0.915" style="fill:rgb(48,50,61);fill-rule:nonzero;"/>
                </g>
                <g transform="matrix(1,0,0,1,183.227,117.524)">
                    <path d="M0,-0.53C-0.134,-0.303 -0.191,-0.071 -0.239,0.187C-0.325,0.646 1.578,0.324 1.667,-0.151C1.715,-0.408 1.772,-0.64 1.906,-0.868C2.088,-1.176 1.207,-1.074 1.132,-1.061C0.781,-0.998 0.199,-0.869 0,-0.53" style="fill:rgb(48,50,61);fill-rule:nonzero;"/>
                </g>
                <g transform="matrix(1,0,0,1,183.329,117.766)">
                    <path d="M0,-0.906C-0.124,-0.637 -0.173,-0.371 -0.183,-0.076C-0.207,0.661 1.724,0.24 1.743,-0.343C1.753,-0.637 1.802,-0.904 1.926,-1.173C2.107,-1.567 1.264,-1.552 1.106,-1.53C0.704,-1.474 0.184,-1.304 0,-0.906" style="fill:rgb(48,50,61);fill-rule:nonzero;"/>
                </g>
                <g transform="matrix(1,0,0,1,183.366,117.702)">
                    <path d="M0,-0.944C-0.128,-0.654 -0.18,-0.374 -0.229,-0.063C-0.37,0.812 1.593,0.508 1.716,-0.256C1.744,-0.437 1.749,-0.642 1.824,-0.81C2.244,-1.756 0.302,-1.624 0,-0.944" style="fill:rgb(48,50,61);fill-rule:nonzero;"/>
                </g>
                <g transform="matrix(1,0,0,1,183.376,117.605)">
                    <path d="M0,-0.642C-0.125,-0.312 -0.177,0.014 -0.19,0.365C-0.206,0.774 1.717,0.489 1.741,-0.152C1.752,-0.429 1.818,-0.687 1.916,-0.945C2.095,-1.416 0.207,-1.189 0,-0.642" style="fill:rgb(48,50,61);fill-rule:nonzero;"/>
                </g>
                <g transform="matrix(1,0,0,1,182.676,117.818)">
                    <path d="M0,-1.234C-0.166,-0.954 -0.295,-0.661 -0.422,-0.362C-0.833,0.602 1.107,0.481 1.404,-0.216C1.532,-0.515 1.661,-0.809 1.826,-1.088C2.069,-1.499 1.619,-1.77 1.265,-1.799C0.808,-1.836 0.244,-1.647 0,-1.234" style="fill:rgb(48,50,61);fill-rule:nonzero;"/>
                </g>
                <g transform="matrix(1,0,0,1,156.196,127.689)">
                    <path d="M0,0.768C0.391,0.768 2.197,0 1.259,0C0.868,0 -0.938,0.768 0,0.768" style="fill:rgb(48,50,61);fill-rule:nonzero;"/>
                </g>
                <g transform="matrix(1,0,0,1,155.852,127.964)">
                    <path d="M0,0.397C0.018,0.437 0.035,0.478 0.053,0.518C0.275,1.027 2.155,0.391 1.984,0C1.967,-0.04 1.949,-0.081 1.932,-0.121C1.709,-0.63 -0.171,0.006 0,0.397" style="fill:rgb(48,50,61);fill-rule:nonzero;"/>
                </g>
                <g transform="matrix(1,0,0,1,155.859,128.091)">
                    <path d="M0,0.315C0.02,0.382 0.04,0.45 0.06,0.517C0.261,1.191 2.188,0.658 1.992,0L1.932,-0.203C1.732,-0.876 -0.195,-0.345 0,0.315" style="fill:rgb(48,50,61);fill-rule:nonzero;"/>
                </g>
                <g transform="matrix(0.204225,0.978924,0.978924,-0.204225,124.141,143.123)">
                    <path d="M-1.446,-1.538C-1.446,-1.538 0.786,-2.255 1.942,-1.538" style="fill:none;stroke:rgb(48,50,61);stroke-width:1px;"/>
                </g>
                <g transform="matrix(1,0,0,1,192.079,100.492)">
                    <path d="M0,0.878C0.104,0.868 0.208,0.864 0.312,0.868C0.734,0.865 1.312,0.71 1.595,0.371C1.889,0.02 1.344,-0.082 1.103,-0.08C0.835,-0.079 0.573,-0.06 0.309,-0.026C-0.03,0.015 -0.677,0.192 -0.806,0.57C-0.938,0.96 -0.172,0.899 0,0.878" style="fill:rgb(48,50,61);fill-rule:nonzero;"/>
                </g>
                <g transform="matrix(1,0,0,1,191.509,100.428)">
                    <path d="M0,0.786L0.618,0.786C1.082,0.786 1.588,0.668 1.984,0.42C2.286,0.23 2.249,0 1.872,0L1.254,0C0.79,0 0.284,0.118 -0.112,0.366C-0.414,0.556 -0.377,0.786 0,0.786" style="fill:rgb(48,50,61);fill-rule:nonzero;"/>
                </g>
                <g transform="matrix(1,0,0,1,191.563,100.252)">
                    <path d="M0,1.035C0.307,1.072 0.607,1.071 0.915,1.092C1.342,1.121 1.939,0.932 2.188,0.561C2.452,0.169 1.966,0 1.661,-0.021C1.504,-0.032 1.335,-0.009 1.18,-0.028C0.705,-0.086 0.181,0.007 -0.187,0.338C-0.468,0.592 -0.422,0.984 0,1.035" style="fill:rgb(48,50,61);fill-rule:nonzero;"/>
                </g>
                <g transform="matrix(1,0,0,1,191.842,100.263)">
                    <path d="M0,1.092C0.232,1.071 0.465,1.072 0.698,1.071C1.135,1.071 1.709,0.928 1.974,0.545C2.232,0.169 1.756,-0.023 1.45,-0.022C1.054,-0.022 0.659,-0.011 0.264,0.025C-0.097,0.056 -0.732,0.269 -0.834,0.68C-0.941,1.115 -0.245,1.114 0,1.092" style="fill:rgb(48,50,61);fill-rule:nonzero;"/>
                </g>
                <g transform="matrix(1,0,0,1,191.718,100.493)">
                    <path d="M0,0.799C1.118,0.735 2.229,0.626 3.331,0.882C3.76,0.981 4.297,0.818 4.682,0.635C4.837,0.562 5.35,0.231 4.917,0.131C3.57,-0.182 2.202,-0.06 0.836,0.018C0.416,0.042 -0.14,0.184 -0.457,0.48C-0.784,0.785 -0.169,0.809 0,0.799" style="fill:rgb(48,50,61);fill-rule:nonzero;"/>
                </g>
                <g transform="matrix(1,0,0,1,191.923,100.249)">
                    <path d="M0,1.323C1.287,1.182 2.692,1.198 3.978,1.357C4.864,1.467 5.976,0.209 4.671,0.047C3.232,-0.132 1.641,-0.144 0.199,0.014C-0.206,0.059 -0.804,0.286 -0.875,0.757C-0.946,1.224 -0.344,1.361 0,1.323" style="fill:rgb(48,50,61);fill-rule:nonzero;"/>
                </g>
                <g transform="matrix(1,0,0,1,191.9,100.193)">
                    <path d="M0,1.352C1.727,1.141 3.39,0.929 5.1,1.365C5.688,1.515 7.374,0.621 6.291,0.345C4.29,-0.165 2.296,0.076 0.275,0.324C-0.644,0.436 -1.342,1.517 0,1.352" style="fill:rgb(48,50,61);fill-rule:nonzero;"/>
                </g>
                <g transform="matrix(1,0,0,1,217.828,108.162)">
                    <path d="M0,-1.995C-1.151,-1.975 -2.18,-1.346 -2.921,-0.495C-3.228,-0.143 -2.661,0.004 -2.416,0.003C-1.967,0 -1.439,-0.158 -1.136,-0.506C-1.037,-0.62 -0.934,-0.718 -0.82,-0.816C-0.747,-0.877 -0.672,-0.936 -0.594,-0.991C-0.448,-1.1 -0.411,-0.995 -0.775,-0.988C-0.346,-0.995 0.227,-1.137 0.505,-1.497C0.783,-1.857 0.27,-1.999 0,-1.995" style="fill:rgb(48,50,61);fill-rule:nonzero;"/>
                </g>
                <g transform="matrix(1,0,0,1,217.119,108.573)">
                    <path d="M0,-2.483C-0.933,-2.1 -1.901,-1.619 -2.361,-0.662C-2.573,-0.22 -2.171,0.133 -1.762,0.188C-1.288,0.252 -0.722,0.035 -0.506,-0.413C-0.265,-0.916 0.396,-1.096 0.869,-1.291C1.242,-1.443 1.597,-1.935 1.316,-2.32C1.015,-2.735 0.406,-2.65 0,-2.483" style="fill:rgb(48,50,61);fill-rule:nonzero;"/>
                </g>
                <g transform="matrix(1,0,0,1,217.981,108.676)">
                    <path d="M0,-2.519C-1.217,-2.474 -2.56,-1.778 -3.227,-0.75C-3.49,-0.345 -3.001,-0.057 -2.661,-0.028C-2.184,0.013 -1.662,-0.187 -1.396,-0.596C-1.144,-0.985 -0.604,-1.217 -0.205,-1.232C0.193,-1.247 0.801,-1.52 0.871,-1.967C0.948,-2.448 0.333,-2.532 0,-2.519" style="fill:rgb(48,50,61);fill-rule:nonzero;"/>
                </g>
                <g transform="matrix(1,0,0,1,208.413,125.986)">
                    <path d="M0,10.898C0.344,8.169 4.333,6.509 6.398,5.102C9.644,2.89 14.221,-0.751 18.061,2.73C18.563,3.185 20.374,2.446 19.855,1.976C16.563,-1.009 12.998,-0.244 9.271,1.908C6.414,3.557 3.664,5.475 0.97,7.375C-0.471,8.391 -1.698,9.296 -1.932,11.143C-2.027,11.907 -0.082,11.548 0,10.898" style="fill:rgb(48,50,61);fill-rule:nonzero;"/>
                </g>
                <g transform="matrix(1,0,0,1,242.014,145.867)">
                    <path d="M0,-0.759C0.07,-0.352 -0.538,-0.221 -0.828,-0.119L0.52,0.018C0.186,-1.127 -0.233,-2.195 -0.883,-3.199C-1.2,-3.69 -2.916,-3.2 -2.746,-2.563C-2.374,-1.162 -1.698,0.128 -1.922,1.615C-2.04,2.403 -0.29,1.946 -0.057,1.513C0.014,1.367 0.096,1.229 0.188,1.097C-0.014,1.213 0.017,1.297 0.278,1.35C0.624,1.543 0.896,1.88 0.98,2.262C1.129,2.931 3.066,2.438 2.912,1.744C2.704,0.81 1.647,0.126 0.729,0.065C-0.388,-0.009 -1.327,0.492 -1.855,1.473C-1.233,1.439 -0.612,1.406 0.01,1.371C0.25,-0.226 -0.413,-1.573 -0.814,-3.08C-1.436,-2.868 -2.057,-2.656 -2.678,-2.444C-2.079,-1.518 -1.719,-0.516 -1.412,0.536C-1.267,1.035 -0.372,0.781 -0.064,0.674C0.759,0.385 2.117,-0.203 1.932,-1.277C1.818,-1.937 -0.123,-1.471 0,-0.759" style="fill:rgb(48,50,61);fill-rule:nonzero;"/>
                </g>
                <g transform="matrix(1,0,0,1,241.82,142.405)">
                    <path d="M0,1.509C-0.156,1.791 -0.193,2.137 -0.396,2.391C0.201,2.464 0.797,2.535 1.393,2.608C1.757,1.32 1.909,0.071 1.812,-1.264C1.747,-2.152 -0.188,-1.686 -0.12,-0.747C-0.033,0.445 -0.242,1.61 -0.564,2.752C-0.821,3.661 0.898,3.38 1.224,2.968C1.528,2.582 1.616,2.154 1.848,1.735C2.086,1.305 1.64,0.963 1.257,0.915C0.772,0.856 0.24,1.074 0,1.509" style="fill:rgb(48,50,61);fill-rule:nonzero;"/>
                </g>
                <g transform="matrix(1,0,0,1,175.664,164.118)">
                    <path d="M0,11.854C5.658,10.338 11.303,8.965 16.711,6.634C20.94,4.812 25.536,3.249 29.165,0.345C29.976,-0.305 28.043,-0.128 27.657,0.182C20.176,6.169 8.81,8.691 -0.2,11.106C-1.339,11.411 -1.139,12.159 0,11.854" style="fill:rgb(48,50,61);fill-rule:nonzero;"/>
                </g>
                <g transform="matrix(1,0,0,1,178.428,169.022)">
                    <path d="M0,6.003C2.259,5.123 4.74,4.7 7.059,3.997C9.703,3.196 12.18,1.504 14.9,1.041C15.855,0.878 16.462,-0.354 15.136,-0.129C12.784,0.272 10.788,1.413 8.593,2.299C5.556,3.525 2.25,3.924 -0.79,5.108C-2.042,5.596 -0.908,6.357 0,6.003" style="fill:rgb(48,50,61);fill-rule:nonzero;"/>
                </g>
                <g transform="matrix(1,0,0,1,176.41,173.656)">
                    <path d="M0,1.995C-0.154,1.035 -1.01,0.41 -1.293,-0.495C-1.5,-1.157 -3.424,-0.616 -3.225,0.022C-2.942,0.929 -2.084,1.562 -1.932,2.513C-1.83,3.152 0.112,2.696 0,1.995" style="fill:rgb(48,50,61);fill-rule:nonzero;"/>
                </g>
                <g transform="matrix(1,0,0,1,120.708,217.069)">
                    <path d="M0,-0.936C-0.143,-0.601 -0.212,-0.253 -0.27,0.104C-0.361,0.668 1.56,0.317 1.644,-0.205C1.702,-0.562 1.771,-0.911 1.914,-1.245C2.067,-1.604 1.252,-1.525 1.122,-1.503C0.78,-1.449 0.156,-1.301 0,-0.936" style="fill:rgb(48,50,61);fill-rule:nonzero;"/>
                </g>
                <g transform="matrix(1,0,0,1,120.624,217.175)">
                    <path d="M0,-0.917C-0.099,-0.566 -0.178,-0.216 -0.193,0.148C-0.226,0.921 1.71,0.515 1.735,-0.104C1.75,-0.469 1.83,-0.818 1.929,-1.169C2.117,-1.838 0.179,-1.553 0,-0.917" style="fill:rgb(48,50,61);fill-rule:nonzero;"/>
                </g>
                <g transform="matrix(1,0,0,1,120.787,216.766)">
                    <path d="M0,-0.826C-0.021,-0.509 -0.075,-0.223 -0.191,0.072C-0.605,1.135 1.337,1.17 1.666,0.328C1.826,-0.085 1.933,-0.513 1.962,-0.955C2.029,-1.996 0.06,-1.744 0,-0.826" style="fill:rgb(48,50,61);fill-rule:nonzero;"/>
                </g>
                <g transform="matrix(1,0,0,1,120.616,217.02)">
                    <path d="M0,-0.201C-0.064,0.027 -0.112,0.249 -0.205,0.467C-0.362,0.838 0.455,0.775 0.595,0.753C0.95,0.697 1.553,0.545 1.712,0.17C1.805,-0.048 1.853,-0.271 1.917,-0.498C2.069,-1.039 0.156,-0.757 0,-0.201" style="fill:rgb(48,50,61);fill-rule:nonzero;"/>
                </g>
                <g transform="matrix(1,0,0,1,121.696,215.618)">
                    <path d="M0,-0.498C-0.181,-0.299 -0.353,-0.091 -0.539,0.106C-0.846,0.43 -0.272,0.488 -0.068,0.476C0.353,0.451 0.918,0.319 1.221,0C1.407,-0.195 1.579,-0.403 1.76,-0.603C2.057,-0.931 1.502,-0.986 1.289,-0.974C0.876,-0.949 0.292,-0.82 0,-0.498" style="fill:rgb(48,50,61);fill-rule:nonzero;"/>
                </g>
                <g transform="matrix(1,0,0,1,122.062,216.085)">
                    <path d="M0,-1.195C-0.521,-0.845 -0.86,-0.384 -1.231,0.114C-1.42,0.367 -0.516,0.256 -0.472,0.248C-0.116,0.18 0.434,0.064 0.668,-0.25C0.904,-0.565 1.129,-0.974 1.463,-1.199C1.748,-1.39 1.75,-1.562 1.366,-1.561C0.93,-1.56 0.366,-1.442 0,-1.195" style="fill:rgb(48,50,61);fill-rule:nonzero;"/>
                </g>
                <g transform="matrix(1,0,0,1,122.255,216.243)">
                    <path d="M0,-1.743C-0.571,-1.371 -0.977,-0.854 -1.372,-0.308C-1.654,0.082 -1.133,0.338 -0.822,0.358C-0.346,0.388 0.164,0.195 0.447,-0.195C0.674,-0.51 0.902,-0.832 1.231,-1.046C1.524,-1.236 1.782,-1.668 1.375,-1.898C0.963,-2.131 0.372,-1.985 0,-1.743" style="fill:rgb(48,50,61);fill-rule:nonzero;"/>
                </g>
                <g transform="matrix(1,0,0,1,122.134,216.786)">
                    <path d="M0,-2.195C-0.756,-1.74 -1.099,-0.972 -1.554,-0.257C-1.805,0.136 -1.342,0.352 -1.015,0.368C-0.576,0.387 0.006,0.217 0.256,-0.175C0.535,-0.614 0.757,-1.273 1.218,-1.55C1.503,-1.722 1.778,-2.146 1.372,-2.361C0.953,-2.582 0.378,-2.423 0,-2.195" style="fill:rgb(48,50,61);fill-rule:nonzero;"/>
                </g>
                <g transform="matrix(1,0,0,1,121.357,216.965)">
                    <path d="M0,-1.736C-0.328,-1.342 -0.477,-0.9 -0.695,-0.446C-1.148,0.494 0.801,0.394 1.133,-0.296C1.281,-0.604 1.369,-0.998 1.591,-1.263C1.863,-1.59 1.803,-1.972 1.366,-2.101C0.934,-2.23 0.298,-2.093 0,-1.736" style="fill:rgb(48,50,61);fill-rule:nonzero;"/>
                </g>
                <g transform="matrix(1,0,0,1,120.709,217.415)">
                    <path d="M0,-0.83C-0.215,-0.473 -0.348,-0.078 -0.526,0.298C-0.691,0.647 0.148,0.564 0.263,0.544C0.61,0.487 1.215,0.344 1.386,-0.017C1.564,-0.392 1.697,-0.787 1.912,-1.144C2.112,-1.477 1.21,-1.405 1.123,-1.391C0.741,-1.328 0.215,-1.186 0,-0.83" style="fill:rgb(48,50,61);fill-rule:nonzero;"/>
                </g>
                <g transform="matrix(-0.98695,0.161027,0.161027,0.98695,32.472,182.55)">
                    <path d="M-5.257,-0.426L0.035,-0.426" style="fill:rgb(241,233,15);fill-rule:nonzero;"/>
                </g>
                <g transform="matrix(1,0,0,1,28.2354,206.852)">
                    <path d="M0,-22.299L-2.79,-19.147L-4.903,-14.151L-4.645,-6.953L-2.232,-2.361L1.951,1.264L8.345,3.199L13.969,2.613L18.872,-0.934L22.292,-6.388L23.629,-12.349L22.461,-14.869L18.433,-12.699L13.732,-11.176L8.961,-12.665C8.961,-12.665 7.471,-14.31 7.406,-14.626C7.341,-14.943 8.149,-20.065 8.149,-20.065L9.144,-23.032L10.438,-25.498L7.732,-25.303L4.782,-24.717L0,-22.299Z" style="fill:rgb(238,55,44);fill-rule:nonzero;"/>
                </g>
                <g transform="matrix(1,0,0,1,85.0698,241.372)">
                    <path d="M0,-18.141L-1.286,-17.259L-3.493,-16.007C-3.493,-16.007 -5.411,-13.327 -5.495,-13.134C-5.577,-12.942 -6.368,-9.28 -6.368,-9.28L-5.539,-5.193L-3.093,-1.988L0.738,0L5.592,-0.46L9.74,-2.714L11.577,-6.445L11.998,-9.49L11.701,-12.365L9.796,-15.568L8.134,-17.033L6.17,-14.162L4.857,-12.587C4.857,-12.587 3.545,-12.43 3.387,-12.325C3.23,-12.22 2.127,-12.745 2.127,-12.745L0.948,-15.568L0.614,-17.104L0,-18.141Z" style="fill:rgb(245,247,251);fill-rule:nonzero;"/>
                </g>
                <g transform="matrix(1,0,0,1,266.756,232.992)">
                    <path d="M0,-17.515L-1.932,-16.174L-3.262,-13.971L-4.681,-11.715L-4.681,-8.301L-3.787,-5.151L-2.275,-2.353L0.638,-0.425L4.51,0.343L8.806,-0.833L10.86,-2.947L13.088,-6.039L13.601,-8.586L12.746,-12.998L10.574,-16.041L7.805,-17.858L7.764,-15.652L6.45,-14.495L4.875,-13.562L2.251,-14.338L0.729,-16.334L0,-17.515Z" style="fill:rgb(238,55,44);fill-rule:nonzero;"/>
                </g>
                <g transform="matrix(1,0,0,1,291.047,232.246)">
                    <path d="M0,-18.232L-1.743,-15.519L-2.824,-12.636L-3.309,-8.939L-2.457,-5.823L-1.653,-2.725C-1.653,-2.725 0.289,0.288 0.392,0.401C0.495,0.515 3.724,2.945 3.724,2.945L7.906,4.994C7.906,4.994 11.98,5.046 12.139,4.994C12.212,4.968 13.699,5.173 14.928,4.789C16.331,4.348 17.493,3.313 17.493,3.313L21.305,0.576L23.906,-3.473L25.146,-9.01L24.15,-14.206C24.15,-14.206 21.151,-18.779 21.073,-18.857C21.021,-18.909 19.199,-20.53 18.016,-21.581C17.443,-22.089 15.853,-22.679 15.853,-22.679L13.09,-23.185L10.919,-23.405L9.307,-23.047L10.511,-19.42L11.193,-15.693L10.668,-14.485L10.143,-13.75L9.514,-12.595L8.148,-11.888L5.313,-12.491L3.16,-14.589L0.798,-17.112L0,-18.232Z" style="fill:rgb(64,92,170);fill-rule:nonzero;"/>
                </g>
                <g transform="matrix(1,0,0,1,35.8564,195.159)">
                    <path d="M0,-2.569C0,-2.569 -0.584,-2.798 -1.157,-2.48C-1.573,-2.25 -2.097,-1.923 -2.665,-1.482C-3.293,-0.995 -3.976,-0.369 -4.628,0.42C-5.707,1.725 -6.703,3.474 -7.239,5.78C-7.604,7.354 -7.754,9.186 -7.568,11.313L-9.854,9.332L-11.437,6.822L-12.87,4.189L-13.334,1.673C-13.334,1.673 -12.947,-1.942 -12.87,-2.104C-12.794,-2.266 -11.566,-5.347 -11.566,-5.347L-9.395,-8.823L-5.941,-11.578L-3.082,-13.219L0.318,-13.882L2.816,-13.805L6.323,-11.578L1.34,-5.472L0,-2.569Z" style="fill:rgb(201,32,38);fill-rule:nonzero;"/>
                </g>
                <g transform="matrix(1,0,0,1,87.8848,235.647)">
                    <path d="M0,-6.393C0,-6.393 -6.188,1.275 -0.568,5.106L0.146,6.022L-2.838,6.022L-5.471,4.081L-7.136,2.486L-8.644,-0.185L-9.464,-3.041L-9.183,-6.687L-8.007,-8.115L-6.308,-10.282L-4.101,-11.534L-2.375,-12.415L-1.693,-8.923L-0.885,-7.304L0,-6.393Z" style="fill:rgb(216,216,216);fill-rule:nonzero;"/>
                </g>
                <g transform="matrix(1,0,0,1,272.203,229.617)">
                    <path d="M0,-10.526C0,-10.526 3.07,-0.807 0.582,3.17C0.548,3.225 0.175,4.55 1.485,3.592C2.088,3.153 2.803,2.581 3.504,2.001C5.078,0.701 6.583,-0.643 6.583,-0.643L7.872,-3.812L7.985,-7.513L6.826,-10.526L3.977,-13.598L2.357,-15.076L2.316,-12.277L1.003,-11.121L0,-10.526Z" style="fill:rgb(239,103,113);fill-rule:nonzero;"/>
                </g>
                <g transform="matrix(1,0,0,1,299.816,226.585)">
                    <path d="M0,-7.465C0.744,-6.935 9.557,1.699 6.656,10.279L8.933,9.763L12.056,6.752L15.137,2.187L16.376,-4.2L15.381,-8.545L12.304,-13.196L9.426,-15.52L8.191,-16.435L4.143,-17.744L2.972,-17.744L0.537,-17.387L0.933,-14.711L1.925,-11.451L1.246,-8.906L0,-7.465Z" style="fill:rgb(113,139,198);fill-rule:nonzero;"/>
                </g>
                <g transform="matrix(1,0,0,1,142.361,179.677)">
                    <path d="M0,-4.804C0,-4.804 -0.88,-6.141 -2.943,-8.159C-8.738,-13.828 -22.893,-24.725 -46.643,-25.492C-50.929,-25.63 -54.554,-24.846 -59.473,-24.236C-66.7,-23.336 -73.784,-18.335 -80.768,-12.999C-82.636,-11.573 -84.73,-10.163 -86.826,-8.868C-88.473,-7.85 -93.107,-4.484 -95.083,-2.202C-99.778,3.219 -107.479,12.57 -105.947,13.893C-97.92,20.826 -90.3,8.691 -83.357,6.363C-69.029,1.558 -53.863,-7.314 -44.703,-2.093C-43.596,-1.462 -42.578,-0.626 -41.659,0.447" style="fill:none;stroke:rgb(48,50,61);stroke-width:1px;"/>
                </g>
                <g transform="matrix(1,0,0,1,192.607,187.426)">
                    <path d="M0,-2.742C0,-2.742 -0.925,-0.794 0.29,-3.353C0.958,-4.759 1.85,-6.425 3.009,-8.211C11.002,-20.517 31.743,-38.548 79.825,-16.846C79.825,-16.846 86.758,-13.315 92.768,-7.302C98.092,-1.973 102.555,5.728 102.886,8.381C102.886,8.381 111.155,28.58 109.004,30.489C108.197,31.206 108.577,31.755 106.651,32.672C100.063,35.806 92.847,9.683 81.708,5.947C76.732,4.279 75.861,2.838 70.408,1.74C62.284,0.102 54.228,-0.452 48.021,1.418C44.95,2.343 41.999,4.198 40.049,6.475" style="fill:none;stroke:rgb(48,50,61);stroke-width:1px;"/>
                </g>
                <g transform="matrix(1,0,0,1,103.682,141.926)">
                    <path d="M0,12.924C0,12.924 4.488,4.091 16.331,0.558C17.205,0.298 17.506,0.197 18.462,0" style="fill:none;stroke:rgb(48,50,61);stroke-width:1px;"/>
                </g>
                <g transform="matrix(1,0,0,1,93.2886,240.27)">
                    <path d="M0,-64.127C0,-64.127 -0.13,-64.07 -0.75,-62.844C-3.196,-58.012 -9.164,-44.093 -8.407,-24.529C-7.459,0 -0.482,-16.189 0.264,-17.038C0.264,-17.038 2.806,-28.111 6.145,-30.292" style="fill:none;stroke:rgb(48,50,61);stroke-width:1px;"/>
                </g>
                <g transform="matrix(1,0,0,1,240.629,214.69)">
                    <path d="M0,-17.356C0,-17.356 3.793,-17.908 8.258,-16.535C14.054,-14.752 21.812,-9.987 26.862,2.511C26.862,2.511 30.156,6.937 33.45,3.315C33.45,3.315 35.466,-6.865 26.693,-24.293" style="fill:none;stroke:rgb(48,50,61);stroke-width:1px;"/>
                </g>
                <g transform="matrix(-0.705386,-0.708823,-0.708823,0.705386,251.626,147.87)">
                    <path d="M-16.323,7.674C-16.323,7.674 0.436,4.018 2.296,7.674" style="fill:none;stroke:rgb(48,50,61);stroke-width:1px;"/>
                </g>
                <g transform="matrix(1,0,0,1,50.875,201.377)">
                    <path d="M0,-9.705C2.04,-2.571 -1.979,5.373 -8.971,7.899C-16.279,10.54 -24.483,6.365 -27.08,-0.861C-29.212,-6.796 -26.98,-13.496 -22.151,-17.22C-21.061,-18.059 -19.84,-18.748 -18.506,-19.242C-16.5,-19.985 -14.329,-20.245 -12.202,-20.023C-12.202,-20.023 -10.458,-19.322 -9.401,-18.688L-8.696,-17.796" style="fill:none;stroke:rgb(48,50,61);stroke-width:1px;"/>
                </g>
                <g transform="matrix(1,0,0,1,300.258,236.985)">
                    <path d="M0,-28.057C7.729,-28.964 15.35,-22.647 15.901,-14.889C16.448,-7.196 10.146,0.366 2.323,0.637C-5.453,0.907 -12.521,-5.897 -12.52,-13.678C-12.518,-17.148 -11.239,-20.603 -8.986,-23.243" style="fill:none;stroke:rgb(48,50,61);stroke-width:1px;"/>
                </g>
                <g transform="matrix(1,0,0,1,93.0093,240.834)">
                    <path d="M0,-16.625C3.338,-14.464 5.057,-10.172 4.076,-6.311C3.116,-2.531 -0.26,0.481 -4.175,0.805C-8.201,1.137 -12.19,-1.332 -13.665,-5.096C-15.199,-9.007 -13.919,-13.706 -10.544,-16.229C-9.609,-16.928 -8.544,-17.451 -7.419,-17.762" style="fill:none;stroke:rgb(48,50,61);stroke-width:1px;"/>
                </g>
                <g transform="matrix(1,0,0,1,274.56,234.028)">
                    <path d="M0,-18.894C3.72,-17.339 6.146,-13.313 5.772,-9.3C5.408,-5.392 2.522,-1.862 -1.324,-0.938C-5.226,0 -9.522,-1.8 -11.555,-5.265C-13.646,-8.827 -13.166,-13.596 -10.338,-16.622C-9.558,-17.456 -8.626,-18.151 -7.602,-18.656" style="fill:none;stroke:rgb(48,50,61);stroke-width:1px;"/>
                </g>
                <g transform="matrix(0.861557,0.50766,0.50766,-0.861557,209.503,163.043)">
                    <path d="M-1.669,-9.657C-1.669,-9.657 12.55,3.487 37.495,-9.657" style="fill:none;stroke:rgb(48,50,61);stroke-width:1px;"/>
                </g>
                <g transform="matrix(1,0,0,1,235.957,187.416)">
                    <path d="M0,-26.877C0,-26.877 9.406,-25.85 10.916,-4.092C10.994,-2.971 11.277,-1.233 11.312,0" style="fill:none;stroke:rgb(48,50,61);stroke-width:1px;"/>
                </g>
                <g transform="matrix(-0.0771649,0.997018,0.997018,0.0771649,274.02,175.872)">
                    <path d="M-9.014,-14.281C-9.014,-14.281 -2.963,-7.839 13.678,-14.281" style="fill:none;stroke:rgb(48,50,61);stroke-width:1px;"/>
                </g>
                <g transform="matrix(-0.427712,0.903915,0.903915,0.427712,283.769,190.505)">
                    <path d="M-11.884,-9.383C-11.884,-9.383 -5.85,-4.253 6.82,-9.383" style="fill:none;stroke:rgb(48,50,61);stroke-width:1px;"/>
                </g>
                <g transform="matrix(-0.626636,0.779312,0.779312,0.626636,292.933,205.519)">
                    <path d="M-10.572,-6.236C-10.572,-6.236 -5.323,-0.087 3.93,-6.236" style="fill:none;stroke:rgb(48,50,61);stroke-width:1px;"/>
                </g>
                <g transform="matrix(0.753497,-0.657452,-0.657452,-0.753497,264.077,209.722)">
                    <path d="M-0.062,3.521C-0.062,3.521 0.688,-3.042 12.317,3.521" style="fill:none;stroke:rgb(48,50,61);stroke-width:1px;"/>
                </g>
                <g transform="matrix(1,0,0,1,253.142,189.355)">
                    <path d="M0,10.563C0,10.563 1.731,10.082 2.879,9.495C5.339,8.235 9.418,5.396 10.75,0" style="fill:none;stroke:rgb(48,50,61);stroke-width:1px;"/>
                </g>
                <g transform="matrix(1,0,0,1,248.528,197.59)">
                    <path d="M0,-10.174C-0.219,-9.262 -0.304,-8.994 -0.529,-8.236C-2.984,0 -5.757,-0.457 -5.757,-0.457" style="fill:none;stroke:rgb(48,50,61);stroke-width:1px;"/>
                </g>
                <g transform="matrix(0.178506,-0.983939,-0.983939,-0.178506,253.779,160.975)">
                    <path d="M-2.29,4.781C-2.29,4.781 -0.754,1.567 5.357,4.781" style="fill:none;stroke:rgb(48,50,61);stroke-width:1px;"/>
                </g>
                <g transform="matrix(1,0,0,1,46.6709,188.407)">
                    <path d="M0,-10.124C0.034,-7.96 0.432,-5.716 1.586,-3.853C3.008,-1.562 5.435,-0.347 8.054,0" style="fill:none;stroke:rgb(48,50,61);stroke-width:1px;"/>
                </g>
                <g transform="matrix(0.397714,0.917509,0.917509,-0.397714,67.9881,170.364)">
                    <path d="M-4.832,-7.361C0.247,-9.097 6.077,-8.376 11.214,-7.361" style="fill:none;stroke:rgb(48,50,61);stroke-width:1px;"/>
                </g>
                <g transform="matrix(0.106596,0.994302,0.994302,-0.106596,87.6395,166.48)">
                    <path d="M-10.401,-10.224C-3.317,-12.35 4.346,-11.516 11.523,-10.224" style="fill:none;stroke:rgb(48,50,61);stroke-width:1px;"/>
                </g>
                <g transform="matrix(-0.228386,0.973571,0.973571,0.228386,106.948,170.365)">
                    <path d="M-13.834,-10.964C-13.834,-10.964 -4.416,-13.568 8.69,-10.964" style="fill:none;stroke:rgb(48,50,61);stroke-width:1px;"/>
                </g>
                <g transform="matrix(-0.673889,0.738833,0.738833,0.673889,118.002,175.581)">
                    <path d="M-14.614,-6.451C-14.614,-6.451 -10.492,-7.689 2.847,-6.45" style="fill:none;stroke:rgb(48,50,61);stroke-width:1px;"/>
                </g>
                <g transform="matrix(0.979799,0.199984,0.199984,-0.979799,85.5102,212.396)">
                    <path d="M-0.464,-1.163C-0.464,-1.163 6.914,-5.534 10.817,-1.163" style="fill:none;stroke:rgb(48,50,61);stroke-width:1px;"/>
                </g>
                <g transform="matrix(0.938055,0.346487,0.346487,-0.938055,87.2681,197.209)">
                    <path d="M-0.702,-2.193C-0.702,-2.193 4.347,-6.85 11.625,-2.193" style="fill:none;stroke:rgb(48,50,61);stroke-width:1px;"/>
                </g>
                <g transform="matrix(0.88133,0.472502,0.472502,-0.88133,90.555,185.36)">
                    <path d="M-0.668,-2.052C1.662,-2.794 5.801,-3.928 7.845,-2.052" style="fill:none;stroke:rgb(48,50,61);stroke-width:1px;"/>
                </g>
                <g transform="matrix(0.34475,0.938695,0.938695,-0.34475,117.655,148.343)">
                    <path d="M-3.751,-5.373C-3.751,-5.373 4.69,-6.002 7.698,-5.373" style="fill:none;stroke:rgb(48,50,61);stroke-width:1px;"/>
                </g>
            </g>
        </g>
    </g>
    <g transform="matrix(5.22517,0,0,5.05769,-324.238,-461.538)">
        <rect x="62.053" y="91.255" width="68.897" height="71.179" style="fill:none;"/>
    </g>
</svg>
