<svg xmlns="http://www.w3.org/2000/svg" width="3000" height="3000" viewBox="0 0 3000 3000">
  <defs>
    <style>
      .cls-1, .cls-2 {
        fill: #31323d;
      }

      .cls-1 {
        fill-opacity: 0.2;
      }

      .cls-10, .cls-11, .cls-12, .cls-13, .cls-14, .cls-2, .cls-3, .cls-4, .cls-5, .cls-6, .cls-7, .cls-8, .cls-9 {
        fill-rule: evenodd;
      }

      .cls-3 {
        fill: #888b8e;
      }

      .cls-4 {
        fill: #c0c7ce;
      }

      .cls-5 {
        fill: #a5a9ad;
      }

      .cls-6 {
        fill: #fcda86;
      }

      .cls-7 {
        fill: #ebcc80;
      }

      .cls-8 {
        fill: #fde9b7;
      }

      .cls-9 {
        fill: #aa2f1f;
      }

      .cls-10 {
        fill: #cd321e;
      }

      .cls-11 {
        fill: #cececf;
      }

      .cls-12 {
        fill: #8b8d9c;
      }

      .cls-13 {
        fill: #746763;
      }

      .cls-14 {
        fill: #f7bc56;
      }
    </style>
  </defs>
  <ellipse class="cls-1" cx="1709.5" cy="2584.5" rx="722.5" ry="262.5"/>
  <path id="Ellipse_4_copy_3" data-name="Ellipse 4 copy 3" class="cls-2" d="M2301,2620l-1.66,63.08a18.807,18.807,0,0,1-.28,10.81L2299,2696l-0.77.04c-9.83,22.13-59.47,38.96-119.23,38.96-66.83,0-121-21.04-121-47,0-.62.04-1.23,0.1-1.85l-1.1-.15-15-64-612,8-30-2-7.01,57.8c0,0.07.01,0.13,0.01,0.2a19.087,19.087,0,0,1-.6,4.69L1392,2694l-0.75-.01c-9.77,22.15-59.44,39.01-119.25,39.01-66.83,0-121-21.04-121-47,0-.49.03-0.99,0.07-1.48L1143,2620H2301Z"/>
  <path class="cls-3" d="M1272,2599c66.83,0,112.9,21.04,112.9,47s-46.07,47-112.9,47-112.9-21.04-112.9-47S1205.17,2599,1272,2599Z"/>
  <path id="Ellipse_4_copy" data-name="Ellipse 4 copy" class="cls-3" d="M2179,2601c66.83,0,112.9,21.04,112.9,47s-46.07,47-112.9,47-112.9-21.04-112.9-47S2112.17,2601,2179,2601Z"/>
  <path id="Color_Fill_7" data-name="Color Fill 7" class="cls-2" d="M1090,2664l1264,7-4.01-104.38L1084,2572.75Z"/>
  <path id="Color_Fill_8" data-name="Color Fill 8" class="cls-2" d="M1092,2594.1l-35.1-3-4-41.1,184.05-337.6,964.6,3,178.55,304.5v69.25Z"/>
  <path id="Color_Fill_6" data-name="Color Fill 6" class="cls-4" d="M1075,2577l-2-32,174-318,946,4,170,299v41Z"/>
  <path id="Color_Fill_6_copy" data-name="Color Fill 6 copy" class="cls-5" d="M2363,2530v41l-1288,6-1.69-27.01,1288.56-21.97Z"/>
  <path id="Color_Fill_3" data-name="Color Fill 3" class="cls-2" d="M1636.46,2516.02c-148.15,1.94-401.46-65.93-401.46-166.1a57.517,57.517,0,0,1,4.21-22.08S1286.63,2185,1645.94,2185s392.81,161.89,395.19,170.83-0.32,18.81-6.37,32.61C2029.97,2399.36,1967.36,2511.7,1636.46,2516.02Z"/>
  <path id="Color_Fill_3_copy" data-name="Color Fill 3 copy" class="cls-6" d="M1637,2497.76c-140.6,1.83-381-55.76-381-150.76,0-12.29,4-18,4-18s45-134,386-134,374.69,155.64,377,162-1.16,17.69-8,28C2008.74,2394.43,1951.03,2493.66,1637,2497.76Z"/>
  <path id="Color_Fill_3_copy_2" data-name="Color Fill 3 copy 2" class="cls-7" d="M2015,2385c-6.26,9.43-63.97,108.66-378,112.76-140.6,1.83-381-55.76-381-150.76,0-12.29,4-18,4-18s10.97-32.66,63.12-65.74C1245.3,2386.4,1345.71,2470,1645,2470c286.93,0,362.72-104.56,374.3-123.93,2.4,6.08,3.37,10.02,3.7,10.93C2025.31,2363.36,2021.84,2374.69,2015,2385Z"/>
  <path id="Color_Fill_4" data-name="Color Fill 4" class="cls-8" d="M1651,2448s-80,3-120-5-60-18-87-25-53-7-73-22-26-37-35-48-18-16-9-41,59-42,78-54,58-31,91-34,70-10,90-11,70-7,93-3,54,12,90,18,128,44,143,48,54,29,60,37,3,25-6,39-27,43-51,50-70,22-94,34-74,12-101,12S1651,2448,1651,2448Z"/>
  <path class="cls-9" d="M1527.26,2442.23c-37.53-7.86-57.11-17.45-83.26-24.23-3.56-.92-7.1-1.72-10.62-2.45,4.26-12.65,31.91-22.41,65.41-22.41,36.45,0,66,11.55,66,25.8C1564.79,2429.21,1549.46,2438.08,1527.26,2442.23Z"/>
  <path id="Ellipse_3_copy" data-name="Ellipse 3 copy" class="cls-9" d="M1800.64,2367.42c36.44,0,65.98,11.56,65.98,25.82s-29.54,25.83-65.98,25.83-65.98-11.56-65.98-25.83S1764.2,2367.42,1800.64,2367.42Z"/>
  <path id="Ellipse_3_copy_2" data-name="Ellipse 3 copy 2" class="cls-9" d="M1644.39,2328.06c36.45,0,66,11.56,66,25.82s-29.55,25.82-66,25.82-66-11.56-66-25.82S1607.94,2328.06,1644.39,2328.06Z"/>
  <path id="Ellipse_3_copy_3" data-name="Ellipse 3 copy 3" class="cls-9" d="M1433.11,2333.16c36.44,0,65.98,11.56,65.98,25.83s-29.54,25.82-65.98,25.82-65.98-11.56-65.98-25.82S1396.67,2333.16,1433.11,2333.16Z"/>
  <path id="Ellipse_3_copy_4" data-name="Ellipse 3 copy 4" class="cls-9" d="M1568.05,2281.52c36.44,0,65.98,11.56,65.98,25.82s-29.54,25.82-65.98,25.82-65.99-11.56-65.99-25.82S1531.6,2281.52,1568.05,2281.52Z"/>
  <path id="Ellipse_3_copy_10" data-name="Ellipse 3 copy 10" class="cls-9" d="M1412.98,2266.94c36.44,0,65.98,11.56,65.98,25.82s-29.54,25.83-65.98,25.83-65.98-11.57-65.98-25.83S1376.54,2266.94,1412.98,2266.94Z"/>
  <path id="Ellipse_3_copy_5" data-name="Ellipse 3 copy 5" class="cls-9" d="M1702.4,2254.68c36.44,0,65.99,11.56,65.99,25.81s-29.55,25.81-65.99,25.81-66-11.55-66-25.81S1665.95,2254.68,1702.4,2254.68Z"/>
  <path id="Ellipse_3_copy_6" data-name="Ellipse 3 copy 6" class="cls-9" d="M1834.37,2308.84c36.44,0,65.99,11.56,65.99,25.82s-29.55,25.83-65.99,25.83-65.98-11.56-65.98-25.83S1797.93,2308.84,1834.37,2308.84Z"/>
  <path id="Ellipse_3_copy_7" data-name="Ellipse 3 copy 7" class="cls-9" d="M1578.11,2213c36.44,0,65.98,11.56,65.98,25.81s-29.54,25.81-65.98,25.81-65.98-11.56-65.98-25.81S1541.67,2213,1578.11,2213Z"/>
  <path id="Ellipse_3_copy_8" data-name="Ellipse 3 copy 8" class="cls-9" d="M1861,2250.26c36.45,0,66,11.56,66,25.82s-29.55,25.83-66,25.83-65.99-11.56-65.99-25.83S1824.56,2250.26,1861,2250.26Z"/>
  <path id="Ellipse_3_copy_9" data-name="Ellipse 3 copy 9" class="cls-9" d="M1668.66,2393.35c36.45,0,66,11.56,66,25.83s-29.55,25.82-66,25.82-65.99-11.56-65.99-25.82S1632.21,2393.35,1668.66,2393.35Z"/>
  <path id="Ellipse_3_copy_21" data-name="Ellipse 3 copy 21" class="cls-10" d="M1520.26,2442.23c-37.53-7.86-50.11-14.45-76.26-21.23-3.56-.92-7.1-2.72-10.62-3.45,4.26-12.65,31.91-26.41,65.41-26.41,36.45,0,66,11.55,66,25.8C1564.79,2427.21,1542.46,2438.08,1520.26,2442.23Z"/>
  <path id="Ellipse_3_copy_11" data-name="Ellipse 3 copy 11" class="cls-10" d="M1800.64,2363.42c36.44,0,65.98,11.56,65.98,25.82s-29.54,25.83-65.98,25.83-65.98-11.56-65.98-25.83S1764.2,2363.42,1800.64,2363.42Z"/>
  <path id="Ellipse_3_copy_12" data-name="Ellipse 3 copy 12" class="cls-10" d="M1644.39,2324.06c36.45,0,66,11.56,66,25.82s-29.55,25.82-66,25.82-66-11.56-66-25.82S1607.94,2324.06,1644.39,2324.06Z"/>
  <path id="Ellipse_3_copy_13" data-name="Ellipse 3 copy 13" class="cls-10" d="M1433.11,2329.16c36.44,0,65.98,11.56,65.98,25.83s-29.54,25.82-65.98,25.82-65.98-11.56-65.98-25.82S1396.67,2329.16,1433.11,2329.16Z"/>
  <path id="Ellipse_3_copy_14" data-name="Ellipse 3 copy 14" class="cls-10" d="M1568.05,2277.52c36.44,0,65.98,11.56,65.98,25.82s-29.54,25.82-65.98,25.82-65.99-11.56-65.99-25.82S1531.6,2277.52,1568.05,2277.52Z"/>
  <path id="Ellipse_3_copy_15" data-name="Ellipse 3 copy 15" class="cls-10" d="M1412.98,2262.94c36.44,0,65.98,11.56,65.98,25.82s-29.54,25.83-65.98,25.83-65.98-11.57-65.98-25.83S1376.54,2262.94,1412.98,2262.94Z"/>
  <path id="Ellipse_3_copy_16" data-name="Ellipse 3 copy 16" class="cls-10" d="M1702.4,2250.68c36.44,0,65.99,11.56,65.99,25.81s-29.55,25.81-65.99,25.81-66-11.55-66-25.81S1665.95,2250.68,1702.4,2250.68Z"/>
  <path id="Ellipse_3_copy_17" data-name="Ellipse 3 copy 17" class="cls-10" d="M1834.37,2304.84c36.44,0,65.99,11.56,65.99,25.82s-29.55,25.83-65.99,25.83-65.98-11.56-65.98-25.83S1797.93,2304.84,1834.37,2304.84Z"/>
  <path id="Ellipse_3_copy_18" data-name="Ellipse 3 copy 18" class="cls-10" d="M1578.11,2209c36.44,0,65.98,11.56,65.98,25.81s-29.54,25.81-65.98,25.81-65.98-11.56-65.98-25.81S1541.67,2209,1578.11,2209Z"/>
  <path id="Ellipse_3_copy_19" data-name="Ellipse 3 copy 19" class="cls-10" d="M1861,2246.26c36.45,0,66,11.56,66,25.82s-29.55,25.83-66,25.83-65.99-11.56-65.99-25.83S1824.56,2246.26,1861,2246.26Z"/>
  <path id="Ellipse_3_copy_20" data-name="Ellipse 3 copy 20" class="cls-10" d="M1668.66,2389.35c36.45,0,66,11.56,66,25.83s-29.55,25.82-66,25.82-65.99-11.56-65.99-25.82S1632.21,2389.35,1668.66,2389.35Z"/>
  <path id="Color_Fill_14" data-name="Color Fill 14" class="cls-5" d="M2270,2446l-16,6-75,1-3-20,2-8Z"/>
  <path id="Color_Fill_15" data-name="Color Fill 15" class="cls-5" d="M2046,2303s23.99,81.98,30,94,54.75,48.25,57,46-31-51-31-51l-32-103Z"/>
  <path id="Color_Fill_16" data-name="Color Fill 16" class="cls-5" d="M1153,2507l-27-14-19,7-18,42,340-4,13-8-95-9-118-3Z"/>
  <path id="Color_Fill_12" data-name="Color Fill 12" class="cls-2" d="M2271,2446h-86l-6-22,12-3,11-10h38l10,12h8Zm-21,65-75-160,10,1,76,159h-11Zm-186-196c-63.25,0-81-27-81-27l-1-41s10.56-22,68-22,91,16.02,91,33v35S2112.08,2315,2064,2315Z"/>
  <path id="Color_Fill_13" data-name="Color Fill 13" class="cls-11" d="M2271,2446h-86l-6-22,12-3,11-10h38l10,12h8Zm-21,65-75-160,10,1,76,159h-11Zm-204-271,1-41s2.61-16.32,18-16,29,21,29,21l59,148,11,56-16,29-20-28-19-81-38-85S2056.52,2250.52,2046,2240Z"/>
  <path id="Color_Fill_13_copy" data-name="Color Fill 13 copy" class="cls-12" d="M2137,2405a176.256,176.256,0,0,0,10,28l0.4,3.17L2128,2409l-19-81-38-85s-14.48,7.52-25-3l1-41s1.58-9.88,9.54-14.12c-0.24,7.37-.99,13.93-0.54,16.12,1.15,5.66,8.61,1.1,12,2s56.72,125.32,60,143S2132.23,2387.68,2137,2405Z"/>
  <path id="Color_Fill_11" data-name="Color Fill 11" class="cls-13" d="M2271,2446h-86l-6-22,12-3,11-10h38l10,12h8Zm-21,65-75-160,10,1,76,159h-11Z"/>
  <path id="Color_Fill_10" data-name="Color Fill 10" class="cls-2" d="M2271,2446h-86l-6-22,12-3,11-10h38l10,12h8Z"/>
  <path id="Color_Fill_9" data-name="Color Fill 9" class="cls-2" d="M1102,2534v-8l22-42,155,2,3,7-12,24,175,1,1,9-4,5-83,1v-5l-5,4-86,1,1-12-6,12Z"/>
  <path id="Color_Fill_2" data-name="Color Fill 2" class="cls-14" d="M1837,2324c-30.2-.62-82.39.7-100-16s-45.53-196.7-46-208,20.73-54.82,71-56,106.74,45.48,91,99-10.01,61.44-3,83,25.67,30.09,41,35S1920.53,2325.71,1837,2324Z"/>
  <path id="Color_Fill_1" data-name="Color Fill 1" class="cls-2" d="M1675,2051l1,19s6.81,75.84,13,106,16.25,108.31,32,124c17.75,17.68,31.08,30.36,62.93,30.36,26.85,0,72.5-2.97,89-4s34.4-12.93,37.64-37c2.41-17.87-6.12-32.61-14.57-37.36-13.36-7.51-29.47-8.03-34-17s-4.1-19.51-2-41,3.6-38.78,8-55-1-14-1-14-8.32,1.93-11,12-10.91,36.27-12,57-2.64,30.94,0,40,8.4,22.17,21,24,28.51,8.97,29.57,19.36,7.71,29.28-16.64,35c0,0-2.96-44.54-29-40.43-4.21.66-2.35,3.45,0,4a19.836,19.836,0,0,1,13,11,42.288,42.288,0,0,1,3,25.43s-20.25,2.15-31,2c0,0-.48-20.38-5-28s-10.76-10.36-21-10.43-4.81,3.62,1,5,15.74,3.25,13,34.43c0,0-34.59,2.69-44,2S1737.2,2306.65,1726,2274s-20.8-83.62-24-104-18.2-90.54-20-101S1676.96,2050.02,1675,2051Z"/>
</svg>
