<?xml version="1.0" encoding="UTF-8" standalone="no"?>
<!DOCTYPE svg PUBLIC "-//W3C//DTD SVG 1.1//EN" "http://www.w3.org/Graphics/SVG/1.1/DTD/svg11.dtd">
<svg width="100%" height="100%" viewBox="0 0 3000 3000" version="1.1" xmlns="http://www.w3.org/2000/svg" xmlns:xlink="http://www.w3.org/1999/xlink" xml:space="preserve" xmlns:serif="http://www.serif.com/" style="fill-rule:evenodd;clip-rule:evenodd;stroke-miterlimit:10;">
    <g id="Layer25" transform="matrix(1.39995,0,0,1.39995,-599.943,-567.152)">
        <g transform="matrix(1,0,0,1,1820.13,2025.46)">
            <path d="M0,-10.124L9.5,4.797L15.5,-8.319L32.2,-10.124L31.068,-7.851L38.533,2.25L45.031,-8.042L59.615,-8.042L67.365,2.25L70.197,2.25L75.115,-8.042L89.969,-6.45L97.281,4.542L99.2,2.25L104.366,-6.107L114.533,-6.042L123.787,4.823L126.027,4.823L130.2,-5.457L142.533,-5.141L148.998,3.57L155.403,6.542L161.2,-6.042L178.533,-5.042L181.371,4.542L187.094,6.542L189.867,-5.042L168.2,-10.124L93.605,-12.791L23.867,-16.666L-4.467,-16.666L0,-10.124Z" style="fill:rgb(123,94,43);fill-rule:nonzero;"/>
        </g>
        <g transform="matrix(1,0,0,1,1878.06,2021.42)">
            <path d="M0,-107.43C0,-107.43 68.522,-81.711 69.269,-81.397C70.015,-81.082 124.597,-51.477 124.597,-51.477L137.167,-40.749L138.825,-22.415L133.493,0L0,-3L-58.761,-4.77L-74.738,-5.25L-42.426,-37.236L-28.395,-76.492L-12.895,-94.415L0,-107.43Z" style="fill:rgb(143,204,136);fill-rule:nonzero;"/>
        </g>
        <g transform="matrix(1,0,0,1,941.767,2019.4)">
            <path d="M0,-0.971L0.55,0.032L6.9,11.613L16.01,1.029L32.2,1.029L38.567,11.613L47.7,-0.088L60.392,0.029L65.901,10.881L78.733,-1.971L87.897,-0.971L94.647,9.613L103.397,-0.971L116.813,-1.971L122.9,9.613L132.313,-1.971L146.897,-2.971L151.062,7.321L154.647,7.321L162.397,-2.971L176.429,-3.15L181.95,7.321L191.929,-2.702L201.38,-3.743L207.567,7.321L218.263,-4.145L210.9,-12.584L4.233,-5.067L0,-0.971Z" style="fill:rgb(123,94,43);fill-rule:nonzero;"/>
        </g>
        <g transform="matrix(1,0,0,1,1077.62,2019.43)">
            <path d="M0,-106.433L-27.48,-97.372C-27.48,-97.372 -78.181,-77.69 -79.287,-77.201C-80.392,-76.711 -118.102,-57.005 -118.102,-57.005L-134.66,-43.426L-141.435,-29.765L-139.776,-11.627L-136.062,0L87.996,-5.765L61.094,-26.523C61.094,-26.523 21.621,-78.903 20.288,-80.167C18.955,-81.432 8.288,-104.67 6.955,-105.051C5.621,-105.432 0,-106.433 0,-106.433" style="fill:rgb(143,204,136);fill-rule:nonzero;"/>
        </g>
        <g transform="matrix(1,0,0,1,1075.77,2015.06)">
            <path d="M0,-102.056L-20.356,-94.556C-20.356,-94.556 3.365,-23.221 50.601,-0.378L92.652,0L67.377,-19.201L25.136,-58.105L6.715,-94.556L0,-102.056Z" style="fill:rgb(78,135,73);fill-rule:nonzero;"/>
        </g>
        <g transform="matrix(1,0,0,1,1875.88,2017.42)">
            <path d="M0,-103.43L29.46,-94.418C29.46,-94.418 -1.103,-16.327 -32.715,0L-72.557,-1.25L-40.244,-34.973L-12.411,-77.985L0,-103.43" style="fill:rgb(78,135,73);fill-rule:nonzero;"/>
        </g>
        <g transform="matrix(1,0,0,1,1080.06,2009.18)">
            <path d="M0,-134.95L-2.283,-100.563L11.041,-66.946L29.928,-42.464L45.889,-27.11L70.84,-7.112L95.065,7.52L91.871,-69.913L38.139,-105.433L13.609,-139.465L3.609,-142.47L0,-134.95Z" style="fill:rgb(60,105,178);fill-rule:nonzero;"/>
        </g>
        <g transform="matrix(1,0,0,1,1277.61,2036)">
            <path d="M0,-51.66L-0.319,-49.506L-7.657,0L373.096,0L365.303,-37.304L281.716,-29.183L206.419,-28.194L128.059,-33.663L69.203,-40.116L11.442,-49.47L4.576,-51.66L0,-51.66Z" style="fill:rgb(60,105,178);fill-rule:nonzero;"/>
        </g>
        <g transform="matrix(1,0,0,1,1889.48,2033.12)">
            <path d="M0,-170.339L-32.07,-128.509L-73.287,-94.502L-109.822,-76.705L-140.372,-59.45L-140.372,-12.701L-137.794,0L-114.635,-5.409L-88.722,-17.151L-65.697,-35.487L-49.685,-53.667L-32.655,-80.35L-18.245,-108.025L-6.425,-139.721L0,-170.339Z" style="fill:rgb(60,105,178);fill-rule:nonzero;"/>
        </g>
        <g transform="matrix(1,0,0,1,1885.95,2031.29)">
            <path d="M0,-166.677C0,-166.677 -18.021,-133.861 -25.952,-127.786L-36.288,-120.283C-36.288,-120.283 -24.952,-110.439 -39.452,-85.363C-53.952,-60.286 -102.167,-8.87 -133.31,-5.578L-134.262,1.831L-111.103,-3.578L-74.942,-23.481L-49.94,-46.947L-36.288,-66.627L-16.127,-103.478L-3.952,-131.286L0,-149.317L3.532,-168.508L0,-166.677" style="fill:rgb(120,159,211);fill-rule:nonzero;"/>
        </g>
        <g transform="matrix(1,0,0,1,1647.01,1988.45)">
            <path d="M0,47.547C-1.509,48.547 -379.579,47.547 -379.579,47.547L-372.982,9.177L-371.278,-1L-339.009,1.547C-339.009,1.547 -352.009,24.34 -322.509,31.943C-293.009,39.547 -59.509,48.443 -40.509,28.245C-21.509,8.047 -31.009,14.459 -31.009,14.459L-4.101,10.243L3.692,47.547L0,47.547Z" style="fill:rgb(23,75,145);fill-rule:nonzero;"/>
        </g>
        <g transform="matrix(1,0,0,1,1077.77,2016.7)">
            <path d="M0,-145.104L-0.156,-103.698L5.918,-87.81L14.793,-72.561L35.698,-46.628L70.226,-19.068L97.348,0L96.351,-24.182C96.351,-24.182 45.726,-43.233 35.726,-74.465C35.726,-74.465 24.348,-99.28 23.839,-113.772C23.33,-128.264 23.839,-113.772 23.839,-113.772L13.375,-125.129L1.726,-141.198L0,-145.104" style="fill:rgb(23,75,145);fill-rule:nonzero;"/>
        </g>
        <g transform="matrix(1,0,0,1,1124,1996.46)">
            <path d="M0,-432.465L-5.362,-422.43L-14.977,-384.277L-24.52,-341.103L-39.5,-259.431L-47.23,-202.248L-53.327,-176.223L-54.952,-152.798L-46.075,-126.248L-19.269,-89.234L11.38,-62.016L44.421,-41.039L44.421,-68.964L53.163,-74.979L92.129,-84.185L136.324,-87.352L158.182,-81.887L163.054,-77.471L163.054,-52.328L153.605,-12.125L163.054,-9.012C163.054,-9.012 190.621,-4.474 188.208,-4.789C185.794,-5.105 241.466,1.696 241.245,1.672C241.024,1.647 321.6,8.898 319.607,8.766C317.615,8.635 402.26,12.327 402.26,12.327L455.741,9.268L518.908,2.231L512.7,-59.371L509.876,-66.701L509.876,-71.372L523.009,-77.471L551.017,-81.625L573.683,-79.576L586.197,-77.471L606.999,-74.979L626.689,-69.154L634.372,-64.54L634.372,-54.233L628.537,-43.684L625.513,-24.586L647.23,-33.6L663.097,-41.039L688,-55.465L708.982,-69.154L733.414,-91.857L747.457,-109.097L760,-127.465L771.248,-152.764L774.871,-170.137L775,-187.465L757.549,-241.727L741.164,-282.505L718.928,-332.761L715,-341.465L712,-352.465L704.923,-366.806L697.01,-385.262L683.141,-427.8L674.9,-444.792L622.912,-414.125L497.162,-386.125L376,-365.458C376,-365.458 242.331,-383.458 239.664,-384.125C236.998,-384.792 52.579,-426.126 51.122,-428.126C49.665,-430.126 8.332,-444.792 8.332,-444.792L1.946,-432.465L0,-432.465Z" style="fill:rgb(241,233,15);fill-rule:nonzero;"/>
        </g>
        <g transform="matrix(1,0,0,1,1807.14,1904.32)">
            <path d="M0,-335.651L-16.709,-325.119L-25.179,-319.78L-36.917,-316.82C-36.917,-316.82 10.359,-228.816 16.359,-188.816C16.359,-188.816 68.109,-29.193 61.234,-14.005C54.359,1.184 78.812,-39.707 78.812,-39.707C78.812,-39.707 90.359,-60.193 91.859,-79.255C93.359,-98.316 91.859,-95.316 91.859,-95.316L46.859,-219.816L30.859,-253.816L27.805,-262.368L16.359,-290.316L9.859,-306.816L5.859,-319.316L0.28,-336.835" style="fill:rgb(242,234,117);fill-rule:nonzero;"/>
        </g>
        <g transform="matrix(1,0,0,1,1307.56,1842.13)">
            <path d="M0,148.73C0,148.73 -2.03,-0.105 -6.109,1.541L-6.366,2.243L-6.493,2.903L-6.669,4.053L-6.899,5.339L-7.102,6.684L-7.305,9.095L-7.59,10.639L-7.609,10.745L-7.787,13.538L-8.548,22.245L-9.335,35.292L-9.868,49.736L-9.868,61.895L-10.452,74.942L-10.774,86.213L-12.405,98.346L-14.917,105.378C-14.917,105.378 -17.988,107.891 -18.014,107.993C-18.039,108.094 -21.034,108.729 -21.034,108.729L-23.596,111.167L-25.449,120.66L-27.124,129.417L-28.316,137.693L-28.519,144.647C-28.519,144.647 -25.27,145.433 -25.169,145.433C-25.068,145.433 -7.761,147.667 -7.761,147.769C-7.761,147.871 0,148.835 0,148.835" style="fill:rgb(200,182,46);fill-rule:nonzero;"/>
        </g>
        <g transform="matrix(1,0,0,1,1621.16,2007.33)">
            <path d="M0,-157.639C0,-157.639 2.504,-10.666 -3.162,-5.333C-8.828,0 18.66,-9.704 18.66,-9.704L21.746,-8.638L18.66,-22.994L12.714,-54.904L7.313,-59.387L5.031,-64.583L6.051,-72.191L4.563,-104.667L3.171,-124.332L2.514,-137.481L2.505,-137.667L1.829,-142.368L1.956,-144.62L1.319,-151.122L0.724,-155.244L0,-157.639Z" style="fill:rgb(200,182,46);fill-rule:nonzero;"/>
        </g>
        <g transform="matrix(1,0,0,1,1130,1633.44)">
            <path d="M0,-102.444L-7,-96.444L-6,-72.446L13.001,-62.446L132.334,-29.78L224.334,-7.113L319.667,7.157L389.668,3.554L482.585,-8.399L569.001,-26.448L651.962,-48.908L677.141,-64.779L681.235,-82.085L675.666,-102.444L671.267,-109.601L651.962,-92.307L632.549,-81.771L593.668,-65.115L505.001,-41.781L439.153,-28.327L359.001,-21.115C359.001,-21.115 314.333,-22.45 311.667,-21.116C309,-19.782 242.334,-28.449 242.334,-28.449L134.334,-53.782L55.667,-80.449L10.655,-97.601L1,-103.782L0,-102.444Z" style="fill:rgb(26,166,74);fill-rule:nonzero;"/>
        </g>
        <g transform="matrix(1,0,0,1,1154.45,1926.01)">
            <path d="M0,-16.87C0,-16.87 7.249,-28.042 42.88,-31.348C59.142,-32.855 82.181,-37.288 111.886,-31.71C121.438,-29.916 131.292,-24.987 142.337,-21.334C142.692,-21.217 142.337,6.23 142.337,6.23L139.522,16.218L131.046,20.418L134.212,-7.02L122.643,-13.719C122.643,-13.719 99.085,-17.88 75.598,-15.841C59.817,-14.471 44.322,-5.949 35.07,-7.81C34.415,-7.942 15.902,-1.913 15.508,-1.776C15.114,-1.64 13.968,13.251 13.968,13.251L7.105,13.251L2.389,3.278L-1.166,-8.784L0,-16.87Z" style="fill:rgb(26,166,74);fill-rule:nonzero;"/>
        </g>
        <g transform="matrix(1,0,0,1,1768.51,1928.32)">
            <path d="M0,-10.88C-0.646,-10.88 -61.484,-31.623 -77.856,-31.377C-94.229,-31.131 -135.018,-29.913 -141.804,-14.33L-142.781,-6.75L-142.266,16.59L-138.651,20.743L-136.069,18.807L-134.782,13.386C-134.782,13.386 -135.296,1.125 -135.683,1.447C-136.069,1.769 -135.295,-2.49 -135.295,-2.49L-131.807,-5.473L-118.773,-11.139L-98.38,-14.33L-82.116,-13.462L-63.199,-10.145L-15.864,1.338L-10.135,7.998L-13.189,13.325L-8.93,16.59L-4.536,14.419L-4.291,6.827L0,-10.88Z" style="fill:rgb(26,166,74);fill-rule:nonzero;"/>
        </g>
        <g transform="matrix(1,0,0,1,1168.42,1938.13)">
            <path d="M0,-37.542C0,-37.542 -9.986,-34.147 -13.588,-29.469C-17.189,-24.79 -12.585,-5.884 -12.585,-5.884L-6.067,0L0.175,-1.064L-2.046,-9.544L4.236,-15.759L10.613,-16.813C10.613,-16.813 3.555,-22.317 0,-37.542" style="fill:rgb(24,120,60);fill-rule:nonzero;"/>
        </g>
        <g transform="matrix(1,0,0,1,1289.88,1945.66)">
            <path d="M0,-25.241L3.194,-21.424L6.209,-16.774L6.209,-8.773L3.104,-1.978L-2.823,0L-4.604,-5.232L-3.896,-14.328L-2.823,-20.283L0,-25.241Z" style="fill:rgb(24,120,60);fill-rule:nonzero;"/>
        </g>
        <g transform="matrix(-0.314459,0.949271,0.949271,0.314459,1770.51,1918.83)">
            <path d="M-0.528,-17.513L12.367,-17.513L13.237,-2.161L-1.195,-0.695L-0.528,-17.513Z" style="fill:rgb(101,189,80);fill-rule:nonzero;"/>
        </g>
        <g transform="matrix(1,0,0,1,1757.43,1944.91)">
            <path d="M0,-10.326L5.28,-8.17C5.28,-8.17 7.444,-5.68 7.329,-5.474C7.214,-5.269 8.116,-2.944 7.591,-2.582C7.065,-2.22 6.041,-1.106 5.847,-1.18C5.652,-1.253 3.209,-0.525 2.677,-0.263C2.145,0 0,-0.975 0,-0.975L0.521,-4.525L0,-10.326Z" style="fill:rgb(24,120,60);fill-rule:nonzero;"/>
        </g>
        <g transform="matrix(1,0,0,1,1627.3,1942.8)">
            <path d="M0,-29.977L0,-10.872L-1.103,-0.045L2.56,6.263L6.429,-1.094L12.526,-21.31L6.58,-36.24C6.58,-36.24 3.546,-35.658 0,-29.977" style="fill:rgb(24,120,60);fill-rule:nonzero;"/>
        </g>
        <g transform="matrix(1,0,0,1,1289.05,1926.36)">
            <path d="M0,-24.462C0,-24.462 -0.665,-12.65 -1.994,-10.858L5.399,0L6.866,-4.358L7.412,-13.03L7.743,-21.678L0,-24.462Z" style="fill:rgb(101,189,80);fill-rule:nonzero;"/>
        </g>
        <g transform="matrix(1,0,0,1,1169.5,1552.56)">
            <path d="M0,-1.139C0,-1.139 -3.773,19.188 -6,21.188L-17.5,21.188L-46.5,12.559L-47.5,-11.312L-45.5,-19.724L-41.947,-22.327L-32.955,-19.601L-6.889,-8.603L0,-5.008L0,-1.139Z" style="fill:rgb(24,120,60);fill-rule:nonzero;"/>
        </g>
        <g transform="matrix(1,0,0,1,1757.5,1556.98)">
            <path d="M0,-1.977C0,-1.977 12.844,22.291 11.172,31.157L39.5,19.523L50.744,7.023L53.735,-5.618L46.5,-28.977L43.767,-33.134L31,-20.477L10,-9.977L0,-1.977Z" style="fill:rgb(101,189,80);fill-rule:nonzero;"/>
        </g>
        <g transform="matrix(1,0,0,1,1163.5,1901.4)">
            <path d="M0,-327.653C0,-327.653 -51.172,-157.706 -59.336,-37.552C-59.336,-37.552 -64.687,-5.939 -61.887,1.527C-59.087,8.993 -75.794,-14.6 -75.794,-14.6C-75.794,-14.6 -87.411,-39.155 -87.73,-38.87C-88.05,-38.585 -95.032,-68.104 -95.032,-68.104L-85.952,-117.995L-66.759,-231.104C-66.759,-231.104 -50.914,-301.811 -51.278,-301.902C-51.643,-301.993 -42.049,-335.066 -42.049,-335.066L-38.889,-336.646C-38.889,-336.646 -25.343,-332.356 -25.004,-332.469C-24.666,-332.583 -5.137,-325.81 -5.137,-325.81L-2.089,-325.246L0,-327.653Z" style="fill:rgb(200,182,46);fill-rule:nonzero;"/>
        </g>
        <g transform="matrix(0.0631954,0.998001,0.998001,-0.0631954,1221.12,1964.28)">
            <path d="M-43.295,-50.068C-43.295,-50.068 39.04,-45.218 53.088,-50.068" style="fill:none;stroke:rgb(48,50,61);stroke-width:5.71px;"/>
        </g>
        <g transform="matrix(1,0,0,1,1287.05,2045.14)">
            <path d="M0,-126.147C0,-126.147 -5.062,-93.526 -10.024,-65.255C-13.625,-44.741 -20.284,-1.804 -21.808,0" style="fill:none;stroke:rgb(48,50,61);stroke-width:5.71px;"/>
        </g>
        <g transform="matrix(1,0,0,1,1652.09,1929.76)">
            <path d="M0,113.709C0,113.709 -7.867,71.817 -13.304,38.839C-16.604,18.826 -19.008,2.096 -18.216,0" style="fill:none;stroke:rgb(48,50,61);stroke-width:5.71px;"/>
        </g>
        <g transform="matrix(1,0,0,1,1758.37,2041.14)">
            <path d="M0,-109.211C0,-109.211 -3.803,-98.359 -5.835,-88.355C-7.057,-82.338 -8.327,-75.128 -9.26,-67.469C-10.242,-59.402 -11.467,-51.358 -11.46,-43.421C-11.449,-31.172 -7.979,-5.482 -6.682,0" style="fill:none;stroke:rgb(48,50,61);stroke-width:5.71px;"/>
        </g>
        <g transform="matrix(1,0,0,1,1629.88,1925.09)">
            <path d="M0,6.832L4,0L8,6.832L0,6.832Z" style="fill:rgb(48,50,61);fill-rule:nonzero;"/>
        </g>
        <g transform="matrix(1,0,0,1,1645.45,2005.7)">
            <path d="M0,-7.4C-117.447,11.3 -234.447,-0.7 -353.447,-16.7C-358.447,-16.7 -362.447,-18.7 -367.842,-18.151" style="fill:none;stroke:rgb(48,50,61);stroke-width:3.57px;"/>
        </g>
        <g transform="matrix(1,0,0,1,1173.35,1539.98)">
            <path d="M0,415.753C-10.346,411.016 -21.346,407.016 -31.346,400.016C-41.346,392.016 -73.346,363.016 -74.346,362.016C-83.346,350.016 -92.346,338.016 -98.346,324.016C-102.346,313.016 -106.346,302.016 -104.346,290.016C-90.346,209.016 -80.346,135.016 -60.346,56.016C-57.346,45.016 -56.346,33.016 -49.346,24.016C-49.346,15.016 -51.346,6.016 -50.346,-2.984C-50.346,-6.984 -47.346,-10.984 -43.346,-8.984C1.654,12.016 46.654,26.016 94.654,41.016C153.654,58.016 211.654,69.016 271.654,72.016C362.654,76.016 450.654,59.016 537.654,31.016C560.654,23.016 582.654,16.016 604.654,4.016C613.654,-1.984 627.018,-15.043 627.921,-16.142C633.438,-8.185 638.136,1.475 637.89,11.375C637.654,12.016 637.654,14.016 637.654,15.016C635.654,21.016 634.654,27.016 635.654,33.016C641.654,58.016 650.654,81.016 662.654,104.016C663.654,107.016 664.654,111.016 665.654,115.016C688.654,166.016 711.654,216.016 725.654,269.016C727.654,290.016 721.654,310.016 710.654,329.016C691.654,359.016 669.654,384.016 638.654,401.016L635.654,404.016C615.654,415.016 596.654,424.016 576.167,431.895" style="fill:none;stroke:rgb(48,50,61);stroke-width:3.57px;"/>
        </g>
        <g transform="matrix(1,0,0,1,1078.38,2016.7)">
            <path d="M0,-149.989C0,-149.989 -3.621,-126.698 0,-103.698C3.621,-80.698 35.865,-32.301 96.743,0" style="fill:none;stroke:rgb(48,50,61);stroke-width:3.57px;"/>
        </g>
        <g transform="matrix(1,0,0,1,1269.95,2036)">
            <path d="M0,0L377.06,0" style="fill:none;stroke:rgb(48,50,61);stroke-width:3.57px;"/>
        </g>
        <g transform="matrix(1,0,0,1,1751.69,1856.7)">
            <path d="M0,176.422C0,176.422 18.545,174.649 38.439,164.668C55.875,155.921 76.681,140.87 93.373,115.184C129.111,60.19 134.12,28.795 137.794,6.083L138.64,0" style="fill:none;stroke:rgb(48,50,61);stroke-width:3.57px;"/>
        </g>
        <g transform="matrix(1,0,0,1,1153.7,1848.26)">
            <path d="M0,81.53C-2.563,67.343 -6.534,53.357 -11.57,39.702C-14.092,32.875 -16.882,26.133 -19.934,19.498C-23,12.871 -26.271,6.319 -29.981,0C-25.709,5.96 -21.838,12.214 -18.157,18.58C-14.489,24.955 -11.062,31.482 -7.886,38.145C-1.542,51.468 3.82,65.359 7.794,79.727L0,81.53Z" style="fill:rgb(48,50,61);fill-rule:nonzero;"/>
        </g>
        <g transform="matrix(1,0,0,1,1156.99,1864.57)">
            <path d="M0,58.026C6.063,56.065 12.042,54.353 18.106,52.72C24.158,51.099 30.24,49.602 36.356,48.245C48.588,45.539 60.958,43.341 73.488,42.102C79.753,41.491 86.059,41.126 92.396,41.17C98.728,41.221 105.103,41.663 111.417,42.893C117.699,44.144 124.035,46.172 129.55,49.951C132.29,51.833 134.77,54.185 136.708,56.939C138.652,59.689 140.026,62.812 140.818,66.018L137.176,66.444C137.961,51.838 138.836,37.25 139.843,22.664C140.352,15.372 140.893,8.081 141.528,0.797C141.848,-2.843 142.189,-6.484 142.596,-10.118C142.8,-11.934 143.02,-13.749 143.283,-15.559C143.416,-16.463 143.559,-17.368 143.73,-18.266C143.919,-19.157 144.068,-20.075 144.468,-20.901C144.104,-20.061 143.995,-19.142 143.845,-18.246C143.711,-17.344 143.607,-16.438 143.513,-15.531C143.327,-13.715 143.184,-11.896 143.057,-10.076C142.805,-6.434 142.618,-2.787 142.453,0.859C142.126,8.154 141.894,15.453 141.695,22.753C141.305,37.352 141.048,51.962 140.881,66.559L140.739,78.927L137.239,66.985C136.424,64.207 135.137,61.613 133.404,59.368C131.671,57.12 129.504,55.224 127.07,53.699C122.186,50.637 116.386,49.002 110.505,48.095C104.598,47.2 98.534,47.028 92.477,47.236C86.415,47.451 80.344,48.058 74.298,48.908C62.204,50.623 50.209,53.277 38.354,56.431C26.526,59.605 14.709,63.275 3.319,67.46L0,58.026Z" style="fill:rgb(48,50,61);fill-rule:nonzero;"/>
        </g>
        <g transform="matrix(1,0,0,1,1171.93,1927.87)">
            <path d="M0,11.397C0,11.397 -3.94,11.955 -7.679,11.335C-12.621,10.516 -18.604,8.378 -13.281,-0.558" style="fill:none;stroke:rgb(48,50,61);stroke-width:4.29px;"/>
        </g>
        <g transform="matrix(1,0,0,1,1296.33,1953.07)">
            <path d="M0,-20.572C-0.028,-20.506 0.091,-20.701 0.08,-20.786L0.091,-20.777L0.116,-20.737L0.166,-20.642L0.265,-20.44L0.452,-20.027C0.576,-19.748 0.694,-19.466 0.796,-19.179C0.999,-18.607 1.212,-18.019 1.353,-17.42C1.659,-16.22 1.878,-14.963 1.92,-13.641C1.964,-12.321 1.817,-10.941 1.409,-9.519C1.194,-8.814 0.978,-8.065 0.698,-7.284C0.566,-6.905 0.393,-6.464 0.219,-6.136C0.09,-5.892 -0.081,-5.588 -0.23,-5.346C-1.43,-3.26 -3.36,-1.799 -5.679,-0.716C-6.843,-0.18 -8.12,0.247 -9.562,0.442C-10.274,0.547 -11.045,0.566 -11.836,0.479C-12.608,0.407 -13.482,0.169 -14.146,-0.354L-14.146,-1.354C-13.72,-1.896 -13.534,-2.461 -13.312,-2.958C-13.105,-3.476 -12.929,-3.998 -12.727,-4.478C-12.339,-5.461 -11.922,-6.405 -11.448,-7.297C-10.968,-8.183 -10.47,-9.062 -9.872,-9.852C-9.279,-10.648 -8.557,-11.335 -7.74,-11.938C-7.531,-12.105 -7.346,-12.211 -7.123,-12.381C-6.947,-12.469 -6.779,-12.451 -6.597,-12.516C-6.243,-12.619 -5.901,-12.805 -5.626,-13.07C-5.056,-13.591 -4.493,-14.279 -3.934,-15.069C-3.378,-15.861 -2.836,-16.759 -2.351,-17.725C-2.12,-18.209 -1.854,-18.707 -1.632,-19.221L-1.284,-20.004L-1.113,-20.405L-1.025,-20.611L-0.98,-20.719L-0.957,-20.781L-0.944,-20.823C-0.954,-20.925 -0.836,-21.138 -0.857,-21.088L0,-20.572Z" style="fill:rgb(48,50,61);fill-rule:nonzero;"/>
        </g>
        <g transform="matrix(1,0,0,1,1761.13,1856.09)">
            <path d="M0,77.925C3.974,63.558 9.337,49.666 15.68,36.343C18.855,29.681 22.282,23.154 25.951,16.778C29.632,10.411 33.503,4.157 37.774,-1.803C34.065,4.517 30.793,11.069 27.728,17.696C24.676,24.33 21.886,31.073 19.364,37.9C14.328,51.555 10.357,65.541 7.795,79.728L0,77.925Z" style="fill:rgb(48,50,61);fill-rule:nonzero;"/>
        </g>
        <g transform="matrix(1,0,0,1,1762.31,1861.16)">
            <path d="M0,76.892C-11.39,72.707 -23.208,69.038 -35.036,65.864C-46.891,62.709 -58.886,60.055 -70.979,58.34C-77.025,57.491 -83.097,56.883 -89.158,56.668C-95.216,56.46 -101.279,56.631 -107.187,57.528C-113.067,58.434 -118.867,60.071 -123.752,63.131C-126.186,64.657 -128.353,66.552 -130.086,68.799C-131.819,71.045 -133.105,73.639 -133.921,76.417L-137.421,88.36L-137.563,75.992C-137.729,61.394 -137.986,46.785 -138.376,32.185C-138.575,24.885 -138.808,17.586 -139.134,10.291C-139.3,6.645 -139.486,2.998 -139.738,-0.643C-139.865,-2.463 -140.009,-4.283 -140.194,-6.098C-140.289,-7.005 -140.393,-7.912 -140.526,-8.814C-140.677,-9.71 -140.786,-10.629 -141.149,-11.468C-140.75,-10.642 -140.601,-9.724 -140.412,-8.834C-140.24,-7.935 -140.098,-7.031 -139.965,-6.127C-139.701,-4.317 -139.481,-2.502 -139.277,-0.685C-138.871,2.949 -138.529,6.588 -138.209,10.23C-137.574,17.514 -137.032,24.804 -136.524,32.096C-135.518,46.682 -134.643,61.271 -133.857,75.876L-137.499,75.451C-136.708,72.245 -135.334,69.121 -133.39,66.371C-131.451,63.618 -128.972,61.265 -126.231,59.383C-120.717,55.604 -114.381,53.577 -108.099,52.327C-101.784,51.095 -95.409,50.654 -89.077,50.602C-82.74,50.558 -76.435,50.923 -70.17,51.535C-57.64,52.774 -45.27,54.971 -33.037,57.677C-26.921,59.036 -20.839,60.532 -14.787,62.153C-8.724,63.786 -2.744,65.496 3.318,67.458L0,76.892Z" style="fill:rgb(48,50,61);fill-rule:nonzero;"/>
        </g>
        <g transform="matrix(1,0,0,1,1750.69,1933.9)">
            <path d="M0,11.397C0,11.397 3.94,11.955 7.68,11.335C12.621,10.516 18.604,8.378 13.281,-0.558" style="fill:none;stroke:rgb(48,50,61);stroke-width:4.29px;"/>
        </g>
        <g transform="matrix(1,0,0,1,1627.15,1956.38)">
            <path d="M0,-18.357C0.15,-17.964 0.092,-18.018 0.139,-17.942L0.208,-17.782L0.339,-17.471L0.608,-16.864C0.78,-16.463 0.959,-16.072 1.147,-15.69C1.52,-14.925 1.886,-14.195 2.312,-13.519C3.132,-12.168 4.018,-11.005 4.886,-10.244C5.315,-9.851 5.952,-9.716 6.424,-9.676C6.907,-9.633 7.092,-9.529 7.208,-9.109C7.333,-8.703 7.492,-8.111 7.851,-7.314C8.205,-6.486 8.746,-5.546 9.546,-4.103L9.546,-3.103C8.677,-1.667 7.546,-0.881 6.271,-0.425C5.004,0 3.584,0 2.257,-0.42C0.926,-0.831 -0.211,-1.778 -0.855,-2.967C-1.514,-4.157 -1.832,-5.408 -2.18,-6.492C-2.879,-8.684 -2.907,-10.783 -2.624,-12.72C-2.465,-13.693 -2.268,-14.625 -1.981,-15.528C-1.835,-15.979 -1.681,-16.422 -1.511,-16.857L-1.23,-17.502L-1.085,-17.817L-1.008,-17.969C-0.96,-17.998 -1.009,-18.157 -0.873,-17.867L0,-18.357Z" style="fill:rgb(48,50,61);fill-rule:nonzero;"/>
        </g>
        <g transform="matrix(-0.844329,-0.535824,-0.535824,0.844329,1762.77,1936.89)">
            <path d="M-2.215,0.644C-1.452,0.768 -0.445,0.499 0.187,0.644" style="fill:none;stroke:rgb(48,50,61);stroke-width:0.71px;"/>
        </g>
        <g transform="matrix(1,0,0,1,1760.51,1940.02)">
            <path d="M0,-2.926C0.786,-2.613 1.501,-2.442 2.223,-1.988C2.593,-1.756 2.869,-1.509 3.091,-1.132C3.294,-0.786 3.418,-0.272 3.705,0" style="fill:none;stroke:rgb(48,50,61);stroke-width:0.71px;"/>
        </g>
        <g transform="matrix(0.707107,0.707107,0.707107,-0.707107,1764.78,1935.02)">
            <path d="M-0.008,-0.02L0.047,-0.02" style="fill:none;stroke:rgb(48,50,61);stroke-width:0.71px;"/>
        </g>
        <g transform="matrix(1,0,0,1,1768.51,1937.48)">
            <path d="M0,-2.341C-0.149,-2.006 -0.087,-1.596 -0.152,-1.238C-0.231,-0.81 -0.479,-0.416 -0.546,0" style="fill:none;stroke:rgb(48,50,61);stroke-width:0.71px;"/>
        </g>
        <g transform="matrix(1,0,0,1,1166.48,1934.08)">
            <path d="M0,-5.406C-1.967,-5.232 -3.546,-4.306 -5.32,-3.546C-6.832,-2.896 -8.227,-2.258 -9.062,-0.766C-9.557,0.117 -7.6,0.012 -7.238,-0.634C-6.558,-1.849 -5.339,-2.218 -4.133,-2.736C-2.816,-3.302 -1.692,-4.03 -0.217,-4.16C0.802,-4.25 1.329,-5.523 0,-5.406" style="fill:rgb(48,50,61);fill-rule:nonzero;"/>
        </g>
        <g transform="matrix(1,0,0,1,1153.62,1929.68)">
            <path d="M0,-0.919C0.053,-0.441 0.16,0.026 0.25,0.498C0.38,1.184 2.32,0.706 2.182,-0.02C2.092,-0.491 1.985,-0.959 1.932,-1.437C1.858,-2.103 -0.083,-1.669 0,-0.919" style="fill:rgb(48,50,61);fill-rule:nonzero;"/>
        </g>
        <g transform="matrix(1,0,0,1,1153.49,1931.2)">
            <path d="M0,-2.503C-0.025,-1.526 0.154,-0.577 0.251,0.391C0.319,1.06 2.26,0.63 2.183,-0.127C2.096,-0.995 1.912,-1.858 1.935,-2.733C1.956,-3.563 0.017,-3.167 0,-2.503" style="fill:rgb(48,50,61);fill-rule:nonzero;"/>
        </g>
        <g transform="matrix(1,0,0,1,1808.87,1643.93)">
            <path d="M0,-79.872C-1.458,-51.551 -179.942,-16.8 -300.869,-5.265C-356.678,0.059 -397.864,-7.134 -407.964,-8.624C-517.049,-24.722 -684.869,-79.931 -684.869,-79.931" style="fill:none;stroke:rgb(48,50,61);stroke-width:3.57px;"/>
        </g>
        <g transform="matrix(1,0,0,1,1526.26,1843.51)">
            <path d="M0,-49.451C0,-49.451 6.871,-42.349 7.788,-21.046C8.705,0.258 10.766,7.818 38.255,21.104C38.255,21.104 56.581,20.187 68.264,-6.386C68.264,-6.386 67.098,-16.221 68.722,-27.002C70.586,-39.382 75.225,-52.979 74.309,-53.893C69.078,-59.118 56.703,-69.779 42.379,-70.297C35.248,-70.555 28.666,-69.62 22.789,-67.628C12.992,-64.305 5.154,-58.042 0,-49.451Z" style="fill:none;stroke:rgb(48,50,61);stroke-width:1.43px;"/>
        </g>
        <g transform="matrix(1,0,0,1,1558.99,1809.24)">
            <path d="M0,-31.333L0.334,0.778L-21.666,1.5C-21.666,1.5 -24.666,-12.5 -26.5,-14.917C-28.334,-17.333 -5.166,-32.833 0,-31.333" style="fill:rgb(53,110,182);fill-rule:nonzero;"/>
        </g>
        <g transform="matrix(1,0,0,1,1569.15,1809.14)">
            <path d="M0,-31.332L0.668,1.603L21.834,1.603C21.834,1.603 24.834,-14.23 26.334,-15.897C27.834,-17.564 4.667,-32.935 0,-31.332" style="fill:rgb(53,110,182);fill-rule:nonzero;"/>
        </g>
        <g transform="matrix(1,0,0,1,1538.49,1856.08)">
            <path d="M0,-35.833L21.377,-35.18L22.166,0C22.166,0 3.333,-5 1.666,-19.833C0,-34.666 0.334,-27 0,-35.833" style="fill:rgb(53,110,182);fill-rule:nonzero;"/>
        </g>
        <g transform="matrix(1,0,0,1,1590.32,1857.47)">
            <path d="M0,-37.229C0.451,-37.5 -20.733,-36.092 -20.733,-36.092L-21.168,0.271C-21.168,0.271 -8.001,-3.062 -0.668,-21.396C-0.668,-21.396 -1.667,-36.229 0,-37.229" style="fill:rgb(53,110,182);fill-rule:nonzero;"/>
        </g>
        <g transform="matrix(1,0,0,1,1537.32,1817.41)">
            <path d="M0,-4.167L53.666,-4.167L53.007,0L1.166,0L0,-4.167Z" style="fill:rgb(17,174,75);fill-rule:nonzero;"/>
        </g>
        <g transform="matrix(1,0,0,1,1562.32,1858.74)">
            <path d="M0,-81.052L4.5,-81.052L4.5,0L1.152,0L0,-81.052Z" style="fill:rgb(17,174,75);fill-rule:nonzero;"/>
        </g>
        <g transform="matrix(1,0,0,1,1549.49,1833.91)">
            <path d="M0,-38.5L10.5,-25.667C10.5,-25.667 9.834,-22.666 8.5,-23C7.166,-23.334 -3.334,-33.834 -3.334,-33.834C-3.334,-33.834 1,-17.834 -3.334,-4.334L8.666,-13.667C8.666,-13.667 12,-13.167 10.5,-11.167L0,0C0,0 16.238,-6.631 29.834,0L20.166,-11.167C20.166,-11.167 19.5,-15 22,-13.334L34.834,-3.667C34.834,-3.667 26.167,-21 34.834,-33.334L23,-24.834C23,-24.834 18.5,-22 20.666,-26.5L29.834,-36.834C29.834,-36.834 27.064,-36.627 22.666,-35.834C19.555,-35.271 15.334,-33.58 12,-35.167C8.811,-36.686 3.922,-35.187 2.059,-37.424C1.877,-37.642 0.086,-38.211 0,-38.5" style="fill:rgb(235,241,248);fill-rule:nonzero;"/>
        </g>
        <g transform="matrix(0.714313,0,0,0.714313,448.619,535.575)">
            <g>
                <g transform="matrix(1.23779,0,0,1,-362.925,0)">
                    <text x="1526.26px" y="1890.31px" style="font-family:'Arial-BoldMT', 'Arial', sans-serif;font-weight:700;font-size:21.825px;fill:rgb(17,174,75);">B</text>
                </g>
                <g transform="matrix(1.23779,0,0,1,-366.916,0)">
                    <text x="1543.05px" y="1890.31px" style="font-family:'Arial-BoldMT', 'Arial', sans-serif;font-weight:700;font-size:21.825px;fill:rgb(17,174,75);">R</text>
                </g>
                <g transform="matrix(1.23779,0,0,1,-370.761,0)">
                    <text x="1559.21px" y="1890.31px" style="font-family:'Arial-BoldMT', 'Arial', sans-serif;font-weight:700;font-size:21.825px;fill:rgb(17,174,75);">A</text>
                </g>
                <g transform="matrix(1.23779,0,0,1,-374.767,0)">
                    <text x="1576.06px" y="1890.31px" style="font-family:'Arial-BoldMT', 'Arial', sans-serif;font-weight:700;font-size:21.825px;fill:rgb(17,174,75);">S</text>
                </g>
                <g transform="matrix(1.23779,0,0,1,-378.183,0)">
                    <text x="1590.43px" y="1890.31px" style="font-family:'Arial-BoldMT', 'Arial', sans-serif;font-weight:700;font-size:21.825px;fill:rgb(17,174,75);">I</text>
                </g>
                <g transform="matrix(1.23779,0,0,1,-380.233,0)">
                    <text x="1599.05px" y="1890.31px" style="font-family:'Arial-BoldMT', 'Arial', sans-serif;font-weight:700;font-size:21.825px;fill:rgb(17,174,75);">L</text>
                </g>
                <g transform="matrix(0.92284,0,0,1,107.275,0)">
                    <text x="1390.29px" y="1959.47px" style="font-family:'Arial-BoldMT', 'Arial', sans-serif;font-weight:700;font-size:119.505px;fill:rgb(26,166,74);">1</text>
                </g>
                <g transform="matrix(0.92284,0,0,1,111.996,0)">
                    <text x="1451.49px" y="1959.47px" style="font-family:'Arial-BoldMT', 'Arial', sans-serif;font-weight:700;font-size:119.505px;fill:rgb(26,166,74);">0</text>
                </g>
            </g>
        </g>
        <g transform="matrix(1,0,0,1,20.0008,-8.57175)">
            <g transform="matrix(1.23779,0,0,1,-313.352,0)">
                <text x="1317.77px" y="1833.91px" style="font-family:'Arial-BoldMT', 'Arial', sans-serif;font-weight:700;font-size:33.869px;fill:rgb(17,174,75);">C</text>
            </g>
            <g transform="matrix(1.23779,0,0,1,-319.271,0)">
                <text x="1342.66px" y="1833.91px" style="font-family:'Arial-BoldMT', 'Arial', sans-serif;font-weight:700;font-size:33.869px;fill:rgb(17,174,75);">K</text>
            </g>
        </g>
        <g transform="matrix(1,0,0,1,1531.54,1776.35)">
            <path d="M0,-16.798L-2.12,-10.277L-8.894,-10.277L-3.503,-6.259L-5.479,0L0,-3.558L5.39,0L3.546,-6.061L8.893,-10.079L2.36,-10.145L0,-16.798Z" style="fill:rgb(17,174,75);fill-rule:nonzero;"/>
        </g>
        <g transform="matrix(1,0,0,1,1549.33,1770.93)">
            <path d="M0,-16.798L-2.119,-10.277L-8.893,-10.277L-3.503,-6.258L-5.479,0L0,-3.557L5.391,0L3.546,-6.061L8.894,-10.078L2.36,-10.145L0,-16.798Z" style="fill:rgb(17,174,75);fill-rule:nonzero;"/>
        </g>
        <g transform="matrix(1,0,0,1,1585.91,1771.54)">
            <path d="M0,-16.799L-2.119,-10.278L-8.894,-10.278L-3.503,-6.259L-5.479,0L0,-3.558L5.39,0L3.546,-6.061L8.893,-10.079L2.36,-10.145L0,-16.799Z" style="fill:rgb(17,174,75);fill-rule:nonzero;"/>
        </g>
        <g transform="matrix(1,0,0,1,1603.69,1777.69)">
            <path d="M0,-16.798L-2.119,-10.277L-8.894,-10.277L-3.503,-6.259L-5.479,0L0,-3.558L5.391,0L3.546,-6.061L8.893,-10.078L2.36,-10.145L0,-16.798Z" style="fill:rgb(17,174,75);fill-rule:nonzero;"/>
        </g>
        <g transform="matrix(1,0,0,1,1566.82,1766.57)">
            <path d="M0,-16.798L-2.119,-10.277L-8.894,-10.277L-3.503,-6.259L-5.479,0L0,-3.558L5.39,0L3.546,-6.061L8.894,-10.078L2.36,-10.145L0,-16.798Z" style="fill:rgb(17,174,75);fill-rule:nonzero;"/>
        </g>
        <g transform="matrix(1,0,0,1,1078.38,2020.43)">
            <path d="M0,-107.43C0,-107.43 -112.379,-73.43 -135.879,-42.93C-135.879,-42.93 -148.379,-33.071 -135.879,0L93.549,-5.457" style="fill:none;stroke:rgb(48,50,61);stroke-width:3.57px;"/>
        </g>
        <g transform="matrix(1,0,0,1,973.967,2033.5)">
            <path d="M0,-13.07C0,-13.07 4,-1 6,-0.5C8,0 15.5,-13.07 15.5,-13.07" style="fill:none;stroke:rgb(48,50,61);stroke-width:3.57px;"/>
        </g>
        <g transform="matrix(1,0,0,1,942.276,2033.5)">
            <path d="M0,-13.07C0,-13.07 4,-1 6,-0.5C8,0 15.5,-13.07 15.5,-13.07" style="fill:none;stroke:rgb(48,50,61);stroke-width:3.57px;"/>
        </g>
        <g transform="matrix(1,0,0,1,1002.16,2032.5)">
            <path d="M0,-13.07C0,-13.07 4,-1 6,-0.5C8,0 15.5,-13.07 15.5,-13.07" style="fill:none;stroke:rgb(48,50,61);stroke-width:3.57px;"/>
        </g>
        <g transform="matrix(1,0,0,1,1029.66,2031.5)">
            <path d="M0,-13.07C0,-13.07 4,-1 6,-0.5C8,0 15.5,-13.07 15.5,-13.07" style="fill:none;stroke:rgb(48,50,61);stroke-width:3.57px;"/>
        </g>
        <g transform="matrix(1,0,0,1,1058.58,2030.5)">
            <path d="M0,-13.07C0,-13.07 4,-1 6,-0.5C8,0 15.5,-13.07 15.5,-13.07" style="fill:none;stroke:rgb(48,50,61);stroke-width:3.57px;"/>
        </g>
        <g transform="matrix(1,0,0,1,1088.66,2029.5)">
            <path d="M0,-13.07C0,-13.07 4,-1 6,-0.5C8,0 15.5,-13.07 15.5,-13.07" style="fill:none;stroke:rgb(48,50,61);stroke-width:3.57px;"/>
        </g>
        <g transform="matrix(1,0,0,1,1118.2,2029.77)">
            <path d="M0,-13.07C0,-13.07 4,-1 6,-0.5C8,0 15.5,-13.07 15.5,-13.07" style="fill:none;stroke:rgb(48,50,61);stroke-width:3.57px;"/>
        </g>
        <g transform="matrix(1,0,0,1,1143.15,2029.77)">
            <path d="M0,-13.07C0,-13.07 4,-1 6,-0.5C8,0 15.5,-13.07 15.5,-13.07" style="fill:none;stroke:rgb(48,50,61);stroke-width:3.57px;"/>
        </g>
        <g transform="matrix(1,0,0,1,995.622,1966.71)">
            <path d="M0,-24.951C2.957,-23.7 5.615,-22.285 8.266,-20.692C10.89,-19.098 13.414,-17.332 15.741,-15.324C18.062,-13.317 20.203,-11.064 21.875,-8.489C23.541,-5.925 24.69,-2.99 24.878,0C24.271,-2.936 22.772,-5.553 20.874,-7.74C18.964,-9.935 16.673,-11.754 14.24,-13.325C11.802,-14.894 9.207,-16.217 6.543,-17.361C3.897,-18.49 1.095,-19.497 -1.574,-20.205L0,-24.951Z" style="fill:rgb(48,50,61);fill-rule:nonzero;"/>
        </g>
        <g transform="matrix(1,0,0,1,1018.29,1955.43)">
            <path d="M0,-23.396C2.875,-22.376 5.429,-21.164 7.983,-19.751C10.509,-18.336 12.93,-16.72 15.126,-14.821C17.314,-12.926 19.29,-10.729 20.689,-8.192C22.098,-5.668 22.844,-2.795 22.71,0C22.422,-2.79 21.288,-5.38 19.642,-7.51C17.999,-9.655 15.896,-11.384 13.629,-12.819C11.358,-14.254 8.91,-15.405 6.394,-16.355C3.897,-17.291 1.23,-18.08 -1.263,-18.558L0,-23.396Z" style="fill:rgb(48,50,61);fill-rule:nonzero;"/>
        </g>
        <g transform="matrix(1,0,0,1,1037.51,1951.78)">
            <path d="M0,-26.528C2.619,-24.962 4.864,-23.269 7.084,-21.397C9.276,-19.531 11.326,-17.501 13.158,-15.292C14.988,-13.084 16.596,-10.684 17.814,-8.107C19.034,-5.536 19.843,-2.778 20.072,0C19.43,-2.714 18.245,-5.236 16.727,-7.492C15.207,-9.753 13.367,-11.763 11.354,-13.562C9.338,-15.36 7.151,-16.956 4.866,-18.374C2.6,-19.775 0.146,-21.08 -2.188,-22.032L0,-26.528Z" style="fill:rgb(48,50,61);fill-rule:nonzero;"/>
        </g>
        <g transform="matrix(1,0,0,1,1059.03,1943.94)">
            <path d="M0,-25.475C2.061,-23.716 3.893,-21.931 5.701,-20.036C7.492,-18.145 9.196,-16.171 10.757,-14.087C12.314,-12.003 13.739,-9.805 14.854,-7.451C15.959,-5.109 16.772,-2.559 16.741,0C16.35,-2.526 15.175,-4.789 13.771,-6.829C12.353,-8.871 10.672,-10.715 8.882,-12.434C7.087,-14.153 5.175,-15.746 3.196,-17.245C1.227,-18.73 -0.859,-20.174 -2.897,-21.401L0,-25.475Z" style="fill:rgb(48,50,61);fill-rule:nonzero;"/>
        </g>
        <g transform="matrix(0.999959,-0.00907923,-0.00907923,-0.999959,938.616,2008.8)">
            <path d="M-0.004,0.989L217.965,0.99" style="fill:none;stroke:rgb(48,50,61);stroke-width:3.57px;"/>
        </g>
        <g transform="matrix(1,0,0,1,1875.45,2021.42)">
            <path d="M0,-107.43C0,-107.43 112.379,-73.43 135.879,-42.93C135.879,-42.93 148.379,-33.071 135.879,0L-66.57,-4.816L-74.687,-5.451" style="fill:none;stroke:rgb(48,50,61);stroke-width:3.57px;"/>
        </g>
        <g transform="matrix(1,0,0,1,1979.86,2034.49)">
            <path d="M0,-13.07C0,-13.07 -4,-1 -6,-0.5C-8,0 -15.5,-13.07 -15.5,-13.07" style="fill:none;stroke:rgb(48,50,61);stroke-width:3.57px;"/>
        </g>
        <g transform="matrix(1,0,0,1,2011.55,2034.49)">
            <path d="M0,-13.07C0,-13.07 -4,-1 -6,-0.5C-8,0 -15.5,-13.07 -15.5,-13.07" style="fill:none;stroke:rgb(48,50,61);stroke-width:3.57px;"/>
        </g>
        <g transform="matrix(1,0,0,1,1951.67,2033.49)">
            <path d="M0,-13.07C0,-13.07 -4,-1 -6,-0.5C-8,0 -15.5,-13.07 -15.5,-13.07" style="fill:none;stroke:rgb(48,50,61);stroke-width:3.57px;"/>
        </g>
        <g transform="matrix(1,0,0,1,1924.16,2032.49)">
            <path d="M0,-13.07C0,-13.07 -4,-1 -6,-0.5C-8,0 -15.5,-13.07 -15.5,-13.07" style="fill:none;stroke:rgb(48,50,61);stroke-width:3.57px;"/>
        </g>
        <g transform="matrix(1,0,0,1,1895.25,2031.49)">
            <path d="M0,-13.07C0,-13.07 -4,-1 -6,-0.5C-8,0 -15.5,-13.07 -15.5,-13.07" style="fill:none;stroke:rgb(48,50,61);stroke-width:3.57px;"/>
        </g>
        <g transform="matrix(1,0,0,1,1865.16,2030.49)">
            <path d="M0,-13.07C0,-13.07 -4,-1 -6,-0.5C-8,0 -15.5,-13.07 -15.5,-13.07" style="fill:none;stroke:rgb(48,50,61);stroke-width:3.57px;"/>
        </g>
        <g transform="matrix(1,0,0,1,1835.63,2030.75)">
            <path d="M0,-13.07C0,-13.07 -4,-1 -6,-0.5C-8,0 -15.5,-13.07 -15.5,-13.07" style="fill:none;stroke:rgb(48,50,61);stroke-width:3.57px;"/>
        </g>
        <g transform="matrix(1,0,0,1,1959.78,1962.96)">
            <path d="M0,-15.459C-2.669,-14.751 -5.472,-13.744 -8.118,-12.615C-10.781,-11.471 -13.376,-10.148 -15.814,-8.579C-18.247,-7.008 -20.539,-5.189 -22.448,-2.994C-24.347,-0.807 -25.845,1.81 -26.452,4.746C-26.265,1.756 -25.115,-1.179 -23.448,-3.743C-21.777,-6.318 -19.636,-8.571 -17.315,-10.578C-14.987,-12.586 -12.464,-14.353 -9.84,-15.946C-7.189,-17.539 -4.531,-18.954 -1.574,-20.205L0,-15.459Z" style="fill:rgb(48,50,61);fill-rule:nonzero;"/>
        </g>
        <g transform="matrix(1,0,0,1,1936.8,1951.57)">
            <path d="M0,-13.72C-2.492,-13.241 -5.159,-12.452 -7.656,-11.517C-10.172,-10.567 -12.621,-9.416 -14.892,-7.981C-17.158,-6.546 -19.261,-4.817 -20.904,-2.672C-22.55,-0.542 -23.685,2.049 -23.973,4.838C-24.106,2.043 -23.361,-0.83 -21.952,-3.354C-20.553,-5.891 -18.577,-8.088 -16.389,-9.983C-14.192,-11.882 -11.771,-13.498 -9.246,-14.913C-6.69,-16.325 -4.137,-17.538 -1.262,-18.558L0,-13.72Z" style="fill:rgb(48,50,61);fill-rule:nonzero;"/>
        </g>
        <g transform="matrix(1,0,0,1,1918.51,1948.27)">
            <path d="M0,-17.536C-2.333,-16.584 -4.788,-15.279 -7.053,-13.878C-9.34,-12.46 -11.525,-10.864 -13.541,-9.066C-15.555,-7.267 -17.395,-5.257 -18.914,-2.996C-20.433,-0.74 -21.617,1.782 -22.26,4.496C-22.031,1.718 -21.222,-1.04 -20.002,-3.611C-18.783,-6.188 -17.176,-8.588 -15.346,-10.796C-13.514,-13.005 -11.463,-15.035 -9.271,-16.901C-7.052,-18.773 -4.807,-20.466 -2.188,-22.032L0,-17.536Z" style="fill:rgb(48,50,61);fill-rule:nonzero;"/>
        </g>
        <g transform="matrix(1,0,0,1,1897.7,1940.85)">
            <path d="M0,-17.326C-2.038,-16.099 -4.125,-14.655 -6.094,-13.17C-8.072,-11.671 -9.985,-10.078 -11.779,-8.359C-13.57,-6.639 -15.251,-4.797 -16.668,-2.754C-18.072,-0.715 -19.247,1.549 -19.639,4.074C-19.67,1.516 -18.856,-1.034 -17.752,-3.376C-16.637,-5.73 -15.212,-7.929 -13.655,-10.013C-12.094,-12.097 -10.391,-14.07 -8.6,-15.961C-6.791,-17.856 -4.959,-19.641 -2.898,-21.4L0,-17.326Z" style="fill:rgb(48,50,61);fill-rule:nonzero;"/>
        </g>
        <g transform="matrix(1,0,0,1,2015.23,2006.95)">
            <path d="M0,1.843L-182.224,0.189L-202.976,0" style="fill:none;stroke:rgb(48,50,61);stroke-width:3.57px;"/>
        </g>
        <g transform="matrix(1,0,0,1,1486.62,1188.04)">
            <path d="M0,17.544C1.438,17.382 -0.359,17.443 -0.022,16.644C2.096,17.189 3.93,18.031 5.441,19.212C5.917,18.906 6.111,18.396 5.711,18.005C7.143,18.636 8.933,17.995 9.281,16.719C10.047,16.735 10.826,16.738 10.802,17.582C11.797,16.442 13.23,17.315 14.664,15.988C14.447,12.731 10.399,13.495 8.565,11.935C9.691,11.544 9.977,10.351 11.22,10.071C10.009,8.985 7.966,8.773 6.957,7.474C7.368,6.963 8.622,8.169 9.377,8.315C10.229,8.345 9.938,7.287 11.162,7.672C6.633,1.766 -0.331,1.46 -6.77,-1.795C-6.654,-1.403 -6.23,-1.336 -6.148,-0.909C-11.995,-2.168 -20.548,-2.626 -28.402,-3.07C-39.288,-3.686 -51.997,-3.104 -59.83,0.091C-63.265,0.138 -65.684,1.154 -67.568,2.679C-63.958,1.949 -61.302,1.32 -58.594,1.562C-58.444,2.388 -57.65,1.554 -58.009,0.947C-57.508,0.935 -57.009,0.923 -56.509,0.911C-56.549,1.264 -57.05,1.177 -57.401,1.232C-49.229,0.387 -39.537,-1.179 -31.043,-0.606C-41.539,0.238 -52.958,0.3 -61.263,2.826C-62.198,3.11 -63.164,3.326 -63.625,4.384C-64.294,2.5 -65.497,6.038 -65.725,4.435C-66.821,5.578 -69.154,6.639 -70.472,6.65C-68.915,9.295 -64.667,6.449 -62.354,7.353C-63.409,8.399 -65.779,8.191 -66.194,9.847C-65.089,9.63 -64.429,8.99 -62.91,9.167C-62.987,9.875 -64.327,9.379 -64.08,10.396C-61.148,10.502 -57.707,8.945 -55.684,10.191C-54.384,9.296 -51.734,8.821 -51.494,9.791C-50.551,8.614 -48.743,9.256 -47.617,8.796C-49.585,10.016 -53.066,10.734 -55.078,10.478C-59.092,13.31 -65.493,11.49 -67.855,15.588C-67.155,15.57 -66.456,15.553 -65.756,15.537C-66.667,16.523 -67.614,17.477 -68.382,18.601C-66.42,18.36 -64.752,18.498 -62.999,17.871C-61.877,17.615 -62.754,19.458 -61.471,19.033C-61.19,17.738 -59.152,18.118 -58.823,16.869C-57.1,16.953 -55.41,17.123 -54.954,15.575C-53.735,16.408 -50.759,15.148 -52.284,14.31C-50.978,14.623 -51.522,15.278 -50.163,15.159C-52.115,16.407 -54.856,16.455 -56.103,17.703C-55.752,17.301 -55.997,17.229 -56.124,16.804C-56.902,17.748 -58.007,19.19 -59.687,18.39C-58.603,19.629 -61.317,19.126 -60.579,18.711C-61.392,19.167 -61.37,20.402 -62.634,20.562C-61.408,21.23 -59.892,19.667 -58.458,19.561C-56.929,20.987 -52.892,18.962 -50.383,18.464C-50.424,18.815 -50.304,18.997 -50.069,19.057C-50.189,19.506 -50.456,18.948 -50.969,19.079C-50.023,20.345 -48.923,18.318 -47.385,18.392C-47.5,19.568 -45.245,18.187 -44.671,18.926C-43.586,18.429 -45.379,18.495 -45,17.734C-43.265,18.974 -38.551,15.685 -38.389,18.174C-37.958,18.096 -38.306,17.276 -37.811,17.26C-37.363,17.38 -37.92,17.647 -37.789,18.159C-36.228,18.114 -37.989,16.602 -36.319,16.923C-35.762,17.265 -37.001,17.199 -36.29,18.123C-35.524,17.79 -32.337,17.769 -32.728,16.536C-29.364,17.527 -26.674,15.899 -23.747,15.719C-19.194,15.439 -14.743,16.386 -9.96,15.085C-6.534,16.133 -2.104,15.192 0,17.544" style="fill:rgb(26,166,74);"/>
        </g>
        <g transform="matrix(1,0,0,1,1487.72,1218.32)">
            <path d="M0,17.542C1.438,17.381 -0.36,17.443 -0.021,16.643C2.097,17.187 3.93,18.03 5.44,19.211C5.918,18.905 6.112,18.395 5.712,18.004C7.143,18.635 8.933,17.994 9.281,16.718C10.047,16.734 10.825,16.737 10.802,17.581C11.796,16.44 13.23,17.313 14.665,15.987C14.447,12.73 10.399,13.494 8.565,11.935C9.692,11.543 9.977,10.35 11.22,10.07C10.009,8.983 7.966,8.771 6.957,7.473C7.369,6.962 8.622,8.168 9.377,8.314C10.229,8.345 9.938,7.286 11.162,7.67C6.633,1.765 -0.331,1.459 -6.77,-1.796C-6.653,-1.403 -6.23,-1.337 -6.147,-0.91C-11.994,-2.169 -20.548,-2.627 -28.402,-3.071C-39.288,-3.687 -51.997,-3.105 -59.829,0.09C-63.266,0.137 -65.684,1.153 -67.567,2.678C-63.957,1.948 -61.302,1.319 -58.594,1.561C-58.445,2.387 -57.65,1.553 -58.008,0.946C-57.509,0.934 -57.009,0.922 -56.509,0.909C-56.549,1.263 -57.05,1.176 -57.401,1.231C-49.229,0.386 -39.537,-1.18 -31.043,-0.607C-41.538,0.237 -52.958,0.299 -61.263,2.825C-62.198,3.11 -63.164,3.324 -63.626,4.383C-64.294,2.499 -65.497,6.037 -65.725,4.434C-66.821,5.578 -69.154,6.638 -70.471,6.648C-68.915,9.294 -64.667,6.448 -62.354,7.353C-63.408,8.398 -65.778,8.19 -66.193,9.846C-65.089,9.629 -64.428,8.989 -62.91,9.166C-62.987,9.873 -64.327,9.378 -64.08,10.394C-61.147,10.5 -57.706,8.945 -55.685,10.191C-54.384,9.295 -51.733,8.82 -51.493,9.789C-50.551,8.613 -48.744,9.255 -47.617,8.795C-49.585,10.014 -53.066,10.733 -55.077,10.476C-59.091,13.308 -65.492,11.49 -67.854,15.586C-67.155,15.569 -66.455,15.552 -65.756,15.535C-66.667,16.523 -67.613,17.476 -68.382,18.6C-66.42,18.36 -64.752,18.497 -63,17.869C-61.877,17.614 -62.753,19.456 -61.471,19.032C-61.189,17.737 -59.151,18.117 -58.822,16.867C-57.1,16.952 -55.41,17.122 -54.954,15.574C-53.734,16.407 -50.759,15.147 -52.284,14.309C-50.978,14.621 -51.522,15.277 -50.163,15.158C-52.114,16.406 -54.855,16.454 -56.102,17.702C-55.751,17.3 -55.997,17.228 -56.124,16.802C-56.901,17.747 -58.007,19.188 -59.686,18.389C-58.603,19.629 -61.317,19.124 -60.578,18.71C-61.392,19.165 -61.37,20.401 -62.634,20.561C-61.408,21.229 -59.892,19.666 -58.457,19.559C-56.928,20.986 -52.893,18.961 -50.383,18.463C-50.424,18.813 -50.304,18.995 -50.068,19.056C-50.189,19.504 -50.456,18.947 -50.968,19.078C-50.023,20.343 -48.923,18.317 -47.384,18.39C-47.5,19.567 -45.244,18.186 -44.671,18.925C-43.586,18.427 -45.378,18.494 -45,17.733C-43.265,18.973 -38.551,15.684 -38.389,18.173C-37.958,18.095 -38.306,17.275 -37.811,17.259C-37.362,17.379 -37.919,17.646 -37.789,18.158C-36.228,18.113 -37.988,16.601 -36.319,16.922C-35.763,17.263 -37.001,17.199 -36.29,18.121C-35.524,17.789 -32.337,17.768 -32.728,16.536C-29.364,17.526 -26.674,15.898 -23.747,15.717C-19.194,15.437 -14.743,16.384 -9.96,15.084C-6.533,16.131 -2.104,15.191 0,17.542" style="fill:rgb(241,233,15);"/>
        </g>
    </g>
    <g transform="matrix(3.17959,0,0,3.25941,-618.367,-539.749)">
        <g id="Final-Product-Setup--Rec-" serif:id="Final Product Setup (Rec)">
            <rect x="194.48" y="165.597" width="943.517" height="920.411" style="fill:none;"/>
        </g>
    </g>
</svg>
