<?xml version="1.0" encoding="UTF-8" standalone="no"?>
<!DOCTYPE svg PUBLIC "-//W3C//DTD SVG 1.1//EN" "http://www.w3.org/Graphics/SVG/1.1/DTD/svg11.dtd">
<svg width="100%" height="100%" viewBox="0 0 3000 3000" version="1.1" xmlns="http://www.w3.org/2000/svg" xmlns:xlink="http://www.w3.org/1999/xlink" xml:space="preserve" xmlns:serif="http://www.serif.com/" style="fill-rule:evenodd;clip-rule:evenodd;stroke-miterlimit:10;">
    <g id="WorldCup-Glasses" serif:id="WorldCup Glasses">
        <g transform="matrix(1.39997,-0.00873836,0.00873836,1.39997,1045.15,1263.52)">
            <path d="M0,-200.897L-30.348,-167.16L-48.559,-122.827L-49.021,-82.14L-32,-40.826L-10.033,-11.77L15.556,6.223L59.928,22.333L93.995,21.647L124.054,15.187L156.586,-0.972L186.204,-28.955L205.449,-65.883L210.872,-101.167L205.991,-134.706L187.939,-171.048L164.719,-195.334L127.134,-216.446L100.158,-223.23L54.869,-223.23L23.972,-212.705L8.926,-204.732L0,-200.897Z" style="fill:rgb(238,37,64);fill-rule:nonzero;"/>
        </g>
        <g transform="matrix(1.39997,-0.00873836,0.00873836,1.39997,1026.37,1271.38)">
            <path d="M0,-182.004C0,-182.004 -63.436,-83.777 18.807,-21.194C21.901,-18.84 37.998,-6.872 60.345,0.042C75.375,4.691 94.252,5.566 110.06,5.292C131.652,4.917 155.41,-5.886 177.199,-18.167L187.341,-22.848L170.677,-7.103L145.304,5.787L119.259,13.582L76.425,15.031L60.345,12.771L34.845,2.815L15.177,-9.027L-12.872,-35.037L-27.778,-60.779L-35.57,-83.486L-37.112,-120.254L-35.57,-135.551L-25.471,-157.713L-12.726,-180.213L-2.706,-193.632L-0.281,-197.035L0.86,-190.571L0,-182.004Z" style="fill:rgb(194,32,47);fill-rule:nonzero;"/>
        </g>
        <g transform="matrix(-0.00873836,-1.39997,-1.39997,0.00873836,1155.34,938.192)">
            <ellipse cx="-130.717" cy="0" rx="123.5" ry="130.717" style="fill:none;stroke:rgb(48,50,61);stroke-width:4.29px;"/>
        </g>
        <g transform="matrix(1.39997,-0.00873836,0.00873836,1.39997,1023.4,995.426)">
            <path d="M0,-2.715C0.673,-1.869 0.829,-0.53 0.755,0.516C0.688,1.468 2.648,1.156 2.705,0.344C2.795,-0.939 2.601,-2.505 1.775,-3.54C1.264,-4.183 -0.583,-3.447 0,-2.715" style="fill:rgb(48,50,61);fill-rule:nonzero;"/>
        </g>
        <g transform="matrix(1.39997,-0.00873836,0.00873836,1.39997,1023.38,997.033)">
            <path d="M0,-3.875C1.638,-3.705 1.481,-0.712 1.263,0.386C1.172,0.846 3.074,0.531 3.17,0.05C3.51,-1.664 3.479,-4.444 1.249,-4.676C0.808,-4.721 0.251,-4.545 -0.117,-4.31C-0.444,-4.1 -0.355,-3.912 0,-3.875" style="fill:rgb(48,50,61);fill-rule:nonzero;"/>
        </g>
        <g transform="matrix(1.39997,-0.00873836,0.00873836,1.39997,1019.55,1002.3)">
            <path d="M0,-3.966C-0.227,-2.615 -0.461,-1.276 -0.478,0.097C-0.49,1.13 1.471,0.854 1.482,-0.04C1.498,-1.414 1.733,-2.753 1.96,-4.104C2.126,-5.096 0.149,-4.855 0,-3.966" style="fill:rgb(48,50,61);fill-rule:nonzero;"/>
        </g>
        <g transform="matrix(1.39997,-0.00873836,0.00873836,1.39997,1020.93,1005.62)">
            <path d="M0,-6.047C-0.614,-4.05 -0.704,-1.896 -0.956,0.167C-1.045,0.896 0.896,0.528 0.972,-0.091C1.223,-2.155 1.313,-4.309 1.928,-6.306C2.124,-6.943 0.192,-6.67 0,-6.047" style="fill:rgb(48,50,61);fill-rule:nonzero;"/>
        </g>
        <g transform="matrix(1.39997,-0.00873836,0.00873836,1.39997,1022.44,1013.53)">
            <path d="M0,-7.357C-0.347,-4.061 -2.753,-1.718 -5.029,0.453C-5.516,0.917 -3.633,0.74 -3.259,0.383C-0.938,-1.831 1.563,-4.294 1.916,-7.657C1.981,-8.274 0.056,-7.885 0,-7.357" style="fill:rgb(48,50,61);fill-rule:nonzero;"/>
        </g>
        <g transform="matrix(1.39997,-0.00873836,0.00873836,1.39997,1022.46,1016.05)">
            <path d="M0,-10.121C1.074,-8.149 -1.172,-5.49 -2.303,-4.243C-2.935,-3.545 -3.483,-2.765 -4.075,-2.034C-4.347,-1.697 -5.697,-0.266 -6.263,-0.082C-7.418,0.293 -7.106,1.539 -5.931,1.158C-3.217,0.277 -1.67,-2.856 0.277,-4.744C1.661,-6.086 2.759,-9.142 1.774,-10.95C1.388,-11.66 -0.465,-10.976 0,-10.121" style="fill:rgb(48,50,61);fill-rule:nonzero;"/>
        </g>
        <g transform="matrix(1.39997,-0.00873836,0.00873836,1.39997,932.934,1011.87)">
            <path d="M0,-31.939L-3.857,-19.283L0,-11.261L13.088,-6.904C13.088,-6.904 28.557,-12.757 28.466,-10.89C28.375,-9.022 55.029,-14.086 55.029,-14.086L60.76,-15.086L64.922,-15.086C64.922,-15.086 69.062,-14.688 66.889,-9.041C66.617,-8.335 65.957,-6.515 65.204,-4.547C64.416,-2.49 63.058,-0.56 62.395,0.415C56.029,9.777 76.158,-3.424 76.158,-3.424L87.768,-12.786L96.194,-20.649L117.792,-29.264L142.33,-39.001L115.106,-40.406L76.064,-41.716L54.624,-41.248L39.176,-39.469C39.176,-39.469 20.075,-37.222 19.794,-37.316C19.514,-37.41 9.964,-34.694 9.683,-34.975C9.402,-35.256 3.212,-33.712 2.982,-33.602C2.752,-33.491 0,-31.939 0,-31.939" style="fill:rgb(238,37,64);fill-rule:nonzero;"/>
        </g>
        <g transform="matrix(1.39997,-0.00873836,0.00873836,1.39997,1448.81,1163.89)">
            <path d="M0,-47.64L-24.864,-49.565L-44.424,-47.175L-61.398,-41.987L-73.78,-38.829L-76.649,-34.361L-84.406,-31.8L-89.139,1.925C-89.139,1.925 -89.682,-3.825 -84.274,-6.357C-75.15,-10.63 -58.027,-12.698 -57.907,-13.194C-57.717,-13.983 -43.076,-17.47 -43.076,-17.47L-22.482,-19.899L-10.518,-20.162L-1.841,-20.031L0,-47.64Z" style="fill:rgb(238,37,64);fill-rule:nonzero;"/>
        </g>
        <g transform="matrix(1.39997,-0.00873836,0.00873836,1.39997,1024.32,943.868)">
            <path d="M0,51.937C0,51.937 15.982,29.784 3.658,27.518C-8.667,25.251 -38.066,28.883 -38.066,28.883C-38.066,28.883 -60.056,26.924 -45.715,12.583C-31.374,-1.758 -61.251,14.495 -61.251,14.495L-66.348,18.753L-69.438,21.64L-68.614,33.08L-65.793,36.724L-57.461,39.896L-45.954,39.593L-32.012,38.189L-13.462,34.946L-4.818,33.695L-2.706,37.574L-8.117,47.555L-2.706,43.37L-2.103,39.462L0.294,38.189L0,42.633L-3.733,49.446L-6.037,51.741L-4.818,53.695L0,51.937Z" style="fill:rgb(194,32,47);fill-rule:nonzero;"/>
        </g>
        <g transform="matrix(1.39997,-0.00873836,0.00873836,1.39997,1022.13,1016.94)">
            <path d="M0,-10.085C-0.019,-8.235 -1.031,-6.477 -2.215,-5.109C-3.43,-3.706 -4.647,-1.182 -6.398,-0.421C-7.613,0.105 -6.535,1.167 -5.538,0.735C-3.531,-0.136 -2.298,-2.416 -0.99,-4.072C0.445,-5.887 1.934,-7.79 1.959,-10.228C1.969,-11.252 0.009,-10.967 0,-10.085" style="fill:rgb(48,50,61);fill-rule:nonzero;"/>
        </g>
        <g transform="matrix(1.39997,-0.00873836,0.00873836,1.39997,1023.93,1007.96)">
            <path d="M0,-9.978C0.711,-9.014 -0.353,-5.871 -0.627,-4.952C-1.174,-3.12 -2.191,-1.093 -3.477,0.324C-4.304,1.234 -2.458,1.598 -1.851,0.93C-0.252,-0.831 0.942,-3.335 1.5,-5.631C1.838,-7.021 2.718,-9.55 1.765,-10.842C1.224,-11.576 -0.61,-10.804 0,-9.978" style="fill:rgb(48,50,61);fill-rule:nonzero;"/>
        </g>
        <g transform="matrix(1.39997,-0.00873836,0.00873836,1.39997,1022.93,1007.76)">
            <path d="M0,-5.059C-0.042,-3.384 -0.654,-1.377 -2.056,-0.344C-3.112,0.435 -1.555,1.175 -0.761,0.589C0.983,-0.696 1.908,-3.072 1.961,-5.19C1.987,-6.234 0.022,-5.97 0,-5.059" style="fill:rgb(48,50,61);fill-rule:nonzero;"/>
        </g>
        <g transform="matrix(1.39997,-0.00873836,0.00873836,1.39997,1020.85,1007.72)">
            <path d="M0,-3.709C-0.665,-2.451 -1.563,-1.402 -2.595,-0.429C-2.026,-0.33 -1.457,-0.23 -0.889,-0.131C-0.335,-1.004 0.271,-1.842 0.848,-2.7C1.389,-3.504 -0.327,-3.431 -0.687,-3.142C-1.636,-2.376 -2.358,-1.322 -2.823,-0.198C-3.222,0.767 -1.284,0.636 -0.998,-0.059C-0.654,-0.889 -0.154,-1.825 0.558,-2.398C0.046,-2.546 -0.466,-2.693 -0.977,-2.84C-1.554,-1.982 -2.161,-1.145 -2.714,-0.271C-2.904,0.029 -2.663,0.311 -2.374,0.394C-1.904,0.529 -1.356,0.356 -1.008,0.027C0.112,-1.03 1.103,-2.202 1.825,-3.568C2.305,-4.476 0.351,-4.372 0,-3.709" style="fill:rgb(48,50,61);fill-rule:nonzero;"/>
        </g>
        <g transform="matrix(1.39997,-0.00873836,0.00873836,1.39997,1123.07,1024.92)">
            <path d="M0,-53.09C0,-53.09 -138.109,-58.197 -139.609,-36.697C-141.109,-15.197 -130.609,-21.697 -126.609,-17.697C-122.609,-13.697 -66.423,-30.109 -72.266,-21.653C-78.109,-13.197 -80.896,-8.377 -88.267,5.107" style="fill:none;stroke:rgb(48,50,61);stroke-width:4.29px;"/>
        </g>
        <g transform="matrix(1.36941,-0.291069,-0.291069,-1.36941,1339.45,1170)">
            <path d="M-1.427,8.347C-1.427,8.347 48.089,20.962 80.715,8.347" style="fill:none;stroke:rgb(48,50,61);stroke-width:4.29px;"/>
        </g>
        <g transform="matrix(1.39997,-0.00873836,0.00873836,1.39997,1339.31,1092.34)">
            <path d="M0,14.405C0,14.405 33.128,0 64.128,2.139C95.128,4.278 75.128,1.922 75.128,1.922" style="fill:none;stroke:rgb(48,50,61);stroke-width:4.29px;"/>
        </g>
        <g transform="matrix(1.39997,-0.00873836,0.00873836,1.39997,1221.75,997.996)">
            <path d="M0,172.796L-15.013,179.442L-29.403,183.219L-47.174,184.821L-61.036,183.847L-75.305,180.736L-91.063,174.514L-101.771,168.3L-111.772,160.655L-120.797,151.718L-129.89,139.758L-136.494,127.789L-140.793,116.84L-144.13,103.413L-145.597,86.398L-144.449,71.318L-141.611,58.594L-136.122,44.21L-128.806,31.395L-120.625,20.886L-113.015,12.198L-103.144,5.432L-91.167,-1.665L-80.916,-6.089L-67.98,-9.817L-55.859,-11.646L-46.02,-12.025L-34.163,-11.171L-20.138,-8.265L-7.654,-3.766L3.451,1.978L14.233,9.48L25.123,19.616L34.097,28.556L39.546,39.81L45.846,54.166L49.179,66.233L51.249,82.942L50.137,101.235L47.668,112.786L41.595,128.961L36.497,138.245L27.464,150.556L17.114,160.925L6.797,168.713L0,172.796Z" style="fill:rgb(245,247,251);fill-rule:nonzero;"/>
        </g>
        <g transform="matrix(-39.4306,93.761,93.761,39.4306,1227.9,1079.67)">
            <path d="M-0.105,-0.441L0.037,-0.566L0.213,-0.628L0.335,-0.653L0.412,-0.649C0.412,-0.649 0.632,-0.614 0.642,-0.615C0.653,-0.616 0.899,-0.497 0.899,-0.497L1.066,-0.338L1.206,-0.087L1.234,0.146L1.183,0.359L0.981,0.572L0.743,0.653L0.344,0.632C0.344,0.632 -0.051,0.396 -0.048,0.39C-0.045,0.383 -0.2,0.166 -0.2,0.166L-0.258,-0.085L-0.188,-0.319L-0.105,-0.441Z" style="fill:url(#_Linear1);fill-rule:nonzero;"/>
        </g>
        <g transform="matrix(1.39997,-0.00873836,0.00873836,1.39997,1143.6,1249.54)">
            <path d="M0,-14.424L-3.395,-8.795L-5.337,-4.486L-8.197,-0.789L-9.525,2.32L-7.115,4.053L-0.508,3.769L15.177,4.983L28.143,3.785L38.256,1.312L50.879,-3.473L54.862,-5.417L56.753,-7.338L51.29,-10.373L43.226,-15.775L38.797,-19.407L32.05,-16.078C32.05,-16.078 22.815,-14.015 22.46,-14.257C22.105,-14.5 13.237,-13.674 13.237,-13.674L6.497,-13.619L2.349,-13.975L0.55,-14.561L0.246,-14.561" style="fill:rgb(61,61,69);fill-rule:nonzero;"/>
        </g>
        <g transform="matrix(1.39997,-0.00873836,0.00873836,1.39997,1112.12,1113.6)">
            <path d="M0,53.324L-1.612,56.161C-1.612,56.161 -4.599,56.585 -4.894,56.609C-5.188,56.633 -8.308,56.161 -8.308,56.161L-14.777,54.341L-27.146,49.387L-32.95,44.69L-37.536,34.313L-39.58,23.511L-39.475,18.052L-39.58,9.067L-39.58,8.219L-27.521,2.875L-12.883,-3.309L-11.754,0.097L-7.917,4.939L3.428,18.363L11.422,26.324L6.165,38.683L2.037,48.394L0,53.324Z" style="fill:rgb(61,61,69);fill-rule:nonzero;"/>
        </g>
        <g transform="matrix(1.39997,-0.00873836,0.00873836,1.39997,1037.35,1043.66)">
            <path d="M0,39.254L-4.952,38.254L-9.767,38.599L-11.568,38.754L-9.99,32.531L-8.229,26.219L-3.435,12.321L0.912,3.006L3.909,0L9.945,4.425L7.672,7.163L4.59,13.232L3.12,21.486L0.995,30.529C0.995,30.529 1.299,35.324 1.299,35.506C1.299,35.688 0.51,37.569 0.51,37.569L0,39.254Z" style="fill:rgb(61,61,69);fill-rule:nonzero;"/>
        </g>
        <g transform="matrix(1.39997,-0.00873836,0.00873836,1.39997,1103.93,1033.98)">
            <path d="M0,-14.7L-2.666,-9.033L-4.106,-6.659L-1.977,-2.169L1.037,2.135L3.04,5.23L5.341,9.072L8.868,13.105L11.819,12.242L19.027,10.754L27.331,9.186L36.037,7.821L41.032,7.31L44.363,7.557L45.964,3.05L48.302,-4.909L51.471,-12.432L53.009,-15.93L53.599,-16.619L47.132,-21.535L37.144,-25.851L30.973,-27.337L24.819,-27.805L20.29,-27.362L14.945,-25.991L9.758,-23.677L5.544,-20.784L1.274,-16.425L0,-14.7Z" style="fill:rgb(61,61,69);fill-rule:nonzero;"/>
        </g>
        <g transform="matrix(1.39997,-0.00873836,0.00873836,1.39997,1232.74,1058.91)">
            <path d="M0,-38.124L-1.491,-32.232L0.506,-29.305L5.274,-25.2L11.135,-18.587L15.824,-12.08L21.679,-3.349L24.231,-2.954L32.399,0L28.916,-9.963L17.895,-23.562C17.895,-23.562 10.249,-32.468 9.711,-32.232C9.175,-31.996 3.939,-36.173 3.939,-36.173L1.591,-38.124L0.335,-38.124" style="fill:rgb(61,61,69);fill-rule:nonzero;"/>
        </g>
        <g transform="matrix(1.39997,-0.00873836,0.00873836,1.39997,1179.69,1137.47)">
            <path d="M0,-14.789C0,-14.639 -1.001,-8.451 -1.001,-8.451L-0.25,-1.365L1.397,3.925L2.795,8.615L5.122,14.287L9.684,19.898L15.621,24.366L22.956,26.633L30.744,27.245L38.079,24.94L44.565,20.895L49.266,14.897L54.089,4.608L55.703,-4.5L55.347,-14.789C55.347,-14.789 53.072,-22.135 53.063,-22.159C53.055,-22.184 47.063,-32.805 47.063,-32.805L37.031,-40.341L30.082,-42.034L23.936,-41.777L18.704,-40.374L13.841,-37.825L9.235,-34.452C9.235,-34.452 5.44,-29.32 5.391,-29.246C5.342,-29.173 2.797,-24.652 2.797,-24.652L1.301,-19.531L0.292,-17.674L0,-14.789Z" style="fill:rgb(61,61,69);fill-rule:nonzero;"/>
        </g>
        <g transform="matrix(-0.00873836,-1.39997,-1.39997,0.00873836,1155.61,981.574)">
            <circle cx="-98.423" cy="0" r="98.423" style="fill:none;stroke:rgb(48,50,61);stroke-width:4.29px;"/>
        </g>
        <g transform="matrix(-0.00873836,-1.39997,-1.39997,0.00873836,1208.79,1061.62)">
            <ellipse cx="-46.317" cy="-0.001" rx="55.484" ry="46.317" style="fill:none;stroke:rgb(48,50,61);stroke-width:4.29px;"/>
        </g>
        <g transform="matrix(1.39997,-0.00873836,0.00873836,1.39997,1065.88,1095.07)">
            <path d="M0,59.146C-7.905,44.356 -6.63,21.66 -6.63,21.66C-12.241,16.561 -19.635,2.535 -19.635,2.535C-19.635,2.535 -29.208,0 -31.11,2.535" style="fill:none;stroke:rgb(48,50,61);stroke-width:2.14px;"/>
        </g>
        <g transform="matrix(1.39997,-0.00873836,0.00873836,1.39997,1056.84,1135.09)">
            <path d="M0,-6.886C6.12,-8.416 26.776,-18.871 26.776,-18.871C24.991,-13.516 51.002,11.219 51.002,11.219C51.002,11.219 57.509,11.985 62.543,11.219" style="fill:none;stroke:rgb(48,50,61);stroke-width:2.14px;"/>
        </g>
        <g transform="matrix(1.39997,-0.00873836,0.00873836,1.39997,1038.01,1035.6)">
            <path d="M0,45.136C0,45.136 2.805,13.986 9.435,10.18C16.065,6.374 18.105,-6.376 42.841,-7.141C42.841,-7.141 51.001,8.414 56.102,11.985C56.102,11.985 42.331,35.701 39.781,52.277" style="fill:none;stroke:rgb(48,50,61);stroke-width:2.14px;"/>
        </g>
        <g transform="matrix(1.39997,-0.00873836,0.00873836,1.39997,1116.63,1047.59)">
            <path d="M0,3.074C0,3.074 33.151,-4.322 35.701,-2.027C38.251,0.268 43.015,2.539 44.586,7.396" style="fill:none;stroke:rgb(48,50,61);stroke-width:2.14px;"/>
        </g>
        <g transform="matrix(1.39997,-0.00873836,0.00873836,1.39997,1166.26,991.244)">
            <path d="M0,37.996C0,37.996 6.039,14.025 8.885,14.025C11.73,14.025 -7.141,0 -23.971,2.805C-40.802,5.609 -46.667,17.595 -48.962,23.971" style="fill:none;stroke:rgb(48,50,61);stroke-width:2.14px;"/>
        </g>
        <g transform="matrix(-0.00873836,-1.39997,-1.39997,0.00873836,1137.13,988.047)">
            <path d="M-5.218,3.177C-5.218,3.177 0.859,5.217 3.177,3.177" style="fill:none;stroke:rgb(48,50,61);stroke-width:2.14px;"/>
        </g>
        <g transform="matrix(-1.04581,-0.930738,-0.930738,1.04581,1046.91,1041.37)">
            <path d="M-6.338,2.392C-6.338,2.392 -0.566,4.081 0.871,2.392" style="fill:none;stroke:rgb(48,50,61);stroke-width:2.14px;"/>
        </g>
        <g transform="matrix(1.39997,-0.00873836,0.00873836,1.39997,1128.86,1233.18)">
            <path d="M0,-59.16C0,-59.16 -11.221,-29.578 -13.516,-29.324C-13.516,-29.324 0.255,-5.61 9.945,-2.805C19.636,0 46.213,-3.59 49.472,-7.905" style="fill:none;stroke:rgb(48,50,61);stroke-width:2.14px;"/>
        </g>
        <g transform="matrix(1.39997,-0.00873836,0.00873836,1.39997,1256.19,1005.25)">
            <path d="M0,48.832C0,48.832 4.177,43.376 4.688,37.014C5.197,30.651 -16.989,8.21 -17.754,7.7C-18.33,7.317 -30.17,0 -42.299,0.099C-46.287,0.131 -51.335,0.533 -54.995,2.678" style="fill:none;stroke:rgb(48,50,61);stroke-width:2.14px;"/>
        </g>
        <g transform="matrix(0.15853,-1.391,-1.391,-0.15853,1236.6,1011.39)">
            <path d="M-3.162,4.806C-3.162,4.806 4.626,3.47 5.269,4.806" style="fill:none;stroke:rgb(48,50,61);stroke-width:2.14px;"/>
        </g>
        <g transform="matrix(1.20081,0.719765,0.719765,-1.20081,1267.71,1049.08)">
            <path d="M-1.232,-4.4C-1.232,-4.4 11.016,-0.751 15.706,-4.399" style="fill:none;stroke:rgb(48,50,61);stroke-width:2.14px;"/>
        </g>
        <g transform="matrix(0.962413,1.01674,1.01674,-0.962413,1277.85,1149.49)">
            <path d="M-2.237,-5.154C-2.237,-5.154 9.343,-2.854 11.872,-5.154" style="fill:none;stroke:rgb(48,50,61);stroke-width:2.14px;"/>
        </g>
        <g transform="matrix(1.39997,-0.00873836,0.00873836,1.39997,1211.38,1241)">
            <path d="M0,-26.352L-9.436,-13.861C-9.436,-13.861 4.118,0 11.111,-2.213" style="fill:none;stroke:rgb(48,50,61);stroke-width:2.14px;"/>
        </g>
        <g transform="matrix(-0.751127,1.18144,1.18144,0.751127,1141.1,1253.79)">
            <path d="M-15.482,-8.441C-15.482,-8.441 1.717,-6.072 4.601,-8.441" style="fill:none;stroke:rgb(48,50,61);stroke-width:2.14px;"/>
        </g>
        <g transform="matrix(1.39997,-0.00873836,0.00873836,1.39997,1049.42,1177.98)">
            <path d="M0,20.257C0,20.257 2.609,15.35 5.847,10.128C8.201,6.33 9.868,2.364 12.123,0C12.123,0 32.496,14.579 43.461,10.129" style="fill:none;stroke:rgb(48,50,61);stroke-width:2.14px;"/>
        </g>
        <g transform="matrix(-0.00873836,-1.39997,-1.39997,0.00873836,1217.73,1087.29)">
            <ellipse cx="-28.397" cy="0" rx="34.76" ry="28.397" style="fill:none;stroke:rgb(48,50,61);stroke-width:2.14px;"/>
        </g>
        <g transform="matrix(1.39997,-0.00873836,0.00873836,1.39997,1252.71,1090.27)">
            <path d="M0,0C0,8.987 -6.293,16.272 -14.058,16.272C-21.82,16.272 -28.114,8.987 -28.114,0C-28.114,-8.987 -21.82,-16.272 -14.058,-16.272C-6.293,-16.272 0,-8.987 0,0" style="fill:rgb(245,247,251);fill-rule:nonzero;"/>
        </g>
        <g transform="matrix(1.39997,-0.00873836,0.00873836,1.39997,1811.37,1258.74)">
            <path d="M0,-200.897L30.348,-167.16L48.558,-122.827L49.021,-82.14L32,-40.826L10.033,-11.77L-15.557,6.223L-59.929,22.333L-93.996,21.647L-124.055,15.187L-156.586,-0.972L-186.204,-28.955L-205.449,-65.883L-210.872,-101.167L-205.992,-134.706L-187.939,-171.048L-164.719,-195.334L-127.135,-216.446L-100.158,-223.23L-54.869,-223.23L-23.973,-212.705L-8.926,-204.732L0,-200.897Z" style="fill:rgb(238,37,64);fill-rule:nonzero;"/>
        </g>
        <g transform="matrix(1.39997,-0.00873836,0.00873836,1.39997,1827.28,991.442)">
            <path d="M0,-3.861C-0.814,-2.84 -1.005,-1.314 -0.916,-0.049C-0.877,0.511 1.064,0.12 1.016,-0.567C0.94,-1.63 1.1,-3.01 1.785,-3.87C2.073,-4.23 1.542,-4.372 1.279,-4.371C0.844,-4.37 0.283,-4.217 0,-3.861" style="fill:rgb(48,50,61);fill-rule:nonzero;"/>
        </g>
        <g transform="matrix(1.39997,-0.00873836,0.00873836,1.39997,1829.54,993.141)">
            <path d="M0,-5.444C-1.182,-5.321 -2.317,-4.878 -2.803,-3.73C-3.236,-2.707 -3.198,-1.406 -2.985,-0.337C-2.915,0.017 -0.971,-0.436 -1.054,-0.854C-1.188,-1.529 -1.213,-2.214 -1.161,-2.899C-1.131,-3.309 -1.042,-3.705 -0.903,-4.091C-0.846,-4.253 -0.762,-4.401 -0.675,-4.548C-0.479,-4.88 -0.209,-4.801 -0.855,-4.734C-0.43,-4.778 0.104,-4.901 0.441,-5.181C0.778,-5.461 0.141,-5.459 0,-5.444" style="fill:rgb(48,50,61);fill-rule:nonzero;"/>
        </g>
        <g transform="matrix(1.39997,-0.00873836,0.00873836,1.39997,1920.43,1005.71)">
            <path d="M0,-31.939L3.857,-19.283L0,-11.261L-13.088,-6.904C-13.088,-6.904 -28.557,-12.757 -28.466,-10.89C-28.374,-9.022 -55.028,-14.086 -55.028,-14.086L-60.76,-15.086L-64.922,-15.086C-64.922,-15.086 -69.062,-14.688 -66.888,-9.041C-66.616,-8.335 -65.956,-6.515 -65.203,-4.547C-64.415,-2.49 -63.058,-0.56 -62.395,0.415C-56.028,9.777 -76.157,-3.424 -76.157,-3.424L-87.767,-12.786L-96.193,-20.649L-117.791,-29.264L-142.329,-39.001L-115.105,-40.406L-76.063,-41.716L-54.624,-41.248L-39.176,-39.469C-39.176,-39.469 -20.075,-37.222 -19.794,-37.316C-19.514,-37.41 -9.964,-34.694 -9.683,-34.975C-9.401,-35.256 -3.212,-33.712 -2.982,-33.602C-2.752,-33.491 0,-31.939 0,-31.939" style="fill:rgb(238,37,64);fill-rule:nonzero;"/>
        </g>
        <g transform="matrix(1.39997,-0.00873836,0.00873836,1.39997,1406.5,1164.15)">
            <path d="M0,-47.64L24.864,-49.565L44.425,-47.175L61.397,-41.987L73.78,-38.829L76.649,-34.361L84.405,-31.8L89.14,1.925C89.14,1.925 89.683,-3.825 84.274,-6.357C75.149,-10.63 58.026,-12.698 57.907,-13.194C57.717,-13.983 43.075,-17.47 43.075,-17.47L22.481,-19.899L10.519,-20.162L1.841,-20.031L0,-47.64Z" style="fill:rgb(238,37,64);fill-rule:nonzero;"/>
        </g>
        <g transform="matrix(-1.37293,-0.273952,-0.273952,1.37293,1411.59,1116.18)">
            <path d="M-81.879,14C-81.879,14 -32.363,1.385 0.263,14" style="fill:none;stroke:rgb(48,50,61);stroke-width:4.29px;"/>
        </g>
        <g transform="matrix(1.39997,-0.00873836,0.00873836,1.39997,1515.1,1091.24)">
            <path d="M0,14.405C0,14.405 -33.128,0 -64.128,2.139C-95.128,4.278 -75.128,1.922 -75.128,1.922" style="fill:none;stroke:rgb(48,50,61);stroke-width:4.29px;"/>
        </g>
        <g transform="matrix(1.39997,-0.00873836,0.00873836,1.39997,1631.46,995.439)">
            <path d="M0,172.796L15.013,179.442L29.402,183.219L47.174,184.821L61.035,183.847L75.305,180.736L91.063,174.514L101.771,168.3L111.771,160.655L120.797,151.718L129.889,139.758L136.493,127.789L140.793,116.84L144.129,103.413L145.597,86.398L144.448,71.318L141.61,58.594L136.121,44.21L128.805,31.395L120.625,20.886L113.014,12.198L103.143,5.432L91.166,-1.665L80.915,-6.089L67.979,-9.817L55.858,-11.646L46.02,-12.025L34.162,-11.171L20.137,-8.265L7.653,-3.766L-3.451,1.978L-14.234,9.48L-25.123,19.616L-34.098,28.556L-39.547,39.81L-45.847,54.166L-49.18,66.233L-51.25,82.942L-50.138,101.235L-47.669,112.786L-41.596,128.961L-36.497,138.245L-27.465,150.556L-17.114,160.925L-6.798,168.713L0,172.796Z" style="fill:rgb(245,247,251);fill-rule:nonzero;"/>
        </g>
        <g transform="matrix(40.598,93.2615,-93.2615,40.598,1626.34,1077.18)">
            <path d="M-0.258,-0.085L-0.2,0.166C-0.2,0.166 -0.045,0.383 -0.048,0.39C-0.051,0.396 0.344,0.632 0.344,0.632L0.743,0.653L0.981,0.572L1.183,0.359L1.234,0.146L1.206,-0.087L1.066,-0.338L0.899,-0.497C0.899,-0.497 0.653,-0.616 0.642,-0.615C0.632,-0.614 0.412,-0.649 0.412,-0.649L0.335,-0.653L0.213,-0.628L0.037,-0.566L-0.105,-0.441L-0.188,-0.319L-0.258,-0.085Z" style="fill:url(#_Linear2);fill-rule:nonzero;"/>
        </g>
        <g transform="matrix(1.39997,-0.00873836,0.00873836,1.39997,1712.75,1245.99)">
            <path d="M0,-14.424L3.396,-8.795L5.337,-4.486L8.196,-0.789L9.525,2.32L7.114,4.053L0.508,3.769L-15.177,4.983L-28.143,3.785L-38.256,1.312L-50.88,-3.473L-54.862,-5.417L-56.753,-7.338L-51.29,-10.373L-43.226,-15.775L-38.797,-19.407L-32.05,-16.078C-32.05,-16.078 -22.815,-14.015 -22.46,-14.257C-22.105,-14.5 -13.237,-13.674 -13.237,-13.674L-6.497,-13.619L-2.349,-13.975L-0.55,-14.561L-0.246,-14.561" style="fill:rgb(61,61,69);fill-rule:nonzero;"/>
        </g>
        <g transform="matrix(1.39997,-0.00873836,0.00873836,1.39997,1742.53,1109.67)">
            <path d="M0,53.324L1.611,56.161C1.611,56.161 4.599,56.585 4.894,56.609C5.188,56.633 8.308,56.161 8.308,56.161L14.776,54.341L27.146,49.387L32.949,44.69L37.535,34.313L39.58,23.511L39.475,18.052L39.58,9.067L39.58,8.219L27.521,2.875L12.883,-3.309L11.754,0.097L7.916,4.939L-3.429,18.363L-11.423,26.324L-6.165,38.683L-2.037,48.394L0,53.324Z" style="fill:rgb(61,61,69);fill-rule:nonzero;"/>
        </g>
        <g transform="matrix(1.39997,-0.00873836,0.00873836,1.39997,1816.42,1038.8)">
            <path d="M0,39.254L4.952,38.254L9.767,38.599L11.567,38.754L9.989,32.531L8.229,26.219L3.435,12.321L-0.911,3.006L-3.909,0L-9.945,4.425L-7.672,7.163L-4.59,13.232L-3.12,21.486L-0.995,30.529C-0.995,30.529 -1.299,35.324 -1.299,35.506C-1.299,35.688 -0.511,37.569 -0.511,37.569L0,39.254Z" style="fill:rgb(61,61,69);fill-rule:nonzero;"/>
        </g>
        <g transform="matrix(1.39997,-0.00873836,0.00873836,1.39997,1749.73,1029.94)">
            <path d="M0,-14.7L2.665,-9.033L4.105,-6.659L1.977,-2.169L-1.037,2.135L-3.04,5.23L-5.342,9.072L-8.868,13.105L-11.819,12.242L-19.027,10.754L-27.331,9.186L-36.037,7.821L-41.033,7.31L-44.363,7.557L-45.965,3.05L-48.303,-4.909L-51.472,-12.432L-53.01,-15.93L-53.6,-16.619L-47.133,-21.535L-37.145,-25.851L-30.973,-27.337L-24.819,-27.805L-20.291,-27.362L-14.945,-25.991L-9.758,-23.677L-5.545,-20.784L-1.275,-16.425L0,-14.7Z" style="fill:rgb(61,61,69);fill-rule:nonzero;"/>
        </g>
        <g transform="matrix(1.39997,-0.00873836,0.00873836,1.39997,1621.23,1056.48)">
            <path d="M0,-38.124L1.491,-32.232L-0.506,-29.305L-5.274,-25.2L-11.136,-18.587L-15.824,-12.08L-21.679,-3.349L-24.231,-2.954L-32.399,0L-28.916,-9.963L-17.895,-23.562C-17.895,-23.562 -10.249,-32.468 -9.712,-32.232C-9.175,-31.996 -3.939,-36.173 -3.939,-36.173L-1.591,-38.124L-0.335,-38.124" style="fill:rgb(61,61,69);fill-rule:nonzero;"/>
        </g>
        <g transform="matrix(1.39997,-0.00873836,0.00873836,1.39997,1675.27,1134.38)">
            <path d="M0,-14.789C0,-14.639 1.001,-8.451 1.001,-8.451L0.249,-1.365L-1.397,3.925L-2.795,8.615L-5.122,14.287L-9.685,19.898L-15.621,24.366L-22.956,26.633L-30.744,27.245L-38.079,24.94L-44.565,20.895L-49.267,14.897L-54.089,4.608L-55.702,-4.5L-55.347,-14.789C-55.347,-14.789 -53.072,-22.135 -53.063,-22.159C-53.055,-22.184 -47.063,-32.805 -47.063,-32.805L-37.031,-40.341L-30.082,-42.034L-23.937,-41.777L-18.704,-40.374L-13.841,-37.825L-9.235,-34.452C-9.235,-34.452 -5.44,-29.32 -5.391,-29.246C-5.342,-29.173 -2.797,-24.652 -2.797,-24.652L-1.301,-19.531L-0.292,-17.674L0,-14.789Z" style="fill:rgb(61,61,69);fill-rule:nonzero;"/>
        </g>
        <g transform="matrix(0.00873836,1.39997,1.39997,-0.00873836,1697.4,978.192)">
            <ellipse cx="98.424" cy="0" rx="98.423" ry="98.424" style="fill:none;stroke:rgb(48,50,61);stroke-width:4.29px;"/>
        </g>
        <g transform="matrix(0.00873836,1.39997,1.39997,-0.00873836,1645.22,1058.9)">
            <ellipse cx="46.317" cy="-0.001" rx="55.484" ry="46.317" style="fill:none;stroke:rgb(48,50,61);stroke-width:4.29px;"/>
        </g>
        <g transform="matrix(1.39997,-0.00873836,0.00873836,1.39997,1788.54,1090.56)">
            <path d="M0,59.146C7.905,44.356 6.631,21.66 6.631,21.66C12.24,16.561 19.635,2.535 19.635,2.535C19.635,2.535 29.208,0 31.11,2.535" style="fill:none;stroke:rgb(48,50,61);stroke-width:2.14px;"/>
        </g>
        <g transform="matrix(1.39997,-0.00873836,0.00873836,1.39997,1798.07,1130.47)">
            <path d="M0,-6.886C-6.121,-8.416 -26.776,-18.871 -26.776,-18.871C-24.992,-13.516 -51.003,11.219 -51.003,11.219C-51.003,11.219 -57.51,11.985 -62.544,11.219" style="fill:none;stroke:rgb(48,50,61);stroke-width:2.14px;"/>
        </g>
        <g transform="matrix(1.39997,-0.00873836,0.00873836,1.39997,1815.66,1030.75)">
            <path d="M0,45.136C0,45.136 -2.805,13.986 -9.435,10.18C-16.064,6.374 -18.105,-6.376 -42.841,-7.141C-42.841,-7.141 -51.001,8.414 -56.102,11.985C-56.102,11.985 -42.33,35.701 -39.78,52.277" style="fill:none;stroke:rgb(48,50,61);stroke-width:2.14px;"/>
        </g>
        <g transform="matrix(1.39997,-0.00873836,0.00873836,1.39997,1737.19,1043.71)">
            <path d="M0,3.074C0,3.074 -33.15,-4.322 -35.701,-2.027C-38.252,0.268 -43.015,2.539 -44.586,7.396" style="fill:none;stroke:rgb(48,50,61);stroke-width:2.14px;"/>
        </g>
        <g transform="matrix(1.39997,-0.00873836,0.00873836,1.39997,1686.86,987.994)">
            <path d="M0,37.996C0,37.996 -6.039,14.025 -8.885,14.025C-11.73,14.025 7.141,0 23.971,2.805C40.802,5.609 46.666,17.595 48.962,23.971" style="fill:none;stroke:rgb(48,50,61);stroke-width:2.14px;"/>
        </g>
        <g transform="matrix(-0.00873836,-1.39997,-1.39997,0.00873836,1727.72,987.218)">
            <path d="M-3.177,5.218C-3.177,5.218 2.9,3.177 5.218,5.218" style="fill:none;stroke:rgb(48,50,61);stroke-width:2.14px;"/>
        </g>
        <g transform="matrix(1.03411,-0.943721,-0.943721,-1.03411,1805.78,1046.73)">
            <path d="M-0.919,2.434C-0.919,2.434 4.853,0.745 6.29,2.434" style="fill:none;stroke:rgb(48,50,61);stroke-width:2.14px;"/>
        </g>
        <g transform="matrix(1.39997,-0.00873836,0.00873836,1.39997,1727.29,1229.44)">
            <path d="M0,-59.16C0,-59.16 11.221,-29.578 13.516,-29.324C13.516,-29.324 -0.255,-5.61 -9.945,-2.805C-19.636,0 -46.213,-3.59 -49.472,-7.905" style="fill:none;stroke:rgb(48,50,61);stroke-width:2.14px;"/>
        </g>
        <g transform="matrix(1.39997,-0.00873836,0.00873836,1.39997,1597.12,1003.12)">
            <path d="M0,48.832C0,48.832 -4.177,43.376 -4.688,37.014C-5.197,30.651 16.989,8.21 17.754,7.7C18.33,7.317 30.17,0 42.299,0.099C46.287,0.131 51.335,0.533 54.994,2.678" style="fill:none;stroke:rgb(48,50,61);stroke-width:2.14px;"/>
        </g>
        <g transform="matrix(-0.176045,-1.38889,-1.38889,0.176045,1628.01,1004.41)">
            <path d="M-5.418,3.566C-5.418,3.566 2.37,4.9 3.013,3.566" style="fill:none;stroke:rgb(48,50,61);stroke-width:2.14px;"/>
        </g>
        <g transform="matrix(-1.19175,0.734663,0.734663,1.19175,1575.36,1068.21)">
            <path d="M-15.707,-4.4C-15.707,-4.4 -3.459,-8.047 1.232,-4.399" style="fill:none;stroke:rgb(48,50,61);stroke-width:2.14px;"/>
        </g>
        <g transform="matrix(-0.949646,1.02868,1.02868,0.949646,1578.72,1167.32)">
            <path d="M-11.872,-5.154C-11.872,-5.154 -0.292,-7.453 2.237,-5.154" style="fill:none;stroke:rgb(48,50,61);stroke-width:2.14px;"/>
        </g>
        <g transform="matrix(1.39997,-0.00873836,0.00873836,1.39997,1644.87,1238.29)">
            <path d="M0,-26.352L9.436,-13.861C9.436,-13.861 -4.118,0 -11.111,-2.213" style="fill:none;stroke:rgb(48,50,61);stroke-width:2.14px;"/>
        </g>
        <g transform="matrix(0.765817,1.17197,1.17197,-0.765817,1726.75,1224.53)">
            <path d="M-4.601,-8.441C-4.601,-8.441 12.598,-10.81 15.482,-8.441" style="fill:none;stroke:rgb(48,50,61);stroke-width:2.14px;"/>
        </g>
        <g transform="matrix(1.39997,-0.00873836,0.00873836,1.39997,1806.03,1173.26)">
            <path d="M0,20.257C0,20.257 -2.609,15.35 -5.847,10.128C-8.201,6.33 -9.867,2.364 -12.123,0C-12.123,0 -32.496,14.579 -43.461,10.129" style="fill:none;stroke:rgb(48,50,61);stroke-width:2.14px;"/>
        </g>
        <g transform="matrix(0.00873836,1.39997,1.39997,-0.00873836,1636.6,1084.68)">
            <ellipse cx="28.397" cy="0" rx="34.76" ry="28.397" style="fill:none;stroke:rgb(48,50,61);stroke-width:2.14px;"/>
        </g>
        <g transform="matrix(1.39997,-0.00873836,0.00873836,1.39997,1515.34,1130.03)">
            <path d="M0,7.7C0,7.7 -10.43,-1.049 -15.459,-2.566C-18.618,-3.519 -22.042,-4.434 -25.662,-5.23C-29.167,-6 -32.943,-6.783 -36.864,-7.418C-39.77,-7.889 -42.756,-8.279 -45.772,-8.522C-50.46,-8.9 -55.553,-9.372 -60.19,-8.794C-60.19,-8.794 -70.586,-8.867 -83.124,-6.959C-87.27,-6.328 -91.127,-5.604 -94.814,-4.673C-99.463,-3.499 -103.843,-1.996 -108.19,0.066C-110.222,1.029 -118.471,5.544 -120.272,6.999L-130.921,17.072L-106.94,7.905L-90.857,3.405L-72.857,-0.428L-61.69,-0.678L-48.44,0.405L-34.107,3.488L-23.357,6.405L-10.857,10.655L5.724,17.072L4.475,13.588L0,7.7Z" style="fill:rgb(239,90,114);fill-rule:nonzero;"/>
        </g>
        <g transform="matrix(1.39997,-0.00873836,0.00873836,1.39997,1601.66,1088.09)">
            <path d="M0,0C0,8.987 6.293,16.272 14.058,16.272C21.82,16.272 28.114,8.987 28.114,0C28.114,-8.987 21.82,-16.272 14.058,-16.272C6.293,-16.272 0,-8.987 0,0" style="fill:rgb(245,247,251);fill-rule:nonzero;"/>
        </g>
        <g transform="matrix(1.39997,-0.00873836,0.00873836,1.39997,1677.94,964.376)">
            <path d="M0,227.67C0,227.67 32.92,225.418 64.851,211.003C95.22,197.295 124.553,172.329 129.184,137.476C132.635,111.499 131.252,107.316 130.184,92.031C128.628,69.789 115.693,52.712 107.447,37.124C105.763,33.939 103.396,29.191 101.517,25.807C84.126,-5.515 114.184,3.17 125.184,2.17C128.839,1.837 154.198,10.329 163.934,8.92C171.09,7.884 162.56,-3.362 167.559,-2.705C176.226,-1.566 175.539,6.915 175.539,6.915L174.684,19.69L160.955,23.36L151.059,21.42L129.184,20.626L112.809,17.17L112.265,23.137L112.265,28.412L135.949,65.535L142.785,108.378L142.191,130.714L138.718,139.147L136.363,152.809L124.069,176.094L101.684,198.67L76.797,217.937L34.067,233.185L-9.816,233.185L0,227.67Z" style="fill:rgb(239,90,114);fill-rule:nonzero;"/>
        </g>
        <g transform="matrix(0.00873836,1.39997,1.39997,-0.00873836,1697.13,934.81)">
            <ellipse cx="130.717" cy="0" rx="123.5" ry="130.717" style="fill:none;stroke:rgb(48,50,61);stroke-width:4.29px;"/>
        </g>
        <g transform="matrix(1.39997,-0.00873836,0.00873836,1.39997,1730.48,1021.13)">
            <path d="M0,-53.09C0,-53.09 138.109,-58.197 139.609,-36.697C141.109,-15.197 130.609,-21.697 126.609,-17.697C122.609,-13.697 66.423,-30.109 72.266,-21.653C78.109,-13.197 80.896,-8.377 88.267,5.107" style="fill:none;stroke:rgb(48,50,61);stroke-width:4.29px;"/>
        </g>
        <g transform="matrix(1.39997,-0.00873836,0.00873836,1.39997,1826.86,1017.3)">
            <path d="M0,-20.344C0,-20.344 -2.868,-21.297 7.923,-3.464C18.714,14.37 -1.036,-8.131 -1.036,-8.131L-7.787,-19.119C-7.787,-19.119 -9.828,-23.394 -9.849,-29.054C-9.869,-34.714 -2.348,-31.047 -2.348,-31.047L-1.452,-25.131L0,-20.344Z" style="fill:rgb(239,90,114);fill-rule:nonzero;"/>
        </g>
        <g transform="matrix(1.39997,-0.00873836,0.00873836,1.39997,1760.27,993.797)">
            <path d="M0,-31.209L-21.402,-30.118L-11.828,-20.378L9.506,-11.427L40.719,0.319L38.976,-3.832L37.923,-8.628L38.34,-13.211L39.396,-16.461L40.646,-17.252L38.506,-21.711L34.299,-23.255L25.339,-26.545L9.501,-31.528L0,-31.209Z" style="fill:rgb(238,37,64);fill-rule:nonzero;"/>
        </g>
    </g>
    <g transform="matrix(3.17959,0,0,3.25941,-618.367,-539.749)">
        <g id="Final-Product-Setup--Rec-" serif:id="Final Product Setup (Rec)">
            <rect x="194.48" y="165.597" width="943.517" height="920.411" style="fill:none;"/>
        </g>
    </g>
    <defs>
        <linearGradient id="_Linear1" x1="0" y1="0" x2="1" y2="0" gradientUnits="userSpaceOnUse" gradientTransform="matrix(1,-5.55112e-17,0,-1,-8.88178e-16,2.45176e-05)"><stop offset="0" style="stop-color:rgb(6,103,56);stop-opacity:1"/><stop offset="0.98" style="stop-color:rgb(201,205,113);stop-opacity:1"/><stop offset="1" style="stop-color:rgb(201,205,113);stop-opacity:1"/></linearGradient>
        <linearGradient id="_Linear2" x1="0" y1="0" x2="1" y2="0" gradientUnits="userSpaceOnUse" gradientTransform="matrix(1,5.55112e-17,5.55112e-17,-1,0,2.93022e-05)"><stop offset="0" style="stop-color:rgb(6,103,56);stop-opacity:1"/><stop offset="0.98" style="stop-color:rgb(201,205,113);stop-opacity:1"/><stop offset="1" style="stop-color:rgb(201,205,113);stop-opacity:1"/></linearGradient>
    </defs>
</svg>
