<?xml version="1.0" encoding="UTF-8"?>
<!DOCTYPE svg PUBLIC "-//W3C//DTD SVG 1.1//EN" "http://www.w3.org/Graphics/SVG/1.1/DTD/svg11.dtd">
<svg version="1.1" xmlns="http://www.w3.org/2000/svg" xmlns:xlink="http://www.w3.org/1999/xlink" x="0" y="0" width="360" height="360" viewBox="0, 0, 360, 360">
  <g id="Layer_2">
    <path d="M126.81,184.679 C136.769,180.461 238.597,174.062 249.819,184.263" fill-opacity="0" stroke="#31323D" stroke-width="4" stroke-linecap="round"/>
    <path d="M163.114,333.21 C122.913,330.76 90.611,324.042 90.967,318.206 C91.323,312.369 124.201,309.625 164.402,312.075 C204.604,314.526 236.906,321.244 236.55,327.08 C236.194,332.916 203.316,335.661 163.114,333.21 z" fill="#31323D" fill-opacity="0.381"/>
    <g>
      <path d="M128.855,136.422 C158.499,138.692 221.444,139.73 249.819,135.275 C250.393,157.158 242.277,298.731 237.756,327.292 C209.811,336.539 158.66,334.632 138.414,327.572 C134.606,309.21 128.885,149.9 128.855,136.422 z" fill="#FFFFFF"/>
      <path d="M128.855,136.422 C158.499,138.692 221.444,139.73 249.819,135.275 C250.393,157.158 242.277,298.731 237.756,327.292 C209.811,336.539 158.66,334.632 138.414,327.572 C134.606,309.21 128.885,149.9 128.855,136.422 z" fill-opacity="0" stroke="#31323D" stroke-width="4.1"/>
    </g>
    <g>
      <path d="M190.155,141.895 C159.024,141.895 133.786,138.668 133.786,134.688 C133.786,130.707 159.024,127.48 190.155,127.48 C221.287,127.48 246.525,130.707 246.525,134.688 C246.525,138.668 221.287,141.895 190.155,141.895 z" fill="#FFFFFF"/>
      <path d="M190.155,141.895 C159.024,141.895 133.786,138.668 133.786,134.688 C133.786,130.707 159.024,127.48 190.155,127.48 C221.287,127.48 246.525,130.707 246.525,134.688 C246.525,138.668 221.287,141.895 190.155,141.895 z" fill-opacity="0" stroke="#31323D" stroke-width="4"/>
    </g>
    <g>
      <path d="M238.436,193.987 C238.436,210.356 226.905,223.627 212.68,223.627 C198.455,223.627 186.923,210.356 186.923,193.987 C186.923,177.617 198.455,164.347 212.68,164.347 C226.905,164.347 238.436,177.617 238.436,193.987 z" fill="#FFD9FF"/>
      <path d="M222.285,210.946 C224.072,209.029 225.723,206.942 227.222,204.705 C229.129,205.183 230.235,204.375 230.235,204.375 C228.61,202.69 228.077,201.56 228.077,201.56 C229.429,202.179 230.946,202.017 232.183,201.121 C233.419,200.226 228.264,198.531 227.707,196.46 C225.644,188.783 225.801,188.087 225.801,188.087 C226.961,184.371 227.948,180.12 227.039,178.741 C225.872,176.955 224.416,179.754 220.816,182.63 C220.816,182.63 218.658,180.193 212.87,180.193 C209.042,180.193 205.181,182.674 205.181,182.674 C203.549,181.23 202.467,179.907 201.174,179.01 C199.182,177.643 198.242,178.89 198.979,181.894 C199.277,183.1 199.746,185.763 200.21,188.127 C200.55,189.833 200.183,189.434 199.047,194.647 C198.642,195.921 198.115,197.135 197.476,198.266 C196.21,200.578 193.808,201.142 193.808,201.142 C195.044,202.037 196.562,202.199 197.913,201.58 C199.265,200.961 197.381,202.71 195.755,204.395 C195.755,204.395 196.862,205.199 198.768,204.725 C198.768,204.725 199.864,208.216 203.481,210.681 C203.481,210.681 205.924,214.071 212.89,214.071 C219.157,214.051 222.285,210.946 222.285,210.946 z" fill="#FFE888"/>
      <path d="M207.281,181.351 C207.281,181.351 200.204,189.29 201.14,200.108 C202.158,212.012 212.877,214.051 212.877,214.051 C212.877,214.051 204.37,214.59 198.755,204.705 C198.755,204.705 196.719,205.565 195.742,204.375 C195.742,204.375 197.571,202.979 197.9,201.56 C197.9,201.56 196.034,202.71 193.794,201.121 C195.554,200.574 197.051,199.202 197.941,197.321 C200.241,192.636 200.295,184.982 207.281,181.351 z" fill="#EABA5C"/>
      <path d="M204.034,184.062 C204.034,184.062 202.623,182.69 201.025,181.275 C199.769,180.161 199.199,180.128 198.884,181.367 L200.373,188.743 L201.73,187.717 L202.847,185.533 z" fill="#EABA5C"/>
      <path d="M217.881,170.513 L212.978,161.392 L208.075,170.448 L212.978,177.39 L217.881,170.513 z" fill="#FD71F3"/>
      <path d="M217.881,170.513 L212.978,168.453 L208.075,170.448 L212.978,172.359 L217.881,170.513 z" fill="#FFCCFE"/>
      <path d="M210.658,170.159 L212.978,162.127 L208.075,170.448 L212.978,176.758 L210.658,170.159 z" fill="#F930E7" opacity="0.99"/>
      <path d="M210.658,170.159 L210.983,169.029 L208.075,170.448 L211.265,171.884 L210.658,170.159 z" fill="#FFA4FF" opacity="0.99"/>
      <path d="M221.98,184.062 C221.98,184.062 223.392,182.69 224.99,181.275 C226.245,180.161 226.815,180.128 227.131,181.367 L225.641,188.743 L224.284,187.717 L223.168,185.533 z" fill="#EABA5C"/>
      <path d="M199.255,205.205 C197.348,205.683 196.242,204.875 196.242,204.875 C197.867,203.19 198.4,202.06 198.4,202.06 C197.048,202.679 195.531,202.517 194.294,201.621 C196.079,201.134 197.594,199.746 198.441,197.821 C199.418,195.553 200.717,191.085 201.766,188.816 C204.463,182.993 207.971,180.685 213.37,180.685 C218.381,180.685 222.548,182.993 225.245,188.816 C226.297,191.085 227.597,195.553 228.574,197.821 C229.42,199.746 230.936,201.134 232.72,201.621 C231.484,202.517 229.966,202.679 228.615,202.06 C227.263,201.441 229.147,203.19 230.773,204.875 C230.773,204.875 229.666,205.679 227.76,205.205 C227.76,205.205 222.836,214.551 213.509,214.551 C204.181,214.551 199.255,205.205 199.255,205.205 z" fill-opacity="0" stroke="#44392E" stroke-width="0.742" stroke-linecap="round" stroke-linejoin="round"/>
      <path d="M218.381,171.013 L213.478,161.892 L208.575,170.948 L213.478,177.89 L218.381,171.013 z" fill-opacity="0" stroke="#3D2A3F" stroke-width="0.69" stroke-linecap="round" stroke-linejoin="round"/>
      <path d="M218.381,171.013 L213.478,168.732 L208.575,170.948 L213.478,173.156 L218.381,171.013 z" fill-opacity="0" stroke="#3D2A3F" stroke-width="0.69" stroke-linecap="round" stroke-linejoin="round"/>
      <path d="M213.478,161.891 L213.478,177.89" fill-opacity="0" stroke="#3D2A3F" stroke-width="0.69" stroke-linecap="round" stroke-miterlimit="10"/>
      <path d="M218.151,166.162 L220.475,164.373" fill-opacity="0" stroke="#FF6CF5" stroke-width="1.078" stroke-linecap="round" stroke-miterlimit="10"/>
      <path d="M207.558,175.633 L206.489,176.571" fill-opacity="0" stroke="#FF6CF5" stroke-width="1.078" stroke-linecap="round" stroke-miterlimit="10"/>
      <path d="M207.435,165.696 L205.695,164.176" fill-opacity="0" stroke="#FF6CF5" stroke-width="1.078" stroke-linecap="round" stroke-miterlimit="10"/>
      <path d="M221.058,169.891 L221.058,169.891" fill-opacity="0" stroke="#FF6CF5" stroke-width="1.078" stroke-linecap="round" stroke-miterlimit="10"/>
      <path d="M206.126,169.891 L206.126,169.891" fill-opacity="0" stroke="#FF6CF5" stroke-width="1.078" stroke-linecap="round" stroke-miterlimit="10"/>
      <path d="M218.5,175.086 L219.816,176.18" fill-opacity="0" stroke="#FF6CF5" stroke-width="1.078" stroke-linecap="round" stroke-miterlimit="10"/>
      <path d="M205.433,182.937 C205.433,182.937 202.458,180.242 201.674,179.51 C200.218,178.175 198.746,178.815 199.299,181.549 C199.672,183.363 200.877,189.243 200.877,189.243" fill-opacity="0" stroke="#44392E" stroke-width="0.742" stroke-linecap="round" stroke-linejoin="round"/>
      <path d="M221.316,183.122 C221.316,183.122 224.54,180.202 225.34,179.466 C226.793,178.131 228.265,178.77 227.715,181.505 C227.342,183.323 226.151,189.243 226.151,189.243" fill-opacity="0" stroke="#44392E" stroke-width="0.742" stroke-linecap="round" stroke-linejoin="round"/>
      <g>
        <path d="M209.179,193.634 C209.179,196.886 206.955,199.522 204.212,199.522 C201.469,199.522 199.245,196.886 199.245,193.634 C199.245,190.383 201.469,187.747 204.212,187.747 C206.955,187.747 209.179,190.383 209.179,193.634 z" fill="#FFFFFF"/>
        <path d="M209.179,193.634 C209.179,196.886 206.955,199.522 204.212,199.522 C201.469,199.522 199.245,196.886 199.245,193.634 C199.245,190.383 201.469,187.747 204.212,187.747 C206.955,187.747 209.179,190.383 209.179,193.634 z" fill-opacity="0" stroke="#44392E" stroke-width="0.742" stroke-miterlimit="10"/>
      </g>
      <g>
        <path d="M207.161,192.882 C207.161,194.795 205.853,196.345 204.239,196.345 C202.626,196.345 201.318,194.795 201.318,192.882 C201.318,190.97 202.626,189.42 204.239,189.42 C205.853,189.42 207.161,190.97 207.161,192.882 z" fill="#F930E7"/>
        <path d="M207.161,192.882 C207.161,194.795 205.853,196.345 204.239,196.345 C202.626,196.345 201.318,194.795 201.318,192.882 C201.318,190.97 202.626,189.42 204.239,189.42 C205.853,189.42 207.161,190.97 207.161,192.882 z" fill-opacity="0" stroke="#F930E7" stroke-width="1.017" stroke-miterlimit="10"/>
      </g>
      <path d="M204.721,188.711 C205.278,189.371 205.276,190.443 204.718,191.106 C204.159,191.769 203.254,191.772 202.697,191.113 C202.141,190.454 202.142,189.382 202.701,188.718 C203.26,188.055 204.164,188.052 204.721,188.711 z" fill="#FFFFFF"/>
      <g>
        <path d="M227.8,193.634 C227.8,196.886 225.576,199.522 222.833,199.522 C220.089,199.522 217.866,196.886 217.866,193.634 C217.866,190.383 220.089,187.747 222.833,187.747 C225.576,187.747 227.8,190.383 227.8,193.634 z" fill="#FFFFFF"/>
        <path d="M227.8,193.634 C227.8,196.886 225.576,199.522 222.833,199.522 C220.089,199.522 217.866,196.886 217.866,193.634 C217.866,190.383 220.089,187.747 222.833,187.747 C225.576,187.747 227.8,190.383 227.8,193.634 z" fill-opacity="0" stroke="#44392E" stroke-width="0.742" stroke-miterlimit="10"/>
      </g>
      <g>
        <path d="M225.785,192.882 C225.785,194.795 224.477,196.345 222.863,196.345 C221.25,196.345 219.942,194.795 219.942,192.882 C219.942,190.97 221.25,189.42 222.863,189.42 C224.477,189.42 225.785,190.97 225.785,192.882 z" fill="#F930E7"/>
        <path d="M225.785,192.882 C225.785,194.795 224.477,196.345 222.863,196.345 C221.25,196.345 219.942,194.795 219.942,192.882 C219.942,190.97 221.25,189.42 222.863,189.42 C224.477,189.42 225.785,190.97 225.785,192.882 z" fill-opacity="0" stroke="#F930E7" stroke-width="1.017" stroke-miterlimit="10"/>
      </g>
      <path d="M223.341,188.713 C223.897,189.372 223.896,190.444 223.337,191.107 C222.778,191.77 221.874,191.774 221.317,191.114 C220.76,190.455 220.762,189.383 221.321,188.72 C221.879,188.057 222.784,188.054 223.341,188.713 z" fill="#FFFFFF"/>
      <path d="M215.859,203.466 C215.859,205.453 214.607,207.632 213.06,207.632 C211.513,207.632 210.264,205.457 210.264,203.474 L213.05,201.399 z" fill="#44392E"/>
      <path d="M215.323,206.285 C214.722,205.554 213.895,205.146 213.034,205.155 C212.173,205.164 211.352,205.59 210.763,206.333 L213.05,207.516 z" fill="#F930E7"/>
      <path d="M211.439,206.898 C211.643,206.186 212.515,205.655 213.563,205.655 C214.537,205.655 215.361,206.114 215.633,206.749" fill-opacity="0" stroke="#44392E" stroke-width="0.508" stroke-linecap="round" stroke-miterlimit="10"/>
      <path d="M213.363,202.9 L213.77,202.9" fill-opacity="0" stroke="#FFFFFF" stroke-width="1.937" stroke-linecap="round" stroke-linejoin="round"/>
      <path d="M220.317,202.601 C219.668,203.236 218.877,203.634 218.041,203.748 C217.21,203.87 216.366,203.793 215.56,203.522 C214.724,203.266 213.959,202.754 213.341,202.038 C213.002,201.639 212.766,201.132 212.663,200.578 C212.64,200.435 212.626,200.29 212.622,200.144 L212.622,199.79 L212.602,199.082 C212.582,198.879 212.661,198.681 212.805,198.568 C212.948,198.456 213.133,198.448 213.283,198.549 C213.433,198.65 213.522,198.842 213.514,199.046 L213.514,199.082 L213.494,199.79 L213.494,200.144 C213.487,200.234 213.487,200.324 213.494,200.414 C213.546,200.792 213.689,201.145 213.905,201.431 C214.412,202.077 215.053,202.554 215.764,202.814 C216.484,203.11 217.247,203.232 218.007,203.172 C218.767,203.123 219.499,202.813 220.114,202.28 C220.191,202.212 220.299,202.23 220.358,202.32 C220.411,202.411 220.393,202.536 220.317,202.601 z" fill="#44392E"/>
      <path d="M206.359,202.304 C206.946,202.859 207.674,203.165 208.425,203.172 C209.176,203.201 209.924,203.043 210.62,202.71 C211.291,202.412 211.879,201.898 212.317,201.226 C212.503,200.931 212.604,200.573 212.605,200.204 C212.605,199.762 212.581,199.279 212.605,198.817 L212.605,198.817 C212.626,198.536 212.824,198.321 213.061,198.321 C213.299,198.321 213.497,198.536 213.518,198.817 C213.518,199.288 213.518,199.738 213.497,200.229 C213.482,200.52 213.427,200.806 213.335,201.077 C213.239,201.332 213.117,201.571 212.972,201.789 C212.404,202.555 211.663,203.113 210.837,203.398 C210.048,203.705 209.214,203.814 208.388,203.719 C207.551,203.64 206.761,203.232 206.141,202.561 C206.08,202.488 206.08,202.369 206.141,202.296 C206.204,202.23 206.299,202.234 206.359,202.304 z" fill="#44392E"/>
      <path d="M216.359,204.288 C216.359,206.138 215.107,208.016 213.56,208.016 C212.013,208.016 210.764,206.138 210.764,204.288" fill-opacity="0" stroke="#44392E" stroke-width="0.847" stroke-linecap="round" stroke-miterlimit="10"/>
      <path d="M210.691,198.797 C210.617,198.552 210.667,198.279 210.82,198.093 C211.16,197.691 211.838,197.128 213.131,197.116 C214.424,197.104 215.031,197.643 215.323,198.045 C215.471,198.238 215.51,198.516 215.425,198.757 L215.425,198.757 C215.309,199.081 215.043,199.295 214.746,199.304 C214.278,199.297 213.837,199.559 213.562,200.007 C213.544,200.043 213.523,200.075 213.497,200.104 L213.497,200.104 C213.373,200.251 213.202,200.329 213.027,200.32 C212.852,200.311 212.688,200.215 212.575,200.056 L212.575,200.056 C212.575,200.056 212.31,199.505 211.34,199.412 C211.045,199.379 210.794,199.145 210.698,198.813 z" fill="#44392E"/>
      <path d="M209.348,200.056 C207.514,199.57 205.607,199.636 203.8,200.249 C202.899,200.576 202.048,201.076 201.283,201.729 C200.512,202.392 199.837,203.198 199.284,204.118 C199.794,203.15 200.432,202.286 201.174,201.56 C201.927,200.839 202.776,200.269 203.685,199.875 C205.537,199.118 207.52,198.921 209.453,199.304 C209.628,199.332 209.751,199.524 209.726,199.732 C209.702,199.94 209.54,200.085 209.365,200.056 z" fill="#44392E"/>
      <path d="M209.402,201.009 C208.772,200.97 208.141,200.999 207.516,201.093 C206.897,201.183 206.299,201.418 205.758,201.785 C205.219,202.168 204.774,202.714 204.469,203.365 C204.162,204.036 203.949,204.762 203.838,205.513 C203.899,204.74 204.065,203.984 204.33,203.273 C204.606,202.553 205.04,201.932 205.585,201.475 C206.141,201.023 206.767,200.706 207.427,200.542 C208.076,200.38 208.736,200.287 209.399,200.265 C209.517,200.245 209.635,200.307 209.703,200.425 C209.77,200.542 209.776,200.695 209.717,200.818 C209.658,200.942 209.546,201.016 209.426,201.009 z" fill="#44392E"/>
      <path d="M216.633,199.304 C218.565,198.921 220.548,199.117 222.401,199.875 C223.311,200.27 224.16,200.839 224.915,201.56 C225.659,202.28 226.3,203.137 226.815,204.097 C226.262,203.178 225.587,202.371 224.817,201.709 C224.051,201.055 223.201,200.555 222.299,200.229 C220.488,199.621 218.577,199.562 216.741,200.056 C216.572,200.097 216.406,199.967 216.371,199.766 C216.337,199.565 216.446,199.369 216.616,199.328 z" fill="#44392E"/>
      <path d="M216.687,200.265 C217.351,200.287 218.012,200.38 218.662,200.542 C219.325,200.705 219.955,201.022 220.514,201.475 C221.06,201.936 221.494,202.559 221.773,203.281 C222.035,203.989 222.2,204.743 222.262,205.513 C222.15,204.762 221.938,204.037 221.634,203.365 C221.328,202.713 220.882,202.168 220.341,201.785 C219.8,201.418 219.202,201.183 218.584,201.093 C217.958,200.998 217.327,200.97 216.697,201.009 C216.612,201.019 216.527,200.986 216.462,200.919 C216.398,200.852 216.36,200.756 216.358,200.655 C216.35,200.553 216.378,200.453 216.436,200.377 C216.493,200.3 216.574,200.256 216.66,200.253 z" fill="#44392E"/>
    </g>
    <path d="M130.102,145.433 L145.747,147.109 C145.747,147.109 153.601,317.084 155.272,329.167 C151.081,329.212 144.41,327.297 139.303,326.074 C134.772,298.884 130.102,145.433 130.102,145.433 z" fill="#31323D" fill-opacity="0.381" id="Shape"/>
    <g id="Shape">
      <path d="M127.211,187.305 C150.739,192.92 227.944,194.371 249.819,186.031 C248.57,205.89 245.483,243.02 245.483,265.59 C229.48,276.058 148.337,276.7 130.955,263.288 C131.507,247.914 128.666,202.406 127.211,187.305 z" fill="#997020"/>
      <path d="M127.211,187.305 C150.739,192.92 227.944,194.371 249.819,186.031 C248.57,205.89 245.483,243.02 245.483,265.59 C229.48,276.058 148.337,276.7 130.955,263.288 C131.507,247.914 128.666,202.406 127.211,187.305 z" fill-opacity="0" stroke="#31323D" stroke-width="4.275"/>
    </g>
    <path d="M240.999,189.511 C243.833,189.46 244.443,188.733 247.703,187.824 C246.167,198.296 243.069,257.002 243.385,264.142 C241.282,265.375 241.521,264.927 238.038,266.146 C238.299,244.636 239.78,212.85 240.999,189.511 z" fill="#FFFFFF" fill-opacity="0.666" opacity="0.433"/>
    <g id="Group">
      <g>
        <path d="M130.275,112.392 C130.433,107.264 246.969,112.96 248.492,112.451 C250.014,111.942 248.586,121.213 253.336,132.619 C217.082,139.874 154.077,138.739 126.511,132.619 C129.66,124.846 130.118,117.519 130.275,112.392 z" fill="#FFFFFF"/>
        <path d="M130.275,112.392 C130.433,107.264 246.969,112.96 248.492,112.451 C250.014,111.942 248.586,121.213 253.336,132.619 C217.082,139.874 154.077,138.739 126.511,132.619 C129.66,124.846 130.118,117.519 130.275,112.392 z" fill-opacity="0" stroke="#31323D" stroke-width="4"/>
      </g>
      <g>
        <path d="M188.413,116.172 C158.977,116.172 134.532,114.995 131.734,111.942 C134.787,108.763 158.977,108.611 188.413,108.611 C217.85,108.611 245.181,109.017 248.492,112.451 C245.69,115.249 217.85,116.172 188.413,116.172 z" fill="#FFFFFF"/>
        <path d="M188.413,116.172 C158.977,116.172 134.532,114.995 131.734,111.942 C134.787,108.763 158.977,108.611 188.413,108.611 C217.85,108.611 245.181,109.017 248.492,112.451 C245.69,115.249 217.85,116.172 188.413,116.172 z" fill-opacity="0" stroke="#31323D" stroke-width="4"/>
      </g>
      <g>
        <path d="M126.511,132.619 C163.148,140.05 226.267,136.409 253.336,132.619 C256.147,135.286 255.54,137.746 255.989,141.713 C233.307,149.589 150.295,148.959 124.935,143.446 C123.989,138.563 123.849,135.217 126.511,132.619 z" fill="#FFFFFF"/>
        <path d="M126.511,132.619 C163.148,140.05 226.267,136.409 253.336,132.619 C256.147,135.286 255.54,137.746 255.989,141.713 C233.307,149.589 150.295,148.959 124.935,143.446 C123.989,138.563 123.849,135.217 126.511,132.619 z" fill-opacity="0" stroke="#31323D" stroke-width="4"/>
      </g>
    </g>
    <path d="M208.151,111.339 C205.799,111.339 203.892,111.05 203.892,110.694 C203.892,110.338 205.799,110.049 208.151,110.049 C210.503,110.049 212.41,110.338 212.41,110.694 C212.41,111.05 210.503,111.339 208.151,111.339 z" fill-opacity="0" stroke="#31323D" stroke-width="4" id="Shape"/>
    <path d="M128.355,188.593 C133.052,189.634 140.598,190.974 145.334,190.955 C145.672,198.346 149.58,260.957 149.906,267.634 C145.998,268.122 135.414,264.133 132.075,262.016 C132.32,251.106 129.47,198.183 128.355,188.593 z" fill="#31323D" fill-opacity="0.381"/>
    <path d="M131.329,113.432 C134.447,114.571 140.636,115.935 145.332,115.544 C146.903,124.243 146.309,129.258 144.295,133.325 C140.937,133.145 131.904,132.14 127.671,131.301 C129.326,125.604 130.609,122.846 131.329,113.432 z" fill="#31323D" fill-opacity="0.381"/>
    <path d="M126.31,133.813 C128.235,134.146 141.784,136.386 143.886,136.135 C144.075,137.672 144.106,141.939 143.717,144.096 C141.596,143.853 130.708,142.724 125.688,141.877 C125.249,140.465 124.628,135.637 126.31,133.813 z" fill="#31323D" fill-opacity="0.381"/>
  </g>
  <g id="Steam">
    <path d="M207.927,30.717 L207.867,30.383 L207.717,29.71 L207.442,29.137 L207.038,28.685 L206.612,28.252 L206.163,27.839 L205.682,27.461 L205.178,27.11 L204.654,26.783 L204.111,26.483 L203.549,26.21 L202.963,25.975 L202.358,25.771 L201.735,25.6 L201.096,25.463 L200.438,25.362 L200.086,25.325 L200.086,25.325 C200.07,25.323 200.054,25.322 200.038,25.322 L200.038,25.322 L199.722,25.301 L198.974,25.306 L198.169,25.375 L197.343,25.512 L196.5,25.723 L195.636,26.017 L194.742,26.417 L193.801,26.96 L193.176,27.397 L193.176,27.397 C193.106,27.449 193.037,27.504 192.968,27.56 L192.968,27.56 L192.791,27.704 L192.251,28.183 L191.663,28.781 L191.117,29.436 L190.64,30.123 L190.26,30.808 L189.984,31.462 L189.806,32.067 L189.697,32.824 L189.74,33.736 L189.955,34.575 L190.3,35.341 L190.753,36.065 L191.299,36.763 L191.927,37.447 L192.63,38.12 L193.397,38.785 L194.223,39.441 L195.096,40.091 L196.007,40.736 L197.422,41.692 L199.357,42.947 L201.278,44.173 L202.661,45.068 L203.535,45.651 L204.362,46.223 L205.131,46.782 L205.83,47.327 L206.45,47.855 L206.979,48.362 L207.406,48.843 L207.719,49.291 L207.909,49.685 L207.939,49.806 L207.918,49.738 L207.982,49.986 L208.072,50.425 L208.124,50.832 L208.146,51.218 L208.142,51.58 L208.111,51.92 L208.006,52.424 L207.794,53.008 L207.546,53.443 L207.285,53.779 L207.015,54.055 L206.707,54.314 L206.342,54.594 L205.898,54.911 L205.359,55.259 L204.732,55.633 L204.028,56.03 L202.811,56.667 L201.046,57.522 L199.163,58.415 L197.17,59.424 L195.578,60.307 L194.44,61.014 L193.312,61.778 L192.145,62.647 L190.936,63.65 L189.714,64.839 L188.516,66.212 L187.396,67.741 L186.442,69.367 L185.728,70.998 L185.419,71.97 L185.419,71.97 C185.372,72.136 185.335,72.298 185.307,72.455 L185.307,72.455 L185.272,72.648 L185.231,73.787 L185.483,74.815 L185.918,75.54 L186.45,76.078 L187.047,76.499 L187.697,76.846 L188.394,77.141 L189.138,77.397 L189.924,77.623 L190.749,77.826 L191.611,78.008 L192.503,78.174 L193.422,78.326 L194.826,78.529 L196.747,78.77 L198.673,78.986 L200.547,79.188 L202.318,79.379 L203.542,79.518 L204.292,79.606 L205,79.681 L205.638,79.763 L206.193,79.852 L206.649,79.954 L206.998,80.055 L207.221,80.148 L207.223,80.157 L207.114,80.089 L207.292,80.208 L207.437,80.353 L207.456,80.442 L207.427,80.488 L207.374,80.48 L207.31,80.424 L207.261,80.322 L207.233,80.199 L207.222,80.08 L207.224,79.989 L207.215,79.95 L207.176,79.975 L206.995,80.214 L206.636,80.666 L206.164,81.227 L205.551,81.931 L204.833,82.74 L204.044,83.629 L203.402,84.367 L202.937,84.916 L202.479,85.477 L202.008,86.081 L201.523,86.744 L201.028,87.483 L200.533,88.32 L200.065,89.268 L199.785,89.981 L199.785,89.981 C199.749,90.084 199.717,90.185 199.688,90.285 L199.688,90.285 L199.6,90.588 L199.391,91.456 L199.243,92.37 L199.178,93.226 L199.191,94.022 L199.273,94.756 L199.416,95.435 L199.61,96.059 L199.849,96.635 L200.125,97.168 L200.433,97.663 L200.767,98.125 L201.293,98.749 L202.058,99.519 L202.873,100.237 L203.7,100.908 L204.597,101.465 L205.563,101.902 L206.492,102.326 L207.632,102.485 L208.426,102.624 L208.924,102.728 L209.493,102.782 L210.064,102.835 L210.336,102.859 L210.336,102.859 C210.698,103.558 211.921,103.332 213.067,102.355 C214.212,101.377 214.847,100.018 214.485,99.319 L214.531,98.909 L214.607,98.124 L214.624,97.373 L214.521,96.705 L214.331,95.738 L214.036,94.502 L213.43,93.602 L212.807,92.758 L212.104,92.054 L211.366,91.457 L210.696,90.876 L210.1,90.288 L209.715,89.843 L209.503,89.559 L209.321,89.281 L209.17,89.01 L209.049,88.747 L208.956,88.493 L208.89,88.253 L208.849,88.025 L208.828,87.81 L208.825,87.604 L208.839,87.403 L208.9,87.1 L208.989,86.794 L208.891,87.097 L208.707,87.538 L208.504,87.903 L208.366,88.107 L208.313,88.168 L208.346,88.111 L208.46,87.958 L208.645,87.726 L208.876,87.451 L209.353,86.9 L210.155,85.997 L211.082,84.949 L212.101,83.763 L213.179,82.427 L214.223,81.005 L214.957,79.869 L215.447,78.999 L215.893,78.085 L216.267,77.146 L216.536,76.205 L216.691,75.292 L216.715,74.436 L216.608,73.664 L216.388,72.983 L216.059,72.402 L215.638,71.912 L215.192,71.532 L215.015,71.408 L215.015,71.408 C214.98,71.384 214.944,71.362 214.907,71.34 L214.907,71.34 L214.603,71.175 L214.08,70.941 L213.517,70.74 L212.905,70.561 L212.251,70.389 L211.551,70.226 L210.807,70.071 L210.003,69.942 L208.735,69.768 L206.949,69.559 L205.098,69.359 L203.235,69.151 L201.41,68.923 L200.096,68.734 L199.271,68.598 L198.489,68.454 L197.76,68.302 L197.092,68.141 L196.493,67.973 L195.975,67.801 L195.547,67.631 L195.22,67.475 L195.003,67.352 L194.897,67.301 L194.883,67.391 L194.887,67.735 L194.814,68.136 L194.848,67.941 L194.736,68.426 L194.655,68.597 L194.553,68.676 L194.41,68.807 L194.283,68.895 L194.244,68.877 L194.33,68.718 L194.566,68.414 L194.961,68.009 L195.499,67.529 L196.115,67.017 L197.285,66.108 L199.135,64.769 L201.164,63.326 L203.254,61.817 L204.816,60.641 L205.881,59.801 L206.939,58.909 L207.985,57.958 L209.009,56.937 L209.98,55.836 L210.861,54.667 L211.618,53.461 L212.204,52.258 L212.609,51.092 L212.84,50.006 L212.92,49.212 L212.939,48.663 L212.922,48.116 L212.869,47.573 L212.781,47.029 L212.663,46.498 L212.597,46.251 L212.597,46.251 C212.591,46.228 212.584,46.206 212.576,46.183 L212.576,46.183 L212.442,45.822 L212.121,45.229 L211.7,44.66 L211.188,44.098 L210.591,43.537 L209.918,42.972 L209.176,42.401 L208.375,41.823 L207.524,41.239 L206.629,40.648 L205.232,39.751 L203.311,38.541 L201.388,37.314 L199.993,36.387 L199.106,35.769 L198.264,35.153 L197.477,34.539 L196.752,33.934 L196.103,33.336 L195.539,32.752 L195.072,32.186 L194.71,31.65 L194.457,31.162 L194.311,30.757 L194.249,30.433 L194.24,30.27 L194.219,30.266 L194.174,30.314 L194.102,30.397 L194.015,30.486 L193.938,30.545 L193.904,30.552 L194.006,30.445 L194.183,30.297 L193.975,30.46 L193.862,30.516 L194.042,30.374 L194.373,30.194 L194.813,30.014 L195.321,29.858 L195.868,29.739 L196.429,29.663 L197.011,29.634 L197.338,29.64 L197.29,29.637 L197.551,29.648 L198.108,29.697 L198.661,29.778 L199.209,29.891 L199.75,30.034 L200.282,30.206 L200.812,30.399 L201.329,30.618 L201.834,30.863 L202.324,31.133 L202.802,31.422 L203.275,31.722 L203.731,32.042 L204.167,32.382 L204.69,32.637 L205.294,32.825 L205.593,32.933 C205.593,32.933 205.593,32.933 205.593,32.933 C205.875,33.279 206.625,33.064 207.27,32.452 C207.914,31.84 208.208,31.063 207.927,30.717 L207.927,30.717" fill="#31323D" opacity="0.337"/>
  </g>
</svg>
