<?xml version="1.0" encoding="UTF-8"?>
<!DOCTYPE svg PUBLIC "-//W3C//DTD SVG 1.1//EN" "http://www.w3.org/Graphics/SVG/1.1/DTD/svg11.dtd">
<svg version="1.1" xmlns="http://www.w3.org/2000/svg" xmlns:xlink="http://www.w3.org/1999/xlink" x="0" y="0" width="360" height="360" viewBox="0, 0, 360, 360">
  <g id="Layer_2">
    <path d="M178.073,272.928 C106.767,272.928 48.961,267.854 48.961,261.595 C48.961,255.336 106.767,250.262 178.073,250.262 C249.38,250.262 307.185,255.336 307.185,261.595 C307.185,267.854 249.38,272.928 178.073,272.928 z" fill="#7E7E7E" fill-opacity="0.551"/>
  </g>
  <g id="Layer_2">
    <g id="Shape" display="none">
      <path d="M249.571,271.799 C230.992,272.694 232.643,262.997 232.643,256.753 C232.643,250.51 239.788,245.449 248.601,245.449 C257.414,245.449 264.559,250.51 264.559,256.753 C264.559,262.997 268.151,270.903 249.571,271.799 z" fill="#CBC5A6"/>
      <path d="M248.601,243.282 C258.482,243.282 266.726,249.122 266.725,256.753 C266.726,257.402 266.757,257.948 266.859,259.273 C266.898,259.778 266.916,260.027 266.935,260.326 C267.51,269.084 263.525,273.296 249.676,273.963 C236.542,274.596 231.111,270.295 230.508,261.933 C230.429,260.84 230.425,259.96 230.458,258.179 C230.472,257.413 230.476,257.125 230.476,256.753 C230.476,249.122 238.719,243.282 248.601,243.282 z M248.601,245.449 C239.788,245.449 232.643,250.51 232.643,256.753 C232.643,262.997 230.992,272.694 249.571,271.799 C268.151,270.903 264.559,262.997 264.559,256.753 C264.559,250.51 257.414,245.449 248.601,245.449 z" fill="#31323D"/>
    </g>
    <g display="none">
      <path d="M172.959,188.13 C116.273,188.13 73.056,126.412 76.681,109.919 C80.306,93.427 69.879,85.783 173.417,85.783 C276.954,85.783 271.712,93.908 275.572,108.98 C279.431,124.053 229.646,188.13 172.959,188.13 z" fill="#CBC5A6"/>
      <path d="M173.417,83.616 C219.69,83.616 245.571,85.216 259.376,88.757 C271.353,91.83 274.771,95.701 276.9,105.136 C276.944,105.332 276.992,105.546 277.084,105.957 C277.159,106.292 277.215,106.538 277.27,106.781 C277.414,107.406 277.54,107.933 277.671,108.442 C279.976,117.447 267.203,138.165 248.454,155.786 C225.871,177.011 199.1,190.297 172.959,190.297 C146.761,190.297 121.307,177.441 100.669,156.739 C83.619,139.636 72.432,119.157 74.565,109.454 C74.87,108.065 74.982,107.361 75.391,104.5 C76.748,95.014 79.697,91.252 91.068,88.334 C103.875,85.047 128.326,83.616 173.417,83.616 z M173.417,85.783 C69.879,85.783 80.306,93.427 76.681,109.919 C73.056,126.412 116.273,188.13 172.959,188.13 C229.646,188.13 279.431,124.053 275.572,108.98 C271.712,93.908 276.954,85.783 173.417,85.783 z" fill="#31323D"/>
    </g>
    <g id="Shape" display="none">
      <path d="M59.756,252.904 C43.006,252.904 29.427,248.136 29.427,242.255 C29.427,236.373 43.006,231.605 59.756,231.605 C76.507,231.605 90.086,236.373 90.086,242.255 C90.086,248.136 76.507,252.904 59.756,252.904 z" fill="#CBC5A6"/>
      <path d="M59.756,229.439 C77.667,229.439 92.253,234.56 92.253,242.255 C92.253,249.949 77.667,255.071 59.756,255.071 C41.846,255.071 27.26,249.949 27.26,242.255 C27.26,234.56 41.846,229.439 59.756,229.439 z M59.756,231.605 C43.006,231.605 29.427,236.373 29.427,242.255 C29.427,248.136 43.006,252.904 59.756,252.904 C76.507,252.904 90.086,248.136 90.086,242.255 C90.086,236.373 76.507,231.605 59.756,231.605 z" fill="#31323D"/>
    </g>
    <g id="Shape" display="none">
      <path d="M299.67,251.686 C282.92,251.686 269.341,246.136 269.341,239.289 C269.341,232.441 282.92,226.891 299.67,226.891 C316.421,226.891 330,232.441 330,239.289 C330,246.136 316.421,251.686 299.67,251.686 z" fill="#CBC5A6"/>
      <path d="M299.67,224.724 C317.511,224.724 332.167,230.715 332.167,239.288 C332.167,247.862 317.511,253.853 299.67,253.853 C281.83,253.853 267.174,247.862 267.174,239.288 C267.174,230.715 281.83,224.724 299.67,224.724 z M299.67,226.891 C282.92,226.891 269.341,232.441 269.341,239.288 C269.341,246.136 282.92,251.686 299.67,251.686 C316.421,251.686 330,246.136 330,239.288 C330,232.441 316.421,226.891 299.67,226.891 z" fill="#31323D"/>
    </g>
    <g id="Shape" display="none">
      <path d="M103.848,273.813 C86.164,272.247 88.944,266.738 88.944,260.495 C88.944,254.251 96.089,249.19 104.902,249.19 C113.715,249.19 120.86,254.251 120.86,260.495 C120.86,266.738 121.532,275.38 103.848,273.813 z" fill="#CBC5A6"/>
      <path d="M104.902,247.024 C114.784,247.024 123.027,252.863 123.027,260.495 C123.027,260.674 123.027,260.816 123.028,261.156 C123.034,262.711 123.024,263.444 122.964,264.372 C122.407,272.977 117.047,277.158 103.656,275.972 C89.409,274.709 86.218,271.331 86.701,262.578 C86.757,261.559 86.777,261.067 86.777,260.495 C86.777,252.863 95.02,247.024 104.902,247.024 z M104.902,249.19 C96.089,249.19 88.944,254.251 88.944,260.495 C88.944,266.738 86.164,272.247 103.848,273.813 C121.532,275.38 120.86,266.738 120.86,260.495 C120.86,254.251 113.715,249.19 104.902,249.19 z" fill="#31323D"/>
    </g>
    <g id="Pants_and_belt">
      <g id="Shape">
        <path d="M120.111,251.453 L118.719,263.919 L232.51,263.922 L232.492,252.219 L120.111,251.453 z" fill="#808080"/>
        <path d="M120.111,251.453 L118.719,263.919 L232.51,263.922 L232.492,252.219 L120.111,251.453 z" fill-opacity="0" stroke="#31323D" stroke-width="2.275"/>
      </g>
      <g id="Shape">
        <path d="M264.383,250.781 C264.383,250.462 263.596,257.319 263.845,260.065 C266.581,260.697 271.182,258.29 282.756,251.453 C289.866,242.154 276.778,255.608 276.778,255.608 C276.778,255.608 283.875,256.933 290.629,257.174 C309.757,247.826 310.747,232.171 310.851,224.9 C305.284,221.863 299.772,221.521 299.772,221.521 C299.772,221.521 264.383,251.101 264.383,250.781 z" fill="#808080"/>
        <path d="M264.383,250.781 C264.383,250.462 263.596,257.319 263.845,260.065 C266.581,260.697 271.182,258.29 282.756,251.453 C289.866,242.154 276.778,255.608 276.778,255.608 C276.778,255.608 283.875,256.933 290.629,257.174 C309.757,247.826 310.747,232.171 310.851,224.9 C305.284,221.863 299.772,221.521 299.772,221.521 C299.772,221.521 264.383,251.101 264.383,250.781 z" fill-opacity="0" stroke="#31323D" stroke-width="2.275"/>
      </g>
      <g id="Shape">
        <path d="M62.702,221.521 C62.829,221.521 58.148,224.304 54.549,226.501 C58.907,257.072 71.98,257.174 71.98,257.174 L82.123,256.927 L76.771,249.04 C76.771,249.04 82.593,260.829 88.083,260.026 C89.776,256.692 89.8,252.959 89.8,252.959 L83.451,230.377 L62.702,221.521 z" fill="#808080"/>
        <path d="M62.702,221.521 C62.829,221.521 58.148,224.304 54.549,226.501 C58.907,257.072 71.98,257.174 71.98,257.174 L82.123,256.927 L76.771,249.04 C76.771,249.04 82.593,260.829 88.083,260.026 C89.776,256.692 89.8,252.959 89.8,252.959 L83.451,230.377 L62.702,221.521 z" fill-opacity="0" stroke="#31323D" stroke-width="2.275"/>
      </g>
      <g id="Belt">
        <path d="M121.257,256.814 C120.286,257.203 231.263,258.853 231.069,256.135 C230.875,253.416 230.875,256.814 231.555,258.659 C229.71,259.533 121.063,260.115 121.16,258.368 C121.257,256.62 122.228,256.426 121.257,256.814 z" fill="#808080"/>
        <path d="M121.257,256.814 C120.286,257.203 231.263,258.853 231.069,256.135 C230.875,253.416 230.875,256.814 231.555,258.659 C229.71,259.533 121.063,260.115 121.16,258.368 C121.257,256.62 122.228,256.426 121.257,256.814 z" fill-opacity="0" stroke="#31323D" stroke-width="2.275"/>
      </g>
      <g id="Belt_buckle">
        <path d="M163.886,254.626 L177.021,254.626 C177.32,254.626 177.563,254.851 177.563,255.127 L177.563,260.035 C177.563,260.311 177.32,260.536 177.021,260.536 L163.886,260.536 C163.587,260.536 163.345,260.311 163.345,260.035 L163.345,255.127 C163.345,254.851 163.587,254.626 163.886,254.626 z" fill="#C6C6C6"/>
        <path d="M163.886,254.626 L177.021,254.626 C177.32,254.626 177.563,254.851 177.563,255.127 L177.563,260.035 C177.563,260.311 177.32,260.536 177.021,260.536 L163.886,260.536 C163.587,260.536 163.345,260.311 163.345,260.035 L163.345,255.127 C163.345,254.851 163.587,254.626 163.886,254.626 z" fill-opacity="0" stroke="#31323D" stroke-width="2.275"/>
      </g>
    </g>
    <g id="Shirt">
      <g id="Shirt">
        <g id="Shape">
          <path d="M83.858,104.442 C83.858,104.442 127.503,123.433 127.833,122.772 C128.163,122.112 140.204,128.774 140.204,128.774 L149.023,132.326 L152.82,138.941 L170,227.119 L148.901,210.596 L112.032,158.661 L83.858,104.442 z" fill="#3C3C3C"/>
          <path d="M83.858,104.441 C83.858,104.442 127.503,123.433 127.833,122.772 C128.163,122.112 140.204,128.774 140.204,128.774 L149.023,132.326 L152.82,138.941 L170,227.119 L148.901,210.596 L112.032,158.661 L83.858,104.441 z M88.83,109.076 L113.978,157.473 L150.564,209.009 L166.601,221.568 L150.66,139.746 L147.443,134.142 L139.354,130.884 C139.268,130.85 139.184,130.81 139.103,130.765 C139.02,130.719 138.861,130.632 138.638,130.509 C138.264,130.304 137.845,130.075 137.391,129.829 C136.094,129.126 134.777,128.422 133.521,127.767 C133.335,127.67 133.151,127.574 132.969,127.48 C131.315,126.623 129.931,125.939 128.922,125.484 C128.167,125.157 128.461,125.271 128.049,125.116 L127.279,125.018 C127.082,124.982 126.875,124.928 126.627,124.853 C126.244,124.737 125.728,124.557 125.069,124.312 C123.87,123.865 122.172,123.194 120.011,122.312 C116.227,120.77 111.097,118.617 104.955,116.001 C104.612,115.854 104.612,115.854 104.268,115.708 C99.557,113.7 94.55,111.548 89.572,109.397 L88.83,109.076 z" fill="#31323D"/>
        </g>
        <g>
          <path d="M147.983,127.467 L158.253,127.246 L162.591,144.062 L147.165,141.023 z" fill="#3C3C3C"/>
          <path d="M158.218,125.621 C158.972,125.605 159.638,126.11 159.826,126.84 L164.165,143.656 C164.463,144.814 163.451,145.887 162.277,145.656 L146.85,142.618 C146.052,142.46 145.494,141.737 145.542,140.925 L146.361,127.369 C146.412,126.524 147.102,125.86 147.948,125.842 L158.218,125.621 z M158.253,127.246 L147.983,127.467 L147.165,141.023 L162.591,144.062 L158.253,127.246 z" fill="#31323D"/>
        </g>
        <g id="Shape">
          <path d="M150.023,133.612 C150.337,133.505 161.746,131.686 161.746,131.686 C161.746,131.686 170.939,217.947 173.643,226.642 C168.981,226.778 164.02,244.685 162.546,227.119 C161.073,209.553 149.708,133.718 150.023,133.612 z" fill="#3C3C3C"/>
          <path d="M161.865,129.413 C163.062,129.581 163.761,130.285 164.009,131.445 C164.029,131.631 164.067,131.993 164.123,132.518 C164.217,133.393 164.327,134.408 164.45,135.552 C164.804,138.82 165.201,142.462 165.633,146.384 C166.868,157.589 168.135,168.794 169.363,179.251 C169.69,182.036 170.01,184.737 170.323,187.342 C172.913,208.883 174.877,222.948 175.816,225.966 C176.263,227.404 175.215,228.872 173.71,228.916 C173.747,228.915 173.726,228.921 173.643,228.967 C173.025,229.311 172.197,230.243 170.852,232.081 C170.725,232.254 170.228,232.938 170.305,232.831 C170.081,233.139 169.915,233.365 169.752,233.583 C169.319,234.164 168.958,234.62 168.608,235.021 C167.483,236.308 166.486,237.042 165.147,237.105 C161.931,237.257 160.856,234.186 160.279,227.309 C159.721,220.655 157.745,205.456 154.533,182.482 C154.394,181.482 154.252,180.467 154.107,179.434 C153.393,174.349 152.663,169.189 151.72,162.552 C151.553,161.376 151.386,160.199 151.161,158.619 C150.89,156.71 150.752,155.74 150.627,154.864 C150.213,151.946 149.921,149.894 149.655,148.009 C148.986,143.288 148.536,140.061 148.229,137.79 C148.057,136.519 147.933,135.561 147.854,134.903 C147.811,134.549 147.781,134.277 147.764,134.079 C147.347,129.395 147.424,132.09 149.292,131.457 L149.292,131.457 C149.63,131.343 150.869,131.136 155.377,130.406 C155.447,130.394 155.447,130.394 155.517,130.383 C156.802,130.175 158.178,129.953 159.553,129.733 C160.035,129.656 160.333,129.608 160.883,129.52 C161.296,129.454 161.296,129.454 161.388,129.439 L161.865,129.413 z M161.746,131.686 C161.746,131.686 150.337,133.505 150.023,133.612 C149.708,133.718 161.073,209.553 162.546,227.119 C164.02,244.685 168.981,226.778 173.643,226.642 C170.939,217.947 161.746,131.686 161.746,131.686 z" fill="#31323D"/>
        </g>
        <g id="Shape">
          <path d="M158.472,125.595 C150.997,137.078 150.997,143.578 147.838,160.728 C142.331,151.812 76.681,123.862 76.681,123.862 L78.299,103.238 C78.299,103.238 138.106,121.803 158.472,125.595 z" fill="#3C3C3C"/>
          <path d="M78.299,103.238 C78.299,103.238 138.106,121.803 158.472,125.595 C150.997,137.078 150.997,143.578 147.838,160.728 C142.331,151.812 76.681,123.862 76.681,123.862 L78.299,103.238 z M80.345,106.25 L79.076,122.414 C79.849,122.747 79.322,122.52 80.658,123.097 C83.109,124.159 85.839,125.354 88.778,126.657 C97.178,130.379 105.579,134.219 113.424,137.969 C116.021,139.21 118.519,140.424 120.906,141.605 C129.447,146.216 138.704,150.009 146.345,156.121 C146.861,153.231 147.342,150.335 147.858,147.445 C148.863,141.925 149.755,138.35 151.134,134.75 C152.921,130.468 151.766,133.03 154.826,127.172 C143.479,124.674 132.286,121.526 121.112,118.356 C119.492,117.894 117.843,117.422 116.168,116.938 C107.428,114.417 98.33,111.715 89.407,109.014 C86.285,108.068 83.407,107.191 80.841,106.402 L80.345,106.25 z" fill="#31323D"/>
        </g>
        <g>
          <path d="M191.593,132.983 L182.621,127.295 L178.719,132.959 L188.068,140.439 z" fill="#3C3C3C"/>
          <path d="M182.904,125.695 L183.491,125.923 L192.463,131.61 C193.156,132.049 193.413,132.936 193.062,133.677 L189.537,141.133 C189.089,142.082 187.873,142.363 187.053,141.708 L177.704,134.228 C177.038,133.696 176.897,132.74 177.381,132.038 L181.283,126.373 C182.018,125.655 181.527,125.976 182.904,125.695 z M182.621,127.295 L178.719,132.959 L188.068,140.439 L191.593,132.983 L182.621,127.295 z" fill="#31323D"/>
        </g>
        <g id="Shape">
          <path d="M268.864,109.951 C268.864,109.951 243.546,121.105 243.216,120.445 C242.886,119.785 216.637,130.244 216.637,130.244 L201.693,133.061 L190.669,137.593 L171.806,206.186 L169.365,226.671 L218.351,195.53 L268.864,109.951 z" fill="#3C3C3C"/>
          <path d="M268.864,109.951 L218.351,195.53 L169.365,226.671 L171.806,206.186 L190.669,137.593 L201.693,133.061 L216.637,130.244 C216.637,130.244 242.886,119.785 243.216,120.445 C243.546,121.105 268.864,109.951 268.864,109.951 z M263.336,114.841 C260.378,116.123 262.287,115.298 257.604,117.305 C257.266,117.449 257.266,117.449 256.928,117.593 C253.356,119.109 250.367,120.347 248.148,121.22 C246.868,121.723 245.854,122.101 245.118,122.347 C244.686,122.491 244.337,122.594 244.047,122.658 C243.817,122.709 243.609,122.741 243.381,122.747 L243.082,122.73 C242.905,122.773 243.054,122.737 242.641,122.853 C241.971,123.052 240.988,123.381 239.73,123.826 C237.476,124.623 234.411,125.767 230.742,127.173 C230.377,127.313 230.377,127.313 230.013,127.453 C227.222,128.526 224.273,129.675 221.352,130.825 C220.33,131.228 219.384,131.601 218.538,131.937 C218.242,132.054 218.067,132.123 217.754,132.248 C217.526,132.339 217.526,132.339 217.479,132.357 C217.343,132.412 217.202,132.453 217.058,132.48 L202.343,135.254 L192.567,139.273 L174.045,206.625 L172.192,222.179 L216.67,193.903 L263.336,114.841 z M242.024,122.336 C242.588,122.655 242.363,122.63 242.625,122.651 L242.024,122.336 z M241.181,121.462 C241.32,121.673 241.459,121.884 241.598,122.095 C241.604,122.098 241.609,122.101 241.615,122.104 L241.181,121.462 z" fill="#31323D"/>
        </g>
        <g id="Shape">
          <path d="M179.056,130.578 C185.231,131.337 192.149,132.909 192.149,132.909 L173.643,226.642 L161.289,230.678 C161.289,230.678 177.973,139.245 179.056,130.578 z" fill="#3C3C3C"/>
          <path d="M179.254,128.965 C179.849,129.039 180.464,129.121 181.097,129.211 C182.539,129.418 184.054,129.665 185.616,129.944 C187.302,130.246 188.953,130.569 190.502,130.892 C191.045,131.005 191.536,131.11 191.967,131.204 C192.228,131.261 192.411,131.302 192.509,131.324 C193.367,131.519 193.914,132.361 193.743,133.224 L175.238,226.956 C175.124,227.533 174.707,228.004 174.148,228.186 L161.794,232.223 C160.623,232.605 159.47,231.598 159.691,230.387 C159.725,230.196 159.725,230.196 159.891,229.289 C160.054,228.394 160.243,227.355 160.456,226.184 C161.065,222.839 161.744,219.106 162.475,215.08 C164.563,203.576 166.652,192.025 168.601,181.178 C168.705,180.595 168.705,180.595 168.81,180.012 C173.819,152.124 176.996,133.96 177.443,130.377 C177.555,129.488 178.364,128.856 179.254,128.965 z M179.056,130.578 C177.973,139.245 161.289,230.678 161.289,230.678 L173.643,226.642 L192.149,132.909 C192.149,132.909 185.231,131.337 179.056,130.578 z" fill="#31323D"/>
        </g>
        <g id="Shape">
          <path d="M182.665,125.547 C187.088,133.243 191.232,143.986 194.439,159.503 C216.268,142.482 275.572,120.416 275.572,120.416 L272.849,100.947 C272.849,100.947 192.484,125.989 182.665,125.547 z" fill="#3C3C3C"/>
          <path d="M272.849,100.947 L275.572,120.416 C275.572,120.416 216.268,142.482 194.439,159.503 C191.232,143.986 187.088,133.243 182.665,125.547 C192.484,125.989 272.849,100.947 272.849,100.947 z M270.966,103.912 L270.105,104.178 C267.377,105.02 264.319,105.958 261.003,106.968 C251.527,109.854 241.88,112.74 232.635,115.434 C231.032,115.901 229.452,116.36 227.897,116.808 C214.111,120.646 200.39,124.897 186.297,127.487 C190.827,136.331 193.767,145.945 195.908,155.617 C200.005,152.66 204.391,150.136 208.79,147.663 C214.962,144.244 222.122,140.663 230.077,136.971 C239.859,132.432 250.332,127.958 260.804,123.74 C264.469,122.264 267.872,120.926 270.927,119.749 C272.649,119.088 271.935,119.36 273.067,118.93 L270.966,103.912 z" fill="#31323D"/>
        </g>
      </g>
      <g>
        <path d="M163.429,194.374 C162.813,194.374 162.313,193.837 162.313,193.174 C162.313,192.511 162.813,191.974 163.429,191.974 C164.045,191.974 164.545,192.511 164.545,193.174 C164.545,193.837 164.045,194.374 163.429,194.374 z" fill="#31323D"/>
        <path d="M163.429,190.24 C165.032,190.24 166.278,191.581 166.278,193.174 C166.278,194.767 165.032,196.107 163.429,196.107 C161.826,196.107 160.58,194.767 160.58,193.174 C160.58,191.581 161.826,190.24 163.429,190.24 z M163.429,191.973 C162.813,191.974 162.313,192.511 162.313,193.174 C162.313,193.837 162.813,194.374 163.429,194.374 C164.045,194.374 164.545,193.837 164.545,193.174 C164.545,192.511 164.045,191.974 163.429,191.973 z" fill="#31323D"/>
      </g>
      <g>
        <path d="M160.185,166.79 C159.569,166.79 159.069,166.253 159.069,165.59 C159.069,164.927 159.569,164.39 160.185,164.39 C160.802,164.39 161.301,164.927 161.301,165.59 C161.301,166.253 160.802,166.79 160.185,166.79 z" fill="#31323D"/>
        <path d="M160.185,162.656 C161.788,162.656 163.035,163.997 163.035,165.59 C163.035,167.183 161.788,168.523 160.185,168.523 C158.582,168.523 157.336,167.183 157.336,165.59 C157.336,163.997 158.582,162.656 160.185,162.656 z M160.185,164.39 C159.569,164.39 159.069,164.927 159.069,165.59 C159.069,166.253 159.569,166.79 160.185,166.79 C160.802,166.79 161.301,166.253 161.301,165.59 C161.301,164.927 160.802,164.39 160.185,164.39 z" fill="#31323D"/>
      </g>
      <g>
        <path d="M156.881,138.834 C156.265,138.834 155.765,138.297 155.765,137.634 C155.765,136.971 156.265,136.434 156.881,136.434 C157.498,136.434 157.997,136.971 157.997,137.634 C157.997,138.297 157.498,138.834 156.881,138.834 z" fill="#31323D"/>
        <path d="M156.881,134.701 C158.484,134.701 159.731,136.041 159.73,137.634 C159.731,139.227 158.484,140.568 156.881,140.568 C155.278,140.568 154.032,139.227 154.032,137.634 C154.032,136.041 155.278,134.701 156.881,134.701 z M156.881,136.434 C156.265,136.434 155.765,136.971 155.765,137.634 C155.765,138.297 156.265,138.834 156.881,138.834 C157.498,138.834 157.997,138.297 157.997,137.634 C157.997,136.971 157.498,136.434 156.881,136.434 z" fill="#31323D"/>
      </g>
      <path d="M177.705,165.774 L181.706,166.406" fill-opacity="0" stroke="#31323D" stroke-width="1.625" stroke-linecap="square" stroke-linejoin="round"/>
      <path d="M172.493,193.358 L176.494,193.99" fill-opacity="0" stroke="#31323D" stroke-width="1.625" stroke-linecap="square" stroke-linejoin="round"/>
      <path d="M182.548,136.934 L186.549,137.566" fill-opacity="0" stroke="#31323D" stroke-width="1.625" stroke-linecap="square" stroke-linejoin="round" id="Shape"/>
    </g>
    <g id="Jacket">
      <g>
        <path d="M73.479,111.348 C60.868,192.947 42.141,215.359 78.965,254.668 C137.025,260.933 231.393,258.228 282.179,253.947 C332.008,206.478 285.635,146.989 278.423,112.549 C259.96,110.333 272.554,107.437 272.554,107.437 L170.388,228.349 z" fill="#808080"/>
        <path d="M73.479,111.348 C60.868,192.947 42.141,215.359 78.965,254.668 C137.025,260.933 231.393,258.228 282.179,253.947 C332.008,206.478 285.635,146.989 278.423,112.549 C259.96,110.333 272.554,107.437 272.554,107.437 L170.388,228.349 z" fill-opacity="0" stroke="#31323D" stroke-width="2.275"/>
      </g>
      <g id="Shape" display="none">
        <path d="M172.983,238.325 C172.534,238.325 172.17,237.886 172.17,237.345 C172.17,236.803 172.534,236.364 172.983,236.364 C173.432,236.364 173.795,236.803 173.795,237.345 C173.795,237.886 173.432,238.325 172.983,238.325 z" fill="#808080"/>
        <path d="M172.983,238.325 C172.534,238.325 172.17,237.886 172.17,237.345 C172.17,236.803 172.534,236.364 172.983,236.364 C173.432,236.364 173.795,236.803 173.795,237.345 C173.795,237.886 173.432,238.325 172.983,238.325 z" fill-opacity="0" stroke="#31323D" stroke-width="2.275"/>
      </g>
      <g id="Shape">
        <path d="M174.169,246.242 C173.065,246.242 172.17,245.462 172.17,244.501 C172.17,243.54 173.065,242.761 174.169,242.761 C175.272,242.761 176.167,243.54 176.167,244.501 C176.167,245.462 175.272,246.242 174.169,246.242 z" fill="#31323D"/>
        <path d="M174.169,246.242 C173.065,246.242 172.17,245.462 172.17,244.501 C172.17,243.54 173.065,242.761 174.169,242.761 C175.272,242.761 176.167,243.54 176.167,244.501 C176.167,245.462 175.272,246.242 174.169,246.242 z" fill-opacity="0" stroke="#31323D" stroke-width="2.275"/>
      </g>
      <g id="Shape">
        <path d="M174.083,238.453 C172.979,238.453 172.084,237.674 172.084,236.713 C172.084,235.751 172.979,234.972 174.083,234.972 C175.186,234.972 176.081,235.751 176.081,236.713 C176.081,237.674 175.186,238.453 174.083,238.453 z" fill="#31323D"/>
        <path d="M174.083,238.453 C172.979,238.453 172.084,237.674 172.084,236.713 C172.084,235.751 172.979,234.972 174.083,234.972 C175.186,234.972 176.081,235.751 176.081,236.713 C176.081,237.674 175.186,238.453 174.083,238.453 z" fill-opacity="0" stroke="#31323D" stroke-width="2.275"/>
      </g>
      <path d="M172.051,251.017 L176.672,251.018" fill-opacity="0" stroke="#31323D" stroke-width="1.625" stroke-linecap="square" stroke-linejoin="round"/>
      <g display="none">
        <path d="M170.481,228.797 L170.388,258.105" fill="#808080"/>
        <path d="M170.481,228.797 L170.388,258.105" fill-opacity="0" stroke="#31323D" stroke-width="2.275"/>
      </g>
      <g>
        <path d="M211.542,198.652 L235.599,198.652 L235.599,202.763 L211.542,202.763 z" fill="#808080"/>
        <path d="M211.542,198.652 L235.599,198.652 L235.599,202.763 L211.542,202.763 z" fill-opacity="0" stroke="#31323D" stroke-width="2.275"/>
      </g>
      <path d="M55.121,227.565 C55.804,226.944 55.431,227.565 56.923,226.385 C55.991,234.399 73.784,256.171 80.049,256.575 C86.313,256.979 72.268,256.89 72.02,256.766 C59.843,256.082 55.431,230.299 55.121,227.565 z" fill="#505050" fill-opacity="0.453" id="Shape" opacity="0.5"/>
      <path d="M71.012,129.158 C76.141,137.137 80.053,131.196 80.053,131.196 C80.053,131.196 53.019,211.687 91.078,255.033 C85.661,254.194 83.718,253.907 79.87,254.206 C42.058,218.438 61.752,182.691 71.012,129.158 z" fill="#505050" fill-opacity="0.453" id="Shape" opacity="0.5"/>
      <g id="Jacket_collar">
        <path d="M273.72,100.947 C273.72,100.947 282.731,118.437 282.731,118.437 C282.731,118.437 268.746,134.936 268.746,134.936 C268.746,134.936 261.666,130.307 261.666,130.307 C261.666,130.307 263.845,139.564 263.845,139.564 C263.845,139.564 169.77,225.745 169.77,225.745 C169.77,225.745 83.318,138.203 83.318,138.203 C83.318,138.203 85.36,129.354 85.36,129.354 C85.36,129.354 78.008,133.846 78.008,133.846 C78.008,133.846 68.206,123.5 68.206,123.5 C68.206,123.5 76.554,104.416 76.554,104.416 C76.554,104.416 169.802,225.745 169.802,225.745 C169.802,225.745 273.72,100.947 273.72,100.947 z" fill="#808080"/>
        <path d="M274.169,96.852 L275.742,99.905 C276.024,100.452 276.024,100.452 277.15,102.638 C278.558,105.371 278.558,105.371 280.248,108.65 C281.938,111.93 281.938,111.93 283.346,114.663 C284.472,116.849 284.472,116.849 284.754,117.396 L285.451,118.748 L284.467,119.909 C284.03,120.424 284.03,120.424 282.281,122.486 C280.096,125.064 280.096,125.064 277.474,128.158 C274.852,131.251 274.852,131.251 272.666,133.829 C270.918,135.891 270.918,135.891 270.481,136.407 L269.182,137.939 L267.501,136.84 C266.728,136.335 265.956,135.83 265.184,135.325 C265.476,136.564 265.768,137.804 266.059,139.043 L266.364,140.341 L265.381,141.242 C264.646,141.915 264.646,141.915 261.339,144.945 C256.929,148.985 256.929,148.985 250.682,154.708 C235.983,168.173 235.983,168.173 218.344,184.332 C200.705,200.491 200.705,200.491 186.006,213.957 C179.759,219.68 179.759,219.68 175.349,223.72 C174.084,224.879 172.818,226.038 171.553,227.197 L171.55,227.201 L169.731,229.386 L168.194,227.387 L168.152,227.344 C167.476,226.66 167.476,226.66 164.437,223.582 C160.384,219.479 160.384,219.479 154.643,213.665 C141.135,199.987 141.135,199.987 124.925,183.573 C108.716,167.159 108.716,167.159 95.207,153.48 C89.466,147.667 89.466,147.667 85.414,143.563 C82.375,140.486 82.375,140.486 81.699,139.802 L80.82,138.911 L81.101,137.691 C81.376,136.501 81.651,135.31 81.926,134.119 C81.015,134.675 80.105,135.231 79.195,135.788 L77.623,136.748 L76.357,135.411 C76.051,135.088 76.051,135.088 74.825,133.794 C73.294,132.178 73.294,132.178 71.456,130.238 C69.618,128.298 69.618,128.298 68.086,126.681 C66.861,125.387 66.861,125.387 66.555,125.064 L65.518,123.969 L66.122,122.588 C66.383,121.991 66.383,121.991 67.426,119.606 C68.21,117.815 68.993,116.024 69.776,114.233 C70.906,111.651 72.035,109.068 73.165,106.486 C74.209,104.101 74.209,104.101 74.469,103.504 L76.012,99.978 L78.357,103.03 C79.086,103.977 79.086,103.977 82.364,108.243 C86.735,113.93 86.735,113.93 92.927,121.987 C107.498,140.945 107.498,140.945 124.981,163.694 C142.466,186.443 142.466,186.443 157.036,205.401 C163.228,213.458 163.228,213.458 167.599,219.145 C168.357,220.132 169.115,221.118 169.873,222.105 C170.755,221.045 171.637,219.986 172.519,218.927 C177.39,213.077 177.39,213.077 184.291,204.79 C195.608,191.199 206.925,177.608 218.242,164.017 C230.739,149.008 243.237,134 255.734,118.991 C262.635,110.704 262.635,110.704 267.507,104.854 C271.16,100.467 271.16,100.467 271.972,99.492 L274.169,96.852 z M273.72,100.947 C239.114,142.506 204.509,184.065 169.903,225.624 C169.822,225.698 169.86,225.663 169.789,225.728 L169.802,225.745 C169.886,225.644 169.852,225.685 169.903,225.624 C201.215,196.935 232.533,168.254 263.845,139.564 C263.845,139.564 261.666,130.307 261.666,130.307 C261.666,130.307 268.746,134.936 268.746,134.936 C268.746,134.936 282.731,118.437 282.731,118.437 C282.731,118.437 273.72,100.947 273.72,100.947 z M76.554,104.416 C76.554,104.416 68.206,123.5 68.206,123.499 C68.206,123.5 78.008,133.846 78.008,133.846 C78.008,133.846 85.36,129.354 85.36,129.354 C85.36,129.354 83.318,138.203 83.318,138.203 C83.318,138.203 169.77,225.745 169.77,225.745 L169.789,225.728 C138.708,185.292 107.635,144.851 76.554,104.416 z" fill="#31323D"/>
      </g>
      <path d="M76.554,104.416 L83.746,114.004 C83.746,114.004 77.327,128.692 78.008,133.846 C74.284,128.895 68.206,123.5 68.206,123.5 z" fill="#505050" fill-opacity="0.453" opacity="0.5"/>
      <path d="M303.611,222.906 C304.168,222.906 309.279,224.79 309.279,224.79 C309.279,224.79 309.472,235.683 305.178,241.998 C300.299,249.171 293.299,253.886 293.299,253.886 C293.299,253.886 304.336,238.061 303.611,222.906 z" fill="#A1A1A1" fill-opacity="0.961" opacity="0.5"/>
      <path d="M263.221,113.634 L273.72,100.947 L282.731,118.437 C282.731,118.437 274.172,128.059 274.408,127.834 C269.949,116.797 263.221,113.634 263.221,113.634 z" fill="#A1A1A1" fill-opacity="0.961" id="Shape" opacity="0.5"/>
      <path d="M271.007,135.807 C271.007,135.807 277.241,127.876 280.554,124.649 C315.574,202.19 305.552,225.319 281.426,252.5 C277.302,252.664 279.359,252.443 276.048,252.596 C322.659,206.921 271.007,135.807 271.007,135.807 z" fill="#A1A1A1" fill-opacity="0.961" opacity="0.5"/>
      <g>
        <path d="M279.214,209.044 C269.156,220.332 272.212,236.385 268.057,258.944 C262.875,257.225 241.86,258.245 228.76,262.907 C225.609,254.752 231.533,211.211 225.198,207.71" fill="#808080"/>
        <path d="M279.214,209.044 C269.156,220.332 272.212,236.385 268.057,258.944 C262.875,257.225 241.86,258.245 228.76,262.907 C225.609,254.752 231.533,211.211 225.198,207.71" fill-opacity="0" stroke="#31323D" stroke-width="2.275" stroke-linecap="round"/>
      </g>
      <path d="M228.011,211.661 C229.805,221.078 234.582,259.281 234.582,259.281 C234.582,259.281 234.435,258.117 229.263,261.234 C226.559,232.501 230.403,230.942 228.011,211.661 z" fill="#505050" fill-opacity="0.453" id="Shape" opacity="0.5" display="none"/>
      <g id="Shape">
        <path d="M73.34,210.059 C83.397,221.348 80.342,237.401 84.497,259.96 C89.678,258.24 110.693,259.26 123.793,263.922 C126.944,255.768 121.021,212.226 127.356,208.725" fill="#808080"/>
        <path d="M73.34,210.059 C83.397,221.348 80.342,237.401 84.497,259.96 C89.678,258.24 110.693,259.26 123.793,263.922 C126.944,255.768 121.021,212.226 127.356,208.725" fill-opacity="0" stroke="#31323D" stroke-width="2.275" stroke-linecap="round"/>
      </g>
      <g id="Shape" display="none">
        <path d="M122.122,201.843 C130.349,228.777 129.274,252.715 123.717,266.458 C110.617,261.796 97.929,260.244 84.42,262.496 C72.697,224.189 67.212,199.377 73.249,183.515 C81.669,161.39 110.069,162.381 122.122,201.843 z" fill="#808080"/>
        <path d="M122.122,201.843 C130.349,228.777 129.274,252.715 123.717,266.458 C110.617,261.796 97.929,260.244 84.42,262.496 C72.697,224.189 67.212,199.377 73.249,183.515 C81.669,161.39 110.069,162.381 122.122,201.843 z" fill-opacity="0" stroke="#31323D" stroke-width="2.275"/>
      </g>
      <path d="M74.655,209.846 C72.284,206.66 79.762,210.505 82.974,216.929 C86.186,223.353 90.067,245.051 91.287,257.632 C88.398,257.824 88.398,257.118 84.868,258.145 C81.337,229.003 82.974,221.021 74.655,209.846 z" fill="#505050" fill-opacity="0.453" id="Shape" opacity="0.5"/>
      <path d="M226.576,207.456 C229.451,208.742 230.579,209.703 232.401,214.945 C234.224,220.187 233.233,247.625 235.966,259.015 C233.077,259.208 230.964,260.259 229.263,261.234 C226.955,231.134 231.872,222.51 226.576,207.456 z" fill="#505050" fill-opacity="0.453" id="Shape" opacity="0.5"/>
      <path d="M120.215,214.567 C121.713,211.956 122.64,210.682 125.245,208.019 C120.903,212.13 124.037,250.097 122.457,261.562 C120.784,261.073 119.821,261.034 117.382,260.31 C118.034,249.081 118.717,217.178 120.215,214.567 z" fill="#A1A1A1" fill-opacity="0.961" id="Shape" opacity="0.5"/>
      <path d="M269.85,214.21 C272.532,210.234 272.895,210.357 277.531,207.82 C274.086,211.982 270.426,214.733 267.059,256.573 C263.752,256.598 265.92,256.357 263.269,256.495 C263.92,245.267 267.167,218.187 269.85,214.21 z" fill="#A1A1A1" fill-opacity="0.961" id="Shape" opacity="0.5"/>
    </g>
  </g>
</svg>
