<?xml version="1.0" encoding="UTF-8"?>
<!DOCTYPE svg PUBLIC "-//W3C//DTD SVG 1.1//EN" "http://www.w3.org/Graphics/SVG/1.1/DTD/svg11.dtd">
<svg version="1.1" xmlns="http://www.w3.org/2000/svg" xmlns:xlink="http://www.w3.org/1999/xlink" x="0" y="0" width="360" height="360" viewBox="0, 0, 360, 360">
  <g id="Layer_2">
    <path d="M168.472,312.565 C95.17,315.726 35.015,301.315 34.112,280.377 C33.21,259.44 91.901,239.904 165.203,236.743 C238.505,233.583 298.66,247.994 299.563,268.931 C300.466,289.869 241.774,309.404 168.472,312.565 z" fill="#31323D" fill-opacity="0.377" id="Shape"/>
    <g id="Shape">
      <path d="M160.485,307.92 C85.226,307.92 35.988,279.993 35.988,263.916 C35.988,247.84 102.39,249.067 177.649,249.067 C252.908,249.067 324.5,247.84 324.5,263.916 C324.5,279.993 271.344,308.214 196.085,308.214 z" fill="#808080"/>
      <path d="M160.485,307.92 C85.226,307.92 35.988,279.993 35.988,263.916 C35.988,247.84 102.39,249.067 177.649,249.067 C252.908,249.067 324.5,247.84 324.5,263.916 C324.5,279.993 271.344,308.214 196.085,308.214 z" fill-opacity="0" stroke="#31323D" stroke-width="4"/>
    </g>
    <g id="Shape">
      <path d="M180.244,302.318 C100.573,302.318 35.988,285.125 35.988,263.916 C35.988,242.708 100.573,225.515 180.244,225.515 C259.914,225.515 324.5,242.708 324.5,263.916 C324.5,285.125 259.914,302.318 180.244,302.318 z" fill="#FFFFFF"/>
      <path d="M180.244,302.318 C100.573,302.318 35.988,285.125 35.988,263.916 C35.988,242.708 100.573,225.515 180.244,225.515 C259.914,225.515 324.5,242.708 324.5,263.916 C324.5,285.125 259.914,302.318 180.244,302.318 z" fill-opacity="0" stroke="#31323D" stroke-width="4"/>
    </g>
    <g id="Shape">
      <path d="M242.447,160.756 C258.062,159.663 271.665,172.272 272.83,188.918 C273.995,205.564 262.28,219.944 246.664,221.037 C231.049,222.129 217.446,209.521 216.281,192.875 C215.116,176.229 226.831,161.849 242.447,160.756 z M243.158,170.927 C233.469,171.605 226.239,181.095 227.011,192.124 C227.783,203.152 236.263,211.543 245.953,210.865 C255.642,210.187 262.872,200.697 262.1,189.669 C261.329,178.64 252.848,170.249 243.158,170.927 z" fill="#FFFFFF"/>
      <path d="M242.447,160.756 C258.062,159.663 271.665,172.272 272.83,188.918 C273.995,205.564 262.28,219.944 246.664,221.037 C231.049,222.129 217.446,209.521 216.281,192.875 C215.116,176.229 226.831,161.849 242.447,160.756 z M243.158,170.927 C233.469,171.605 226.239,181.095 227.011,192.124 C227.783,203.152 236.263,211.543 245.953,210.865 C255.642,210.187 262.872,200.697 262.1,189.669 C261.329,178.64 252.848,170.249 243.158,170.927 z" fill-opacity="0" stroke="#31323D" stroke-width="4"/>
    </g>
    <g>
      <path d="M177.078,280.3 C151.24,280.3 130.294,274.453 130.294,267.242 C130.294,260.03 151.24,254.183 177.078,254.183 C202.916,254.183 223.862,260.03 223.862,267.242 C223.862,274.453 202.916,280.3 177.078,280.3 z" fill="#FFFFFF"/>
      <path d="M177.078,280.3 C151.24,280.3 130.294,274.453 130.294,267.242 C130.294,260.03 151.24,254.183 177.078,254.183 C202.916,254.183 223.862,260.03 223.862,267.242 C223.862,274.453 202.916,280.3 177.078,280.3 z" fill-opacity="0" stroke="#31323D" stroke-width="4" stroke-linecap="round" stroke-linejoin="round"/>
    </g>
    <path d="M152.246,286.073 C113.38,286.236 81.833,276.928 81.785,265.282 C81.736,253.637 113.203,244.064 152.069,243.901 C190.935,243.738 222.481,253.047 222.53,264.692 C222.579,276.338 191.111,285.91 152.246,286.073 z" fill="#31323D" fill-opacity="0.377"/>
    <g>
      <path d="M256.661,160.69 C256.716,162.608 256.679,161.159 256.707,165.037 C256.637,203.493 236.195,257.804 211.41,268.318 C188.26,275.561 170.737,275.794 143.108,268.318 C115.366,255.468 97.835,203.959 97.449,165.037 C97.477,161.159 97.441,162.608 97.496,160.69 L256.661,160.69 z" fill="#FFFFFF"/>
      <path d="M256.661,160.69 C256.716,162.608 256.679,161.159 256.707,165.037 C256.637,203.493 236.195,257.804 211.41,268.318 C188.26,275.561 170.737,275.794 143.108,268.318 C115.366,255.468 97.835,203.959 97.449,165.037 C97.477,161.159 97.441,162.608 97.496,160.69 L256.661,160.69 z" fill-opacity="0" stroke="#31323D" stroke-width="4"/>
    </g>
    <g id="Shape">
      <path d="M177.078,182.479 C133.1,182.479 97.449,172.723 97.449,160.69 C97.449,148.657 133.1,138.902 177.078,138.902 C221.056,138.902 256.707,148.657 256.707,160.69 C256.707,172.723 221.056,182.479 177.078,182.479 z" fill="#FFFFFF"/>
      <path d="M177.078,182.479 C133.1,182.479 97.449,172.723 97.449,160.69 C97.449,148.657 133.1,138.902 177.078,138.902 C221.056,138.902 256.707,148.657 256.707,160.69 C256.707,172.723 221.056,182.479 177.078,182.479 z" fill-opacity="0" stroke="#31323D" stroke-width="4"/>
    </g>
    <g id="Shape">
      <path d="M177.078,182.478 C138.73,182.478 107.644,175.636 107.644,167.195 C107.644,158.755 138.73,151.912 177.078,151.912 C215.426,151.912 246.513,158.755 246.513,167.195 C246.513,175.636 215.426,182.478 177.078,182.478 z" fill="#684706" fill-opacity="0.883"/>
      <path d="M177.078,182.478 C138.73,182.478 107.644,175.636 107.644,167.195 C107.644,158.755 138.73,151.912 177.078,151.912 C215.426,151.912 246.513,158.755 246.513,167.195 C246.513,175.636 215.426,182.478 177.078,182.478 z" fill-opacity="0" stroke="#31323D" stroke-width="4"/>
    </g>
    <path d="M99.18,168.118 C99.18,168.118 104.648,171.633 115.395,175.66 C111.279,190.302 128.971,248.818 146.572,267.548 C129.474,261.388 118.035,241.904 111.127,224.857 C99.007,197.274 99.18,168.118 99.18,168.118 z" fill="#31323D" fill-opacity="0.377" id="Shape"/>
    <path d="M174.596,52.425 L174.504,51.91 L174.274,50.876 L173.851,49.994 L173.229,49.299 L172.573,48.633 L171.883,47.998 L171.143,47.416 L170.367,46.875 L169.561,46.373 L168.725,45.911 L167.861,45.491 L166.959,45.129 L166.029,44.816 L165.071,44.552 L164.087,44.342 L163.076,44.187 L162.533,44.129 L162.533,44.129 C162.509,44.127 162.484,44.126 162.459,44.125 L162.459,44.125 L161.973,44.093 L160.823,44.1 L159.584,44.206 L158.314,44.418 L157.016,44.742 L155.688,45.195 L154.603,45.664 L153.819,46.067 L153.072,46.507 L152.3,47.025 L151.798,47.397 L151.798,47.397 C151.726,47.453 151.654,47.51 151.582,47.569 L151.582,47.569 L151.311,47.789 L150.481,48.526 L149.575,49.448 L148.734,50.454 L148.002,51.511 L147.416,52.566 L146.991,53.572 L146.718,54.502 L146.574,55.348 L146.535,56.12 L146.579,56.831 L146.692,57.494 L146.862,58.12 L147.083,58.718 L147.35,59.296 L147.658,59.858 L148.006,60.408 L148.39,60.949 L149.023,61.737 L149.982,62.779 L151.062,63.814 L152.242,64.838 L153.513,65.846 L154.856,66.847 L156.258,67.839 L158.435,69.31 L161.412,71.241 L163.638,72.661 L165.087,73.589 L166.493,74.503 L167.84,75.4 L169.113,76.28 L170.295,77.14 L171.37,77.979 L172.324,78.791 L172.942,79.373 L173.303,79.745 L173.63,80.112 L173.914,80.467 L174.153,80.805 L174.345,81.124 L174.489,81.418 L174.585,81.678 L174.602,81.753 L174.584,81.689 L174.681,82.068 L174.82,82.745 L174.9,83.371 L174.934,83.965 L174.927,84.522 L174.88,85.045 L174.788,85.535 L174.659,85.987 L174.511,86.395 L174.348,86.757 L174.171,87.078 L173.99,87.361 L173.805,87.611 L173.617,87.837 L173.421,88.05 L173.21,88.257 L172.978,88.464 L172.724,88.679 L172.224,89.091 L171.474,89.647 L170.646,90.182 L169.682,90.757 L168.598,91.368 L167.407,92 L166.126,92.636 L164.04,93.645 L161.115,95.036 L158.81,96.19 L157.182,97.061 L155.537,97.99 L153.849,99.035 L152.111,100.212 L150.317,101.546 L148.458,103.09 L146.577,104.919 L145.069,106.617 L144.049,107.905 L143.194,109.102 L142.403,110.336 L141.691,111.59 L141.071,112.847 L140.549,114.09 L140.138,115.299 L139.932,116.026 L139.932,116.026 C139.898,116.154 139.868,116.28 139.842,116.405 L139.842,116.405 L139.81,116.553 L139.671,117.518 L139.658,118.551 L139.783,119.418 L140.005,120.141 L140.297,120.75 L140.637,121.267 L141.014,121.712 L141.42,122.101 L141.851,122.447 L142.305,122.758 L142.78,123.041 L143.501,123.407 L144.546,123.846 L145.69,124.24 L146.899,124.588 L148.17,124.9 L149.496,125.181 L150.868,125.436 L152.28,125.669 L153.724,125.883 L155.191,126.082 L157.406,126.354 L160.361,126.685 L163.242,126.996 L165.301,127.221 L166.605,127.359 L167.842,127.502 L169.006,127.64 L170.095,127.755 L171.075,127.881 L171.928,128.017 L172.63,128.174 L173.168,128.329 L173.414,128.425 L173.484,128.466 L173.468,128.46 L173.386,128.409 L173.525,128.498 L173.668,128.605 L173.741,128.681 L173.785,128.749 L173.838,128.878 L173.827,128.996 L173.745,128.984 L173.647,128.898 L173.572,128.741 L173.53,128.551 L173.513,128.367 L173.516,128.228 L173.502,128.168 L173.441,128.206 L173.327,128.343 L173.15,128.577 L172.681,129.178 L171.885,130.132 L170.941,131.217 L169.837,132.46 L168.932,133.478 L168.277,134.221 L167.608,134.994 L166.92,135.807 L166.214,136.672 L165.489,137.602 L164.745,138.62 L163.984,139.756 L163.221,141.045 L162.501,142.504 L162.071,143.6 L162.071,143.6 C162.016,143.758 161.966,143.914 161.921,144.068 L161.921,144.068 L161.786,144.534 L161.465,145.871 L161.236,147.277 L161.137,148.594 L161.157,149.816 L161.283,150.947 L161.503,151.99 L161.802,152.951 L162.17,153.839 L162.594,154.657 L163.068,155.419 L163.581,156.13 L164.128,156.796 L164.702,157.424 L165.584,158.29 L166.821,159.378 L168.094,160.411 L169.474,161.268 L170.96,161.941 L172.39,162.593 L173.704,162.76 L174.538,162.883 L175.351,163.036 L176.131,163.211 L177.005,163.294 L177.885,163.376 L178.302,163.413 L178.302,163.413 C178.86,164.488 180.741,164.141 182.504,162.637 C184.267,161.133 185.243,159.042 184.685,157.967 C184.685,157.967 184.685,157.967 184.685,157.967 L184.757,157.336 L184.874,156.128 L184.9,154.974 L184.755,153.96 L184.574,152.968 L184.354,151.985 L183.994,150.556 L183.063,149.17 L182.104,147.873 L181.023,146.789 L179.888,145.872 L178.84,144.96 L178.131,144.271 L177.718,143.827 L177.347,143.387 L177.021,142.952 L176.741,142.525 L176.508,142.106 L176.322,141.702 L176.18,141.312 L176.079,140.941 L176.015,140.591 L175.982,140.259 L175.978,139.943 L176,139.634 L176.094,139.168 L176.23,138.698 L176.08,139.165 L175.796,139.842 L175.485,140.403 L175.272,140.718 L175.19,140.812 L175.242,140.722 L175.417,140.486 L175.702,140.131 L176.084,139.676 L176.548,139.138 L177.08,138.533 L178.025,137.47 L179.452,135.858 L181.017,134.035 L182.607,132.072 L183.783,130.504 L184.61,129.312 L185.413,128.044 L186.166,126.705 L186.852,125.3 L187.427,123.854 L187.842,122.407 L188.079,121.002 L188.117,119.685 L187.953,118.498 L187.615,117.45 L187.143,116.602 L186.708,116.056 L186.356,115.699 L185.974,115.371 L185.603,115.095 L185.463,115 L185.463,115 C185.436,114.983 185.408,114.965 185.38,114.949 L185.38,114.949 L185.138,114.808 L184.703,114.587 L184.064,114.309 L183.196,113.999 L182.256,113.723 L181.249,113.459 L180.172,113.209 L179.026,112.97 L177.8,112.772 L176.51,112.592 L175.172,112.418 L173.094,112.182 L170.244,111.875 L167.371,111.553 L165.248,111.293 L163.878,111.108 L162.551,110.912 L161.28,110.704 L160.076,110.482 L158.955,110.248 L157.927,110 L157.006,109.742 L156.209,109.478 L155.522,109.202 L155.093,108.994 L154.878,108.874 L154.706,108.766 L154.577,108.677 L154.492,108.613 L154.449,108.588 L154.443,108.616 L154.465,108.718 L154.497,108.915 L154.513,109.235 L154.475,109.701 L154.398,110.079 L154.43,109.925 L154.34,110.303 L154.299,110.412 L154.279,110.402 L154.23,110.451 L154.159,110.536 L154.071,110.64 L153.975,110.746 L153.884,110.835 L153.693,111.034 L153.545,111.133 L153.678,110.889 L154.039,110.421 L154.65,109.796 L155.476,109.06 L156.487,108.23 L157.652,107.314 L158.92,106.364 L161.07,104.813 L164.162,102.611 L166.544,100.9 L168.172,99.698 L169.81,98.462 L171.449,97.17 L173.077,95.798 L174.686,94.333 L176.195,92.831 L177.258,91.657 L177.977,90.792 L178.66,89.901 L179.303,88.989 L179.898,88.062 L180.432,87.127 L180.899,86.193 L181.297,85.269 L181.622,84.358 L181.883,83.463 L182.076,82.587 L182.203,81.728 L182.278,80.879 L182.307,80.034 L182.282,79.193 L182.2,78.357 L182.064,77.521 L181.883,76.704 L181.781,76.323 L181.781,76.323 C181.775,76.302 181.769,76.28 181.763,76.259 L181.763,76.259 L181.665,75.964 L181.46,75.476 L181.212,75.011 L180.923,74.559 L180.596,74.116 L180.234,73.679 L179.838,73.243 L179.402,72.802 L178.695,72.148 L177.659,71.278 L176.518,70.401 L175.286,69.512 L173.976,68.613 L172.602,67.705 L171.178,66.787 L169.718,65.86 L167.495,64.461 L164.537,62.574 L162.391,61.148 L161.026,60.198 L159.73,59.249 L158.52,58.305 L157.404,57.374 L156.406,56.455 L155.531,55.545 L154.967,54.874 L154.646,54.443 L154.367,54.024 L154.129,53.62 L153.936,53.233 L153.785,52.87 L153.677,52.539 L153.608,52.247 L153.571,52.008 L153.554,51.833 L153.54,51.738 L153.508,51.731 L153.439,51.805 L153.328,51.933 L153.193,52.069 L153.076,52.16 L153.023,52.172 L153.179,52.007 L153.452,51.778 L153.237,51.95 L153.122,52.025 L153.163,51.976 L153.279,51.889 L153.401,51.805 L153.745,51.62 L154.421,51.343 L155.203,51.104 L156.045,50.92 L156.908,50.803 L157.803,50.758 L158.306,50.767 L158.232,50.763 L158.634,50.78 L159.491,50.856 L160.341,50.981 L161.185,51.155 L162.017,51.375 L162.836,51.639 L163.65,51.935 L164.446,52.272 L165.223,52.65 L165.977,53.064 L166.713,53.51 L167.44,53.971 L168.141,54.464 L168.812,54.986 L169.617,55.378 L170.546,55.668 L171.006,55.834 C171.439,56.367 172.594,56.036 173.585,55.095 C174.577,54.153 175.029,52.958 174.596,52.425 L174.596,52.425" fill="#31323D" id="Shape" opacity="0.337"/>
  </g>
</svg>
