<?xml version="1.0" encoding="UTF-8"?>
<!DOCTYPE svg PUBLIC "-//W3C//DTD SVG 1.1//EN" "http://www.w3.org/Graphics/SVG/1.1/DTD/svg11.dtd">
<svg version="1.1" xmlns="http://www.w3.org/2000/svg" xmlns:xlink="http://www.w3.org/1999/xlink" x="0" y="0" width="360" height="360" viewBox="0, 0, 360, 360">
  <g id="Layer_2">
    <g id="Shape">
      <path d="M263.415,171.564 C278.785,168.462 282.854,195.877 282.476,219.805 C282.099,243.734 275.765,262.759 262.047,258.217 C249.333,254.007 238.11,238.277 238.488,214.349 C238.865,190.42 250.026,171.265 263.415,171.564 z M262.68,182.082 C254.939,182.071 248.686,196.751 248.714,214.87 C248.742,232.99 255.04,247.688 262.781,247.699 C270.523,247.71 273.225,235.998 273.197,217.879 C273.17,199.759 270.421,182.093 262.68,182.082 z" fill="#FFFFFF"/>
      <path d="M263.415,171.564 C278.785,168.462 282.854,195.877 282.476,219.805 C282.099,243.734 275.765,262.759 262.047,258.217 C249.333,254.007 238.11,238.277 238.488,214.349 C238.865,190.42 250.026,171.265 263.415,171.564 z M262.68,182.082 C254.939,182.071 248.686,196.751 248.714,214.87 C248.742,232.99 255.04,247.688 262.781,247.699 C270.523,247.71 273.225,235.998 273.197,217.879 C273.17,199.759 270.421,182.093 262.68,182.082 z" fill-opacity="0" stroke="#31323D" stroke-width="4"/>
    </g>
    <path d="M166.024,228.861 C213.922,232.503 251.416,253.008 249.77,274.661 C248.123,296.314 203.908,306.717 156.01,303.075 C108.112,299.433 74.669,283.125 76.316,261.472 C77.962,239.819 118.126,225.219 166.024,228.861 z" fill="#31323D" fill-opacity="0.377"/>
    <g>
      <path d="M262.288,161.904 L262.288,270.549 L262.028,270.549 C260.484,281.5 253.165,288.757 246.359,293.702 C238.137,299.677 229.096,303.392 220.079,306.428 C198.974,313.026 169.428,310.607 145.889,306.208 C135.012,302.949 124.229,297.684 114.876,289.373 C109.852,284.909 104.789,278.771 103.352,270.549 L103.03,270.549 L103.03,161.904 L262.288,161.904 z" fill="#FFFFFF"/>
      <path d="M262.288,161.904 L262.288,270.549 L262.028,270.549 C260.484,281.5 253.165,288.757 246.359,293.702 C238.137,299.677 229.096,303.392 220.079,306.428 C198.974,313.026 169.428,310.607 145.889,306.208 C135.012,302.949 124.229,297.684 114.876,289.373 C109.852,284.909 104.789,278.771 103.352,270.549 L103.03,270.549 L103.03,161.904 L262.288,161.904 z" fill-opacity="0" stroke="#31323D" stroke-width="4"/>
    </g>
    <g id="Shape">
      <path d="M185.825,226.066 z" fill="#FFFFFF"/>
      <path d="M185.825,226.066 z" fill-opacity="0" stroke="#31323D" stroke-width="4"/>
    </g>
    <g>
      <path d="M182.659,182.569 C138.681,182.569 103.03,172.814 103.03,160.781 C103.03,148.747 138.681,138.992 182.659,138.992 C226.637,138.992 262.288,148.747 262.288,160.781 C262.288,172.814 226.637,182.569 182.659,182.569 z" fill="#FFFFFF"/>
      <path d="M182.659,182.569 C138.681,182.569 103.03,172.814 103.03,160.781 C103.03,148.747 138.681,138.992 182.659,138.992 C226.637,138.992 262.288,148.747 262.288,160.781 C262.288,172.814 226.637,182.569 182.659,182.569 z" fill-opacity="0" stroke="#31323D" stroke-width="4"/>
    </g>
    <g id="Shape">
      <path d="M182.659,182.569 C144.311,182.569 113.225,175.727 113.225,167.286 C113.225,158.846 144.311,152.003 182.659,152.003 C221.007,152.003 252.094,158.846 252.094,167.286 C252.094,175.727 221.007,182.569 182.659,182.569 z" fill="#94622E"/>
      <path d="M182.659,182.569 C144.311,182.569 113.225,175.727 113.225,167.286 C113.225,158.846 144.311,152.003 182.659,152.003 C221.007,152.003 252.094,158.846 252.094,167.286 C252.094,175.727 221.007,182.569 182.659,182.569 z" fill-opacity="0" stroke="#31323D" stroke-width="4"/>
    </g>
    <path d="M102.53,165.395 C102.53,165.395 121.541,173.491 121.642,176.442 C121.835,182.034 121.355,270.643 126.812,296.778 C121.068,293.332 110.415,286.21 102.53,271.103 C102.974,252.837 102.53,165.395 102.53,165.395 z" fill="#31323D" fill-opacity="0.377"/>
    <path d="M185.322,53.638 L185.229,53.124 L185,52.089 L184.577,51.208 L183.955,50.512 L183.299,49.846 L182.608,49.211 L181.868,48.63 L181.092,48.089 L180.287,47.586 L179.451,47.124 L178.587,46.705 L177.685,46.343 L176.754,46.029 L175.797,45.766 L174.813,45.555 L173.802,45.4 L173.259,45.343 L173.259,45.343 C173.234,45.341 173.21,45.339 173.185,45.338 L173.185,45.338 L172.699,45.307 L171.548,45.313 L170.31,45.42 L169.04,45.631 L167.742,45.956 L166.413,46.408 L165.329,46.878 L164.545,47.281 L163.798,47.721 L163.025,48.238 L162.524,48.611 L162.524,48.611 C162.451,48.666 162.379,48.724 162.308,48.783 L162.308,48.783 L162.037,49.003 L161.207,49.74 L160.301,50.661 L159.46,51.668 L158.728,52.724 L158.142,53.779 L157.717,54.786 L157.443,55.715 L157.3,56.562 L157.261,57.334 L157.305,58.045 L157.418,58.707 L157.588,59.334 L157.809,59.932 L158.075,60.51 L158.384,61.072 L158.731,61.622 L159.115,62.162 L159.748,62.951 L160.707,63.992 L161.788,65.028 L162.968,66.051 L164.239,67.06 L165.582,68.06 L166.984,69.053 L169.16,70.523 L172.138,72.454 L174.363,73.875 L175.813,74.803 L177.219,75.716 L178.566,76.614 L179.838,77.494 L181.021,78.354 L182.096,79.192 L183.049,80.004 L183.667,80.587 L184.028,80.959 L184.356,81.325 L184.64,81.68 L184.878,82.019 L185.071,82.338 L185.215,82.632 L185.311,82.892 L185.328,82.966 L185.309,82.902 L185.407,83.282 L185.545,83.959 L185.625,84.584 L185.659,85.178 L185.652,85.736 L185.606,86.259 L185.514,86.748 L185.385,87.2 L185.237,87.608 L185.074,87.97 L184.897,88.292 L184.715,88.575 L184.531,88.824 L184.342,89.051 L184.147,89.263 L183.936,89.47 L183.704,89.677 L183.45,89.892 L182.95,90.305 L182.2,90.861 L181.372,91.395 L180.408,91.97 L179.324,92.581 L178.133,93.213 L176.851,93.849 L174.766,94.858 L171.84,96.25 L169.535,97.404 L167.907,98.275 L166.262,99.203 L164.574,100.249 L162.837,101.425 L161.043,102.76 L159.184,104.304 L157.303,106.133 L155.794,107.831 L154.774,109.119 L153.92,110.316 L153.129,111.549 L152.417,112.804 L151.796,114.06 L151.275,115.303 L150.863,116.513 L150.658,117.239 L150.658,117.239 C150.624,117.367 150.594,117.494 150.567,117.619 L150.567,117.619 L150.536,117.766 L150.397,118.732 L150.384,119.765 L150.508,120.631 L150.73,121.355 L151.022,121.964 L151.362,122.48 L151.74,122.926 L152.146,123.315 L152.577,123.661 L153.031,123.972 L153.506,124.254 L154.227,124.621 L155.271,125.059 L156.415,125.453 L157.625,125.802 L158.896,126.114 L160.22,126.394 L161.593,126.65 L163.007,126.883 L164.45,127.097 L165.916,127.295 L168.131,127.567 L171.086,127.899 L173.968,128.209 L176.026,128.434 L177.33,128.573 L178.568,128.715 L179.731,128.853 L180.82,128.968 L181.8,129.094 L182.653,129.231 L183.356,129.387 L183.894,129.543 L184.139,129.638 L184.209,129.68 L184.195,129.674 L184.111,129.622 L184.251,129.711 L184.394,129.818 L184.466,129.894 L184.51,129.962 L184.563,130.091 L184.553,130.209 L184.471,130.197 L184.372,130.112 L184.297,129.955 L184.255,129.764 L184.238,129.581 L184.241,129.442 L184.227,129.383 L184.167,129.419 L184.053,129.556 L183.875,129.791 L183.407,130.391 L182.611,131.346 L181.668,132.429 L180.564,133.673 L179.658,134.691 L179.002,135.436 L178.333,136.208 L177.646,137.021 L176.94,137.885 L176.215,138.815 L175.471,139.833 L174.709,140.97 L173.946,142.258 L173.227,143.718 L172.796,144.814 L172.796,144.814 C172.741,144.971 172.691,145.127 172.647,145.281 L172.647,145.281 L172.511,145.747 L172.191,147.084 L171.962,148.491 L171.863,149.807 L171.883,151.03 L172.009,152.161 L172.228,153.204 L172.527,154.165 L172.895,155.051 L173.32,155.871 L173.793,156.633 L174.307,157.343 L174.854,158.009 L175.428,158.638 L176.31,159.504 L177.547,160.591 L178.819,161.625 L180.2,162.482 L181.686,163.154 L183.116,163.806 L184.43,163.974 L185.263,164.097 L186.077,164.25 L186.857,164.424 L187.731,164.507 L188.61,164.59 L189.028,164.626 L189.028,164.626 C189.586,165.702 191.467,165.354 193.23,163.85 C194.992,162.347 195.969,160.256 195.411,159.18 C195.411,159.18 195.411,159.18 195.411,159.18 L195.483,158.55 L195.599,157.342 L195.625,156.187 L195.48,155.173 L195.3,154.182 L195.079,153.199 L194.72,151.77 L193.789,150.384 L192.83,149.086 L191.749,148.003 L190.614,147.086 L189.566,146.173 L188.856,145.485 L188.443,145.041 L188.073,144.601 L187.747,144.166 L187.467,143.738 L187.234,143.32 L187.048,142.915 L186.906,142.526 L186.805,142.155 L186.74,141.804 L186.708,141.472 L186.704,141.156 L186.725,140.847 L186.819,140.381 L186.955,139.911 L186.806,140.379 L186.522,141.055 L186.21,141.617 L185.997,141.932 L185.915,142.026 L185.967,141.937 L186.143,141.7 L186.427,141.345 L186.809,140.889 L187.275,140.35 L187.806,139.747 L188.75,138.685 L190.177,137.073 L191.743,135.248 L193.332,133.286 L194.51,131.716 L195.336,130.525 L196.138,129.258 L196.892,127.917 L197.577,126.513 L198.153,125.067 L198.568,123.621 L198.805,122.215 L198.843,120.898 L198.679,119.712 L198.34,118.664 L197.869,117.816 L197.434,117.27 L197.081,116.913 L196.7,116.585 L196.329,116.308 L196.189,116.214 L196.189,116.214 C196.161,116.196 196.133,116.179 196.105,116.162 L196.105,116.162 L195.864,116.021 L195.429,115.801 L194.789,115.522 L193.922,115.212 L192.982,114.937 L191.975,114.672 L190.897,114.422 L189.753,114.184 L188.525,113.985 L187.236,113.805 L185.897,113.631 L183.819,113.396 L180.97,113.088 L178.097,112.767 L175.974,112.506 L174.603,112.322 L173.275,112.126 L172.006,111.918 L170.803,111.696 L169.681,111.461 L168.652,111.214 L167.732,110.955 L166.935,110.691 L166.248,110.416 L165.819,110.207 L165.604,110.088 L165.431,109.98 L165.303,109.89 L165.217,109.827 L165.175,109.802 L165.169,109.83 L165.191,109.931 L165.223,110.128 L165.238,110.448 L165.2,110.914 L165.123,111.292 L165.156,111.138 L165.065,111.518 L165.025,111.625 L165.004,111.617 L164.955,111.664 L164.884,111.749 L164.796,111.854 L164.7,111.959 L164.61,112.048 L164.419,112.247 L164.27,112.347 L164.403,112.103 L164.765,111.634 L165.376,111.01 L166.202,110.273 L167.213,109.444 L168.377,108.528 L169.646,107.577 L171.795,106.027 L174.888,103.824 L177.269,102.114 L178.898,100.911 L180.535,99.676 L182.174,98.384 L183.802,97.011 L185.412,95.547 L186.921,94.045 L187.983,92.871 L188.702,92.006 L189.386,91.114 L190.029,90.202 L190.623,89.275 L191.157,88.341 L191.625,87.407 L192.022,86.482 L192.348,85.572 L192.609,84.677 L192.801,83.801 L192.928,82.942 L193.004,82.093 L193.033,81.247 L193.008,80.406 L192.926,79.57 L192.79,78.735 L192.609,77.917 L192.507,77.537 L192.507,77.537 C192.501,77.516 192.495,77.494 192.488,77.473 L192.488,77.473 L192.39,77.178 L192.185,76.69 L191.937,76.224 L191.649,75.772 L191.322,75.329 L190.96,74.892 L190.564,74.456 L190.128,74.016 L189.421,73.361 L188.385,72.492 L187.244,71.614 L186.012,70.725 L184.702,69.827 L183.328,68.918 L181.903,68 L180.444,67.073 L178.22,65.675 L175.263,63.788 L173.116,62.362 L171.752,61.411 L170.456,60.463 L169.245,59.518 L168.13,58.587 L167.131,57.669 L166.256,56.759 L165.693,56.087 L165.372,55.657 L165.092,55.238 L164.855,54.833 L164.661,54.447 L164.511,54.084 L164.403,53.753 L164.334,53.461 L164.296,53.221 L164.28,53.047 L164.266,52.952 L164.234,52.944 L164.165,53.019 L164.054,53.147 L163.919,53.282 L163.801,53.374 L163.748,53.386 L163.905,53.221 L164.178,52.992 L163.962,53.164 L163.848,53.238 L163.889,53.189 L164.005,53.102 L164.127,53.018 L164.47,52.834 L165.147,52.557 L165.929,52.317 L166.771,52.134 L167.633,52.016 L168.529,51.972 L169.031,51.981 L168.957,51.976 L169.36,51.993 L170.216,52.069 L171.067,52.194 L171.91,52.368 L172.742,52.588 L173.562,52.853 L174.376,53.149 L175.172,53.486 L175.948,53.863 L176.703,54.278 L177.438,54.724 L178.166,55.184 L178.866,55.677 L179.538,56.2 L180.343,56.592 L181.271,56.881 L181.731,57.048 C182.165,57.581 183.32,57.25 184.311,56.308 C185.303,55.367 185.755,54.171 185.322,53.638 L185.322,53.638" fill="#31323D" opacity="0.337"/>
  </g>
</svg>
