<?xml version="1.0" encoding="UTF-8"?>
<!DOCTYPE svg PUBLIC "-//W3C//DTD SVG 1.1//EN" "http://www.w3.org/Graphics/SVG/1.1/DTD/svg11.dtd">
<svg version="1.1" xmlns="http://www.w3.org/2000/svg" xmlns:xlink="http://www.w3.org/1999/xlink" x="0" y="0" width="360" height="360" viewBox="0, 0, 360, 360">
  <g id="Layer_2">
    <path d="M178.073,272.928 C106.767,272.928 48.961,267.854 48.961,261.595 C48.961,255.336 106.767,250.262 178.073,250.262 C249.38,250.262 307.185,255.336 307.185,261.595 C307.185,267.854 249.38,272.928 178.073,272.928 z" fill="#7E7E7E" fill-opacity="0.551"/>
  </g>
  <g id="Layer_3">
    <g id="Pants_and_belt">
      <g id="Shape">
        <path d="M120.111,251.453 L118.719,263.919 L232.51,263.922 L232.492,252.219 L120.111,251.453 z" fill="#808080"/>
        <path d="M120.111,251.453 L118.719,263.919 L232.51,263.922 L232.492,252.219 L120.111,251.453 z" fill-opacity="0" stroke="#31323D" stroke-width="2.275"/>
      </g>
      <g id="Shape">
        <path d="M264.383,250.781 C264.383,250.462 263.596,257.319 263.845,260.065 C266.581,260.697 271.182,258.289 282.756,251.453 C289.866,242.154 276.778,255.608 276.778,255.608 C276.778,255.608 283.875,256.933 290.629,257.174 C309.757,247.826 310.747,232.171 310.851,224.9 C305.284,221.863 299.772,221.521 299.772,221.521 C299.772,221.521 264.383,251.101 264.383,250.781 z" fill="#808080"/>
        <path d="M264.383,250.781 C264.383,250.462 263.596,257.319 263.845,260.065 C266.581,260.697 271.182,258.289 282.756,251.453 C289.866,242.154 276.778,255.608 276.778,255.608 C276.778,255.608 283.875,256.933 290.629,257.174 C309.757,247.826 310.747,232.171 310.851,224.9 C305.284,221.863 299.772,221.521 299.772,221.521 C299.772,221.521 264.383,251.101 264.383,250.781 z" fill-opacity="0" stroke="#31323D" stroke-width="2.275"/>
      </g>
      <g id="Shape">
        <path d="M62.702,221.521 C62.829,221.521 58.148,224.304 54.549,226.501 C58.907,257.072 71.98,257.174 71.98,257.174 L82.123,256.927 L76.771,249.04 C76.771,249.04 82.593,260.829 88.083,260.026 C89.776,256.692 89.8,252.959 89.8,252.959 L83.451,230.377 L62.702,221.521 z" fill="#808080"/>
        <path d="M62.702,221.521 C62.829,221.521 58.148,224.304 54.549,226.501 C58.907,257.072 71.98,257.174 71.98,257.174 L82.123,256.927 L76.771,249.04 C76.771,249.04 82.593,260.829 88.083,260.026 C89.776,256.692 89.8,252.959 89.8,252.959 L83.451,230.377 L62.702,221.521 z" fill-opacity="0" stroke="#31323D" stroke-width="2.275"/>
      </g>
      <g id="Belt">
        <path d="M121.257,256.814 C120.286,257.203 231.263,258.853 231.069,256.135 C230.875,253.416 230.875,256.814 231.555,258.659 C229.71,259.533 121.063,260.115 121.16,258.368 C121.257,256.62 122.228,256.426 121.257,256.814 z" fill="#808080"/>
        <path d="M121.257,256.814 C120.286,257.203 231.263,258.853 231.069,256.135 C230.875,253.416 230.875,256.814 231.555,258.659 C229.71,259.533 121.063,260.115 121.16,258.368 C121.257,256.62 122.228,256.426 121.257,256.814 z" fill-opacity="0" stroke="#31323D" stroke-width="2.275"/>
      </g>
      <g id="Belt_buckle">
        <path d="M163.886,254.626 L177.021,254.626 C177.32,254.626 177.563,254.851 177.563,255.127 L177.563,260.035 C177.563,260.311 177.32,260.536 177.021,260.536 L163.886,260.536 C163.587,260.536 163.345,260.311 163.345,260.035 L163.345,255.127 C163.345,254.851 163.587,254.626 163.886,254.626 z" fill="#C6C6C6"/>
        <path d="M163.886,254.626 L177.021,254.626 C177.32,254.626 177.563,254.851 177.563,255.127 L177.563,260.035 C177.563,260.311 177.32,260.536 177.021,260.536 L163.886,260.536 C163.587,260.536 163.345,260.311 163.345,260.035 L163.345,255.127 C163.345,254.851 163.587,254.626 163.886,254.626 z" fill-opacity="0" stroke="#31323D" stroke-width="2.275"/>
      </g>
    </g>
    <g id="Shirt_and_tie">
      <g id="Shape">
        <path d="M77.647,111.34 C77.647,111.34 133.951,123.681 134.281,123.021 C134.611,122.361 161.17,130.464 161.17,130.464 L180.945,130.855 L269.672,110.689 L194.932,217.613 L171.179,236.648 L145.507,218.752 L77.647,111.34 z" fill="#FFFFFF"/>
        <path d="M269.672,110.689 L194.932,217.613 L171.179,236.648 L145.507,218.752 L77.646,111.34 C77.647,111.34 133.951,123.681 134.281,123.021 C134.611,122.361 161.17,130.464 161.17,130.464 L180.945,130.855 L269.672,110.689 z M264.433,114.213 L181.449,133.073 C181.269,133.114 181.085,133.133 180.9,133.129 L161.125,132.739 C160.915,132.735 160.707,132.702 160.506,132.64 C160.459,132.626 160.459,132.626 160.232,132.557 C159.92,132.462 159.746,132.409 159.452,132.32 C158.61,132.065 157.668,131.78 156.649,131.474 C153.738,130.599 150.792,129.724 147.996,128.907 C147.69,128.818 147.388,128.73 147.089,128.643 C143.377,127.564 140.276,126.692 137.996,126.093 C136.724,125.759 135.73,125.516 135.053,125.375 L134.77,125.32 L134.014,125.319 C133.817,125.312 133.59,125.291 133.311,125.256 C132.847,125.198 132.204,125.096 131.376,124.952 C129.847,124.685 127.67,124.269 124.894,123.715 C120.024,122.742 113.412,121.364 105.491,119.68 C104.877,119.549 104.877,119.549 104.263,119.418 C98.249,118.137 91.879,116.765 85.557,115.392 L82.474,114.722 L147.184,217.148 L171.084,233.808 L193.255,216.041 L264.433,114.213 z" fill="#31323D"/>
      </g>
      <g id="Shape">
        <path d="M177.647,141.845 L188.205,218.916 L180.035,238.344 L159.873,238.344 L153.979,217.604 L162.047,141.953 z" fill="#D70100"/>
        <path d="M177.647,141.845 L188.205,218.916 L180.035,238.344 L159.873,238.344 L153.979,217.604 L162.047,141.953 L177.647,141.845 z M175.665,144.134 L164.094,144.214 L156.288,217.406 L161.591,236.069 L178.523,236.07 L185.866,218.608 L175.665,144.134 z" fill="#31323D"/>
      </g>
      <g>
        <path d="M169.886,153.548 L153.323,146.621 L164.669,127.961 L176.859,127.68 L187.267,147.559 L169.886,153.548 z" fill="#D70100"/>
        <path d="M176.859,127.68 L187.267,147.559 L169.886,153.548 L153.323,146.621 L164.669,127.961 L176.859,127.68 z M175.499,129.987 L165.966,130.207 L156.641,145.543 L169.964,151.115 L184.024,146.27 L175.499,129.987 z" fill="#31323D"/>
      </g>
      <g id="Shape">
        <path d="M168.714,126.877 C168.714,126.877 152.947,153.437 152.947,153.437 C152.947,153.437 74.394,119.146 74.394,119.146 L76.572,103.238 L168.714,126.877 z" fill="#FFFFFF"/>
        <path d="M76.572,103.238 L168.714,126.877 C168.714,126.877 152.947,153.437 152.947,153.437 C152.947,153.437 74.394,119.146 74.394,119.146 L76.572,103.238 z M150.993,152.271 L150.992,152.274 L150.992,152.274 L150.992,152.274 L150.993,152.272 L150.993,152.271 z M78.48,106.076 L76.881,117.749 C78.071,118.269 77.472,118.007 78.679,118.534 C82.362,120.142 82.362,120.142 87.578,122.419 C99.852,127.777 99.852,127.777 114.581,134.206 C129.31,140.636 129.31,140.636 141.584,145.994 C146.8,148.271 146.8,148.271 150.482,149.878 C151.602,150.367 151.091,150.144 152.017,150.548 C152.496,149.74 152.975,148.933 153.455,148.126 C155.918,143.976 155.918,143.976 158.874,138.995 L158.874,138.995 C161.831,134.016 161.831,134.016 164.294,129.865 C165.033,128.621 164.729,129.134 165.208,128.326 L78.48,106.076 z" fill="#31323D"/>
      </g>
      <g>
        <path d="M173.314,126.877 C173.314,126.877 186.639,152.787 186.639,152.787 C186.639,152.787 274.427,116.804 274.427,116.804 L272.925,103.238 L173.314,126.877 z" fill="#FFFFFF"/>
        <path d="M272.924,103.238 L274.427,116.804 C274.427,116.804 186.639,152.787 186.639,152.787 C186.639,152.787 173.314,126.877 173.314,126.877 L272.924,103.238 z M270.947,106.046 L176.666,128.42 C177.052,129.171 176.801,128.683 177.419,129.885 C179.501,133.933 179.501,133.933 182,138.791 L182,138.791 C184.498,143.65 184.498,143.65 186.58,147.698 C186.956,148.429 187.332,149.159 187.708,149.89 C188.868,149.414 188.255,149.666 189.548,149.135 C193.664,147.449 193.664,147.449 199.493,145.059 C207.037,141.967 213.21,139.437 229.67,132.69 C246.13,125.944 246.13,125.944 259.847,120.321 C265.677,117.932 265.677,117.932 269.792,116.245 C271.2,115.668 270.472,115.966 271.977,115.35 L270.947,106.046 z" fill="#31323D"/>
      </g>
    </g>
    <g id="Jacket">
      <g>
        <path d="M73.498,110.17 C60.887,191.769 42.159,214.182 78.983,253.49 C137.044,259.755 231.412,257.051 282.197,252.769 C332.026,205.301 285.654,145.811 278.442,111.371 C259.979,109.156 272.573,106.259 272.573,106.259 L170.407,227.171 z" fill="#808080"/>
        <path d="M73.498,110.17 C60.887,191.769 42.159,214.182 78.983,253.49 C137.044,259.755 231.412,257.051 282.197,252.769 C332.026,205.301 285.654,145.811 278.442,111.371 C259.979,109.156 272.573,106.259 272.573,106.259 L170.407,227.171 z" fill-opacity="0" stroke="#31323D" stroke-width="2.275"/>
      </g>
      <g id="Shape" display="none">
        <path d="M173.002,237.148 C172.553,237.148 172.189,236.709 172.189,236.167 C172.189,235.626 172.553,235.187 173.002,235.187 C173.45,235.187 173.814,235.626 173.814,236.167 C173.814,236.709 173.45,237.148 173.002,237.148 z" fill="#808080"/>
        <path d="M173.002,237.148 C172.553,237.148 172.189,236.709 172.189,236.167 C172.189,235.626 172.553,235.187 173.002,235.187 C173.45,235.187 173.814,235.626 173.814,236.167 C173.814,236.709 173.45,237.148 173.002,237.148 z" fill-opacity="0" stroke="#31323D" stroke-width="2.275"/>
      </g>
      <g id="Shape">
        <path d="M174.187,245.064 C173.084,245.064 172.189,244.285 172.189,243.324 C172.189,242.362 173.084,241.583 174.187,241.583 C175.291,241.583 176.185,242.362 176.185,243.324 C176.185,244.285 175.291,245.064 174.187,245.064 z" fill="#31323D"/>
        <path d="M174.187,245.064 C173.084,245.064 172.189,244.285 172.189,243.324 C172.189,242.362 173.084,241.583 174.187,241.583 C175.291,241.583 176.185,242.362 176.185,243.324 C176.185,244.285 175.291,245.064 174.187,245.064 z" fill-opacity="0" stroke="#31323D" stroke-width="2.275"/>
      </g>
      <g id="Shape">
        <path d="M174.101,237.275 C172.998,237.275 172.103,236.496 172.103,235.535 C172.103,234.574 172.998,233.795 174.101,233.795 C175.205,233.795 176.099,234.574 176.099,235.535 C176.099,236.496 175.205,237.275 174.101,237.275 z" fill="#31323D"/>
        <path d="M174.101,237.275 C172.998,237.275 172.103,236.496 172.103,235.535 C172.103,234.574 172.998,233.795 174.101,233.795 C175.205,233.795 176.099,234.574 176.099,235.535 C176.099,236.496 175.205,237.275 174.101,237.275 z" fill-opacity="0" stroke="#31323D" stroke-width="2.275"/>
      </g>
      <path d="M172.07,249.84 L176.691,249.84" fill-opacity="0" stroke="#31323D" stroke-width="1.625" stroke-linecap="square" stroke-linejoin="round"/>
      <g>
        <path d="M170.5,227.619 L170.407,256.927" fill="#808080"/>
        <path d="M170.5,227.619 L170.407,256.927" fill-opacity="0" stroke="#31323D" stroke-width="2.275"/>
      </g>
      <g>
        <path d="M211.228,198.527 L235.285,198.527 L235.285,202.638 L211.228,202.638 z" fill="#808080"/>
        <path d="M211.228,198.527 L235.285,198.527 L235.285,202.638 L211.228,202.638 z" fill-opacity="0" stroke="#31323D" stroke-width="2.275"/>
      </g>
      <path d="M55.14,226.388 C55.823,225.766 55.45,226.388 56.941,225.207 C56.009,233.222 73.803,254.993 80.067,255.397 C86.332,255.801 72.287,255.712 72.039,255.588 C59.861,254.905 55.45,229.121 55.14,226.388 z" fill="#505050" fill-opacity="0.453" id="Shape" opacity="0.5"/>
      <path d="M71.031,127.98 C76.16,135.959 80.072,130.018 80.072,130.018 C80.072,130.018 53.038,210.509 91.097,253.855 C85.68,253.016 83.737,252.729 79.889,253.028 C42.077,217.26 61.771,181.513 71.031,127.98 z" fill="#505050" fill-opacity="0.453" id="Shape" opacity="0.5"/>
      <g id="Jacket_collar">
        <path d="M273.739,99.77 C273.739,99.77 282.75,117.26 282.75,117.26 C282.75,117.26 268.764,133.758 268.764,133.758 C268.764,133.758 261.685,129.129 261.685,129.129 C261.685,129.129 263.863,138.387 263.863,138.387 C263.863,138.387 169.789,224.568 169.789,224.568 C169.789,224.568 83.337,137.025 83.337,137.025 C83.337,137.025 85.379,128.176 85.379,128.176 C85.379,128.176 78.027,132.669 78.027,132.669 C78.027,132.669 68.225,122.322 68.225,122.322 C68.225,122.322 76.572,103.238 76.572,103.238 C76.572,103.238 169.821,224.568 169.821,224.568 C169.821,224.568 273.739,99.77 273.739,99.77 z" fill="#808080"/>
        <path d="M274.188,95.675 L275.761,98.728 C276.043,99.274 276.043,99.274 277.169,101.461 C278.577,104.193 278.577,104.193 280.267,107.473 C281.956,110.752 281.956,110.752 283.364,113.485 C284.491,115.671 284.491,115.671 284.772,116.218 L285.469,117.57 L284.485,118.731 C284.048,119.246 284.048,119.246 282.3,121.309 C280.987,122.857 279.675,124.405 278.362,125.954 C276.47,128.186 274.578,130.419 272.685,132.651 C270.937,134.714 270.937,134.714 270.5,135.229 L269.201,136.761 L267.519,135.662 C266.747,135.157 265.975,134.652 265.203,134.147 C265.494,135.387 265.786,136.626 266.078,137.866 L266.383,139.164 L265.4,140.064 C264.665,140.738 264.665,140.738 261.358,143.767 C256.948,147.807 256.948,147.807 250.701,153.53 C236.002,166.996 236.002,166.996 218.363,183.155 C200.724,199.314 200.724,199.314 186.025,212.779 C179.778,218.502 179.778,218.502 175.368,222.542 C174.103,223.701 172.837,224.861 171.572,226.02 L171.569,226.023 L169.749,228.208 L168.213,226.209 L168.17,226.166 C167.495,225.482 167.495,225.482 164.456,222.405 C160.403,218.301 160.403,218.301 154.662,212.488 C141.154,198.809 141.154,198.809 124.944,182.395 C108.734,165.981 108.734,165.981 95.226,152.302 C89.485,146.489 89.485,146.489 85.433,142.385 C82.393,139.308 82.393,139.308 81.718,138.624 L80.839,137.733 L81.12,136.514 C81.395,135.323 81.67,134.132 81.945,132.941 C81.034,133.497 80.124,134.054 79.213,134.61 L77.642,135.57 L76.376,134.233 C76.069,133.91 76.069,133.91 74.844,132.617 C73.312,131 73.312,131 71.474,129.06 C69.637,127.12 69.637,127.12 68.105,125.503 C66.88,124.21 66.88,124.21 66.573,123.886 L65.536,122.792 L66.141,121.41 C66.401,120.814 66.401,120.814 67.445,118.428 C68.228,116.637 69.012,114.846 69.795,113.055 C70.925,110.473 72.054,107.891 73.184,105.308 C74.227,102.923 74.227,102.923 74.488,102.326 L76.031,98.8 L78.376,101.852 C79.105,102.8 79.105,102.8 82.383,107.065 C86.754,112.753 86.754,112.753 92.946,120.81 C103.101,134.023 113.256,147.236 123.411,160.449 C134.626,175.041 145.84,189.632 157.054,204.223 C163.247,212.281 163.247,212.281 167.618,217.968 C168.376,218.954 169.134,219.941 169.892,220.927 C170.774,219.868 171.656,218.809 172.538,217.749 C177.409,211.9 177.409,211.9 184.309,203.612 C195.627,190.021 206.943,176.43 218.261,162.839 C230.758,147.831 243.256,132.822 255.753,117.814 C262.654,109.526 262.654,109.526 267.525,103.676 C271.179,99.289 271.179,99.289 271.991,98.314 L274.188,95.675 z M273.739,99.77 C239.134,141.329 204.526,182.886 169.921,224.446 C169.841,224.52 169.879,224.486 169.807,224.551 L169.82,224.568 C169.904,224.467 169.871,224.507 169.921,224.446 C201.235,195.76 232.55,167.074 263.863,138.387 C263.863,138.387 261.685,129.129 261.685,129.129 C261.685,129.129 268.764,133.758 268.764,133.758 C268.764,133.758 282.75,117.26 282.75,117.26 C282.75,117.26 273.739,99.77 273.739,99.77 z M76.572,103.238 C76.572,103.238 68.225,122.322 68.225,122.322 C68.225,122.322 78.027,132.669 78.027,132.669 C78.027,132.669 85.379,128.176 85.379,128.176 C85.379,128.176 83.337,137.025 83.337,137.025 C83.337,137.025 169.789,224.568 169.789,224.568 L169.807,224.551 C138.727,184.115 107.654,143.673 76.572,103.238 z" fill="#31323D"/>
      </g>
      <path d="M76.573,103.238 L83.765,112.827 C83.765,112.827 77.346,127.514 78.027,132.669 C74.303,127.717 68.225,122.322 68.225,122.322 z" fill="#505050" fill-opacity="0.453" opacity="0.5"/>
      <path d="M303.63,223.014 C304.187,223.014 309.298,224.82 309.298,224.82 C309.298,224.82 309.117,235.037 305.197,241.32 C301.935,248.373 294.28,252.989 294.28,252.989 C294.28,252.989 304.354,237.546 303.63,223.014 z" fill="#A1A1A1" fill-opacity="0.961" opacity="0.5"/>
      <path d="M263.24,112.456 L273.739,99.77 L282.75,117.26 C282.75,117.26 274.191,126.881 274.427,126.656 C269.968,115.62 263.24,112.456 263.24,112.456 z" fill="#A1A1A1" fill-opacity="0.961" id="Shape" opacity="0.5"/>
      <path d="M271.025,134.63 C271.025,134.63 277.26,126.699 280.573,123.472 C315.593,201.012 305.57,224.142 281.445,251.323 C277.32,251.486 279.378,251.266 276.067,251.419 C322.677,205.744 271.025,134.63 271.025,134.63 z" fill="#A1A1A1" fill-opacity="0.961" opacity="0.5"/>
      <g id="Shape" display="none">
        <path d="M232.526,196.071 C224.299,223.005 223.221,247.986 228.779,261.729 C241.879,257.067 254.566,255.515 268.076,257.767 C279.799,219.46 292.337,193.874 286.3,178.013 C277.88,155.887 244.579,156.609 232.526,196.071 z" fill="#808080"/>
        <path d="M232.526,196.071 C224.299,223.005 223.221,247.986 228.779,261.729 C241.879,257.067 254.566,255.515 268.076,257.767 C279.799,219.46 292.337,193.874 286.3,178.013 C277.88,155.887 244.579,156.609 232.526,196.071 z" fill-opacity="0" stroke="#31323D" stroke-width="2.275"/>
      </g>
      <g>
        <path d="M279.622,210.059 C269.564,221.348 272.619,237.401 268.465,259.96 C263.283,258.24 242.268,259.26 229.168,263.922 C226.017,255.768 231.941,212.226 225.605,208.725" fill="#808080"/>
        <path d="M279.622,210.059 C269.564,221.348 272.619,237.401 268.465,259.96 C263.283,258.24 242.268,259.26 229.168,263.922 C226.017,255.768 231.941,212.226 225.605,208.725" fill-opacity="0" stroke="#31323D" stroke-width="2.275" stroke-linecap="round"/>
      </g>
      <path d="M226.984,208.472 C229.859,209.758 230.987,210.719 232.809,215.961 C234.632,221.203 233.641,248.641 236.374,260.031 C233.485,260.223 231.372,261.274 229.671,262.25 C227.363,232.15 232.28,223.526 226.984,208.472 z" fill="#505050" fill-opacity="0.453" id="Shape" opacity="0.5"/>
      <path d="M270.258,215.226 C272.94,211.249 273.303,211.372 277.939,208.836 C274.494,212.997 270.834,215.749 267.467,257.588 C264.16,257.613 266.328,257.372 263.677,257.51 C264.328,246.282 267.575,219.202 270.258,215.226 z" fill="#A1A1A1" fill-opacity="0.961" id="Shape" opacity="0.5"/>
      <path d="M229.14,210.461 C229.424,246.312 245.294,255.877 245.294,255.877 C245.294,255.877 234.454,256.939 229.282,260.057 C222.764,242.698 227.227,221.301 229.14,210.461 z" fill="#505050" fill-opacity="0.453" id="Shape" opacity="0.5" display="none"/>
      <path d="M256.894,165.425 C262.024,164.21 266.209,163.198 273.499,165.897 C287.201,173.187 290.036,184.122 280.451,214.564 C284.028,184.797 263.779,168.26 256.894,165.425 z" fill="#A1A1A1" fill-opacity="0.961" opacity="0.5" display="none"/>
      <g id="Shape" display="none">
        <path d="M122.141,200.665 C130.367,227.599 129.293,251.537 123.736,265.281 C110.635,260.619 97.948,259.067 84.439,261.318 C72.716,223.012 67.23,198.199 73.267,182.338 C81.688,160.213 110.087,161.203 122.141,200.665 z" fill="#808080"/>
        <path d="M122.141,200.665 C130.367,227.599 129.293,251.537 123.736,265.281 C110.635,260.619 97.948,259.067 84.439,261.318 C72.716,223.012 67.23,198.199 73.267,182.338 C81.688,160.213 110.087,161.203 122.141,200.665 z" fill-opacity="0" stroke="#31323D" stroke-width="2.275"/>
      </g>
      <g id="Shape">
        <path d="M74.894,211.417 C84.951,222.706 81.896,238.759 86.051,261.318 C91.232,259.599 112.248,260.619 125.348,265.281 C128.499,257.126 122.575,213.585 128.91,210.084" fill="#808080"/>
        <path d="M74.894,211.417 C84.951,222.706 81.896,238.759 86.051,261.318 C91.232,259.599 112.248,260.619 125.348,265.281 C128.499,257.126 122.575,213.585 128.91,210.084" fill-opacity="0" stroke="#31323D" stroke-width="2.275" stroke-linecap="round"/>
      </g>
      <path d="M76.21,211.204 C73.838,208.019 81.316,211.863 84.528,218.287 C87.74,224.711 91.622,246.409 92.841,258.99 C89.953,259.183 89.953,258.477 86.422,259.504 C82.892,230.361 84.528,222.379 76.21,211.204 z" fill="#505050" fill-opacity="0.453" id="Shape" opacity="0.5"/>
      <path d="M121.77,215.926 C123.268,213.314 124.194,212.041 126.799,209.378 C122.457,213.488 125.591,251.456 124.011,262.92 C122.339,262.432 121.375,262.393 118.937,261.668 C119.588,250.44 120.272,218.537 121.77,215.926 z" fill="#A1A1A1" fill-opacity="0.961" id="Shape" opacity="0.5"/>
      <path d="M73.353,216.496 C81.19,237.194 90.903,257.154 98.941,258.695 C90.97,258.561 85.056,259.556 84.807,259.432 C84.807,259.432 78.109,240.275 73.353,216.496 z" fill="#505050" fill-opacity="0.453" id="Shape" opacity="0.5" display="none"/>
      <path d="M78.522,174.326 C87.86,166.487 93.755,168.315 101.044,171.015 C116.905,178.747 123.711,212.582 123.711,212.582 C123.711,212.582 95.599,171.311 78.522,174.326 z" fill="#A1A1A1" fill-opacity="0.961" opacity="0.5" display="none"/>
    </g>
  </g>
</svg>
