<?xml version="1.0" encoding="UTF-8"?>
<!DOCTYPE svg PUBLIC "-//W3C//DTD SVG 1.1//EN" "http://www.w3.org/Graphics/SVG/1.1/DTD/svg11.dtd">
<svg version="1.1" xmlns="http://www.w3.org/2000/svg" xmlns:xlink="http://www.w3.org/1999/xlink" x="0" y="0" width="360" height="360" viewBox="0, 0, 360, 360">
  <defs>
    <linearGradient id="Gradient_1" gradientUnits="userSpaceOnUse" x1="170.759" y1="-163.729" x2="170.759" y2="-105.151" gradientTransform="matrix(1, 0, 0, -1, 0, 0)">
      <stop offset="0" stop-color="#BA99B9" stop-opacity="0.598"/>
      <stop offset="0.49" stop-color="#F754FF" stop-opacity="0.844"/>
      <stop offset="1" stop-color="#E43AE9"/>
    </linearGradient>
  </defs>
  <g id="Layer_2">
    <path d="M122.33,313.504 C93.78,316.023 69.809,308.695 68.79,297.138 C67.77,285.581 90.089,274.171 118.639,271.653 C147.189,269.135 171.16,276.462 172.179,288.019 C173.198,299.576 150.88,310.986 122.33,313.504 z" fill="#31323D" fill-opacity="0.256"/>
    <path d="M168.648,303.842 C148.14,303.842 124.585,299.223 127.603,290.888 C130.467,282.979 154.98,271.436 175.329,273.979 C196.056,276.57 207.652,280.638 209.97,288.001 C212.632,296.456 189.156,303.842 168.648,303.842 z" fill="#31323D" fill-opacity="0.256" id="Shape"/>
    <g id="Shape">
      <path d="M172.195,305.72 C146.955,305.72 126.494,299.58 126.494,292.004 C126.494,284.429 147.792,273.619 173.032,273.619 C198.271,273.619 217.895,284.429 217.895,292.004 C217.895,299.58 197.434,305.72 172.195,305.72 z" fill="#FFFFFF" fill-opacity="0.357"/>
      <path d="M172.195,305.72 C146.955,305.72 126.494,299.58 126.494,292.004 C126.494,284.429 147.792,273.619 173.032,273.619 C198.271,273.619 217.895,284.429 217.895,292.004 C217.895,299.58 197.434,305.72 172.195,305.72 z" fill-opacity="0" stroke="#31323D" stroke-width="4" stroke-linecap="round" stroke-linejoin="round"/>
    </g>
    <g>
      <g id="Shape">
        <path d="M235.73,105.151 C234.61,107.962 235.068,106.909 234.432,108.344 L180.963,160.042 C177.617,160.82 173.906,163.663 170.486,163.729 C167.071,163.685 163.893,160.819 160.555,160.042 L107.086,108.344 C106.45,106.909 106.908,107.962 105.788,105.151 L235.73,105.151 z" fill="url(#Gradient_1)"/>
        <path d="M235.73,105.151 C234.61,107.962 235.068,106.909 234.432,108.344 L180.963,160.042 C177.617,160.82 173.906,163.663 170.486,163.729 C167.071,163.685 163.893,160.819 160.555,160.042 L107.086,108.343 C106.45,106.909 106.908,107.962 105.788,105.151 L235.73,105.151 z M227.842,109.151 L113.676,109.151 L162.61,156.465 C165.403,157.6 164.163,157.032 166.355,158.114 C166.464,158.169 166.464,158.169 166.572,158.224 C167.823,158.851 169.072,159.55 170.479,159.722 C171.552,159.658 172.551,159.178 173.527,158.77 C173.886,158.61 174.218,158.457 174.836,158.167 C176.157,157.498 177.533,156.971 178.919,156.454 L227.842,109.151 z" fill="#31323D"/>
      </g>
      <g id="Shape">
        <path d="M171.695,116.33 C135.479,116.33 106.119,109.229 106.119,100.469 C106.119,91.709 135.479,84.608 171.695,84.608 C207.911,84.608 237.27,91.709 237.27,100.469 C237.27,109.229 207.911,116.33 171.695,116.33 z" fill="#AF68BC" fill-opacity="0.994"/>
        <path d="M171.695,84.608 C207.911,84.608 237.27,91.709 237.27,100.469 C237.27,109.229 207.911,116.33 171.695,116.33 C135.479,116.33 106.119,109.229 106.119,100.469 C106.119,91.709 135.479,84.608 171.695,84.608 z M171.695,88.608 C154.364,88.608 138.152,90.266 126.266,93.141 C120.625,94.506 116.177,96.098 113.258,97.767 C111.96,98.51 111.037,99.228 110.506,99.856 C110.197,100.221 110.119,100.405 110.119,100.469 C110.119,100.533 110.197,100.717 110.506,101.082 C111.037,101.71 111.96,102.428 113.258,103.17 C116.177,104.84 120.625,106.432 126.266,107.796 C138.152,110.671 154.364,112.33 171.695,112.33 C189.025,112.33 205.237,110.671 217.123,107.796 C222.765,106.432 227.212,104.84 230.131,103.17 C231.429,102.428 232.353,101.71 232.884,101.082 C233.193,100.717 233.27,100.533 233.27,100.469 C233.27,100.405 233.193,100.221 232.884,99.856 C232.353,99.228 231.429,98.51 230.131,97.767 C227.212,96.098 222.765,94.506 217.123,93.141 C205.237,90.266 189.025,88.608 171.695,88.608 z" fill="#31323D"/>
      </g>
    </g>
    <g>
      <path d="M187.104,123.725 L290.5,45.874" fill-opacity="0" stroke="#31323D" stroke-width="4" stroke-linecap="round"/>
    </g>
    <g>
      <path d="M261.442,80.439 L174.615,165.278 L172.764,164.234 L169.91,164.234 L167.289,165.278 L81.077,80.439 C95.828,86.402 113.161,88.472 128.803,89.892 C142.925,91.175 157.086,91.646 171.26,91.714 C192.682,91.652 214.164,90.588 235.347,87.209 C244.126,85.809 253.262,84.088 261.443,80.439 z" fill="#FFFFFF" fill-opacity="0.309"/>
      <path d="M261.442,80.439 L174.615,165.278 L172.764,164.234 L169.91,164.234 L167.289,165.278 L81.077,80.439 C95.828,86.402 113.161,88.472 128.803,89.892 C142.925,91.175 157.086,91.646 171.26,91.714 C192.682,91.652 214.164,90.588 235.347,87.209 C244.126,85.809 253.262,84.088 261.443,80.439 z" fill-opacity="0" stroke="#31323D" stroke-width="4" stroke-linecap="round" stroke-linejoin="round"/>
    </g>
    <path d="M171.445,93.178 C119.131,93.178 76.722,84.54 76.722,73.885 C76.722,63.229 119.131,54.591 171.445,54.591 C223.759,54.591 266.168,63.229 266.168,73.885 C266.168,84.54 223.759,93.178 171.445,93.178 z" fill-opacity="0" stroke="#31323D" stroke-width="4" stroke-linecap="round" stroke-linejoin="round" id="Shape"/>
    <g>
      <path d="M259.039,73.701 C252.757,73.701 253.077,71.739 253.077,65.705 C253.077,59.671 257.482,58.851 263.764,58.851 C270.021,58.851 270.783,61.415 270.783,67.449 C270.783,73.482 265.32,73.701 259.039,73.701 z" fill="#DC0100"/>
      <path d="M263.764,54.851 C272.09,54.851 274.783,58.714 274.783,67.449 C274.783,71.952 272.557,75.121 268.674,76.581 C266.223,77.503 263.818,77.701 259.039,77.701 C254.819,77.701 252.172,76.909 250.471,74.344 C249.188,72.408 249.063,71.131 249.075,66.505 C249.076,66.127 249.077,65.934 249.077,65.705 C249.077,61.388 250.848,58.18 254.252,56.45 C256.67,55.22 259.467,54.851 263.764,54.851 z M263.764,58.851 C257.482,58.851 253.077,59.671 253.077,65.705 C253.077,71.739 252.757,73.701 259.039,73.701 C265.32,73.701 270.783,73.482 270.783,67.449 C270.783,61.415 270.021,58.851 263.764,58.851 z" fill="#31323D"/>
    </g>
    <path d="M179.483,160.316 C177.107,163.456 166.71,164.108 162.054,159.847" fill-opacity="0" stroke="#31323D" stroke-width="4" stroke-linecap="round" stroke-linejoin="round" id="Shape"/>
    <g id="Shape">
      <path d="M165.606,162.357 L176.669,162.357 C176.669,162.357 173.396,254.463 181.354,284.162 C182.661,289.042 163.228,289.388 163.872,284.519 C169.65,240.826 165.606,162.357 165.606,162.357" fill="#FFFFFF" fill-opacity="0.717"/>
      <path d="M176.669,162.357 C176.669,162.357 173.396,254.463 181.354,284.162 C182.661,289.042 163.228,289.388 163.872,284.519 C169.65,240.826 165.606,162.357 165.606,162.357 L176.669,162.357 z M172.543,166.357 L169.796,166.357 L169.817,166.839 C169.979,170.585 170.141,174.815 170.292,179.441 C170.93,198.993 171.18,219.048 170.817,237.785 C170.511,253.043 169.864,268.315 168.027,283.475 C169.561,283.965 171.192,283.975 172.785,283.997 C174.216,283.951 175.673,283.847 177.048,283.418 C173.238,265.208 172.729,246.447 172.253,227.906 C171.86,210.659 171.95,192.228 172.337,174.566 C172.396,171.829 172.466,169.093 172.543,166.357 z" fill="#31323D"/>
    </g>
    <path d="M87.884,84.613 L97.274,87.666 L165.606,159.347 L163.588,159.347 z" fill="#31323D" fill-opacity="0.256"/>
  </g>
</svg>
