<?xml version="1.0" encoding="UTF-8"?>
<!DOCTYPE svg PUBLIC "-//W3C//DTD SVG 1.1//EN" "http://www.w3.org/Graphics/SVG/1.1/DTD/svg11.dtd">
<svg version="1.1" xmlns="http://www.w3.org/2000/svg" xmlns:xlink="http://www.w3.org/1999/xlink" x="0" y="0" width="360" height="360" viewBox="0, 0, 360, 360">
  <g id="Layer_2">
    <path d="M178.073,272.928 C106.767,272.928 48.961,267.854 48.961,261.595 C48.961,255.336 106.767,250.262 178.073,250.262 C249.38,250.262 307.185,255.336 307.185,261.595 C307.185,267.854 249.38,272.928 178.073,272.928 z" fill="#7E7E7E" fill-opacity="0.551"/>
  </g>
  <g id="Layer_2">
    <g id="Pants_and_belt">
      <g id="Shape">
        <path d="M120.111,251.453 L118.719,263.919 L232.51,263.922 L232.492,252.219 L120.111,251.453 z" fill="#31323D"/>
        <path d="M120.111,251.453 L118.719,263.919 L232.51,263.922 L232.492,252.219 L120.111,251.453 z" fill-opacity="0" stroke="#000000" stroke-width="2.275"/>
      </g>
      <g id="Shape">
        <path d="M264.383,250.781 C264.383,250.462 263.596,257.319 263.845,260.065 C266.581,260.697 271.182,258.29 282.756,251.453 C289.866,242.154 276.778,255.608 276.778,255.608 C276.778,255.608 283.875,256.933 290.629,257.174 C309.757,247.826 310.747,232.171 310.851,224.9 C305.284,221.863 299.772,221.521 299.772,221.521 C299.772,221.521 264.383,251.101 264.383,250.781 z" fill="#31323D"/>
        <path d="M264.383,250.781 C264.383,250.462 263.596,257.319 263.845,260.065 C266.581,260.697 271.182,258.29 282.756,251.453 C289.866,242.154 276.778,255.608 276.778,255.608 C276.778,255.608 283.875,256.933 290.629,257.174 C309.757,247.826 310.747,232.171 310.851,224.9 C305.284,221.863 299.772,221.521 299.772,221.521 C299.772,221.521 264.383,251.101 264.383,250.781 z" fill-opacity="0" stroke="#000000" stroke-width="2.275"/>
      </g>
      <g id="Shape">
        <path d="M62.702,221.521 C62.829,221.521 58.148,224.304 54.549,226.501 C58.907,257.072 71.98,257.174 71.98,257.174 L82.123,256.927 L76.771,249.04 C76.771,249.04 82.593,260.829 88.083,260.026 C89.776,256.692 89.8,252.959 89.8,252.959 L83.451,230.377 L62.702,221.521 z" fill="#31323D"/>
        <path d="M62.702,221.521 C62.829,221.521 58.148,224.304 54.549,226.501 C58.907,257.072 71.98,257.174 71.98,257.174 L82.123,256.927 L76.771,249.04 C76.771,249.04 82.593,260.829 88.083,260.026 C89.776,256.692 89.8,252.959 89.8,252.959 L83.451,230.377 L62.702,221.521 z" fill-opacity="0" stroke="#000000" stroke-width="2.275"/>
      </g>
      <g id="Belt">
        <path d="M121.257,256.814 C120.286,257.203 231.263,258.853 231.069,256.135 C230.875,253.416 230.875,256.814 231.555,258.659 C229.71,259.533 121.063,260.115 121.16,258.368 C121.257,256.62 122.228,256.426 121.257,256.814 z" fill="#808080"/>
        <path d="M121.257,256.814 C120.286,257.203 231.263,258.853 231.069,256.135 C230.875,253.416 230.875,256.814 231.555,258.659 C229.71,259.533 121.063,260.115 121.16,258.368 C121.257,256.62 122.228,256.426 121.257,256.814 z" fill-opacity="0" stroke="#31323D" stroke-width="2.275"/>
      </g>
      <g id="Belt_buckle">
        <path d="M163.886,254.626 L177.021,254.626 C177.32,254.626 177.563,254.851 177.563,255.127 L177.563,260.035 C177.563,260.311 177.32,260.536 177.021,260.536 L163.886,260.536 C163.587,260.536 163.345,260.311 163.345,260.035 L163.345,255.127 C163.345,254.851 163.587,254.626 163.886,254.626 z" fill="#3C3D4B"/>
        <path d="M163.886,254.626 L177.021,254.626 C177.32,254.626 177.563,254.851 177.563,255.127 L177.563,260.035 C177.563,260.311 177.32,260.536 177.021,260.536 L163.886,260.536 C163.587,260.536 163.345,260.311 163.345,260.035 L163.345,255.127 C163.345,254.851 163.587,254.626 163.886,254.626 z" fill-opacity="0" stroke="#31323D" stroke-width="2.275"/>
      </g>
    </g>
    <g id="Shirt_and_bowtie">
      <g id="Shape">
        <path d="M77.647,111.34 C77.647,111.34 133.951,123.681 134.281,123.021 C134.611,122.361 161.17,130.464 161.17,130.464 L180.945,130.855 L269.672,110.689 L194.932,217.613 L171.179,236.648 L145.507,218.752 L77.647,111.34 z" fill="#FFFFFF"/>
        <path d="M269.672,110.689 L194.932,217.613 L171.179,236.648 L145.507,218.752 L77.646,111.34 C77.647,111.34 133.951,123.681 134.281,123.021 C134.611,122.361 161.17,130.464 161.17,130.464 L180.945,130.855 L269.672,110.689 z M264.433,114.213 L181.449,133.073 C181.269,133.114 181.085,133.133 180.9,133.129 L161.125,132.739 C160.915,132.735 160.707,132.702 160.506,132.64 C160.459,132.626 160.459,132.626 160.232,132.557 C159.92,132.462 159.746,132.409 159.452,132.32 C158.61,132.065 157.668,131.78 156.649,131.474 C153.738,130.599 150.792,129.724 147.996,128.907 C147.69,128.818 147.388,128.73 147.089,128.643 C143.377,127.564 140.276,126.692 137.996,126.093 C136.724,125.759 135.73,125.516 135.053,125.375 L134.77,125.32 L134.014,125.319 C133.817,125.312 133.59,125.291 133.311,125.256 C132.847,125.198 132.204,125.096 131.376,124.952 C129.847,124.685 127.67,124.269 124.894,123.715 C120.024,122.742 113.412,121.364 105.491,119.68 C104.877,119.549 104.877,119.549 104.263,119.418 C98.249,118.137 91.879,116.765 85.557,115.392 L82.474,114.722 L147.184,217.148 L171.084,233.808 L193.255,216.041 L264.433,114.213 z" fill="#31323D"/>
      </g>
      <g id="Shape">
        <path d="M138.127,113.896 C138.127,113.896 138.127,124.145 138.127,124.145 C138.127,124.144 74.887,109.884 74.887,109.884 C74.887,109.884 77.895,101.991 78.012,102.014 C81.246,102.668 138.127,113.896 138.127,113.896 z" fill="#FFFFFF"/>
        <path d="M78.012,102.014 C81.246,102.668 138.127,113.896 138.127,113.896 C138.127,113.896 138.127,124.145 138.127,124.145 C138.127,124.144 74.887,109.884 74.887,109.884 C74.887,109.884 77.895,101.991 78.012,102.014 z M79.376,104.606 C78.95,105.673 79.221,104.993 78.571,106.649 L78.523,106.774 C77.991,108.147 78.18,107.657 77.954,108.244 L78.105,108.278 C81.069,108.946 81.069,108.946 85.269,109.893 C95.15,112.121 95.15,112.121 107.008,114.795 C107.008,114.795 107.008,114.795 107.008,114.795 C118.865,117.469 118.865,117.469 128.746,119.697 C131.115,120.231 133.483,120.765 135.852,121.299 L135.852,115.766 C135.564,115.709 135.815,115.759 135.097,115.617 C133.037,115.21 130.742,114.757 128.271,114.269 C121.209,112.875 114.148,111.48 107.557,110.178 C107.541,110.175 107.541,110.175 107.526,110.172 C98.143,108.318 88.759,106.467 79.377,104.606 z M79.904,103.315 L79.844,103.455 C79.936,103.41 79.902,103.448 79.904,103.315 z" fill="#31323D"/>
      </g>
      <g>
        <path d="M190.993,117.021 C190.993,117.021 188.576,128.079 188.576,128.079 C188.577,128.079 275.354,113.521 275.354,113.521 L274.23,102.016 L190.993,117.021 z" fill="#FFFFFF"/>
        <path d="M274.229,102.016 L275.354,113.521 C275.354,113.521 188.577,128.079 188.576,128.079 C188.576,128.079 190.993,117.021 190.993,117.021 L274.229,102.016 z M272.205,104.692 L192.891,118.99 C192.597,120.339 192.302,121.687 192.007,123.035 C191.844,123.783 191.68,124.531 191.517,125.279 L191.929,125.21 C195.997,124.527 195.997,124.527 201.759,123.56 C209.217,122.309 215.318,121.286 231.589,118.556 L231.589,118.556 C247.86,115.827 247.86,115.827 261.419,113.552 C267.182,112.586 267.182,112.586 271.249,111.903 C272.466,111.699 271.921,111.79 272.884,111.629 L272.205,104.692 z" fill="#31323D"/>
      </g>
      <g>
        <path d="M171.229,129.896 L177.311,129.896 C178.029,129.896 178.611,130.946 178.611,132.242 L178.611,217.983 C178.611,219.279 178.029,220.329 177.311,220.329 L171.229,220.329 C170.511,220.329 169.929,219.279 169.929,217.983 L169.929,132.242 C169.929,130.946 170.511,129.896 171.229,129.896 z" fill="#FFFFFF"/>
        <path d="M171.229,129.896 L177.311,129.896 C178.029,129.896 178.611,130.946 178.611,132.242 L178.611,217.983 C178.611,219.279 178.029,220.329 177.311,220.329 L171.229,220.329 C170.511,220.329 169.929,219.279 169.929,217.983 L169.929,132.242 C169.929,130.946 170.511,129.896 171.229,129.896 z" fill-opacity="0" stroke="#31323D" stroke-width="2.167" stroke-linejoin="round"/>
      </g>
      <path d="M174.031,151.445 L174.031,151.445" fill-opacity="0" stroke="#31323D" stroke-width="2.167" stroke-linecap="round" stroke-linejoin="round"/>
      <path d="M174.031,166.431 L174.031,166.431" fill-opacity="0" stroke="#31323D" stroke-width="2.167" stroke-linecap="round" stroke-linejoin="round"/>
      <path d="M174.031,181.417 L174.031,181.417" fill-opacity="0" stroke="#31323D" stroke-width="2.167" stroke-linecap="round" stroke-linejoin="round"/>
      <path d="M174.031,196.403 L174.031,196.403" fill-opacity="0" stroke="#31323D" stroke-width="2.167" stroke-linecap="round" stroke-linejoin="round"/>
      <g id="Bow_tie_band">
        <path d="M139.502,122.395 C139.502,122.395 140.127,128.519 140.127,128.519 L76.012,115.646 C75.098,111.682 77.887,109.884 77.887,109.884 z" fill="#31323D"/>
        <path d="M77.486,107.755 L78.318,107.761 L139.933,120.271 C140.862,120.46 141.561,121.231 141.657,122.175 C141.736,122.942 141.814,123.71 141.892,124.477 C142.022,125.751 142.152,127.025 142.282,128.299 C142.43,129.75 141.131,130.93 139.7,130.643 L75.586,117.77 C74.751,117.603 74.092,116.962 73.901,116.133 C73.305,113.549 73.843,111.333 75.118,109.617 C75.675,108.867 76.252,108.36 76.713,108.063 L77.486,107.755 z M77.887,109.884 C77.887,109.884 75.098,111.682 76.012,115.646 L140.127,128.519 C140.127,128.519 139.502,122.395 139.502,122.395 L77.887,109.884 z" fill="#000000"/>
      </g>
      <g id="Bow_tie_band">
        <path d="M204.366,122.895 L274.23,109.884 C275.418,109.543 272.928,110.248 273.269,111.436 L273.668,112.233 C274.009,113.422 273.489,115.766 272.301,116.107 L205.116,128.269 C205.116,128.269 204.366,122.895 204.366,122.895 z" fill="#31323D"/>
        <path d="M274.792,107.629 C275.547,107.905 275.167,107.742 275.929,108.125 C276.56,108.813 276.56,108.813 276.72,109.809 C276.607,110.578 276.607,110.578 276.394,110.942 C276.074,111.361 276.074,111.361 275.919,111.483 L275.743,111.613 L275.75,111.635 C276.428,113.995 275.371,117.479 272.899,118.189 L272.687,118.239 L205.502,130.401 C204.291,130.62 203.14,129.787 202.97,128.568 C202.876,127.895 202.782,127.221 202.688,126.548 C202.532,125.43 202.376,124.312 202.22,123.194 C202.06,122.047 202.831,120.977 203.969,120.765 L273.733,107.773 C273.931,107.716 273.838,107.741 274.011,107.697 C274.082,107.68 274.082,107.68 274.236,107.654 C274.348,107.638 274.348,107.638 274.578,107.632 L274.792,107.629 z M274.515,109.804 L274.229,109.884 L204.366,122.895 C204.366,122.895 205.116,128.269 205.116,128.269 L272.301,116.107 C273.489,115.766 274.009,113.422 273.668,112.233 L273.269,111.436 C273.145,110.589 273.926,110.207 274.515,109.804 z" fill="#000000"/>
      </g>
      <g>
        <path d="M165.549,119.9 L137.134,112.583 L137.644,145.083 L164.188,137.085 z" fill="#31323D"/>
        <path d="M137.159,110.416 L137.674,110.485 L166.09,117.802 C167.109,118.064 167.792,119.022 167.709,120.071 L166.348,137.257 C166.278,138.147 165.668,138.902 164.813,139.16 L138.269,147.157 C136.892,147.572 135.5,146.555 135.478,145.117 L134.967,112.617 C135.082,111.083 135.8,110.715 137.159,110.416 z M137.134,112.583 L137.644,145.083 L164.188,137.085 L165.549,119.9 L137.134,112.583 z" fill="#000000"/>
      </g>
      <g>
        <path d="M182.317,119.9 L210.733,112.583 L210.223,145.083 L183.679,137.085 z" fill="#31323D"/>
        <path d="M210.708,110.416 C212.024,110.545 212.766,111.324 212.899,112.617 L212.389,145.117 C212.366,146.555 210.975,147.572 209.598,147.157 L183.054,139.16 C182.199,138.902 181.589,138.147 181.519,137.257 L180.158,120.071 C180.074,119.022 180.758,118.064 181.777,117.802 L210.193,110.485 L210.708,110.416 z M210.733,112.583 L182.317,119.9 L183.679,137.085 L210.223,145.083 L210.733,112.583 z" fill="#000000"/>
      </g>
      <g id="Shape">
        <path d="M166.188,123.51 L139.709,115.732 L140.006,141.261 L165.95,133.543 z" fill="#31323D"/>
        <path d="M139.799,113.566 L140.32,113.654 L166.798,121.431 C167.739,121.707 168.377,122.581 168.354,123.561 L168.116,133.594 C168.094,134.534 167.469,135.352 166.568,135.62 L140.624,143.337 C139.245,143.748 137.856,142.725 137.84,141.286 L137.543,115.757 C137.67,114.195 138.409,113.834 139.799,113.566 z M139.709,115.732 L140.006,141.261 L165.95,133.543 L166.188,123.51 L139.709,115.732 z" fill="#000000"/>
      </g>
      <g id="Shape">
        <path d="M180.852,122.738 L207.627,116.148 L207.33,140.667 L179.902,132.89 z" fill="#31323D"/>
        <path d="M207.62,113.98 C208.924,114.118 209.658,114.892 209.793,116.174 L209.496,140.693 C209.479,142.12 208.111,143.141 206.739,142.751 L179.311,134.974 C178.306,134.689 177.647,133.728 177.744,132.688 L178.694,122.536 C178.78,121.618 179.438,120.854 180.334,120.634 L207.109,114.044 L207.62,113.98 z M207.627,116.148 L180.852,122.738 L179.902,132.89 L207.33,140.667 L207.627,116.148 z" fill="#000000"/>
      </g>
      <g id="Shape">
        <path d="M167.85,118.597 L179.067,118.597 C180.6,118.597 181.842,120.504 181.842,122.857 L181.842,135.937 C181.842,138.29 180.6,140.197 179.067,140.197 L167.85,140.197 C166.317,140.197 165.074,138.29 165.074,135.937 L165.074,122.857 C165.074,120.504 166.317,118.597 167.85,118.597 z" fill="#31323D"/>
        <path d="M179.067,116.43 C182.04,116.43 184.009,119.453 184.009,122.857 L184.009,135.937 C184.009,139.341 182.04,142.364 179.067,142.363 L167.85,142.363 C164.877,142.364 162.908,139.341 162.908,135.937 L162.908,122.857 C162.908,119.453 164.877,116.43 167.85,116.43 L179.067,116.43 z M179.067,118.597 L167.85,118.597 C166.317,118.597 165.074,120.504 165.074,122.857 L165.074,135.937 C165.074,138.29 166.317,140.197 167.85,140.197 L179.067,140.197 C180.6,140.197 181.842,138.29 181.842,135.937 L181.842,122.857 C181.842,120.504 180.6,118.597 179.067,118.597 z" fill="#000000"/>
      </g>
      <g>
        <path d="M209.124,110.384 L185.993,116.679 L214.861,125.756 z" fill="#FFFFFF"/>
        <path d="M209.124,110.384 L185.993,116.679 L214.861,125.756 z" fill-opacity="0" stroke="#31323D" stroke-width="2.167" stroke-linejoin="round"/>
      </g>
      <g>
        <path d="M140.072,111.692 L163.203,117.987 L134.549,125.756 z" fill="#FFFFFF"/>
        <path d="M140.072,111.692 L163.203,117.987 L134.549,125.756 z" fill-opacity="0" stroke="#31323D" stroke-width="2.167" stroke-linejoin="round"/>
      </g>
      <g id="Cummerbund_">
        <path d="M105.39,201.765 L243.431,201.765 C244.687,201.765 245.706,202.784 245.706,204.04 L245.706,224.035 C245.706,225.292 244.687,226.31 243.431,226.31 L105.39,226.31 C104.134,226.31 103.115,225.292 103.115,224.035 L103.115,204.04 C103.115,202.784 104.134,201.765 105.39,201.765 z" fill="#31323D"/>
        <path d="M243.431,199.598 C245.884,199.598 247.873,201.587 247.872,204.04 L247.872,224.035 C247.873,226.488 245.884,228.477 243.431,228.477 L105.39,228.477 C102.937,228.477 100.949,226.488 100.949,224.035 L100.949,204.04 C100.949,201.587 102.937,199.598 105.39,199.598 L243.431,199.598 z M243.431,201.765 L105.39,201.765 C104.134,201.765 103.115,202.784 103.115,204.04 L103.115,224.035 C103.115,225.292 104.134,226.31 105.39,226.31 L243.431,226.31 C244.687,226.31 245.706,225.292 245.706,224.035 L245.706,204.04 C245.706,202.784 244.687,201.765 243.431,201.765 z" fill="#000000"/>
      </g>
      <g id="Cummerbund_">
        <path d="M102.403,207.588 L240.443,207.588 C241.7,207.588 242.718,207.796 242.718,208.053 L242.718,212.148 C242.718,212.405 241.7,212.614 240.443,212.614 L102.403,212.614 C101.146,212.614 100.128,212.405 100.128,212.148 L100.128,208.053 C100.128,207.796 101.146,207.588 102.403,207.588 z" fill="#31323D"/>
        <path d="M240.443,205.421 C241.192,205.421 241.908,205.483 242.486,205.601 C242.855,205.677 243.182,205.776 243.483,205.922 C244.275,206.305 244.885,206.915 244.885,208.053 L244.885,212.148 C244.885,213.286 244.275,213.896 243.483,214.279 C243.182,214.425 242.855,214.524 242.486,214.6 C241.908,214.718 241.192,214.78 240.443,214.78 L102.402,214.78 C101.654,214.78 100.938,214.718 100.359,214.6 C99.991,214.524 99.664,214.425 99.362,214.279 C98.571,213.896 97.961,213.286 97.961,212.148 L97.961,208.053 C97.961,206.915 98.571,206.305 99.362,205.922 C99.664,205.776 99.991,205.677 100.359,205.601 C100.938,205.483 101.654,205.421 102.402,205.421 L240.443,205.421 z M240.443,207.588 L102.402,207.588 C101.146,207.588 100.128,207.796 100.128,208.053 L100.128,212.148 C100.128,212.405 101.146,212.614 102.402,212.614 L240.443,212.614 C241.7,212.614 242.718,212.405 242.718,212.148 L242.718,208.053 C242.718,207.796 241.7,207.588 240.443,207.588 z" fill="#000000"/>
      </g>
    </g>
    <g id="Jacket">
      <g id="Jacket_body">
        <path d="M73.498,110.17 C60.887,191.769 42.159,214.182 78.983,253.49 C137.044,259.755 231.412,257.051 282.197,252.769 C332.026,205.301 279.699,111.636 279.699,111.636 C279.699,111.636 271.433,98.437 269.94,118.846 C268.446,139.255 168.301,226.475 168.301,226.475 z" fill="#FFFFFF"/>
        <path d="M73.498,110.17 C60.887,191.769 42.159,214.182 78.983,253.49 C137.044,259.755 231.412,257.051 282.197,252.769 C332.026,205.301 279.699,111.636 279.699,111.636 C279.699,111.636 271.433,98.437 269.94,118.846 C268.446,139.255 168.301,226.475 168.301,226.475 z" fill-opacity="0" stroke="#31323D" stroke-width="2.275"/>
      </g>
      <g id="Jacket_button">
        <path d="M173.725,242.696 C172.622,242.696 171.727,241.946 171.727,241.02 C171.727,240.094 172.622,239.343 173.725,239.343 C174.829,239.343 175.723,240.094 175.723,241.02 C175.723,241.946 174.829,242.696 173.725,242.696 z" fill="#31323D"/>
        <path d="M173.725,242.696 C172.622,242.696 171.727,241.946 171.727,241.02 C171.727,240.094 172.622,239.343 173.725,239.343 C174.829,239.343 175.723,240.094 175.723,241.02 C175.723,241.946 174.829,242.696 173.725,242.696 z" fill-opacity="0" stroke="#31323D" stroke-width="2.275"/>
      </g>
      <path d="M167.253,227.693 C162.265,240.094 165.294,249.76 169.114,256.236" fill-opacity="0" stroke="#31323D" stroke-width="2.817" stroke-linecap="round"/>
      <g id="Jacket_pocket">
        <path d="M211.228,198.527 L235.285,198.527 L235.285,202.638 L211.228,202.638 z" fill="#FFFFFF"/>
        <path d="M211.228,198.527 L235.285,198.527 L235.285,202.638 L211.228,202.638 z" fill-opacity="0" stroke="#31323D" stroke-width="1.733" stroke-linejoin="round"/>
      </g>
      <path d="M55.14,226.388 C55.823,225.766 55.45,226.388 56.941,225.207 C56.009,233.222 73.803,254.993 80.067,255.397 C86.332,255.801 72.287,255.712 72.039,255.588 C59.861,254.905 55.45,229.121 55.14,226.388 z" fill="#1E1E1E" fill-opacity="0.453" id="Shading"/>
      <path d="M71.031,127.98 C76.16,135.959 80.072,130.018 80.072,130.018 C80.072,130.018 53.038,210.509 91.097,253.855 C85.68,253.016 83.737,252.729 79.889,253.028 C42.077,217.26 61.771,181.513 71.031,127.98 z" fill="#505050" fill-opacity="0.453" id="Shading" opacity="0.5"/>
      <g>
        <path d="M168.301,226.475 C168.301,226.475 80.275,157.522 67.586,120.266 C69.271,113.138 77.314,101.363 77.314,101.363 C77.314,101.363 171.358,223.316 171.358,223.316" fill="#31323D"/>
        <path d="M168.301,226.475 C168.301,226.475 80.275,157.522 67.586,120.266 C69.271,113.138 77.314,101.363 77.314,101.363 C77.314,101.363 171.358,223.316 171.358,223.316" fill-opacity="0" stroke="#000000" stroke-width="2.275" stroke-linejoin="round"/>
      </g>
      <g id="Jacket_collar">
        <path d="M274.876,101.363 C274.876,101.363 283.615,110.365 285.299,117.494 C274.283,155.444 167.253,227.693 167.253,227.693 C167.253,227.693 274.876,101.363 274.876,101.363 z" fill="#31323D"/>
        <path d="M274.876,101.363 C274.876,101.363 283.615,110.365 285.299,117.494 C274.283,155.444 167.253,227.693 167.253,227.693 C167.253,227.693 274.876,101.363 274.876,101.363 z" fill-opacity="0" stroke="#000000" stroke-width="2.275" stroke-linejoin="round"/>
      </g>
      <path d="M76.838,102.887 L83.896,111.639 C83.896,111.639 76.443,128.861 77.233,136.088 C74.805,133.039 70.909,126.546 68.255,119.657 C70.232,113.163 76.838,102.887 76.838,102.887 z" fill="#505050" fill-opacity="0.453" id="Shading" opacity="0.5"/>
      <path d="M303.63,223.015 C304.187,223.015 309.298,224.82 309.298,224.82 C309.298,224.82 309.117,235.037 305.197,241.32 C301.935,248.373 294.28,252.989 294.28,252.989 C294.28,252.989 304.354,237.546 303.63,223.015 z" fill="#A1A1A1" fill-opacity="0.961" id="Shading" opacity="0.201"/>
      <g id="Shape" display="none">
        <path d="M232.526,196.071 C224.299,223.005 223.221,247.986 228.779,261.729 C241.879,257.067 254.566,255.515 268.076,257.767 C279.799,219.46 292.337,193.874 286.3,178.013 C277.879,155.887 244.579,156.609 232.526,196.071 z" fill="#FFFFFF"/>
        <path d="M232.526,196.071 C224.299,223.005 223.221,247.986 228.779,261.729 C241.879,257.067 254.566,255.515 268.076,257.767 C279.799,219.46 292.337,193.874 286.3,178.013 C277.879,155.887 244.579,156.609 232.526,196.071 z" fill-opacity="0" stroke="#31323D" stroke-width="2.275"/>
      </g>
      <path d="M229.14,210.461 C229.424,246.312 245.294,255.877 245.294,255.877 C245.294,255.877 234.454,256.939 229.282,260.057 C222.764,242.698 227.227,221.301 229.14,210.461 z" fill="#505050" fill-opacity="0.453" id="Shading" opacity="0.5" display="none"/>
      <g id="Shape" display="none">
        <path d="M122.141,200.665 C130.367,227.599 129.293,251.537 123.736,265.281 C110.635,260.619 97.948,259.067 84.439,261.318 C72.716,223.012 67.23,198.199 73.267,182.338 C81.688,160.213 110.087,161.203 122.141,200.665 z" fill="#FFFFFF"/>
        <path d="M122.141,200.665 C130.367,227.599 129.293,251.537 123.736,265.281 C110.635,260.619 97.948,259.067 84.439,261.318 C72.716,223.012 67.23,198.199 73.267,182.338 C81.688,160.213 110.087,161.203 122.141,200.665 z" fill-opacity="0" stroke="#31323D" stroke-width="2.275"/>
      </g>
      <path d="M73.353,216.496 C81.19,237.194 90.903,257.154 98.941,258.695 C90.97,258.561 85.056,259.556 84.807,259.432 C84.807,259.432 78.109,240.275 73.353,216.496 z" fill="#505050" fill-opacity="0.453" id="Shading" opacity="0.5" display="none"/>
      <g>
        <path d="M279.214,209.044 C269.156,220.332 272.212,236.385 268.057,258.944 C262.875,257.225 241.86,258.245 228.76,262.907 C225.609,254.752 231.533,211.211 225.198,207.71" fill="#FFFFFF"/>
        <path d="M279.214,209.044 C269.156,220.332 272.212,236.385 268.057,258.944 C262.875,257.225 241.86,258.245 228.76,262.907 C225.609,254.752 231.533,211.211 225.198,207.71" fill-opacity="0" stroke="#31323D" stroke-width="2.275" stroke-linecap="round"/>
      </g>
      <g id="Shape">
        <path d="M73.34,210.059 C83.397,221.348 80.342,237.401 84.497,259.96 C89.678,258.24 110.693,259.26 123.793,263.922 C126.944,255.768 121.021,212.226 127.356,208.725" fill="#FFFFFF"/>
        <path d="M73.34,210.059 C83.397,221.348 80.342,237.401 84.497,259.96 C89.678,258.24 110.693,259.26 123.793,263.922 C126.944,255.768 121.021,212.226 127.356,208.725" fill-opacity="0" stroke="#31323D" stroke-width="2.275" stroke-linecap="round"/>
      </g>
      <path d="M74.655,209.846 C72.284,206.66 79.762,210.505 82.974,216.929 C86.186,223.353 90.067,245.051 91.287,257.632 C88.398,257.824 88.398,257.118 84.868,258.145 C81.337,229.003 82.974,221.021 74.655,209.846 z" fill="#505050" fill-opacity="0.453" id="Shape" opacity="0.5"/>
      <path d="M226.576,207.456 C229.451,208.742 230.579,209.703 232.401,214.945 C234.224,220.187 233.233,247.625 235.966,259.015 C233.077,259.208 230.964,260.259 229.263,261.234 C226.955,231.134 231.872,222.51 226.576,207.456 z" fill="#505050" fill-opacity="0.453" id="Shape" opacity="0.5"/>
      <path d="M120.215,214.567 C121.713,211.956 122.64,210.682 125.245,208.019 C120.903,212.13 124.037,250.097 122.457,261.562 C120.784,261.073 119.821,261.034 117.382,260.31 C118.034,249.081 118.717,217.178 120.215,214.567 z" fill="#A1A1A1" fill-opacity="0.961" id="Shape" opacity="0.5" display="none"/>
      <path d="M269.85,214.21 C272.532,210.234 272.895,210.357 277.531,207.82 C274.086,211.982 270.426,214.733 267.059,256.573 C263.752,256.598 265.92,256.357 263.269,256.495 C263.92,245.267 267.167,218.187 269.85,214.21 z" fill="#A1A1A1" fill-opacity="0.961" id="Shape" opacity="0.5" display="none"/>
    </g>
  </g>
</svg>
