<?xml version="1.0" encoding="UTF-8" standalone="no"?>
<!DOCTYPE svg PUBLIC "-//W3C//DTD SVG 1.1//EN" "http://www.w3.org/Graphics/SVG/1.1/DTD/svg11.dtd">
<svg width="100%" height="100%" viewBox="0 0 360 360" version="1.1" xmlns="http://www.w3.org/2000/svg" xmlns:xlink="http://www.w3.org/1999/xlink" xml:space="preserve" xmlns:serif="http://www.serif.com/" style="fill-rule:evenodd;clip-rule:evenodd;stroke-miterlimit:10;">
    <g id="CK-WC-Brazilian_Uniform-360x360" transform="matrix(0.24,0,0,0.24,180,180)">
        <g transform="matrix(1,0,0,1,-750,-750)">
            <g id="Layer-1" serif:id="Layer 1" transform="matrix(4.16667,0,0,4.16667,0,0)">
                <g transform="matrix(1,0,0,1,109.4,340.489)">
                    <path d="M0,-120.174L-5.606,-97.702L-7.463,-86.259L-8.917,-73.324L-8.405,-68.786L-8.659,-63.767L-9.717,-55.159L-11.247,-46.805L-12.441,-39.934L-13.285,-33.425L-13.782,-27.426L-14.092,-16.774L-8.059,-11.541L-2.587,-7.863L4.917,-4.044L13.353,-1.257L21.397,0L29.783,-0.12L39.171,-1.988L44.244,-3.774L53.051,-8.203L58.589,-27.932L64.778,-50.335L65.706,-51.615L66.707,-50.86L67.694,-48.917L72.561,-20.711L74.46,-14.505L75.597,-12.102L82.927,-8.035L96.032,-3.263L107.367,-0.345L114.605,-0.05L122.558,-1.21L128.892,-3.631L135.295,-8.035L140.637,-14.058L145.502,-21.349L141.012,-41.662L137.294,-67.653L137.392,-72.156L134.615,-97.169L131.501,-112.77L129.344,-118.688L116.307,-111.685L104.059,-106.82L96.03,-105.197L81.35,-103.575L61.805,-103.114L46.153,-103.818L29.202,-106.9L16.469,-110.387L6.169,-116.065L1.593,-119.607L0,-120.174Z" style="fill:rgb(60,105,178);fill-rule:nonzero;"/>
                </g>
                <g transform="matrix(1,0,0,1,124.727,334.045)">
                    <path d="M0,-104.573C0,-104.573 -13.401,-23.877 -9.833,-7.051C-6.263,9.776 33.506,-1.695 38.096,-7.051C42.685,-12.403 39.115,-7.051 39.115,-7.051L37.586,-2.462L29.683,1.766L21.62,4.9L13.076,6.445L4.889,6.258L-6.449,3.71L-15.345,-0.109L-27.124,-8.337L-29.403,-10.894L-28.443,-28.465L-26.574,-40.36L-24.623,-52.143L-23.732,-62.342L-23.466,-73.801L-21.05,-90.539L-19.265,-99.846L-15.975,-111.136L-14.661,-114.349L-9.497,-110.266L-4.368,-106.978L0,-104.573" style="fill:rgb(23,75,145);fill-rule:nonzero;"/>
                </g>
                <g transform="matrix(1,0,0,1,233.02,323.516)">
                    <path d="M0,-98.388C0,-98.388 6.797,-73.515 6.797,-39.609C6.797,-5.7 16.274,-0.196 17.017,2.916L21.882,-4.375L17.759,-22.273L14.757,-43.115L13.674,-50.68L13.771,-55.183L10.334,-83.502L8.582,-93.146L6.031,-101.304L2.769,-99.684L0,-98.388" style="fill:rgb(120,159,211);fill-rule:nonzero;"/>
                </g>
                <g transform="matrix(1,0,0,1,220.782,248.314)">
                    <path d="M0,-16.916C-0.335,-16.664 -19.345,-5.645 -27.335,-4.131C-35.326,-2.617 -69.308,1.926 -98.832,-8.422C-128.355,-18.768 -97.822,-18.842 -97.822,-18.842L-91.216,-16.58C-91.216,-16.58 -79.906,-14.309 -79.906,-14.057C-79.906,-13.805 -55.848,-10.484 -55.848,-10.484L-36.504,-11.029L-22.878,-11.701L-10.765,-14.225L-2.613,-16.514L0,-16.916Z" style="fill:rgb(23,75,145);fill-rule:nonzero;"/>
                </g>
                <g transform="matrix(1,0,0,1,110.066,35.6713)">
                    <path d="M0,184.024L7.093,189.629L14.661,193.8L22.625,196.298L37.742,199.591L54.013,201.704L64.528,202.158L70.6,201.704L89.388,200.281C89.388,200.281 102.454,197.907 102.623,197.857C102.792,197.807 114.007,193.648 114.007,193.648L125.723,188.161L129.563,185.472L127.954,169.386L125.784,147.469L127.572,135.139L127.854,123.609L127.47,110.284L127.023,100.242L127.063,95.87L127.18,94.211L128.387,95.182L129.678,97.595L131.508,100.308L133.808,101.793C133.808,101.793 135.862,104.333 135.946,104.504C136.032,104.677 137.58,108.412 137.58,108.412L138.189,109.65L146.681,106.277L150.06,103.125L152.06,101.453L158.881,97.578L165.275,95.193L173.204,91.173L180.906,85.139L175.204,75.727L169.225,63.785L167.474,58.043L166.535,54.416L160.542,41.501L152.457,26.471L146.865,17.11L138.423,8.691L121.707,1.505L109.219,-2.549L97.906,-7.029L91.009,-10.652C91.009,-10.652 90.182,-11.716 90.085,-11.821C89.988,-11.925 81.143,-15.847 81.143,-15.847L71.655,-17.257L59.439,-18.134L47.918,-16.351L40.202,-13.071L38.099,-10.082L28.21,-6.113L2.743,3.788L-10.109,10.341L-15.505,15.306L-19.816,20.922L-25.291,30.45L-32.652,44.337L-35.699,52.335L-42.146,68.616L-46.737,78.363L-49.774,83.19L-51.365,84.561L-42.667,91.371L-36.687,94.392C-36.687,94.392 -29.535,97.783 -29.35,97.783C-29.165,97.783 -24.047,99.694 -24.047,99.694L-17.758,104.689L-9.681,110.176L-5.981,104.997C-5.981,104.997 -2.528,101.606 -2.343,101.545C-2.158,101.482 1.665,95.748 1.665,95.748L1.85,103.147L1.727,118.312L2.898,133.973L4.07,149.383L1.553,166.502L-0.412,182.011L0,184.024Z" style="fill:rgb(241,233,15);fill-rule:nonzero;"/>
                </g>
                <g transform="matrix(1,0,0,1,124.727,113.854)">
                    <path d="M0,115.618C0,115.618 -0.638,86.935 3.817,74.699C8.271,62.463 -3.49,16.176 -0.032,11.786C3.428,7.395 -12.889,0 -15.693,0.765C-18.498,1.53 -13.532,16.859 -13.532,16.859L-12.216,26.769L-12.192,46.654L-10.85,70.108L-15.073,103.829L-10.595,109.882L-4.477,113.707L0,115.618Z" style="fill:rgb(200,182,46);fill-rule:nonzero;"/>
                </g>
                <g transform="matrix(1,0,0,1,93.7075,21.7555)">
                    <path d="M0,44.285C0,44.285 11.501,25.802 26.797,23.259C42.093,20.715 45.153,17.401 47.448,15.616C49.742,13.831 54.409,9.132 58.066,11.099L61.469,14.596L68.296,20.291L74.216,22.499L81.129,23.234L90.532,20.969L96.396,17.91L100.474,14.851L104.901,7.803L107.368,3.264L104.553,0.064L99.251,-1.153L94.593,-2.363L88.013,-3.341L81.129,-4.218L75.798,-4.218L67.595,-2.948L59.939,-0.955L56.56,0.845L54.859,3.264L50.288,5.508L44.569,7.803L32.398,12.535L25.163,15.457L14.025,20.291L7.597,23.259L0,30.333L-4.248,35.932L-5.325,46.973L-2.555,48.503L0,44.285" style="fill:rgb(200,182,46);fill-rule:nonzero;"/>
                </g>
                <g transform="matrix(1,0,0,1,150.67,39.1369)">
                    <path d="M0,-15.695L3.302,-18.269L9.18,-20.335L15.299,-21.052L22.499,-21.572C22.499,-21.572 32.573,-19.966 32.964,-20.173C33.356,-20.38 41.242,-18.807 41.242,-18.807L48.523,-16.088L49.474,-14.521L48.579,-11.441L45.78,-5.454L42.757,-1.965L40.304,-0.125L33.834,3.449L24.737,5.877L17.253,5.118L9.445,1.334L2.742,-4.39L-0.84,-9.874L-2.407,-13.065L-1.791,-14.744L0,-15.695Z" style="fill:rgb(54,82,37);fill-rule:nonzero;"/>
                </g>
                <g transform="matrix(1,0,0,1,93.7075,135.807)">
                    <path d="M0,-69.766C0,-69.766 -24.508,-28.274 -21.385,-16.666C-18.263,-5.057 -14.625,-12.648 -7.936,-8.122C-1.245,-3.597 13.354,-17.24 14.468,-20.233C15.581,-23.227 14.499,-16.743 18.099,-12.465L18.828,-11.147L18.803,-10.898L18.803,-7.033L16.222,-1.71L12.047,2.729L8.876,6.844L7.463,8.941L6.264,9.815L2.883,7.41L-0.838,4.755C-0.838,4.755 -5.383,0.96 -5.469,1.01C-5.554,1.06 -6.726,-0.024 -6.726,-0.024C-6.726,-0.024 -10.771,-1.43 -10.808,-1.491C-10.846,-1.553 -12.302,-2.549 -12.302,-2.549L-19.495,-5.349L-25.794,-8.695C-25.794,-8.695 -30.573,-11.782 -30.548,-11.843C-30.523,-11.905 -34.818,-15.838 -34.818,-15.838L-32.652,-17.556L-30.263,-21.623L-28.665,-24.985L-26.267,-29.976L-24.736,-34.241C-24.736,-34.241 -22.707,-38.508 -22.732,-38.458C-22.757,-38.41 -20.89,-43.46 -20.89,-43.46C-20.89,-43.46 -19.347,-47.666 -19.322,-47.704C-19.297,-47.742 -17.878,-52.058 -17.878,-52.058L-15.435,-57.594L-12.153,-63.618L-9.125,-69.131L-6.572,-73.743L-4.224,-78.172L-2.668,-79.581L-2.4,-79.581L-2.245,-78.959C-2.245,-78.959 -2.046,-77.975 -2.071,-77.937C-2.096,-77.901 -1.262,-74.491 -1.262,-74.491C-1.262,-74.491 -0.291,-71.106 -0.303,-71.069C-0.315,-71.031 0.008,-70.235 0.008,-70.235L0,-69.766Z" style="fill:rgb(200,182,46);fill-rule:nonzero;"/>
                </g>
                <g transform="matrix(1,0,0,1,253.151,106.592)">
                    <path d="M0,-31.537C0,-31.537 13.304,-19.938 16.292,-11.543C19.28,-3.149 24.962,11.683 31.726,18.923L35.308,16.713L37.066,14.212L28.031,-4.142L24.386,-12.765L24.475,-15.526C24.475,-15.526 18.569,-28.12 18.213,-28.049C17.857,-27.978 5.976,-50.46 5.976,-50.46L5.725,-50.176L5.596,-49.485L5.397,-49.286L5.232,-48.442L4.976,-47.095L4.542,-44.507L2.96,-39.751L2.339,-37.373L1.05,-34.433L0.336,-32.091L0,-31.537Z" style="fill:rgb(242,234,117);fill-rule:nonzero;"/>
                </g>
                <g transform="matrix(1,0,0,1,201.075,54.536)">
                    <path d="M0,-29.517L9.211,-24.977L7.37,-17.47L3.237,-11.743L-3.761,-6.28L-14.298,-1.858L-23.445,0L-34.338,0L-48.389,-6.363L-58.059,-15.432L-61.938,-22.103L-62.799,-24.977L-56.347,-27.634L-52.812,-28.464L-49.517,-22.251L-43.088,-15.822L-37.708,-12.489L-34.107,-10.639L-27.195,-9.572L-19.802,-10.639L-13.98,-12.489L-8.625,-15.822L-5.313,-20.446L-1.573,-27.711L0,-29.517Z" style="fill:rgb(26,166,74);fill-rule:nonzero;"/>
                </g>
                <g transform="matrix(1,0,0,1,246.012,119.312)">
                    <path d="M0,20.864C0,20.864 5.112,18.747 12.592,9.462C12.592,9.462 32.146,-2.995 41.465,-3.908L44.476,1.366L40.114,5.295L36.051,8.145L30.629,10.893L26.974,11.843L24.593,13.034L19.501,15.678L16.114,17.812L13.314,20.474L8.891,23.369L5.421,24.748L1.634,24.772L1.021,22.797L0,20.864Z" style="fill:rgb(26,166,74);fill-rule:nonzero;"/>
                </g>
                <g transform="matrix(1,0,0,1,279.363,123.606)">
                    <path d="M0,-5.863L4.854,2.339L11.029,-3.044L8.113,-8.202C8.113,-8.202 4.088,-8.075 0,-5.863" style="fill:rgb(101,189,80);fill-rule:nonzero;"/>
                </g>
                <g transform="matrix(1,0,0,1,72.9277,130.437)">
                    <path d="M0,-19.695C0,-19.695 -5.298,2.564 26.845,-5.83C58.987,-14.223 18.225,1.312 18.225,1.312L7.739,0.598L-2.263,-4.937L-4.405,-11.545L-3.156,-16.646L-1.191,-22.259L0,-19.695Z" style="fill:rgb(200,182,46);fill-rule:nonzero;"/>
                </g>
                <g transform="matrix(1,0,0,1,64.0576,145.847)">
                    <path d="M0,-31.284C0,-31.284 0.714,-20.979 23.214,-18.163C23.214,-18.163 35.981,-11.046 38.526,-3.197C38.742,-2.533 38.169,-2.443 38.117,-2.198C37.952,-1.435 37.421,-1.924 37.143,-1.597C36.449,-0.786 36.328,0 36.328,0L29.375,-4.276L25.358,-8.205L21.655,-10.651L18.169,-11.879L10.155,-15.39L1.399,-20.333L-2.756,-23.656L-5.357,-25.616L-2.857,-28.204L-1.062,-31.284" style="fill:rgb(24,120,60);fill-rule:nonzero;"/>
                </g>
                <g transform="matrix(1,0,0,1,141.155,26.0716)">
                    <path d="M0,11.3C0,11.3 5.224,5.678 9.51,6.571L7.949,1.586L7.108,0L3.573,0.831L-0.668,3.487L-2.684,4.139L-1.74,8.357L0,11.3Z" style="fill:rgb(24,120,60);fill-rule:nonzero;"/>
                </g>
                <g transform="matrix(1,0,0,1,200.053,38.3258)">
                    <path d="M0,-13.757L-1.876,-8.898L-4.814,-4.236L-9.835,1.451L-16.875,5.572L-29.197,6.688L-36.493,4.089L-43.932,-0.954L-50.084,-8.052L-51.697,-13.933L-48.239,-16.605L-41.658,-18.898L-33.284,-20.445L-23.051,-20.445L-15.354,-19.392L-4.835,-17.085L-0.433,-13.71" style="fill:rgb(18,86,43);fill-rule:nonzero;"/>
                </g>
                <g transform="matrix(1,0,0,1,210.605,30.3156)">
                    <path d="M0,0.244L-9.53,-5.297L-11.688,0.244C-11.688,0.244 -2.447,2.684 -2.265,5.541L-0.412,2.193L0,0.244Z" style="fill:rgb(101,189,80);fill-rule:nonzero;"/>
                </g>
                <g transform="matrix(1,0,0,1,210.193,75.2729)">
                    <path d="M0,-39.416C0,-39.416 11.9,-33.603 25.114,-30.259C38.329,-26.916 44.33,-7.843 43.294,-0.772C42.258,6.298 48.41,-3.244 48.41,-3.244L49.4,-11.738L48.41,-19.141L42.958,-26.65L34.664,-32.473L20.331,-38.472C20.331,-38.472 7.909,-42.603 7.156,-42.895C6.402,-43.187 2.44,-44.784 2.44,-44.784L1.043,-45.714L0,-42.764L0,-39.416Z" style="fill:rgb(242,234,117);fill-rule:nonzero;"/>
                </g>
                <g transform="matrix(1,0,0,1,237.129,225.416)">
                    <path d="M0,-93.875C-0.75,-94.381 -3.897,-77.952 -4.108,-64.738C-4.32,-51.524 -6.643,-48.309 -7.179,-42.239C-7.714,-36.167 -7.646,-5.66 -4.108,-0.289C-3.587,0.506 -3.53,-0.582 -3.146,-0.839C-2.496,-1.28 -1.595,-1.527 -0.908,-2.156C0.757,-3.678 2.5,-4.273 2.5,-4.273L-0.75,-31.345L-1.106,-39.917L-1.464,-45.893L0.333,-53.398L0.661,-60.818L0.857,-71.523L0.117,-82.943L0.117,-89.381L0,-93.875Z" style="fill:rgb(242,234,117);fill-rule:nonzero;"/>
                </g>
                <g transform="matrix(1,0,0,1,148.165,227.018)">
                    <path d="M0,-201.429C0,-201.429 -33.839,-187.769 -36.161,-187.322C-38.482,-186.876 -52.411,-181.876 -60.089,-166.607C-60.089,-166.607 -70.089,-149.733 -72.143,-143.661C-74.197,-137.59 -84.911,-108.572 -89.464,-106.786C-89.464,-106.786 -85.625,-101.875 -72.946,-95.892C-60.268,-89.911 -66.429,-95.804 -54.732,-85.447C-54.732,-85.447 -49.375,-81.518 -47.589,-80.983C-47.589,-80.983 -44.821,-86.339 -42.589,-87.768C-42.589,-87.768 -37.232,-92.679 -36.339,-96.161C-36.339,-96.161 -36.518,-67.947 -36.071,-66.429C-35.625,-64.911 -34.286,-44.733 -34.107,-41.964C-34.107,-41.964 -39.196,-7.323 -38.572,-7.323C-38.572,-7.323 -31.875,-1.518 -28.393,0.357C-24.911,2.231 -5.446,10.446 20.536,10.357C46.518,10.268 50.356,10.001 61.518,7.321C72.679,4.643 88.481,-3.215 91.697,-6.072L88.572,-33.036C88.572,-33.036 87.054,-44.375 88.75,-53.483C90.446,-62.59 89.554,-80.804 89.286,-81.697C89.019,-82.59 88.661,-96.875 89.196,-97.59C89.731,-98.304 92.321,-90.536 95.09,-89.822C97.857,-89.108 99.285,-82.59 100.09,-81.697C100.09,-81.697 109.375,-84.285 111.161,-87.232C112.946,-90.179 121.607,-94.464 123.214,-94.643C124.821,-94.822 141.25,-102.143 142.322,-106.34C142.322,-106.34 129.019,-129.018 129.375,-133.304C129.733,-137.59 112.589,-168.661 111.161,-170.09C111.161,-170.09 106.34,-184.733 77.41,-191.518C77.41,-191.518 53.572,-200.357 52.41,-201.965C52.41,-201.965 54.286,-205.804 31.874,-208.839C9.464,-211.875 1.161,-203.125 1.161,-203.125L0,-201.429Z" style="fill:none;stroke:rgb(48,50,61);stroke-width:2px;"/>
                </g>
                <g transform="matrix(1,0,0,1,148.555,47.911)">
                    <path d="M0,-22.892C0,-22.892 0.057,-16.519 8.717,-9.108C17.378,-1.697 30.235,0 42.825,-9.108C42.825,-9.108 46.575,-9.286 52.021,-22.858" style="fill:none;stroke:rgb(48,50,61);stroke-width:2px;"/>
                </g>
                <g transform="matrix(1,0,0,1,109.593,361.214)">
                    <path d="M0,-141.519C0,-141.519 -8.75,-114.286 -8.571,-93.036C-8.393,-71.787 -14.286,-65.893 -14.286,-37.498C-14.286,-37.498 14.822,-6.071 52.857,-28.928L64.287,-69.642C64.287,-69.642 65,-75.714 67.5,-69.642C67.5,-69.642 70.893,-40.714 75.358,-32.856C75.358,-32.856 125.537,0 144.822,-42.5C144.822,-42.5 136.429,-81.248 137.143,-89.822C137.617,-95.501 135.581,-112.319 133.217,-124.784C132.015,-131.128 130.235,-137.366 129.151,-139.413" style="fill:none;stroke:rgb(48,50,61);stroke-width:2px;"/>
                </g>
                <g transform="matrix(1,0,0,1,138.276,60.2016)">
                    <path d="M0,-30.643C0,-30.643 1.496,-19.761 17.687,-9.88C33.877,0 68.759,-7.857 72.329,-29.642" style="fill:none;stroke:rgb(48,50,61);stroke-width:2px;"/>
                </g>
                <g transform="matrix(1,0,0,1,91.1528,124.607)">
                    <path d="M0,-69.364C0,-69.364 1.238,-59.88 6.12,-50.714C11,-41.548 14.095,-29.048 15.405,-17.5C16.715,-5.952 20.167,-2.499 21.358,0" style="fill:rgb(200,182,46);fill-rule:nonzero;"/>
                </g>
                <g transform="matrix(1,0,0,1,258.603,128.773)">
                    <path d="M0,-71.917C0,-71.917 -1.239,-62.084 -6.12,-52.579C-11.001,-43.076 -14.097,-30.115 -15.406,-18.143C-16.715,-6.171 -20.169,-2.591 -21.357,0" style="fill:rgb(200,182,46);fill-rule:nonzero;"/>
                </g>
                <g transform="matrix(1,0,0,1,197.314,106.254)">
                    <path d="M0,-17.661C0,-17.661 2.455,-15.125 2.782,-7.516C3.109,0.092 3.846,2.791 13.663,7.537C13.663,7.537 20.209,7.209 24.381,-2.281C24.381,-2.281 23.964,-5.793 24.544,-9.644C25.211,-14.065 26.867,-18.922 26.539,-19.248C24.671,-21.114 20.253,-24.921 15.136,-25.106C12.59,-25.198 10.239,-24.865 8.14,-24.153C4.641,-22.966 1.842,-20.73 0,-17.661Z" style="fill:none;stroke:rgb(48,50,61);stroke-width:1px;"/>
                </g>
                <g transform="matrix(1,0,0,1,209.003,94.0157)">
                    <path d="M0,-11.19L0.119,0.278L-7.737,0.536C-7.737,0.536 -8.809,-4.463 -9.465,-5.327C-10.119,-6.19 -1.845,-11.726 0,-11.19" style="fill:rgb(53,110,182);fill-rule:nonzero;"/>
                </g>
                <g transform="matrix(1,0,0,1,212.634,93.9801)">
                    <path d="M0,-11.191L0.238,0.572L7.798,0.572C7.798,0.572 8.869,-5.082 9.406,-5.678C9.941,-6.274 1.667,-11.763 0,-11.191" style="fill:rgb(53,110,182);fill-rule:nonzero;"/>
                </g>
                <g transform="matrix(1,0,0,1,201.682,110.742)">
                    <path d="M0,-12.797L7.635,-12.565L7.916,0C7.916,0 1.19,-1.786 0.596,-7.083C0,-12.38 0.119,-9.643 0,-12.797" style="fill:rgb(53,110,182);fill-rule:nonzero;"/>
                </g>
                <g transform="matrix(1,0,0,1,220.193,111.241)">
                    <path d="M0,-13.296C0.161,-13.393 -7.404,-12.89 -7.404,-12.89L-7.56,0.097C-7.56,0.097 -2.857,-1.093 -0.238,-7.641C-0.238,-7.641 -0.596,-12.939 0,-13.296" style="fill:rgb(53,110,182);fill-rule:nonzero;"/>
                </g>
                <g transform="matrix(1,0,0,1,201.266,96.9333)">
                    <path d="M0,-1.489L19.166,-1.489L18.932,0L0.416,0L0,-1.489Z" style="fill:rgb(17,174,75);fill-rule:nonzero;"/>
                </g>
                <g transform="matrix(1,0,0,1,210.194,111.696)">
                    <path d="M0,-28.947L1.606,-28.947L1.606,0L0.411,0L0,-28.947Z" style="fill:rgb(17,174,75);fill-rule:nonzero;"/>
                </g>
                <g transform="matrix(1,0,0,1,205.611,102.826)">
                    <path d="M0,-13.75L3.749,-9.167C3.749,-9.167 3.511,-8.095 3.034,-8.214C2.56,-8.333 -1.191,-12.083 -1.191,-12.083C-1.191,-12.083 0.355,-6.37 -1.191,-1.547L3.095,-4.881C3.095,-4.881 4.285,-4.703 3.749,-3.988L0,0C0,0 5.799,-2.368 10.653,0L7.202,-3.988C7.202,-3.988 6.964,-5.357 7.855,-4.762L12.439,-1.309C12.439,-1.309 9.344,-7.5 12.439,-11.905L8.214,-8.869C8.214,-8.869 6.606,-7.857 7.38,-9.465L10.653,-13.156C10.653,-13.156 9.665,-13.081 8.094,-12.798C6.983,-12.597 5.475,-11.993 4.285,-12.56C3.146,-13.102 1.399,-12.567 0.734,-13.366C0.669,-13.444 0.029,-13.647 0,-13.75" style="fill:rgb(235,241,248);fill-rule:nonzero;"/>
                </g>
                <g>
                    <g transform="matrix(1.23779,0,0,1,-46.5505,0)">
                        <path d="M196.332,117.933L198.562,117.933C199.003,117.933 199.333,117.951 199.55,117.988C199.766,118.025 199.961,118.101 200.132,118.218C200.303,118.335 200.446,118.49 200.56,118.684C200.674,118.878 200.731,119.096 200.731,119.337C200.731,119.598 200.661,119.838 200.52,120.056C200.379,120.275 200.188,120.438 199.947,120.547C200.287,120.646 200.549,120.815 200.731,121.054C200.914,121.292 201.005,121.572 201.005,121.895C201.005,122.148 200.946,122.395 200.828,122.635C200.71,122.875 200.549,123.066 200.345,123.21C200.141,123.353 199.889,123.441 199.589,123.474C199.402,123.494 198.949,123.507 198.231,123.512L196.332,123.512L196.332,117.933ZM197.458,118.861L197.458,120.152L198.197,120.152C198.635,120.152 198.908,120.145 199.015,120.133C199.208,120.11 199.359,120.043 199.47,119.933C199.58,119.822 199.635,119.677 199.635,119.497C199.635,119.324 199.588,119.184 199.492,119.076C199.397,118.969 199.256,118.903 199.068,118.88C198.956,118.868 198.635,118.861 198.105,118.861L197.458,118.861ZM197.458,121.08L197.458,122.572L198.501,122.572C198.907,122.572 199.164,122.561 199.274,122.538C199.441,122.507 199.577,122.433 199.683,122.315C199.788,122.197 199.841,122.039 199.841,121.841C199.841,121.674 199.8,121.532 199.719,121.415C199.638,121.298 199.52,121.213 199.367,121.16C199.213,121.107 198.88,121.08 198.368,121.08L197.458,121.08Z" style="fill:rgb(17,174,75);fill-rule:nonzero;"/>
                    </g>
                    <g transform="matrix(1.23779,0,0,1,-47.8688,0)">
                        <path d="M201.876,123.512L201.876,117.933L204.247,117.933C204.843,117.933 205.276,117.983 205.547,118.083C205.817,118.183 206.033,118.361 206.195,118.618C206.358,118.874 206.439,119.167 206.439,119.497C206.439,119.916 206.316,120.261 206.07,120.534C205.824,120.807 205.456,120.979 204.966,121.05C205.21,121.192 205.411,121.348 205.569,121.518C205.728,121.688 205.942,121.99 206.211,122.424L206.892,123.512L205.545,123.512L204.73,122.298C204.441,121.864 204.243,121.591 204.136,121.478C204.03,121.365 203.917,121.288 203.798,121.246C203.678,121.204 203.489,121.183 203.231,121.183L203.002,121.183L203.002,123.512L201.876,123.512ZM203.002,120.292L203.836,120.292C204.376,120.292 204.714,120.27 204.848,120.224C204.983,120.178 205.088,120.1 205.164,119.988C205.24,119.876 205.278,119.737 205.278,119.569C205.278,119.381 205.228,119.23 205.128,119.114C205.028,118.999 204.886,118.926 204.704,118.896C204.612,118.883 204.338,118.877 203.881,118.877L203.002,118.877L203.002,120.292Z" style="fill:rgb(17,174,75);fill-rule:nonzero;"/>
                    </g>
                    <g transform="matrix(1.23779,0,0,1,-49.2608,0)">
                        <path d="M212.757,123.512L211.531,123.512L211.044,122.245L208.814,122.245L208.353,123.512L207.158,123.512L209.332,117.933L210.523,117.933L212.757,123.512ZM210.683,121.305L209.914,119.234L209.16,121.305L210.683,121.305Z" style="fill:rgb(17,174,75);fill-rule:nonzero;"/>
                    </g>
                    <g transform="matrix(1.23779,0,0,1,-50.7999,0)">
                        <path d="M213.912,121.697L215.009,121.59C215.074,121.958 215.208,122.228 215.41,122.401C215.612,122.573 215.884,122.66 216.226,122.66C216.589,122.66 216.863,122.583 217.047,122.429C217.231,122.276 217.323,122.096 217.323,121.891C217.323,121.759 217.284,121.647 217.206,121.554C217.129,121.461 216.994,121.381 216.801,121.312C216.669,121.267 216.369,121.185 215.899,121.069C215.295,120.919 214.871,120.735 214.628,120.517C214.285,120.21 214.114,119.836 214.114,119.394C214.114,119.11 214.195,118.844 214.356,118.597C214.517,118.349 214.749,118.161 215.052,118.032C215.355,117.902 215.721,117.838 216.15,117.838C216.851,117.838 217.378,117.991 217.732,118.298C218.086,118.605 218.271,119.015 218.289,119.527L217.163,119.577C217.114,119.29 217.011,119.084 216.852,118.958C216.694,118.833 216.456,118.77 216.139,118.77C215.812,118.77 215.555,118.837 215.37,118.972C215.251,119.058 215.191,119.173 215.191,119.318C215.191,119.45 215.247,119.563 215.359,119.657C215.501,119.776 215.846,119.9 216.394,120.03C216.942,120.159 217.347,120.293 217.61,120.431C217.872,120.57 218.078,120.759 218.226,120.998C218.375,121.238 218.449,121.534 218.449,121.887C218.449,122.207 218.36,122.506 218.183,122.785C218.005,123.064 217.754,123.272 217.429,123.408C217.104,123.543 216.7,123.611 216.215,123.611C215.51,123.611 214.968,123.448 214.59,123.122C214.212,122.796 213.986,122.321 213.912,121.697Z" style="fill:rgb(17,174,75);fill-rule:nonzero;"/>
                    </g>
                    <g transform="matrix(1.23779,0,0,1,-51.9916,0)">
                        <rect x="219.175" y="117.933" width="1.127" height="5.58" style="fill:rgb(17,174,75);fill-rule:nonzero;"/>
                    </g>
                    <g transform="matrix(1.23779,0,0,1,-52.7321,0)">
                        <path d="M222.354,123.512L222.354,117.978L223.48,117.978L223.48,122.572L226.282,122.572L226.282,123.512L222.354,123.512Z" style="fill:rgb(17,174,75);fill-rule:nonzero;"/>
                    </g>
                </g>
                <g>
                    <g transform="matrix(1.23779,0,0,1,-29.9899,0)">
                        <path d="M132.539,115.353L134.234,115.891C133.974,116.836 133.542,117.537 132.937,117.996C132.333,118.455 131.566,118.684 130.637,118.684C129.487,118.684 128.542,118.291 127.802,117.506C127.062,116.72 126.692,115.646 126.692,114.284C126.692,112.843 127.064,111.724 127.808,110.926C128.552,110.129 129.531,109.73 130.743,109.73C131.802,109.73 132.663,110.043 133.324,110.67C133.718,111.04 134.013,111.571 134.21,112.264L132.48,112.678C132.377,112.229 132.164,111.874 131.839,111.615C131.514,111.355 131.119,111.225 130.655,111.225C130.013,111.225 129.492,111.455 129.092,111.916C128.693,112.376 128.493,113.123 128.493,114.154C128.493,115.249 128.69,116.028 129.084,116.493C129.477,116.958 129.989,117.19 130.619,117.19C131.084,117.19 131.483,117.042 131.818,116.747C132.153,116.452 132.393,115.987 132.539,115.353Z" style="fill:rgb(17,174,75);fill-rule:nonzero;"/>
                    </g>
                    <g transform="matrix(1.23779,0,0,1,-32.0018,0)">
                        <path d="M135.483,118.537L135.483,109.878L137.231,109.878L137.231,113.723L140.763,109.878L143.114,109.878L139.854,113.251L143.291,118.537L141.029,118.537L138.649,114.473L137.231,115.92L137.231,118.537L135.483,118.537Z" style="fill:rgb(17,174,75);fill-rule:nonzero;"/>
                    </g>
                </g>
                <g transform="matrix(0.922838,0,0,1,11.8403,0)">
                    <path d="M170.245,171.136L164.389,171.136L164.389,149.066C162.249,151.067 159.728,152.547 156.824,153.505L156.824,148.191C158.352,147.691 160.012,146.743 161.805,145.347C163.597,143.95 164.827,142.321 165.493,140.46L170.245,140.46L170.245,171.136Z" style="fill:rgb(26,166,74);fill-rule:nonzero;"/>
                    <path d="M188.897,140.46C191.856,140.46 194.169,141.515 195.837,143.627C197.823,146.128 198.817,150.275 198.817,156.069C198.817,161.848 197.816,166.003 195.816,168.531C194.162,170.615 191.856,171.657 188.897,171.657C185.924,171.657 183.527,170.514 181.707,168.229C179.887,165.944 178.977,161.869 178.977,156.006C178.977,150.254 179.977,146.114 181.978,143.586C183.631,141.502 185.938,140.46 188.897,140.46ZM188.897,145.315C188.188,145.315 187.556,145.541 187,145.993C186.445,146.444 186.014,147.253 185.708,148.42C185.305,149.935 185.104,152.484 185.104,156.069C185.104,159.653 185.285,162.116 185.646,163.457C186.007,164.797 186.462,165.69 187.011,166.135C187.56,166.579 188.188,166.801 188.897,166.801C189.605,166.801 190.238,166.576 190.793,166.124C191.349,165.673 191.78,164.863 192.085,163.696C192.488,162.196 192.69,159.653 192.69,156.069C192.69,152.484 192.509,150.022 192.148,148.681C191.787,147.34 191.332,146.444 190.783,145.993C190.234,145.541 189.605,145.315 188.897,145.315Z" style="fill:rgb(26,166,74);fill-rule:nonzero;"/>
                </g>
                <g transform="matrix(0.902377,0.193259,-0.209421,0.977825,13.1409,2.81433)">
                    <path d="M182.723,285.443L179.746,285.443L179.746,274.223C178.658,275.24 177.376,275.992 175.9,276.48L175.9,273.778C176.677,273.524 177.521,273.042 178.432,272.332C179.343,271.622 179.969,270.794 180.308,269.847L182.723,269.847L182.723,285.443Z" style="fill:rgb(227,242,229);fill-rule:nonzero;"/>
                    <path d="M192.206,269.847C193.71,269.847 194.886,270.384 195.734,271.458C196.744,272.729 197.249,274.837 197.249,277.783C197.249,280.721 196.74,282.833 195.723,284.119C194.883,285.178 193.71,285.708 192.206,285.708C190.694,285.708 189.476,285.127 188.55,283.965C187.625,282.803 187.163,280.732 187.163,277.751C187.163,274.827 187.671,272.722 188.688,271.437C189.529,270.377 190.701,269.847 192.206,269.847ZM192.206,272.316C191.845,272.316 191.524,272.431 191.242,272.66C190.959,272.89 190.74,273.301 190.585,273.895C190.38,274.664 190.277,275.961 190.277,277.783C190.277,279.605 190.369,280.857 190.553,281.539C190.737,282.22 190.968,282.674 191.247,282.9C191.526,283.126 191.845,283.239 192.206,283.239C192.566,283.239 192.887,283.124 193.17,282.895C193.452,282.665 193.671,282.254 193.827,281.661C194.032,280.898 194.134,279.605 194.134,277.783C194.134,275.961 194.042,274.709 193.859,274.027C193.675,273.345 193.444,272.89 193.165,272.66C192.886,272.431 192.566,272.316 192.206,272.316Z" style="fill:rgb(227,242,229);fill-rule:nonzero;"/>
                </g>
                <g transform="matrix(0.999315,-0.0370115,0.0370032,0.999315,0,0)">
                    <g transform="matrix(0.922843,0,4.12737e-06,1,15.4932,0)">
                        <path d="M211.725,325.036L214.605,325.949C214.163,327.555 213.429,328.747 212.402,329.527C211.375,330.306 210.073,330.696 208.494,330.696C206.541,330.696 204.935,330.028 203.678,328.694C202.42,327.359 201.791,325.535 201.791,323.22C201.791,320.772 202.423,318.87 203.688,317.516C204.952,316.161 206.614,315.484 208.675,315.484C210.474,315.484 211.936,316.016 213.06,317.079C213.729,317.708 214.23,318.611 214.565,319.788L211.625,320.491C211.451,319.728 211.088,319.126 210.536,318.685C209.984,318.243 209.313,318.022 208.524,318.022C207.434,318.022 206.549,318.414 205.87,319.196C205.191,319.979 204.852,321.247 204.852,322.999C204.852,324.859 205.186,326.184 205.855,326.973C206.524,327.762 207.394,328.157 208.464,328.157C209.253,328.157 209.932,327.906 210.501,327.404C211.069,326.903 211.478,326.113 211.725,325.036Z" style="fill:rgb(227,242,229);fill-rule:nonzero;"/>
                    </g>
                    <g transform="matrix(0.922843,0,4.12737e-06,1,16.379,0)">
                        <path d="M213.834,330.445L213.834,315.735L216.804,315.735L216.804,322.267L222.804,315.735L226.798,315.735L221.259,321.464L227.099,330.445L223.256,330.445L219.212,323.541L216.804,326L216.804,330.445L213.834,330.445Z" style="fill:rgb(227,242,229);fill-rule:nonzero;"/>
                    </g>
                </g>
                <g transform="matrix(1,0,0,1,198.917,81.5234)">
                    <path d="M0,-6L-0.756,-3.671L-3.176,-3.671L-1.251,-2.235L-1.956,0L0,-1.271L1.925,0L1.267,-2.165L3.177,-3.601L0.844,-3.624L0,-6Z" style="fill:rgb(17,174,75);fill-rule:nonzero;"/>
                </g>
                <g transform="matrix(1,0,0,1,205.269,79.5854)">
                    <path d="M0,-5.999L-0.757,-3.669L-3.176,-3.669L-1.252,-2.234L-1.957,0L0,-1.27L1.925,0L1.266,-2.164L3.176,-3.599L0.843,-3.623L0,-5.999Z" style="fill:rgb(17,174,75);fill-rule:nonzero;"/>
                </g>
                <g transform="matrix(1,0,0,1,218.332,79.8022)">
                    <path d="M0,-6L-0.756,-3.671L-3.176,-3.671L-1.25,-2.235L-1.956,0L0,-1.271L1.926,0L1.268,-2.164L3.177,-3.599L0.844,-3.623L0,-6Z" style="fill:rgb(17,174,75);fill-rule:nonzero;"/>
                </g>
                <g transform="matrix(1,0,0,1,224.685,82)">
                    <path d="M0,-5.999L-0.758,-3.671L-3.177,-3.671L-1.253,-2.235L-1.957,0L0,-1.271L1.925,0L1.267,-2.165L3.175,-3.599L0.842,-3.623L0,-5.999Z" style="fill:rgb(17,174,75);fill-rule:nonzero;"/>
                </g>
                <g transform="matrix(1,0,0,1,211.517,78.0288)">
                    <path d="M0,-6L-0.757,-3.671L-3.176,-3.671L-1.252,-2.235L-1.957,0L0,-1.271L1.925,0L1.268,-2.165L3.176,-3.601L0.843,-3.623L0,-6Z" style="fill:rgb(17,174,75);fill-rule:nonzero;"/>
                </g>
            </g>
        </g>
    </g>
    <g transform="matrix(5.22517,0,0,5.05769,-324.238,-461.538)">
        <rect x="62.053" y="91.255" width="68.897" height="71.179" style="fill:none;"/>
    </g>
</svg>
