<?xml version="1.0" encoding="UTF-8" standalone="no"?>
<!DOCTYPE svg PUBLIC "-//W3C//DTD SVG 1.1//EN" "http://www.w3.org/Graphics/SVG/1.1/DTD/svg11.dtd">
<svg width="100%" height="100%" viewBox="0 0 360 360" version="1.1" xmlns="http://www.w3.org/2000/svg" xmlns:xlink="http://www.w3.org/1999/xlink" xml:space="preserve" xmlns:serif="http://www.serif.com/" style="fill-rule:evenodd;clip-rule:evenodd;stroke-miterlimit:10;">
    <g id="CK-WC-Mascot_Uniform-360x360" transform="matrix(0.24,0,0,0.24,180,180)">
        <g transform="matrix(1,0,0,1,-750,-750)">
            <g id="Layer-1" serif:id="Layer 1" transform="matrix(4.16667,0,0,4.16667,0,0)">
                <g transform="matrix(1,0,0,1,122.123,344.845)">
                    <path d="M0,-104.514L-4.875,-84.97L-6.49,-75.017L-7.754,-63.769L-7.31,-59.823L-7.53,-55.456L-8.451,-47.971L-9.781,-40.704L-10.819,-34.728L-11.553,-29.069L-11.985,-23.851L-12.255,-14.587L-7.008,-10.036L-2.25,-6.836L4.277,-3.515L11.613,-1.092L18.609,0L25.902,-0.103L34.067,-1.727L38.479,-3.281L46.139,-7.133L50.955,-24.29L56.337,-43.775L57.144,-44.887L58.014,-44.232L58.873,-42.542L63.105,-18.01L64.758,-12.613L65.747,-10.524L72.121,-6.988L83.518,-2.836L93.377,-0.3L99.672,-0.041L106.588,-1.051L112.098,-3.158L117.664,-6.988L122.311,-12.226L126.543,-18.565L122.637,-36.232L119.404,-58.836L119.488,-62.751L117.072,-84.505L114.365,-98.075L112.49,-103.221L101.15,-97.13L90.5,-92.899L83.516,-91.488L70.75,-90.077L53.751,-89.676L40.139,-90.289L25.397,-92.969L14.323,-96.001L5.366,-100.939L1.385,-104.02L0,-104.514Z" style="fill:rgb(238,41,56);fill-rule:nonzero;"/>
                </g>
                <g transform="matrix(1,0,0,1,135.454,339.241)">
                    <path d="M0,-90.945C0,-90.945 -11.656,-20.764 -8.552,-6.131C-5.448,8.502 29.14,-1.475 33.131,-6.131C37.122,-10.788 34.018,-6.131 34.018,-6.131L32.688,-2.14L25.814,1.536L18.802,4.262L11.372,5.604L4.25,5.444L-5.609,3.226L-13.346,-0.095L-23.589,-7.251L-25.571,-9.474L-24.737,-24.756L-23.111,-35.1L-21.415,-45.347L-20.641,-54.218L-20.409,-64.183L-18.307,-78.74L-16.755,-86.836L-13.894,-96.653L-12.751,-99.447L-8.259,-95.898L-3.799,-93.039L0,-90.945" style="fill:rgb(201,32,38);fill-rule:nonzero;"/>
                </g>
                <g transform="matrix(1,0,0,1,229.635,330.084)">
                    <path d="M0,-85.565C0,-85.565 5.912,-63.934 5.912,-34.446C5.912,-4.958 14.154,-0.169 14.799,2.536L19.031,-3.803L15.445,-19.369L12.834,-37.496L11.893,-44.075L11.977,-47.99L8.988,-72.62L7.463,-81.006L5.246,-88.101L2.408,-86.693L0,-85.565" style="fill:rgb(240,96,113);fill-rule:nonzero;"/>
                </g>
                <g transform="matrix(1,0,0,1,122.703,79.7489)">
                    <path d="M0,160.045L6.169,164.919L12.751,168.547L19.676,170.719L32.824,173.583L46.975,175.42L56.12,175.815L61.399,175.42L77.74,174.182C77.74,174.182 89.102,172.119 89.25,172.075C89.397,172.03 99.151,168.414 99.151,168.414L109.34,163.642L112.68,161.303L111.28,147.313L109.393,128.253L110.948,117.529L111.192,107.501L110.86,95.913L110.471,87.18L110.504,83.378L110.606,81.935L111.657,82.778L112.78,84.878L114.372,87.236L116.372,88.528C116.372,88.528 118.157,90.738 118.231,90.888C118.305,91.036 119.651,94.285 119.651,94.285L120.182,95.361L127.567,92.428L130.506,89.687L132.245,88.232L138.178,84.862L143.739,82.789L150.633,79.293L157.333,74.045L152.374,65.859L147.174,55.474L145.651,50.479L144.834,47.324L139.622,36.092L132.588,23.022L127.727,14.881L120.385,7.558L105.846,1.309L94.987,-2.217L85.147,-6.113L79.149,-9.264C79.149,-9.264 78.43,-10.189 78.345,-10.281C78.26,-10.372 70.57,-13.782 70.57,-13.782L62.319,-15.008L51.693,-15.77L41.674,-14.221L34.963,-11.367L33.135,-8.768L24.534,-5.316L2.386,3.294L-8.792,8.993L-13.485,13.312L-17.234,18.196L-21.996,26.482L-28.397,38.559L-31.047,45.515L-36.654,59.674L-40.647,68.153L-43.288,72.35L-44.672,73.541L-37.108,79.464L-31.906,82.092C-31.906,82.092 -25.686,85.041 -25.525,85.041C-25.364,85.041 -20.913,86.703 -20.913,86.703L-15.444,91.047L-8.419,95.819L-5.201,91.315C-5.201,91.315 -2.198,88.365 -2.038,88.313C-1.877,88.259 1.448,83.271 1.448,83.271L1.609,89.706L1.501,102.896L2.521,116.515L3.539,129.917L1.351,144.804L-0.358,158.293L0,160.045Z" style="fill:rgb(245,247,251);fill-rule:nonzero;"/>
                </g>
                <g transform="matrix(1,0,0,1,135.454,147.743)">
                    <path d="M0,100.553C0,100.553 -0.555,75.608 3.319,64.965C7.193,54.323 -3.036,14.069 -0.028,10.251C2.98,6.432 -11.21,0 -13.649,0.666C-16.088,1.331 -11.769,14.662 -11.769,14.662L-10.625,23.282L-10.604,40.575L-9.437,60.974L-13.109,90.299L-9.215,95.563L-3.894,98.889L0,100.553Z" style="fill:rgb(216,216,216);fill-rule:nonzero;"/>
                </g>
                <g transform="matrix(1,0,0,1,108.476,67.6482)">
                    <path d="M0,38.512C0,38.512 10.002,22.439 23.305,20.226C36.608,18.013 39.269,15.131 41.265,13.579C43.26,12.027 47.318,7.94 50.5,9.651L53.459,12.692L59.396,17.646L64.544,19.566L70.557,20.204L78.735,18.235L83.834,15.575L87.381,12.914L91.231,6.784L93.375,2.837L90.929,0.054L86.317,-1.005L82.266,-2.057L76.545,-2.907L70.557,-3.669L65.92,-3.669L58.786,-2.566L52.129,-0.833L49.189,0.734L47.71,2.837L43.734,4.788L38.761,6.784L28.176,10.9L21.884,13.441L12.197,17.646L6.607,20.226L0,26.379L-3.694,31.248L-4.631,40.85L-2.222,42.181L0,38.512" style="fill:rgb(216,216,216);fill-rule:nonzero;"/>
                </g>
                <g transform="matrix(1,0,0,1,158.016,82.7638)">
                    <path d="M0,-13.651L2.871,-15.889L7.984,-17.687L13.306,-18.31L19.566,-18.761C19.566,-18.761 28.328,-17.365 28.668,-17.545C29.009,-17.725 35.867,-16.357 35.867,-16.357L42.2,-13.991L43.027,-12.629L42.248,-9.952L39.814,-4.744L37.186,-1.71L35.052,-0.109L29.425,2.999L21.514,5.11L15.004,4.45L8.214,1.16L2.385,-3.819L-0.73,-8.589L-2.093,-11.363L-1.558,-12.824L0,-13.651Z" style="fill:rgb(180,180,181);fill-rule:nonzero;"/>
                </g>
                <g transform="matrix(1,0,0,1,105.058,174.765)">
                    <path d="M0,-76.484L0.894,-77.45L1.282,-77.065L1.521,-76.228L1.727,-75.288L2.666,-71.322L3.418,-68.605L5.332,-63.953L7.264,-60.141L9.861,-53.679L10.699,-50.825C10.699,-50.825 12.545,-43.388 12.579,-43.371C12.613,-43.355 13.912,-36.772 13.912,-36.772C13.912,-36.772 14.903,-29.882 14.903,-29.83C14.903,-29.779 15.689,-26.413 15.689,-26.413L17.313,-21.795L18.766,-19.436L19.159,-18.77L19.464,-18.271L19.587,-18.01C19.587,-18.01 19.872,-17.627 19.771,-17.408C19.67,-17.189 19.695,-16.724 19.695,-16.724L19.549,-16.374L19.603,-16.044L18.399,-11.497L17.263,-8.787L13.895,-5.556C13.895,-5.556 12.265,-3.615 12.148,-3.577C12.032,-3.537 9.392,0.966 9.392,0.966L2.201,-3.969L-2.178,-7.653L-7.575,-9.711L-14.176,-13.244L-19.223,-15.884L-26.759,-21.264L-22.833,-26.677L-20.077,-32.89L-15.762,-43.541L-11.885,-54.282L-7.571,-62.72L-3.266,-70.239L-0.276,-75.869L0,-76.484Z" style="fill:rgb(57,80,163);fill-rule:nonzero;"/>
                </g>
                <g transform="matrix(1,0,0,1,233.154,111.278)">
                    <path d="M0,49.96C0.018,49.96 0.264,49.233 0.264,49.233L0.813,48.214L1.541,46.91L2.502,45.186L3.75,41.935C3.75,41.935 4.838,37.566 4.779,37.586C4.721,37.606 5.828,30.073 5.828,30.073L7.75,21.105L7.42,21.338C7.42,21.338 9.865,11.767 9.807,11.806C9.75,11.845 13.322,3.963 13.262,3.944C13.205,3.925 16.311,-3.22 16.311,-3.22L17.262,-6.092L17.941,-8.927L18.174,-10.208L18.367,-10.985C18.367,-10.985 18.756,-13.373 18.854,-13.275C18.951,-13.178 20.387,-11.159 20.387,-11.159L22.449,-7.931L24.541,-3.608L30.826,6.682L32.854,12.499L35.42,19.674L36.723,23.944L40.484,31.461L44.078,38.156L46.459,41.819L44.207,44.609L39.813,47.95L34.553,49.96L30.84,52.172L28.029,52.65L23.23,55.136L19.852,57.621L18.4,59.699L14.709,61.854L9.441,63.333L7.633,59.069L6.598,57.31L3.92,55.707L1.732,52.132L0.594,50.58L0,49.96Z" style="fill:rgb(57,80,163);fill-rule:nonzero;"/>
                </g>
                <g transform="matrix(1,0,0,1,108.476,166.836)">
                    <path d="M0,-60.676C0,-60.676 -21.315,-24.591 -18.599,-14.495C-15.883,-4.399 -12.72,-11.001 -6.902,-7.065C-1.083,-3.129 11.614,-14.994 12.582,-17.597C13.55,-20.201 12.609,-14.562 15.74,-10.841L16.374,-9.695L16.353,-9.479L16.353,-6.117L14.108,-1.488L10.477,2.373L7.719,5.952L6.491,7.775L5.448,8.535L2.507,6.444L-0.729,4.135C-0.729,4.135 -4.682,0.835 -4.756,0.878C-4.83,0.921 -5.849,-0.021 -5.849,-0.021C-5.849,-0.021 -9.368,-1.243 -9.4,-1.297C-9.433,-1.352 -10.699,-2.218 -10.699,-2.218L-16.955,-4.653L-22.433,-7.563C-22.433,-7.563 -26.59,-10.246 -26.568,-10.301C-26.546,-10.354 -30.281,-13.775 -30.281,-13.775L-28.397,-15.268L-26.319,-18.806L-24.93,-21.729L-22.844,-26.071L-21.513,-29.779C-21.513,-29.779 -19.749,-33.491 -19.77,-33.447C-19.792,-33.404 -18.168,-37.797 -18.168,-37.797C-18.168,-37.797 -16.826,-41.455 -16.804,-41.488C-16.783,-41.521 -15.548,-45.275 -15.548,-45.275L-13.423,-50.09L-10.569,-55.328L-7.937,-60.123L-5.716,-64.134L-3.674,-67.987L-2.32,-69.211L-2.087,-69.211L-1.953,-68.67C-1.953,-68.67 -1.779,-67.815 -1.801,-67.782C-1.823,-67.75 -1.098,-64.784 -1.098,-64.784C-1.098,-64.784 -0.253,-61.841 -0.264,-61.809C-0.275,-61.776 0.007,-61.084 0.007,-61.084L0,-60.676Z" style="fill:rgb(38,56,122);fill-rule:nonzero;"/>
                </g>
                <g transform="matrix(1,0,0,1,247.143,141.428)">
                    <path d="M0,-27.428C0,-27.428 11.57,-17.34 14.168,-10.04C16.768,-2.739 21.711,10.161 27.592,16.457L30.707,14.534L32.236,12.36L24.379,-3.603L21.207,-11.102L21.285,-13.503C21.285,-13.503 16.148,-24.456 15.84,-24.394C15.531,-24.332 5.197,-43.885 5.197,-43.885L4.979,-43.638L4.865,-43.037L4.693,-42.863L4.551,-42.13L4.326,-40.958L3.949,-38.706L2.574,-34.572L2.033,-32.504L0.914,-29.947L0.293,-27.909L0,-27.428Z" style="fill:rgb(94,116,184);fill-rule:nonzero;"/>
                </g>
                <g transform="matrix(1,0,0,1,155.837,246.161)">
                    <path d="M0,-175.181C0,-175.181 -29.43,-163.3 -31.449,-162.912C-33.468,-162.524 -45.582,-158.176 -52.259,-144.897C-52.259,-144.897 -60.957,-130.222 -62.743,-124.941C-64.528,-119.66 -73.847,-94.424 -77.807,-92.871C-77.807,-92.871 -74.468,-88.6 -63.441,-83.398C-52.415,-78.195 -57.772,-83.32 -47.6,-74.313C-47.6,-74.313 -42.941,-70.896 -41.388,-70.43C-41.388,-70.43 -38.981,-75.089 -37.04,-76.331C-37.04,-76.331 -32.381,-80.602 -31.604,-83.63C-31.604,-83.63 -31.759,-59.093 -31.372,-57.773C-30.983,-56.452 -29.818,-38.904 -29.663,-36.496C-29.663,-36.496 -34.089,-6.368 -33.545,-6.368C-33.545,-6.368 -27.722,-1.321 -24.693,0.31C-21.665,1.94 -4.737,9.085 17.859,9.007C40.456,8.929 43.794,8.697 53.5,6.368C63.208,4.038 76.952,-2.796 79.747,-5.281L77.03,-28.732C77.03,-28.732 75.709,-38.593 77.184,-46.513C78.661,-54.434 77.883,-70.275 77.651,-71.051C77.418,-71.827 77.106,-84.252 77.573,-84.873C78.04,-85.494 80.292,-78.739 82.698,-78.118C85.106,-77.496 86.348,-71.827 87.047,-71.051C87.047,-71.051 95.122,-73.303 96.676,-75.866C98.227,-78.428 105.76,-82.155 107.159,-82.311C108.557,-82.466 122.844,-88.833 123.776,-92.483C123.776,-92.483 112.206,-112.206 112.516,-115.933C112.827,-119.66 97.918,-146.683 96.676,-147.926C96.676,-147.926 92.481,-160.66 67.323,-166.561C67.323,-166.561 46.59,-174.249 45.581,-175.647C45.581,-175.647 47.211,-178.986 27.721,-181.626C8.23,-184.266 1.009,-176.657 1.009,-176.657L0,-175.181Z" style="fill:none;stroke:rgb(48,50,61);stroke-width:2px;"/>
                </g>
                <g transform="matrix(1,0,0,1,156.177,90.3934)">
                    <path d="M0,-19.908C0,-19.908 0.049,-14.366 7.581,-7.921C15.113,-1.476 26.294,0 37.243,-7.921C37.243,-7.921 40.505,-8.076 45.241,-19.879" style="fill:none;stroke:rgb(48,50,61);stroke-width:2px;"/>
                </g>
                <g transform="matrix(1,0,0,1,122.292,362.871)">
                    <path d="M0,-123.077C0,-123.077 -7.61,-99.394 -7.455,-80.912C-7.299,-62.431 -12.424,-57.306 -12.424,-32.613C-12.424,-32.613 12.89,-5.281 45.97,-25.159L55.909,-60.568C55.909,-60.568 56.53,-65.848 58.704,-60.568C58.704,-60.568 61.655,-35.409 65.537,-28.576C65.537,-28.576 109.177,0 125.95,-36.963C125.95,-36.963 118.651,-70.663 119.272,-78.117C119.685,-83.057 117.913,-97.683 115.856,-108.524C114.812,-114.041 113.265,-119.466 112.321,-121.247" style="fill:none;stroke:rgb(48,50,61);stroke-width:2px;"/>
                </g>
                <g transform="matrix(1,0,0,1,147.237,101.083)">
                    <path d="M0,-26.65C0,-26.65 1.301,-17.186 15.382,-8.593C29.463,0 59.798,-6.833 62.904,-25.779" style="fill:none;stroke:rgb(48,50,61);stroke-width:2px;"/>
                </g>
                <g transform="matrix(1,0,0,1,3.64096,2.73072)">
                    <path d="M139.968,130.295L143.097,130.295L143.097,116.853L147.035,116.853C149.371,116.853 150.539,117.615 150.539,119.139C150.539,120.779 148.456,122.674 144.292,124.822L144.292,126.978C145.3,126.494 146.14,126.057 146.812,125.666L150.656,130.295L154.488,130.295L149.578,124.295C151.085,123.404 152.181,122.537 152.865,121.693C153.548,120.85 153.89,119.998 153.89,119.139C153.89,118.74 153.841,118.375 153.744,118.043C153.646,117.711 153.521,117.426 153.369,117.187C153.216,116.949 153.009,116.734 152.748,116.543C152.486,116.352 152.234,116.195 151.992,116.074C151.749,115.953 151.443,115.848 151.072,115.758C150.701,115.668 150.376,115.602 150.099,115.559C149.822,115.516 149.474,115.482 149.056,115.459C148.638,115.436 148.298,115.422 148.037,115.418C147.775,115.414 147.441,115.412 147.035,115.412L139.968,115.412L139.968,130.295Z" style="fill:rgb(48,50,61);fill-rule:nonzero;"/>
                    <path d="M153.453,124.728C153.453,124.072 153.582,122.969 153.84,121.418C154.098,119.867 154.36,118.478 154.625,117.252L155.012,115.412L157.414,115.412C157.016,120.123 156.817,123.357 156.817,125.115C156.817,125.693 156.881,126.219 157.01,126.691C157.139,127.164 157.34,127.596 157.614,127.986C157.887,128.377 158.272,128.68 158.768,128.895C159.264,129.109 159.852,129.217 160.532,129.217C161.211,129.217 161.799,129.109 162.295,128.895C162.791,128.68 163.178,128.377 163.455,127.986C163.733,127.596 163.936,127.164 164.065,126.691C164.194,126.219 164.258,125.693 164.258,125.115C164.258,124.334 164.207,123.135 164.106,121.518C164.004,119.9 163.907,118.478 163.813,117.252L163.66,115.412L166.051,115.412C166.168,115.943 166.313,116.623 166.485,117.451C166.657,118.279 166.887,119.535 167.176,121.219C167.465,122.902 167.61,124.072 167.61,124.728C167.61,125.799 167.45,126.713 167.129,127.471C166.809,128.228 166.332,128.828 165.7,129.27C165.067,129.711 164.33,130.031 163.491,130.23C162.651,130.43 161.664,130.529 160.532,130.529C159.399,130.529 158.412,130.43 157.573,130.23C156.733,130.031 155.996,129.711 155.364,129.27C154.731,128.828 154.254,128.228 153.934,127.471C153.614,126.713 153.453,125.799 153.453,124.728Z" style="fill:rgb(48,50,61);fill-rule:nonzero;"/>
                    <path d="M166.971,128.256L167.721,126.908C167.783,126.963 167.873,127.037 167.99,127.131C168.107,127.225 168.365,127.391 168.764,127.629C169.162,127.867 169.576,128.076 170.006,128.256C170.436,128.436 170.984,128.6 171.652,128.748C172.32,128.896 172.994,128.971 173.674,128.971C174.682,128.971 175.457,128.785 176,128.414C176.543,128.043 176.814,127.557 176.814,126.955C176.814,126.283 176.561,125.766 176.053,125.402C175.545,125.039 174.424,124.486 172.689,123.744C172.252,123.557 171.869,123.385 171.541,123.228C171.213,123.072 170.852,122.883 170.457,122.66C170.063,122.437 169.727,122.211 169.449,121.98C169.172,121.75 168.912,121.494 168.67,121.213C168.428,120.932 168.244,120.623 168.119,120.287C167.994,119.951 167.932,119.6 167.932,119.232C167.932,117.998 168.426,117.014 169.414,116.279C170.402,115.545 171.791,115.178 173.58,115.178C175.635,115.178 177.506,115.818 179.193,117.1L178.443,118.459C177.756,117.975 176.977,117.566 176.105,117.234C175.234,116.902 174.342,116.736 173.428,116.736C172.756,116.736 172.232,116.877 171.857,117.158C171.482,117.439 171.295,117.857 171.295,118.412C171.295,118.912 171.559,119.381 172.086,119.818C172.613,120.256 173.557,120.725 174.916,121.225C176.791,121.928 178.137,122.635 178.953,123.346C179.77,124.057 180.178,124.959 180.178,126.053C180.178,126.654 180.047,127.221 179.785,127.752C179.523,128.283 179.143,128.758 178.643,129.176C178.143,129.594 177.482,129.924 176.662,130.166C175.842,130.408 174.916,130.529 173.885,130.529C173.064,130.529 172.266,130.451 171.488,130.295C170.711,130.139 170.061,129.949 169.537,129.727C169.014,129.504 168.551,129.281 168.148,129.059C167.746,128.836 167.451,128.646 167.264,128.49L166.971,128.256Z" style="fill:rgb(48,50,61);fill-rule:nonzero;"/>
                    <path d="M179.303,128.256L180.053,126.908C180.115,126.963 180.205,127.037 180.322,127.131C180.439,127.225 180.697,127.391 181.096,127.629C181.494,127.867 181.908,128.076 182.338,128.256C182.767,128.436 183.316,128.6 183.984,128.748C184.652,128.896 185.326,128.971 186.006,128.971C187.014,128.971 187.789,128.785 188.332,128.414C188.875,128.043 189.146,127.557 189.146,126.955C189.146,126.283 188.892,125.766 188.385,125.402C187.877,125.039 186.756,124.486 185.021,123.744C184.584,123.557 184.201,123.385 183.873,123.228C183.545,123.072 183.183,122.883 182.789,122.66C182.394,122.437 182.058,122.211 181.781,121.98C181.504,121.75 181.244,121.494 181.002,121.213C180.76,120.932 180.576,120.623 180.451,120.287C180.326,119.951 180.264,119.6 180.264,119.232C180.264,117.998 180.758,117.014 181.746,116.279C182.734,115.545 184.123,115.178 185.912,115.178C187.967,115.178 189.838,115.818 191.525,117.1L190.775,118.459C190.088,117.975 189.308,117.566 188.437,117.234C187.566,116.902 186.674,116.736 185.76,116.736C185.088,116.736 184.564,116.877 184.189,117.158C183.814,117.439 183.627,117.857 183.627,118.412C183.627,118.912 183.89,119.381 184.418,119.818C184.945,120.256 185.889,120.725 187.248,121.225C189.123,121.928 190.469,122.635 191.285,123.346C192.101,124.057 192.51,124.959 192.51,126.053C192.51,126.654 192.379,127.221 192.117,127.752C191.855,128.283 191.474,128.758 190.974,129.176C190.474,129.594 189.814,129.924 188.994,130.166C188.174,130.408 187.248,130.529 186.217,130.529C185.396,130.529 184.597,130.451 183.82,130.295C183.043,130.139 182.392,129.949 181.869,129.727C181.346,129.504 180.883,129.281 180.48,129.059C180.078,128.836 179.783,128.646 179.596,128.49L179.303,128.256Z" style="fill:rgb(48,50,61);fill-rule:nonzero;"/>
                    <rect x="192.8" y="115.412" width="3.129" height="14.883" style="fill:rgb(48,50,61);fill-rule:nonzero;"/>
                    <path d="M195.975,128.162C195.975,127.42 196.198,126.504 196.643,125.414C197.089,124.324 197.626,123.262 198.255,122.227C198.884,121.191 199.559,120.166 200.282,119.15C201.005,118.135 201.624,117.305 202.139,116.66C202.655,116.016 203.042,115.561 203.3,115.295L206.3,115.295C206.893,117.412 207.768,119.932 208.925,122.853C210.081,125.775 211.163,128.256 212.171,130.295L208.819,130.295C207.514,127.873 205.745,123.447 203.51,117.018C203.401,117.197 203.253,117.443 203.065,117.756C202.878,118.068 202.544,118.658 202.063,119.525C201.583,120.393 201.159,121.203 200.792,121.957C200.425,122.711 200.091,123.512 199.79,124.359C199.489,125.207 199.339,125.881 199.339,126.381C199.339,127.201 199.776,127.611 200.651,127.611C201.3,127.611 202.073,127.4 202.971,126.978C203.87,126.557 204.643,126.076 205.292,125.537L206.03,126.955C205.413,127.4 204.874,127.773 204.413,128.074C203.952,128.375 203.362,128.73 202.643,129.141C201.925,129.551 201.219,129.865 200.528,130.084C199.837,130.303 199.19,130.412 198.589,130.412C197.776,130.412 197.137,130.228 196.673,129.861C196.208,129.494 195.975,128.928 195.975,128.162Z" style="fill:rgb(48,50,61);fill-rule:nonzero;"/>
                </g>
                <g transform="matrix(1.73431,0,0,1,-101.688,1.36536)">
                    <path d="M140.105,151.187L140.105,149.986C141.29,149.294 142.321,148.637 143.196,148.016C144.072,147.395 144.775,146.838 145.306,146.345C145.836,145.851 146.261,145.369 146.58,144.899C146.899,144.428 147.116,144.01 147.23,143.644C147.343,143.278 147.4,142.902 147.4,142.517C147.4,141.706 147.164,141.065 146.692,140.595C146.22,140.124 145.545,139.889 144.666,139.889C143.807,139.889 143.112,140.131 142.581,140.614C142.05,141.098 141.785,141.667 141.785,142.32C141.785,142.673 141.88,143.033 142.068,143.399C142.075,143.412 142.005,143.455 141.858,143.527C141.712,143.598 141.564,143.67 141.414,143.742L141.189,143.84C141.15,143.788 141.103,143.718 141.048,143.63C140.993,143.541 140.918,143.357 140.823,143.076C140.729,142.794 140.682,142.51 140.682,142.223C140.682,141.544 140.895,140.926 141.321,140.367C141.748,139.809 142.326,139.373 143.055,139.06C143.784,138.746 144.588,138.59 145.467,138.59C146.86,138.59 147.998,138.97 148.88,139.729C149.762,140.489 150.203,141.444 150.203,142.595C150.203,143.21 150.078,143.793 149.827,144.345C149.577,144.898 149.303,145.362 149.007,145.738C148.711,146.114 148.227,146.54 147.557,147.018C146.886,147.495 146.347,147.851 145.94,148.086C145.534,148.322 144.878,148.691 143.973,149.195C143.816,149.279 143.699,149.345 143.621,149.391L150.604,149.391L150.604,151.187L140.105,151.187Z" style="fill:rgb(48,50,61);fill-rule:nonzero;"/>
                    <path d="M151.883,145.63C151.883,144.946 151.951,144.277 152.088,143.623C152.224,142.969 152.447,142.334 152.757,141.719C153.066,141.104 153.443,140.567 153.889,140.108C154.335,139.649 154.892,139.281 155.559,139.005C156.227,138.728 156.967,138.59 157.781,138.59C158.595,138.59 159.335,138.728 160.003,139.005C160.67,139.281 161.227,139.649 161.673,140.108C162.119,140.567 162.496,141.104 162.805,141.719C163.115,142.334 163.338,142.969 163.474,143.623C163.611,144.277 163.679,144.946 163.679,145.63C163.679,146.509 163.567,147.29 163.343,147.974C163.118,148.658 162.822,149.21 162.454,149.63C162.086,150.049 161.642,150.395 161.121,150.665C160.6,150.935 160.069,151.122 159.529,151.227C158.989,151.331 158.406,151.383 157.781,151.383C157.156,151.383 156.573,151.331 156.033,151.227C155.493,151.122 154.962,150.935 154.441,150.665C153.92,150.395 153.476,150.049 153.108,149.63C152.74,149.21 152.444,148.658 152.219,147.974C151.995,147.29 151.883,146.509 151.883,145.63ZM154.685,145.903C154.685,147.352 154.954,148.46 155.491,149.227C156.028,149.994 156.791,150.377 157.781,150.377C158.771,150.377 159.536,149.994 160.076,149.227C160.616,148.46 160.886,147.352 160.886,145.903C160.886,145.09 160.834,144.33 160.73,143.622C160.626,142.913 160.46,142.247 160.232,141.623C160.004,140.999 159.682,140.506 159.265,140.142C158.849,139.778 158.354,139.596 157.781,139.596C157.208,139.596 156.713,139.778 156.297,140.142C155.88,140.506 155.559,141.001 155.335,141.628C155.11,142.255 154.946,142.921 154.842,143.627C154.737,144.332 154.685,145.09 154.685,145.903Z" style="fill:rgb(48,50,61);fill-rule:nonzero;"/>
                    <path d="M164.697,140.582L164.697,139.684C165.289,139.612 165.771,139.527 166.142,139.43C166.513,139.332 166.785,139.241 166.958,139.156C167.13,139.072 167.431,138.909 167.861,138.668L168.818,138.668L168.818,151.187L166.22,151.187L166.22,141.641C166.22,141.297 166.121,141.035 165.923,140.854C165.724,140.673 165.456,140.582 165.117,140.582L164.697,140.582Z" style="fill:rgb(48,50,61);fill-rule:nonzero;"/>
                    <path d="M170.595,147.725C170.595,147.374 170.654,147.048 170.771,146.746C170.888,146.444 171.031,146.19 171.201,145.985C171.37,145.781 171.58,145.594 171.831,145.425C172.081,145.256 172.311,145.124 172.519,145.03C172.727,144.936 172.958,144.851 173.212,144.777C173.466,144.702 173.649,144.653 173.759,144.63C173.87,144.608 173.987,144.587 174.111,144.567C173.986,144.548 173.838,144.51 173.668,144.455C173.497,144.4 173.286,144.302 173.033,144.163C172.78,144.023 172.554,143.859 172.354,143.67C172.154,143.482 171.98,143.23 171.832,142.915C171.685,142.6 171.611,142.254 171.611,141.877C171.611,141.303 171.738,140.797 171.993,140.36C172.249,139.924 172.587,139.581 173.009,139.333C173.431,139.085 173.885,138.9 174.373,138.776C174.86,138.652 175.365,138.59 175.888,138.59C176.3,138.59 176.704,138.626 177.1,138.697C177.495,138.769 177.881,138.89 178.257,139.059C178.633,139.229 178.962,139.438 179.243,139.686C179.525,139.933 179.75,140.245 179.92,140.62C180.09,140.995 180.175,141.414 180.175,141.877C180.175,142.254 180.101,142.6 179.954,142.915C179.806,143.23 179.632,143.482 179.432,143.67C179.232,143.859 179.006,144.023 178.753,144.163C178.5,144.302 178.289,144.4 178.118,144.455C177.948,144.51 177.8,144.548 177.675,144.567C177.799,144.587 177.916,144.608 178.027,144.63C178.138,144.653 178.32,144.702 178.574,144.777C178.828,144.851 179.059,144.936 179.267,145.03C179.475,145.124 179.705,145.256 179.956,145.425C180.206,145.594 180.416,145.781 180.585,145.985C180.755,146.19 180.898,146.444 181.015,146.746C181.132,147.048 181.191,147.374 181.191,147.725C181.191,148.162 181.123,148.562 180.986,148.923C180.849,149.285 180.67,149.59 180.449,149.838C180.227,150.085 179.962,150.304 179.653,150.493C179.344,150.682 179.031,150.832 178.715,150.943C178.4,151.054 178.063,151.143 177.705,151.212C177.347,151.28 177.024,151.326 176.738,151.349C176.451,151.371 176.168,151.383 175.888,151.383C175.608,151.383 175.325,151.371 175.039,151.349C174.752,151.326 174.43,151.28 174.072,151.212C173.714,151.143 173.377,151.054 173.061,150.943C172.745,150.832 172.434,150.682 172.128,150.493C171.822,150.304 171.559,150.085 171.337,149.838C171.116,149.59 170.937,149.285 170.8,148.923C170.664,148.562 170.595,148.162 170.595,147.725ZM173.388,147.882C173.388,149.545 174.222,150.377 175.888,150.377C177.555,150.377 178.388,149.545 178.388,147.882C178.388,147.725 178.37,147.547 178.335,147.345C178.299,147.144 178.232,146.915 178.132,146.658C178.032,146.401 177.906,146.166 177.754,145.951C177.603,145.737 177.398,145.547 177.14,145.381C176.882,145.215 176.592,145.11 176.269,145.064L176.269,144.109C176.719,144.018 177.099,143.786 177.407,143.412C177.716,143.038 177.871,142.497 177.871,141.789C177.871,141.412 177.822,141.084 177.724,140.805C177.626,140.525 177.509,140.311 177.373,140.161C177.236,140.012 177.07,139.891 176.874,139.8C176.679,139.709 176.507,139.653 176.357,139.63C176.207,139.607 176.051,139.596 175.888,139.596C175.725,139.596 175.569,139.607 175.419,139.63C175.27,139.653 175.097,139.709 174.902,139.8C174.707,139.891 174.541,140.012 174.404,140.161C174.267,140.311 174.152,140.525 174.057,140.805C173.963,141.084 173.916,141.412 173.916,141.789C173.916,142.497 174.07,143.038 174.379,143.412C174.687,143.786 175.067,144.018 175.517,144.109L175.517,145.064C175.117,145.116 174.769,145.259 174.472,145.493C174.175,145.727 173.954,146 173.809,146.312C173.664,146.624 173.558,146.913 173.49,147.18C173.422,147.446 173.388,147.68 173.388,147.882Z" style="fill:rgb(48,50,61);fill-rule:nonzero;"/>
                </g>
                <g transform="matrix(1,0,0,1,106.254,157.096)">
                    <path d="M0,-60.326C1.241,-55.172 3.024,-50.183 5.442,-45.573C6.051,-44.452 6.752,-43.263 7.319,-42.045C7.905,-40.834 8.446,-39.603 8.95,-38.358C9.944,-35.863 10.761,-33.306 11.481,-30.728C12.862,-25.558 13.779,-20.267 14.214,-14.959C14.459,-12.364 14.837,-9.771 15.542,-7.263C15.884,-6.006 16.326,-4.777 16.856,-3.578C17.37,-2.373 18.064,-1.233 18.575,0C17.882,-1.127 17.034,-2.156 16.364,-3.323C15.672,-4.473 15.102,-5.7 14.61,-6.955C13.656,-9.479 13.052,-12.118 12.664,-14.777C11.92,-19.992 10.937,-25.151 9.552,-30.205C8.194,-35.281 6.448,-40.164 4.049,-44.882C1.814,-49.784 0.426,-55.027 0,-60.326" style="fill:rgb(48,50,61);fill-rule:nonzero;"/>
                </g>
                <g transform="matrix(1,0,0,1,251.883,160.719)">
                    <path d="M0,-62.546C-0.45,-57.077 -1.789,-51.644 -4.043,-46.557C-6.452,-41.647 -8.198,-36.574 -9.555,-31.314C-10.938,-26.075 -11.918,-20.735 -12.661,-15.34C-13.047,-12.595 -13.646,-9.866 -14.6,-7.249C-15.093,-5.948 -15.677,-4.68 -16.362,-3.478C-16.705,-2.876 -17.07,-2.29 -17.449,-1.718C-17.835,-1.149 -18.239,-0.598 -18.574,0C-18.064,-1.281 -17.362,-2.466 -16.837,-3.714C-16.298,-4.959 -15.87,-6.242 -15.534,-7.547C-14.831,-10.149 -14.455,-12.831 -14.212,-15.517C-13.779,-21.001 -12.865,-26.468 -11.488,-31.819C-10.771,-34.488 -9.954,-37.136 -8.961,-39.726C-8.457,-41.017 -7.915,-42.296 -7.328,-43.555C-6.761,-44.82 -6.058,-46.058 -5.445,-47.227C-4.228,-49.626 -3.174,-52.126 -2.278,-54.69C-1.345,-57.244 -0.615,-59.875 0,-62.546" style="fill:rgb(48,50,61);fill-rule:nonzero;"/>
                </g>
                <g>
                    <g opacity="0.570007">
                        <g transform="matrix(1,0,0,1,132.981,36.5011)">
                            <path d="M0,-21.149L-0.384,-19.636L0,-16.778L0.489,-13.586L1.394,-11.033L2.451,-7.821L4.227,-4.655L5.931,-2.577L7.92,-0.92L9.91,0.398L11.987,1.523L14.982,2.095L18.398,2.258C18.398,2.258 21.797,2.039 21.881,2.023C21.964,2.006 25.301,0.78 25.301,0.78L28.697,-1.274L32.131,-3.811L35.476,-5.96L38.862,-7.619L42.208,-8.644L45.787,-8.823L49.346,-8.121L50.592,-7.605C50.592,-7.605 52.36,-6.592 52.414,-6.557C52.467,-6.522 54.726,-4.768 54.726,-4.768C54.726,-4.768 56.808,-2.632 56.959,-2.733C57.111,-2.835 58.688,-1.274 58.688,-1.274L61.701,0.542C61.701,0.542 64.502,2.102 64.66,1.957C64.819,1.813 67.615,2.616 67.615,2.616L69.92,2.483L72.623,1.755L74.818,0.896L77.162,-0.176L79.236,-1.279L81.102,-2.806L82.797,-4.225L84.43,-6.2L86.506,-9.266L87.533,-11.051L88.635,-12.968L88.947,-14.584L89.068,-16.519L88.578,-17.847L87.443,-19.432L86.238,-20.763L84.412,-21.307L82.545,-22.292L80.135,-22.91L78.691,-23.271L76.539,-23.765L75.037,-23.548L73.191,-23.349L71.186,-22.956L69.484,-22.61C69.484,-22.61 67.736,-22.349 67.654,-22.34C67.571,-22.332 66.167,-21.935 66.167,-21.935L64.674,-20.994L62.791,-20.197C62.791,-20.197 59.574,-18.521 59.516,-18.493C59.457,-18.464 56.86,-17.39 56.86,-17.39L53.916,-16.399L50.947,-15.642L48.273,-15.383L43.474,-15.693L39.08,-16.449L34.777,-17.108C34.777,-17.108 30.727,-17.874 30.725,-17.875C30.722,-17.875 27.982,-18.771 27.982,-18.771L24.471,-19.573L21.099,-20.449L17.766,-21.184L15.332,-21.628L11.96,-22.234L9.304,-22.407L6.098,-22.277L3.707,-22.084L1.193,-21.605L0.393,-21.332L0,-21.149" style="fill:rgb(168,221,244);fill-rule:nonzero;"/>
                        </g>
                    </g>
                </g>
                <g transform="matrix(1,0,0,1,133.067,42.431)">
                    <path d="M0,-31.099L-1.42,-30.587L-2.586,-29.372L-3.048,-27.554L-2.846,-25.995L-2.529,-23.396L-2.038,-20.279L-1.663,-18.113L-1.229,-16.616L0.676,-17.738L0.214,-21.289L-0.409,-23.627L-0.565,-25.735L-0.187,-27.022L1.571,-27.9L5.786,-28.507L12.164,-28.235L16.959,-27.352L21.354,-26.424L25.621,-25.275L28.46,-24.42L32.605,-23.686L36.273,-23.109L38.785,-22.445L41.845,-22.098L44.317,-21.679C44.317,-21.679 47.761,-21.521 47.849,-21.521C47.935,-21.521 51.169,-21.809 51.169,-21.809L55.125,-22.849L58.386,-24.061L61.449,-25.53L63.847,-26.825L65.748,-27.699L67.074,-28.306L70.693,-28.898L74.322,-29.807L76.949,-29.807L79.357,-29.156L82.763,-28.206L84.806,-27.168L87.234,-25.668L88.349,-23.974L88.919,-21.781L88.105,-18.327L86.792,-16.036L84.83,-13.062L83.328,-11.07L81.388,-8.888L79.22,-7.326L76.138,-5.742L73.787,-4.731L71.312,-3.882L68.322,-3.468L65.656,-3.798L63.611,-4.459L59.887,-6.624L56.89,-8.815L55.529,-10.319L53.328,-11.927L51.028,-13.414L47.802,-14.587L45,-14.9L42.19,-14.621L39.019,-13.733C39.019,-13.733 36.767,-12.71 36.698,-12.675C36.63,-12.641 34.578,-11.489 34.578,-11.489L32.672,-10.252L31.167,-9.149L29.864,-7.923L28.131,-6.971L25.894,-5.584L22.541,-4.181L20.505,-3.86L17.768,-3.783L13.958,-4.113L11.527,-4.645L9.144,-5.942L7,-7.75L4.864,-10.06L2.946,-12.811L1.045,-17.477L-1.17,-15.979L-0.696,-13.569L0.258,-10.624L1.688,-7.693L2.93,-5.642L4.188,-3.755L5.932,-2.438L7.999,-0.793L10.25,0.291L12.866,1.061L15.402,1.396L17.827,1.228L19.79,1.113L21.407,0.882L23.014,0.562L24.622,-0.083L26.578,-1.041L28.354,-2.052L29.418,-2.72L31.194,-3.949L32.523,-5L34.239,-6.633L35.437,-7.923L37.197,-9.022L38.685,-9.911L39.969,-10.511L41.25,-10.955L42.936,-11.307L45,-11.504L46.752,-11.233L49.122,-10.609L50.751,-9.283L52.267,-7.786L53.32,-6.577L54.658,-4.945L56.042,-3.296L57.43,-1.989L59.273,-0.751L61.607,0.183L63.066,0.391C63.066,0.391 65.486,0.967 65.625,0.993C65.764,1.019 69.037,1.652 69.037,1.652L71.634,1.465L73.943,0.884C73.943,0.884 76.462,0.362 76.431,0.159C76.402,-0.042 78.46,-1.036 78.46,-1.036L80.294,-2.098L82.351,-3.218L83.232,-4.388L84.824,-6.245L86.708,-8.444L87.99,-10.801L89.492,-13.374L91.5,-17.076L92.742,-19.992L93.23,-22.936L93.154,-25.778L92.712,-27.728L89.958,-29.607L88.273,-30.355C88.273,-30.355 86.103,-31.337 85.986,-31.337C85.873,-31.337 83.609,-31.656 83.609,-31.656L79.779,-32.253L77.904,-32.609L75.333,-32.751L70.283,-32.511L68.324,-32.348L66.067,-32.145L62.992,-30.775L60.968,-29.891L58.731,-28.883L56.486,-27.836L54.869,-26.969C54.869,-26.969 52.681,-26.121 52.574,-26.092C52.468,-26.061 50.3,-25.541 50.3,-25.541C50.3,-25.541 47.177,-25.07 47.092,-25.061C47.006,-25.053 44.589,-24.895 44.589,-24.895C44.589,-24.895 40.529,-24.845 40.452,-25.001C40.373,-25.159 38.008,-25.316 37.896,-25.336C37.784,-25.355 35.581,-25.996 35.494,-26.025C35.408,-26.054 30.682,-26.947 30.682,-26.947L27.994,-27.727L26.199,-28.564L22.116,-29.315L18.257,-30.055L15.36,-30.534L11.416,-31.067L6.886,-31.596L3.797,-31.517L0.88,-31.48L0,-31.099" style="fill:rgb(238,41,56);fill-rule:nonzero;"/>
                </g>
                <g transform="matrix(-0.883707,0.46804,0.46804,0.883707,132.64,27.1965)">
                    <path d="M-2.498,-2.006L0.214,-2.006L0.561,-0.654L-2.234,-0.66L-2.498,-2.006Z" style="fill:rgb(238,41,56);fill-rule:nonzero;"/>
                </g>
                <g transform="matrix(1,0,0,1,179.908,37.4169)">
                    <path d="M0,-20.057C0,-20.057 -0.404,-17.863 -7.679,-18.96C-14.955,-20.057 -20.065,-22.165 -22.143,-22.713C-24.223,-23.262 -35.366,-25.521 -38.05,-24.593C-38.05,-24.593 -48.01,-26.293 -48.212,-22.049C-48.414,-17.805 -47.289,-11.483 -46.104,-8.913C-44.92,-6.344 -41.63,0.41 -38.368,0.988C-38.368,0.988 -32.825,6.3 -24.655,3.009C-16.485,-0.283 -10.71,-4.786 -10.422,-5.219C-10.133,-5.653 -7.015,-8.799 -3.667,-7.499C-0.318,-6.201 0.325,-6.136 0.325,-6.136L-1.615,-6.376L-3.233,-6.201L-5.88,-5.853L-7.651,-5.334L-10.02,-3.748L-12.328,-2.072L-14.031,-0.628L-18.68,3.038L-21.076,4.279L-23.717,5.537L-26.9,6.306L-29.679,6.454L-32.104,6.33L-35.395,5.492L-37.589,4.828L-40.909,2.576L-42.786,0.959L-44.517,-1.154L-45.903,-3.891L-46.999,-7.354L-47.947,-10.055L-48.789,-14.746L-49.889,-19.249L-50.074,-22.915L-49.651,-24.422L-48.592,-25.376L-46.278,-26.207L-42.207,-26.511L-38.337,-26.339L-32.432,-25.661L-25.173,-24.329L-19.544,-23.031L-12.962,-21.356L-9.787,-20.547L-6.986,-20.201L-3.983,-19.912L-1.75,-20.057L-0.519,-20.086L0,-20.057Z" style="fill:rgb(202,32,41);fill-rule:nonzero;"/>
                </g>
                <g transform="matrix(1,0,0,1,206.547,43.9413)">
                    <path d="M0,-34.119C0,-34.119 13.4,-31.895 14.861,-29.174C16.322,-26.453 18.186,-25.245 16.121,-19.552C14.055,-13.859 9.773,-8.871 4.684,-5.698C-0.404,-2.524 0.553,-2.977 -4.133,-3.027C-8.816,-3.078 -14.66,-4.136 -17.18,-6.302C-19.698,-8.469 -21.774,-11.441 -23.18,-11.592C-24.586,-11.743 -20.854,-8.893 -20.854,-8.893L-17.897,-5.321L-14.619,-2.494L-11.875,-1.327L-8.951,-0.708L-5.798,-0.068L-3.779,0.142L-1.965,-0.07L1.879,-1.125L4.01,-2.053L7.154,-3.732L9.168,-5.333L11.355,-7.769L13.502,-11.34L15.502,-14.01L17.037,-17.487L18.371,-19.911L19.088,-22.036L19.75,-25.648L19.75,-28.016L18.59,-30.081L16.877,-30.901L15.443,-31.945L11.285,-33.255L8.637,-33.438L4.979,-34.014L2.973,-34.261L0.049,-34.119" style="fill:rgb(238,89,106);fill-rule:nonzero;"/>
                </g>
                <g transform="matrix(1,0,0,1,129.894,37.8493)">
                    <path d="M0,-22.07C0,-22.07 1.611,-5.02 7.2,0.664C12.789,6.347 18.661,6.252 23.114,5.874C27.565,5.495 34.291,1.043 36.375,-1.041C38.459,-3.125 42.248,-6.725 47.363,-6.82C52.479,-6.915 54.089,-5.02 58.352,0.284C62.614,5.589 66.499,4.848 70.855,6.024C75.214,7.2 82.696,3.506 85.821,0.759C88.948,-1.988 98.042,-15.344 96.147,-22.07C94.851,-26.674 80.769,-29.015 70.373,-27.632C68.577,-27.393 64.571,-25.496 60.53,-23.68C59.02,-23.002 57.983,-22.193 56.362,-21.692C50.748,-19.953 44.793,-20.104 41.263,-20.719C35.405,-21.741 30.399,-23.332 29.933,-23.587C28.891,-24.155 5.778,-29.27 1.232,-25.671C1.232,-25.671 -0.386,-25.153 0,-22.07Z" style="fill:none;stroke:rgb(48,50,61);stroke-width:1px;"/>
                </g>
                <g transform="matrix(1,0,0,1,132.783,33.5027)">
                    <path d="M0,-15.072C0,-15.072 0.219,-12.097 1.421,-8.252C2.463,-4.917 4.511,-0.899 6.962,0.985C8.941,2.505 9.976,3.752 11.949,4.326C15.24,5.283 18.404,5.209 21.042,5.054C25.263,4.806 30.129,0.748 32.112,-0.72C34.095,-2.189 39.69,-5.934 44.54,-5.978C49.388,-6.021 52.245,-4.502 56.268,-0.72C60.289,3.061 62.939,4.535 67.066,5.389C69.525,5.898 72.439,4.924 75.307,3.684C77.252,2.844 79.08,1.908 80.281,1.126C81.725,0.186 83.801,-1.837 85.965,-5.126C88.25,-8.601 89.859,-11.764 88.947,-14.219C88.535,-15.331 88.08,-16.947 85.43,-18.093C83.262,-19.029 80.285,-20.353 77.438,-20.613C73.527,-20.97 71.4,-19.781 67.635,-19.426C65.932,-19.264 60.957,-15.771 57.119,-14.504C55.686,-14.029 53.684,-13.289 52.146,-12.941C46.819,-11.734 41.681,-13.264 38.337,-13.717C32.788,-14.468 28.048,-15.619 27.609,-15.802C26.992,-16.057 18.211,-18.822 10.656,-19.334C6.124,-19.641 1.763,-19.147 0.142,-18.197C0.142,-18.197 -0.355,-17.26 0,-15.072Z" style="fill:none;stroke:rgb(48,50,61);stroke-width:1px;"/>
                </g>
            </g>
        </g>
    </g>
    <g transform="matrix(5.22517,0,0,5.05769,-324.238,-461.538)">
        <rect x="62.053" y="91.255" width="68.897" height="71.179" style="fill:none;"/>
    </g>
</svg>
