<?xml version="1.0" encoding="UTF-8" standalone="no"?>
<!DOCTYPE svg PUBLIC "-//W3C//DTD SVG 1.1//EN" "http://www.w3.org/Graphics/SVG/1.1/DTD/svg11.dtd">
<svg width="100%" height="100%" viewBox="0 0 360 360" version="1.1" xmlns="http://www.w3.org/2000/svg" xmlns:xlink="http://www.w3.org/1999/xlink" xml:space="preserve" xmlns:serif="http://www.serif.com/" style="fill-rule:evenodd;clip-rule:evenodd;stroke-miterlimit:10;">
    <g id="CK-WC-Hat1-360x360" transform="matrix(0.24,0,0,0.24,180,180)">
        <g transform="matrix(1,0,0,1,-750,-750)">
            <g id="Layer-2" serif:id="Layer 2" transform="matrix(4.16667,0,0,4.16667,0,0)">
                <g transform="matrix(1,0,0,1,122.464,116.371)">
                    <path d="M0,55.667C0,55.667 -0.959,52.182 -0.952,52.209C-0.945,52.237 -1.415,50.54 -1.435,50.52C-1.454,50.5 -1.609,49.155 -1.609,49.155L-2.481,45.082L-2.705,40.492L-2.181,35.485L-1.165,31.55L-0.525,29.126L-0.862,28.216L-1.237,25.711C-1.237,25.711 -1.309,23.947 -1.348,23.992C-1.386,24.038 -1.183,19.967 -1.202,20.016C-1.222,20.063 0,16.623 0,16.623C0,16.623 2.072,13.134 2.088,13.108C2.104,13.084 4.624,9.091 4.594,9.091C4.566,9.091 7.522,5.224 7.522,5.224L10.288,2.648L13.376,-0.786L16.516,-3.938L19.784,-7.31L23.406,-10.035L24.928,-10.749L26.099,-12.162L29.555,-15.089L33.539,-17.488L38.134,-19.12L43.24,-20.291L48.369,-20.643L51.713,-20.541L53.855,-21.782L58.198,-22.189L63.287,-22.305L68.579,-21.762L74.317,-20.726L79.592,-19.562L84.809,-17.64C84.809,-17.64 88.979,-15.405 89.034,-15.434C89.09,-15.462 92.793,-12.748 92.793,-12.748L93.607,-10.286L93.675,-9.569L94.489,-9.889C94.489,-9.889 95.236,-9.956 95.265,-9.946C95.294,-9.937 98.144,-8.657 98.144,-8.657L101.691,-6.767L104.23,-4.286L106.77,-1.097L108.758,1.53L111.162,4.777L112.955,8.459L114.395,11.468L115.804,14.619L117.309,18.046L118.566,20.8L120.012,24.096L120.7,26.539L120.749,28.342L120.69,30.273L121.417,31.259L121.95,33.993L122.213,37.037L122.095,39.625L121.941,44.219L121.592,47.863L121.281,50.442L120.833,54.608L120.167,58.798L119.023,62.94L117.808,64.79L116.097,67.034L115.516,68.84L113.431,72.475L112.323,73.832L109.775,76.701L109.3,77.427L108.997,77.972L105.791,77.205L101.856,76.14L95.614,74.676L91.193,73.727L83.914,72.156L76.8,70.875L70.799,69.906L65.297,68.799L57.316,67.396L51.752,66.083L45.181,64.381L38.308,62.917L31.59,61.173L24.301,59.534L17.438,58.284L11.099,57.334L3.767,56.271L0.551,55.984L0,55.667Z" style="fill:rgb(245,247,251);fill-rule:nonzero;"/>
                </g>
                <g transform="matrix(1,0,0,1,140.333,163.567)">
                    <path d="M0,-42.136C0,-42.136 -3.373,-40.119 -4.527,-36.398C-4.883,-35.251 -5.648,-34.567 -6.03,-33.96C-6.889,-32.598 -7.295,-32.237 -7.295,-32.237L-9.385,-28.791L-12.258,-23.636L-13.693,-20.119L-14.335,-19.207L-14.247,-17.591L-13.93,-14.484L-13.419,-12.823L-12.175,-8.559L-10.295,-4.073L-9.484,-2.383L-8.065,0.256L-7.506,0.256L-6.673,-0.375L-5.036,-1.501L-2.311,-2.795L1.388,-4.401L4.243,-5.309C4.243,-5.309 7.251,-5.991 7.194,-5.981C7.138,-5.97 10.632,-6.345 10.632,-6.345L11.293,-6.661L11.293,-8.264C11.293,-8.264 11.429,-14.821 11.37,-14.765C11.311,-14.71 12.716,-22.386 12.716,-22.386L14.561,-30.568L16.233,-34.571C16.233,-34.571 16.139,-35.571 15.984,-35.536C15.829,-35.503 13.468,-37.84 13.468,-37.84L9.753,-39.592L5.601,-41.096L2.273,-41.898L0.734,-42.392L0,-42.136Z" style="fill:rgb(61,61,69);fill-rule:nonzero;"/>
                </g>
                <g transform="matrix(1,0,0,1,175.237,179.391)">
                    <path d="M0,-3.482L0.418,-1.641L1.285,-0.054L1.642,2.023L1.642,3.371L1.87,4.386L9.896,5.864L19.94,7.161L38.867,10.809L40.026,9.818L41.504,8.34L42.452,6.889L43.661,3.751L39.692,-2.901L29.244,-13.583L28.861,-14.291L24.69,-11.987L20.079,-10.09L15.726,-8.28L11.975,-6.793L5.25,-4.892L2.495,-4.131L0,-3.482Z" style="fill:rgb(61,61,69);fill-rule:nonzero;"/>
                </g>
                <g transform="matrix(1,0,0,1,191.965,135.432)">
                    <path d="M0,-34.706L-4.754,-26.113L-8.627,-18.112L-8.059,-17.658L-6.15,-17.192L-3.536,-16.429L-1.097,-15.563L1.87,-13.296L5.772,-10.632L8.663,-8.783L12.69,-4.025L14.405,-1.568L15.459,0.019L18.651,-2.518L22.578,-4.663L26.216,-6.999L29.301,-8.618L32.975,-9.22L32.975,-11.413L31.347,-18.651L27.446,-24.633L22.759,-28.104L15.81,-32.123L12.549,-33.536L4.969,-34.607L2.707,-34.408L1.021,-34.629L0.1,-34.725" style="fill:rgb(61,61,69);fill-rule:nonzero;"/>
                </g>
                <g transform="matrix(1,0,0,1,241.728,182.904)">
                    <path d="M0,-36.868L-0.855,-28.905L-2.342,-21.962L-2.904,-17.803L-3.468,-12.366L-3.801,-10.014L-2.904,-6.413L-2.697,-3.019L-2.913,0L-0.726,-2.617L1.076,-7.988L2.786,-21.685L3.156,-30.868C3.156,-30.868 2.621,-35.288 2.545,-35.129C2.468,-34.969 1.821,-36.414 1.66,-36.564C1.5,-36.714 0,-36.868 0,-36.868" style="fill:rgb(61,61,69);fill-rule:nonzero;"/>
                </g>
                <g transform="matrix(1,0,0,1,189.626,175.488)">
                    <path d="M0,-81.587C0,-81.587 -27.548,-74.709 -39.444,-52.035C-40.243,-50.513 -44.306,-48.38 -45.102,-47.255C-50.673,-39.374 -54.458,-37.738 -55.169,-31.502C-55.262,-30.685 -51.469,-18.562 -51.511,-17.803C-51.789,-12.858 -51.046,-9.124 -49.933,-6.358L-47.776,0L-55.833,-1.165L-59.541,-1.745L-66.395,-2.546L-69.588,-13.777L-69.222,-22.756L-67.706,-30.23L-68.558,-36.208L-67.189,-42.069L-63.919,-48.254L-61.729,-51.197L-53.139,-60.42L-47.078,-66.503L-42.631,-69.848L-39.673,-72.525L-36.699,-74.838L-32.692,-76.936L-27.439,-78.688L-21.102,-79.763L-15.574,-80.002L-13.307,-80.899L-7.178,-81.587L0,-81.587Z" style="fill:rgb(216,216,216);fill-rule:nonzero;"/>
                </g>
                <g transform="matrix(1,0,0,1,159.668,175.488)">
                    <path d="M0,-49.635C0,-49.635 -3.03,-24.128 3.973,-18.735C10.978,-13.34 19.2,-7.525 28.809,-8.277L44.347,-11.596L44.145,-10.782L42.449,-9.447L33.873,-5.595L26.819,-2.889L20.954,-1.027L17.38,0L15.766,-0.021L13.23,-2.889L11.029,-4.386L6.931,-7.149L0.845,-11.299L-3.645,-15.257L-5.348,-17.044L-7.369,-18.582L-7.964,-19.705L-8.242,-26.302L-7.072,-32.989C-7.072,-32.989 -5.341,-40.441 -5.325,-40.506C-5.31,-40.572 -3.324,-46.646 -3.324,-46.646L-2.347,-47.646C-2.347,-47.646 -1.539,-48.668 -1.475,-48.732C-1.411,-48.795 0,-49.635 0,-49.635" style="fill:rgb(216,216,216);fill-rule:nonzero;"/>
                </g>
                <g transform="matrix(1,0,0,1,211.574,182.205)">
                    <path d="M0,-49.32C0,-49.32 3.01,-38.582 3.068,-32.645C3.129,-26.707 1.466,-13.775 3.068,-10.088C4.673,-6.4 8.835,-0.875 7.883,-0.274C7.449,0 5.45,-2.529 3.58,-5.176C1.333,-8.362 -1.754,-11.198 -1.754,-11.198L-7.762,-17.5L-7.021,-18.382L-5.745,-24.484L-5.639,-30.388L-4.159,-38.002L-4.827,-45.587L-3.746,-47.272L-1.149,-48.66L0,-49.32Z" style="fill:rgb(216,216,216);fill-rule:nonzero;"/>
                </g>
                <g transform="matrix(1,0,0,1,182.218,145.904)">
                    <path d="M0,-26.182C0,-26.182 17.412,-18.789 21.797,-8.654C21.797,-8.654 21.737,-2.929 20.913,-1.464C20.091,0 11.522,-16.653 3.292,-20.429C-4.939,-24.206 -1.81,-23.458 -1.81,-24.573C-1.81,-25.688 0,-26.182 0,-26.182" style="fill:rgb(250,251,252);fill-rule:nonzero;"/>
                </g>
                <g transform="matrix(1,0,0,1,150.006,161.344)">
                    <path d="M0,-37.611L-4.36,-38.953L-8.401,-40.013L-9.553,-40.09L-10.465,-39.614L-12.272,-37.611L-15.313,-32.832L-18.072,-28.459L-20.751,-23.739L-22.419,-20.215L-23.366,-17.896L-24.008,-16.258L-23.091,-10.6L-20.45,-3.002L-17.813,1.385L-17.382,2.479L-15.084,0.916L-11.433,-0.791C-11.433,-0.791 -13.293,-14.259 -8.723,-21.545C-4.153,-28.831 0,-37.611 0,-37.611" style="fill:rgb(45,46,61);fill-rule:nonzero;"/>
                </g>
                <g transform="matrix(1,0,0,1,211.574,115.712)">
                    <path d="M0,17.173C0,17.173 -11.397,-2.031 -26.064,-2.878L-27.984,1.183L-28.222,1.963L-26.441,2.362L-22.69,3.258L-18.267,5.749L-13.013,9.615L-9.172,12.969C-9.172,12.969 -6.044,16.235 -6.077,16.366C-6.11,16.497 -4.438,18.983 -4.438,18.983L-3.752,20.051L-2.079,17.808L-0.735,17.173L0,17.173Z" style="fill:rgb(45,46,61);fill-rule:nonzero;"/>
                </g>
                <g transform="matrix(1,0,0,1,176.503,189.897)">
                    <path d="M0,-11.561C0,-11.561 39.592,-4.787 41.583,-6.807L42.555,-6.766L42.102,-5.471L41.366,-4.084L40.399,-2.414L38.413,-0.393L37.727,0L26.63,-1.856L20.526,-2.989L11.778,-4.295L5.482,-5.221C5.482,-5.223 0.184,-6.493 0.184,-6.493L-0.199,-7.444L-0.592,-9.524L-0.592,-10.946L0,-11.561Z" style="fill:rgb(45,46,61);fill-rule:nonzero;"/>
                </g>
                <g transform="matrix(1,0,0,1,192.343,123.681)">
                    <path d="M0,-22.666C0,-22.666 11.053,-22.173 12.308,-21.414C13.564,-20.653 21.606,-16.919 21.606,-16.919L23.904,-15.374L29.979,-9.175L33.141,2.172L32.236,2.591C32.236,2.591 14.782,-25.257 -1.313,-20.501L-0.942,-21.932L0,-22.666Z" style="fill:rgb(90,91,100);fill-rule:nonzero;"/>
                </g>
                <g transform="matrix(1,0,0,1,241.728,183.206)">
                    <path d="M0,-37.17L-0.619,-29.545C-0.619,-29.545 1.127,-14.026 -3.116,-8.29C-3.116,-8.29 -2.881,-2.436 -2.957,-2.436C-3.035,-2.436 -3.113,0 -3.113,0L-0.562,-3.407L0.874,-7.361C0.874,-7.361 1.633,-11.693 1.649,-11.808C1.664,-11.923 2.948,-20.438 2.948,-20.438L3.156,-28.771C3.156,-28.771 2.798,-34.371 2.731,-34.442C2.665,-34.512 2.043,-36.258 1.852,-36.562C1.66,-36.866 0,-37.17 0,-37.17" style="fill:rgb(90,91,100);fill-rule:nonzero;"/>
                </g>
                <g transform="matrix(1,0,0,1,154.287,157.004)">
                    <path d="M0,-29.622C-0.229,-29.164 -7.002,-10.035 -6.249,-0.25L-6.249,0.53L-2.66,-0.098L-2.861,-2.143L-1.748,-13.018L-0.424,-19.958L1.444,-26.284L2.28,-28.007L1.62,-29.277L0.837,-30.152L0,-29.622Z" style="fill:rgb(90,91,100);fill-rule:nonzero;"/>
                </g>
                <g transform="matrix(1,0,0,1,123.753,146.253)">
                    <path d="M0,26.326C-2.893,17.24 -2.986,8.813 -1.158,-0.47C-1.029,-1.129 -2.964,-0.797 -3.082,-0.198C-4.943,9.253 -4.888,17.558 -1.932,26.844C-1.737,27.455 0.185,26.907 0,26.326" style="fill:rgb(48,50,61);fill-rule:nonzero;"/>
                </g>
                <g transform="matrix(1,0,0,1,125.577,145.88)">
                    <path d="M0,-3.141C-1.697,-2.673 -3.207,-1.741 -4.353,-0.404C-4.665,-0.04 -4.091,0.159 -3.829,0.166C-3.357,0.177 -2.864,-0.001 -2.554,-0.362C-1.819,-1.22 -0.83,-1.872 0.26,-2.173C0.533,-2.248 1.204,-2.511 1.096,-2.916C0.988,-3.318 0.274,-3.217 0,-3.141" style="fill:rgb(48,50,61);fill-rule:nonzero;"/>
                </g>
                <g transform="matrix(1,0,0,1,125.233,164.144)">
                    <path d="M0,-21.129C-1.109,-17.952 0.347,-13.641 1.331,-10.629C2.438,-7.241 3.893,-2.185 6.652,0.258C7.338,0.866 8.991,-0.137 8.129,-0.9C5.914,-2.861 4.737,-7.119 3.759,-9.758C2.643,-12.77 0.735,-17.648 1.858,-20.865C2.237,-21.951 0.302,-21.995 0,-21.129" style="fill:rgb(48,50,61);fill-rule:nonzero;"/>
                </g>
                <g transform="matrix(1,0,0,1,131.442,174)">
                    <path d="M0,-9.706C-1.03,-6.49 -0.065,-2.901 -0.012,0.392C-0.007,0.738 1.929,0.439 1.919,-0.125C1.868,-3.344 0.902,-6.9 1.907,-10.039C2.037,-10.444 0.16,-10.206 0,-9.706" style="fill:rgb(48,50,61);fill-rule:nonzero;"/>
                </g>
                <g transform="matrix(1,0,0,1,133.725,157.24)">
                    <path d="M0,6.476C1.392,4.951 3.96,4.033 5.834,3.157C9.474,1.457 13.317,0.452 17.343,0.33C17.706,0.32 19.521,-0.42 18.614,-0.392C14.696,-0.274 10.954,0.543 7.281,1.903C4.28,3.014 0.325,4.404 -1.898,6.841C-1.949,6.896 -0.38,6.893 0,6.476" style="fill:rgb(48,50,61);fill-rule:nonzero;"/>
                </g>
                <g transform="matrix(1,0,0,1,155.255,157.182)">
                    <path d="M0,-27.513C-3.616,-19.357 -5.247,-8.858 -4.441,-0.018C-4.367,0.805 -2.429,0.348 -2.51,-0.535C-3.284,-9.035 -1.637,-19.508 1.835,-27.338C2.269,-28.318 0.323,-28.241 0,-27.513" style="fill:rgb(48,50,61);fill-rule:nonzero;"/>
                </g>
                <g transform="matrix(1,0,0,1,127.048,121.454)">
                    <path d="M0,22.849C3.411,14.574 8.355,7.223 13.384,-0.131C13.85,-0.812 11.923,-0.586 11.601,-0.115C6.515,7.322 1.524,14.758 -1.924,23.121C-2.146,23.661 -0.242,23.437 0,22.849" style="fill:rgb(48,50,61);fill-rule:nonzero;"/>
                </g>
                <g transform="matrix(1,0,0,1,140.31,127.308)">
                    <path d="M0,-5.317C1.327,-6.085 6.111,-3.955 7.378,-3.567C10.51,-2.61 13.205,-1.2 15.183,1.476C15.631,2.084 17.491,1.389 16.965,0.678C14.368,-2.836 10.516,-4.174 6.465,-5.345C4.054,-6.042 1.135,-7.401 -1.235,-6.029C-2.367,-5.374 -0.704,-4.909 0,-5.317" style="fill:rgb(48,50,61);fill-rule:nonzero;"/>
                </g>
                <g transform="matrix(1,0,0,1,146.111,121.248)">
                    <path d="M0,-15.263C-2.653,-10.339 -5.259,-5.286 -6.613,0.168C-6.731,0.643 -4.83,0.353 -4.703,-0.156C-3.35,-5.61 -0.743,-10.663 1.91,-15.586C2.082,-15.906 0.272,-15.767 0,-15.263" style="fill:rgb(48,50,61);fill-rule:nonzero;"/>
                </g>
                <g transform="matrix(1,0,0,1,146.349,142.983)">
                    <path d="M0,-37.806C-7.392,-33.134 -13.082,-25.675 -19.031,-19.377C-23.457,-14.692 -27.14,-6.837 -25.847,-0.413C-25.661,0.515 -23.726,0.013 -23.916,-0.931C-25.283,-7.729 -20.761,-15.219 -16.193,-20.054C-10.722,-25.846 -5.49,-32.594 1.293,-36.881C2.397,-37.579 0.814,-38.321 0,-37.806" style="fill:rgb(48,50,61);fill-rule:nonzero;"/>
                </g>
                <g transform="matrix(1,0,0,1,183.952,129.999)">
                    <path d="M0,-12.741C-5.926,-13.447 -11.747,-11.325 -17.009,-8.759C-20.786,-6.917 -26.902,-4.446 -28.724,-0.214C-29.12,0.706 -27.186,0.524 -26.91,-0.116C-25.521,-3.345 -21.795,-4.719 -18.885,-6.298C-13.267,-9.346 -7.357,-12.339 -0.725,-11.549C0.083,-11.452 1.304,-12.586 0,-12.741" style="fill:rgb(48,50,61);fill-rule:nonzero;"/>
                </g>
                <g transform="matrix(1,0,0,1,184.506,100.954)">
                    <path d="M0,16.139C2.27,10.543 5.335,5.359 8.249,0.085C8.752,-0.825 6.792,-0.754 6.417,-0.076C3.504,5.198 0.438,10.382 -1.832,15.978C-2.231,16.964 -0.293,16.861 0,16.139" style="fill:rgb(48,50,61);fill-rule:nonzero;"/>
                </g>
                <g transform="matrix(1,0,0,1,148.77,93.3932)">
                    <path d="M0,11.579C10.021,0.2 29.517,0.657 41.934,7.679C42.444,7.968 44.07,7.179 43.746,6.996C30.359,-0.576 9.05,-0.602 -1.762,11.676C-2.207,12.181 -0.329,11.952 0,11.579" style="fill:rgb(48,50,61);fill-rule:nonzero;"/>
                </g>
                <g transform="matrix(1,0,0,1,191.206,107.682)">
                    <path d="M0,-6.276C8.674,-6.509 16.591,-4.711 23.514,0.666C23.916,0.979 25.571,0.207 25.338,0.026C18.235,-5.491 10.133,-7.255 1.266,-7.017C0.894,-7.007 -0.917,-6.252 0,-6.276" style="fill:rgb(48,50,61);fill-rule:nonzero;"/>
                </g>
                <g transform="matrix(1,0,0,1,174.183,104.085)">
                    <path d="M0,-8.109C7.757,-10.682 16.058,-9.447 23.883,-7.726C27.382,-6.957 43.139,-2.467 40.483,3.329C40.208,3.929 42.127,3.719 42.415,3.091C45.127,-2.827 31.79,-6.783 28.175,-7.948C19.37,-10.789 8.627,-12.038 -0.263,-9.088C-1.389,-8.715 -1.151,-7.727 0,-8.109" style="fill:rgb(48,50,61);fill-rule:nonzero;"/>
                </g>
                <g transform="matrix(1,0,0,1,214.425,125.951)">
                    <path d="M0,-18.094C0.683,-17.296 1.653,-16.863 2.511,-16.27C4.305,-15.028 5.893,-12.892 6.997,-11.067C9.133,-7.537 9.162,-3.258 10.274,0.579C10.448,1.18 12.376,0.649 12.206,0.062C11.059,-3.9 10.697,-7.774 8.929,-11.584C8.255,-13.036 7.054,-14.276 5.979,-15.423C4.753,-16.73 2.924,-17.506 1.803,-18.817C1.412,-19.274 -0.433,-18.6 0,-18.094" style="fill:rgb(48,50,61);fill-rule:nonzero;"/>
                </g>
                <g transform="matrix(1,0,0,1,182.93,135.227)">
                    <path d="M0,-16.86C9.911,-15.329 18.253,-7.456 23.597,0.6C23.949,1.132 25.825,0.501 25.392,-0.152C19.918,-8.405 11.33,-16.333 1.186,-17.899C0.583,-17.992 -1.092,-17.028 0,-16.86" style="fill:rgb(48,50,61);fill-rule:nonzero;"/>
                </g>
                <g transform="matrix(1,0,0,1,244.646,103.459)">
                    <path d="M0,41.785C-0.264,36.759 -3.556,31.438 -5.582,26.893C-8.185,21.056 -11.214,15.87 -15.217,10.874C-17.988,7.415 -24.825,-0.815 -29.569,3.923C-29.948,4.301 -28.143,4.061 -27.829,3.748C-25.809,1.731 -18.921,9.175 -18.179,10.096C-15.695,13.178 -13.341,16.298 -11.278,19.68C-9.184,23.115 -7.701,26.952 -6.092,30.629C-4.482,34.308 -2.145,38.244 -1.932,42.303C-1.916,42.6 0.026,42.286 0,41.785" style="fill:rgb(48,50,61);fill-rule:nonzero;"/>
                </g>
                <g transform="matrix(1,0,0,1,225.023,146.251)">
                    <path d="M0,-19.321C1.153,-17.465 2.846,-16.221 4.4,-14.72C6.106,-13.074 7.439,-11.041 9.13,-9.356C10.738,-7.752 13.119,-5.659 14.071,-3.591C14.827,-1.949 15.729,-0.507 16.875,0.899C17.42,1.567 19.26,0.809 18.646,0.056C17.394,-1.48 16.703,-3.075 15.703,-4.748C14.521,-6.726 12.481,-8.525 10.9,-10.199C9.254,-11.943 7.757,-13.765 6.172,-15.563C4.749,-17.176 2.931,-18.297 1.771,-20.164C1.321,-20.888 -0.525,-20.167 0,-19.321" style="fill:rgb(48,50,61);fill-rule:nonzero;"/>
                </g>
                <g transform="matrix(1,0,0,1,242.138,145.727)">
                    <path d="M0,1.225C0.626,0.999 1.274,0.843 1.9,0.617C2.062,0.559 2.752,0.219 2.446,-0.045C2.137,-0.313 1.511,-0.116 1.186,0.001C0.56,0.226 -0.089,0.383 -0.715,0.609C-0.876,0.667 -1.566,1.007 -1.261,1.27C-0.951,1.538 -0.325,1.342 0,1.225" style="fill:rgb(48,50,61);fill-rule:nonzero;"/>
                </g>
                <g transform="matrix(1,0,0,1,242.791,181.608)">
                    <path d="M0,-35.314C1.525,-28.628 1.015,-22.119 0.281,-15.34C-0.289,-10.065 -0.514,-3.736 -4.035,0.521C-4.569,1.168 -2.627,1.015 -2.24,0.547C1.4,-3.856 1.568,-10.155 2.211,-15.591C3.024,-22.474 3.477,-29.064 1.932,-35.832C1.783,-36.482 -0.153,-35.987 0,-35.314" style="fill:rgb(48,50,61);fill-rule:nonzero;"/>
                </g>
                <g transform="matrix(1,0,0,1,236.862,182.643)">
                    <path d="M0,-8.452C0.283,-6.965 0.831,-5.555 0.987,-4.043C1.146,-2.509 0.702,-1.025 0.987,0.519C1.078,1.011 3.021,0.556 2.919,0.001C2.638,-1.523 2.929,-3.025 2.919,-4.561C2.91,-6.048 2.207,-7.52 1.932,-8.97C1.838,-9.463 -0.105,-9.004 0,-8.452" style="fill:rgb(48,50,61);fill-rule:nonzero;"/>
                </g>
                <g transform="matrix(1,0,0,1,240.517,173.115)">
                    <path d="M0,-26.022C-0.421,-21.309 -0.903,-16.977 -1.977,-12.339C-2.973,-8.038 -2.609,-3.784 -4.179,0.431C-4.37,0.943 -2.471,0.707 -2.261,0.141C-0.887,-3.548 -0.714,-7.243 -0.295,-11.122C-0.041,-13.478 0.695,-15.802 1.236,-18.103C1.897,-20.918 1.662,-23.44 1.918,-26.312C1.977,-26.965 0.048,-26.567 0,-26.022" style="fill:rgb(48,50,61);fill-rule:nonzero;"/>
                </g>
                <g transform="matrix(1,0,0,1,220.111,171.749)">
                    <path d="M0,11.757C3.287,10.542 6.805,9.497 9.619,7.325C11.369,5.974 12.862,4.288 14.695,3.055C15.995,2.181 17.109,1.466 18.157,0.293C18.699,-0.315 16.762,-0.17 16.364,0.275C14.622,2.228 11.91,3.724 9.949,5.526C6.871,8.354 3.076,9.593 -0.752,11.007C-2.023,11.477 -0.854,12.072 0,11.757" style="fill:rgb(48,50,61);fill-rule:nonzero;"/>
                </g>
                <g transform="matrix(1,0,0,1,217.935,189.618)">
                    <path d="M0,-5.905C-0.401,-4.633 -1.043,-3.479 -1.743,-2.349C-2.362,-1.352 -3.43,-0.627 -4.188,0.268C-4.726,0.901 -2.785,0.748 -2.396,0.289C-1.527,-0.733 -0.448,-1.525 0.266,-2.676C0.943,-3.769 1.541,-4.929 1.93,-6.157C2.135,-6.806 0.2,-6.538 0,-5.905" style="fill:rgb(48,50,61);fill-rule:nonzero;"/>
                </g>
                <g transform="matrix(1,0,0,1,237.226,194.049)">
                    <path d="M0,-10.783C-0.357,-6.429 -4.162,-3.448 -6.678,-0.219C-7.443,0.765 -5.625,1.176 -5.041,0.426C-2.328,-3.057 1.579,-6.206 1.965,-10.902C2.052,-11.959 0.077,-11.725 0,-10.783" style="fill:rgb(48,50,61);fill-rule:nonzero;"/>
                </g>
                <g transform="matrix(1,0,0,1,202.322,181.967)">
                    <path d="M0,-16.044C0.639,-14.866 1.551,-14.085 2.562,-13.236C4.553,-11.566 6.303,-9.555 8.041,-7.63C9.383,-6.144 10.67,-4.606 11.918,-3.042C13.124,-1.529 13.778,0.262 14.953,1.759C15.959,3.039 19.656,1.58 18.506,0.113C17.578,-1.069 17.071,-2.524 16.18,-3.756C14.778,-5.694 13.163,-7.476 11.593,-9.276C10.168,-10.909 8.638,-12.45 7.112,-13.987C5.881,-15.227 4.404,-16.119 3.553,-17.69C2.797,-19.083 -0.916,-17.734 0,-16.044" style="fill:rgb(48,50,61);fill-rule:nonzero;"/>
                </g>
                <g transform="matrix(1,0,0,1,177.052,163.86)">
                    <path d="M0,11.901C6.048,10.075 11.914,7.943 17.923,6.042C20.998,5.068 26.135,3.25 27.968,0.522C28.553,-0.349 26.58,-0.357 26.126,0.318C25.323,1.513 21.541,3.133 20.66,3.645C18.365,4.978 15.111,5.49 12.582,6.358C8.265,7.839 4.035,9.291 -0.345,10.613C-1.518,10.967 -1.184,12.258 0,11.901" style="fill:rgb(48,50,61);fill-rule:nonzero;"/>
                </g>
                <g transform="matrix(1,0,0,1,174.074,182.519)">
                    <path d="M0,-6.351C0.075,-5.295 0.536,-4.347 0.982,-3.404C1.576,-2.148 1.818,-1.025 1.673,0.369C1.595,1.125 3.537,0.752 3.603,0.118C3.727,-1.074 3.637,-2.128 3.224,-3.261C2.777,-4.485 2.027,-5.529 1.932,-6.869C1.889,-7.476 -0.051,-7.074 0,-6.351" style="fill:rgb(48,50,61);fill-rule:nonzero;"/>
                </g>
                <g transform="matrix(1,0,0,1,205.251,124.056)">
                    <path d="M0,40.339C1.649,35.855 1.522,31.894 1.664,27.136C1.749,24.241 2.201,21.344 2.519,18.467C2.635,17.407 2.6,11.496 3.382,10.901C6.196,8.763 15.922,0.538 19.326,3.001C19.795,3.34 21.497,2.574 21.139,2.315C16.889,-0.76 8.002,6.456 4.8,8.662C0.896,11.352 1.284,11.686 0.786,17.025C0.455,20.572 -0.068,24.095 -0.269,27.654C-0.523,32.211 -0.307,36.283 -1.912,40.651C-2.077,41.099 -0.195,40.872 0,40.339" style="fill:rgb(48,50,61);fill-rule:nonzero;"/>
                </g>
                <g transform="matrix(1,0,0,1,150.719,175.315)">
                    <path d="M0,-18.223C1.167,-16.696 3.278,-15.513 4.716,-14.157C6.646,-12.338 8.72,-10.679 10.816,-9.058C12.902,-7.446 15.204,-6.218 17.479,-4.901C20.032,-3.425 21.891,-1.272 24.029,0.704C24.428,1.072 26.19,0.346 25.844,0.026C22.038,-3.492 18.287,-5.944 13.946,-8.755C11.727,-10.192 9.697,-12.04 7.707,-13.77C5.9,-15.34 3.23,-17.048 1.815,-18.901C1.514,-19.295 -0.332,-18.657 0,-18.223" style="fill:rgb(48,50,61);fill-rule:nonzero;"/>
                </g>
                <g transform="matrix(1,0,0,1,175.547,174.432)">
                    <path d="M0,1.424C0.877,1.289 1.704,0.981 2.522,0.646C2.613,0.609 3.394,0.289 3.094,0.084C2.788,-0.126 2.149,0.063 1.848,0.186C1.362,0.385 0.876,0.608 0.354,0.689C0.03,0.738 -0.614,0.885 -0.777,1.223C-0.933,1.55 -0.098,1.439 0,1.424" style="fill:rgb(48,50,61);fill-rule:nonzero;"/>
                </g>
                <g transform="matrix(1,0,0,1,182.739,117.543)">
                    <path d="M0,-0.696C-0.152,-0.402 -0.261,-0.085 -0.358,0.231C-0.498,0.685 0.236,0.775 0.503,0.748C0.939,0.703 1.446,0.484 1.585,0.034C1.649,-0.176 1.721,-0.375 1.822,-0.571C2.288,-1.471 0.337,-1.346 0,-0.696" style="fill:rgb(48,50,61);fill-rule:nonzero;"/>
                </g>
                <g transform="matrix(1,0,0,1,183.041,117.67)">
                    <path d="M0,-0.787C-0.162,-0.51 -0.251,-0.247 -0.311,0.067C-0.438,0.745 1.501,0.409 1.615,-0.199C1.652,-0.398 1.682,-0.615 1.787,-0.793C2.222,-1.532 0.294,-1.286 0,-0.787" style="fill:rgb(48,50,61);fill-rule:nonzero;"/>
                </g>
                <g transform="matrix(1,0,0,1,183.12,117.913)">
                    <path d="M0,-1.257C-0.149,-0.932 -0.226,-0.586 -0.237,-0.229C-0.272,0.813 1.693,0.551 1.724,-0.361C1.731,-0.595 1.757,-0.794 1.855,-1.007C2.327,-2.031 0.375,-2.07 0,-1.257" style="fill:rgb(48,50,61);fill-rule:nonzero;"/>
                </g>
                <g transform="matrix(1,0,0,1,183.119,117.779)">
                    <path d="M0,-0.973C-0.128,-0.681 -0.179,-0.394 -0.229,-0.081C-0.375,0.812 1.591,0.516 1.718,-0.267C1.747,-0.449 1.753,-0.653 1.828,-0.824C2.25,-1.785 0.307,-1.672 0,-0.973" style="fill:rgb(48,50,61);fill-rule:nonzero;"/>
                </g>
                <g transform="matrix(1,0,0,1,183.128,117.985)">
                    <path d="M0,-0.987C-0.113,-0.69 -0.173,-0.397 -0.185,-0.079C-0.213,0.668 1.719,0.252 1.741,-0.341C1.753,-0.659 1.813,-0.952 1.926,-1.25C2.08,-1.655 1.289,-1.641 1.104,-1.616C0.722,-1.564 0.153,-1.391 0,-0.987" style="fill:rgb(48,50,61);fill-rule:nonzero;"/>
                </g>
                <g transform="matrix(1,0,0,1,182.379,117.463)">
                    <path d="M0,-0.607C-0.167,-0.325 -0.297,-0.028 -0.426,0.273C-0.588,0.648 0.233,0.593 0.377,0.571C0.74,0.516 1.329,0.361 1.492,-0.019C1.622,-0.32 1.751,-0.617 1.918,-0.899C2.129,-1.255 1.22,-1.213 1.115,-1.197C0.708,-1.135 0.221,-0.98 0,-0.607" style="fill:rgb(48,50,61);fill-rule:nonzero;"/>
                </g>
                <g transform="matrix(1,0,0,1,155.973,127.596)">
                    <path d="M0,1.273C0.839,1.273 2.011,0 0.704,0C-0.135,0 -1.307,1.273 0,1.273" style="fill:rgb(48,50,61);fill-rule:nonzero;"/>
                </g>
                <g transform="matrix(1,0,0,1,155.352,128.126)">
                    <path d="M0,0.396L0.053,0.518C0.245,0.96 2.12,0.312 1.984,0L1.932,-0.122C1.74,-0.564 -0.135,0.084 0,0.396" style="fill:rgb(48,50,61);fill-rule:nonzero;"/>
                </g>
                <g transform="matrix(1,0,0,1,155.359,128.254)">
                    <path d="M0,0.314C0.02,0.382 0.041,0.45 0.061,0.518C0.279,1.255 2.208,0.725 1.992,0C1.972,-0.068 1.952,-0.136 1.932,-0.204C1.712,-0.941 -0.216,-0.41 0,0.314" style="fill:rgb(48,50,61);fill-rule:nonzero;"/>
                </g>
                <g transform="matrix(1,0,0,1,122.445,145.16)">
                    <path d="M0,1.276C0.146,0.848 0.274,0.4 0.61,0.078C0.898,-0.196 0.843,-0.51 0.431,-0.591C-0.006,-0.676 -0.606,-0.537 -0.935,-0.224C-1.455,0.271 -1.702,0.855 -1.931,1.524C-2.074,1.943 -1.31,1.952 -1.1,1.925C-0.711,1.875 -0.143,1.692 0,1.276" style="fill:rgb(48,50,61);fill-rule:nonzero;"/>
                </g>
                <g transform="matrix(0.204316,0.978905,0.978905,-0.204316,123.336,143.424)">
                    <path d="M-1.46,-1.553C-1.46,-1.553 0.793,-2.277 1.961,-1.553" style="fill:none;stroke:rgb(48,50,61);stroke-width:2px;"/>
                </g>
                <g transform="matrix(1,0,0,1,217.657,183.698)">
                    <path d="M0,-0.508C0.033,-0.152 0.039,0.203 0.039,0.56C0.039,0.994 1.972,0.679 1.971,0.043C1.971,-0.315 1.965,-0.669 1.932,-1.026C1.888,-1.502 -0.057,-1.116 0,-0.508" style="fill:rgb(48,50,61);fill-rule:nonzero;"/>
                </g>
                <g transform="matrix(1,0,0,1,217.419,183.787)">
                    <path d="M0,-0.717C0.039,-0.295 0.073,0.126 0.078,0.551C0.085,1.109 2.019,0.75 2.01,0.033C2.005,-0.392 1.971,-0.813 1.932,-1.235C1.878,-1.826 -0.064,-1.417 0,-0.717" style="fill:rgb(48,50,61);fill-rule:nonzero;"/>
                </g>
                <g transform="matrix(1,0,0,1,217.537,183.684)">
                    <path d="M0,-0.891C0.122,-0.419 0.28,0.049 0.124,0.53C-0.07,1.127 1.852,0.862 2.048,0.26C2.23,-0.301 2.075,-0.858 1.932,-1.409C1.773,-2.018 -0.159,-1.505 0,-0.891" style="fill:rgb(48,50,61);fill-rule:nonzero;"/>
                </g>
                <g transform="matrix(1,0,0,1,218.125,183.623)">
                    <path d="M0,-0.516C-0.001,-0.245 -0.017,0.011 -0.079,0.277C-0.276,1.109 1.687,0.831 1.864,0.08C1.928,-0.186 1.942,-0.441 1.943,-0.713C1.947,-1.625 0.003,-1.261 0,-0.516" style="fill:rgb(48,50,61);fill-rule:nonzero;"/>
                </g>
                <g transform="matrix(1,0,0,1,218.251,183.585)">
                    <path d="M0,-0.37C-0.041,-0.084 -0.093,0.192 -0.25,0.439C-0.493,0.821 -0.046,0.984 0.269,0.988C0.682,0.994 1.305,0.844 1.545,0.466C1.76,0.128 1.874,-0.225 1.93,-0.62C2.035,-1.364 0.091,-1.011 0,-0.37" style="fill:rgb(48,50,61);fill-rule:nonzero;"/>
                </g>
                <g transform="matrix(1,0,0,1,218.74,182.484)">
                    <path d="M0,0.787C0.188,0.827 0.372,0.847 0.564,0.849C1.027,0.853 1.536,0.735 1.93,0.482C2.231,0.288 2.191,0.05 1.813,0.046C1.735,0.052 1.659,0.046 1.584,0.028C1.147,-0.066 0.625,0.084 0.233,0.271C0.082,0.345 -0.439,0.692 0,0.787" style="fill:rgb(48,50,61);fill-rule:nonzero;"/>
                </g>
                <g transform="matrix(1,0,0,1,218.504,182.432)">
                    <path d="M0,0.723C0.306,0.771 0.61,0.816 0.92,0.826C1.381,0.839 1.897,0.713 2.286,0.459C2.591,0.26 2.544,0.023 2.166,0.011C1.969,0.005 1.776,-0.012 1.582,-0.044C1.128,-0.116 0.641,-0.003 0.23,0.197C0.096,0.262 -0.456,0.651 0,0.723" style="fill:rgb(48,50,61);fill-rule:nonzero;"/>
                </g>
                <g transform="matrix(1,0,0,1,219.104,182.11)">
                    <path d="M0,1.309C0.32,1.349 0.639,1.347 0.959,1.308C1.361,1.258 1.962,1.042 2.035,0.572C2.108,0.11 1.501,-0.026 1.164,0.016C0.989,0.038 0.872,0.037 0.697,0.015C0.255,-0.04 -0.345,0.173 -0.566,0.583C-0.797,1.01 -0.367,1.264 0,1.309" style="fill:rgb(48,50,61);fill-rule:nonzero;"/>
                </g>
                <g transform="matrix(1,0,0,1,219.095,182.231)">
                    <path d="M0,1.231C0.304,1.266 0.605,1.271 0.911,1.271C1.361,1.272 1.931,1.14 2.179,0.718C2.409,0.327 1.984,0.049 1.628,0.048C1.323,0.048 1.021,0.043 0.717,0.008C0.283,-0.041 -0.321,0.171 -0.551,0.562C-0.796,0.979 -0.341,1.192 0,1.231" style="fill:rgb(48,50,61);fill-rule:nonzero;"/>
                </g>
                <g transform="matrix(1,0,0,1,236.958,173.135)">
                    <path d="M0,0.476C0.11,0.371 0.223,0.248 0.356,0.173C0.52,0.08 1.022,-0.252 0.582,-0.372C0.173,-0.484 -0.411,-0.34 -0.771,-0.137C-1.136,0.069 -1.455,0.299 -1.758,0.589C-2.084,0.902 -1.474,0.96 -1.29,0.949C-0.856,0.921 -0.323,0.786 0,0.476" style="fill:rgb(48,50,61);fill-rule:nonzero;"/>
                </g>
                <g transform="matrix(1,0,0,1,237.63,183.671)">
                    <path d="M0,-1.67C-0.094,-1.179 -0.258,-0.704 -0.316,-0.207C-0.439,0.841 1.537,0.613 1.648,-0.326C1.707,-0.824 1.871,-1.298 1.965,-1.789C2.06,-2.284 1.431,-2.511 1.055,-2.487C0.572,-2.458 0.095,-2.165 0,-1.67" style="fill:rgb(48,50,61);fill-rule:nonzero;"/>
                </g>
                <g transform="matrix(1,0,0,1,147.314,105.973)">
                    <path d="M0,-1.044C-0.268,-0.9 -0.452,-0.696 -0.682,-0.505C-0.903,-0.322 -1.138,-0.181 -1.269,0.085C-1.407,0.368 -0.59,0.231 -0.51,0.216C-0.217,0.16 0.477,0.035 0.631,-0.279C0.708,-0.438 0.819,-0.521 0.958,-0.625C1.131,-0.753 1.273,-0.951 1.462,-1.052C1.786,-1.225 1.718,-1.412 1.366,-1.41C0.9,-1.407 0.409,-1.262 0,-1.044" style="fill:rgb(48,50,61);fill-rule:nonzero;"/>
                </g>
                <g transform="matrix(1,0,0,1,146.955,105.782)">
                    <path d="M0,-0.615C-0.212,-0.367 -0.42,-0.117 -0.639,0.123C-0.934,0.446 -0.383,0.485 -0.175,0.47C0.231,0.443 0.826,0.319 1.116,0.001C1.335,-0.24 1.543,-0.49 1.755,-0.737C2.035,-1.064 1.511,-1.1 1.291,-1.084C0.896,-1.057 0.275,-0.936 0,-0.615" style="fill:rgb(48,50,61);fill-rule:nonzero;"/>
                </g>
                <g transform="matrix(1,0,0,1,217.903,108.101)">
                    <path d="M0,-1.936C-1.141,-1.915 -2.205,-1.287 -2.94,-0.442C-3.239,-0.099 -2.685,0.004 -2.451,-0.003C-2.022,-0.016 -1.461,-0.159 -1.167,-0.497C-1.067,-0.611 -0.965,-0.72 -0.85,-0.819C-0.775,-0.881 -0.699,-0.94 -0.621,-0.996C-0.37,-1.183 -0.295,-1.013 -0.795,-1.004C-0.372,-1.012 0.201,-1.161 0.489,-1.498C0.785,-1.844 0.236,-1.94 0,-1.936" style="fill:rgb(48,50,61);fill-rule:nonzero;"/>
                </g>
                <g transform="matrix(1,0,0,1,217.227,108.561)">
                    <path d="M0,-2.351C-0.896,-1.983 -1.949,-1.523 -2.398,-0.594C-2.824,0.288 -0.885,0.103 -0.588,-0.51C-0.316,-1.072 0.246,-1.253 0.785,-1.475C1.048,-1.583 1.588,-1.966 1.286,-2.302C0.985,-2.639 0.352,-2.496 0,-2.351" style="fill:rgb(48,50,61);fill-rule:nonzero;"/>
                </g>
                <g transform="matrix(1,0,0,1,218.582,108.416)">
                    <path d="M0,-2.025C-1.327,-1.976 -3.05,-1.438 -3.813,-0.261C-3.992,0.014 -3.107,-0.103 -3.051,-0.113C-2.71,-0.178 -2.121,-0.297 -1.913,-0.618C-1.776,-0.828 -1.603,-0.998 -1.395,-1.137C-1.292,-1.206 -1.191,-1.259 -1.079,-1.311C-0.957,-1.367 -1.239,-1.283 -1.266,-1.282C-0.799,-1.299 -0.305,-1.409 0.101,-1.648C0.401,-1.824 0.373,-2.039 0,-2.025" style="fill:rgb(48,50,61);fill-rule:nonzero;"/>
                </g>
                <g transform="matrix(1,0,0,1,208.386,126.124)">
                    <path d="M0,11.003C0.348,8.245 4.375,6.573 6.46,5.149C9.737,2.912 14.368,-0.761 18.246,2.754C18.749,3.21 20.56,2.471 20.041,2.001C16.721,-1.009 13.13,-0.239 9.37,1.931C6.487,3.596 3.711,5.532 0.992,7.449C-0.46,8.473 -1.696,9.386 -1.932,11.248C-2.027,12.012 -0.082,11.653 0,11.003" style="fill:rgb(48,50,61);fill-rule:nonzero;"/>
                </g>
                <g transform="matrix(1,0,0,1,242.317,146.195)">
                    <path d="M0,-0.77C0.071,-0.356 -0.546,-0.222 -0.841,-0.119L0.507,0.019C0.169,-1.137 -0.253,-2.214 -0.908,-3.228C-1.226,-3.718 -2.94,-3.228 -2.771,-2.591C-2.396,-1.177 -1.714,0.126 -1.939,1.626C-2.058,2.415 -0.308,1.958 -0.074,1.524C-0.003,1.378 0.079,1.238 0.173,1.105C-0.013,1.225 0.022,1.309 0.279,1.356C0.63,1.551 0.904,1.893 0.99,2.278C1.14,2.948 3.077,2.455 2.922,1.761C2.712,0.819 1.649,0.131 0.724,0.069C-0.399,-0.006 -1.342,0.499 -1.873,1.484C-1.251,1.451 -0.63,1.417 -0.008,1.383C0.234,-0.229 -0.437,-1.587 -0.84,-3.108C-1.461,-2.896 -2.082,-2.684 -2.703,-2.472C-2.099,-1.538 -1.735,-0.525 -1.425,0.536C-1.279,1.035 -0.385,0.781 -0.077,0.674C0.751,0.383 2.118,-0.207 1.932,-1.288C1.818,-1.948 -0.123,-1.482 0,-0.77" style="fill:rgb(48,50,61);fill-rule:nonzero;"/>
                </g>
                <g transform="matrix(1,0,0,1,242.122,142.699)">
                    <path d="M0,1.523C-0.158,1.808 -0.196,2.158 -0.4,2.416C0.196,2.488 0.792,2.56 1.388,2.632C1.756,1.334 1.91,0.073 1.812,-1.275C1.747,-2.162 -0.188,-1.696 -0.12,-0.757C-0.032,0.447 -0.243,1.623 -0.569,2.777C-0.827,3.685 0.894,3.404 1.219,2.993C1.526,2.604 1.614,2.171 1.848,1.749C2.086,1.319 1.64,0.977 1.257,0.929C0.772,0.87 0.24,1.088 0,1.523" style="fill:rgb(48,50,61);fill-rule:nonzero;"/>
                </g>
                <g transform="matrix(1,0,0,1,175.337,164.658)">
                    <path d="M0,11.917C9.749,8.921 21.258,6.856 29.431,0.303C30.243,-0.348 28.31,-0.17 27.923,0.14C20.219,6.318 8.962,8.354 -0.2,11.169C-1.319,11.513 -1.133,12.265 0,11.917" style="fill:rgb(48,50,61);fill-rule:nonzero;"/>
                </g>
                <g transform="matrix(1,0,0,1,178.125,169.57)">
                    <path d="M0,6.049C2.281,5.161 4.786,4.735 7.127,4.024C9.796,3.215 12.298,1.506 15.044,1.041C16,0.879 16.607,-0.354 15.281,-0.129C12.908,0.273 10.894,1.426 8.681,2.319C5.616,3.557 2.278,3.96 -0.79,5.154C-2.042,5.642 -0.908,6.403 0,6.049" style="fill:rgb(48,50,61);fill-rule:nonzero;"/>
                </g>
                <g transform="matrix(1,0,0,1,176.084,174.239)">
                    <path d="M0,2.02C-0.156,1.051 -1.021,0.419 -1.306,-0.495C-1.513,-1.157 -3.438,-0.615 -3.238,0.023C-2.952,0.938 -2.086,1.578 -1.932,2.538C-1.829,3.177 0.113,2.72 0,2.02" style="fill:rgb(48,50,61);fill-rule:nonzero;"/>
                </g>
            </g>
            <g id="Layer-1" serif:id="Layer 1" transform="matrix(4.16667,0,0,4.16667,0,0)">
                <g transform="matrix(1,0,0,1,112.155,172.2)">
                    <path d="M0,53.605L-3.567,51.18L-7.956,46.889L-9.151,45.151L-13.05,38.749L-14.532,34.344L-16.279,25.948L-16.003,16.418L-15.428,14.199L-12.632,8.58L-5.717,3.141L-0.837,1.138L5.02,0.178L9.428,0L12.554,0.401L20.106,1.176L24.401,1.925L30.94,3.222L36.946,4.048L43.751,5.359L55.956,8.654L64.294,10.754L82.105,13.717C82.105,13.717 88.59,14.719 92.968,15.542C94.96,15.917 97.127,16.344 97.167,16.352C97.292,16.377 103.023,17.746 103.023,17.746L118.059,21.127L124.336,23.041L128.063,24.711L130.116,27.838C130.116,27.838 132.461,32.344 132.382,32.416C132.302,32.485 131.774,36.751 131.774,36.751L129.599,42.416L125.86,48.671L122.565,51.706L119.573,49.782L117.613,47.741L109.81,45.863L106.746,43.938L99.265,40.304L84.933,35.834L69.9,33.246L67.011,33.047L62.929,32.682L55.163,32.583L50.384,32.75L45.105,33.178L35.549,34.509L21.841,38.127L10.888,42.31L8.718,43.85L7.902,45.77L6.722,48.921L3.669,50.654L2.168,51.962L0,53.605Z" style="fill:rgb(26,165,74);fill-rule:nonzero;"/>
                </g>
                <g transform="matrix(1,0,0,1,175.563,178.76)">
                    <path d="M0,-3.452L0.414,-1.627L1.271,-0.056L1.627,2.002L1.627,3.339L1.852,4.344L9.804,5.808L19.755,7.092L38.507,10.708L39.655,9.724L41.119,8.262L42.059,6.823L43.258,3.715L39.325,-2.877L28.974,-13.458L28.593,-14.16L24.463,-11.877L19.892,-9.999L15.579,-8.205L11.863,-6.731L5.201,-4.849L2.471,-4.094L0,-3.452Z" style="fill:rgb(61,61,69);fill-rule:nonzero;"/>
                </g>
                <g transform="matrix(1,0,0,1,176.816,189.166)">
                    <path d="M0,-11.453C0,-11.453 39.226,-4.742 41.198,-6.745L42.161,-6.704L41.713,-5.419L40.984,-4.047L40.026,-2.39L38.058,-0.388L37.378,0L26.385,-1.838L20.337,-2.96L11.669,-4.256L5.432,-5.173L0.183,-6.432L-0.196,-7.375L-0.586,-9.435L-0.586,-10.845L0,-11.453Z" style="fill:rgb(45,46,61);fill-rule:nonzero;"/>
                </g>
                <g transform="matrix(1,0,0,1,113.659,243.372)">
                    <path d="M0,-24.647C0,-24.647 -21.035,-25.086 -17.087,-18.779C-13.138,-12.471 13.236,-7.41 41.045,-4.374C68.854,-1.336 125.206,0.439 128.149,-13.738C128.149,-13.738 129.508,-20.336 112.847,-20.453C96.185,-20.568 41.045,-23.846 41.045,-23.846L20.191,-22.942L0,-24.647Z" style="fill:rgb(191,226,225);fill-rule:nonzero;"/>
                </g>
                <g transform="matrix(1,0,0,1,122.082,217.197)">
                    <path d="M0,-1.762L-0.851,-0.503L-1.552,1.174L-2.269,2.748L-1.999,3.291C-1.999,3.291 -0.796,3.502 -0.723,3.559C-0.65,3.617 1.972,4.52 1.972,4.52C1.972,4.52 5.952,5.363 6.014,5.38C6.077,5.394 17.681,7.582 17.681,7.582C17.681,7.582 24.564,8.385 24.649,8.393C24.735,8.401 30.437,8.973 30.437,8.973L38.236,9.763L43.524,10.024L48.812,10.336C48.812,10.336 59.057,10.623 59.122,10.623C59.189,10.623 65.666,10.799 65.666,10.799L74.765,10.535L81.176,10.425L89.307,9.742L92.236,9.323L96.371,8.512L100.456,7.22L101.937,6.253L102.537,5.036L101.792,3.242L98.307,-0.114L95.453,-1.762L94.578,-2.147L88.917,-4.638L83.226,-6.738L75.522,-9.254L68.948,-10.727L65.145,-11.182L60.819,-11.453L58.22,-11.783L52.455,-12.183L48.126,-12.561L43.808,-12.537L38.374,-12.26L32.972,-11.277L28.301,-10.44L21.448,-9.139L16.381,-7.796L13.531,-7.398L10.388,-6.056L5.499,-4.706L1.599,-2.596L0.49,-1.945L0,-1.762Z" style="fill:rgb(16,68,32);fill-rule:nonzero;"/>
                </g>
                <g transform="matrix(1,0,0,1,231.492,232.301)">
                    <path d="M0,-25.553C-0.234,-25.172 4.032,-20.1 3.963,-20.206C3.896,-20.313 5.688,-16.218 5.688,-16.218L5.848,-14.257L4.707,-10.661L3.811,-8.48L2.655,-6.983L1.145,-6.078L-2.198,-4.164L-6.18,-2.388L-11.93,-0.926L-15.242,-0.614L-20.766,0.134L-35.243,1.568L-45.422,2.247L-59.054,1.46L-72.14,0.892L-72.909,0.806L-77.301,0.86L-84.667,-0.06L-97.665,-2.454L-105.826,-3.519L-110.354,-4.601L-118.779,-6.639L-118.441,-8.543L-115.646,-11.344L-111.702,-12.164L-108.75,-11.041L-98.637,-9.02L-85.486,-7.157L-68.954,-5.532L-50.602,-4.881L-33.182,-5.032C-33.182,-5.032 -22.196,-5.488 -22.131,-5.466C-22.065,-5.444 -13.334,-6.679 -13.313,-6.679C-13.291,-6.679 -8.465,-8.211 -8.465,-8.211L-6.775,-9.382L-6.812,-10.763L-7.744,-12.899L-10.158,-14.959C-10.158,-14.959 -6.493,-18.858 -6.458,-18.901C-6.423,-18.945 0.046,-21.683 -2.225,-27.8L-1.041,-27.315L0,-25.553Z" style="fill:rgb(25,121,60);fill-rule:nonzero;"/>
                </g>
                <g transform="matrix(1,0,0,1,160.456,222.543)">
                    <path d="M0,-43.512C0,-43.512 4.287,-38.121 11.465,-37.064C13.875,-36.707 16.385,-36.136 18.655,-35.535C23.145,-34.345 26.564,-33.986 26.564,-33.986L35.095,-33.036L42.29,-32.358C42.29,-32.358 61.364,-30.445 70.253,-25.448C72.388,-24.247 75.396,-21.719 76.019,-21.208C77.054,-20.358 78.186,-17.949 78.54,-17.06C80.244,-12.79 78.94,-9.856 77.353,-6.943C75.233,-3.061 73.254,0 73.254,0L76.015,-0.078L78.524,-2.51L80.766,-5.938L83.451,-12.24L83.75,-19.996L79.867,-26.036L72.52,-28.604L49.806,-33.935L17.771,-39.298L4.38,-42.38L0,-43.512Z" style="fill:rgb(102,189,81);fill-rule:nonzero;"/>
                </g>
                <g transform="matrix(1,0,0,1,116.359,225.667)">
                    <path d="M0,-52.882C0,-52.882 -16.117,-43.593 -10.185,-24.184C-6.848,-13.265 -3.747,-8.062 -1.673,-5.6C-0.06,-3.684 0.933,-3.427 0.933,-3.427L-1.318,-1.585L-3.392,0.112L-7.896,-2.787L-11.841,-6.539L-16.383,-15.178L-18.626,-22.334L-19.787,-32.058L-18.58,-39.588L-16.925,-43.521L-14.562,-46.386L-13.111,-48.079L-11.841,-49.207L-8.429,-51.15L-5.233,-52.079L-2.538,-52.702L-0.611,-52.994L0,-52.882Z" style="fill:rgb(25,121,60);fill-rule:nonzero;"/>
                </g>
                <g transform="matrix(1,0,0,1,109.848,211.131)">
                    <path d="M0,0.52C0,0.52 1.826,2.816 5.166,1.567C15.334,-2.234 38.252,-12.917 56.071,-11.754C79.742,-10.211 115.618,-5.923 118.857,3.756C122.096,13.437 121.611,-6.847 117.842,-8.858L121.645,-4.845L123.108,1.031L122.498,4.419L120.614,8.556L117.851,7.868L111.394,5.946L100.094,0.333L89.792,-2.356L81.183,-4.662L67.271,-6.123L55.663,-6.507L47.284,-5.584L39.214,-4.509L29.768,-2.165L24.467,-0.765L17.877,1.727L12.265,4.178L11.609,5.04L9.904,9.632L7.444,11.788L-1.221,4.784L0,0.52Z" style="fill:rgb(25,121,60);fill-rule:nonzero;"/>
                </g>
                <g transform="matrix(1,0,0,1,103.623,179.067)">
                    <path d="M0,20.652L1.982,20.31C1.982,20.31 7.499,0.396 26.7,0.306L23.319,0L18.471,0.214L14.89,1.08L12.028,1.841L9.357,3.164L1.397,9.237L-0.334,11.26L-2.782,15.427C-2.782,15.427 -1.845,17.965 -1.754,17.965C-1.664,17.965 -0.425,20.31 -0.425,20.31L0,20.652Z" style="fill:rgb(25,121,60);fill-rule:nonzero;"/>
                </g>
                <g transform="matrix(1,0,0,1,176.299,223.236)">
                    <path d="M0,-40.951C-15.141,-44.39 -29.967,-48.076 -45.308,-50.58C-54.772,-52.125 -67.132,-52.264 -74.586,-45.045C-84.16,-35.77 -81.619,-20.527 -76.296,-9.648C-74.204,-5.373 -70.467,0.119 -66.025,2.173C-63.422,3.377 -60.607,3.904 -57.821,4.57C-33.091,10.479 -9.874,11.54 15.414,11.474C21.607,11.458 28.044,10.242 34.186,9.458C42.107,8.448 54.942,7.55 60.113,0.286C60.534,-0.305 58.64,-0.037 58.349,0.372C52.926,7.989 38.5,8.208 30.125,9.162C25.685,9.668 20.457,10.529 16.777,10.591C9.25,10.718 1.688,10.284 -5.832,9.99C-9.773,9.836 -15.276,8.533 -19.154,9.532C-21.901,10.241 -26.004,8.99 -28.736,8.588C-32.831,7.985 -36.91,7.272 -40.983,6.539C-47.671,5.336 -54.314,4.296 -60.92,2.61C-72.199,-0.27 -77.11,-14.341 -78.726,-24.554C-79.986,-32.519 -78.228,-40.604 -71.89,-45.908C-64.024,-52.491 -52.131,-50.717 -42.844,-49.083C-28.903,-46.63 -15.365,-43.277 -1.571,-40.144C-1.082,-40.033 0.627,-40.808 0,-40.951" style="fill:rgb(48,50,61);fill-rule:nonzero;"/>
                </g>
                <g transform="matrix(1,0,0,1,126.026,163.429)">
                    <path d="M0,-20.661C-1.104,-17.502 0.322,-13.314 1.305,-10.306C2.37,-7.046 3.756,-2.053 6.429,0.315C7.032,0.849 8.853,0.068 8.206,-0.505C5.941,-2.511 4.751,-6.686 3.729,-9.447C2.63,-12.412 0.712,-17.297 1.831,-20.5C2.184,-21.51 0.256,-21.395 0,-20.661" style="fill:rgb(48,50,61);fill-rule:nonzero;"/>
                </g>
                <g transform="matrix(1,0,0,1,134.311,156.677)">
                    <path d="M0,7.049C1.653,5.237 4.754,4.257 6.943,3.282C10.379,1.753 14.115,0.968 17.861,0.855C18.992,0.821 19.321,-0.685 18.01,-0.646C14.329,-0.535 10.632,0.171 7.216,1.581C4.258,2.801 0.578,3.99 -1.634,6.415C-2.466,7.327 -0.625,7.734 0,7.049" style="fill:rgb(48,50,61);fill-rule:nonzero;"/>
                </g>
                <g transform="matrix(1,0,0,1,241.68,145.008)">
                    <path d="M0,2.01C0.62,1.786 1.262,1.631 1.882,1.408C2.272,1.268 2.794,0.948 2.659,0.445C2.537,-0.011 1.896,-0.142 1.505,-0.001C0.884,0.221 0.242,0.377 -0.377,0.601C-0.768,0.742 -1.289,1.06 -1.154,1.564C-1.032,2.019 -0.391,2.152 0,2.01" style="fill:rgb(48,50,61);fill-rule:nonzero;"/>
                </g>
                <g transform="matrix(1,0,0,1,203.19,167.048)">
                    <path d="M0,-2.19C0.571,-0.826 1.767,-0.007 2.86,0.913C3.203,1.201 3.764,1.095 4.14,0.936C4.336,0.853 4.999,0.443 4.653,0.153C3.654,-0.687 2.454,-1.46 1.932,-2.708C1.646,-3.391 -0.257,-2.802 0,-2.19" style="fill:rgb(48,50,61);fill-rule:nonzero;"/>
                </g>
                <g transform="matrix(1,0,0,1,177.364,163.362)">
                    <path d="M0,11.807C5.991,9.997 11.803,7.886 17.756,6.002C20.804,5.037 25.901,3.233 27.714,0.526C28.299,-0.347 26.326,-0.358 25.871,0.321C25.081,1.5 21.33,3.107 20.461,3.611C18.189,4.932 14.965,5.44 12.46,6.299C8.183,7.765 3.993,9.204 -0.347,10.515C-1.52,10.869 -1.185,12.165 0,11.807" style="fill:rgb(48,50,61);fill-rule:nonzero;"/>
                </g>
                <g transform="matrix(1,0,0,1,174.4,181.827)">
                    <path d="M0,-6.261C0.074,-5.215 0.532,-4.275 0.974,-3.34C1.557,-2.105 1.795,-0.992 1.653,0.377C1.565,1.23 3.518,0.887 3.593,0.166C3.716,-1.026 3.626,-2.073 3.212,-3.203C2.768,-4.415 2.026,-5.452 1.932,-6.779C1.881,-7.491 -0.057,-7.065 0,-6.261" style="fill:rgb(48,50,61);fill-rule:nonzero;"/>
                </g>
                <g transform="matrix(1,0,0,1,151.271,174.661)">
                    <path d="M0,-17.964C1.216,-16.373 3.193,-15.329 4.672,-13.936C6.584,-12.133 8.639,-10.49 10.716,-8.884C15.098,-5.496 19.693,-3.012 23.807,0.787C24.279,1.224 26.085,0.494 25.606,0.052C21.781,-3.481 18.189,-5.816 13.818,-8.648C11.62,-10.071 9.608,-11.902 7.636,-13.616C5.953,-15.079 3.15,-16.931 1.8,-18.699C1.426,-19.188 -0.437,-18.535 0,-17.964" style="fill:rgb(48,50,61);fill-rule:nonzero;"/>
                </g>
                <g transform="matrix(1,0,0,1,175.867,173.84)">
                    <path d="M0,1.418C0.871,1.284 1.692,0.978 2.504,0.646C2.595,0.608 3.376,0.289 3.076,0.084C2.77,-0.126 2.131,0.063 1.83,0.186C1.35,0.382 0.87,0.604 0.354,0.683C0.03,0.732 -0.614,0.879 -0.777,1.217C-0.933,1.544 -0.098,1.433 0,1.418" style="fill:rgb(48,50,61);fill-rule:nonzero;"/>
                </g>
                <g transform="matrix(1,0,0,1,236.432,182.607)">
                    <path d="M0,40.987C4.034,36.373 9.49,30.127 9.119,23.495C8.689,15.8 3.455,12.448 -3.422,10.703C-12.676,8.354 -21.966,6.163 -31.354,4.419C-40.989,2.63 -50.748,1.648 -60.33,-0.453C-60.961,-0.592 -62.613,0.375 -61.506,0.617C-46.086,4 -30.373,5.541 -14.988,9.216C-7.413,11.026 2.669,11.654 6.356,19.549C9.939,27.22 2.883,35.571 -1.803,40.93C-2.369,41.579 -0.418,41.465 0,40.987" style="fill:rgb(48,50,61);fill-rule:nonzero;"/>
                </g>
                <g transform="matrix(1,0,0,1,121.986,215.386)">
                    <path d="M0,0.989C1.843,-1.914 8.752,-3.403 11.66,-4.324C15.26,-5.463 18.971,-6.24 22.647,-7.084C31.224,-9.055 39.674,-10.149 48.474,-10.048C63.097,-9.881 78.137,-7.162 91.565,-1.28C94.357,-0.057 106.499,5.838 98.557,8.69C95.814,9.675 93.014,10.168 90.126,10.348C83.333,10.774 76.535,11.131 69.734,11.394C58.147,11.843 46.637,10.948 35.056,10.224C29.524,9.879 24.017,8.798 18.619,8.269C16.038,8.016 13.462,7.694 10.893,7.34C9.05,7.086 0.473,6.698 -0.176,4.566C-0.282,4.217 -0.726,4.101 -1.049,4.143C-1.908,4.256 -0.063,1.264 -0.127,1.383C0.387,0.444 -1.575,0.471 -1.967,1.187C-2.572,2.292 -4.263,5.256 -1.815,5.516C-0.594,5.646 -2.805,4.965 -1.633,5.814C-0.643,6.531 0.571,6.837 1.734,7.15C6.765,8.506 14.026,8.307 18.087,9.776C23.594,11.767 30.614,11.357 36.375,11.707C40.011,11.927 43.65,12.108 47.289,12.276C48.446,12.329 52.116,12.275 52.436,12.448C53.835,13.203 56.025,12.956 57.538,12.983C61.203,13.05 64.872,12.922 68.534,12.795C75.552,12.552 82.566,12.167 89.575,11.735C93.721,11.479 100.841,11.013 103.523,7.424C107.406,2.226 87.071,-4.796 85.021,-5.475C70.466,-10.29 54.76,-12.214 39.445,-11.205C31.086,-10.656 22.854,-8.505 14.736,-6.578C10.006,-5.455 0.922,-3.557 -1.84,0.794C-2.403,1.681 -0.433,1.671 0,0.989" style="fill:rgb(48,50,61);fill-rule:nonzero;"/>
                </g>
                <g transform="matrix(1,0,0,1,241.82,142.405)">
                    <path d="M0,1.509C-0.156,1.791 -0.193,2.137 -0.396,2.391C0.201,2.464 0.797,2.535 1.393,2.608C1.757,1.32 1.909,0.071 1.812,-1.264C1.747,-2.152 -0.188,-1.686 -0.12,-0.747C-0.033,0.445 -0.242,1.61 -0.564,2.752C-0.821,3.661 0.898,3.38 1.224,2.968C1.528,2.582 1.616,2.154 1.848,1.735C2.086,1.305 1.64,0.963 1.257,0.915C0.772,0.856 0.24,1.074 0,1.509" style="fill:rgb(48,50,61);fill-rule:nonzero;"/>
                </g>
                <g transform="matrix(1,0,0,1,175.664,164.118)">
                    <path d="M0,11.854C5.658,10.338 11.303,8.965 16.711,6.634C20.94,4.812 25.536,3.249 29.165,0.345C29.976,-0.305 28.043,-0.128 27.657,0.182C20.176,6.169 8.81,8.691 -0.2,11.106C-1.339,11.411 -1.139,12.159 0,11.854" style="fill:rgb(48,50,61);fill-rule:nonzero;"/>
                </g>
                <g transform="matrix(1,0,0,1,178.428,169.022)">
                    <path d="M0,6.003C2.259,5.123 4.74,4.7 7.059,3.997C9.703,3.196 12.18,1.504 14.9,1.041C15.855,0.878 16.462,-0.354 15.136,-0.129C12.784,0.272 10.788,1.413 8.593,2.299C5.556,3.525 2.25,3.924 -0.79,5.108C-2.042,5.596 -0.908,6.357 0,6.003" style="fill:rgb(48,50,61);fill-rule:nonzero;"/>
                </g>
                <g transform="matrix(1,0,0,1,176.41,173.656)">
                    <path d="M0,1.995C-0.154,1.035 -1.01,0.41 -1.293,-0.495C-1.5,-1.157 -3.424,-0.616 -3.225,0.022C-2.942,0.929 -2.084,1.562 -1.932,2.513C-1.83,3.152 0.112,2.696 0,1.995" style="fill:rgb(48,50,61);fill-rule:nonzero;"/>
                </g>
                <g transform="matrix(1,0,0,1,120.708,217.069)">
                    <path d="M0,-0.936C-0.143,-0.601 -0.212,-0.253 -0.27,0.104C-0.361,0.668 1.56,0.317 1.644,-0.205C1.702,-0.562 1.771,-0.911 1.914,-1.245C2.067,-1.604 1.252,-1.525 1.122,-1.503C0.78,-1.449 0.156,-1.301 0,-0.936" style="fill:rgb(48,50,61);fill-rule:nonzero;"/>
                </g>
                <g transform="matrix(1,0,0,1,120.624,217.175)">
                    <path d="M0,-0.917C-0.099,-0.566 -0.178,-0.216 -0.193,0.148C-0.226,0.921 1.71,0.515 1.735,-0.104C1.75,-0.469 1.83,-0.818 1.929,-1.169C2.117,-1.838 0.179,-1.553 0,-0.917" style="fill:rgb(48,50,61);fill-rule:nonzero;"/>
                </g>
                <g transform="matrix(1,0,0,1,120.787,216.766)">
                    <path d="M0,-0.826C-0.021,-0.509 -0.075,-0.223 -0.191,0.072C-0.605,1.135 1.337,1.17 1.666,0.328C1.826,-0.085 1.933,-0.513 1.962,-0.955C2.029,-1.996 0.06,-1.744 0,-0.826" style="fill:rgb(48,50,61);fill-rule:nonzero;"/>
                </g>
                <g transform="matrix(1,0,0,1,120.616,217.02)">
                    <path d="M0,-0.201C-0.064,0.027 -0.112,0.249 -0.205,0.467C-0.362,0.838 0.455,0.775 0.595,0.753C0.95,0.697 1.553,0.545 1.712,0.17C1.805,-0.048 1.853,-0.271 1.917,-0.498C2.069,-1.039 0.156,-0.757 0,-0.201" style="fill:rgb(48,50,61);fill-rule:nonzero;"/>
                </g>
                <g transform="matrix(1,0,0,1,121.696,215.618)">
                    <path d="M0,-0.498C-0.181,-0.299 -0.353,-0.091 -0.539,0.106C-0.846,0.43 -0.272,0.488 -0.068,0.476C0.353,0.451 0.918,0.319 1.221,0C1.407,-0.195 1.579,-0.403 1.76,-0.603C2.057,-0.931 1.502,-0.986 1.289,-0.974C0.876,-0.949 0.292,-0.82 0,-0.498" style="fill:rgb(48,50,61);fill-rule:nonzero;"/>
                </g>
                <g transform="matrix(1,0,0,1,122.062,216.085)">
                    <path d="M0,-1.195C-0.521,-0.845 -0.86,-0.384 -1.231,0.114C-1.42,0.367 -0.516,0.256 -0.472,0.248C-0.116,0.18 0.434,0.064 0.668,-0.25C0.904,-0.565 1.129,-0.974 1.463,-1.199C1.748,-1.39 1.75,-1.562 1.366,-1.561C0.93,-1.56 0.366,-1.442 0,-1.195" style="fill:rgb(48,50,61);fill-rule:nonzero;"/>
                </g>
                <g transform="matrix(1,0,0,1,122.255,216.243)">
                    <path d="M0,-1.743C-0.571,-1.371 -0.977,-0.854 -1.372,-0.308C-1.654,0.082 -1.133,0.338 -0.822,0.358C-0.346,0.388 0.164,0.195 0.447,-0.195C0.674,-0.51 0.902,-0.832 1.231,-1.046C1.524,-1.236 1.782,-1.668 1.375,-1.898C0.963,-2.131 0.372,-1.985 0,-1.743" style="fill:rgb(48,50,61);fill-rule:nonzero;"/>
                </g>
                <g transform="matrix(1,0,0,1,122.134,216.786)">
                    <path d="M0,-2.195C-0.756,-1.74 -1.099,-0.972 -1.554,-0.257C-1.805,0.136 -1.342,0.352 -1.015,0.368C-0.576,0.387 0.006,0.217 0.256,-0.175C0.535,-0.614 0.757,-1.273 1.218,-1.55C1.503,-1.722 1.778,-2.146 1.372,-2.361C0.953,-2.582 0.378,-2.423 0,-2.195" style="fill:rgb(48,50,61);fill-rule:nonzero;"/>
                </g>
                <g transform="matrix(1,0,0,1,121.357,216.965)">
                    <path d="M0,-1.736C-0.328,-1.342 -0.477,-0.9 -0.695,-0.446C-1.148,0.494 0.801,0.394 1.133,-0.296C1.281,-0.604 1.369,-0.998 1.591,-1.263C1.863,-1.59 1.803,-1.972 1.366,-2.101C0.934,-2.23 0.298,-2.093 0,-1.736" style="fill:rgb(48,50,61);fill-rule:nonzero;"/>
                </g>
                <g transform="matrix(1,0,0,1,120.709,217.415)">
                    <path d="M0,-0.83C-0.215,-0.473 -0.348,-0.078 -0.526,0.298C-0.691,0.647 0.148,0.564 0.263,0.544C0.61,0.487 1.215,0.344 1.386,-0.017C1.564,-0.392 1.697,-0.787 1.912,-1.144C2.112,-1.477 1.21,-1.405 1.123,-1.391C0.741,-1.328 0.215,-1.186 0,-0.83" style="fill:rgb(48,50,61);fill-rule:nonzero;"/>
                </g>
            </g>
        </g>
    </g>
    <g transform="matrix(5.22517,0,0,5.05769,-324.238,-461.538)">
        <rect x="62.053" y="91.255" width="68.897" height="71.179" style="fill:none;"/>
    </g>
</svg>
