<?xml version="1.0" encoding="UTF-8" standalone="no"?>
<!DOCTYPE svg PUBLIC "-//W3C//DTD SVG 1.1//EN" "http://www.w3.org/Graphics/SVG/1.1/DTD/svg11.dtd">
<svg width="100%" height="100%" viewBox="0 0 3000 3000" version="1.1" xmlns="http://www.w3.org/2000/svg" xmlns:xlink="http://www.w3.org/1999/xlink" xml:space="preserve" xmlns:serif="http://www.serif.com/" style="fill-rule:evenodd;clip-rule:evenodd;stroke-miterlimit:10;">
    <g id="Argentina">
        <g transform="matrix(1.38597,-0.0480542,0.0479437,1.38917,1054.5,725.855)">
            <path d="M0,227.802L-15.158,217.497L-33.808,199.261L-38.891,191.873L-55.458,164.665L-61.753,145.95L-69.177,110.265L-68.007,69.774L-65.565,60.341L-53.678,36.46L-24.296,13.348L-3.559,4.839L21.335,0.756L40.064,0L53.354,1.702L85.446,4.999L103.697,8.183L131.488,13.694L157.007,17.204L185.932,22.771L237.794,36.777L273.23,45.703L348.918,58.293C348.918,58.293 376.483,62.551 395.085,66.049C403.553,67.641 412.761,69.456 412.928,69.489C413.461,69.597 437.813,75.413 437.813,75.413L501.713,89.784L528.392,97.914L544.225,105.014L552.953,118.304C552.953,118.304 562.916,137.45 562.58,137.75C562.242,138.05 559.998,156.176 559.998,156.176L550.756,180.252L534.867,206.832L520.863,219.73L508.145,211.554L499.818,202.882L453.637,186.723L423.631,169.379L362.729,150.384L297.051,141.284L284.78,140.438L267.431,138.886L234.424,138.463L214.12,139.172L191.682,140.996L151.069,146.654L92.818,162.028L64.735,171.399L46.271,179.801L37.048,186.347L33.581,194.504L28.566,207.899L15.594,215.261L9.214,220.823L0,227.802Z" style="fill:rgb(113,139,198);fill-rule:nonzero;"/>
        </g>
        <g>
            <g transform="matrix(1.38597,-0.0480542,0.0479437,1.38917,1108.63,393.694)">
                <path d="M0,234.38C0,234.38 -4.036,219.708 -4.007,219.823C-3.978,219.939 -5.958,212.792 -6.04,212.71C-6.122,212.628 -6.776,206.963 -6.776,206.963L-10.448,189.814L-11.386,170.486L-9.182,149.41L-4.905,132.838L-2.209,122.633L-3.632,118.801L-5.21,108.256C-5.21,108.256 -5.512,100.827 -5.674,101.019C-5.835,101.211 -4.979,84.069 -5.06,84.274C-5.142,84.478 0,69.989 0,69.989C0,69.989 8.725,55.3 8.791,55.193C8.856,55.087 19.468,38.278 19.345,38.278C19.223,38.278 31.67,21.994 31.67,21.994L43.315,11.149L56.321,-3.309L69.539,-16.58L83.297,-30.776L98.549,-42.25L104.955,-45.254L109.885,-51.205L124.438,-63.531L141.21,-73.629L160.56,-80.497L182.055,-85.43L203.652,-86.915L217.733,-86.485L226.752,-91.708L245.036,-93.423L266.462,-93.912L288.745,-91.627L312.905,-87.26L335.107,-82.363L357.077,-74.269C357.077,-74.269 374.637,-64.862 374.87,-64.981C375.104,-65.099 390.694,-53.672 390.694,-53.672L394.122,-43.306L394.408,-40.286L397.84,-41.636C397.84,-41.636 400.978,-41.918 401.101,-41.877C401.224,-41.837 413.223,-36.449 413.223,-36.449L428.16,-28.491L438.853,-18.043L449.546,-4.616L457.912,6.444L468.033,20.116L475.583,35.616L481.64,48.287L487.581,61.555L493.912,75.981L499.214,87.579L505.295,101.455L508.193,111.74L508.397,119.33L508.152,127.462L511.213,131.615L513.458,143.124L514.56,155.94L514.07,166.836L513.417,186.181L511.947,201.526L510.642,212.382L508.75,229.924L505.948,247.562L501.132,265.002L496.019,272.794L488.808,282.243L486.363,289.843L477.584,305.148L472.924,310.861L462.193,322.938L460.198,326.003L458.921,328.292L445.425,325.065L428.854,320.576L402.571,314.413L383.961,310.414L353.312,303.802L323.355,298.415L298.093,294.334L274.924,289.672L241.323,283.763L217.897,278.234L190.227,271.071L161.291,264.908L133.008,257.562L102.317,250.665L73.422,245.4L46.731,241.4L15.862,236.926L2.321,235.716L0,234.38Z" style="fill:rgb(245,247,251);fill-rule:nonzero;"/>
            </g>
            <g transform="matrix(1.38597,-0.0480542,0.0479437,1.38917,1222.44,666.124)">
                <path d="M0,-177.404C0,-177.404 -14.201,-168.914 -19.063,-153.247C-20.562,-148.418 -23.782,-145.535 -25.392,-142.981C-29.005,-137.247 -30.717,-135.727 -30.717,-135.727L-39.517,-121.216L-51.611,-99.513L-57.657,-84.705L-60.358,-80.866L-59.986,-74.061L-58.653,-60.981L-56.5,-53.986L-51.261,-36.032L-43.348,-17.145L-39.933,-10.027L-33.961,1.08L-31.604,1.08L-28.096,-1.575L-21.205,-6.315L-9.731,-11.763L5.844,-18.526L17.864,-22.349C17.864,-22.349 30.529,-25.219 30.291,-25.177C30.052,-25.135 44.763,-26.712 44.763,-26.712L47.548,-28.044L47.548,-34.793C47.548,-34.793 48.121,-62.395 47.871,-62.163C47.621,-61.932 53.54,-94.247 53.54,-94.247L61.304,-128.697L68.349,-145.551C68.349,-145.551 67.949,-149.76 67.296,-149.617C66.644,-149.474 56.706,-159.316 56.706,-159.316L41.062,-166.692L23.582,-173.028L9.572,-176.401L3.088,-178.484L0,-177.404Z" style="fill:rgb(61,61,69);fill-rule:nonzero;"/>
            </g>
            <g transform="matrix(1.38597,-0.0480542,0.0479437,1.38917,1429.31,751.626)">
                <path d="M0,-14.664L1.764,-6.914L5.409,-0.236L6.914,8.513L6.914,14.191L7.875,18.464L41.667,24.684L83.958,30.141L163.643,45.508L168.53,41.324L174.747,35.113L178.74,28.999L183.833,15.794L167.124,-12.218L123.13,-57.193L121.517,-60.172L103.96,-50.474L84.541,-42.488L66.209,-34.865L50.419,-28.602L22.106,-20.602L10.505,-17.396L0,-14.664Z" style="fill:rgb(61,61,69);fill-rule:nonzero;"/>
            </g>
            <g transform="matrix(1.38597,-0.0480542,0.0479437,1.38917,1518.05,491.115)">
                <path d="M0,-146.118L-20.019,-109.941L-36.323,-76.251L-33.932,-74.339L-25.898,-72.379L-14.893,-69.166L-4.617,-65.522L7.873,-55.976L24.303,-44.759L36.472,-36.974L53.43,-16.941L60.651,-6.596L65.092,0.085L78.525,-10.598L95.059,-19.626L110.378,-29.463L123.365,-36.281L138.834,-38.813L138.834,-48.049L131.979,-78.522L115.557,-103.71L95.821,-118.325L66.566,-135.245L52.831,-141.192L20.917,-145.703L11.395,-144.865L4.299,-145.796L0.415,-146.203" style="fill:rgb(61,61,69);fill-rule:nonzero;"/>
            </g>
            <g transform="matrix(1.38597,-0.0480542,0.0479437,1.38917,1818.03,758.706)">
                <path d="M0,-155.225L-3.603,-121.697L-9.866,-92.466L-12.229,-74.953L-14.603,-52.063L-16.002,-42.158L-12.229,-26.999L-11.356,-12.705L-12.267,0L-3.06,-11.008L4.528,-33.628L11.729,-91.298L13.292,-129.96C13.292,-129.96 11.034,-148.574 10.71,-147.901C10.386,-147.228 7.665,-153.314 6.988,-153.945C6.312,-154.576 0,-155.225 0,-155.225" style="fill:rgb(61,61,69);fill-rule:nonzero;"/>
            </g>
            <g transform="matrix(1.38597,-0.0480542,0.0479437,1.38917,1512.49,725.883)">
                <path d="M0,-343.514C0,-343.514 -115.987,-314.556 -166.076,-219.091C-169.438,-212.681 -186.544,-203.702 -189.894,-198.963C-213.353,-165.78 -229.292,-158.893 -232.282,-132.637C-232.674,-129.195 -216.703,-78.156 -216.882,-74.959C-218.05,-54.14 -214.923,-38.417 -210.237,-26.772L-201.156,0L-235.079,-4.905L-250.692,-7.347L-279.548,-10.723L-292.995,-58.01L-291.451,-95.812L-285.069,-127.279L-288.657,-152.452L-282.894,-177.129L-269.127,-203.172L-259.907,-215.562L-223.737,-254.397L-198.22,-280.003L-179.494,-294.092L-167.042,-305.361L-154.517,-315.098L-137.648,-323.931L-115.531,-331.308L-88.849,-335.833L-65.576,-336.843L-56.027,-340.618L-30.225,-343.514L0,-343.514Z" style="fill:rgb(216,216,216);fill-rule:nonzero;"/>
            </g>
            <g transform="matrix(1.38597,-0.0480542,0.0479437,1.38917,1214.79,828.133)">
                <path d="M0,-128.975C0,-128.975 51.509,-76.297 159.335,-54.607C225.294,-41.339 276.957,-31.496 308.163,-29.772C327.97,-28.677 340.331,-33.867 340.331,-33.867L352.87,-37.219C352.87,-37.219 344.742,0 336.873,-0.593C329.003,-1.185 313.004,-5.528 313.004,-5.528L269.903,-14.389L232.394,-20.672L187.8,-26.723L133.395,-39.763L101.971,-46.929L80.134,-51.679L46.267,-59.901L35.075,-61.861L15.925,-66.097L-2.725,-68.793L-12.134,-105.132L-12.134,-115.213L0,-128.975Z" style="fill:rgb(216,216,216);fill-rule:nonzero;"/>
            </g>
            <g transform="matrix(1.38597,-0.0480542,0.0479437,1.38917,1337.67,731.944)">
                <path d="M0,-208.982C0,-208.982 -12.757,-101.591 16.731,-78.879C46.219,-56.167 80.841,-31.683 121.292,-34.85L186.719,-48.827L185.864,-45.398L178.725,-39.777L142.617,-23.56L112.922,-12.167L88.222,-4.326L73.177,0L66.38,-0.086L55.706,-12.167L46.436,-18.47L29.184,-30.101L3.559,-47.573L-15.347,-64.238L-22.515,-71.765L-31.027,-78.241L-33.533,-82.964L-34.701,-110.74L-29.772,-138.899C-29.772,-138.899 -22.489,-170.272 -22.421,-170.546C-22.353,-170.821 -13.996,-196.398 -13.996,-196.398L-9.881,-200.609C-9.881,-200.609 -6.477,-204.91 -6.208,-205.178C-5.939,-205.447 0,-208.982 0,-208.982" style="fill:rgb(216,216,216);fill-rule:nonzero;"/>
            </g>
            <g transform="matrix(1.38597,-0.0480542,0.0479437,1.38917,1641.93,760.73)">
                <path d="M0,-207.659C0,-207.659 12.666,-162.449 12.918,-137.449C13.17,-112.449 6.166,-57.999 12.918,-42.474C19.67,-26.949 37.198,-3.687 33.185,-1.151C31.363,0 22.942,-10.648 15.076,-21.795C5.611,-35.209 -7.388,-47.149 -7.388,-47.149L-32.686,-73.68L-29.563,-77.399L-24.195,-103.088L-23.747,-127.946L-17.518,-160.002L-20.33,-191.937L-15.774,-199.035L-4.845,-204.878L0,-207.659Z" style="fill:rgb(216,216,216);fill-rule:nonzero;"/>
            </g>
            <g transform="matrix(1.38597,-0.0480542,0.0479437,1.38917,1463.28,554.339)">
                <path d="M0,-110.233C0,-110.233 73.313,-79.108 91.775,-36.434C91.775,-36.434 91.519,-12.327 88.053,-6.164C84.587,0 48.512,-70.112 13.859,-86.013C-20.793,-101.914 -7.621,-98.765 -7.621,-103.459C-7.621,-108.153 0,-110.233 0,-110.233" style="fill:rgb(250,251,252);fill-rule:nonzero;"/>
            </g>
            <g transform="matrix(1.38597,-0.0480542,0.0479437,1.38917,1278.43,651.17)">
                <path d="M0,-158.357L-18.361,-164.008L-35.374,-168.472L-40.222,-168.793L-44.063,-166.79L-51.671,-158.357L-64.477,-138.232L-76.092,-119.824L-87.372,-99.951L-94.396,-85.113L-98.382,-75.349L-101.083,-68.452L-97.225,-44.63L-86.103,-12.635L-75.001,5.831L-73.187,10.436L-63.514,3.857L-48.141,-3.326C-48.141,-3.326 -55.972,-60.036 -36.73,-90.712C-17.488,-121.388 0,-158.357 0,-158.357" style="fill:rgb(45,46,61);fill-rule:nonzero;"/>
            </g>
            <g transform="matrix(1.38597,-0.0480542,0.0479437,1.38917,1628.5,371.821)">
                <path d="M0,72.299C0,72.299 -47.994,-8.556 -109.746,-12.121L-117.827,4.974L-118.828,8.261L-111.33,9.94L-95.539,13.715L-76.913,24.2L-54.788,40.482L-38.617,54.603C-38.617,54.603 -25.45,68.351 -25.588,68.903C-25.726,69.455 -18.688,79.919 -18.688,79.919L-15.802,84.42L-8.755,74.974L-3.098,72.299L0,72.299Z" style="fill:rgb(45,46,61);fill-rule:nonzero;"/>
            </g>
            <g transform="matrix(1.38597,-0.0480542,0.0479437,1.38917,1438.82,812.807)">
                <path d="M0,-48.674C0,-48.674 166.693,-20.153 175.077,-28.661L179.169,-28.485L177.263,-23.029L174.169,-17.2L170.096,-10.155L161.73,-1.644L158.842,0L112.121,-7.806L86.425,-12.581L49.586,-18.084L23.078,-21.982L0.773,-27.328L-0.838,-31.338L-2.493,-40.098L-2.493,-46.086L0,-48.674Z" style="fill:rgb(45,46,61);fill-rule:nonzero;"/>
            </g>
            <g transform="matrix(1.38597,-0.0480542,0.0479437,1.38917,1517.88,422.308)">
                <path d="M0,-95.427C0,-95.427 46.534,-93.352 51.822,-90.153C57.11,-86.954 90.969,-71.231 90.969,-71.231L100.647,-64.723L126.221,-38.625L139.533,9.152L135.724,10.912C135.724,10.912 62.237,-106.339 -5.529,-86.313L-3.971,-92.337L0,-95.427Z" style="fill:rgb(90,91,100);fill-rule:nonzero;"/>
            </g>
            <g transform="matrix(1.38597,-0.0480542,0.0479437,1.38917,1818.09,760.484)">
                <path d="M0,-156.505L-2.609,-124.403C-2.609,-124.403 4.746,-59.058 -13.123,-34.908C-13.123,-34.908 -12.13,-10.261 -12.455,-10.259C-12.78,-10.256 -13.112,0 -13.112,0L-2.367,-14.353L3.68,-30.997C3.68,-30.997 6.875,-49.235 6.94,-49.72C7.006,-50.204 12.407,-86.054 12.407,-86.054L13.292,-121.143C13.292,-121.143 11.776,-144.721 11.496,-145.018C11.216,-145.316 8.604,-152.665 7.796,-153.945C6.988,-155.225 0,-156.505 0,-156.505" style="fill:rgb(90,91,100);fill-rule:nonzero;"/>
            </g>
            <g transform="matrix(1.38597,-0.0480542,0.0479437,1.38917,1302.54,624.918)">
                <path d="M0,-124.719C-0.964,-122.791 -29.481,-42.253 -26.31,-1.052L-26.31,2.232L-11.201,-0.414L-12.046,-9.023L-7.358,-54.81L-1.788,-84.029L6.077,-110.666L9.599,-117.921L6.818,-123.266L3.524,-126.951L0,-124.719Z" style="fill:rgb(90,91,100);fill-rule:nonzero;"/>
            </g>
        </g>
        <g transform="matrix(1.38597,-0.0480542,0.0479437,1.38917,2139.9,972.716)">
            <path d="M0,-108.431L-3.751,-93.583L-8.642,-83.443L-15.858,-78.405L-27.16,-71.861L-36.977,-66.547C-36.977,-66.547 -31.846,-53.501 -30.953,-52.945C-30.061,-52.389 -9.089,-21.418 -8.865,-20.749C-8.642,-20.08 2.69,-6.422 2.69,-6.422L15.677,0L25.653,-4.821L30.306,-12.753L29.329,-26.156L16.687,-68.391L4.603,-100.431L1.398,-106.2L0,-108.431Z" style="fill:rgb(245,247,251);fill-rule:nonzero;"/>
        </g>
        <g transform="matrix(1.38597,-0.0480542,0.0479437,1.38917,2132.95,773.167)">
            <path d="M0,32.859L-1.952,44.042L-5.264,51.24L-9.766,58.318L-15.115,63.899L-23.147,69.7L-33.203,74.802L-39.111,77.144L-61.57,48.562L-73.807,37.214L-88.04,29.422L-94.989,26.376L-94.026,24.238L-84.677,14.468L-72.76,-1.787L-65.905,-15.832L-61.57,-32.038L-60.774,-44.285L-47.495,-33.05L-27.603,-11.827L-13.694,7.387L-1.113,24.855L0,32.859Z" style="fill:rgb(113,139,198);fill-rule:nonzero;"/>
        </g>
        <g transform="matrix(1.38597,-0.0480542,0.0479437,1.38917,1937.26,816.155)">
            <path d="M0,-112.937C0.186,-112.872 21.489,-104.791 21.489,-104.791L46.949,-96.12L61.192,-85.661L77.246,-73.834L82.372,-69.007L80.304,-53.256L76.952,-41.183L70.494,-28.164L64.316,-19.003L56.839,-9.947L48.265,0L29.277,-6.43L14.639,-13.124L-10.137,-19.954L-2.765,-37.655L5.735,-66.127L4.819,-92.717L-2.618,-112.937L0,-112.937Z" style="fill:rgb(245,247,251);fill-rule:nonzero;"/>
        </g>
        <g transform="matrix(1.38597,-0.0480542,0.0479437,1.38917,1916.69,627.58)">
            <path d="M0,117.173L-33.163,114.992L-50.223,115.238L-51.993,87.769L-56.466,56.103L-66.465,29.59L-72.086,19.717L-77.52,12.607L-86.814,4.333L-91.763,0L-69.759,2.504L-43.649,6.289L-3.485,18.515L8.62,21.897L12.859,32.17L15.872,42.832L17.099,59.103L15.431,71.449L9.021,92.92L6.651,100.172L0,116.143" style="fill:rgb(113,139,198);fill-rule:nonzero;"/>
        </g>
        <g transform="matrix(1.38597,-0.0480542,0.0479437,1.38917,2000.94,971.001)">
            <path d="M0,-84.039L6.223,-67.164L9.608,-49.518L12.311,-31.431L14.218,-17.395L12.172,-5.193L7.758,0.86L1.767,0.86L-10.406,-3.283L-17.453,-9.133L-22.887,-24.159L-28.703,-34.689L-37.839,-48.248L-30.171,-48.248L-21.915,-51.301L-14.776,-57.325L-10.313,-65.58L-5.183,-74.504L-1.157,-84.899L0,-84.039Z" style="fill:rgb(113,139,198);fill-rule:nonzero;"/>
        </g>
        <g transform="matrix(1.38597,-0.0480542,0.0479437,1.38917,1893.97,844.567)">
            <path d="M0,13.076C0,13.076 8.586,18.504 8.604,18.512C8.621,18.519 18.016,25.855 18.016,25.855L27.02,34.527L35.103,42.271L37.531,45.324L42.824,45.321L48.623,44.054L55.631,39.236L60.223,34.305L64.546,26.409L68.767,19.068L71.738,11.513L71.738,4.565L65.197,-8.152L62.139,-20.962C62.139,-20.962 60.512,-28.799 59.619,-29.296C58.727,-29.794 50.025,-32.248 49.356,-32.025C48.688,-31.801 43.778,-32.039 43.778,-32.039L40.432,-25.555L37.355,-19.349L31.709,-10.935L25.93,-4.582L18.344,2.334L10.981,6.127L3.442,9.474L0,11.513L0,13.076Z" style="fill:rgb(245,247,251);fill-rule:nonzero;"/>
        </g>
        <g transform="matrix(1.38597,-0.0480542,0.0479437,1.38917,1953.34,848.013)">
            <path d="M0,-36.857L-21.828,-41.361L-37.204,-43.301L-54.093,-44.412L-63.407,-42.231L-67.2,-43.261L-68.682,-33.291L-74.975,-17.994L-81.997,-8.105L-82.882,-4.263L-77.396,-4.075L-63.641,0.063L-48.013,7.555L-41.44,6.275L-28.889,0.711L-18.04,-7.382L-10.991,-14.893L-4.489,-24.919L0,-36.857Z" style="fill:rgb(113,139,198);fill-rule:nonzero;"/>
        </g>
        <g transform="matrix(1.38597,-0.0480542,0.0479437,1.38917,1861.79,846.253)">
            <path d="M0,-40.864L-12.649,-38.683L-21.416,-38.683L-32.804,-34.592L-41.814,-31.093L-51.662,-27.283L-59.148,-21.372L-63.565,-14.881L-59.71,-11.345L-43.743,-7.205L-35.985,-2.318L-31.782,0L-21.573,0L-14.88,-4.766L-8.312,-15.871L-2.609,-28.416L0,-38.951L0,-40.864Z" style="fill:rgb(245,247,251);fill-rule:nonzero;"/>
        </g>
        <g transform="matrix(1.38597,-0.0480542,0.0479437,1.38917,1848.66,650.421)">
            <path d="M0,99.101L-13.867,102.003L-28.216,105.167L-44.223,113.828L-51.394,100.511L-63.227,84.798L-78.569,68.114L-82.804,63.33L-95.445,53.72L-114.727,40.626L-130.14,34.439L-146.221,29.451L-157.955,28.105L-169.158,26.144L-184.416,26.144L-170.897,14.656L-142.608,0.12L-112.372,-10.248L-84.376,-13.567L-61.127,-14.727L-44.314,-14.095L-37,-12.675L-27.931,-2.12L-21.944,5.961L-10.794,30.99L-7.441,42.042L-3.531,63.306C-3.531,63.306 0.335,85.451 -0.634,85.249C-1.603,85.047 0,99.101 0,99.101" style="fill:rgb(245,247,251);fill-rule:nonzero;"/>
        </g>
        <g transform="matrix(1.38597,-0.0480542,0.0479437,1.38917,1598.61,835.254)">
            <path d="M0,-101.618L12.073,-100.291L27.021,-99.651L43.66,-95.634L60.444,-89.9L83.217,-77.11L101.07,-63.354L113.619,-51.908L124.408,-38.347L131.907,-26.395L135.931,-21.463L140.23,-15.74L137.074,-12.299L131.074,-6.903L125.824,-0.412L122.705,0L111.313,-2.847L82.139,-9.523L50.243,-16.934L19.49,-23.779L-6.521,-28.681L-33.884,-32.714L-47.975,-35.177L-42.812,-50.535L-28.01,-71.417L-14.7,-89.118L0,-101.618Z" style="fill:rgb(113,139,198);fill-rule:nonzero;"/>
        </g>
        <g transform="matrix(1.38597,-0.0480542,0.0479437,1.38917,1833.15,638.885)">
            <path d="M0,-46.552L7.541,-45.882L26.164,-28.97L26.164,-12.642L21.853,0L13.082,-0.98L-0.762,-4.975L-0.762,-23.659C-0.762,-23.659 -1.763,-36.42 -0.888,-36.979C-0.013,-37.538 0.123,-45.552 0.123,-45.552" style="fill:rgb(245,247,251);fill-rule:nonzero;"/>
        </g>
        <g transform="matrix(1.38597,-0.0480542,0.0479437,1.38917,1868.91,651.401)">
            <path d="M0,-37.495L0,-21.167L-2.306,-14.407L-4.312,-8.525L1.863,-6.455L16.377,-2.528L24.711,0L24.711,-2.528L21.677,-9.947L10.199,-27.833L2.711,-33.833L0,-37.495Z" style="fill:rgb(113,139,198);fill-rule:nonzero;"/>
        </g>
        <g transform="matrix(1.38597,-0.0480542,0.0479437,1.38917,1231.09,653.018)">
            <path d="M0,58.188L-9.898,47.237L-28.235,31.696L-51.831,14.737L-72.128,3.106L-82.619,-2.023L-89.47,3.413L-97.528,12.209L-110.611,25.392L-122.399,39.619L-128.938,49.81L-132.625,52.806L-120.188,50.737L-101.938,48.737L-82.619,48.785L-63.188,49.987L-34.099,54.5L-16.377,58.3L-4.891,60.211L-0.176,59.404L1.339,57.742" style="fill:rgb(245,247,251);fill-rule:nonzero;"/>
        </g>
        <g transform="matrix(1.38597,-0.0480542,0.0479437,1.38917,1110.09,645.373)">
            <path d="M0,-72.736L-10.659,-69.189L-21.581,-65.212L-31.178,-60.087L-38.832,-55.092L-44.576,-52.715L-43.449,-44.712L-35.816,-21.883L-30.364,-9.044L-2.678,0L-3.817,-19.194L0.305,-48.154L3.081,-56.985L1.956,-66.128L0,-72.736Z" style="fill:rgb(113,139,198);fill-rule:nonzero;"/>
        </g>
        <g transform="matrix(1.38597,-0.0480542,0.0479437,1.38917,1046.56,638.778)">
            <path d="M0,-45.668L-5.448,-41.598L-10.812,-34.924L-17.897,-30.249L-22.202,-25.466C-22.202,-25.466 -25.312,-18.627 -25.562,-18.401C-25.812,-18.174 -30.312,-10.927 -30.312,-10.927L-16.812,-6.924L1.04,-4.637L15.188,0L12.438,-9.174L5.438,-28.674L1.438,-40.674L0,-45.668Z" style="fill:rgb(245,247,251);fill-rule:nonzero;"/>
        </g>
        <g transform="matrix(1.38597,-0.0480542,0.0479437,1.38917,1114.84,733.675)">
            <path d="M0,-57.117C0.152,-58.486 -10.204,-62.865 -10.204,-62.865L-38.457,-72.16L-62.656,-78.356L-79.288,-80.859L-91.656,-82.8L-99.156,-82.8L-99.156,-80.859L-103.105,-69.932L-107.664,-57.117L-111.907,-42.168L-115.209,-26.814L-117.056,-15.16L-118.766,1.756L-117.656,9.63L-104.893,15.755L-92.713,25.683L-89.406,22.894L-81.406,15.144L-69.479,7.715L-45.287,-2.287L-43.367,-6.851L-29.406,-24.856L-14.406,-40.856L-4.906,-50.606L0.001,-54.609L0,-57.117Z" style="fill:rgb(113,139,198);fill-rule:nonzero;"/>
        </g>
        <g transform="matrix(1.38597,-0.0480542,0.0479437,1.38917,989.083,817.62)">
            <path d="M0,-32.578C0,-31.538 -3.208,-22.341 -4.632,-23.3C-6.056,-24.259 -10.406,-12.452 -10.406,-12.452L-14.205,1.88L-17.104,12.269L-17.104,15.014L-22.193,15.014L-30.793,12.599L-42.841,3.89L-50.113,-2.078L-45.955,-14.175L-30.745,-47.592L-18.163,-42.828L-3.753,-35.333L0,-32.578Z" style="fill:rgb(64,92,170);fill-rule:nonzero;"/>
        </g>
        <g transform="matrix(1.38597,-0.0480542,0.0479437,1.38917,966.391,890.371)">
            <path d="M0,-36.295L-1.586,-25.271L0.572,-10.807L3.715,5.711L4.716,15.023L0,17.524L-11.03,17.524L-26.874,13.518L-44.192,1.681L-42.459,-12.166L-37.489,-34.616L-30.822,-53.819L-24.679,-47.851L-11.28,-38.819L1.059,-36.728" style="fill:rgb(245,247,251);fill-rule:nonzero;"/>
        </g>
        <g transform="matrix(1.38597,-0.0480542,0.0479437,1.38917,973.929,969.066)">
            <path d="M0,-41.088L10.056,-13.33L6.486,-9.149L0,-0.338L-5.062,11.999L-8.505,15.092L-13.255,17.384L-23.213,16.801L-42.531,9.313L-50.799,3.465L-52.033,-15.088C-52.033,-15.088 -46.633,-58.472 -47.819,-57.905C-49.005,-57.338 -40.505,-49.588 -40.505,-49.588L-28.547,-43.251L-18.357,-39.723L-9.255,-39.588L0,-41.088Z" style="fill:rgb(113,139,198);fill-rule:nonzero;"/>
        </g>
        <g transform="matrix(1.38597,-0.0480542,0.0479437,1.38917,906.8,1066.46)">
            <path d="M0,-64.885L0,-50.967L0.166,-37.335L3.132,-22.689L6.794,-9.939L9.328,-1.19L15.532,0L22.252,-5.189L27.702,-13.682L35.867,-24.338L45.027,-54.51C45.027,-54.51 39.808,-53.224 39.426,-52.956C39.044,-52.689 33.044,-51.189 33.044,-51.189L21.714,-52.956L12.875,-56.475L5.044,-61.439L0,-64.885Z" style="fill:rgb(245,247,251);fill-rule:nonzero;"/>
        </g>
        <g transform="matrix(1.38597,-0.0480542,0.0479437,1.38917,954.742,765.156)">
            <path d="M0,-104L-23.248,-102.199L-38.512,-101.592C-41.887,-101.142 -45.234,-100.523 -48.552,-99.708C-53.993,-98.373 -59.826,-97.145 -64.855,-94.617C-68.824,-92.623 -72.689,-90.508 -76.796,-88.804C-77.612,-88.465 -78.362,-88.361 -79.038,-88.429L-80.635,-77.212L-80.635,-60.5L-79.122,-39.5L-75.146,-17.948L-69.292,0L-48.25,-7L-25.542,-9.5L-5.298,-8.255L-2.61,-11.75L-0.75,-36.25L6.75,-70.75L17.821,-99.502L18.811,-102.509L0,-104Z" style="fill:rgb(245,247,251);fill-rule:nonzero;"/>
        </g>
        <g transform="matrix(1.38597,-0.0480542,0.0479437,1.38917,846.469,707.35)">
            <path d="M0,18.491L-3.433,-7.739L-3.609,-37.989L-2.194,-46.52C-6.618,-44.292 -10.604,-42.771 -14.735,-39.831C-17.839,-37.621 -21.051,-35.394 -24.387,-33.547C-27.268,-31.951 -30.702,-30.958 -33.25,-28.828C-35.101,-27.281 -37.265,-27.318 -38.978,-28.185C-43.564,-25.322 -48.033,-22.208 -51.856,-18.797C-57.462,-13.796 -65.529,-8.221 -68.339,-1.035C-69.47,1.856 -72.577,2.953 -74.998,2.221L-73.873,12.699L-69.639,27.064L-61.629,42.261L-55.434,55.428L-47.981,65.011L7.298,44.261L0,18.491Z" style="fill:rgb(113,139,198);fill-rule:nonzero;"/>
        </g>
        <g transform="matrix(1.38597,-0.0480542,0.0479437,1.38917,673.351,783.849)">
            <path d="M0,-11.176L-2.046,-3.181L-0.382,8.216L5.603,21.845C5.603,21.845 11.732,28.5 12.208,28.876C12.684,29.252 22.084,34.301 22.084,34.301L31.267,37.25L44.78,28.887L60.551,23.024L80.548,15.447L72.238,6.38L60,-16.426L52.236,-43.131L51.384,-45.926L50.75,-48.426L0,-11.176Z" style="fill:rgb(245,247,251);fill-rule:nonzero;"/>
        </g>
        <g transform="matrix(1.38597,-0.0480542,0.0479437,1.38917,609.122,790.146)">
            <path d="M0,53.676C0.599,54.395 10.081,60.207 10.081,60.207L28,64.233L42.396,58.774L60.349,47.439L78.193,33.398L64.401,29.6L52.693,19.898L49.062,12.937L44.397,-6.107L44.686,-10.557C44.686,-10.557 31.894,-2.81 19.444,18.842C9.11,36.815 -0.272,53.35 0,53.676" style="fill:rgb(113,139,198);fill-rule:nonzero;"/>
        </g>
        <g transform="matrix(1.38597,-0.0480542,0.0479437,1.38917,613.147,781.288)">
            <path d="M0,54.346L0.143,50.42C0.143,50.42 39.252,-6.546 40.254,-6.404C40.744,-6.336 39.907,-1.476 40.523,3.162C41.169,8.02 46.486,18.513 45.046,18.885C42.23,19.614 -2.271,60.892 -2.271,60.892L0,54.346Z" style="fill:rgb(64,92,170);fill-rule:nonzero;"/>
        </g>
        <g transform="matrix(1.38597,-0.0480542,0.0479437,1.38917,745.238,800.782)">
            <path d="M0,-63.94L0.945,-55.516L1.753,-48.315L5.017,-39.29C3.31,-41.677 -49.577,0 -49.577,0L-52.725,-15.093L-54.374,-20.393L-48.509,-26.768L0,-63.94" style="fill:rgb(216,216,216);fill-rule:nonzero;"/>
        </g>
        <g transform="matrix(1.38597,-0.0480542,0.0479437,1.38917,840.953,724.883)">
            <path d="M0,-45.542L2.078,-58.438C-0.846,-57.011 -3.76,-55.583 -6.795,-54.386C-7.421,-54.139 -8.073,-54.081 -8.709,-54.167C-11.134,-52.98 -13.523,-51.73 -15.726,-50.14C-16.446,-49.62 -17.287,-49.401 -18.138,-49.413C-22.514,-47.056 -26.766,-44.459 -30.588,-41.297C-31.908,-40.206 -33.382,-39.916 -34.741,-40.147C-34.889,-40.029 -35.04,-39.915 -35.187,-39.795C-35.32,-38.848 -35.794,-37.897 -36.713,-37.047C-39.47,-34.497 -42.3,-32.029 -45.204,-29.646C-47.724,-27.579 -50.74,-25.563 -52.557,-22.809C-54.104,-20.463 -56.634,-20.104 -58.691,-20.895C-58.899,-20.535 -59.091,-20.166 -59.307,-19.809C-60.424,-17.963 -62.32,-17.303 -64.118,-17.505C-64.131,-17.486 -64.149,-17.472 -64.162,-17.452C-64.378,-16.575 -64.809,-15.709 -65.463,-15.172C-65.528,-15.119 -65.582,-15.055 -65.64,-14.996C-66.144,-14.288 -66.623,-13.56 -67.057,-12.809C-67.872,-11.397 -69.328,-10.556 -70.865,-10.391L-70.865,-4.913L-69.112,3.871L-65.849,12.896L-65.094,12.008C-65.094,12.008 -2.157,-19.759 1.177,-17.447L0.569,-27.946L0,-45.542Z" style="fill:rgb(64,92,170);fill-rule:nonzero;"/>
        </g>
        <g transform="matrix(1.38597,-0.0480542,0.0479437,1.38917,921.291,697.831)">
            <path d="M0,-52.204L-17.114,-51.487C-22.686,-50.339 -28.333,-49.556 -33.873,-48.135C-37.809,-47.126 -41.512,-45.704 -45.169,-43.943C-47.666,-42.741 -50.825,-42.004 -52.782,-39.975C-54.122,-38.586 -55.689,-38.249 -57.112,-38.576L-58.292,-19.515L-58.569,-4.167L-57.392,0C-35.108,-14.133 28.417,-18.152 28.417,-18.152L33.363,-34.01L36.6,-41.471L40.542,-50.48L0,-52.204Z" style="fill:rgb(216,216,216);fill-rule:nonzero;"/>
        </g>
        <g transform="matrix(1.38597,-0.0480542,0.0479437,1.38917,977.232,688.647)">
            <path d="M0,-45.93L-3.657,-35.277L-9.737,-20.893L-11.103,-12.995C-11.103,-12.995 47.687,-15.999 76.07,0.827C76.471,1.065 78.972,-0.401 78.972,-0.401L86.154,-6.982L94.037,-15.85L98.532,-19.932L96.553,-22.763L79.202,-29.902L52.242,-38.763C52.242,-38.763 30.28,-43.196 29.846,-43.582C29.413,-43.968 13.174,-45.93 13.174,-45.93L4.507,-46.995L0,-45.93Z" style="fill:rgb(64,92,170);fill-rule:nonzero;"/>
        </g>
        <g transform="matrix(1.38597,-0.0480542,0.0479437,1.38917,1115.6,736.243)">
            <path d="M0,-57.05L-20.692,-36.818C-20.692,-36.818 25.493,-14.273 29.575,-7.149L33.235,-5.515L82.73,2.099L76.057,-8.992L37.458,-39.863C37.458,-39.863 5.644,-58.817 5.222,-58.983C4.799,-59.149 0.717,-58.983 0.717,-58.983L0,-57.05Z" style="fill:rgb(216,216,216);fill-rule:nonzero;"/>
        </g>
        <g transform="matrix(1.38597,-0.0480542,0.0479437,1.38917,1107.76,604.898)">
            <path d="M0,-42.529C-0.703,-42.366 -42.869,-22.834 -43.908,-22.834C-44.948,-22.834 -37.413,0 -37.413,0C-37.413,0 -8.331,-23.917 0.973,-18.994L2.486,-24.724C2.486,-24.724 4.825,-32.372 4.313,-32.372C3.801,-32.372 2.705,-38.448 2.382,-38.661C2.06,-38.873 0,-42.529 0,-42.529" style="fill:rgb(64,92,170);fill-rule:nonzero;"/>
        </g>
        <g transform="matrix(1.38597,-0.0480542,0.0479437,1.38917,1054.54,597.163)">
            <path d="M0,6.888C0,6.888 -10.26,16.465 -11.386,21.251C-11.386,21.251 -16.876,20.688 -17.298,21.251C-17.721,21.814 -36.768,18.268 -36.768,18.268L-34.332,9.139L-6.784,-14.926L-4.488,-7.466L0,6.888Z" style="fill:rgb(216,216,216);fill-rule:nonzero;"/>
        </g>
        <g transform="matrix(1.38597,-0.0480542,0.0479437,1.38917,967.666,822.804)">
            <path d="M0,-44.669C0,-44.669 -19.008,-2.117 -20.365,5.357L-33.422,-4.345L-31.812,-19.656L-17.481,-50.026L-7.876,-48.019L2.117,-45.353L0,-44.669Z" style="fill:rgb(64,92,170);fill-rule:nonzero;"/>
        </g>
        <g transform="matrix(1.38597,-0.0480542,0.0479437,1.38917,941.779,891.551)">
            <path d="M0,-43.426C0,-43.426 -10.352,2.439 -10.556,11.561L-19.702,5.55L-26.579,-1.371C-26.579,-1.371 -23.442,-17.55 -23.521,-18.383C-23.6,-19.215 -14.185,-54.987 -14.185,-54.987L-11.906,-52.923L-5.944,-45.292L-3.048,-45.292L0,-43.426Z" style="fill:rgb(216,216,216);fill-rule:nonzero;"/>
        </g>
        <g transform="matrix(1.38597,-0.0480542,0.0479437,1.38917,929.864,970.715)">
            <path d="M0,-45.06C0,-45.06 -5.349,-1.568 -3.351,12.088L-11.203,8.571C-11.203,8.571 -17.769,4.428 -19.003,3.378C-20.237,2.328 -16.955,-34.973 -17.887,-34.999C-18.819,-35.025 -16.726,-53.239 -16.726,-53.239L-15.871,-57.148L-10.983,-51.532L-5.25,-47.634L-2.733,-45.06L0,-45.06Z" style="fill:rgb(64,92,170);fill-rule:nonzero;"/>
        </g>
        <g transform="matrix(1.38597,-0.0480542,0.0479437,1.38917,928.085,1053.88)">
            <path d="M0,-47.666C0,-47.666 -5.436,-19.108 0,6.574L-3.256,9.76L-11.807,-4.897L-16.641,-47.666L-16.886,-57.426L-13.367,-54.191L-5.18,-49.247L0,-47.666Z" style="fill:rgb(216,216,216);fill-rule:nonzero;"/>
        </g>
        <g transform="matrix(1.38597,-0.0480542,0.0479437,1.38917,1577.01,702.31)">
            <path d="M0,64.173C0,64.173 26.84,8.309 55.92,0.491L39.281,-3.527L12.645,-4.392L0,4.931L-21.007,31.539L-31.666,47.837L-35.715,60.948L-20.5,63.173L-2,68.565L0,64.173Z" style="fill:rgb(183,199,231);fill-rule:nonzero;"/>
        </g>
        <g transform="matrix(1.38597,-0.0480542,0.0479437,1.38917,1649.72,636.294)">
            <path d="M0,46.723C0,46.723 60.114,8.297 123.911,26.061C124.291,26.167 121.458,20.076 121.458,20.076L103.732,0.719L76.303,0L45.955,3.054L17.778,9.282L-3.521,17.257L-22.168,26.121L-37.366,36.613L-41.397,41.261L-19.542,41.826L-3.202,44.568L0,46.723Z" style="fill:rgb(245,247,251);fill-rule:nonzero;"/>
        </g>
        <g transform="matrix(1.38597,-0.0480542,0.0479437,1.38917,1822.46,659.317)">
            <path d="M0,5.202C0,5.202 80.797,16.717 83.922,25.342L78.035,3.17L45.922,-7.033L13.047,-15.283L-16.578,-20.14L-19.358,-19.245C-19.358,-19.245 -8.828,-7.158 -8.328,-7.033C-7.828,-6.908 -2.328,0.467 -2.328,0.467L0,5.202Z" style="fill:rgb(183,199,231);fill-rule:nonzero;"/>
        </g>
        <g transform="matrix(1.38597,-0.0480542,0.0479437,1.38917,1833.54,621.681)">
            <path d="M0,-30.875C0.125,-30.5 0,-15.245 0,-15.245C0,-15.245 23.625,-7.375 24.25,0C24.25,0 23.752,-11.25 24.25,-11.75C24.748,-12.25 20.437,-20.25 20.437,-20.25C20.437,-20.25 8.625,-29.875 8.125,-30C7.625,-30.125 3,-30.875 3,-30.875L0,-30.875Z" style="fill:rgb(245,247,251);fill-rule:nonzero;"/>
        </g>
        <g transform="matrix(1.38597,-0.0480542,0.0479437,1.38917,1867.52,631.347)">
            <path d="M0,-7.797C0,-7.797 8.5,2.953 9.75,7.953C11,12.953 17.719,12.181 17.719,12.181L26.125,12.724C26.125,12.724 23.594,6.653 23.172,5.928C22.75,5.203 10.697,-11.747 10.697,-11.747C10.697,-11.747 0.333,-20.594 0.04,-20.672C-0.253,-20.75 0.04,-16.075 0.04,-16.075L0.498,-10.797L0,-7.797Z" style="fill:rgb(183,199,231);fill-rule:nonzero;"/>
        </g>
        <g transform="matrix(1.38597,-0.0480542,0.0479437,1.38917,1940.76,712.852)">
            <path d="M0,-16.099C0,-16.099 72.75,11.026 74,22.651L75.086,22.651L77.391,3.526L52.673,-13.994L31.75,-24.224L-6.084,-38.75L-6.5,-36.724L-3.375,-30.349L-1,-20.599L0,-16.099Z" style="fill:rgb(245,247,251);fill-rule:nonzero;"/>
        </g>
        <g transform="matrix(1.38597,-0.0480542,0.0479437,1.38917,2051.72,848.335)">
            <path d="M0,-96.152L-0.679,-84.412L-0.679,-78.402L-1.509,-77.527C-1.509,-77.527 58.647,-10.472 55.589,0L59.618,-8.325C59.618,-8.325 63.155,-20.859 62.28,-20.777C61.405,-20.695 53.681,-36.921 53.681,-36.921L32.53,-64.027L16.28,-84.152L3.405,-94.527L0,-96.152Z" style="fill:rgb(183,199,231);fill-rule:nonzero;"/>
        </g>
        <g transform="matrix(1.38597,-0.0480542,0.0479437,1.38917,2132.18,944.597)">
            <path d="M0,-71.217C0,-71.217 28.441,8.006 26.316,15.256L28.978,16.335C28.978,16.335 35.973,5.818 36.005,5.745C36.037,5.672 31.344,-18.628 31.344,-18.628L12.408,-72.232C12.408,-72.232 6.113,-87.552 5.981,-87.004C5.85,-86.456 3.816,-83.619 3.816,-83.619C3.816,-83.619 2.566,-77.994 2.441,-77.619C2.316,-77.244 0,-71.217 0,-71.217" style="fill:rgb(245,247,251);fill-rule:nonzero;"/>
        </g>
        <g transform="matrix(1.38597,-0.0480542,0.0479437,1.38917,1999.28,860.547)">
            <path d="M0,78.125C0,78.125 -4.625,16 -11,15.125C-11,15.125 -9.342,9.822 -9.25,9.5C-9.158,9.178 -3.758,0.125 -3.758,0.125L-1.547,-0.75L1.305,3.151L9.182,37.437L11.473,63.75C11.473,63.75 9.397,71.742 9.625,72.75C9.853,73.758 7,77.75 7,77.75L0.236,78.875L0,78.125Z" style="fill:rgb(183,199,231);fill-rule:nonzero;"/>
        </g>
        <g transform="matrix(1.38597,-0.0480542,0.0479437,1.38917,1981.86,798.112)">
            <path d="M0,59.45C0,59.45 -22.84,21.325 -30.92,19.7L-29.307,14.907L-21.146,0L-11.004,1.914L-3.358,5.978L5.774,30.905L7.242,39.883L7.005,43.327C7.005,43.327 2.125,51.45 2.125,52.075C2.125,52.7 0,59.45 0,59.45" style="fill:rgb(245,247,251);fill-rule:nonzero;"/>
        </g>
        <g transform="matrix(1.38597,-0.0480542,0.0479437,1.38917,1938.62,788.471)">
            <path d="M0,25.841C0,25.841 -16.219,6.661 -24.955,3.084C-33.691,-0.493 -10.455,2.084 -10.455,2.084L7.545,5.459L8.045,7.18L7.328,11.096L4.722,17.237L2.293,21.869L0,26.334" style="fill:rgb(183,199,231);fill-rule:nonzero;"/>
        </g>
        <g transform="matrix(1.38597,-0.0480542,0.0479437,1.38917,1349.52,1020.94)">
            <path d="M0,-190.487C0,-190.487 18.219,-167.584 48.719,-163.084C58.963,-161.573 69.629,-159.146 79.277,-156.59C98.354,-151.535 112.891,-150.005 112.891,-150.005L149.141,-145.973L179.719,-143.084C179.719,-143.084 260.775,-134.957 298.549,-113.722C307.621,-108.622 320.409,-97.875 323.05,-95.706C327.45,-92.091 332.261,-81.854 333.77,-78.074C341.012,-59.934 335.471,-47.459 328.72,-35.084C319.719,-18.584 311.303,-5.581 311.303,-5.581L317.697,0L327.379,-10.121L333.7,-16.244L343.229,-30.808L354.641,-57.591L355.908,-90.554L339.408,-116.225L308.184,-127.133L211.655,-149.792L75.516,-172.584L18.611,-185.679L0,-190.487Z" style="fill:rgb(183,199,231);fill-rule:nonzero;"/>
        </g>
        <g transform="matrix(1.38597,-0.0480542,0.0479437,1.38917,1090.06,1037.44)">
            <path d="M0,-222.428C0,-222.428 -68.491,-182.953 -43.282,-100.468C-32.027,-63.641 -21.405,-42.115 -13.094,-29.569C-10.934,-26.308 -8.93,-23.654 -7.112,-21.494C-0.256,-13.355 2.056,-13.159 2.056,-13.159L-8.491,-6.146L-17.241,0.479L-33.558,-9.543L-50.322,-25.488L-69.628,-62.198L-79.157,-92.615L-84.087,-133.931L-78.96,-165.934L-71.93,-182.646L-61.888,-194.823L-55.72,-202.019L-50.324,-206.812L-35.824,-215.062L-22.244,-219.02L-10.79,-221.664L-2.601,-222.907L0,-222.428Z" style="fill:rgb(64,92,170);fill-rule:nonzero;"/>
        </g>
        <g transform="matrix(1.38597,-0.0480542,0.0479437,1.38917,1048.85,956.163)">
            <path d="M0,2.203C0,2.203 7.758,11.959 21.953,6.653C65.164,-9.499 162.559,-54.894 238.28,-49.957C338.878,-43.398 491.34,-25.175 505.104,15.961C518.869,57.097 516.809,-29.105 500.787,-37.65L516.946,-20.594L523.169,4.38L520.578,18.777L514.715,31.643L511.682,39.204L500.827,33.431L473.386,25.264L425.364,1.416L381.589,-10.018L345.001,-19.818L285.877,-26.024L236.549,-27.657L200.94,-23.737L166.644,-19.167L126.506,-9.201L103.977,-3.255L92.178,-0.94L76.932,5.446L59.674,11.776L52.119,17.753L49.338,21.415L40.307,39.571L28.984,46.781L-5.189,20.325L0,2.203Z" style="fill:rgb(64,92,170);fill-rule:nonzero;"/>
        </g>
        <g transform="matrix(1.38597,-0.0480542,0.0479437,1.38917,1005.66,768.134)">
            <path d="M0,87.767L8.426,86.311C8.426,86.311 31.865,1.682 113.469,1.302L99.097,0L78.496,0.912L63.279,4.591L51.112,7.823L39.769,13.447L5.937,39.254L-1.422,47.854L-11.818,65.565C-11.818,65.565 -7.839,76.349 -7.454,76.349C-7.069,76.349 -1.806,86.311 -1.806,86.311L0,87.767Z" style="fill:rgb(64,92,170);fill-rule:nonzero;"/>
        </g>
        <g>
            <g transform="matrix(1.38597,-0.0480542,0.0479437,1.38917,1438.89,969.509)">
                <path d="M0,-142.059C-30.191,-148.21 -59.775,-156.885 -89.705,-164.138C-120.301,-171.553 -151.427,-176.798 -182.497,-181.785C-198.387,-184.335 -214.203,-186.78 -230.334,-186.888C-245.302,-186.989 -260.365,-184.996 -274.891,-181.433C-300.02,-175.269 -320.693,-158.453 -332.292,-135.451C-347.313,-105.663 -343.532,-70.198 -333.638,-39.484C-331,-31.296 -327.782,-23.3 -324.234,-15.466C-321.099,-8.544 -317.881,0.348 -312.483,5.745C-309.273,8.955 -307.162,13.742 -304.343,17.383C-301.432,21.145 -298.112,24.575 -294.649,27.827C-287.973,34.097 -280.377,39.297 -272.404,43.766C-270.328,44.93 -265.163,42.083 -267.903,40.547C-279.788,33.886 -290.454,25.549 -299.02,14.897C-301.025,12.403 -302.815,9.746 -304.52,7.041C-306.099,4.537 -308.419,2.588 -309.829,0.055C-312.931,-5.517 -315.774,-11.226 -318.438,-17.019C-328.427,-38.739 -335.482,-62.37 -336.393,-86.366C-337.294,-110.133 -330.821,-133.611 -315.564,-152.112C-295.163,-176.851 -260.992,-183.085 -230.49,-182.879C-211.245,-182.749 -192.163,-179.065 -173.236,-175.947C-153.226,-172.65 -133.209,-169.177 -113.359,-165.015C-76.427,-157.271 -40.375,-145.864 -3.394,-138.33C-1.063,-137.856 3.479,-141.351 0,-142.059" style="fill:rgb(48,50,61);fill-rule:nonzero;"/>
            </g>
            <g transform="matrix(1.38597,-0.0480542,0.0479437,1.38917,1105.31,568.004)">
                <path d="M0,57.738C-2.114,37.779 2.292,18.201 6.112,-1.272C6.468,-3.087 0.687,-2.087 0.356,-0.4C-3.507,19.293 -7.933,39.111 -5.796,59.291C-5.633,60.825 0.199,59.619 0,57.738" style="fill:rgb(48,50,61);fill-rule:nonzero;"/>
            </g>
            <g transform="matrix(1.38597,-0.0480542,0.0479437,1.38917,1132.74,566.358)">
                <path d="M0,-13.824C-6.597,-12.006 -12.515,-8.271 -16.968,-3.075C-19.391,-0.247 -13.896,0.993 -12.06,-1.149C-8.591,-5.197 -3.994,-8.132 1.146,-9.549C4.742,-10.54 3.604,-14.817 0,-13.824" style="fill:rgb(48,50,61);fill-rule:nonzero;"/>
            </g>
            <g transform="matrix(1.38597,-0.0480542,0.0479437,1.38917,1136.03,671.354)">
                <path d="M0,-87.772C-2.852,-82.763 -1.074,-75.045 -0.413,-69.629C0.797,-59.709 3.483,-50.161 6.829,-40.772C9.952,-32.009 13.362,-23.415 17.603,-15.126C20.441,-9.578 22.229,-2.649 27.667,1.007C29.5,2.24 34.753,-0.348 32.209,-2.059C27.238,-5.402 25.519,-12.534 22.914,-17.625C18.838,-25.591 15.643,-33.914 12.625,-42.326C9.841,-50.083 7.614,-57.885 6.162,-66.005C5.159,-71.617 2.458,-82.105 5.467,-87.387C6.961,-90.012 1.089,-89.685 0,-87.772" style="fill:rgb(48,50,61);fill-rule:nonzero;"/>
            </g>
            <g transform="matrix(1.38597,-0.0480542,0.0479437,1.38917,1172.69,685.586)">
                <path d="M0,-10.067C-1.095,-6.946 -1.476,-3.715 -1.637,-0.426C-1.763,2.146 4.075,1.033 4.178,-1.077C4.339,-4.366 4.72,-7.597 5.815,-10.718C6.277,-12.035 3.971,-12.213 3.267,-12.134C1.983,-11.99 0.459,-11.376 0,-10.067" style="fill:rgb(48,50,61);fill-rule:nonzero;"/>
            </g>
            <g transform="matrix(1.38597,-0.0480542,0.0479437,1.38917,1180.79,630.956)">
                <path d="M0,27.725C3.078,23.517 8.507,21.285 13.1,19.151C19.498,16.179 25.823,13.075 32.337,10.358C46.013,4.655 61.026,1.244 75.856,1.1C77.878,1.08 82.073,-2.018 78.166,-1.98C61.689,-1.82 45.351,2.059 30.109,8.207C22.808,11.152 15.742,14.691 8.626,18.052C3.585,20.433 -1.99,23.111 -5.364,27.724C-6.84,29.743 -1.039,29.145 0,27.725" style="fill:rgb(48,50,61);fill-rule:nonzero;"/>
            </g>
            <g transform="matrix(1.38597,-0.0480542,0.0479437,1.38917,1309.75,625.274)">
                <path d="M0,-115.4C-8.169,-98.333 -11.111,-79.05 -14.601,-60.604C-18.386,-40.602 -20.983,-20.413 -18.647,-0.074C-18.367,2.367 -12.552,0.978 -12.851,-1.627C-15.075,-20.985 -12.599,-40.184 -9.108,-59.234C-5.69,-77.893 -2.754,-97.674 5.495,-114.908C6.864,-117.767 1.012,-117.515 0,-115.4" style="fill:rgb(48,50,61);fill-rule:nonzero;"/>
            </g>
            <g transform="matrix(1.38597,-0.0480542,0.0479437,1.38917,1209.99,554.383)">
                <path d="M0,-96.656C-21.224,-65.618 -42.598,-34.45 -56.649,0.639C-57.028,1.586 -51.521,1.053 -50.938,-0.402C-36.887,-35.491 -15.513,-66.66 5.711,-97.697C6.084,-98.242 0.952,-98.047 0,-96.656" style="fill:rgb(48,50,61);fill-rule:nonzero;"/>
            </g>
            <g transform="matrix(1.38597,-0.0480542,0.0479437,1.38917,1214.75,458.052)">
                <path d="M0,-26.227C2.707,-28.361 10.757,-24.73 13.717,-23.862C20.641,-21.832 27.631,-20.121 34.506,-17.907C46.609,-14.009 57.893,-7.841 65.251,2.821C66.41,4.501 72.021,2.541 70.623,0.515C61.61,-12.544 47.26,-18.367 32.625,-22.852C25.318,-25.092 17.89,-27.14 10.487,-29.044C5.332,-30.37 -0.299,-30.728 -4.674,-27.28C-7.31,-25.202 -1.516,-25.032 0,-26.227" style="fill:rgb(48,50,61);fill-rule:nonzero;"/>
            </g>
            <g transform="matrix(1.38597,-0.0480542,0.0479437,1.38917,1249.38,418.583)">
                <path d="M0,-66.149C-2.827,-61.254 -4.755,-55.88 -7.161,-50.773C-9.67,-45.445 -12.92,-40.478 -15.724,-35.306C-21.543,-24.573 -25.169,-12.445 -28.009,-0.623C-28.69,2.215 -22.754,1.519 -22.136,-1.056C-19.365,-12.591 -15.662,-24.073 -10.179,-34.628C-7.46,-39.86 -4.26,-44.818 -1.616,-50.094C0.921,-55.157 2.709,-60.559 5.545,-65.47C7.179,-68.299 1.279,-68.364 0,-66.149" style="fill:rgb(48,50,61);fill-rule:nonzero;"/>
            </g>
            <g transform="matrix(1.38597,-0.0480542,0.0479437,1.38917,1255.35,542.902)">
                <path d="M0,-157.741C-15.038,-148.946 -27.379,-136.251 -39.259,-123.698C-52.189,-110.036 -65.105,-96.362 -78.021,-82.686C-83.054,-77.357 -86.631,-70.527 -90.65,-64.395C-94.88,-57.943 -98.97,-51.408 -102.498,-44.54C-109.479,-30.952 -112.913,-15.989 -109.119,-0.937C-108.469,1.641 -102.67,0.102 -103.323,-2.49C-106.982,-17.005 -103.507,-30.839 -96.981,-43.969C-93.778,-50.413 -89.887,-56.508 -85.974,-62.537C-81.963,-68.715 -78.264,-75.747 -73.205,-81.104C-61.168,-93.848 -49.13,-106.592 -37.083,-119.326C-25.035,-132.061 -12.769,-145.557 2.52,-154.499C5.918,-156.486 2.805,-159.382 0,-157.741" style="fill:rgb(48,50,61);fill-rule:nonzero;"/>
            </g>
            <g transform="matrix(1.38597,-0.0480542,0.0479437,1.38917,1470.6,459.875)">
                <path d="M0,-51.672C-12.485,-53.907 -24.708,-51.393 -36.837,-48.394C-49.423,-45.281 -61.848,-40.034 -73.315,-34.044C-78.92,-31.116 -84.174,-27.59 -89.765,-24.625C-95.294,-21.692 -100.831,-18.826 -106.055,-15.365C-109.388,-13.157 -112.817,-10.573 -115.289,-7.399C-116.979,-5.228 -119.831,-2.269 -120.312,0.542C-120.602,2.235 -114.84,1.196 -114.57,-0.382C-113.669,-5.641 -106.754,-11.158 -102.902,-13.992C-94.437,-20.221 -84.438,-24.152 -75.539,-29.709C-65.263,-36.124 -53.836,-40.591 -42.383,-44.411C-30.093,-48.51 -16.592,-51.357 -3.688,-49.047C-2.262,-48.792 3.055,-51.125 0,-51.672" style="fill:rgb(48,50,61);fill-rule:nonzero;"/>
            </g>
            <g transform="matrix(1.38597,-0.0480542,0.0479437,1.38917,1466.25,292.002)">
                <path d="M0,66.477C9.403,42.872 22.506,21.083 34.73,-1.115C35.433,-2.391 29.871,-1.899 28.969,-0.262C16.745,21.937 3.643,43.726 -5.761,67.331C-6.373,68.868 -0.683,68.19 0,66.477" style="fill:rgb(48,50,61);fill-rule:nonzero;"/>
            </g>
            <g transform="matrix(1.38597,-0.0480542,0.0479437,1.38917,1256.58,267.096)">
                <path d="M0,39.678C4.518,33.634 11.271,28.699 17.283,24.208C23.362,19.668 30.35,16.469 37.304,13.53C52.894,6.942 69.383,3.102 86.288,2.273C102.396,1.484 119.161,3.551 134.945,6.625C150.449,9.646 165.501,14.824 179.08,22.959C180.847,24.019 186.152,21.509 183.654,20.012C169.212,11.359 153.211,6.154 136.75,2.947C119.927,-0.33 102.328,-1.96 85.204,-1.121C67.308,-0.243 49.84,4.577 33.4,11.524C25.96,14.668 18.763,18.404 12.281,23.245C5.999,27.936 -0.719,33.104 -5.435,39.412C-7.099,41.638 -1.217,41.306 0,39.678" style="fill:rgb(48,50,61);fill-rule:nonzero;"/>
            </g>
            <g transform="matrix(1.38597,-0.0480542,0.0479437,1.38917,1511.29,328.571)">
                <path d="M0,-25.807C16.936,-26.524 34.653,-24.846 51.183,-21.081C68.767,-17.077 84.01,-7.444 98.218,3.258C100.114,4.686 105.29,1.996 102.726,0.064C87.6,-11.329 71.549,-20.912 52.889,-25.162C36.003,-29.007 17.88,-30.493 0.592,-29.761C-2.587,-29.626 -3.966,-25.64 0,-25.807" style="fill:rgb(48,50,61);fill-rule:nonzero;"/>
            </g>
            <g transform="matrix(1.38597,-0.0480542,0.0479437,1.38917,1408.19,318.24)">
                <path d="M0,-39.092C17.049,-45.345 34.888,-46.404 52.866,-45.027C70.182,-43.7 87.824,-41.071 104.686,-36.897C120.549,-32.969 135.905,-27.038 150.229,-19.172C157.406,-15.229 164.309,-10.995 169.951,-4.999C171.531,-3.32 171.873,-2.142 172.329,0.024C172.633,1.461 173.814,6.061 172.578,7.185C169.672,9.826 174.237,11.97 176.455,9.954C179.899,6.825 178.807,1.708 177.947,-2.372C176.704,-8.272 170.064,-13.066 165.323,-16.18C149.722,-26.432 132.452,-33.948 114.555,-39.145C96.378,-44.424 77.339,-47.136 58.541,-49.033C38.452,-51.062 17.999,-50.214 -1.103,-43.207C-4.534,-41.948 -3.523,-37.8 0,-39.092" style="fill:rgb(48,50,61);fill-rule:nonzero;"/>
            </g>
            <g transform="matrix(1.38597,-0.0480542,0.0479437,1.38917,1648.48,431.918)">
                <path d="M0,-77.529C2.083,-73.287 8.502,-71.515 11.915,-68.481C18.099,-62.985 23.799,-56.895 28.311,-49.942C33.33,-42.204 36.015,-32.403 38.435,-23.591C40.704,-15.322 40.693,-6.592 43.527,1.524C44.218,3.503 49.969,1.822 49.322,-0.029C46.494,-8.127 46.389,-16.863 44.229,-25.144C41.989,-33.74 39.097,-42.683 34.74,-50.456C30.888,-57.329 25.314,-63.186 19.642,-68.577C17.661,-70.46 15.676,-72.212 13.374,-73.681C11.076,-75.148 7.059,-76.51 5.795,-79.082C4.837,-81.032 -0.802,-79.16 0,-77.529" style="fill:rgb(48,50,61);fill-rule:nonzero;"/>
            </g>
            <g transform="matrix(1.38597,-0.0480542,0.0479437,1.38917,1466.27,492.186)">
                <path d="M0,-72.033C10.448,-70.61 20.433,-67.979 29.688,-62.814C39.758,-57.194 49.01,-49.798 58.585,-43.381C66.76,-37.904 74.476,-31.469 81.045,-24.098C88.116,-16.163 93.874,-7.128 99.736,1.704C100.72,3.185 106.352,1.335 105.139,-0.492C99.255,-9.354 93.413,-18.231 86.445,-26.294C79.578,-34.241 71.086,-40.82 62.412,-46.633C53.063,-52.898 44.014,-59.725 34.336,-65.482C25.033,-71.015 14.218,-73.544 3.601,-74.99C1.925,-75.218 -3.206,-72.47 0,-72.033" style="fill:rgb(48,50,61);fill-rule:nonzero;"/>
            </g>
            <g transform="matrix(1.38597,-0.0480542,0.0479437,1.38917,1818.01,311.28)">
                <path d="M0,163.456C0.263,153.875 -3.827,145.32 -7.867,136.869C-12.32,127.553 -15.935,117.852 -20.096,108.401C-28.792,88.651 -37.586,69.487 -50.003,51.744C-55.442,43.971 -61.438,36.653 -67.313,29.213C-73.534,21.333 -79.689,13.868 -88.352,8.562C-92.191,6.211 -96.325,4.33 -100.375,2.376C-103.183,1.022 -107.672,-2.7 -110.817,-2.535C-114.969,-2.316 -120.404,0.24 -122.535,3.827C-123.11,4.795 -117.701,4.409 -116.797,2.888C-115.722,1.078 -113.687,0.303 -111.756,-0.185C-112.756,-0.192 -113.756,-0.2 -114.757,-0.208C-107.912,3.684 -100.605,6.672 -93.791,10.619C-86.545,14.814 -81.002,20.938 -75.811,27.394C-64.858,41.014 -54.08,54.695 -45.147,69.758C-35.961,85.25 -29.106,102.279 -22.045,118.815C-18.809,126.395 -15.764,133.992 -12.224,141.44C-8.671,148.916 -5.564,156.597 -5.795,165.009C-5.826,166.156 -0.051,165.31 0,163.456" style="fill:rgb(48,50,61);fill-rule:nonzero;"/>
            </g>
            <g transform="matrix(1.38597,-0.0480542,0.0479437,1.38917,1714.34,549.263)">
                <path d="M0,-83.489C4.057,-75.768 11.494,-70.827 17.62,-64.898C21.09,-61.54 23.989,-57.591 26.977,-53.813C30.507,-49.349 34.458,-45.429 38.44,-41.38C42.296,-37.459 45.935,-33.327 49.561,-29.196C52.55,-25.789 56.907,-22.196 58.889,-18.108C62.413,-10.838 65.92,-4.161 71.264,2.022C72.635,3.608 78.185,1.507 76.635,-0.286C71.359,-6.391 67.901,-13.023 64.419,-20.207C62.855,-23.434 59.684,-26.063 57.349,-28.738C53.736,-32.876 50.11,-36.999 46.364,-41.017C42.775,-44.867 38.868,-48.398 35.413,-52.373C32.239,-56.026 29.396,-59.959 26.271,-63.653C19.958,-71.113 10.432,-76.218 5.795,-85.042C4.716,-87.097 -0.915,-85.229 0,-83.489" style="fill:rgb(48,50,61);fill-rule:nonzero;"/>
            </g>
            <g transform="matrix(1.38597,-0.0480542,0.0479437,1.38917,1812.38,541.522)">
                <path d="M0,4.7C2.632,3.742 5.366,3.099 8.001,2.14C8.608,1.919 10.5,0.847 9.589,-0.03C8.663,-0.923 6.787,-0.367 5.776,0C3.145,0.958 0.409,1.601 -2.225,2.56C-2.832,2.782 -4.724,3.853 -3.813,4.731C-2.887,5.623 -1.011,5.068 0,4.7" style="fill:rgb(48,50,61);fill-rule:nonzero;"/>
            </g>
            <g transform="matrix(1.38597,-0.0480542,0.0479437,1.38917,1821.59,635.186)">
                <path d="M0,-65.727C7.844,-43.791 3.292,-20.705 2.887,1.949C2.865,3.138 8.648,2.261 8.682,0.396C9.088,-22.258 13.639,-45.345 5.795,-67.28C5.229,-68.865 -0.5,-67.124 0,-65.727" style="fill:rgb(48,50,61);fill-rule:nonzero;"/>
            </g>
            <g transform="matrix(1.38597,-0.0480542,0.0479437,1.38917,1808.08,631.487)">
                <path d="M0,-59.463C-1.518,-49.653 -0.055,-39.694 -1.802,-29.907C-3.624,-19.693 -6.95,-9.804 -8.729,0.431C-9.247,3.413 -3.313,2.698 -2.849,0.023C-1.175,-9.609 1.602,-18.987 3.705,-28.525C5.986,-38.871 4.27,-49.458 5.881,-59.871C6.346,-62.876 0.416,-62.148 0,-59.463" style="fill:rgb(48,50,61);fill-rule:nonzero;"/>
            </g>
            <g transform="matrix(1.38597,-0.0480542,0.0479437,1.38917,1591.39,678.615)">
                <path d="M0,-10.942C2.355,-5.309 7.512,-1.865 12.024,1.928C13.213,2.927 18.324,0.67 17.489,-0.032C13.106,-3.715 8.083,-7.023 5.795,-12.495C5.221,-13.869 -0.429,-11.967 0,-10.942" style="fill:rgb(48,50,61);fill-rule:nonzero;"/>
            </g>
            <g transform="matrix(1.38597,-0.0480542,0.0479437,1.38917,1436.25,661.371)">
                <path d="M0,47.962C11.008,44.517 22.233,41.837 33.275,38.508C44.136,35.233 54.083,29.868 64.94,26.583C74.752,23.614 85.274,20.952 94.186,15.795C98.945,13.041 103.624,10.148 108.345,7.329C111.46,5.469 115.024,4.204 116.94,1.046C118.225,-1.071 112.465,-0.293 111.6,1.132C109.895,3.942 105.989,5.284 103.269,6.907C99.073,9.412 94.903,11.961 90.686,14.432C81.272,19.948 69.56,22.69 59.105,25.624C49.359,28.359 40.503,33.642 30.766,36.578C20.338,39.723 9.731,42.222 -0.666,45.477C-4.035,46.531 -3.42,49.033 0,47.962" style="fill:rgb(48,50,61);fill-rule:nonzero;"/>
            </g>
            <g transform="matrix(1.38597,-0.0480542,0.0479437,1.38917,1424.75,771.151)">
                <path d="M0,-28.381C0.311,-23.601 2.276,-19.409 4.307,-15.131C6.752,-9.981 7.645,-5.22 7.041,0.474C6.719,3.514 12.635,2.744 12.92,0.059C13.453,-4.968 13.032,-9.418 11.278,-14.177C9.477,-19.067 6.228,-23.426 5.879,-28.796C5.678,-31.895 -0.171,-31.019 0,-28.381" style="fill:rgb(48,50,61);fill-rule:nonzero;"/>
            </g>
            <g transform="matrix(1.38597,-0.0480542,0.0479437,1.38917,1593.28,429.626)">
                <path d="M0,164.317C1.895,158.783 4.307,153.446 5.717,147.755C7.215,141.713 6.519,134.64 6.605,128.449C6.81,113.78 7.498,99.395 9.189,84.814C10.757,71.299 12.175,57.766 13.06,44.187C13.333,39.984 16.253,38.828 19.362,36.568C29.959,28.867 40.888,21.538 52.313,15.12C58.23,11.796 64.326,8.713 70.762,6.522C74.262,5.33 78.728,4.238 81.753,7.005C83.403,8.514 90.479,5.609 89.003,4.259C80.96,-3.097 64.268,5.433 56.484,9.165C42.62,15.812 29.646,24.476 17.121,33.344C14.137,35.458 11.175,37.607 8.259,39.814C5.402,41.976 5.422,44.883 5.207,48.172C4.633,56.989 3.767,65.786 2.827,74.571C1.239,89.414 -0.657,104.084 -0.967,119.029C-1.125,126.69 -1.123,134.351 -1.378,142.01C-1.663,150.573 -4.926,157.599 -7.652,165.564C-8.285,167.414 -0.73,166.45 0,164.317" style="fill:rgb(48,50,61);fill-rule:nonzero;"/>
            </g>
            <g transform="matrix(1.38597,-0.0480542,0.0479437,1.38917,1287.01,733.112)">
                <path d="M0,-77.27C1.135,-76.129 1.78,-74.802 3.043,-73.756C4.596,-72.469 6.592,-71.698 8.361,-70.759C11.005,-69.357 13.145,-66.518 15.279,-64.459C17.43,-62.386 19.624,-60.359 21.829,-58.344C29.873,-50.992 38.346,-44.123 47.03,-37.545C55.771,-30.925 65.434,-26.003 74.805,-20.376C84.941,-14.289 92.676,-5.661 101.172,2.417C102.801,3.964 108.283,1.714 106.527,0.044C99.033,-7.079 92.138,-14.849 83.568,-20.702C74.718,-26.746 64.903,-31.217 56.032,-37.244C46.316,-43.845 37.248,-51.702 28.503,-59.522C24.024,-63.528 19.688,-67.692 15.429,-71.93C14.015,-73.337 12.146,-74.185 10.391,-75.066C7.98,-76.277 7.119,-77.868 5.354,-79.642C3.771,-81.234 -1.731,-79.011 0,-77.27" style="fill:rgb(48,50,61);fill-rule:nonzero;"/>
            </g>
            <g transform="matrix(1.38597,-0.0480542,0.0479437,1.38917,1429.91,722.105)">
                <path d="M0,6.613C3.83,6.038 7.458,4.687 11.024,3.228C11.479,3.043 15.386,1.445 13.887,0.419C12.354,-0.631 9.16,0.313 7.656,0.928C5.421,1.842 3.477,2.68 1.768,2.936C0.15,3.179 -3.074,3.921 -3.884,5.611C-4.667,7.244 -0.489,6.686 0,6.613" style="fill:rgb(48,50,61);fill-rule:nonzero;"/>
            </g>
            <g transform="matrix(1.38597,-0.0480542,0.0479437,1.38917,1786.52,761.822)">
                <path d="M0,174.686C16.641,155.834 34.116,134.662 38.376,109.109C40.413,96.888 38.043,83.879 31.595,73.278C25.523,63.297 16.491,56.688 5.818,52.248C-6.438,47.147 -19.878,44.802 -32.705,41.618C-48.467,37.707 -64.223,33.77 -80.079,30.258C-112.16,23.153 -144.375,17.248 -176.878,12.442C-203.234,8.545 -229.603,4.692 -255.616,-1.142C-257.512,-1.567 -262.465,1.327 -259.147,2.071C-227.332,9.207 -194.992,13.348 -162.795,18.304C-130.455,23.282 -98.346,29.848 -66.514,37.4C-50.714,41.148 -34.985,45.191 -19.205,49.019C-7.155,51.942 5.05,55.218 15.083,62.839C25.611,70.835 31.545,83.603 33.007,96.527C34.554,110.208 29.647,123.926 23.308,135.801C15.906,149.664 5.689,161.94 -4.664,173.669C-6.945,176.253 -1.312,176.172 0,174.686" style="fill:rgb(48,50,61);fill-rule:nonzero;"/>
            </g>
            <g transform="matrix(1.38597,-0.0480542,0.0479437,1.38917,1112.3,1007.14)">
                <path d="M0,-14.664C-2.355,-10.874 -8.785,-1.747 -2.679,1.407C-1.177,2.183 4.187,-0.071 1.984,-1.208C-2.313,-3.427 3.804,-12.249 5.346,-14.73C6.662,-16.847 0.892,-16.099 0,-14.664" style="fill:rgb(48,50,61);fill-rule:nonzero;"/>
            </g>
            <g transform="matrix(1.38597,-0.0480542,0.0479437,1.38917,1118.96,962.519)">
                <path d="M0,15.589C3.661,9.436 9.45,6.854 15.912,4.531C23.031,1.972 29.906,-1.239 36.958,-3.975C40.5,-5.349 44.107,-6.498 47.782,-7.457C51.11,-8.325 54.667,-8.207 57.94,-9.084C65.472,-11.102 72.719,-14.426 80.298,-16.479C95.436,-20.581 110.969,-23.061 126.394,-25.797C142.697,-28.688 158.753,-31.484 175.323,-32.391C191.112,-33.256 206.948,-32.888 222.736,-32.197C230.333,-31.865 237.926,-31.427 245.518,-30.994C248.804,-30.807 251.715,-29.35 254.926,-29.033C259.398,-28.591 263.87,-28.155 268.336,-27.652C298.287,-24.276 328.003,-18.307 356.567,-8.603C370.739,-3.788 384.541,2.077 397.901,8.816C406.907,13.358 414.941,20.035 424.979,21.9C445.838,25.775 463.782,36.756 479.702,50.492C481.229,51.81 486.63,49.572 485.089,48.243C469.506,34.798 451.816,23.673 431.478,19.378C429.446,18.949 427.396,18.617 425.362,18.195C419.41,16.96 414.297,12.312 409.026,9.451C395.811,2.279 382.01,-3.779 367.912,-8.988C340.407,-19.15 311.608,-25.461 282.599,-29.418C275.848,-30.339 269.073,-31.107 262.292,-31.765C258.677,-32.117 255.345,-33.032 251.843,-33.897C248.217,-34.792 243.896,-34.441 240.174,-34.648C224.406,-35.529 208.627,-36.221 192.83,-36.084C173.867,-35.919 155.118,-34.131 136.488,-30.622C118.651,-27.263 100.684,-24.582 83.051,-20.215C74.581,-18.117 66.251,-15.483 58.116,-12.33C54.809,-11.049 50.527,-11.107 47.025,-10.283C42.822,-9.295 38.723,-7.804 34.687,-6.288C26.536,-3.226 18.67,0.523 10.426,3.347C4.046,5.532 -1.92,9.676 -5.387,15.503C-6.764,17.818 -0.947,17.181 0,15.589" style="fill:rgb(48,50,61);fill-rule:nonzero;"/>
            </g>
            <g transform="matrix(1.38597,-0.0480542,0.0479437,1.38917,1464.7,389.122)">
                <path d="M0,-3.365C-0.583,-2.307 -0.974,-1.139 -1.319,0.015C-1.542,0.763 0.411,0.496 0.62,-0.203C0.933,-1.255 1.28,-2.314 1.812,-3.278C2.28,-4.128 0.331,-3.966 0,-3.365" style="fill:rgb(48,50,61);fill-rule:nonzero;"/>
            </g>
            <g transform="matrix(1.38597,-0.0480542,0.0479437,1.38917,1466.36,388.95)">
                <path d="M0,-3.36C-0.642,-2.406 -0.885,-1.295 -1.084,-0.18C-1.208,0.515 0.732,0.176 0.842,-0.442C1.021,-1.444 1.21,-2.497 1.789,-3.357C2.041,-3.731 1.577,-3.874 1.279,-3.874C0.868,-3.875 0.249,-3.729 0,-3.36" style="fill:rgb(48,50,61);fill-rule:nonzero;"/>
            </g>
            <g transform="matrix(1.38597,-0.0480542,0.0479437,1.38917,1467.01,388.844)">
                <path d="M0,-3.764C-0.578,-2.612 -0.824,-1.368 -0.84,-0.084C-0.851,0.788 1.09,0.405 1.099,-0.298C1.113,-1.455 1.29,-2.627 1.813,-3.67C2.255,-4.552 0.311,-4.385 0,-3.764" style="fill:rgb(48,50,61);fill-rule:nonzero;"/>
            </g>
            <g transform="matrix(1.38597,-0.0480542,0.0479437,1.38917,1466.92,388.695)">
                <path d="M0,-3.232C-0.526,-2.236 -0.587,-1.121 -0.781,-0.032C-0.925,0.775 1.031,0.456 1.157,-0.251C1.328,-1.21 1.348,-2.271 1.811,-3.147C2.265,-4.007 0.319,-3.836 0,-3.232" style="fill:rgb(48,50,61);fill-rule:nonzero;"/>
            </g>
            <g transform="matrix(1.38597,-0.0480542,0.0479437,1.38917,1467.2,389.404)">
                <path d="M0,-3.626C-0.509,-2.365 -0.761,-1.041 -0.782,0.317C-0.79,0.802 1.14,0.479 1.15,-0.2C1.17,-1.473 1.446,-2.728 1.922,-3.906C2.132,-4.428 0.233,-4.203 0,-3.626" style="fill:rgb(48,50,61);fill-rule:nonzero;"/>
            </g>
            <g transform="matrix(1.38597,-0.0480542,0.0479437,1.38917,1462.85,388.936)">
                <path d="M0,-4.074C-0.723,-2.901 -1.252,-1.633 -1.793,-0.369C-2.221,0.631 -0.276,0.574 0.046,-0.178C0.586,-1.441 1.116,-2.71 1.839,-3.883C2.096,-4.299 1.618,-4.617 1.261,-4.655C0.775,-4.705 0.259,-4.494 0,-4.074" style="fill:rgb(48,50,61);fill-rule:nonzero;"/>
            </g>
            <g transform="matrix(1.38597,-0.0480542,0.0479437,1.38917,1306.92,454.227)">
                <path d="M0,2.96C1.95,2.96 6.244,0 2.342,0C0.392,0 -3.902,2.96 0,2.96" style="fill:rgb(48,50,61);fill-rule:nonzero;"/>
            </g>
            <g transform="matrix(1.38597,-0.0480542,0.0479437,1.38917,1304.55,456.116)">
                <path d="M0,1.085C0.068,1.26 0.135,1.43 0.223,1.595C0.804,2.688 2.498,2.434 3.483,2.169C4.174,1.984 4.873,1.689 5.426,1.225C5.671,1.02 6.233,0.446 6.019,0.043C5.931,-0.123 5.863,-0.293 5.796,-0.468C5.355,-1.603 3.403,-1.274 2.536,-1.042C1.846,-0.857 1.146,-0.561 0.593,-0.098C0.309,0.141 -0.17,0.646 0,1.085" style="fill:rgb(48,50,61);fill-rule:nonzero;"/>
            </g>
            <g transform="matrix(1.38597,-0.0480542,0.0479437,1.38917,1304.62,456.926)">
                <path d="M0,0.692C0.076,0.982 0.18,1.263 0.255,1.552C0.607,2.896 2.618,2.835 3.632,2.563C4.66,2.287 6.403,1.344 6.051,0C5.975,-0.29 5.872,-0.571 5.796,-0.861C5.444,-2.204 3.433,-2.143 2.419,-1.871C1.392,-1.596 -0.352,-0.653 0,0.692" style="fill:rgb(48,50,61);fill-rule:nonzero;"/>
            </g>
            <g transform="matrix(1.38597,-0.0480542,0.0479437,1.38917,1110.03,562.186)">
                <path d="M0,5.802C0.745,3.63 1.452,1.467 3.19,-0.132C4.008,-0.884 2.093,-0.826 1.649,-0.418C-0.275,1.352 -1.1,3.641 -1.929,6.056C-2.145,6.686 -0.215,6.429 0,5.802" style="fill:rgb(48,50,61);fill-rule:nonzero;"/>
            </g>
            <g transform="matrix(1.38597,-0.0480542,0.0479437,1.38917,1110.08,562.912)">
                <path d="M0,4.799C-0.615,4.005 0.638,2.561 1.086,1.974C1.74,1.118 2.488,0.33 3.249,-0.431C4.028,-1.21 2.126,-1.089 1.718,-0.681C0.748,0.29 -0.194,1.286 -1.009,2.394C-1.602,3.2 -2.552,4.561 -1.801,5.529C-1.429,6.009 0.432,5.356 0,4.799" style="fill:rgb(48,50,61);fill-rule:nonzero;"/>
            </g>
            <g transform="matrix(1.38597,-0.0480542,0.0479437,1.38917,1109.06,563.068)">
                <path d="M0,5.302C-0.31,4.307 0.447,3.13 0.927,2.306C1.542,1.248 2.297,0.186 3.212,-0.636C3.543,-0.934 2.92,-0.963 2.756,-0.949C2.327,-0.914 1.793,-0.785 1.463,-0.489C0.556,0.326 -0.172,1.368 -0.822,2.391C-1.396,3.292 -2.282,4.694 -1.932,5.82C-1.793,6.265 0.128,5.712 0,5.302" style="fill:rgb(48,50,61);fill-rule:nonzero;"/>
            </g>
            <g transform="matrix(1.38597,-0.0480542,0.0479437,1.38917,1107.95,563.117)">
                <path d="M0,5.459C0.291,3.448 1.435,1.47 3.034,0.208C4.064,-0.606 2.472,-1.082 1.788,-0.542C-0.129,0.971 -1.593,3.205 -1.946,5.647C-2.076,6.541 -0.112,6.236 0,5.459" style="fill:rgb(48,50,61);fill-rule:nonzero;"/>
            </g>
            <g transform="matrix(1.38597,-0.0480542,0.0479437,1.38917,1112.59,568.589)">
                <path d="M0,-2.927C-0.21,-1.75 -1.382,-0.944 -1.876,0.118C-2.333,1.099 -0.383,1.051 -0.038,0.31C0.528,-0.905 1.707,-1.711 1.953,-3.09C2.12,-4.026 0.148,-3.758 0,-2.927" style="fill:rgb(48,50,61);fill-rule:nonzero;"/>
            </g>
            <g transform="matrix(1.38597,-0.0480542,0.0479437,1.38917,1112.81,568.72)">
                <path d="M0,-3.075C-0.636,-2.108 -1.192,-1.094 -1.772,-0.094C-2.006,0.308 -1.575,0.53 -1.229,0.549C-0.798,0.571 -0.192,0.403 0.041,0.002C0.622,-0.999 1.177,-2.013 1.813,-2.979C2.073,-3.374 1.594,-3.604 1.27,-3.622C0.818,-3.646 0.259,-3.469 0,-3.075" style="fill:rgb(48,50,61);fill-rule:nonzero;"/>
            </g>
            <g transform="matrix(1.38597,-0.0480542,0.0479437,1.38917,1112.92,568.842)">
                <path d="M0,-2.772C-0.639,-1.839 -1.456,-1.047 -2.095,-0.113C-2.365,0.282 -1.866,0.534 -1.544,0.554C-1.078,0.583 -0.547,0.396 -0.276,0.001C0.362,-0.932 1.179,-1.724 1.818,-2.658C2.089,-3.053 1.589,-3.305 1.268,-3.325C0.801,-3.355 0.271,-3.168 0,-2.772" style="fill:rgb(48,50,61);fill-rule:nonzero;"/>
            </g>
            <g transform="matrix(1.38597,-0.0480542,0.0479437,1.38917,1113.19,568.901)">
                <path d="M0,-2.939C-0.471,-1.884 -1.171,-0.971 -1.78,0.004C-2.195,0.667 -0.287,0.392 -0.009,-0.054C0.649,-1.107 1.409,-2.095 1.917,-3.234C2.083,-3.606 1.253,-3.547 1.116,-3.526C0.752,-3.47 0.168,-3.316 0,-2.939" style="fill:rgb(48,50,61);fill-rule:nonzero;"/>
            </g>
            <g transform="matrix(1.38597,-0.0480542,0.0479437,1.38917,1113.74,568.746)">
                <path d="M0,-2.911C-0.575,-1.843 -1.147,-0.772 -1.692,0.312C-1.864,0.655 -1.01,0.571 -0.904,0.553C-0.551,0.495 0.04,0.354 0.22,-0.005C0.765,-1.089 1.337,-2.159 1.912,-3.227C2.094,-3.566 1.223,-3.485 1.124,-3.469C0.761,-3.409 0.193,-3.268 0,-2.911" style="fill:rgb(48,50,61);fill-rule:nonzero;"/>
            </g>
            <g transform="matrix(0.32997,1.35008,1.34698,-0.330731,1119.18,551.753)">
                <path d="M-6.147,-6.537C-6.147,-6.537 3.34,-9.585 8.255,-6.537" style="fill:none;stroke:rgb(48,50,61);stroke-width:4.32px;"/>
            </g>
            <g transform="matrix(1.38597,-0.0480542,0.0479437,1.38917,1108.55,548.122)">
                <path d="M0,-1.952C0.318,-1.12 0.472,-0.263 0.483,0.626C0.489,1.082 2.423,0.753 2.415,0.109C2.403,-0.781 2.25,-1.639 1.932,-2.47C1.716,-3.034 -0.188,-2.442 0,-1.952" style="fill:rgb(48,50,61);fill-rule:nonzero;"/>
            </g>
            <g transform="matrix(1.38597,-0.0480542,0.0479437,1.38917,1109.43,547.683)">
                <path d="M0,-1.255L0,0.517C0,1.043 1.932,0.699 1.932,0L1.932,-1.773C1.932,-2.298 0,-1.954 0,-1.255" style="fill:rgb(48,50,61);fill-rule:nonzero;"/>
            </g>
            <g transform="matrix(1.38597,-0.0480542,0.0479437,1.38917,1109.38,546.378)">
                <path d="M0,-1.041C0.069,-0.565 0.069,-0.089 0.069,0.391C0.07,1.384 2.024,1.072 2.023,0.232C2.023,-0.366 2.019,-0.965 1.932,-1.559C1.805,-2.425 -0.132,-1.944 0,-1.041" style="fill:rgb(48,50,61);fill-rule:nonzero;"/>
            </g>
            <g transform="matrix(1.38597,-0.0480542,0.0479437,1.38917,1109.48,546.02)">
                <path d="M0,-1.028C0.078,-0.491 0.153,0.04 0.161,0.583C0.166,0.882 2.101,0.597 2.093,0.066C2.084,-0.477 2.009,-1.009 1.932,-1.546C1.879,-1.91 -0.069,-1.504 0,-1.028" style="fill:rgb(48,50,61);fill-rule:nonzero;"/>
            </g>
            <g transform="matrix(1.38597,-0.0480542,0.0479437,1.38917,1256.28,328.161)">
                <path d="M0,-4.568C-1.197,-2.855 -3.376,-2.124 -4.717,-0.523C-5.496,0.408 -3.645,0.629 -3.114,-0.005C-1.674,-1.725 0.527,-2.508 1.837,-4.384C2.12,-4.79 1.595,-5.112 1.261,-5.146C0.758,-5.197 0.285,-4.976 0,-4.568" style="fill:rgb(48,50,61);fill-rule:nonzero;"/>
            </g>
            <g transform="matrix(1.38597,-0.0480542,0.0479437,1.38917,1254.9,328.434)">
                <path d="M0,-4.307C-1.229,-2.753 -2.919,-1.522 -3.805,0.287C-3.978,0.639 -2.146,0.479 -1.895,-0.034C-1.05,-1.759 0.586,-2.933 1.759,-4.416C2.177,-4.946 0.301,-4.688 0,-4.307" style="fill:rgb(48,50,61);fill-rule:nonzero;"/>
            </g>
            <g transform="matrix(1.38597,-0.0480542,0.0479437,1.38917,1254.52,328.121)">
                <path d="M0,-3.911C-1.042,-2.904 -1.724,-1.598 -2.693,-0.527C-2.994,-0.196 -2.872,0.234 -2.452,0.373C-1.993,0.526 -1.409,0.364 -1.086,0.007C-0.116,-1.063 0.565,-2.37 1.607,-3.377C1.935,-3.693 1.764,-4.145 1.366,-4.277C0.884,-4.437 0.352,-4.251 0,-3.911" style="fill:rgb(48,50,61);fill-rule:nonzero;"/>
            </g>
            <g transform="matrix(1.38597,-0.0480542,0.0479437,1.38917,1254.41,328.091)">
                <path d="M0,-3.371C-1.07,-2.23 -2.14,-1.089 -3.177,0.082C-3.474,0.417 -2.921,0.494 -2.698,0.483C-2.279,0.464 -1.703,0.329 -1.411,0C-0.374,-1.171 0.696,-2.312 1.766,-3.453C2.076,-3.784 1.499,-3.865 1.287,-3.855C0.857,-3.835 0.305,-3.697 0,-3.371" style="fill:rgb(48,50,61);fill-rule:nonzero;"/>
            </g>
            <g transform="matrix(1.38597,-0.0480542,0.0479437,1.38917,1254.84,328.293)">
                <path d="M0,-3.621C-1.088,-2.625 -2.291,-1.673 -3.022,-0.366C-3.496,0.479 -1.546,0.318 -1.212,-0.279C-0.543,-1.474 0.572,-2.329 1.566,-3.239C1.877,-3.524 1.765,-3.89 1.366,-3.987C0.905,-4.1 0.347,-3.938 0,-3.621" style="fill:rgb(48,50,61);fill-rule:nonzero;"/>
            </g>
            <g transform="matrix(1.38597,-0.0480542,0.0479437,1.38917,1254.59,329.939)">
                <path d="M0,-4.603C-0.783,-4.119 -1.169,-3.337 -1.633,-2.571C-2.244,-1.561 -3.186,-0.759 -3.948,0.133C-4.148,0.368 -3.223,0.27 -3.189,0.264C-2.813,0.191 -2.31,0.075 -2.048,-0.231C-1.37,-1.026 -0.619,-1.754 0.023,-2.58C0.503,-3.198 0.774,-4.186 1.462,-4.611C1.761,-4.796 1.738,-4.971 1.366,-4.969C0.919,-4.967 0.383,-4.84 0,-4.603" style="fill:rgb(48,50,61);fill-rule:nonzero;"/>
            </g>
            <g transform="matrix(1.38597,-0.0480542,0.0479437,1.38917,1255.22,328.188)">
                <path d="M0,-5.357C-1.075,-4.889 -1.75,-3.914 -2.663,-3.219C-3.536,-2.553 -4.48,-1.93 -4.91,-0.873C-5.341,0.188 -3.396,0.242 -3.051,-0.607C-2.719,-1.425 -1.85,-1.889 -1.177,-2.402C-0.468,-2.941 0.048,-3.773 0.878,-4.134C1.255,-4.299 1.602,-4.79 1.32,-5.183C1.021,-5.599 0.408,-5.535 0,-5.357" style="fill:rgb(48,50,61);fill-rule:nonzero;"/>
            </g>
            <g transform="matrix(1.38597,-0.0480542,0.0479437,1.38917,1253.3,327.238)">
                <path d="M0,-3.269C-0.855,-2.278 -1.678,-1.258 -2.568,-0.297C-3.336,0.531 -1.447,0.46 -1.023,0.002C-0.05,-1.049 0.858,-2.156 1.795,-3.241C2.106,-3.601 1.533,-3.788 1.276,-3.792C0.81,-3.8 0.309,-3.626 0,-3.269" style="fill:rgb(48,50,61);fill-rule:nonzero;"/>
            </g>
            <g transform="matrix(1.38597,-0.0480542,0.0479437,1.38917,1253.18,328.288)">
                <path d="M0,-3.86C-1.201,-2.875 -2.314,-1.39 -2.772,0.102C-2.885,0.47 -1.016,0.236 -0.869,-0.244C-0.43,-1.672 0.598,-3.075 1.746,-4.016C2.094,-4.301 1.439,-4.33 1.294,-4.317C0.854,-4.278 0.348,-4.145 0,-3.86" style="fill:rgb(48,50,61);fill-rule:nonzero;"/>
            </g>
            <g transform="matrix(1.38597,-0.0480542,0.0479437,1.38917,1254.37,328.369)">
                <path d="M0,-3.903C-1.105,-3.049 -2.187,-1.889 -2.771,-0.608C-3.226,0.39 -1.275,0.365 -0.927,-0.399C-0.46,-1.422 0.391,-2.36 1.275,-3.043C1.591,-3.286 1.789,-3.752 1.384,-4.024C0.985,-4.293 0.362,-4.183 0,-3.903" style="fill:rgb(48,50,61);fill-rule:nonzero;"/>
            </g>
            <g transform="matrix(1.38597,-0.0480542,0.0479437,1.38917,1254.45,328.08)">
                <path d="M0,-3.577C-0.991,-2.732 -1.822,-1.724 -2.653,-0.727C-2.944,-0.378 -2.83,0.066 -2.399,0.22C-1.945,0.383 -1.343,0.227 -1.033,-0.145C-0.304,-1.021 0.416,-1.939 1.285,-2.681C1.594,-2.945 1.799,-3.404 1.386,-3.691C0.999,-3.96 0.35,-3.875 0,-3.577" style="fill:rgb(48,50,61);fill-rule:nonzero;"/>
            </g>
            <g transform="matrix(1.38597,-0.0480542,0.0479437,1.38917,1253.86,329.379)">
                <path d="M0,-4.069C-1.542,-3.499 -1.969,-1.791 -3.009,-0.694C-3.309,-0.379 -3.2,0.022 -2.784,0.146C-2.329,0.282 -1.744,0.124 -1.418,-0.22C-0.982,-0.679 -0.653,-1.228 -0.317,-1.761C-0.033,-2.214 0.292,-2.864 0.821,-3.06C1.14,-3.178 1.587,-3.618 1.3,-3.972C0.992,-4.351 0.382,-4.21 0,-4.069" style="fill:rgb(48,50,61);fill-rule:nonzero;"/>
            </g>
            <g transform="matrix(1.38597,-0.0480542,0.0479437,1.38917,1253.6,327.543)">
                <path d="M0,-4.347C-1.749,-4.137 -3.008,-2.42 -3.172,-0.732C-3.247,0.029 -1.304,-0.348 -1.243,-0.982C-1.196,-1.459 -1.038,-1.91 -0.84,-2.345C-0.72,-2.61 -0.548,-2.855 -0.373,-3.085C-0.215,-3.29 0.078,-3.348 -0.271,-3.306C0.087,-3.349 0.722,-3.539 0.829,-3.951C0.939,-4.376 0.234,-4.375 0,-4.347" style="fill:rgb(48,50,61);fill-rule:nonzero;"/>
            </g>
            <g transform="matrix(1.38597,-0.0480542,0.0479437,1.38917,1252.07,327.41)">
                <path d="M0,-3.982C-1.305,-3.46 -2.489,-2.049 -2.637,-0.63C-2.731,0.278 -0.771,-0.041 -0.69,-0.818C-0.602,-1.668 0.001,-2.665 0.816,-2.991C1.124,-3.114 1.59,-3.536 1.298,-3.892C0.995,-4.26 0.374,-4.131 0,-3.982" style="fill:rgb(48,50,61);fill-rule:nonzero;"/>
            </g>
            <g transform="matrix(1.38597,-0.0480542,0.0479437,1.38917,1251.32,328.576)">
                <path d="M0,-4.512C-1.337,-3.574 -2.022,-1.907 -2.06,-0.31C-2.077,0.452 -0.146,0.032 -0.132,-0.568C-0.1,-1.941 0.372,-3.42 1.538,-4.238C1.879,-4.477 1.731,-4.813 1.366,-4.878C0.884,-4.964 0.389,-4.785 0,-4.512" style="fill:rgb(48,50,61);fill-rule:nonzero;"/>
            </g>
            <g transform="matrix(1.38597,-0.0480542,0.0479437,1.38917,1511.39,288.01)">
                <path d="M0,0.92C0.697,0.804 1.402,0.807 2.107,0.807C2.524,0.806 3.105,0.642 3.393,0.319C3.698,-0.022 3.129,-0.095 2.91,-0.095C2.043,-0.094 1.18,-0.075 0.322,0.068C-0.014,0.124 -0.656,0.272 -0.797,0.646C-0.936,1.015 -0.15,0.945 0,0.92" style="fill:rgb(48,50,61);fill-rule:nonzero;"/>
            </g>
            <g transform="matrix(1.38597,-0.0480542,0.0479437,1.38917,1510.16,287.626)">
                <path d="M0,0.773L2.625,0.773C3.088,0.773 3.595,0.651 3.991,0.407C4.296,0.22 4.256,0 3.883,0L1.258,0C0.795,0 0.288,0.122 -0.108,0.365C-0.413,0.553 -0.373,0.773 0,0.773" style="fill:rgb(48,50,61);fill-rule:nonzero;"/>
            </g>
            <g transform="matrix(1.38597,-0.0480542,0.0479437,1.38917,1510.3,287.172)">
                <path d="M0,1C1.062,1.196 2.123,1.045 3.188,1.171C3.618,1.222 4.226,1.005 4.457,0.622C4.708,0.208 4.243,0.01 3.911,-0.029C2.999,-0.137 2.064,0.032 1.16,-0.135C0.69,-0.222 0.146,-0.113 -0.206,0.231C-0.491,0.51 -0.425,0.921 0,1" style="fill:rgb(48,50,61);fill-rule:nonzero;"/>
            </g>
            <g transform="matrix(1.38597,-0.0480542,0.0479437,1.38917,1509.87,287.29)">
                <path d="M0,1.153C1.251,1.03 2.507,1.03 3.763,1.03C4.196,1.029 4.772,0.883 5.04,0.509C5.306,0.136 4.815,-0.035 4.522,-0.035C3.104,-0.035 1.687,-0.021 0.273,0.118C-0.083,0.153 -0.722,0.356 -0.828,0.761C-0.94,1.188 -0.23,1.175 0,1.153" style="fill:rgb(48,50,61);fill-rule:nonzero;"/>
            </g>
            <g transform="matrix(1.38597,-0.0480542,0.0479437,1.38917,1510.48,287.578)">
                <path d="M0,1.246C5.207,0.945 10.396,0.457 15.532,1.648C16.067,1.772 17.796,0.941 16.741,0.696C11.47,-0.526 6.131,-0.04 0.783,0.269C0.154,0.306 -1.293,1.321 0,1.246" style="fill:rgb(48,50,61);fill-rule:nonzero;"/>
            </g>
            <g transform="matrix(1.38597,-0.0480542,0.0479437,1.38917,1510.16,287.41)">
                <path d="M0,1.46C5.617,0.838 11.895,0.897 17.498,1.596C18.069,1.667 19.768,0.727 18.693,0.593C12.732,-0.151 6.248,-0.207 0.281,0.453C-0.633,0.554 -1.344,1.609 0,1.46" style="fill:rgb(48,50,61);fill-rule:nonzero;"/>
            </g>
            <g transform="matrix(1.38597,-0.0480542,0.0479437,1.38917,1510.2,286.275)">
                <path d="M0,2.715C7.738,1.765 15.318,0.798 22.99,2.752C23.516,2.886 25.244,2.073 24.549,1.896C16.438,-0.171 8.496,0.789 0.305,1.795C-0.569,1.902 -1.349,2.881 0,2.715" style="fill:rgb(48,50,61);fill-rule:nonzero;"/>
            </g>
            <g transform="matrix(1.38597,-0.0480542,0.0479437,1.38917,1662.38,323.874)">
                <path d="M0,-4.985C-3.372,-5.009 -6.458,-2.67 -8.557,-0.221C-8.768,0.024 -7.828,-0.066 -7.794,-0.072C-7.407,-0.144 -6.923,-0.267 -6.656,-0.578C-5.439,-1.996 -3.26,-4.254 -1.264,-4.239C-0.885,-4.236 0.93,-4.978 0,-4.985" style="fill:rgb(48,50,61);fill-rule:nonzero;"/>
            </g>
            <g transform="matrix(1.38597,-0.0480542,0.0479437,1.38917,1661.68,326.23)">
                <path d="M0,-6.732C-3.171,-5.429 -6.903,-3.914 -8.445,-0.568C-8.888,0.392 -6.939,0.301 -6.613,-0.407C-5.256,-3.353 -1.957,-4.563 0.824,-5.707C2.059,-6.214 0.953,-7.124 0,-6.732" style="fill:rgb(48,50,61);fill-rule:nonzero;"/>
            </g>
            <g transform="matrix(1.38597,-0.0480542,0.0479437,1.38917,1664.72,326.137)">
                <path d="M0,-6.202C-3.908,-6.069 -8.518,-3.953 -10.677,-0.602C-11.094,0.044 -9.188,-0.231 -8.907,-0.668C-7.241,-3.252 -3.875,-5.183 -0.801,-5.288C-0.205,-5.308 1.292,-6.246 0,-6.202" style="fill:rgb(48,50,61);fill-rule:nonzero;"/>
            </g>
            <g transform="matrix(1.38597,-0.0480542,0.0479437,1.38917,1716.52,439.675)">
                <path d="M0,0.952C0.627,0.952 2.088,0 0.789,0C0.162,0 -1.299,0.952 0,0.952" style="fill:rgb(48,50,61);fill-rule:nonzero;"/>
            </g>
            <g transform="matrix(1.38597,-0.0480542,0.0479437,1.38917,1713.54,425.371)">
                <path d="M0,0.952C0.627,0.952 2.088,0 0.789,0C0.162,0 -1.299,0.952 0,0.952" style="fill:rgb(48,50,61);fill-rule:nonzero;"/>
            </g>
            <g transform="matrix(1.38597,-0.0480542,0.0479437,1.38917,1705.54,430.252)">
                <path d="M0,-9.757C0.452,-8.033 1.023,-6.409 1.045,-4.61C1.065,-2.863 0.898,-1.197 1.243,0.533C1.354,1.091 3.295,0.62 3.175,0.015C2.834,-1.7 2.939,-3.39 2.977,-5.127C3.015,-6.913 2.379,-8.571 1.932,-10.275C1.781,-10.848 -0.151,-10.334 0,-9.757" style="fill:rgb(48,50,61);fill-rule:nonzero;"/>
            </g>
            <g transform="matrix(1.38597,-0.0480542,0.0479437,1.38917,1610.51,437.491)">
                <path d="M0,43.132C0.006,35.413 8.457,31.286 13.984,27.433C20.781,22.693 27.747,18.036 34.688,13.515C41.891,8.824 49.109,5.554 56.954,2.16C60.245,0.736 66.885,-0.225 70.178,1.316C73.513,2.877 76.461,5.66 79.077,8.205C80.531,9.619 86,7.442 84.462,5.944C81.535,3.098 78.366,0.519 74.794,-1.474C71.459,-3.335 67.789,-2.825 64.186,-2.261C59.693,-1.559 56.248,-0.716 51.961,0.897C46.47,2.963 41.335,5.38 36.33,8.455C32.197,10.994 28.106,13.685 24.211,16.578C19.135,20.347 13.563,23.378 8.448,27.109C2.137,31.712 -5.789,35.864 -5.795,44.685C-5.797,46.467 -0.001,45.373 0,43.132" style="fill:rgb(48,50,61);fill-rule:nonzero;"/>
            </g>
            <g transform="matrix(1.38597,-0.0480542,0.0479437,1.38917,1815.68,544.164)">
                <path d="M0,-3.794C0.382,-1.598 -2.664,-0.813 -4.247,-0.259C-2.899,-0.122 -1.552,0.016 -0.205,0.153C-1.609,-4.654 -3.352,-9.152 -6.077,-13.37C-7.028,-14.842 -12.173,-13.373 -11.666,-11.461C-10.069,-5.437 -7.205,0.064 -8.166,6.461C-8.521,8.827 -3.271,7.454 -2.57,6.157C-1.626,4.405 -1.037,3.81 0.938,4.906C2.514,5.781 3.778,7.295 4.167,9.039C4.613,11.048 10.426,9.568 9.962,7.487C9.153,3.853 5.058,0.955 1.424,0.713C-2.807,0.432 -5.984,2.36 -7.967,6.037C-6.102,5.935 -4.236,5.834 -2.371,5.732C-1.362,-0.984 -4.19,-6.674 -5.871,-13.013C-7.733,-12.377 -9.597,-11.74 -11.46,-11.104C-8.884,-7.117 -7.323,-2.822 -6,1.706C-5.563,3.203 -2.88,2.441 -1.958,2.119C1.215,1.009 6.519,-1.186 5.795,-5.347C5.451,-7.328 -0.371,-5.929 0,-3.794" style="fill:rgb(48,50,61);fill-rule:nonzero;"/>
            </g>
            <g transform="matrix(1.38597,-0.0480542,0.0479437,1.38917,1813.76,523.517)">
                <path d="M0,6.484C-0.713,7.773 -0.894,9.284 -1.821,10.458C-0.033,10.673 1.755,10.89 3.543,11.106C5.064,5.723 5.748,0.468 5.337,-5.12C5.142,-7.781 -0.665,-6.384 -0.458,-3.567C-0.079,1.592 -0.931,6.589 -2.33,11.54C-3.101,14.265 2.059,13.422 3.034,12.188C4.268,10.629 4.606,8.86 5.545,7.162C7.133,4.29 1.241,4.238 0,6.484" style="fill:rgb(48,50,61);fill-rule:nonzero;"/>
            </g>
            <g transform="matrix(1.38597,-0.0480542,0.0479437,1.38917,1427.82,665.992)">
                <path d="M0,49.047C4.683,47.234 9.958,46.888 14.838,45.695C20.513,44.308 25.983,42.75 31.484,40.785C42.495,36.852 53.849,33.907 64.69,29.496C75.188,25.224 85.3,20.056 95.797,15.757C100.46,13.848 105.081,11.861 109.581,9.589C111.691,8.523 113.685,7.254 115.649,5.943C117.75,4.543 119.629,2.268 121.829,1.082C125.243,-0.76 119.949,-0.916 118.384,-0.073C114.548,1.996 111.529,5.351 107.718,7.594C102.786,10.498 97.291,12.526 92.01,14.689C81.517,18.986 71.41,24.148 60.912,28.42C50.645,32.597 39.827,35.39 29.363,39.034C23.777,40.979 18.214,42.479 12.473,43.882C7.575,45.08 2.618,45.463 -2.12,47.296C-5.944,48.776 -2.367,49.963 0,49.047" style="fill:rgb(48,50,61);fill-rule:nonzero;"/>
            </g>
            <g transform="matrix(1.38597,-0.0480542,0.0479437,1.38917,1443.57,695.026)">
                <path d="M0,23.912C4.166,21.815 9.827,20.928 14.334,19.703C20.051,18.149 25.771,16.719 31.422,14.928C36.613,13.283 41.719,11.368 46.679,9.121C52.322,6.565 57.701,3.437 63.96,2.659C66.886,2.295 68.667,-1.347 64.671,-0.85C53.183,0.579 43.069,7.504 32.226,11.173C26.064,13.258 19.772,14.884 13.474,16.492C8.414,17.784 2.311,18.873 -2.37,21.229C-5.945,23.028 -2.677,25.259 0,23.912" style="fill:rgb(48,50,61);fill-rule:nonzero;"/>
            </g>
            <g transform="matrix(1.38597,-0.0480542,0.0479437,1.38917,1431.58,720.973)">
                <path d="M0,9.104C-0.654,5.027 -4.295,2.366 -5.5,-1.483C-6.122,-3.47 -11.895,-1.845 -11.296,0.069C-10.09,3.921 -6.445,6.608 -5.796,10.657C-5.488,12.574 0.337,11.205 0,9.104" style="fill:rgb(48,50,61);fill-rule:nonzero;"/>
            </g>
            <g transform="matrix(1.38597,-0.0480542,0.0479437,1.38917,1123.52,980.322)">
                <path d="M0,-2.457C-0.777,-1.615 -1.484,-0.711 -2.29,0.106C-2.606,0.426 -2.016,0.488 -1.819,0.477C-1.392,0.451 -0.842,0.317 -0.53,0.001C0.275,-0.816 0.982,-1.72 1.76,-2.561C2.061,-2.888 1.499,-2.945 1.289,-2.933C0.873,-2.908 0.297,-2.778 0,-2.457" style="fill:rgb(48,50,61);fill-rule:nonzero;"/>
            </g>
            <g transform="matrix(1.38597,-0.0480542,0.0479437,1.38917,1125.09,982.482)">
                <path d="M0,-4.864C-1.945,-3.64 -3.173,-1.687 -4.525,0.114C-4.715,0.367 -3.809,0.257 -3.766,0.249C-3.408,0.18 -2.861,0.065 -2.626,-0.248C-1.408,-1.87 -0.291,-3.763 1.463,-4.867C1.76,-5.054 1.74,-5.231 1.366,-5.23C0.921,-5.229 0.38,-5.103 0,-4.864" style="fill:rgb(48,50,61);fill-rule:nonzero;"/>
            </g>
            <g transform="matrix(1.38597,-0.0480542,0.0479437,1.38917,1125.7,982.561)">
                <path d="M0,-5.449C-2.048,-4.186 -3.489,-2.227 -4.874,-0.304C-5.155,0.087 -4.635,0.342 -4.324,0.362C-3.848,0.392 -3.337,0.2 -3.055,-0.191C-1.835,-1.886 -0.575,-3.638 1.231,-4.753C1.531,-4.937 1.776,-5.378 1.375,-5.604C0.956,-5.841 0.38,-5.684 0,-5.449" style="fill:rgb(48,50,61);fill-rule:nonzero;"/>
            </g>
            <g transform="matrix(1.38597,-0.0480542,0.0479437,1.38917,1125.08,986.161)">
                <path d="M0,-7.723C-2.77,-6.112 -3.983,-2.987 -5.64,-0.409C-6.151,0.387 -4.196,0.244 -3.83,-0.326C-2.348,-2.631 -1.255,-5.64 1.218,-7.078C2.348,-7.736 0.666,-8.11 0,-7.723" style="fill:rgb(48,50,61);fill-rule:nonzero;"/>
            </g>
            <g transform="matrix(1.38597,-0.0480542,0.0479437,1.38917,1113.51,1038.72)">
                <path d="M0,-23.632C-6.429,-22.233 -11.409,-17.813 -17.22,-14.924C-24.568,-11.273 -30.063,-5.779 -36.35,-0.695C-37.745,0.432 -35.115,0.526 -34.551,0.473C-32.793,0.31 -30.771,-0.216 -29.373,-1.347C-24.477,-5.306 -20.133,-9.425 -14.791,-12.832C-12.123,-14.534 -9.103,-15.556 -6.416,-17.207C-5.221,-17.941 -1.487,-20.907 -1.473,-20.91C-0.165,-21.195 2.343,-21.624 3.069,-22.97C3.71,-24.158 0.317,-23.701 0,-23.632" style="fill:rgb(48,50,61);fill-rule:nonzero;"/>
            </g>
            <g transform="matrix(1.38597,-0.0480542,0.0479437,1.38917,1794.63,1007.55)">
                <path d="M0,-4.204C-0.614,-3.848 -0.938,-3.353 -1.284,-2.75C-1.643,-2.126 -2.087,-1.517 -2.473,-0.903C-2.897,-0.228 -1.781,0.009 -1.364,-0.102C-1.07,-0.181 -0.841,-0.304 -0.59,-0.472C-1.075,-0.723 -1.561,-0.975 -2.047,-1.227C-2.193,-1.04 -2.322,-0.844 -2.431,-0.632C-2.727,-0.059 -2.024,0.22 -1.586,0.213C-0.774,0.201 -0.264,-0.367 -0.275,-1.143C-0.291,-2.179 -2.248,-1.898 -2.234,-1.006C-2.233,-0.938 -2.232,-0.87 -2.233,-0.802C-2.269,-0.578 -2.206,-0.634 -2.045,-0.971L-1.318,-1.239C-1.354,-1.239 -1.389,-1.238 -1.424,-1.237C-1.143,-0.955 -0.86,-0.674 -0.579,-0.392C-0.543,-0.481 -0.49,-0.561 -0.422,-0.63C-0.206,-0.906 -0.182,-1.276 -0.492,-1.496C-0.913,-1.794 -1.486,-1.647 -1.879,-1.386C-1.829,-1.412 -1.779,-1.438 -1.729,-1.464C-1.359,-1.197 -0.99,-0.93 -0.621,-0.663C-0.35,-1.095 -0.126,-1.55 0.203,-1.943C0.412,-2.193 0.703,-2.934 0.865,-3.028C1.203,-3.224 1.62,-3.633 1.315,-4.047C1.038,-4.424 0.372,-4.42 0,-4.204" style="fill:rgb(48,50,61);fill-rule:nonzero;"/>
            </g>
            <g transform="matrix(-1.36022,0.270866,0.270243,1.36335,587.286,803.226)">
                <path d="M-22.341,-1.809L0.146,-1.809" style="fill:rgb(241,233,15);fill-rule:nonzero;"/>
            </g>
        </g>
        <g transform="matrix(1.38597,-0.0480542,0.0479437,1.38917,567.286,947.567)">
            <path d="M0,-94.772L-11.856,-81.371L-20.832,-60.143L-19.735,-29.553L-9.487,-10.04L8.293,5.368L35.464,13.59L59.365,11.101L80.202,-3.976L94.731,-27.152L100.417,-52.486L95.454,-63.195L78.335,-53.975L58.36,-47.502L38.08,-53.827C38.08,-53.827 31.748,-60.814 31.474,-62.161C31.199,-63.507 34.633,-85.271 34.633,-85.271L38.86,-97.885L44.356,-108.362L32.861,-107.536L20.321,-105.043L0,-94.772Z" style="fill:rgb(245,247,251);fill-rule:nonzero;"/>
        </g>
        <g transform="matrix(1.38597,-0.0480542,0.0479437,1.38917,909.073,1139.75)">
            <path d="M0,-77.089L-5.463,-73.348L-14.846,-68.025C-14.846,-68.025 -22.996,-56.633 -23.35,-55.816C-23.703,-54.998 -27.063,-39.436 -27.063,-39.436L-23.54,-22.068L-13.144,-8.45L3.134,0L23.765,-1.953L41.393,-11.533L49.199,-27.388L50.984,-40.328L49.728,-52.547L41.629,-66.157L34.564,-72.383L26.219,-60.185L20.641,-53.492C20.641,-53.492 15.063,-52.822 14.394,-52.376C13.725,-51.93 9.04,-54.161 9.04,-54.161L4.03,-66.157L2.604,-72.685L0,-77.089Z" style="fill:rgb(113,139,198);fill-rule:nonzero;"/>
        </g>
        <g transform="matrix(1.38597,-0.0480542,0.0479437,1.38917,1977.48,1053.17)">
            <path d="M0,-74.44L-8.206,-68.739L-13.861,-59.379L-19.893,-49.792L-19.893,-35.283L-16.093,-21.897L-9.667,-10.007L2.71,-1.815L19.167,1.453L37.424,-3.546L46.155,-12.526L55.62,-25.672L57.8,-36.494L54.164,-55.246L44.937,-68.177L33.172,-75.893L32.992,-66.518L27.414,-61.61L20.721,-57.638L9.565,-60.94L3.095,-69.419L0,-74.44Z" style="fill:rgb(245,247,251);fill-rule:nonzero;"/>
        </g>
        <g transform="matrix(1.38597,-0.0480542,0.0479437,1.38917,2120.37,1043.06)">
            <path d="M0,-76.944L-7.405,-65.417L-12.002,-53.163L-14.055,-37.452L-10.438,-24.207L-7.027,-11.044C-7.027,-11.044 1.229,1.756 1.667,2.241C2.104,2.726 15.825,13.052 15.825,13.052L33.6,21.756C33.6,21.756 50.916,21.981 51.586,21.756C52.256,21.53 74.344,14.614 74.344,14.614L90.54,2.982L101.599,-14.226L106.859,-37.754L102.633,-59.836C102.633,-59.836 89.887,-79.268 89.559,-79.598C89.23,-79.929 72.336,-94.933 72.336,-94.933L55.631,-97.993L46.402,-98.925L39.55,-97.407L44.67,-81.993L47.57,-66.152L45.339,-61.02L43.108,-57.897L40.431,-52.988L34.63,-49.984L22.582,-52.542L13.435,-61.466L3.395,-72.181L0,-76.944Z" style="fill:rgb(113,139,198);fill-rule:nonzero;"/>
        </g>
        <g transform="matrix(1.38597,-0.0480542,0.0479437,1.38917,608.599,879.166)">
            <path d="M0,-14.011C0,-14.011 -4.665,-12.3 -10.409,-7.847C-13.078,-5.778 -15.98,-3.116 -18.755,0.241C-23.337,5.782 -27.574,13.218 -29.848,23.015C-31.401,29.703 -32.039,37.49 -31.248,46.527L-40.961,38.11L-47.688,27.444L-53.779,16.258L-55.749,5.565C-55.749,5.565 -54.103,-9.799 -53.779,-10.487C-53.456,-11.175 -48.236,-24.269 -48.236,-24.269L-39.012,-39.041L-24.334,-50.744L-12.181,-57.724L2.265,-60.538L12.883,-60.213L27.784,-50.744L6.607,-24.806L0,-14.011Z" style="fill:rgb(216,216,216);fill-rule:nonzero;"/>
        </g>
        <g transform="matrix(1.38597,-0.0480542,0.0479437,1.38917,924.483,1105.37)">
            <path d="M0,-27.171C0,-27.171 -26.296,5.414 -2.415,21.695L0.621,25.589L-12.057,25.589L-23.249,17.339L-30.326,10.563L-36.732,-0.791L-40.217,-12.93L-39.023,-28.422L-34.026,-34.484L-26.806,-43.696L-17.423,-49.02L-10.093,-52.76L-7.197,-37.924L-3.758,-31.045L0,-27.171Z" style="fill:rgb(64,92,170);fill-rule:nonzero;"/>
        </g>
        <g transform="matrix(1.38597,-0.0480542,0.0479437,1.38917,2009.42,1047.78)">
            <path d="M0,-56C0,-56 13.41,-13.56 2.026,2.887C-9.357,19.333 27.976,-14 27.976,-14L33.452,-27.468L33.937,-43.194L29.01,-56L16.901,-69.055L10.021,-75.333L9.842,-63.438L4.264,-58.53L0,-56Z" style="fill:rgb(245,247,251);fill-rule:nonzero;"/>
        </g>
        <g transform="matrix(1.38597,-0.0480542,0.0479437,1.38917,2170.9,1008.6)">
            <path d="M0,-31.727C3.157,-29.473 40.608,7.217 28.283,43.683L37.958,41.481L51.227,28.69L64.325,9.29L69.586,-17.852L65.359,-36.321L52.285,-56.083L40.052,-65.959L27.292,-75.41L12.625,-75.41L2.276,-73.892L3.958,-62.519L8.177,-48.665L5.292,-37.852L0,-31.727Z" style="fill:rgb(183,199,231);fill-rule:nonzero;"/>
        </g>
        <g>
            <g transform="matrix(1.38597,-0.0480542,0.0479437,1.38917,1233.94,763.822)">
                <path d="M0,-20.411C0,-20.411 -3.739,-26.095 -12.505,-34.67C-37.132,-58.759 -97.284,-105.067 -198.213,-108.328C-216.429,-108.917 -231.833,-105.586 -252.735,-102.987C-283.452,-99.168 -313.555,-77.913 -343.235,-55.241C-351.175,-49.176 -360.072,-43.189 -368.976,-37.685C-375.98,-33.355 -395.673,-19.048 -404.066,-9.355C-424.02,13.686 -456.747,53.424 -450.235,59.047C-416.125,88.506 -383.745,36.941 -354.235,27.045C-293.347,6.625 -228.901,-31.081 -189.968,-8.89C-185.268,-6.21 -180.939,-2.658 -177.034,1.903" style="fill:none;stroke:rgb(48,50,61);stroke-width:5.04px;"/>
            </g>
            <g transform="matrix(1.38597,-0.0480542,0.0479437,1.38917,1531.47,799.317)">
                <path d="M0,-11.66C0,-11.66 -3.934,-3.376 1.231,-14.255C4.068,-20.23 7.857,-27.307 12.787,-34.898C46.754,-87.196 134.897,-163.821 339.23,-71.591C339.23,-71.591 368.69,-56.589 394.23,-31.035C416.86,-8.392 435.821,24.337 437.23,35.611C437.23,35.611 472.371,121.453 463.23,129.568C459.802,132.611 461.416,134.942 453.23,138.837C425.23,152.161 394.57,41.144 347.23,25.268C326.085,18.176 322.386,12.058 299.211,7.387C264.685,0.428 230.448,-1.93 204.075,6.019C191.024,9.953 178.478,17.839 170.195,27.512" style="fill:none;stroke:rgb(48,50,61);stroke-width:4.32px;"/>
            </g>
            <g transform="matrix(1.38597,-0.0480542,0.0479437,1.38917,998.436,548.865)">
                <path d="M0,54.92C0,54.92 19.07,17.382 69.398,2.369C73.114,1.261 74.395,0.839 78.456,0" style="fill:none;stroke:rgb(48,50,61);stroke-width:4.32px;"/>
            </g>
            <g transform="matrix(1.38597,-0.0480542,0.0479437,1.38917,957.255,1131.55)">
                <path d="M0,-272.514C0,-272.514 -0.55,-272.275 -3.188,-267.064C-13.585,-246.527 -38.947,-187.377 -35.73,-104.236C-31.698,0 -2.053,-68.799 1.125,-72.399C1.125,-72.399 11.924,-119.461 26.113,-128.73" style="fill:none;stroke:rgb(48,50,61);stroke-width:4.32px;"/>
            </g>
            <g transform="matrix(1.38597,-0.0480542,0.0479437,1.38917,1819.87,950.458)">
                <path d="M0,-73.758C0,-73.758 16.116,-76.101 35.093,-70.267C59.723,-62.695 92.691,-42.439 114.154,10.671C114.154,10.671 128.154,29.479 142.154,14.091C142.154,14.091 150.715,-29.175 113.435,-103.237" style="fill:none;stroke:rgb(48,50,61);stroke-width:4.32px;"/>
            </g>
            <g transform="matrix(-1.01162,-0.950788,-0.948601,1.01395,1871.02,553.746)">
                <path d="M-69.363,32.608C-69.363,32.608 1.857,17.077 9.757,32.608" style="fill:none;stroke:rgb(48,50,61);stroke-width:4.33px;"/>
            </g>
            <g transform="matrix(1.38597,-0.0480542,0.0479437,1.38917,699.514,910.612)">
                <path d="M0,-41.241C8.67,-10.927 -8.405,22.834 -38.122,33.571C-69.178,44.792 -104.04,27.053 -115.076,-3.661C-124.137,-28.881 -114.656,-57.352 -94.132,-73.175C-89.502,-76.744 -84.31,-79.67 -78.641,-81.77C-70.117,-84.927 -60.89,-86.033 -51.853,-85.089C-51.853,-85.089 -44.443,-82.114 -39.947,-79.417L-36.952,-75.62" style="fill:none;stroke:rgb(48,50,61);stroke-width:4.32px;"/>
            </g>
            <g transform="matrix(1.38597,-0.0480542,0.0479437,1.38917,2175.62,1069.9)">
                <path d="M0,-119.231C32.844,-123.085 65.229,-96.244 67.571,-63.274C69.895,-30.578 43.121,1.555 9.873,2.708C-23.177,3.854 -53.214,-25.063 -53.202,-58.127C-53.197,-72.875 -47.765,-87.555 -38.191,-98.769" style="fill:none;stroke:rgb(48,50,61);stroke-width:4.32px;"/>
            </g>
            <g transform="matrix(1.38597,-0.0480542,0.0479437,1.38917,955.724,1134.95)">
                <path d="M0,-70.652C14.185,-61.471 21.49,-43.225 17.322,-26.819C13.241,-10.758 -1.104,2.049 -17.743,3.421C-34.85,4.831 -51.804,-5.662 -58.072,-21.652C-64.587,-38.274 -59.151,-58.246 -44.809,-68.966C-40.836,-71.936 -36.31,-74.165 -31.528,-75.483" style="fill:none;stroke:rgb(48,50,61);stroke-width:4.32px;"/>
            </g>
            <g transform="matrix(1.38597,-0.0480542,0.0479437,1.38917,2023.67,1057.69)">
                <path d="M0,-80.292C15.802,-73.687 26.116,-56.579 24.527,-39.521C22.98,-22.916 10.714,-7.913 -5.634,-3.983C-22.207,0 -40.471,-7.653 -49.107,-22.374C-57.989,-37.51 -55.953,-57.778 -43.937,-70.635C-40.62,-74.183 -36.663,-77.135 -32.306,-79.282" style="fill:none;stroke:rgb(48,50,61);stroke-width:4.32px;"/>
            </g>
            <g transform="matrix(1.21844,0.663823,0.662296,-1.22124,1626.02,651.913)">
                <path d="M-7.092,-41.038C-7.092,-41.038 53.33,14.815 159.342,-41.038" style="fill:none;stroke:rgb(48,50,61);stroke-width:2.16px;"/>
            </g>
            <g transform="matrix(1.38597,-0.0480542,0.0479437,1.38917,1786.79,790.4)">
                <path d="M0,-114.218C0,-114.218 39.973,-109.853 46.39,-17.392C46.72,-12.63 47.929,-5.241 48.071,0" style="fill:none;stroke:rgb(48,50,61);stroke-width:2.16px;"/>
            </g>
            <g transform="matrix(-0.0591019,1.38874,1.38554,0.0592381,2008.63,714.472)">
                <path d="M-38.302,-60.691C-38.302,-60.691 -12.587,-33.313 58.13,-60.691" style="fill:none;stroke:rgb(48,50,61);stroke-width:2.16px;"/>
            </g>
            <g transform="matrix(-0.549492,1.27623,1.2733,0.550759,2069.03,798.873)">
                <path d="M-50.506,-39.872C-50.506,-39.872 -24.858,-18.071 28.98,-39.872" style="fill:none;stroke:rgb(48,50,61);stroke-width:2.16px;"/>
            </g>
            <g transform="matrix(-0.831105,1.11273,1.11017,0.833021,2126.06,885.636)">
                <path d="M-44.925,-26.501C-44.925,-26.501 -22.618,-0.371 16.698,-26.501" style="fill:none;stroke:rgb(48,50,61);stroke-width:2.16px;"/>
            </g>
            <g transform="matrix(1.01286,-0.949458,-0.947275,-1.0152,1956.96,916.342)">
                <path d="M-0.264,14.96C-0.264,14.96 2.922,-12.928 52.342,14.96" style="fill:none;stroke:rgb(48,50,61);stroke-width:2.16px;"/>
            </g>
            <g transform="matrix(1.38597,-0.0480542,0.0479437,1.38917,1888.4,798.332)">
                <path d="M0,44.894C0,44.894 7.357,42.846 12.232,40.351C22.687,34.998 40.024,22.935 45.683,0" style="fill:none;stroke:rgb(48,50,61);stroke-width:2.16px;"/>
            </g>
            <g transform="matrix(1.38597,-0.0480542,0.0479437,1.38917,1862.91,847.891)">
                <path d="M0,-43.234C-0.927,-39.358 -1.289,-38.217 -2.249,-34.997C-12.682,0 -24.461,-1.941 -24.461,-1.941" style="fill:none;stroke:rgb(48,50,61);stroke-width:2.16px;"/>
            </g>
            <g transform="matrix(0.200254,-1.37543,-1.37227,-0.200716,1886.38,630.663)">
                <path d="M-9.734,20.319C-9.734,20.319 -3.211,6.66 22.766,20.319" style="fill:none;stroke:rgb(48,50,61);stroke-width:2.16px;"/>
            </g>
            <g transform="matrix(1.38597,-0.0480542,0.0479437,1.38917,672.113,834.908)">
                <path d="M0,-43.021C0.146,-33.828 1.834,-24.291 6.745,-16.375C12.782,-6.643 23.094,-1.474 34.226,0" style="fill:none;stroke:rgb(48,50,61);stroke-width:2.16px;"/>
            </g>
            <g transform="matrix(0.595203,1.25547,1.25258,-0.596575,793.995,724.041)">
                <path d="M-20.536,-31.284C1.044,-38.654 25.824,-35.596 47.657,-31.284" style="fill:none;stroke:rgb(48,50,61);stroke-width:2.16px;"/>
            </g>
            <g transform="matrix(0.195356,1.37614,1.37297,-0.195807,908.946,697.101)">
                <path d="M-44.204,-43.446C-14.101,-52.486 18.463,-48.936 48.967,-43.446" style="fill:none;stroke:rgb(48,50,61);stroke-width:2.16px;"/>
            </g>
            <g transform="matrix(-0.269894,1.36342,1.36029,0.270516,1023.46,716.09)">
                <path d="M-58.791,-46.594C-58.791,-46.594 -18.772,-57.661 36.928,-46.594" style="fill:none;stroke:rgb(48,50,61);stroke-width:2.16px;"/>
            </g>
            <g transform="matrix(-0.898524,1.05879,1.05635,0.900595,1089.64,744.626)">
                <path d="M-62.107,-27.415C-62.107,-27.415 -44.588,-32.678 12.101,-27.415" style="fill:none;stroke:rgb(48,50,61);stroke-width:2.16px;"/>
            </g>
            <g transform="matrix(1.36758,0.230635,0.230105,-1.37073,905.762,968.601)">
                <path d="M-1.972,-4.942C-1.972,-4.942 29.379,-23.518 45.968,-4.942" style="fill:none;stroke:rgb(48,50,61);stroke-width:2.16px;"/>
            </g>
            <g transform="matrix(1.31677,0.436131,0.435128,-1.31981,913.021,878.583)">
                <path d="M-2.982,-9.316C-2.982,-9.316 18.469,-29.11 49.403,-9.316" style="fill:none;stroke:rgb(48,50,61);stroke-width:2.16px;"/>
            </g>
            <g transform="matrix(1.24416,0.614028,0.612616,-1.24702,929.962,807.956)">
                <path d="M-2.836,-8.719C7.062,-11.87 24.657,-16.687 33.337,-8.719" style="fill:none;stroke:rgb(48,50,61);stroke-width:2.16px;"/>
            </g>
            <g transform="matrix(0.522887,1.28741,1.28445,-0.524092,1082.03,583.89)">
                <path d="M-15.938,-22.834C-15.938,-22.834 19.933,-25.504 32.713,-22.834" style="fill:none;stroke:rgb(48,50,61);stroke-width:2.16px;"/>
            </g>
            <g transform="matrix(1.38597,-0.0480542,0.0479437,1.38917,1232.6,735.761)">
                <path d="M0,-1.083C0.459,-0.395 0.931,0.281 1.615,0.762C1.902,0.964 2.572,0.726 2.853,0.627C2.936,0.598 3.705,0.309 3.44,0.124C2.797,-0.329 2.363,-0.955 1.932,-1.601C1.634,-2.047 -0.121,-1.265 0,-1.083" style="fill:rgb(48,50,61);fill-rule:nonzero;"/>
            </g>
            <g transform="matrix(1.38597,-0.0480542,0.0479437,1.38917,1233.17,734.392)">
                <path d="M0,-0.782C0.28,-0.038 0.84,0.615 1.539,0.998C1.938,1.217 2.551,1.047 2.908,0.824C3.188,0.649 3.473,0.265 3.071,0.045C2.56,-0.236 2.136,-0.759 1.932,-1.3C1.668,-1.999 -0.245,-1.431 0,-0.782" style="fill:rgb(48,50,61);fill-rule:nonzero;"/>
            </g>
            <g transform="matrix(1.38597,-0.0480542,0.0479437,1.38917,1233.58,737.028)">
                <path d="M0,-3.357C0.548,-1.566 1.715,-0.108 3.316,0.852C3.828,1.16 5.621,0.403 4.862,-0.052C3.433,-0.909 2.417,-2.29 1.932,-3.875C1.735,-4.517 -0.19,-3.978 0,-3.357" style="fill:rgb(48,50,61);fill-rule:nonzero;"/>
            </g>
            <g transform="matrix(1.38597,-0.0480542,0.0479437,1.38917,1234.57,735.705)">
                <path d="M0,-1.383C0.504,-0.627 1.019,0.12 1.562,0.848C2.054,1.508 3.903,0.78 3.337,0.021C2.793,-0.707 2.279,-1.454 1.775,-2.21C1.321,-2.891 -0.531,-2.18 0,-1.383" style="fill:rgb(48,50,61);fill-rule:nonzero;"/>
            </g>
        </g>
    </g>
    <g transform="matrix(3.17959,0,0,3.25941,-618.367,-539.749)">
        <g id="Final-Product-Setup--Rec-" serif:id="Final Product Setup (Rec)">
            <rect x="194.48" y="165.597" width="943.517" height="920.411" style="fill:none;"/>
        </g>
    </g>
</svg>
