<?xml version="1.0" encoding="UTF-8" standalone="no"?>
<!DOCTYPE svg PUBLIC "-//W3C//DTD SVG 1.1//EN" "http://www.w3.org/Graphics/SVG/1.1/DTD/svg11.dtd">
<svg width="100%" height="100%" viewBox="0 0 3000 3000" version="1.1" xmlns="http://www.w3.org/2000/svg" xmlns:xlink="http://www.w3.org/1999/xlink" xml:space="preserve" xmlns:serif="http://www.serif.com/" style="fill-rule:evenodd;clip-rule:evenodd;stroke-miterlimit:10;">
    <g id="Russian-Mascot" serif:id="Russian Mascot">
        <g transform="matrix(1.39,0,0,1.39,919.222,2262.16)">
            <path d="M0,-164.543L-1,-104.198L-11.879,-104.198L-21.401,-105.645L-28.618,-102.681C-28.618,-102.681 -25.236,-106.163 -28.618,-102.681C-32,-99.198 -13.87,-77.627 -13.87,-77.627L0,-57.632L10.206,-37.97L10.206,-33.65L14.627,-21.495L14.663,-14.988L14.663,-4.845L11.99,1.898L22.521,0.758L39.849,-2.273L63.734,-6.177L78.709,-8.318L86.826,-6.58L93.549,-4.845L93.397,-13.097L92.756,-24.06L92.618,-33.65L92.532,-39.585L83.021,-48.508L69.656,-62.102L55.484,-78.229L45.048,-92.355L35.708,-107.794C35.708,-107.794 26.538,-126.44 26.119,-127.256C25.7,-128.071 18.515,-141.189 18.515,-141.189L13.378,-152.543L6.207,-160.164L2.374,-166.441L0,-164.543" style="fill:rgb(238,41,56);fill-rule:nonzero;"/>
        </g>
        <g transform="matrix(1.39,0,0,1.39,1195.53,2250.06)">
            <path d="M0,-19.348L-7.063,19.699L-2.16,22.159L373.543,22.159L370.467,6.286L364.993,-17.227L360.49,-17.095L351.26,-15.043L311.712,-18.24L301.881,-12.045L282.326,-6.859L258,-6.617L233.487,-7.754L209.84,-7.754L194.904,-6.286L174.493,-9.731L149.071,-18.799L137.588,-13.201L122.962,-8.339L103.796,-8.678L85.417,-12.297L71.751,-16.021L62.585,-20.585L50.315,-31.771L45.832,-38.544L41.886,-41.507L35.363,-37.139L25.813,-27.777C25.813,-27.777 16.075,-21.785 15.514,-21.785C14.952,-21.785 6.15,-19.162 6.15,-19.162L0,-19.348Z" style="fill:rgb(238,41,56);fill-rule:nonzero;"/>
        </g>
        <g transform="matrix(1.39,0,0,1.39,1852.74,2067.15)">
            <path d="M0,108.365L1.636,148.034L16.641,144.825L31.896,139.432L37.051,134.451L42.481,132.841L67.021,135.579L90.418,140.053L109.131,141.288L112.043,140.053L107.969,130.896L106.699,118.016L112.775,97.517L124.714,76.376C124.714,76.376 140.037,60.115 139.104,58.994C138.17,57.873 153.348,40.097 153.348,40.097L144.704,33.823L137.014,32.304L122.313,33.262L125.71,23.873L129.198,17.108L133.178,-8.246L130.27,-39.669L126.746,-35.875L114.2,-17.899L101.842,0.827L90.606,22.174L81.806,37.528L67.948,59.811L56.339,72.171L41.171,84.717L27.314,94.079L9.151,104.19L0,108.365Z" style="fill:rgb(238,41,56);fill-rule:nonzero;"/>
        </g>
        <g transform="matrix(1.39,0,0,1.39,922.522,2173.24)">
            <path d="M0,-102.473L-1.673,-103.905L-2.374,-39.58C-2.374,-39.58 -29.186,-46.39 -32.752,-37.217C-36.318,-28.044 -14.685,-11.602 -14.685,-11.602C-14.685,-11.602 0.678,-27.365 18.123,-12.966C35.568,1.432 47.299,-17.593 52.412,-12.291C57.525,-6.99 26.03,-58.733 26.03,-58.733L10.333,-86.608L3.058,-98.451L0.646,-102.473L0,-102.473Z" style="fill:rgb(201,32,38);fill-rule:nonzero;"/>
        </g>
        <g transform="matrix(1.39,0,0,1.39,936.299,2263.27)">
            <path d="M0,-11.249L-9.847,-9.213L-11.585,-5.478L-5.792,-1.48L-2.286,0L0,-7.393L0,-11.249Z" style="fill:rgb(201,32,38);fill-rule:nonzero;"/>
        </g>
        <g transform="matrix(1.39,0,0,1.39,1191.63,2224.7)">
            <path d="M0,8.517C0,8.517 27.544,9.093 34.763,-0.915C41.982,-10.922 45.138,-5.508 45.138,-5.508C45.138,-5.508 78.978,24.269 116.274,18.253C153.571,12.238 141.066,14.464 151.68,10.494C162.293,6.523 202.899,31.89 229.368,19.056C240.188,13.81 248.654,17.805 258.544,19.156C272.849,21.11 289.482,21.417 315.09,12.754C315.09,12.754 358.102,10.865 362.914,12.754C367.727,14.644 372.439,12.754 372.439,12.754L367.794,1.021L334.941,3.816L316.298,0.153L312.984,-0.395L280.801,12.754L254.461,11.168L226.755,9.785L203.802,11.961L171.26,8.517L151.872,-0.551L129.951,8.517L94.376,7.319L74.552,2.227L50.404,-19.987L43.487,-23.373L35.967,-17.839L19.331,-4.013L8.951,-0.915L-0.11,-0.329L0,8.517Z" style="fill:rgb(201,32,38);fill-rule:nonzero;"/>
        </g>
        <g transform="matrix(1.39,0,0,1.39,1212.94,2271.8)">
            <path d="M0,-29.125C0,-29.125 -11.729,-7.685 10.995,-5.118C33.719,-2.552 146.972,-1.635 146.239,-1.452C145.506,-1.27 280.014,-0.719 280.014,-0.719C280.014,-0.719 345.625,-8.121 349.65,-21.929C353.675,-35.736 355.657,-19.176 355.657,-19.176L361.479,0.838L358.997,6.611L242.627,5.428L-11.978,5.694L-19.587,6.517L-19.587,-9.054L-18.515,-18.822L-17.156,-25.316L-15.435,-26.925L-6.783,-29.125L0,-29.125Z" style="fill:rgb(201,32,38);fill-rule:nonzero;"/>
        </g>
        <g transform="matrix(1.39,0,0,1.39,2013.65,2280.26)">
            <path d="M0,-173.457C0.532,-172.316 -11.699,-148.914 -7.8,-136.682C-3.9,-124.449 -99.371,0 -115.191,-35.457C-131.012,-70.914 -115.707,-43.607 -115.707,-43.607L-83.5,-62.759C-83.5,-62.759 -58.503,-82.969 -58.148,-83.501C-57.794,-84.033 -25.528,-128.708 -25.528,-128.708L-10.64,-160.613L0,-173.457Z" style="fill:rgb(201,32,38);fill-rule:nonzero;"/>
        </g>
        <g transform="matrix(1.39,0,0,1.39,2023.01,2131.93)">
            <path d="M0,-72.869C0,-72.869 -2.443,-36.526 -6.718,-24.825C-10.992,-13.124 -15.247,-6.034 -5.142,-2.31C4.964,1.413 23.223,-4.667 18.082,5.198C12.941,15.064 30.473,-6.783 30.473,-6.783L24.996,-12.238L15.068,-14.188L7.269,-14.72L0.531,-13.834L3.213,-22.733L6.832,-30.334L11.346,-56.204L10.668,-65.607L9.553,-87.933L2.822,-81.509L0,-75.17L0,-72.869Z" style="fill:rgb(240,96,113);fill-rule:nonzero;"/>
        </g>
        <g transform="matrix(1.39,0,0,1.39,2004.65,2262.26)">
            <path d="M0,-11.521L10.837,-8.534C10.837,-8.534 9.02,-3.865 8.681,-3.638C8.342,-3.412 4.741,-0.631 4.335,-0.316C3.929,0 3,-0.942 2.448,-1.013C1.896,-1.084 -0.587,-7.836 -0.587,-7.836L0,-11.521Z" style="fill:rgb(201,32,38);fill-rule:nonzero;"/>
        </g>
        <g transform="matrix(1.39,0,0,1.39,1854.03,1599.58)">
            <path d="M0,444.322L26.389,430.458L41.798,419.811L60.675,402.948L71.351,389.23L81.63,372.597L91.74,354.059L110.653,321.85L126.311,298.634L130.689,284.025L128.63,263.801C128.63,263.801 114.238,204.373 114.132,203.986C114.025,203.599 108.596,184.437 108.596,184.437C108.596,184.437 90.573,121.882 89.378,122.527C88.183,123.173 67.552,57.954 67.552,57.954L60.438,37.729L49.755,6.299L51.306,-7.724L45.092,-18.157L33.278,0.034L18.515,16.869L1.733,24.72L-11.16,30.437L-39.898,41.715L-68.35,49.979L-86.332,53.876L-107.537,59.345L-130.318,62.301L-186.285,64.959L-187.544,64.044L-206.506,65.375L-236.704,65.784L-299.779,64.276L-347.758,60.928L-390.615,55.525L-416.715,50.734L-438.941,45.648L-472.276,39.296L-526.776,23.742L-545.244,17.644L-559.148,13.053L-588.727,2.529L-615.774,-6.598L-621.289,-4.322L-629.468,31.58L-635.377,55.009L-644.496,98.651L-650.159,130.568L-658.218,182.905L-661.807,209.093L-668.623,264.725L-671.542,291.678L-672.522,307.805L-663.213,321.03L-647.732,344.882L-637.995,368.102L-624.046,388.96L-608.28,408.412L-591.35,426.352L-582.942,432.331L-578.974,435.701L-582.006,380.088L-578.074,376.717L-554.667,369.601L-532.384,365.295L-510.663,362.111L-488.567,363.609L-466.193,371.434L-461.795,376.717L-473.961,448.247L-464.223,448.247L-453.362,442.631L-444.374,434.391L-434.824,427.089L-430.518,426.466L-418.179,440.985L-407.86,449.184L-384.827,456.862C-384.827,456.862 -368.349,460.017 -367.412,460.218C-366.476,460.42 -349.062,459.296 -349.062,459.296L-324.906,448.248L-308.053,456.675L-278.837,461.686L-258.055,458.299L-244.947,460.218L-223.226,460.794L-203.939,462.479L-178.658,457.985L-161.618,448.435L-148.323,451.806C-148.323,451.806 -128.855,452.415 -128.296,452.46C-127.736,452.505 -110.873,451.057 -110.873,451.057L-106.752,447.125L-115.043,388.489L-115.043,384.394L-106.938,378.027C-106.938,378.027 -94.954,373.346 -94.393,373.159C-93.831,372.971 -81.473,371.661 -81.473,371.661C-81.473,371.661 -62.372,372.97 -61.811,372.784C-61.249,372.597 -41.923,376.313 -41.923,376.313L-21.178,380.274L-6.759,385.143L7.285,389.075L5.567,397.645L1.294,409.912L-1.789,426.352L-2.639,440.196L0,444.322Z" style="fill:rgb(245,247,251);fill-rule:nonzero;"/>
        </g>
        <g transform="matrix(1.39,0,0,1.39,1065.31,2182.88)">
            <path d="M0,-409.473C0,-409.473 -41.395,-351.439 -54.153,-280.436C-66.202,-213.374 -61.256,-137.745 -59.665,-121.201L-57.363,-113.47L-45.509,-93.046L-35.684,-68.861L-27.583,-41.691L-25.886,-35.523L-21.152,-31.828L-16.309,-30.684L-14.67,-25.241L-12.679,-4.615L-11.552,9.956L-11.104,15.738L-16.927,13.462L-44.908,-15.518C-44.908,-15.518 -66.324,-46.514 -66.613,-46.514C-66.902,-46.514 -81.968,-75.924 -81.968,-75.924C-81.968,-75.924 -99.284,-105.388 -99.669,-105.388C-100.054,-105.388 -104.4,-113.795 -104.4,-113.795C-104.4,-113.795 -103.523,-126.01 -103.813,-126.107C-104.102,-126.203 -98.608,-163.207 -98.897,-163.401C-99.187,-163.594 -95.428,-200.405 -95.428,-200.405L-89.453,-235.671C-89.453,-235.671 -84.345,-274.6 -84.634,-274.503C-84.923,-274.407 -77.695,-312.66 -77.984,-312.563C-78.273,-312.466 -69.503,-352.358 -69.792,-352.358C-70.081,-352.358 -61.212,-391.725 -61.212,-391.725L-55.542,-419.736L-52.624,-425.211L-47.53,-425.211L-33.435,-421.519L-14.946,-414.808L-9.778,-412.068" style="fill:rgb(216,216,216);fill-rule:nonzero;"/>
        </g>
        <g transform="matrix(1.39,0,0,1.39,1229.46,2223.43)">
            <path d="M0,-149.667C0,-149.667 5.063,-111.515 5.063,-103.643C5.063,-95.771 3.331,-72.115 2.532,-61.688C1.732,-51.26 -6.795,-39.753 -5.559,-35.817C-4.323,-31.882 7.848,-36.486 10.816,-38.898C13.785,-41.311 17.922,-26.729 17.922,-26.729L17.472,-22.345L10.948,-17.977L4.21,-12.341L-6.172,-4.065L-18.265,0L-27.215,0L-18.992,-47.706L-12.469,-48.712L-7.002,-50.603L-6.067,-56.169L-4.222,-68.35L-1.362,-124.538L-0.69,-139.372L0,-149.667" style="fill:rgb(216,216,216);fill-rule:nonzero;"/>
        </g>
        <g transform="matrix(1.39,0,0,1.39,1248.29,2240.59)">
            <path d="M0,-68.517C0,-68.517 26.645,0 125.961,-24.689L112.372,-14.04L97.499,-5.169L79.028,-0.94L58.152,-2.916L31.49,-12.348L21.157,-16.936L9.992,-27.878L2.713,-44.114L-0.5,-58.474" style="fill:rgb(216,216,216);fill-rule:nonzero;"/>
        </g>
        <g transform="matrix(1.39,0,0,1.39,1426.74,2226.14)">
            <path d="M0,-12.938C0,-12.938 40.575,-1.735 76.607,-6.277C112.639,-10.819 113.851,-1.862 123.237,-1.95C132.623,-2.038 151.807,-17.129 152.106,-20.497C152.405,-23.864 149.486,-9.948 149.486,-9.948L143.766,-0.015L130.022,7.482L112.942,10.384L91.661,10.596L76.064,9.458L57.833,7.539L43.5,9.458L23.618,10.926L2.12,7.482L-17.46,-2.778L-4.351,-12.779L0,-12.938Z" style="fill:rgb(216,216,216);fill-rule:nonzero;"/>
        </g>
        <g transform="matrix(1.39,0,0,1.39,1672.21,2224.41)">
            <path d="M0,-139.171C0,-139.171 -4.309,-141.29 -1.887,-92.844C0.535,-44.398 -0.979,-27.559 -4.007,-19.778C-7.034,-11.998 -24.952,-13.513 -24.472,-14.421C-23.991,-15.329 -29.441,-2.006 -29.441,-2.006L-7.689,2.119L6.814,2.119L20.548,-0.373L22.81,-7.207L16.933,-39.605L10.659,-38.24L6.172,-42.858L5.104,-55.025L0.646,-130.184L0,-139.171Z" style="fill:rgb(216,216,216);fill-rule:nonzero;"/>
        </g>
        <g transform="matrix(1.39,0,0,1.39,1918.81,2083.04)">
            <path d="M0,-35.51L-7.115,-23.713L-18.726,-2.554L-27.526,23.287L-33.66,43.712L-62.064,34.395L-83.327,27.968L-113.65,24.77L-139.553,25.134L-158.79,32.275L-166.753,40.678L-171.064,44.83L-176.766,-38.32L-146.992,-59.854L-128.642,-68.093L-108.044,-76.706L-84.638,-80.34L-61.793,-77.83L-45.877,-74.46L-27.713,-66.033L-10.486,-49.178L-3.184,-40.754L0,-35.51Z" style="fill:rgb(57,80,163);fill-rule:nonzero;"/>
        </g>
        <g transform="matrix(1.39,0,0,1.39,1229.46,2074.6)">
            <path d="M0,-44.233L-4.222,38.72L-30.624,22.803L-56.652,20.931L-81.798,23.37L-107.588,28.544L-133.428,36.271L-143.98,39.698L-153.838,4.64L-164.137,-19.703L-176.683,-39.364L-166.759,-54.907L-152.527,-68.577L-133.615,-78.688L-111.145,-83.931L-88.88,-83.816L-62.834,-77.939L-35.308,-66.891L-13.774,-52.473L0,-44.233Z" style="fill:rgb(57,80,163);fill-rule:nonzero;"/>
        </g>
        <g transform="matrix(1.39,0,0,1.39,983.874,2121.22)">
            <path d="M0,-72.901L8.088,-60.225L32.703,6.161L37.436,12.537L41.767,11.098L41.767,3.217L56.949,-1.3C56.949,-1.3 45.522,-70.416 9.844,-85.438L3.137,-79L0.575,-73.801L0,-72.901Z" style="fill:rgb(38,56,122);fill-rule:nonzero;"/>
        </g>
        <g transform="matrix(1.39,0,0,1.39,1212.13,2156.16)">
            <path d="M0,-24.926L-2.052,0L2.903,0L7.822,-6.012L7.115,-16.096L0,-24.926Z" style="fill:rgb(38,56,122);fill-rule:nonzero;"/>
        </g>
        <g transform="matrix(1.39,0,0,1.39,1703.92,2171.25)">
            <path d="M0,-117.813C0,-117.813 6.354,-41.227 18.425,-38.813C30.496,-36.399 1.256,-31.838 1.256,-31.838L-7.05,-26.881L-10.341,-23.092L-7.05,-1.364L-12.15,0L-17.358,-12.83C-17.358,-12.83 -18.999,-32.966 -18.663,-32.939C-18.327,-32.912 -22.163,-101.784 -22.163,-101.784L-12.15,-110.879L0,-117.813Z" style="fill:rgb(38,56,122);fill-rule:nonzero;"/>
        </g>
        <g transform="matrix(1.39,0,0,1.39,1868.39,2150.24)">
            <path d="M0,-5.595L-3.271,-5.957L-5.072,2.378L-0.958,2.29L2.848,-2.965L2.848,-7.973L0,-5.595Z" style="fill:rgb(38,56,122);fill-rule:nonzero;"/>
        </g>
        <g transform="matrix(1.39,0,0,1.39,1891.16,2142.46)">
            <path d="M0,-101.136C0,-101.136 -18.283,-8.885 -22.885,-4.505C-27.486,-0.125 -16.383,0 -16.383,0L-10.05,-11.929L10.875,-67.191L19.896,-78.26L6.314,-96.163L0,-101.136Z" style="fill:rgb(94,116,184);fill-rule:nonzero;"/>
        </g>
        <g transform="matrix(0.0878416,1.38722,1.38722,-0.0878416,1117.64,2181.18)">
            <path d="M-43.295,-50.068C-43.295,-50.068 39.04,-45.218 53.088,-50.068" style="fill:none;stroke:rgb(48,50,61);stroke-width:5.76px;"/>
        </g>
        <g transform="matrix(-0.251965,1.36697,1.36697,0.251965,1263.26,2214.28)">
            <path d="M-60.921,-50.718C-60.921,-50.718 37.346,-47.933 42.224,-50.718" style="fill:none;stroke:rgb(48,50,61);stroke-width:5.76px;"/>
        </g>
        <g transform="matrix(-0.237274,-1.3696,-1.3696,0.237274,1772.16,2179.89)">
            <path d="M-63.692,51.54C-63.692,51.54 37.912,54.554 43.021,51.54" style="fill:none;stroke:rgb(48,50,61);stroke-width:5.76px;"/>
        </g>
        <g transform="matrix(1.39,0,0,1.39,1861.77,2270.13)">
            <path d="M0,-92.208C0,-92.208 -7.984,-73.492 -10.469,-53.097C-12.967,-32.581 -11.696,-9.034 -9.557,0" style="fill:none;stroke:rgb(48,50,61);stroke-width:5.76px;"/>
        </g>
        <g transform="matrix(1.39,0,0,1.39,917.832,2217.4)">
            <path d="M0,-118C0,-118 -2,-92 0,-72C0,-72 -23,-79 -31,-67C-31,-67 -13.552,-48.583 0.038,-26.993C10.357,-10.601 18.453,7.621 15,21C15,21 14,27 11,33C8,39 83,18 90,27C97,36 93.835,13.611 93.835,13.611L93.532,-7.387C93.532,-7.387 84.041,-15.645 68.876,-31.789C56.418,-45.053 42.471,-62.704 33,-83C12,-128 2,-129 1,-143C0,-157 0,-118 0,-118Z" style="fill:none;stroke:rgb(48,50,61);stroke-width:3.6px;"/>
        </g>
        <g transform="matrix(1.39,0,0,1.39,932.154,2247.64)">
            <path d="M0,11.205C0,11.205 -11.949,5.72 -10.068,2.076C-10.068,2.076 0.692,2.288 4.074,0" style="fill:none;stroke:rgb(48,50,61);stroke-width:3.6px;"/>
        </g>
        <g transform="matrix(1.39,0,0,1.39,1246.73,2246.11)">
            <path d="M0,-76.624C0,-76.624 -4,-22 42,-11C88,0 93,-2 134,-33" style="fill:none;stroke:rgb(48,50,61);stroke-width:3.6px;"/>
        </g>
        <g transform="matrix(1.39,0,0,1.39,1401.44,2233.94)">
            <path d="M0,-7.788C0,-7.788 24.705,8.933 61.705,3.846C98.705,-1.241 169.705,24.222 170.705,-32.01" style="fill:none;stroke:rgb(48,50,61);stroke-width:3.6px;"/>
        </g>
        <g transform="matrix(1.39,0,0,1.39,1257.04,2279.43)">
            <path d="M0,-62.694C-8.895,-63.723 -15.446,-50.573 -22.969,-46.079C-33.946,-39.522 -44.252,-40.478 -44.252,-40.478L-51.464,-0.614L-46.413,1.029L328.587,1.029C328.587,1.029 322.587,-44.971 318.587,-39.52C314.587,-34.069 266.068,-39.52 266.068,-39.52" style="fill:none;stroke:rgb(48,50,61);stroke-width:3.6px;"/>
        </g>
        <g transform="matrix(1.39,0,0,1.39,2038.03,2204.03)">
            <path d="M0,-109.155C0,-109.155 -0.512,-96.998 -2.97,-85.003C-4.45,-77.781 -10.234,-72.732 -10.986,-65.217C-10.986,-65.217 12.049,-70.382 20.049,-58.382C20.049,-58.382 2.601,-39.965 -10.989,-18.375C-15.796,-10.739 -20.12,-2.707 -23.02,5.048C-26.345,13.942 -27.796,22.471 -25.951,29.618C-25.951,29.618 -24.951,35.618 -21.951,41.618C-18.951,47.618 -90.878,28.775 -97.878,37.775C-104.878,46.775 -131.597,50.602 -131.597,50.602L-134.162,10.274C-134.162,10.274 -94.992,-7.026 -79.828,-23.171C-70.734,-32.851 -60.849,-44.869 -52.488,-58.547C-49.395,-63.609 -46.51,-68.899 -43.951,-74.382C-22.951,-119.382 -2.684,-131.757 -1.684,-145.757C-0.684,-159.757 0,-109.155 0,-109.155Z" style="fill:none;stroke:rgb(48,50,61);stroke-width:3.6px;"/>
        </g>
        <g transform="matrix(1.39,0,0,1.39,2008.48,2246.25)">
            <path d="M0,11.205C0,11.205 11.949,5.72 10.068,2.076C10.068,2.076 -0.691,2.288 -4.074,0" style="fill:none;stroke:rgb(48,50,61);stroke-width:3.6px;"/>
        </g>
        <g transform="matrix(0.695235,-1.20364,-1.20364,-0.695235,1939.1,2016.95)">
            <path d="M-103.106,-4.164C-103.106,-4.164 -122.449,118.414 -175.441,114.471L-103.106,162.178C-103.106,162.178 34.507,112.992 -17.37,6.418C-17.37,6.418 -46.63,12.797 -103.106,-4.164Z" style="fill:none;stroke:rgb(48,50,61);stroke-width:3.6px;"/>
        </g>
        <g transform="matrix(1.39,0,0,1.39,1694.12,2154.11)">
            <path d="M0,11.985C0,11.985 -0.878,12.242 -2.118,12.315C-4.903,12.48 -9.517,11.72 -10.132,5.05C-10.272,3.529 -10.205,1.7 -9.86,-0.495" style="fill:none;stroke:rgb(48,50,61);stroke-width:3.6px;"/>
        </g>
        <g transform="matrix(0.0835849,1.38748,1.38748,-0.0835849,1705.47,2152.44)">
            <path d="M-10.23,-10.865C-10.23,-10.865 9.193,-10.958 11.539,-10.865" style="fill:none;stroke:rgb(48,50,61);stroke-width:3.6px;"/>
        </g>
        <g transform="matrix(1.39,0,0,1.39,1679.48,2156.1)">
            <path d="M0,-3.758C0.055,-2.428 0.165,-1.096 -0.14,0.214C-0.361,1.169 1.618,0.936 1.819,0.071C2.123,-1.238 2.014,-2.57 1.959,-3.901C1.917,-4.927 -0.035,-4.632 0,-3.758" style="fill:rgb(48,50,61);fill-rule:nonzero;"/>
        </g>
        <g transform="matrix(1.39,0,0,1.39,1679.81,2155.51)">
            <path d="M0,-4.626C-0.129,-3.897 0.083,-3.196 0.213,-2.48C0.369,-1.618 0.085,-0.652 -0.093,0.187C-0.283,1.088 1.688,0.82 1.858,0.015C2.039,-0.841 2.203,-1.676 2.186,-2.555C2.17,-3.317 1.814,-4.032 1.951,-4.798C2.113,-5.714 0.145,-5.437 0,-4.626" style="fill:rgb(48,50,61);fill-rule:nonzero;"/>
        </g>
        <g transform="matrix(1.39,0,0,1.39,1680.59,2155.23)">
            <path d="M0,-4.522C-0.091,-3.84 0.162,-3.184 0.305,-2.526C0.49,-1.668 0.199,-0.667 -0.131,0.112C-0.56,1.123 1.386,1.083 1.711,0.315C2.07,-0.531 2.272,-1.366 2.29,-2.288C2.305,-3.095 1.85,-3.891 1.955,-4.678C2.084,-5.645 0.114,-5.372 0,-4.522" style="fill:rgb(48,50,61);fill-rule:nonzero;"/>
        </g>
        <g transform="matrix(1.39,0,0,1.39,1680.6,2155.2)">
            <path d="M0,-4.977C0.096,-3.071 0.901,-1.36 0.146,0.513C-0.063,1.026 1.834,0.802 2.065,0.23C2.854,-1.722 2.031,-3.505 1.932,-5.495C1.906,-6.003 -0.033,-5.637 0,-4.977" style="fill:rgb(48,50,61);fill-rule:nonzero;"/>
        </g>
        <g transform="matrix(1.39,0,0,1.39,1862.58,2160.31)">
            <path d="M0,-11.789C-0.215,-11.431 0.324,-10.81 -0.465,-6.507C-1.658,0 6.62,-9.721 7.028,-10.212" style="fill:none;stroke:rgb(48,50,61);stroke-width:3.6px;"/>
        </g>
        <g transform="matrix(0.695235,1.20364,1.20364,-0.695235,962.577,2002.81)">
            <path d="M103.106,-4.164C103.106,-4.164 122.449,118.414 175.441,114.471L103.106,162.178C103.106,162.178 -34.507,112.992 17.37,6.418C17.37,6.418 46.63,12.797 103.106,-4.164Z" style="fill:none;stroke:rgb(48,50,61);stroke-width:3.6px;"/>
        </g>
        <g transform="matrix(1.39,0,0,1.39,1207.56,2139.97)">
            <path d="M0,11.985C0,11.985 0.878,12.242 2.118,12.315C4.903,12.48 9.517,11.72 10.132,5.05C10.272,3.529 10.205,1.7 9.86,-0.495" style="fill:none;stroke:rgb(48,50,61);stroke-width:3.6px;"/>
        </g>
        <g transform="matrix(-0.0835849,1.38748,1.38748,0.0835849,1226.24,2141.93)">
            <path d="M-11.539,-10.865C-11.539,-10.865 7.884,-10.771 10.23,-10.865" style="fill:none;stroke:rgb(48,50,61);stroke-width:3.6px;"/>
        </g>
        <g transform="matrix(1.39,0,0,1.39,1219.48,2142.15)">
            <path d="M0,-3.888C-0.057,-2.499 -0.166,-1.101 0.152,0.266C0.358,1.153 2.292,0.645 2.083,-0.251C1.793,-1.501 1.904,-2.77 1.956,-4.04C1.997,-5.041 0.035,-4.75 0,-3.888" style="fill:rgb(48,50,61);fill-rule:nonzero;"/>
        </g>
        <g transform="matrix(1.39,0,0,1.39,1219.17,2141.17)">
            <path d="M0,-4.306C0.139,-3.526 -0.219,-2.832 -0.234,-2.063C-0.252,-1.184 -0.088,-0.349 0.093,0.507C0.194,0.986 2.135,0.512 2.024,-0.011C1.835,-0.908 1.612,-1.828 1.718,-2.75C1.8,-3.459 2.06,-4.103 1.932,-4.824C1.849,-5.292 -0.096,-4.845 0,-4.306" style="fill:rgb(48,50,61);fill-rule:nonzero;"/>
        </g>
        <g transform="matrix(1.39,0,0,1.39,1218.39,2141.07)">
            <path d="M0,-4.327C0.1,-3.58 -0.314,-2.822 -0.333,-2.068C-0.356,-1.168 -0.162,-0.339 0.188,0.486C0.464,1.141 2.363,0.544 2.119,-0.031C1.756,-0.888 1.58,-1.723 1.604,-2.656C1.624,-3.408 2.035,-4.073 1.932,-4.845C1.848,-5.468 -0.094,-5.029 0,-4.327" style="fill:rgb(48,50,61);fill-rule:nonzero;"/>
        </g>
        <g transform="matrix(1.39,0,0,1.39,1218.4,2141.41)">
            <path d="M0,-5.349C-0.1,-3.36 -0.934,-1.576 -0.145,0.378C0.098,0.978 1.998,0.38 1.787,-0.14C1.032,-2.01 1.826,-3.723 1.922,-5.628C1.957,-6.327 0.028,-5.909 0,-5.349" style="fill:rgb(48,50,61);fill-rule:nonzero;"/>
        </g>
        <g transform="matrix(1.39,0,0,1.39,1039.1,2146.17)">
            <path d="M0,-11.789C0.215,-11.431 -0.324,-10.81 0.465,-6.507C1.658,0 -6.62,-9.721 -7.028,-10.212" style="fill:none;stroke:rgb(48,50,61);stroke-width:3.6px;"/>
        </g>
        <g transform="matrix(1.39,0,0,1.39,919.222,1573.16)">
            <path d="M0,320.482C0,320.482 17.115,140.137 44.868,44.137C50.761,23.754 46.725,12.491 56.392,12.39C59.979,12.352 79.854,20.415 110.421,31.037C113.313,32.042 124.987,36.011 127.896,36.977C162.116,48.336 206.019,61.26 254.014,70.211C259.519,71.238 278.622,74.386 282.624,74.968C284.333,75.217 286.047,75.46 287.765,75.696C349.213,84.156 414.53,85.452 465.494,84.544C469.597,84.47 483.18,84.132 485.927,84.048C528.876,82.735 557.479,80.137 557.479,80.137C557.479,80.137 568.743,77.564 585.203,73.216C588.209,72.422 600.384,69.095 603.347,68.257C621.078,63.243 641.479,56.954 659.822,50.015C662.361,49.054 672.412,44.994 674.924,43.878C696.561,34.258 715.416,9.301 716.667,0C716.667,0 723.467,5.413 724.161,13.398C724.607,18.527 721.785,25.653 723.362,29.995C745.344,90.518 815.067,287.727 799.746,313.145" style="fill:none;stroke:rgb(48,50,61);stroke-width:3.6px;"/>
        </g>
        <g transform="matrix(1.39,0,0,1.39,1924.04,1744.82)">
            <path d="M0,-93.037C0,-93.037 -34.267,-55 -61.767,-46.5C-89.267,-38 -175.767,0 -270.767,-8.5C-338.349,-14.547 -382.6,-7.833 -451.6,-21.333C-491.255,-29.092 -516.767,-41 -551.767,-45C-551.767,-45 -635.983,-60.348 -676.375,-86.174" style="fill:none;stroke:rgb(48,50,61);stroke-width:3.6px;"/>
        </g>
        <g transform="matrix(1.41357,0,0,1.43954,-622.197,-602.553)">
            <g opacity="0.570007">
                <g transform="matrix(1,0,0,1,1145.39,1266.17)">
                    <path d="M0,-148.84L-2.703,-138.199L0,-118.081L3.442,-95.617L9.811,-77.647L17.248,-55.042L29.749,-32.76L41.74,-18.134L55.737,-6.47L69.747,2.809L84.359,10.72L105.442,14.743L129.479,15.894C129.479,15.894 153.405,14.357 153.993,14.24C154.582,14.123 178.065,5.496 178.065,5.496L201.968,-8.96L226.134,-26.819L249.67,-41.944L273.51,-53.621L297.054,-60.832L322.246,-62.09L347.286,-57.153L356.061,-53.52C356.061,-53.52 368.504,-46.395 368.877,-46.145C369.252,-45.895 385.151,-33.555 385.151,-33.555C385.151,-33.555 399.805,-18.52 400.874,-19.235C401.94,-19.95 413.036,-8.969 413.036,-8.969L434.245,3.82C434.245,3.82 453.961,14.796 455.075,13.778C456.188,12.761 475.868,18.412 475.868,18.412L492.088,17.477L511.106,12.354L526.563,6.306L543.049,-1.239L557.649,-8.998L570.782,-19.748L582.713,-29.736L594.202,-43.633L608.813,-65.214L616.038,-77.775L623.801,-91.263L625.999,-102.641L626.848,-116.255L623.395,-125.602L615.413,-136.76L606.936,-146.123L594.073,-149.956L580.934,-156.889L563.975,-161.234L553.823,-163.774L538.672,-167.252L528.102,-165.726L515.116,-164.328L500.997,-161.563L489.02,-159.125C489.02,-159.125 476.725,-157.287 476.141,-157.226C475.559,-157.164 465.674,-154.372 465.674,-154.372L455.163,-147.746L441.911,-142.14C441.911,-142.14 419.276,-130.348 418.86,-130.149C418.444,-129.949 400.176,-122.386 400.176,-122.386L379.454,-115.417L358.567,-110.083L339.737,-108.261L305.966,-110.45L275.036,-115.758L244.757,-120.399C244.757,-120.399 216.253,-125.795 216.236,-125.798C216.219,-125.801 196.934,-132.1 196.934,-132.1L172.223,-137.747L148.487,-143.921L125.031,-149.088L107.908,-152.213L84.173,-156.479L65.48,-157.697L42.922,-156.781L26.091,-155.423L8.398,-152.05L2.766,-150.132L0,-148.84" style="fill:rgb(168,221,244);fill-rule:nonzero;"/>
                </g>
            </g>
        </g>
        <g transform="matrix(1.41357,0,0,1.43954,997.744,1280.23)">
            <path d="M0,-218.866L-9.99,-215.262L-18.2,-206.72L-21.451,-193.92L-20.029,-182.948L-17.794,-164.661L-14.34,-142.717L-11.698,-127.478L-8.65,-116.941L4.76,-124.837L1.509,-149.828L-2.874,-166.286L-3.977,-181.119L-1.309,-190.177L11.059,-196.358L40.724,-200.625L85.612,-198.71L119.357,-192.498L150.288,-185.964L180.317,-177.884L200.302,-171.864L229.477,-166.696L255.282,-162.633L272.959,-157.959L294.497,-155.521L311.902,-152.576C311.902,-152.576 336.146,-151.458 336.755,-151.458C337.364,-151.458 360.121,-153.491 360.121,-153.491L387.955,-160.813L410.918,-169.339L432.47,-179.674L449.352,-188.786L462.73,-194.94L472.054,-199.209L497.525,-203.381L523.07,-209.773L541.561,-209.773L558.498,-205.189L582.473,-198.508L596.854,-191.204L613.937,-180.653L621.792,-168.722L625.806,-153.294L620.065,-128.986L610.841,-112.855L597.024,-91.927L586.459,-77.908L572.802,-62.549L557.545,-51.558L535.847,-40.412L519.302,-33.291L501.877,-27.316L480.837,-24.406L462.069,-26.729L447.689,-31.382L421.479,-46.621L400.387,-62.038L390.804,-72.626L375.315,-83.942L359.128,-94.407L336.428,-102.659L316.699,-104.862L296.932,-102.901L274.608,-96.651C274.608,-96.651 258.76,-89.453 258.277,-89.206C257.795,-88.96 243.358,-80.858 243.358,-80.858L229.937,-72.15L219.347,-64.391L210.178,-55.763L197.987,-49.058L182.241,-39.3L158.646,-29.422L144.314,-27.163L125.05,-26.62L98.234,-28.947L81.129,-32.686L64.354,-41.814L49.269,-54.547L34.232,-70.802L20.732,-90.163L7.36,-123.005L-8.233,-112.454L-4.896,-95.498L1.82,-74.772L11.882,-54.14L20.619,-39.714L29.48,-26.426L41.75,-17.16L56.295,-5.58L72.14,2.052L90.549,7.464L108.398,9.824L125.463,8.644L139.28,7.832L150.658,6.206L161.973,3.956L173.285,-0.588L187.057,-7.329L199.553,-14.437L207.046,-19.139L219.539,-27.789L228.895,-35.192L240.976,-46.683L249.402,-55.763L261.79,-63.495L272.258,-69.757L281.297,-73.972L290.318,-77.098L302.177,-79.574L316.699,-80.958L329.038,-79.055L345.708,-74.662L357.188,-65.335L367.846,-54.796L375.253,-46.287L384.67,-34.798L394.426,-23.199L404.185,-13.995L417.163,-5.284L433.581,1.292L443.847,2.752C443.847,2.752 460.878,6.808 461.858,6.988C462.839,7.168 485.873,11.629 485.873,11.629L504.161,10.308L520.399,6.227C520.399,6.227 538.128,2.545 537.918,1.123C537.708,-0.299 552.192,-7.289 552.192,-7.289L565.1,-14.764L579.571,-22.65L585.774,-30.877L596.978,-43.95L610.246,-59.423L619.256,-76.013L629.834,-94.123L643.969,-120.172L652.706,-140.694L656.146,-161.417L655.604,-181.422L652.499,-195.146L633.115,-208.373L621.251,-213.634C621.251,-213.634 605.978,-220.541 605.164,-220.541C604.351,-220.541 588.424,-222.789 588.424,-222.789L561.477,-226.992L548.274,-229.495L530.191,-230.495L494.638,-228.803L480.859,-227.656L464.969,-226.229L443.325,-216.588L429.084,-210.363L413.342,-203.27L397.539,-195.906L386.161,-189.8C386.161,-189.8 370.765,-183.838 370.012,-183.625C369.259,-183.412 354.005,-179.759 354.005,-179.759C354.005,-179.759 332.03,-176.435 331.427,-176.375C330.825,-176.315 313.818,-175.209 313.818,-175.209C313.818,-175.209 285.243,-174.85 284.693,-175.956C284.143,-177.062 267.497,-178.167 266.709,-178.306C265.922,-178.446 250.414,-182.954 249.805,-183.158C249.195,-183.361 215.933,-189.649 215.933,-189.649L197.02,-195.141L184.385,-201.033L155.651,-206.311L128.496,-211.521L108.103,-214.889L80.347,-218.647L48.46,-222.365L26.723,-221.813L6.198,-221.552L0,-218.866" style="fill:rgb(238,41,56);fill-rule:nonzero;"/>
        </g>
        <g transform="matrix(-1.24923,0.673665,0.66151,1.27218,993.504,1125.89)">
            <path d="M-17.577,-14.127L1.504,-14.127L3.953,-4.601L-15.719,-4.648L-17.577,-14.127Z" style="fill:rgb(238,41,56);fill-rule:nonzero;"/>
        </g>
        <g transform="matrix(1.41357,0,0,1.43954,1463.74,1229.44)">
            <path d="M0,-141.167C0,-141.167 -2.844,-125.725 -54.047,-133.446C-105.25,-141.167 -141.214,-156 -155.844,-159.86C-170.473,-163.721 -248.898,-179.62 -267.794,-173.091C-267.794,-173.091 -337.887,-185.054 -339.309,-155.185C-340.731,-125.316 -332.808,-80.822 -324.477,-62.739C-316.146,-44.655 -292.987,2.884 -270.027,6.948C-270.027,6.948 -231.019,44.332 -173.517,21.169C-116.015,-1.994 -75.378,-33.691 -73.346,-36.739C-71.314,-39.787 -49.375,-61.931 -25.805,-52.788C-2.236,-43.645 2.288,-43.189 2.288,-43.189L-11.37,-44.884L-22.758,-43.645L-41.385,-41.201L-53.845,-37.549L-70.52,-26.392L-86.761,-14.589L-98.749,-4.43L-131.462,21.375L-148.327,30.112L-166.923,38.963L-189.323,44.375L-208.877,45.42L-225.943,44.539L-249.104,38.643L-264.546,33.97L-287.911,18.121L-301.119,6.743L-313.305,-8.126L-323.057,-27.392L-330.772,-51.769L-337.445,-70.773L-343.368,-103.787L-351.112,-135.477L-352.409,-161.281L-349.436,-171.883L-341.98,-178.599L-325.697,-184.444L-297.048,-186.587L-269.813,-185.378L-228.254,-180.607L-177.17,-171.237L-137.548,-162.094L-91.226,-150.307L-68.875,-144.618L-49.167,-142.179L-28.035,-140.147L-12.313,-141.164L-3.653,-141.367L0,-141.167Z" style="fill:rgb(202,32,41);fill-rule:nonzero;"/>
        </g>
        <g transform="matrix(1.41357,0,0,1.43954,1728.75,1295.53)">
            <path d="M0,-240.121C0,-240.121 94.313,-224.469 104.595,-205.323C114.877,-186.177 127.996,-177.667 113.459,-137.602C98.922,-97.537 68.784,-62.435 32.974,-40.098C-2.837,-17.76 3.899,-20.951 -29.074,-21.306C-62.048,-21.661 -103.178,-29.106 -120.905,-44.352C-138.633,-59.598 -153.242,-80.517 -163.134,-81.581C-173.025,-82.644 -146.757,-62.59 -146.757,-62.59L-125.957,-37.446L-102.877,-17.55L-83.571,-9.341L-62.993,-4.981L-40.801,-0.476L-26.592,1.002L-13.828,-0.489L13.223,-7.915L28.22,-14.448L50.348,-26.269L64.531,-37.535L79.915,-54.677L95.021,-79.808L109.103,-98.6L119.918,-123.064L129.295,-140.129L134.342,-155.089L139.008,-180.504L139.008,-197.169L130.832,-211.705L118.787,-217.475L108.688,-224.824L79.421,-234.043L60.786,-235.332L35.038,-239.383L20.919,-241.123L0.354,-240.123" style="fill:rgb(238,89,106);fill-rule:nonzero;"/>
        </g>
        <g transform="matrix(1.41357,0,0,1.43954,966.181,1233.82)">
            <path d="M0,-155.333C0,-155.333 11.334,-35.333 50.667,4.667C90,44.667 131.334,44 162.667,41.334C194,38.667 241.333,7.334 256,-7.333C270.667,-22 297.333,-47.333 333.333,-48C369.333,-48.666 380.667,-35.333 410.667,2C440.667,39.334 468,34.117 498.667,42.392C529.333,50.667 581.999,24.667 603.999,5.334C625.999,-14 689.999,-108 676.666,-155.333C667.539,-187.736 568.433,-204.205 495.27,-194.475C482.638,-192.795 454.44,-179.443 425.999,-166.666C415.366,-161.89 408.072,-156.198 396.666,-152.666C357.154,-140.432 315.249,-141.493 290.403,-145.825C249.173,-153.014 213.937,-164.216 210.666,-166C203.332,-170 40.666,-206 8.666,-180.666C8.666,-180.666 -2.718,-177.032 0,-155.333Z" style="fill:none;stroke:rgb(48,50,61);stroke-width:3.5px;"/>
        </g>
        <g transform="matrix(1.41357,0,0,1.43954,994.924,1189.77)">
            <path d="M0,-106.068C0,-106.068 1.542,-85.136 10,-58.068C17.333,-34.596 31.751,-6.324 49,6.932C62.928,17.636 70.206,26.411 84.1,30.451C107.256,37.184 129.523,36.665 148.091,35.574C177.798,33.829 212.047,5.264 226,-5.068C239.952,-15.399 279.338,-41.763 313.461,-42.068C347.585,-42.374 367.694,-31.679 396,-5.068C424.304,21.542 442.963,31.923 472,37.932C489.304,41.514 509.821,34.656 530,25.932C543.684,20.016 556.546,13.43 565,7.932C575.17,1.318 589.781,-12.926 605,-36.068C621.087,-60.529 632.409,-82.791 626,-100.068C623.097,-107.894 619.9,-119.27 601.243,-127.33C585.984,-133.921 565.04,-143.238 545,-145.068C517.475,-147.582 502.499,-139.213 476,-136.708C464.021,-135.575 429.001,-110.994 402,-102.068C391.905,-98.731 377.822,-93.519 367,-91.068C329.507,-82.577 293.347,-93.345 269.812,-96.533C230.758,-101.82 197.399,-109.926 194.305,-111.207C189.969,-113.001 128.169,-132.465 75,-136.068C43.099,-138.23 12.407,-134.748 1,-128.068C1,-128.068 -2.5,-121.465 0,-106.068Z" style="fill:none;stroke:rgb(48,50,61);stroke-width:3.5px;"/>
        </g>
        <g transform="matrix(1.39,0,0,1.39,-599.725,-537.178)">
            <g transform="matrix(1.29,0,0,1,-389.343,0)">
                <path d="M1346.18,1768.03L1355.65,1768.03L1355.65,1727.33L1367.57,1727.33C1374.65,1727.33 1378.18,1729.64 1378.18,1734.25C1378.18,1739.22 1371.88,1744.96 1359.27,1751.46L1359.27,1757.99C1362.32,1756.52 1364.87,1755.2 1366.9,1754.02L1378.54,1768.03L1390.14,1768.03L1375.27,1749.86C1379.84,1747.17 1383.15,1744.54 1385.23,1741.99C1387.29,1739.43 1388.33,1736.86 1388.33,1734.25C1388.33,1733.05 1388.18,1731.94 1387.88,1730.94C1387.59,1729.93 1387.21,1729.07 1386.75,1728.35C1386.29,1727.62 1385.66,1726.97 1384.87,1726.39C1384.08,1725.82 1383.32,1725.34 1382.58,1724.98C1381.85,1724.61 1380.92,1724.29 1379.8,1724.02C1378.67,1723.75 1377.69,1723.54 1376.85,1723.41C1376.01,1723.28 1374.96,1723.18 1373.69,1723.11C1372.43,1723.04 1371.4,1723 1370.61,1722.99C1369.82,1722.98 1368.8,1722.97 1367.57,1722.97L1346.18,1722.97L1346.18,1768.03Z" style="fill:rgb(48,50,61);fill-rule:nonzero;"/>
            </g>
            <g transform="matrix(1.29,0,0,1,-404.963,0)">
                <path d="M1399.69,1751.18C1399.69,1749.19 1400.08,1745.85 1400.86,1741.15C1401.64,1736.46 1402.43,1732.25 1403.24,1728.54L1404.41,1722.97L1411.68,1722.97C1410.47,1737.23 1409.87,1747.03 1409.87,1752.35C1409.87,1754.1 1410.07,1755.69 1410.45,1757.12C1410.85,1758.55 1411.45,1759.86 1412.28,1761.04C1413.11,1762.22 1414.28,1763.14 1415.78,1763.79C1417.28,1764.44 1419.06,1764.77 1421.12,1764.77C1423.17,1764.77 1424.95,1764.44 1426.46,1763.79C1427.96,1763.14 1429.13,1762.22 1429.97,1761.04C1430.81,1759.86 1431.42,1758.55 1431.81,1757.12C1432.2,1755.69 1432.4,1754.1 1432.4,1752.35C1432.4,1749.98 1432.25,1746.35 1431.94,1741.45C1431.63,1736.56 1431.34,1732.25 1431.05,1728.54L1430.59,1722.97L1437.83,1722.97C1438.18,1724.58 1438.62,1726.64 1439.14,1729.14C1439.66,1731.65 1440.36,1735.45 1441.23,1740.55C1442.11,1745.65 1442.55,1749.19 1442.55,1751.18C1442.55,1754.42 1442.06,1757.18 1441.09,1759.48C1440.12,1761.77 1438.68,1763.59 1436.76,1764.92C1434.85,1766.26 1432.62,1767.23 1430.08,1767.83C1427.53,1768.44 1424.55,1768.74 1421.12,1768.74C1417.69,1768.74 1414.7,1768.44 1412.16,1767.83C1409.62,1767.23 1407.39,1766.26 1405.47,1764.92C1403.55,1763.59 1402.11,1761.77 1401.14,1759.48C1400.17,1757.18 1399.69,1754.42 1399.69,1751.18Z" style="fill:rgb(48,50,61);fill-rule:nonzero;"/>
            </g>
            <g transform="matrix(1.29,0,0,1,-420.848,0)">
                <path d="M1453.36,1761.86L1455.63,1757.78C1455.82,1757.94 1456.1,1758.17 1456.45,1758.45C1456.8,1758.73 1457.59,1759.24 1458.79,1759.96C1460,1760.68 1461.25,1761.31 1462.55,1761.86C1463.85,1762.4 1465.52,1762.9 1467.54,1763.35C1469.56,1763.8 1471.6,1764.02 1473.66,1764.02C1476.71,1764.02 1479.06,1763.46 1480.7,1762.34C1482.34,1761.21 1483.17,1759.74 1483.17,1757.92C1483.17,1755.88 1482.4,1754.32 1480.86,1753.22C1479.32,1752.12 1475.93,1750.44 1470.68,1748.2C1469.35,1747.63 1468.19,1747.11 1467.2,1746.63C1466.21,1746.16 1465.11,1745.59 1463.92,1744.91C1462.72,1744.24 1461.71,1743.55 1460.87,1742.86C1460.03,1742.16 1459.24,1741.38 1458.51,1740.53C1457.77,1739.68 1457.22,1738.75 1456.84,1737.73C1456.46,1736.71 1456.27,1735.65 1456.27,1734.54C1456.27,1730.8 1457.77,1727.82 1460.76,1725.6C1463.75,1723.37 1467.96,1722.26 1473.37,1722.26C1479.59,1722.26 1485.26,1724.2 1490.37,1728.08L1488.1,1732.19C1486.02,1730.73 1483.66,1729.49 1481.02,1728.49C1478.38,1727.48 1475.68,1726.98 1472.91,1726.98C1470.88,1726.98 1469.29,1727.4 1468.16,1728.26C1467.02,1729.11 1466.45,1730.37 1466.45,1732.05C1466.45,1733.57 1467.25,1734.99 1468.85,1736.31C1470.45,1737.63 1473.3,1739.05 1477.42,1740.57C1483.1,1742.7 1487.17,1744.84 1489.64,1746.99C1492.11,1749.14 1493.35,1751.87 1493.35,1755.19C1493.35,1757.01 1492.95,1758.72 1492.16,1760.33C1491.37,1761.94 1490.21,1763.38 1488.7,1764.64C1487.19,1765.91 1485.19,1766.91 1482.7,1767.64C1480.22,1768.37 1477.42,1768.74 1474.3,1768.74C1471.81,1768.74 1469.39,1768.5 1467.04,1768.03C1464.69,1767.56 1462.72,1766.98 1461.13,1766.31C1459.55,1765.63 1458.15,1764.96 1456.93,1764.29C1455.71,1763.61 1454.82,1763.04 1454.25,1762.57L1453.36,1761.86Z" style="fill:rgb(48,50,61);fill-rule:nonzero;"/>
            </g>
            <g transform="matrix(1.29,0,0,1,-434.908,0)">
                <path d="M1501.85,1761.86L1504.12,1757.78C1504.31,1757.94 1504.58,1758.17 1504.93,1758.45C1505.29,1758.73 1506.07,1759.24 1507.28,1759.96C1508.48,1760.68 1509.74,1761.31 1511.04,1761.86C1512.34,1762.4 1514,1762.9 1516.02,1763.35C1518.04,1763.8 1520.08,1764.02 1522.14,1764.02C1525.19,1764.02 1527.54,1763.46 1529.18,1762.34C1530.83,1761.21 1531.65,1759.74 1531.65,1757.92C1531.65,1755.88 1530.88,1754.32 1529.34,1753.22C1527.81,1752.12 1524.41,1750.44 1519.16,1748.2C1517.84,1747.63 1516.68,1747.11 1515.68,1746.63C1514.69,1746.16 1513.6,1745.59 1512.4,1744.91C1511.21,1744.24 1510.19,1743.55 1509.35,1742.86C1508.51,1742.16 1507.73,1741.38 1506.99,1740.53C1506.26,1739.68 1505.7,1738.75 1505.33,1737.73C1504.95,1736.71 1504.76,1735.65 1504.76,1734.54C1504.76,1730.8 1506.25,1727.82 1509.25,1725.6C1512.24,1723.37 1516.44,1722.26 1521.86,1722.26C1528.08,1722.26 1533.74,1724.2 1538.85,1728.08L1536.58,1732.19C1534.5,1730.73 1532.14,1729.49 1529.5,1728.49C1526.87,1727.48 1524.16,1726.98 1521.4,1726.98C1519.36,1726.98 1517.78,1727.4 1516.64,1728.26C1515.51,1729.11 1514.94,1730.37 1514.94,1732.05C1514.94,1733.57 1515.74,1734.99 1517.34,1736.31C1518.93,1737.63 1521.79,1739.05 1525.9,1740.57C1531.58,1742.7 1535.65,1744.84 1538.13,1746.99C1540.6,1749.14 1541.83,1751.87 1541.83,1755.19C1541.83,1757.01 1541.44,1758.72 1540.64,1760.33C1539.85,1761.94 1538.7,1763.38 1537.18,1764.64C1535.67,1765.91 1533.67,1766.91 1531.19,1767.64C1528.71,1768.37 1525.9,1768.74 1522.78,1768.74C1520.3,1768.74 1517.88,1768.5 1515.53,1768.03C1513.17,1767.56 1511.2,1766.98 1509.62,1766.31C1508.03,1765.63 1506.63,1764.96 1505.41,1764.29C1504.19,1763.61 1503.3,1763.04 1502.74,1762.57L1501.85,1761.86Z" style="fill:rgb(48,50,61);fill-rule:nonzero;"/>
            </g>
            <g transform="matrix(1.29,0,0,1,-449.703,0)">
                <rect x="1554.32" y="1722.97" width="9.473" height="45.059" style="fill:rgb(48,50,61);fill-rule:nonzero;"/>
            </g>
            <g transform="matrix(1.29,0,0,1,-454.182,0)">
                <path d="M1567.6,1761.57C1567.6,1759.33 1568.27,1756.55 1569.62,1753.25C1570.97,1749.95 1572.6,1746.74 1574.5,1743.6C1576.4,1740.47 1578.45,1737.36 1580.64,1734.29C1582.83,1731.21 1584.7,1728.7 1586.26,1726.75C1587.82,1724.8 1588.99,1723.42 1589.77,1722.62L1598.86,1722.62C1600.65,1729.03 1603.3,1736.65 1606.8,1745.5C1610.31,1754.35 1613.58,1761.86 1616.63,1768.03L1606.49,1768.03C1602.54,1760.7 1597.18,1747.3 1590.41,1727.83C1590.08,1728.38 1589.63,1729.12 1589.07,1730.07C1588.5,1731.01 1587.49,1732.8 1586.03,1735.42C1584.58,1738.05 1583.29,1740.5 1582.18,1742.79C1581.07,1745.07 1580.06,1747.49 1579.15,1750.06C1578.24,1752.63 1577.78,1754.66 1577.78,1756.18C1577.78,1758.66 1579.11,1759.9 1581.76,1759.9C1583.72,1759.9 1586.06,1759.27 1588.78,1757.99C1591.5,1756.71 1593.84,1755.26 1595.81,1753.63L1598.04,1757.92C1596.17,1759.27 1594.54,1760.39 1593.14,1761.31C1591.75,1762.22 1589.96,1763.29 1587.79,1764.54C1585.61,1765.78 1583.48,1766.73 1581.38,1767.39C1579.29,1768.05 1577.33,1768.38 1575.51,1768.38C1573.05,1768.38 1571.12,1767.83 1569.71,1766.72C1568.3,1765.61 1567.6,1763.89 1567.6,1761.57Z" style="fill:rgb(48,50,61);fill-rule:nonzero;"/>
            </g>
        </g>
        <g transform="matrix(2.41069,0,0,1.39,-1950.06,-529.178)">
            <path d="M1344.02,1835.29L1344.02,1830.93C1348.32,1828.41 1352.06,1826.03 1355.25,1823.77C1358.43,1821.52 1360.98,1819.49 1362.91,1817.7C1364.84,1815.91 1366.38,1814.16 1367.54,1812.45C1368.7,1810.74 1369.48,1809.22 1369.9,1807.89C1370.31,1806.56 1370.52,1805.19 1370.52,1803.79C1370.52,1800.85 1369.66,1798.52 1367.95,1796.81C1366.23,1795.1 1363.78,1794.24 1360.59,1794.24C1357.46,1794.24 1354.94,1795.12 1353.01,1796.88C1351.08,1798.64 1350.12,1800.7 1350.12,1803.08C1350.12,1804.36 1350.46,1805.67 1351.15,1807C1351.17,1807.05 1350.92,1807.2 1350.38,1807.46C1349.85,1807.72 1349.31,1807.98 1348.77,1808.25L1347.95,1808.6C1347.81,1808.41 1347.64,1808.16 1347.44,1807.84C1347.24,1807.52 1346.97,1806.84 1346.62,1805.82C1346.28,1804.8 1346.11,1803.77 1346.11,1802.72C1346.11,1800.26 1346.88,1798.01 1348.43,1795.98C1349.98,1793.95 1352.08,1792.37 1354.73,1791.23C1357.38,1790.09 1360.3,1789.53 1363.49,1789.53C1368.56,1789.53 1372.69,1790.9 1375.89,1793.66C1379.1,1796.42 1380.7,1799.9 1380.7,1804.08C1380.7,1806.31 1380.25,1808.43 1379.34,1810.44C1378.42,1812.44 1377.43,1814.13 1376.36,1815.5C1375.28,1816.86 1373.52,1818.41 1371.09,1820.14C1368.65,1821.88 1366.69,1823.17 1365.21,1824.03C1363.74,1824.88 1361.35,1826.22 1358.07,1828.05C1357.5,1828.36 1357.07,1828.6 1356.79,1828.77L1382.16,1828.77L1382.16,1835.29L1344.02,1835.29Z" style="fill:rgb(48,50,61);fill-rule:nonzero;"/>
            <path d="M1386.82,1815.1C1386.82,1812.62 1387.07,1810.19 1387.57,1807.81C1388.06,1805.43 1388.87,1803.13 1390,1800.89C1391.12,1798.66 1392.49,1796.71 1394.11,1795.04C1395.73,1793.37 1397.75,1792.04 1400.18,1791.03C1402.6,1790.03 1405.29,1789.53 1408.25,1789.53C1411.21,1789.53 1413.9,1790.03 1416.32,1791.03C1418.75,1792.04 1420.77,1793.37 1422.39,1795.04C1424.01,1796.71 1425.38,1798.66 1426.5,1800.89C1427.63,1803.13 1428.44,1805.43 1428.93,1807.81C1429.43,1810.19 1429.68,1812.62 1429.68,1815.1C1429.68,1818.3 1429.27,1821.13 1428.45,1823.62C1427.64,1826.1 1426.56,1828.11 1425.23,1829.63C1423.89,1831.16 1422.28,1832.41 1420.38,1833.39C1418.49,1834.38 1416.56,1835.06 1414.6,1835.44C1412.64,1835.81 1410.52,1836 1408.25,1836C1405.98,1836 1403.86,1835.81 1401.9,1835.44C1399.94,1835.06 1398.01,1834.38 1396.12,1833.39C1394.22,1832.41 1392.61,1831.16 1391.27,1829.63C1389.94,1828.11 1388.86,1826.1 1388.04,1823.62C1387.23,1821.13 1386.82,1818.3 1386.82,1815.1ZM1397,1816.09C1397,1821.36 1397.98,1825.38 1399.93,1828.17C1401.88,1830.96 1404.65,1832.35 1408.25,1832.35C1411.85,1832.35 1414.62,1830.96 1416.59,1828.17C1418.55,1825.38 1419.53,1821.36 1419.53,1816.09C1419.53,1813.14 1419.34,1810.38 1418.96,1807.81C1418.59,1805.23 1417.98,1802.81 1417.15,1800.55C1416.33,1798.28 1415.16,1796.49 1413.64,1795.16C1412.13,1793.84 1410.33,1793.18 1408.25,1793.18C1406.17,1793.18 1404.37,1793.84 1402.86,1795.16C1401.34,1796.49 1400.18,1798.29 1399.36,1800.56C1398.55,1802.84 1397.95,1805.26 1397.57,1807.82C1397.19,1810.39 1397,1813.14 1397,1816.09Z" style="fill:rgb(48,50,61);fill-rule:nonzero;"/>
            <path d="M1433.39,1796.76L1433.39,1793.5C1435.55,1793.24 1437.3,1792.93 1438.64,1792.58C1439.99,1792.22 1440.98,1791.89 1441.61,1791.58C1442.23,1791.28 1443.33,1790.68 1444.89,1789.81L1448.37,1789.81L1448.37,1835.29L1438.93,1835.29L1438.93,1800.61C1438.93,1799.36 1438.57,1798.41 1437.85,1797.75C1437.13,1797.09 1436.15,1796.76 1434.92,1796.76L1433.39,1796.76Z" style="fill:rgb(48,50,61);fill-rule:nonzero;"/>
            <path d="M1454.84,1822.72C1454.84,1821.44 1455.05,1820.25 1455.48,1819.16C1455.9,1818.06 1456.42,1817.14 1457.04,1816.39C1457.65,1815.65 1458.42,1814.97 1459.33,1814.36C1460.24,1813.74 1461.07,1813.27 1461.83,1812.92C1462.59,1812.58 1463.42,1812.27 1464.35,1812C1465.27,1811.73 1465.93,1811.55 1466.34,1811.47C1466.74,1811.39 1467.16,1811.31 1467.61,1811.24C1467.16,1811.17 1466.62,1811.04 1466,1810.83C1465.38,1810.63 1464.61,1810.28 1463.7,1809.77C1462.78,1809.26 1461.96,1808.67 1461.23,1807.98C1460.5,1807.3 1459.87,1806.38 1459.33,1805.24C1458.8,1804.09 1458.53,1802.84 1458.53,1801.47C1458.53,1799.38 1458.99,1797.55 1459.92,1795.96C1460.85,1794.37 1462.08,1793.13 1463.61,1792.23C1465.14,1791.33 1466.79,1790.65 1468.56,1790.2C1470.33,1789.75 1472.17,1789.53 1474.07,1789.53C1475.57,1789.53 1477.03,1789.66 1478.47,1789.92C1479.91,1790.18 1481.31,1790.62 1482.68,1791.23C1484.04,1791.85 1485.24,1792.61 1486.26,1793.51C1487.28,1794.41 1488.1,1795.54 1488.72,1796.9C1489.34,1798.26 1489.64,1799.79 1489.64,1801.47C1489.64,1802.84 1489.38,1804.09 1488.84,1805.24C1488.3,1806.38 1487.67,1807.3 1486.94,1807.98C1486.22,1808.67 1485.39,1809.26 1484.48,1809.77C1483.56,1810.28 1482.79,1810.63 1482.17,1810.83C1481.55,1811.04 1481.02,1811.17 1480.56,1811.24C1481.01,1811.31 1481.44,1811.39 1481.84,1811.47C1482.24,1811.55 1482.9,1811.73 1483.83,1812C1484.75,1812.27 1485.59,1812.58 1486.35,1812.92C1487.1,1813.27 1487.94,1813.74 1488.85,1814.36C1489.76,1814.97 1490.52,1815.65 1491.13,1816.39C1491.75,1817.14 1492.27,1818.06 1492.7,1819.16C1493.12,1820.25 1493.33,1821.44 1493.33,1822.72C1493.33,1824.3 1493.09,1825.75 1492.59,1827.07C1492.09,1828.38 1491.44,1829.49 1490.64,1830.39C1489.83,1831.29 1488.87,1832.08 1487.75,1832.77C1486.62,1833.46 1485.49,1834 1484.34,1834.4C1483.19,1834.81 1481.97,1835.13 1480.67,1835.38C1479.37,1835.63 1478.2,1835.8 1477.16,1835.88C1476.12,1835.96 1475.09,1836 1474.07,1836C1473.05,1836 1472.02,1835.96 1470.98,1835.88C1469.94,1835.8 1468.77,1835.63 1467.47,1835.38C1466.17,1835.13 1464.94,1834.81 1463.8,1834.4C1462.65,1834 1461.52,1833.46 1460.41,1832.77C1459.3,1832.08 1458.34,1831.29 1457.54,1830.39C1456.73,1829.49 1456.08,1828.38 1455.58,1827.07C1455.09,1825.75 1454.84,1824.3 1454.84,1822.72ZM1464.99,1823.28C1464.99,1829.33 1468.01,1832.35 1474.07,1832.35C1480.12,1832.35 1483.15,1829.33 1483.15,1823.28C1483.15,1822.72 1483.09,1822.07 1482.96,1821.34C1482.83,1820.6 1482.58,1819.77 1482.22,1818.84C1481.86,1817.91 1481.4,1817.05 1480.85,1816.27C1480.3,1815.49 1479.55,1814.8 1478.62,1814.2C1477.68,1813.6 1476.63,1813.21 1475.45,1813.05L1475.45,1809.58C1477.09,1809.25 1478.47,1808.4 1479.59,1807.05C1480.71,1805.69 1481.27,1803.72 1481.27,1801.15C1481.27,1799.78 1481.09,1798.59 1480.74,1797.57C1480.38,1796.56 1479.96,1795.78 1479.46,1795.23C1478.96,1794.69 1478.36,1794.25 1477.65,1793.92C1476.94,1793.59 1476.32,1793.39 1475.77,1793.3C1475.23,1793.22 1474.66,1793.18 1474.07,1793.18C1473.48,1793.18 1472.91,1793.22 1472.37,1793.3C1471.82,1793.39 1471.19,1793.59 1470.49,1793.92C1469.78,1794.25 1469.17,1794.69 1468.68,1795.23C1468.18,1795.78 1467.76,1796.56 1467.42,1797.57C1467.07,1798.59 1466.9,1799.78 1466.9,1801.15C1466.9,1803.72 1467.46,1805.69 1468.59,1807.05C1469.71,1808.4 1471.09,1809.25 1472.72,1809.58L1472.72,1813.05C1471.27,1813.24 1470,1813.76 1468.92,1814.61C1467.85,1815.46 1467.04,1816.45 1466.52,1817.58C1465.99,1818.71 1465.6,1819.77 1465.36,1820.73C1465.11,1821.7 1464.99,1822.55 1464.99,1823.28Z" style="fill:rgb(48,50,61);fill-rule:nonzero;"/>
        </g>
    </g>
    <g transform="matrix(3.17959,0,0,3.25941,-618.367,-539.749)">
        <g id="Final-Product-Setup--Rec-" serif:id="Final Product Setup (Rec)">
            <rect x="194.48" y="165.597" width="943.517" height="920.411" style="fill:none;"/>
        </g>
    </g>
</svg>
