<?xml version="1.0" encoding="UTF-8"?>
<!DOCTYPE svg PUBLIC "-//W3C//DTD SVG 1.1//EN" "http://www.w3.org/Graphics/SVG/1.1/DTD/svg11.dtd">
<svg version="1.1" xmlns="http://www.w3.org/2000/svg" xmlns:xlink="http://www.w3.org/1999/xlink" x="0" y="0" width="3000" height="3000" viewBox="0, 0, 3000, 3000">
  <g id="Starbux_-_final">
    <path d="M561.113,2157.991 C592.728,2144.601 915.952,2124.289 951.576,2156.669" fill-opacity="0" stroke="#31323D" stroke-width="10" stroke-linecap="round"/>
    <path d="M677.439,2630.553 C549.83,2622.774 447.297,2601.45 448.427,2582.924 C449.556,2564.398 553.92,2555.686 681.528,2563.465 C809.139,2571.244 911.672,2592.568 910.542,2611.094 C909.413,2629.62 805.049,2638.332 677.439,2630.553 z" fill="#31323D" fill-opacity="0.381"/>
    <g>
      <path d="M567.605,2004.811 C661.704,2012.015 861.505,2015.311 951.576,2001.169 C953.398,2070.632 927.634,2520.02 913.285,2610.68 C824.58,2640.031 662.213,2633.978 597.948,2611.567 C585.862,2553.284 567.701,2047.592 567.605,2004.811 z" fill="#FFFFFF"/>
      <path d="M567.605,2004.811 C661.704,2012.015 861.505,2015.311 951.576,2001.169 C953.398,2070.632 927.634,2520.02 913.285,2610.68 C824.58,2640.031 662.213,2633.978 597.948,2611.567 C585.862,2553.284 567.701,2047.592 567.605,2004.811 z" fill-opacity="0" stroke="#31323D" stroke-width="10.25"/>
    </g>
    <g>
      <path d="M762.188,2022.185 C663.368,2022.185 583.258,2011.941 583.258,1999.306 C583.258,1986.67 663.368,1976.427 762.188,1976.427 C861.008,1976.427 941.118,1986.67 941.118,1999.306 C941.118,2011.941 861.008,2022.185 762.188,2022.185 z" fill="#FFFFFF"/>
      <path d="M762.188,2022.185 C663.368,2022.185 583.258,2011.941 583.258,1999.306 C583.258,1986.67 663.368,1976.427 762.188,1976.427 C861.008,1976.427 941.118,1986.67 941.118,1999.306 C941.118,2011.941 861.008,2022.185 762.188,2022.185 z" fill-opacity="0" stroke="#31323D" stroke-width="10"/>
    </g>
    <g id="Sbux_logo">
      <g>
        <path d="M800.838,2319.253 C749.033,2319.253 707.037,2278.966 707.037,2229.271 C707.037,2179.575 749.033,2139.288 800.838,2139.288 C852.643,2139.288 894.639,2179.575 894.639,2229.271 C894.639,2278.966 852.643,2319.253 800.838,2319.253 z" fill="#1E4D0D"/>
        <path d="M800.838,2319.253 C749.033,2319.253 707.037,2278.966 707.037,2229.271 C707.037,2179.575 749.033,2139.288 800.838,2139.288 C852.643,2139.288 894.639,2179.575 894.639,2229.271 C894.639,2278.966 852.643,2319.253 800.838,2319.253 z" fill-opacity="0" stroke="#31323D" stroke-width="10" stroke-linecap="round" stroke-linejoin="round"/>
      </g>
      <path d="M786.986,2182.808 L789.536,2171.172 L778.734,2162.931 L793.662,2161.234 L800.338,2150.647 L807.014,2161.234 L821.941,2162.931 L811.139,2171.172 L813.689,2182.808 L800.338,2177.314 z" fill="#FFFFFF"/>
      <path d="M774.375,2204.783 L768.819,2186.126 L763.264,2167.469 L780.853,2175.81 L798.441,2184.152 L786.408,2194.467 z" fill="#FFFFFF"/>
      <path d="M822.507,2204.782 L828.063,2186.126 L833.619,2167.469 L816.03,2175.81 L798.441,2184.151 L810.474,2194.467 z" fill="#FFFFFF"/>
    </g>
    <path d="M572.649,2034.5 L622.313,2039.821 C622.313,2039.821 647.242,2579.362 652.546,2617.718 C639.242,2617.862 618.069,2611.781 601.858,2607.9 C587.474,2521.594 572.649,2034.5 572.649,2034.5 z" fill="#31323D" fill-opacity="0.381" id="Shape"/>
    <g>
      <path d="M562.387,2166.327 C637.07,2184.151 882.137,2188.756 951.576,2162.281 C947.61,2225.319 937.81,2343.179 937.81,2414.823 C887.014,2448.05 629.446,2450.086 574.271,2407.515 C576.023,2358.715 567.006,2214.262 562.387,2166.327 z" fill="#997020"/>
      <path d="M562.387,2166.327 C637.07,2184.151 882.137,2188.756 951.576,2162.281 C947.61,2225.319 937.81,2343.179 937.81,2414.823 C887.014,2448.05 629.446,2450.086 574.271,2407.515 C576.023,2358.715 567.006,2214.262 562.387,2166.327 z" fill-opacity="0" stroke="#31323D" stroke-width="10.686"/>
    </g>
    <path d="M924.665,2174.414 C933.661,2174.252 935.597,2171.946 945.947,2169.06 C941.07,2202.3 931.236,2388.648 932.239,2411.314 C925.564,2415.227 926.324,2413.804 915.266,2417.674 C916.096,2349.396 920.795,2248.498 924.665,2174.414 z" fill="#FFFFFF" fill-opacity="0.666" opacity="0.433"/>
    <g>
      <g>
        <path d="M572.114,1928.532 C572.614,1912.255 942.528,1930.335 947.362,1928.72 C952.195,1927.105 947.661,1956.533 962.739,1992.736 C847.661,2015.766 647.667,2012.166 560.164,1992.736 C570.161,1968.065 571.614,1944.808 572.114,1928.532 z" fill="#FFFFFF"/>
        <path d="M572.114,1928.532 C572.614,1912.255 942.528,1930.335 947.362,1928.72 C952.195,1927.105 947.661,1956.533 962.739,1992.736 C847.661,2015.766 647.667,2012.166 560.164,1992.736 C570.161,1968.065 571.614,1944.808 572.114,1928.532 z" fill-opacity="0" stroke="#31323D" stroke-width="10"/>
      </g>
      <g>
        <path d="M756.659,1940.532 C663.221,1940.532 585.627,1936.794 576.745,1927.105 C586.434,1917.012 663.221,1916.531 756.659,1916.531 C850.097,1916.531 936.854,1917.82 947.362,1928.72 C938.469,1937.601 850.097,1940.532 756.659,1940.532 z" fill="#FFFFFF"/>
        <path d="M756.659,1940.532 C663.221,1940.532 585.627,1936.794 576.745,1927.105 C586.434,1917.012 663.221,1916.531 756.659,1916.531 C850.097,1916.531 936.854,1917.82 947.362,1928.72 C938.469,1937.601 850.097,1940.532 756.659,1940.532 z" fill-opacity="0" stroke="#31323D" stroke-width="10"/>
      </g>
      <g>
        <path d="M560.164,1992.736 C676.461,2016.325 876.817,2004.769 962.739,1992.736 C971.661,2001.204 969.734,2009.013 971.161,2021.606 C899.161,2046.606 635.661,2044.606 555.161,2027.106 C552.161,2011.606 551.715,2000.984 560.164,1992.736 z" fill="#FFFFFF"/>
        <path d="M560.164,1992.736 C676.461,2016.325 876.817,2004.769 962.739,1992.736 C971.661,2001.204 969.734,2009.013 971.161,2021.606 C899.161,2046.606 635.661,2044.606 555.161,2027.106 C552.161,2011.606 551.715,2000.984 560.164,1992.736 z" fill-opacity="0" stroke="#31323D" stroke-width="10"/>
      </g>
    </g>
    <path d="M819.311,1925.192 C811.845,1925.192 805.793,1924.275 805.793,1923.144 C805.793,1922.013 811.845,1921.096 819.311,1921.096 C826.778,1921.096 832.83,1922.013 832.83,1923.144 C832.83,1924.275 826.778,1925.192 819.311,1925.192 z" fill-opacity="0" stroke="#31323D" stroke-width="10" id="Shape"/>
    <path d="M567.105,2171.5 C582.016,2174.807 605.969,2179.058 621,2179 C622.075,2202.46 634.48,2401.204 635.514,2422.396 C623.109,2423.947 589.511,2411.283 578.915,2404.564 C579.69,2369.932 570.645,2201.944 567.105,2171.5 z" fill="#31323D" fill-opacity="0.381"/>
    <path d="M576.545,1932.921 C586.443,1936.537 606.087,1940.868 620.996,1939.626 C625.982,1967.24 624.096,1983.157 617.704,1996.066 C607.045,1995.495 578.372,1992.307 564.934,1989.642 C570.187,1971.56 574.261,1962.804 576.545,1932.921 z" fill="#31323D" fill-opacity="0.381"/>
    <path d="M560.613,1997.616 C566.725,1998.672 609.733,2005.783 616.406,2004.986 C617.003,2009.866 617.103,2023.412 615.869,2030.255 C609.135,2029.487 574.575,2025.901 558.639,2023.212 C557.245,2018.731 555.274,2003.406 560.613,1997.616 z" fill="#31323D" fill-opacity="0.381"/>
    <path d="M815.586,1626.768 L815.355,1625.484 L814.78,1622.896 L814.09,1621.129 L813.325,1620.233 L812.546,1619.363 L811.746,1618.511 L810.925,1617.68 L810.082,1616.866 L809.219,1616.073 L808.332,1615.304 L807.4,1614.583 L806.449,1613.884 L805.477,1613.207 L804.488,1612.555 L803.479,1611.927 L802.452,1611.324 L801.406,1610.747 L800.342,1610.196 L799.26,1609.672 L798.155,1609.182 L797.024,1608.73 L795.877,1608.309 L794.711,1607.917 L793.528,1607.557 L792.33,1607.228 L791.114,1606.933 L789.88,1606.67 L788.63,1606.442 L787.363,1606.25 L786.078,1606.094 L785.393,1606.027 L785.393,1606.027 C785.363,1606.025 785.332,1606.023 785.3,1606.022 L785.3,1606.022 L784.7,1605.973 L783.292,1605.922 L781.792,1605.932 L780.266,1606.006 L778.711,1606.144 L777.133,1606.349 L775.535,1606.62 L773.915,1606.963 L772.276,1607.378 L770.615,1607.874 L768.928,1608.457 L767.209,1609.139 L765.45,1609.939 L763.643,1610.876 L761.777,1611.975 L759.843,1613.27 L758.589,1614.201 L758.589,1614.201 C758.453,1614.306 758.319,1614.412 758.185,1614.521 L758.185,1614.521 L757.841,1614.795 L756.774,1615.687 L755.59,1616.745 L754.425,1617.864 L753.287,1619.043 L752.189,1620.277 L751.144,1621.558 L750.168,1622.871 L749.276,1624.197 L748.475,1625.523 L747.773,1626.832 L747.174,1628.109 L746.515,1629.793 L745.889,1631.962 L745.53,1634.08 L745.433,1636.009 L745.544,1637.784 L745.825,1639.442 L746.251,1641.007 L746.803,1642.504 L747.47,1643.948 L748.24,1645.353 L749.109,1646.728 L750.07,1648.079 L751.116,1649.413 L752.246,1650.732 L753.452,1652.039 L754.732,1653.337 L756.08,1654.626 L757.492,1655.909 L758.966,1657.186 L760.499,1658.453 L762.087,1659.712 L763.722,1660.966 L765.399,1662.214 L767.115,1663.458 L769.748,1665.311 L773.354,1667.766 L777.042,1670.203 L780.769,1672.617 L784.496,1675.005 L788.189,1677.36 L791.815,1679.68 L794.461,1681.395 L796.18,1682.525 L797.863,1683.646 L799.501,1684.756 L801.091,1685.855 L802.625,1686.941 L804.102,1688.014 L805.515,1689.075 L806.857,1690.121 L808.124,1691.15 L809.314,1692.162 L810.419,1693.154 L811.433,1694.124 L812.352,1695.07 L813.17,1695.987 L813.88,1696.874 L814.477,1697.721 L814.958,1698.519 L815.319,1699.252 L815.558,1699.903 L815.601,1700.09 L815.562,1699.956 L815.688,1700.432 L815.893,1701.292 L816.059,1702.105 L816.195,1702.899 L816.295,1703.677 L816.366,1704.435 L816.411,1705.171 L816.43,1705.885 L816.424,1706.575 L816.395,1707.244 L816.344,1707.886 L816.257,1708.514 L816.074,1709.479 L815.744,1710.675 L815.373,1711.693 L814.966,1712.599 L814.524,1713.404 L814.07,1714.109 L813.608,1714.735 L813.138,1715.3 L812.649,1715.831 L812.122,1716.348 L811.542,1716.865 L810.904,1717.406 L810.198,1717.975 L809.414,1718.58 L808.543,1719.225 L807.583,1719.908 L806.522,1720.604 L805.377,1721.322 L804.152,1722.063 L802.849,1722.828 L801.473,1723.612 L800.031,1724.412 L797.681,1725.663 L794.408,1727.298 L791.015,1728.941 L787.463,1730.633 L783.776,1732.387 L779.967,1734.228 L776.059,1736.22 L772.046,1738.362 L768.898,1740.132 L766.703,1741.423 L764.564,1742.763 L762.391,1744.18 L760.182,1745.684 L757.935,1747.286 L755.646,1749.001 L753.315,1750.845 L750.947,1752.833 L748.541,1754.983 L746.155,1757.345 L743.793,1759.894 L741.469,1762.606 L739.218,1765.469 L737.081,1768.461 L735.103,1771.547 L733.322,1774.684 L731.771,1777.825 L730.469,1780.931 L729.439,1783.956 L728.926,1785.774 L728.926,1785.774 C728.841,1786.093 728.766,1786.409 728.7,1786.72 L728.7,1786.72 L728.621,1787.088 L728.275,1789.499 L728.241,1792.085 L728.552,1794.252 L729.108,1796.06 L729.837,1797.582 L730.686,1798.872 L731.631,1799.988 L732.647,1800.963 L733.724,1801.826 L734.858,1802.603 L736.045,1803.309 L737.281,1803.956 L738.566,1804.552 L739.895,1805.106 L741.272,1805.623 L742.691,1806.108 L744.154,1806.564 L745.659,1806.995 L747.206,1807.403 L748.787,1807.789 L750.402,1808.155 L752.053,1808.504 L753.737,1808.836 L755.448,1809.153 L757.185,1809.456 L759.816,1809.884 L763.407,1810.416 L767.072,1810.911 L770.772,1811.374 L774.486,1811.809 L778.182,1812.222 L781.84,1812.62 L785.437,1813.007 L788.943,1813.388 L792.335,1813.758 L794.794,1814.017 L796.378,1814.191 L797.921,1814.369 L799.414,1814.55 L800.856,1814.734 L802.278,1814.871 L803.633,1815.014 L804.922,1815.163 L806.142,1815.318 L807.285,1815.48 L808.343,1815.646 L809.309,1815.829 L810.174,1816.019 L810.94,1816.209 L811.597,1816.396 L812.137,1816.572 L812.545,1816.733 L812.805,1816.873 L812.767,1816.859 L812.557,1816.728 L812.908,1816.952 L813.265,1817.219 L813.447,1817.409 L813.557,1817.58 L813.599,1817.722 L813.594,1817.823 L813.554,1817.877 L813.49,1817.878 L813.413,1817.823 L813.325,1817.725 L813.235,1817.582 L813.159,1817.396 L813.103,1817.174 L813.067,1816.935 L813.05,1816.683 L813.049,1816.439 L813.055,1816.213 L813.063,1816.017 L813.091,1815.858 L813.106,1815.748 L813.096,1815.697 L813.055,1815.708 L812.977,1815.784 L812.862,1815.918 L812.521,1816.4 L811.969,1817.15 L811.343,1817.956 L810.544,1818.952 L809.583,1820.114 L808.481,1821.413 L806.525,1823.661 L804.454,1825.998 L802.982,1827.651 L801.411,1829.418 L799.788,1831.261 L798.114,1833.194 L796.777,1834.769 L795.837,1835.899 L794.936,1837.004 L794.022,1838.151 L793.092,1839.349 L792.152,1840.598 L791.197,1841.914 L790.231,1843.301 L789.254,1844.778 L788.278,1846.343 L787.308,1848.014 L786.362,1849.796 L785.462,1851.687 L784.641,1853.68 L784.138,1855.101 L784.138,1855.101 C784.073,1855.299 784.011,1855.497 783.952,1855.693 L783.952,1855.693 L783.778,1856.273 L783.307,1857.984 L782.867,1859.834 L782.514,1861.632 L782.245,1863.374 L782.058,1865.061 L781.95,1866.691 L781.917,1868.26 L781.955,1869.773 L782.06,1871.226 L782.229,1872.624 L782.456,1873.962 L782.737,1875.25 L783.07,1876.486 L783.449,1877.671 L783.871,1878.81 L784.333,1879.906 L784.832,1880.958 L785.365,1881.973 L785.927,1882.948 L786.519,1883.891 L787.136,1884.799 L788.076,1886.069 L789.415,1887.696 L790.849,1889.266 L792.337,1890.755 L793.866,1892.176 L795.421,1893.538 L796.993,1894.854 L799.346,1896.748 L802.78,1898.879 L805.575,1900.134 L807.366,1900.954 L809.113,1901.789 L811.142,1902.284 L813.327,1902.58 L815.439,1902.914 L817.473,1903.297 L818.927,1903.599 L819.876,1903.799 L821.015,1903.858 L822.135,1903.938 L823.237,1904.041 L824.318,1904.167 L824.839,1904.215 L824.839,1904.215 C826.212,1906.922 830.903,1906.079 835.316,1902.333 C839.729,1898.587 842.194,1893.355 840.821,1890.648 L840.917,1889.858 L841.103,1888.335 L841.251,1886.825 L841.363,1885.326 L841.442,1883.838 L841.28,1882.523 L840.982,1880.607 L840.532,1878.128 L840.009,1875.698 L839.432,1873.314 L838.592,1871.203 L837.385,1869.492 L836.159,1867.815 L834.355,1865.389 L831.637,1862.668 L829.454,1860.912 L828.081,1859.767 L826.777,1858.631 L825.556,1857.506 L824.424,1856.387 L823.391,1855.277 L822.435,1854.137 L821.781,1853.269 L821.401,1852.72 L821.051,1852.176 L820.73,1851.634 L820.441,1851.103 L820.18,1850.575 L819.95,1850.056 L819.749,1849.545 L819.576,1849.043 L819.43,1848.553 L819.311,1848.073 L819.217,1847.603 L819.147,1847.149 L819.099,1846.706 L819.072,1846.276 L819.064,1845.854 L819.073,1845.443 L819.101,1845.038 L819.145,1844.636 L819.205,1844.236 L819.283,1843.832 L819.437,1843.232 L819.616,1842.635 L819.43,1843.226 L819.098,1844.13 L818.692,1845.049 L818.303,1845.818 L817.957,1846.429 L817.676,1846.884 L817.471,1847.188 L817.344,1847.36 L817.303,1847.402 L817.344,1847.334 L817.466,1847.161 L817.662,1846.901 L817.932,1846.556 L818.27,1846.136 L818.62,1845.71 L819.305,1844.897 L820.466,1843.552 L821.81,1842.024 L823.305,1840.341 L824.966,1838.476 L827.649,1835.442 L830.417,1832.243 L832.393,1829.893 L834.418,1827.406 L836.478,1824.768 L838.554,1821.967 L840.514,1819.151 L841.912,1816.993 L842.881,1815.388 L843.821,1813.743 L844.729,1812.051 L845.595,1810.319 L846.407,1808.551 L847.15,1806.758 L847.789,1804.955 L848.336,1803.15 L848.781,1801.355 L849.114,1799.585 L849.326,1797.861 L849.411,1796.188 L849.368,1794.587 L849.197,1793.068 L848.91,1791.634 L848.512,1790.283 L848.002,1789.032 L847.386,1787.879 L846.67,1786.819 L845.865,1785.848 L844.985,1784.956 L844.032,1784.135 L843.103,1783.444 L842.754,1783.209 L842.754,1783.209 C842.686,1783.165 842.616,1783.121 842.545,1783.078 L842.545,1783.078 L841.941,1782.726 L840.937,1782.212 L839.911,1781.742 L838.852,1781.314 L837.752,1780.919 L836.609,1780.549 L835.42,1780.2 L834.194,1779.862 L832.926,1779.527 L831.616,1779.204 L830.263,1778.89 L828.866,1778.584 L827.429,1778.284 L825.956,1777.991 L824.409,1777.755 L822.825,1777.525 L821.209,1777.3 L819.558,1777.078 L817.037,1776.753 L813.584,1776.354 L810.057,1775.971 L806.484,1775.587 L802.886,1775.196 L799.289,1774.794 L795.727,1774.377 L792.216,1773.939 L788.787,1773.477 L785.452,1772.985 L783.029,1772.593 L781.476,1772.323 L779.966,1772.044 L778.507,1771.757 L777.099,1771.462 L775.743,1771.156 L774.45,1770.844 L773.225,1770.523 L772.066,1770.196 L770.981,1769.862 L769.972,1769.524 L769.05,1769.185 L768.213,1768.845 L767.472,1768.513 L766.83,1768.193 L766.292,1767.892 L765.859,1767.622 L765.536,1767.397 L765.324,1767.24 L765.219,1767.18 L765.204,1767.248 L765.259,1767.501 L765.338,1767.993 L765.377,1768.794 L765.281,1769.963 L765.089,1770.905 L765.171,1770.519 L764.945,1771.464 L764.843,1771.737 L764.792,1771.714 L764.67,1771.833 L764.493,1772.045 L764.271,1772.309 L764.031,1772.573 L763.804,1772.796 L763.627,1772.937 L763.531,1772.973 L763.546,1772.89 L763.679,1772.661 L763.925,1772.26 L764.334,1771.732 L764.9,1771.095 L765.617,1770.363 L766.48,1769.546 L767.477,1768.658 L768.598,1767.709 L769.833,1766.705 L771.085,1765.673 L773.228,1763.99 L776.456,1761.58 L779.946,1759.058 L783.631,1756.406 L787.474,1753.671 L791.428,1750.856 L795.456,1747.956 L799.459,1744.996 L802.436,1742.754 L804.467,1741.198 L806.495,1739.603 L808.518,1737.962 L810.534,1736.269 L812.538,1734.522 L814.525,1732.72 L816.505,1730.868 L818.458,1728.942 L820.376,1726.934 L822.242,1724.848 L824.037,1722.689 L825.745,1720.46 L827.353,1718.18 L828.839,1715.863 L830.175,1713.524 L831.344,1711.191 L832.337,1708.878 L833.151,1706.603 L833.803,1704.366 L834.284,1702.176 L834.594,1700.094 L834.746,1698.554 L834.811,1697.49 L834.856,1696.422 L834.863,1695.362 L834.835,1694.304 L834.77,1693.25 L834.67,1692.2 L834.534,1691.152 L834.364,1690.103 L834.166,1689.049 L833.933,1687.994 L833.672,1686.965 L833.541,1686.489 L833.541,1686.489 C833.528,1686.444 833.515,1686.399 833.502,1686.355 L833.502,1686.355 L833.258,1685.618 L832.745,1684.399 L832.124,1683.233 L831.403,1682.104 L830.587,1680.997 L829.681,1679.904 L828.69,1678.814 L827.617,1677.729 L826.465,1676.643 L825.238,1675.557 L823.94,1674.467 L822.573,1673.372 L821.144,1672.272 L819.657,1671.167 L818.114,1670.054 L816.52,1668.935 L814.881,1667.811 L813.198,1666.68 L811.479,1665.543 L809.723,1664.399 L807.039,1662.674 L803.391,1660.357 L799.684,1658.025 L795.961,1655.679 L792.26,1653.321 L788.618,1650.952 L785.064,1648.572 L782.483,1646.784 L780.816,1645.595 L779.193,1644.407 L777.622,1643.222 L776.107,1642.04 L774.648,1640.864 L773.251,1639.697 L771.924,1638.536 L770.672,1637.382 L769.5,1636.24 L768.413,1635.108 L767.417,1633.991 L766.514,1632.891 L765.711,1631.815 L765.012,1630.768 L764.418,1629.755 L763.934,1628.79 L763.559,1627.884 L763.289,1627.054 L763.116,1626.326 L763.022,1625.726 L762.981,1625.289 L762.947,1625.052 L762.924,1624.879 L762.906,1624.814 L762.825,1624.929 L762.717,1625.079 L762.585,1625.251 L762.439,1625.426 L762.288,1625.59 L762.147,1625.727 L762.033,1625.821 L761.962,1625.865 L761.946,1625.851 L761.994,1625.78 L762.245,1625.549 L762.593,1625.263 L762.189,1625.582 L761.902,1625.768 L762.003,1625.647 L762.294,1625.428 L762.751,1625.149 L763.352,1624.833 L764.073,1624.5 L764.895,1624.172 L765.794,1623.859 L766.758,1623.57 L767.767,1623.312 L768.81,1623.09 L769.874,1622.907 L770.946,1622.765 L772.02,1622.667 L773.079,1622.613 L774.176,1622.607 L774.803,1622.623 L774.71,1622.617 L775.209,1622.635 L776.277,1622.7 L777.344,1622.796 L778.41,1622.924 L779.47,1623.081 L780.527,1623.269 L781.579,1623.487 L782.624,1623.734 L783.661,1624.01 L784.692,1624.315 L785.713,1624.647 L786.733,1624.996 L787.749,1625.366 L788.755,1625.763 L789.748,1626.184 L790.731,1626.632 L791.7,1627.103 L792.656,1627.599 L793.598,1628.117 L794.525,1628.659 L795.438,1629.222 L796.36,1629.781 L797.269,1630.357 L798.161,1630.953 L799.037,1631.57 L799.894,1632.205 L800.732,1632.858 L801.544,1633.52 L803.139,1634.153 L805.46,1634.877 L806.61,1635.293 C807.694,1636.625 810.581,1635.797 813.06,1633.443 C815.538,1631.089 816.669,1628.101 815.586,1626.768 L815.586,1626.768" fill="#31323D" opacity="0.337"/>
  </g>
</svg>
