<?xml version="1.0" encoding="UTF-8"?>
<!DOCTYPE svg PUBLIC "-//W3C//DTD SVG 1.1//EN" "http://www.w3.org/Graphics/SVG/1.1/DTD/svg11.dtd">
<svg version="1.1" xmlns="http://www.w3.org/2000/svg" xmlns:xlink="http://www.w3.org/1999/xlink" x="0" y="0" width="3000" height="3000" viewBox="0, 0, 3000, 3000">
  <g id="CK_coffee_co.">
    <path d="M561.113,2157.991 C592.728,2144.601 915.952,2124.289 951.576,2156.669" fill-opacity="0" stroke="#31323D" stroke-width="10" stroke-linecap="round"/>
    <path d="M677.439,2630.553 C549.83,2622.774 447.297,2601.45 448.427,2582.924 C449.556,2564.398 553.92,2555.686 681.528,2563.465 C809.139,2571.244 911.672,2592.568 910.542,2611.094 C909.413,2629.62 805.049,2638.332 677.439,2630.553 z" fill="#31323D" fill-opacity="0.381"/>
    <g>
      <path d="M567.605,2004.811 C661.704,2012.015 861.505,2015.311 951.576,2001.169 C953.398,2070.632 927.634,2520.02 913.285,2610.68 C824.58,2640.031 662.213,2633.978 597.948,2611.567 C585.862,2553.284 567.701,2047.592 567.605,2004.811 z" fill="#FFFFFF"/>
      <path d="M567.605,2004.811 C661.704,2012.015 861.505,2015.311 951.576,2001.169 C953.398,2070.632 927.634,2520.02 913.285,2610.68 C824.58,2640.031 662.213,2633.978 597.948,2611.567 C585.862,2553.284 567.701,2047.592 567.605,2004.811 z" fill-opacity="0" stroke="#31323D" stroke-width="10.25"/>
    </g>
    <g>
      <path d="M762.188,2022.185 C663.368,2022.185 583.258,2011.941 583.258,1999.306 C583.258,1986.67 663.368,1976.427 762.188,1976.427 C861.008,1976.427 941.118,1986.67 941.118,1999.306 C941.118,2011.941 861.008,2022.185 762.188,2022.185 z" fill="#FFFFFF"/>
      <path d="M762.188,2022.185 C663.368,2022.185 583.258,2011.941 583.258,1999.306 C583.258,1986.67 663.368,1976.427 762.188,1976.427 C861.008,1976.427 941.118,1986.67 941.118,1999.306 C941.118,2011.941 861.008,2022.185 762.188,2022.185 z" fill-opacity="0" stroke="#31323D" stroke-width="10"/>
    </g>
    <g>
      <path d="M916.53,2188.622 C916.53,2240.583 879.926,2282.706 834.773,2282.706 C789.62,2282.706 753.016,2240.583 753.016,2188.622 C753.016,2136.662 789.62,2094.539 834.773,2094.539 C879.926,2094.539 916.53,2136.662 916.53,2188.622 z" fill="#FFD9FF"/>
      <path d="M865.264,2242.456 C870.936,2236.37 876.177,2229.744 880.935,2222.643 C886.987,2224.162 890.499,2221.596 890.499,2221.596 C885.34,2216.248 883.649,2212.66 883.649,2212.66 C887.939,2214.626 892.756,2214.111 896.681,2211.269 C900.605,2208.427 884.241,2203.048 882.475,2196.473 C875.926,2172.104 876.422,2169.895 876.422,2169.895 C880.105,2158.1 883.239,2144.606 880.353,2140.228 C876.648,2134.56 872.028,2143.445 860.6,2152.572 C860.6,2152.572 853.75,2144.836 835.376,2144.836 C823.227,2144.836 810.971,2152.712 810.971,2152.712 C805.79,2148.13 802.355,2143.93 798.251,2141.083 C791.929,2136.742 788.946,2140.7 791.283,2150.236 C792.231,2154.066 793.717,2162.517 795.192,2170.023 C796.269,2175.436 795.106,2174.172 791.498,2190.716 C790.214,2194.76 788.54,2198.615 786.511,2202.205 C782.494,2209.545 774.869,2211.333 774.869,2211.333 C778.793,2214.175 783.611,2214.689 787.901,2212.724 C792.191,2210.759 786.21,2216.311 781.051,2221.66 C781.051,2221.66 784.562,2224.213 790.615,2222.707 C790.615,2222.707 794.094,2233.788 805.575,2241.613 C805.575,2241.613 813.329,2252.375 835.441,2252.375 C855.334,2252.311 865.264,2242.456 865.264,2242.456 z" fill="#FFE888"/>
      <path d="M817.638,2148.512 C817.638,2148.512 795.171,2173.712 798.143,2208.052 C801.375,2245.838 835.398,2252.311 835.398,2252.311 C835.398,2252.311 808.397,2254.021 790.572,2222.643 C790.572,2222.643 784.11,2225.375 781.008,2221.596 C781.008,2221.596 786.813,2217.167 787.858,2212.66 C787.858,2212.66 781.934,2216.311 774.826,2211.269 C780.413,2209.532 785.164,2205.177 787.987,2199.205 C795.289,2184.333 795.462,2160.04 817.638,2148.512 z" fill="#EABA5C"/>
      <path d="M807.33,2157.116 C807.33,2157.116 802.85,2152.763 797.777,2148.27 C793.792,2144.734 791.983,2144.632 790.981,2148.563 L795.709,2171.976 L800.017,2168.72 L803.561,2161.789 z" fill="#EABA5C"/>
      <path d="M851.284,2114.109 L835.721,2085.156 L820.158,2113.905 L835.721,2135.938 L851.284,2114.109 z" fill="#FD71F3"/>
      <path d="M851.284,2114.109 L835.721,2107.573 L820.158,2113.905 L835.721,2119.968 L851.284,2114.109 z" fill="#FFCCFE"/>
      <path d="M828.354,2112.985 L835.721,2087.492 L820.158,2113.905 L835.721,2133.934 L828.354,2112.985 z" fill="#F930E7" opacity="0.99"/>
      <path d="M828.354,2112.985 L829.388,2109.398 L820.158,2113.905 L830.282,2118.462 L828.354,2112.985 z" fill="#FFA4FF" opacity="0.99"/>
      <path d="M864.294,2157.116 C864.294,2157.116 868.775,2152.763 873.848,2148.27 C877.833,2144.734 879.642,2144.632 880.644,2148.563 L875.916,2171.976 L871.607,2168.72 L868.064,2161.789 z" fill="#EABA5C"/>
      <path d="M791.072,2223.143 C785.019,2224.662 781.508,2222.096 781.508,2222.096 C786.667,2216.747 788.358,2213.16 788.358,2213.16 C784.068,2215.125 779.25,2214.611 775.326,2211.769 C780.99,2210.223 785.8,2205.814 788.487,2199.705 C791.589,2192.505 795.714,2178.323 799.042,2171.123 C807.604,2152.638 818.741,2145.31 835.876,2145.31 C851.784,2145.31 865.01,2152.638 873.572,2171.123 C876.911,2178.323 881.036,2192.505 884.138,2199.705 C886.825,2205.814 891.635,2210.223 897.299,2211.769 C893.375,2214.611 888.557,2215.125 884.267,2213.16 C879.977,2211.195 885.958,2216.747 891.117,2222.096 C891.117,2222.096 887.606,2224.649 881.553,2223.143 C881.553,2223.143 865.925,2252.811 836.318,2252.811 C806.71,2252.811 791.072,2223.143 791.072,2223.143 z" fill-opacity="0" stroke="#44392E" stroke-width="1.854" stroke-linecap="round" stroke-linejoin="round"/>
      <path d="M851.784,2114.609 L836.221,2085.656 L820.658,2114.405 L836.221,2136.438 L851.784,2114.609 z" fill-opacity="0" stroke="#3D2A3F" stroke-width="1.725" stroke-linecap="round" stroke-linejoin="round"/>
      <path d="M851.784,2114.609 L836.221,2107.371 L820.658,2114.405 L836.221,2121.413 L851.784,2114.609 z" fill-opacity="0" stroke="#3D2A3F" stroke-width="1.725" stroke-linecap="round" stroke-linejoin="round"/>
      <path d="M836.221,2085.656 L836.221,2136.438" fill-opacity="0" stroke="#3D2A3F" stroke-width="1.725" stroke-linecap="round" stroke-miterlimit="10"/>
      <path d="M851.052,2099.213 L858.429,2093.533" fill-opacity="0" stroke="#FF6CF5" stroke-width="2.695" stroke-linecap="round" stroke-miterlimit="10"/>
      <path d="M817.427,2129.277 L814.034,2132.251" fill-opacity="0" stroke="#FF6CF5" stroke-width="2.695" stroke-linecap="round" stroke-miterlimit="10"/>
      <path d="M817.039,2097.732 L811.514,2092.907" fill-opacity="0" stroke="#FF6CF5" stroke-width="2.695" stroke-linecap="round" stroke-miterlimit="10"/>
      <path d="M860.282,2111.047 L860.282,2111.047" fill-opacity="0" stroke="#FF6CF5" stroke-width="2.695" stroke-linecap="round" stroke-miterlimit="10"/>
      <path d="M812.882,2111.047 L812.882,2111.047" fill-opacity="0" stroke="#FF6CF5" stroke-width="2.695" stroke-linecap="round" stroke-miterlimit="10"/>
      <path d="M852.161,2127.541 L856.34,2131.013" fill-opacity="0" stroke="#FF6CF5" stroke-width="2.695" stroke-linecap="round" stroke-miterlimit="10"/>
      <path d="M810.685,2152.459 C810.685,2152.459 801.239,2143.906 798.751,2141.583 C794.131,2137.344 789.456,2139.374 791.212,2148.055 C792.397,2153.812 796.22,2172.476 796.22,2172.476" fill-opacity="0" stroke="#44392E" stroke-width="1.854" stroke-linecap="round" stroke-linejoin="round"/>
      <path d="M861.1,2153.046 C861.1,2153.046 871.332,2143.779 873.874,2141.442 C878.483,2137.204 883.158,2139.234 881.413,2147.915 C880.228,2153.685 876.448,2172.476 876.448,2172.476" fill-opacity="0" stroke="#44392E" stroke-width="1.854" stroke-linecap="round" stroke-linejoin="round"/>
      <g>
        <path d="M822.575,2186.416 C822.575,2196.738 815.516,2205.105 806.807,2205.105 C798.099,2205.105 791.04,2196.738 791.04,2186.416 C791.04,2176.094 798.099,2167.727 806.807,2167.727 C815.516,2167.727 822.575,2176.094 822.575,2186.416 z" fill="#FFFFFF"/>
        <path d="M822.575,2186.416 C822.575,2196.738 815.516,2205.105 806.807,2205.105 C798.099,2205.105 791.04,2196.738 791.04,2186.416 C791.04,2176.094 798.099,2167.727 806.807,2167.727 C815.516,2167.727 822.575,2176.094 822.575,2186.416 z" fill-opacity="0" stroke="#44392E" stroke-width="1.854" stroke-miterlimit="10"/>
      </g>
      <g>
        <path d="M816.167,2184.029 C816.167,2190.099 812.015,2195.02 806.893,2195.02 C801.772,2195.02 797.62,2190.099 797.62,2184.029 C797.62,2177.958 801.772,2173.038 806.893,2173.038 C812.015,2173.038 816.167,2177.958 816.167,2184.029 z" fill="#F930E7"/>
        <path d="M816.167,2184.029 C816.167,2190.099 812.015,2195.02 806.893,2195.02 C801.772,2195.02 797.62,2190.099 797.62,2184.029 C797.62,2177.958 801.772,2173.038 806.893,2173.038 C812.015,2173.038 816.167,2177.958 816.167,2184.029 z" fill-opacity="0" stroke="#F930E7" stroke-width="2.542" stroke-miterlimit="10"/>
      </g>
      <path d="M809.511,2171.876 C811.278,2173.969 811.273,2177.372 809.499,2179.477 C807.725,2181.582 804.854,2181.592 803.087,2179.499 C801.319,2177.406 801.324,2174.003 803.098,2171.898 C804.872,2169.794 807.743,2169.784 809.511,2171.876 z" fill="#FFFFFF"/>
      <g>
        <path d="M881.682,2186.416 C881.682,2196.738 874.623,2205.105 865.915,2205.105 C857.206,2205.105 850.147,2196.738 850.147,2186.416 C850.147,2176.094 857.206,2167.727 865.915,2167.727 C874.623,2167.727 881.682,2176.094 881.682,2186.416 z" fill="#FFFFFF"/>
        <path d="M881.682,2186.416 C881.682,2196.738 874.623,2205.105 865.915,2205.105 C857.206,2205.105 850.147,2196.738 850.147,2186.416 C850.147,2176.094 857.206,2167.727 865.915,2167.727 C874.623,2167.727 881.682,2176.094 881.682,2186.416 z" fill-opacity="0" stroke="#44392E" stroke-width="1.854" stroke-miterlimit="10"/>
      </g>
      <g>
        <path d="M875.285,2184.029 C875.285,2190.099 871.133,2195.02 866.011,2195.02 C860.89,2195.02 856.738,2190.099 856.738,2184.029 C856.738,2177.958 860.89,2173.038 866.011,2173.038 C871.133,2173.038 875.285,2177.958 875.285,2184.029 z" fill="#F930E7"/>
        <path d="M875.285,2184.029 C875.285,2190.099 871.133,2195.02 866.011,2195.02 C860.89,2195.02 856.738,2190.099 856.738,2184.029 C856.738,2177.958 860.89,2173.038 866.011,2173.038 C871.133,2173.038 875.285,2177.958 875.285,2184.029 z" fill-opacity="0" stroke="#F930E7" stroke-width="2.542" stroke-miterlimit="10"/>
      </g>
      <path d="M868.613,2171.881 C870.381,2173.974 870.376,2177.377 868.602,2179.482 C866.828,2181.587 863.957,2181.596 862.189,2179.504 C860.422,2177.411 860.427,2174.008 862.201,2171.903 C863.975,2169.798 866.846,2169.788 868.613,2171.881 z" fill="#FFFFFF"/>
      <path d="M844.865,2218.711 C844.865,2225.017 840.891,2231.937 835.979,2231.937 C831.068,2231.937 827.105,2225.03 827.105,2218.737 L835.947,2212.15 z" fill="#44392E"/>
      <path d="M843.163,2227.66 C841.256,2225.339 838.631,2224.042 835.898,2224.071 C833.164,2224.1 830.56,2225.452 828.688,2227.813 L835.947,2231.566 z" fill="#F930E7"/>
      <path d="M829.748,2228.517 C830.394,2226.258 833.162,2224.573 836.49,2224.573 C839.581,2224.573 842.198,2226.028 843.06,2228.045" fill-opacity="0" stroke="#44392E" stroke-width="1.271" stroke-linecap="round" stroke-miterlimit="10"/>
      <path d="M835.855,2215.828 L837.147,2215.828" fill-opacity="0" stroke="#FFFFFF" stroke-width="4.843" stroke-linecap="round" stroke-linejoin="round"/>
      <path d="M859.017,2215.967 C856.955,2217.981 854.445,2219.244 851.79,2219.605 C849.152,2219.994 846.475,2219.751 843.917,2218.89 C841.262,2218.077 838.833,2216.452 836.873,2214.179 C835.795,2212.912 835.047,2211.303 834.719,2209.545 C834.646,2209.091 834.602,2208.63 834.59,2208.167 L834.59,2207.043 L834.525,2204.796 C834.464,2204.152 834.713,2203.521 835.169,2203.164 C835.626,2202.807 836.213,2202.784 836.688,2203.104 C837.164,2203.424 837.448,2204.034 837.423,2204.682 L837.423,2204.796 L837.358,2207.043 L837.358,2208.167 C837.336,2208.451 837.336,2208.738 837.358,2209.022 C837.524,2210.224 837.976,2211.344 838.661,2212.252 C840.27,2214.303 842.305,2215.817 844.563,2216.643 C846.849,2217.581 849.269,2217.967 851.682,2217.779 C854.096,2217.623 856.42,2216.638 858.371,2214.945 C858.616,2214.731 858.96,2214.788 859.146,2215.073 C859.314,2215.363 859.257,2215.759 859.017,2215.967 z" fill="#44392E"/>
      <path d="M814.708,2215.022 C816.572,2216.785 818.882,2217.757 821.267,2217.779 C823.651,2217.87 826.024,2217.37 828.236,2216.311 C830.366,2215.366 832.231,2213.735 833.621,2211.601 C834.211,2210.664 834.532,2209.527 834.536,2208.358 C834.536,2206.954 834.461,2205.422 834.536,2203.954 L834.536,2203.954 C834.601,2203.063 835.23,2202.379 835.985,2202.379 C836.739,2202.379 837.368,2203.063 837.433,2203.954 C837.433,2205.448 837.433,2206.877 837.369,2208.435 C837.32,2209.36 837.145,2210.269 836.852,2211.128 C836.549,2211.936 836.162,2212.695 835.699,2213.388 C833.896,2215.818 831.547,2217.59 828.925,2218.494 C826.42,2219.469 823.772,2219.816 821.149,2219.515 C818.494,2219.262 815.985,2217.969 814.019,2215.839 C813.824,2215.605 813.824,2215.23 814.019,2214.996 C814.219,2214.789 814.519,2214.801 814.708,2215.022 z" fill="#44392E"/>
      <path d="M845.365,2220.232 C845.365,2226.105 841.391,2232.066 836.479,2232.066 C831.568,2232.066 827.605,2226.105 827.605,2220.232" fill-opacity="0" stroke="#44392E" stroke-width="2.118" stroke-linecap="round" stroke-miterlimit="10"/>
      <path d="M828.462,2203.89 C828.224,2203.114 828.383,2202.245 828.871,2201.656 C829.948,2200.38 832.102,2198.592 836.206,2198.554 C840.309,2198.516 842.237,2200.226 843.163,2201.503 C843.632,2202.118 843.758,2202.999 843.486,2203.762 L843.486,2203.762 C843.118,2204.792 842.276,2205.472 841.332,2205.499 C839.848,2205.477 838.447,2206.31 837.573,2207.733 C837.517,2207.845 837.448,2207.948 837.369,2208.039 L837.369,2208.039 C836.974,2208.505 836.432,2208.753 835.876,2208.724 C835.319,2208.695 834.798,2208.391 834.439,2207.886 L834.439,2207.886 C834.439,2207.886 833.599,2206.137 830.519,2205.843 C829.584,2205.738 828.788,2204.994 828.483,2203.941 z" fill="#44392E"/>
      <path d="M824.197,2207.886 C818.376,2206.344 812.322,2206.555 806.587,2208.499 C803.725,2209.537 801.026,2211.124 798.596,2213.196 C796.149,2215.301 794.007,2217.861 792.252,2220.779 C793.87,2217.708 795.896,2214.966 798.251,2212.66 C800.642,2210.371 803.335,2208.564 806.221,2207.311 C812.102,2204.908 818.395,2204.285 824.531,2205.499 C825.087,2205.59 825.475,2206.199 825.398,2206.858 C825.32,2207.517 824.807,2207.978 824.251,2207.886 z" fill="#44392E"/>
      <path d="M824.369,2210.911 C822.37,2210.789 820.366,2210.879 818.381,2211.179 C816.417,2211.465 814.52,2212.212 812.802,2213.375 C811.089,2214.592 809.678,2216.323 808.709,2218.392 C807.737,2220.522 807.06,2222.824 806.706,2225.209 C806.901,2222.755 807.429,2220.354 808.267,2218.098 C809.146,2215.812 810.521,2213.843 812.253,2212.392 C814.017,2210.955 816.005,2209.949 818.101,2209.43 C820.16,2208.917 822.254,2208.622 824.358,2208.55 C824.735,2208.488 825.109,2208.684 825.323,2209.057 C825.538,2209.43 825.555,2209.914 825.369,2210.307 C825.183,2210.7 824.824,2210.934 824.444,2210.911 z" fill="#44392E"/>
      <path d="M847.32,2205.499 C853.456,2204.284 859.75,2204.907 865.63,2207.311 C868.518,2208.567 871.214,2210.374 873.611,2212.66 C875.971,2214.946 878.007,2217.666 879.642,2220.715 C877.888,2217.798 875.745,2215.237 873.298,2213.133 C870.87,2211.058 868.17,2209.471 865.307,2208.435 C859.558,2206.506 853.492,2206.317 847.665,2207.886 C847.127,2208.016 846.601,2207.605 846.491,2206.967 C846.381,2206.329 846.728,2205.706 847.267,2205.575 z" fill="#44392E"/>
      <path d="M847.493,2208.55 C849.6,2208.621 851.698,2208.916 853.761,2209.43 C855.867,2209.948 857.866,2210.954 859.642,2212.392 C861.374,2213.855 862.752,2215.832 863.637,2218.124 C864.471,2220.372 864.994,2222.764 865.188,2225.209 C864.833,2222.826 864.16,2220.525 863.196,2218.392 C862.223,2216.322 860.808,2214.591 859.092,2213.375 C857.374,2212.212 855.478,2211.465 853.513,2211.179 C851.528,2210.879 849.524,2210.789 847.525,2210.911 C847.254,2210.943 846.985,2210.841 846.78,2210.627 C846.576,2210.414 846.456,2210.11 846.448,2209.788 C846.424,2209.466 846.514,2209.146 846.695,2208.905 C846.876,2208.663 847.134,2208.521 847.407,2208.511 z" fill="#44392E"/>
    </g>
    <path d="M572.649,2034.5 L622.313,2039.821 C622.313,2039.821 647.242,2579.362 652.546,2617.718 C639.242,2617.862 618.069,2611.781 601.858,2607.9 C587.474,2521.594 572.649,2034.5 572.649,2034.5 z" fill="#31323D" fill-opacity="0.381" id="Shape"/>
    <g id="Shape">
      <path d="M562.387,2166.327 C637.07,2184.151 882.137,2188.756 951.576,2162.281 C947.61,2225.319 937.81,2343.179 937.81,2414.823 C887.014,2448.05 629.446,2450.086 574.271,2407.515 C576.023,2358.715 567.006,2214.262 562.387,2166.327 z" fill="#997020"/>
      <path d="M562.387,2166.327 C637.07,2184.151 882.137,2188.756 951.576,2162.281 C947.61,2225.319 937.81,2343.179 937.81,2414.823 C887.014,2448.05 629.446,2450.086 574.271,2407.515 C576.023,2358.715 567.006,2214.262 562.387,2166.327 z" fill-opacity="0" stroke="#31323D" stroke-width="10.686"/>
    </g>
    <path d="M924.665,2174.414 C933.661,2174.252 935.597,2171.946 945.947,2169.06 C941.07,2202.3 931.236,2388.648 932.239,2411.314 C925.564,2415.227 926.324,2413.804 915.266,2417.674 C916.096,2349.396 920.795,2248.498 924.665,2174.414 z" fill="#FFFFFF" fill-opacity="0.666" opacity="0.433"/>
    <g id="Group">
      <g>
        <path d="M572.114,1928.532 C572.614,1912.255 942.528,1930.335 947.362,1928.72 C952.195,1927.105 947.661,1956.533 962.739,1992.736 C847.661,2015.766 647.667,2012.166 560.164,1992.736 C570.161,1968.065 571.614,1944.808 572.114,1928.532 z" fill="#FFFFFF"/>
        <path d="M572.114,1928.532 C572.614,1912.255 942.528,1930.335 947.362,1928.72 C952.195,1927.105 947.661,1956.533 962.739,1992.736 C847.661,2015.766 647.667,2012.166 560.164,1992.736 C570.161,1968.065 571.614,1944.808 572.114,1928.532 z" fill-opacity="0" stroke="#31323D" stroke-width="10"/>
      </g>
      <g>
        <path d="M756.659,1940.532 C663.221,1940.532 585.627,1936.794 576.745,1927.105 C586.434,1917.012 663.221,1916.531 756.659,1916.531 C850.097,1916.531 936.854,1917.82 947.362,1928.72 C938.469,1937.601 850.097,1940.532 756.659,1940.532 z" fill="#FFFFFF"/>
        <path d="M756.659,1940.532 C663.221,1940.532 585.627,1936.794 576.745,1927.105 C586.434,1917.012 663.221,1916.531 756.659,1916.531 C850.097,1916.531 936.854,1917.82 947.362,1928.72 C938.469,1937.601 850.097,1940.532 756.659,1940.532 z" fill-opacity="0" stroke="#31323D" stroke-width="10"/>
      </g>
      <g>
        <path d="M560.164,1992.736 C676.461,2016.325 876.817,2004.769 962.739,1992.736 C971.661,2001.204 969.734,2009.013 971.161,2021.606 C899.161,2046.606 635.661,2044.606 555.161,2027.106 C552.161,2011.606 551.715,2000.984 560.164,1992.736 z" fill="#FFFFFF"/>
        <path d="M560.164,1992.736 C676.461,2016.325 876.817,2004.769 962.739,1992.736 C971.661,2001.204 969.734,2009.013 971.161,2021.606 C899.161,2046.606 635.661,2044.606 555.161,2027.106 C552.161,2011.606 551.715,2000.984 560.164,1992.736 z" fill-opacity="0" stroke="#31323D" stroke-width="10"/>
      </g>
    </g>
    <path d="M819.311,1925.192 C811.845,1925.192 805.793,1924.275 805.793,1923.144 C805.793,1922.013 811.845,1921.096 819.311,1921.096 C826.778,1921.096 832.83,1922.013 832.83,1923.144 C832.83,1924.275 826.778,1925.192 819.311,1925.192 z" fill-opacity="0" stroke="#31323D" stroke-width="10" id="Shape"/>
    <path d="M567.105,2171.5 C582.016,2174.807 605.969,2179.058 621,2179 C622.075,2202.46 634.48,2401.204 635.514,2422.396 C623.109,2423.947 589.511,2411.283 578.915,2404.564 C579.69,2369.932 570.645,2201.944 567.105,2171.5 z" fill="#31323D" fill-opacity="0.381"/>
    <path d="M576.545,1932.921 C586.443,1936.537 606.087,1940.868 620.996,1939.626 C625.982,1967.24 624.096,1983.157 617.704,1996.066 C607.045,1995.495 578.372,1992.307 564.934,1989.642 C570.187,1971.56 574.261,1962.804 576.545,1932.921 z" fill="#31323D" fill-opacity="0.381"/>
    <path d="M560.613,1997.616 C566.725,1998.672 609.733,2005.783 616.406,2004.986 C617.003,2009.866 617.103,2023.412 615.869,2030.255 C609.135,2029.487 574.575,2025.901 558.639,2023.212 C557.245,2018.731 555.274,2003.406 560.613,1997.616 z" fill="#31323D" fill-opacity="0.381"/>
    <path d="M815.586,1626.768 L815.355,1625.484 L814.78,1622.896 L814.09,1621.129 L813.325,1620.233 L812.546,1619.363 L811.746,1618.511 L810.925,1617.68 L810.082,1616.866 L809.219,1616.073 L808.332,1615.304 L807.4,1614.583 L806.449,1613.884 L805.477,1613.207 L804.488,1612.555 L803.479,1611.927 L802.452,1611.324 L801.406,1610.747 L800.342,1610.196 L799.26,1609.672 L798.155,1609.182 L797.024,1608.73 L795.877,1608.309 L794.711,1607.917 L793.528,1607.557 L792.33,1607.228 L791.114,1606.933 L789.88,1606.67 L788.63,1606.442 L787.363,1606.25 L786.078,1606.094 L785.393,1606.027 L785.393,1606.027 C785.363,1606.025 785.332,1606.023 785.3,1606.022 L785.3,1606.022 L784.7,1605.973 L783.292,1605.922 L781.792,1605.932 L780.266,1606.006 L778.711,1606.144 L777.133,1606.349 L775.535,1606.62 L773.915,1606.963 L772.276,1607.378 L770.615,1607.874 L768.928,1608.457 L767.209,1609.139 L765.45,1609.939 L763.643,1610.876 L761.777,1611.975 L759.843,1613.27 L758.589,1614.201 L758.589,1614.201 C758.453,1614.306 758.319,1614.412 758.185,1614.521 L758.185,1614.521 L757.841,1614.795 L756.774,1615.687 L755.59,1616.745 L754.425,1617.864 L753.287,1619.043 L752.189,1620.277 L751.144,1621.558 L750.168,1622.871 L749.276,1624.197 L748.475,1625.523 L747.773,1626.832 L747.174,1628.109 L746.515,1629.793 L745.889,1631.962 L745.53,1634.08 L745.433,1636.009 L745.544,1637.784 L745.825,1639.442 L746.251,1641.007 L746.803,1642.504 L747.47,1643.948 L748.24,1645.353 L749.109,1646.728 L750.07,1648.079 L751.116,1649.413 L752.246,1650.732 L753.452,1652.039 L754.732,1653.337 L756.08,1654.626 L757.492,1655.909 L758.966,1657.186 L760.499,1658.453 L762.087,1659.712 L763.722,1660.966 L765.399,1662.214 L767.115,1663.458 L769.748,1665.311 L773.354,1667.766 L777.042,1670.203 L780.769,1672.617 L784.496,1675.005 L788.189,1677.36 L791.815,1679.68 L794.461,1681.395 L796.18,1682.525 L797.863,1683.646 L799.501,1684.756 L801.091,1685.855 L802.625,1686.941 L804.102,1688.014 L805.515,1689.075 L806.857,1690.121 L808.124,1691.15 L809.314,1692.162 L810.419,1693.154 L811.433,1694.124 L812.352,1695.07 L813.17,1695.987 L813.88,1696.874 L814.477,1697.721 L814.958,1698.519 L815.319,1699.252 L815.558,1699.903 L815.601,1700.09 L815.562,1699.956 L815.688,1700.432 L815.893,1701.292 L816.059,1702.105 L816.195,1702.899 L816.295,1703.677 L816.366,1704.435 L816.411,1705.171 L816.43,1705.885 L816.424,1706.575 L816.395,1707.244 L816.344,1707.886 L816.257,1708.514 L816.074,1709.479 L815.744,1710.675 L815.373,1711.693 L814.966,1712.599 L814.524,1713.404 L814.07,1714.109 L813.608,1714.735 L813.138,1715.3 L812.649,1715.831 L812.122,1716.348 L811.542,1716.865 L810.904,1717.406 L810.198,1717.975 L809.414,1718.58 L808.543,1719.225 L807.583,1719.908 L806.522,1720.604 L805.377,1721.322 L804.152,1722.063 L802.849,1722.828 L801.473,1723.612 L800.031,1724.412 L797.681,1725.663 L794.408,1727.298 L791.015,1728.941 L787.463,1730.633 L783.776,1732.387 L779.967,1734.228 L776.059,1736.22 L772.046,1738.362 L768.898,1740.132 L766.703,1741.423 L764.564,1742.763 L762.391,1744.18 L760.182,1745.684 L757.935,1747.286 L755.646,1749.001 L753.315,1750.845 L750.947,1752.833 L748.541,1754.983 L746.155,1757.345 L743.793,1759.894 L741.469,1762.606 L739.218,1765.469 L737.081,1768.461 L735.103,1771.547 L733.322,1774.684 L731.771,1777.825 L730.469,1780.931 L729.439,1783.956 L728.926,1785.774 L728.926,1785.774 C728.841,1786.093 728.766,1786.409 728.7,1786.72 L728.7,1786.72 L728.621,1787.088 L728.275,1789.499 L728.241,1792.085 L728.552,1794.252 L729.108,1796.06 L729.837,1797.582 L730.686,1798.872 L731.631,1799.988 L732.647,1800.963 L733.724,1801.826 L734.858,1802.603 L736.045,1803.309 L737.281,1803.956 L738.566,1804.552 L739.895,1805.106 L741.272,1805.623 L742.691,1806.108 L744.154,1806.564 L745.659,1806.995 L747.206,1807.403 L748.787,1807.789 L750.402,1808.155 L752.053,1808.504 L753.737,1808.836 L755.448,1809.153 L757.185,1809.456 L759.816,1809.884 L763.407,1810.416 L767.072,1810.911 L770.772,1811.374 L774.486,1811.809 L778.182,1812.222 L781.84,1812.62 L785.437,1813.007 L788.943,1813.388 L792.335,1813.758 L794.794,1814.017 L796.378,1814.191 L797.921,1814.369 L799.414,1814.55 L800.856,1814.734 L802.278,1814.871 L803.633,1815.014 L804.922,1815.163 L806.142,1815.318 L807.285,1815.48 L808.343,1815.646 L809.309,1815.829 L810.174,1816.019 L810.94,1816.209 L811.597,1816.396 L812.137,1816.572 L812.545,1816.733 L812.805,1816.873 L812.767,1816.859 L812.557,1816.728 L812.908,1816.952 L813.265,1817.219 L813.447,1817.409 L813.557,1817.58 L813.599,1817.722 L813.594,1817.823 L813.554,1817.877 L813.49,1817.878 L813.413,1817.823 L813.325,1817.725 L813.235,1817.582 L813.159,1817.396 L813.103,1817.174 L813.067,1816.935 L813.05,1816.683 L813.049,1816.439 L813.055,1816.213 L813.063,1816.017 L813.091,1815.858 L813.106,1815.748 L813.096,1815.697 L813.055,1815.708 L812.977,1815.784 L812.862,1815.918 L812.521,1816.4 L811.969,1817.15 L811.343,1817.956 L810.544,1818.952 L809.583,1820.114 L808.481,1821.413 L806.525,1823.661 L804.454,1825.998 L802.982,1827.651 L801.411,1829.418 L799.788,1831.261 L798.114,1833.194 L796.777,1834.769 L795.837,1835.899 L794.936,1837.004 L794.022,1838.151 L793.092,1839.349 L792.152,1840.598 L791.197,1841.914 L790.231,1843.301 L789.254,1844.778 L788.278,1846.343 L787.308,1848.014 L786.362,1849.796 L785.462,1851.687 L784.641,1853.68 L784.138,1855.101 L784.138,1855.101 C784.073,1855.299 784.011,1855.497 783.952,1855.693 L783.952,1855.693 L783.778,1856.273 L783.307,1857.984 L782.867,1859.834 L782.514,1861.632 L782.245,1863.374 L782.058,1865.061 L781.95,1866.691 L781.917,1868.26 L781.955,1869.773 L782.06,1871.226 L782.229,1872.624 L782.456,1873.962 L782.737,1875.25 L783.07,1876.486 L783.449,1877.671 L783.871,1878.81 L784.333,1879.906 L784.832,1880.958 L785.365,1881.973 L785.927,1882.948 L786.519,1883.891 L787.136,1884.799 L788.076,1886.069 L789.415,1887.696 L790.849,1889.266 L792.337,1890.755 L793.866,1892.176 L795.421,1893.538 L796.993,1894.854 L799.346,1896.748 L802.78,1898.879 L805.575,1900.134 L807.366,1900.954 L809.113,1901.789 L811.142,1902.284 L813.327,1902.58 L815.439,1902.914 L817.473,1903.297 L818.927,1903.599 L819.876,1903.799 L821.015,1903.858 L822.135,1903.938 L823.237,1904.041 L824.318,1904.167 L824.839,1904.215 L824.839,1904.215 C826.212,1906.922 830.903,1906.079 835.316,1902.333 C839.729,1898.587 842.194,1893.355 840.821,1890.648 L840.917,1889.858 L841.103,1888.335 L841.251,1886.825 L841.363,1885.326 L841.442,1883.838 L841.28,1882.523 L840.982,1880.607 L840.532,1878.128 L840.009,1875.698 L839.432,1873.314 L838.592,1871.203 L837.385,1869.492 L836.159,1867.815 L834.355,1865.389 L831.637,1862.668 L829.454,1860.912 L828.081,1859.767 L826.777,1858.631 L825.556,1857.506 L824.424,1856.387 L823.391,1855.277 L822.435,1854.137 L821.781,1853.269 L821.401,1852.72 L821.051,1852.176 L820.73,1851.634 L820.441,1851.103 L820.18,1850.575 L819.95,1850.056 L819.749,1849.545 L819.576,1849.043 L819.43,1848.553 L819.311,1848.073 L819.217,1847.603 L819.147,1847.149 L819.099,1846.706 L819.072,1846.276 L819.064,1845.854 L819.073,1845.443 L819.101,1845.038 L819.145,1844.636 L819.205,1844.236 L819.283,1843.832 L819.437,1843.232 L819.616,1842.635 L819.43,1843.226 L819.098,1844.13 L818.692,1845.049 L818.303,1845.818 L817.957,1846.429 L817.676,1846.884 L817.471,1847.188 L817.344,1847.36 L817.303,1847.402 L817.344,1847.334 L817.466,1847.161 L817.662,1846.901 L817.932,1846.556 L818.27,1846.136 L818.62,1845.71 L819.305,1844.897 L820.466,1843.552 L821.81,1842.024 L823.305,1840.341 L824.966,1838.476 L827.649,1835.442 L830.417,1832.243 L832.393,1829.893 L834.418,1827.406 L836.478,1824.768 L838.554,1821.967 L840.514,1819.151 L841.912,1816.993 L842.881,1815.388 L843.821,1813.743 L844.729,1812.051 L845.595,1810.319 L846.407,1808.551 L847.15,1806.758 L847.789,1804.955 L848.336,1803.15 L848.781,1801.355 L849.114,1799.585 L849.326,1797.861 L849.411,1796.188 L849.368,1794.587 L849.197,1793.068 L848.91,1791.634 L848.512,1790.283 L848.002,1789.032 L847.386,1787.879 L846.67,1786.819 L845.865,1785.848 L844.985,1784.956 L844.032,1784.135 L843.103,1783.444 L842.754,1783.209 L842.754,1783.209 C842.686,1783.165 842.616,1783.121 842.545,1783.078 L842.545,1783.078 L841.941,1782.726 L840.937,1782.212 L839.911,1781.742 L838.852,1781.314 L837.752,1780.919 L836.609,1780.549 L835.42,1780.2 L834.194,1779.862 L832.926,1779.527 L831.616,1779.204 L830.263,1778.89 L828.866,1778.584 L827.429,1778.284 L825.956,1777.991 L824.409,1777.755 L822.825,1777.525 L821.209,1777.3 L819.558,1777.078 L817.037,1776.753 L813.584,1776.354 L810.057,1775.971 L806.484,1775.587 L802.886,1775.196 L799.289,1774.794 L795.727,1774.377 L792.216,1773.939 L788.787,1773.477 L785.452,1772.985 L783.029,1772.593 L781.476,1772.323 L779.966,1772.044 L778.507,1771.757 L777.099,1771.462 L775.743,1771.156 L774.45,1770.844 L773.225,1770.523 L772.066,1770.196 L770.981,1769.862 L769.972,1769.524 L769.05,1769.185 L768.213,1768.845 L767.472,1768.513 L766.83,1768.193 L766.292,1767.892 L765.859,1767.622 L765.536,1767.397 L765.324,1767.24 L765.219,1767.18 L765.204,1767.248 L765.259,1767.501 L765.338,1767.993 L765.377,1768.794 L765.281,1769.963 L765.089,1770.905 L765.171,1770.519 L764.945,1771.464 L764.843,1771.737 L764.792,1771.714 L764.67,1771.833 L764.493,1772.045 L764.271,1772.309 L764.031,1772.573 L763.804,1772.796 L763.627,1772.937 L763.531,1772.973 L763.546,1772.89 L763.679,1772.661 L763.925,1772.26 L764.334,1771.732 L764.9,1771.095 L765.617,1770.363 L766.48,1769.546 L767.477,1768.658 L768.598,1767.709 L769.833,1766.705 L771.085,1765.673 L773.228,1763.99 L776.456,1761.58 L779.946,1759.058 L783.631,1756.406 L787.474,1753.671 L791.428,1750.856 L795.456,1747.956 L799.459,1744.996 L802.436,1742.754 L804.467,1741.198 L806.495,1739.603 L808.518,1737.962 L810.534,1736.269 L812.538,1734.522 L814.525,1732.72 L816.505,1730.868 L818.458,1728.942 L820.376,1726.934 L822.242,1724.848 L824.037,1722.689 L825.745,1720.46 L827.353,1718.18 L828.839,1715.863 L830.175,1713.524 L831.344,1711.191 L832.337,1708.878 L833.151,1706.603 L833.803,1704.366 L834.284,1702.176 L834.594,1700.094 L834.746,1698.554 L834.811,1697.49 L834.856,1696.422 L834.863,1695.362 L834.835,1694.304 L834.77,1693.25 L834.67,1692.2 L834.534,1691.152 L834.364,1690.103 L834.166,1689.049 L833.933,1687.994 L833.672,1686.965 L833.541,1686.489 L833.541,1686.489 C833.528,1686.444 833.515,1686.399 833.502,1686.355 L833.502,1686.355 L833.258,1685.618 L832.745,1684.399 L832.124,1683.233 L831.403,1682.104 L830.587,1680.997 L829.681,1679.904 L828.69,1678.814 L827.617,1677.729 L826.465,1676.643 L825.238,1675.557 L823.94,1674.467 L822.573,1673.372 L821.144,1672.272 L819.657,1671.167 L818.114,1670.054 L816.52,1668.935 L814.881,1667.811 L813.198,1666.68 L811.479,1665.543 L809.723,1664.399 L807.039,1662.674 L803.391,1660.357 L799.684,1658.025 L795.961,1655.679 L792.26,1653.321 L788.618,1650.952 L785.064,1648.572 L782.483,1646.784 L780.816,1645.595 L779.193,1644.407 L777.622,1643.222 L776.107,1642.04 L774.648,1640.864 L773.251,1639.697 L771.924,1638.536 L770.672,1637.382 L769.5,1636.24 L768.413,1635.108 L767.417,1633.991 L766.514,1632.891 L765.711,1631.815 L765.012,1630.768 L764.418,1629.755 L763.934,1628.79 L763.559,1627.884 L763.289,1627.054 L763.116,1626.326 L763.022,1625.726 L762.981,1625.289 L762.947,1625.052 L762.924,1624.879 L762.906,1624.814 L762.825,1624.929 L762.717,1625.079 L762.585,1625.251 L762.439,1625.426 L762.288,1625.59 L762.147,1625.727 L762.033,1625.821 L761.962,1625.865 L761.946,1625.851 L761.994,1625.78 L762.245,1625.549 L762.593,1625.263 L762.189,1625.582 L761.902,1625.768 L762.003,1625.647 L762.294,1625.428 L762.751,1625.149 L763.352,1624.833 L764.073,1624.5 L764.895,1624.172 L765.794,1623.859 L766.758,1623.57 L767.767,1623.312 L768.81,1623.09 L769.874,1622.907 L770.946,1622.765 L772.02,1622.667 L773.079,1622.613 L774.176,1622.607 L774.803,1622.623 L774.71,1622.617 L775.209,1622.635 L776.277,1622.7 L777.344,1622.796 L778.41,1622.924 L779.47,1623.081 L780.527,1623.269 L781.579,1623.487 L782.624,1623.734 L783.661,1624.01 L784.692,1624.315 L785.713,1624.647 L786.733,1624.996 L787.749,1625.366 L788.755,1625.763 L789.748,1626.184 L790.731,1626.632 L791.7,1627.103 L792.656,1627.599 L793.598,1628.117 L794.525,1628.659 L795.438,1629.222 L796.36,1629.781 L797.269,1630.357 L798.161,1630.953 L799.037,1631.57 L799.894,1632.205 L800.732,1632.858 L801.544,1633.52 L803.139,1634.153 L805.46,1634.877 L806.61,1635.293 C807.694,1636.625 810.581,1635.797 813.06,1633.443 C815.538,1631.089 816.669,1628.101 815.586,1626.768 L815.586,1626.768" fill="#31323D" opacity="0.337"/>
  </g>
</svg>
