<?xml version="1.0" encoding="UTF-8"?>
<!DOCTYPE svg PUBLIC "-//W3C//DTD SVG 1.1//EN" "http://www.w3.org/Graphics/SVG/1.1/DTD/svg11.dtd">
<svg version="1.1" xmlns="http://www.w3.org/2000/svg" xmlns:xlink="http://www.w3.org/1999/xlink" x="0" y="0" width="3000" height="3000" viewBox="0, 0, 3000, 3000">
  <g id="George_Clooney_-_new_sleeves">
    <g id="Pants_and_belt">
      <g id="Shape">
        <path d="M1192.138,2236.073 L1185.714,2293.609 L1710.902,2293.625 L1710.821,2239.612 L1192.138,2236.073 z" fill="#808080"/>
        <path d="M1192.138,2236.073 L1185.714,2293.609 L1710.902,2293.625 L1710.821,2239.612 L1192.138,2236.073 z" fill-opacity="0" stroke="#31323D" stroke-width="10.5"/>
      </g>
      <g id="Shape">
        <path d="M1858.008,2232.976 C1858.008,2231.501 1854.379,2263.148 1855.527,2275.823 C1868.154,2278.74 1889.391,2267.628 1942.809,2236.073 C1975.623,2193.156 1915.219,2255.25 1915.219,2255.25 C1915.219,2255.25 1947.971,2261.365 1979.146,2262.478 C2067.429,2219.334 2071.996,2147.082 2072.478,2113.523 C2046.782,2099.506 2021.342,2097.926 2021.342,2097.926 C2021.342,2097.926 1858.008,2234.45 1858.008,2232.976 z" fill="#808080"/>
        <path d="M1858.008,2232.976 C1858.008,2231.501 1854.379,2263.148 1855.527,2275.823 C1868.154,2278.74 1889.391,2267.628 1942.809,2236.073 C1975.623,2193.156 1915.219,2255.25 1915.219,2255.25 C1915.219,2255.25 1947.971,2261.365 1979.146,2262.478 C2067.429,2219.334 2071.996,2147.082 2072.478,2113.523 C2046.782,2099.506 2021.342,2097.926 2021.342,2097.926 C2021.342,2097.926 1858.008,2234.45 1858.008,2232.976 z" fill-opacity="0" stroke="#31323D" stroke-width="10.5"/>
      </g>
      <g id="Shape">
        <path d="M927.175,2097.926 C927.759,2097.926 906.154,2110.773 889.546,2120.912 C909.657,2262.007 969.995,2262.478 969.995,2262.478 L1016.811,2261.34 L992.106,2224.937 C992.106,2224.937 1018.981,2279.35 1044.315,2275.642 C1052.133,2260.255 1052.24,2243.025 1052.24,2243.025 L1022.937,2138.801 L927.175,2097.926 z" fill="#808080"/>
        <path d="M927.175,2097.926 C927.759,2097.926 906.154,2110.773 889.546,2120.912 C909.657,2262.007 969.995,2262.478 969.995,2262.478 L1016.811,2261.34 L992.106,2224.937 C992.106,2224.937 1018.981,2279.35 1044.315,2275.642 C1052.133,2260.255 1052.24,2243.025 1052.24,2243.025 L1022.937,2138.801 L927.175,2097.926 z" fill-opacity="0" stroke="#31323D" stroke-width="10.5"/>
      </g>
      <g id="Belt">
        <path d="M1197.429,2260.819 C1192.948,2262.611 1705.15,2270.229 1704.253,2257.682 C1703.357,2245.135 1703.357,2260.819 1706.494,2269.333 C1697.98,2273.366 1196.533,2276.055 1196.981,2267.989 C1197.429,2259.923 1201.911,2259.026 1197.429,2260.819 z" fill="#808080"/>
        <path d="M1197.429,2260.819 C1192.948,2262.611 1705.15,2270.229 1704.253,2257.682 C1703.357,2245.135 1703.357,2260.819 1706.494,2269.333 C1697.98,2273.366 1196.533,2276.055 1196.981,2267.989 C1197.429,2259.923 1201.911,2259.026 1197.429,2260.819 z" fill-opacity="0" stroke="#31323D" stroke-width="10.5"/>
      </g>
      <g id="Belt_buckle">
        <path d="M1394.179,2250.72 L1454.802,2250.72 C1456.182,2250.72 1457.302,2251.756 1457.302,2253.033 L1457.302,2275.683 C1457.302,2276.96 1456.182,2277.996 1454.802,2277.996 L1394.179,2277.996 C1392.798,2277.996 1391.679,2276.96 1391.679,2275.683 L1391.679,2253.033 C1391.679,2251.756 1392.798,2250.72 1394.179,2250.72 z" fill="#C6C6C6"/>
        <path d="M1394.179,2250.72 L1454.802,2250.72 C1456.182,2250.72 1457.302,2251.756 1457.302,2253.033 L1457.302,2275.683 C1457.302,2276.96 1456.182,2277.996 1454.802,2277.996 L1394.179,2277.996 C1392.798,2277.996 1391.679,2276.96 1391.679,2275.683 L1391.679,2253.033 C1391.679,2251.756 1392.798,2250.72 1394.179,2250.72 z" fill-opacity="0" stroke="#31323D" stroke-width="10.5"/>
      </g>
    </g>
    <g id="Shirt">
      <g id="Shirt">
        <g id="Shape">
          <path d="M1026.627,1559.368 C1026.627,1559.368 1228.063,1647.019 1229.587,1643.972 C1231.111,1640.925 1286.685,1671.673 1286.685,1671.673 L1327.389,1688.067 L1344.914,1718.595 L1424.205,2125.573 L1326.823,2049.312 L1156.66,1809.613 L1026.627,1559.368 z" fill="#3C3C3C"/>
          <path d="M1026.627,1559.368 C1026.627,1559.368 1228.063,1647.019 1229.587,1643.972 C1231.111,1640.925 1286.685,1671.673 1286.685,1671.673 L1327.389,1688.067 L1344.914,1718.595 L1424.205,2125.573 L1326.823,2049.312 L1156.66,1809.613 L1026.627,1559.368 z M1049.575,1580.759 L1165.642,1804.127 L1334.5,2041.987 L1408.515,2099.95 L1334.941,1722.312 L1320.093,1696.448 L1282.762,1681.413 C1282.364,1681.252 1281.977,1681.068 1281.602,1680.86 C1281.508,1680.809 1281.322,1680.706 1281.049,1680.556 C1280.591,1680.303 1280.058,1680.01 1279.455,1679.679 C1277.73,1678.733 1275.797,1677.678 1273.701,1676.541 C1267.716,1673.295 1261.637,1670.049 1255.842,1667.025 C1254.98,1666.575 1254.13,1666.133 1253.292,1665.699 C1245.657,1661.746 1239.272,1658.585 1234.612,1656.486 C1232.109,1655.379 1233.469,1655.962 1230.525,1654.756 C1228.418,1654.628 1229.586,1654.745 1227.028,1654.334 C1226.12,1654.172 1225.164,1653.923 1224.021,1653.576 C1222.252,1653.038 1219.872,1652.208 1216.831,1651.076 C1211.294,1649.016 1203.46,1645.916 1193.485,1641.85 C1176.019,1634.729 1152.346,1624.792 1123.997,1612.718 C1122.946,1612.271 1121.889,1611.82 1120.828,1611.368 C1099.081,1602.098 1075.975,1592.168 1052.996,1582.238 L1049.575,1580.759 z" fill="#31323D"/>
        </g>
        <g>
          <path d="M1322.585,1665.638 L1369.985,1664.62 L1390.009,1742.231 L1318.81,1728.207 z" fill="#3C3C3C"/>
          <path d="M1369.824,1657.122 C1373.304,1657.047 1376.378,1659.376 1377.247,1662.746 L1397.271,1740.358 C1398.651,1745.703 1393.977,1750.657 1388.56,1749.59 L1317.36,1735.566 C1313.677,1734.84 1311.097,1731.503 1311.323,1727.755 L1315.099,1665.186 C1315.334,1661.288 1318.521,1658.223 1322.424,1658.139 L1369.824,1657.122 z M1369.985,1664.62 L1322.585,1665.638 L1318.81,1728.207 L1390.009,1742.231 L1369.985,1664.62 z" fill="#31323D"/>
        </g>
        <g id="Shape">
          <path d="M1332,1694 C1333.45,1693.509 1386.11,1685.112 1386.11,1685.112 C1386.11,1685.112 1428.539,2083.239 1441.019,2123.369 C1419.5,2124 1396.604,2206.646 1389.802,2125.573 C1383,2044.5 1330.55,1694.491 1332,1694 z" fill="#3C3C3C"/>
          <path d="M1385.564,1674.625 C1391.301,1674.581 1395.652,1678.368 1396.551,1683.999 C1396.574,1684.213 1396.619,1684.637 1396.686,1685.262 C1396.798,1686.305 1396.93,1687.536 1397.081,1688.95 C1397.515,1692.989 1398.019,1697.675 1398.59,1702.954 C1400.221,1718.038 1402.054,1734.846 1404.049,1752.948 C1409.747,1804.664 1415.595,1856.379 1421.262,1904.642 C1422.772,1917.499 1424.251,1929.96 1425.697,1941.987 C1437.646,2041.407 1446.713,2106.32 1451.046,2120.251 C1452.952,2126.903 1448.37,2133.239 1441.573,2133.843 C1441.239,2133.976 1441.425,2133.894 1441.019,2134.102 C1438.168,2135.688 1434.344,2139.99 1428.136,2148.473 C1427.765,2148.98 1427.388,2149.497 1426.878,2150.198 C1427.149,2149.825 1425.911,2151.528 1425.613,2151.936 C1424.579,2153.356 1423.813,2154.399 1423.06,2155.408 C1421.061,2158.085 1419.397,2160.191 1417.779,2162.042 C1412.585,2167.982 1407.988,2171.372 1401.806,2171.663 C1397.274,2171.877 1393.136,2170.045 1389.997,2166.712 C1387.672,2164.243 1385.947,2161.055 1384.549,2157.064 C1382.182,2150.303 1380.506,2140.363 1379.339,2126.451 C1376.762,2095.74 1367.641,2025.589 1352.82,1919.553 C1352.175,1914.94 1351.519,1910.254 1350.85,1905.486 C1347.557,1882.019 1344.188,1858.201 1339.837,1827.572 C1339.103,1822.404 1338.368,1817.237 1337.633,1812.07 C1336.686,1805.409 1335.74,1798.748 1334.792,1792.087 C1332.878,1778.62 1331.533,1769.149 1330.302,1760.449 C1327.218,1738.659 1325.138,1723.766 1323.722,1713.284 C1322.929,1707.417 1322.354,1702.995 1321.99,1699.961 C1321.794,1698.326 1321.657,1697.071 1321.575,1696.157 C1319.653,1674.539 1320.007,1686.977 1328.63,1684.055 L1328.631,1684.055 C1330.187,1683.528 1335.905,1682.574 1356.713,1679.202 C1357.037,1679.15 1357.037,1679.15 1357.361,1679.097 C1363.289,1678.137 1369.639,1677.115 1375.989,1676.097 C1378.211,1675.741 1380.275,1675.411 1382.127,1675.115 C1382.776,1675.011 1383.159,1674.95 1383.847,1674.84 C1384.351,1674.76 1384.351,1674.76 1384.457,1674.743 L1385.564,1674.625 z M1386.11,1685.112 C1386.11,1685.112 1333.45,1693.509 1332,1694 C1330.55,1694.491 1383,2044.5 1389.802,2125.573 C1396.604,2206.646 1419.5,2124 1441.019,2123.369 C1428.539,2083.239 1386.11,1685.112 1386.11,1685.112 z M1441.54,2133.846 L1441.327,2133.865 C1441.516,2133.851 1441.445,2133.862 1441.54,2133.846 z" fill="#31323D"/>
        </g>
        <g id="Shape">
          <path d="M1371,1657 C1336.5,1710 1336.5,1740 1321.916,1819.151 C1296.5,1778 993.5,1649 993.5,1649 L1000.97,1553.815 C1000.97,1553.815 1277,1639.5 1371,1657 z" fill="#3C3C3C"/>
          <path d="M1000.97,1553.815 C1000.97,1553.815 1277,1639.5 1371,1657 C1336.5,1710 1336.5,1740 1321.916,1819.151 C1296.5,1778 993.5,1649 993.5,1649 L1000.97,1553.815 z M1010.412,1567.716 L1004.557,1642.318 C1009.935,1644.638 1007.501,1643.586 1011.858,1645.471 C1023.167,1650.371 1035.766,1655.886 1049.334,1661.899 C1088.104,1679.08 1126.876,1696.802 1163.083,1714.109 C1175.072,1719.839 1186.601,1725.441 1197.616,1730.892 C1226.949,1745.574 1256.325,1760.309 1284.457,1777.221 C1294.96,1783.535 1305.471,1790.095 1315.056,1797.76 C1317.432,1784.465 1319.617,1771.136 1322.01,1757.844 C1326.648,1732.369 1330.765,1715.87 1337.129,1699.255 C1341.703,1687.089 1347.622,1675.5 1354.213,1664.318 C1301.844,1652.712 1250.147,1638.253 1198.565,1623.588 C1191.09,1621.458 1183.481,1619.276 1175.75,1617.045 C1135.411,1605.406 1093.417,1592.939 1052.238,1580.471 C1037.826,1576.108 1024.544,1572.056 1012.701,1568.419 L1010.412,1567.716 z" fill="#31323D"/>
        </g>
        <g>
          <path d="M1523.865,1691.097 L1482.453,1664.847 L1464.445,1690.989 L1507.596,1725.51 z" fill="#3C3C3C"/>
          <path d="M1482.351,1657.347 C1485.633,1657.932 1484.302,1657.419 1486.469,1658.512 L1527.881,1684.762 C1531.078,1686.789 1532.264,1690.88 1530.646,1694.302 L1514.377,1728.715 C1512.307,1733.094 1506.693,1734.392 1502.911,1731.367 L1459.76,1696.846 C1456.688,1694.388 1456.037,1689.974 1458.269,1686.734 L1476.277,1660.592 C1478.14,1658.062 1479.483,1657.932 1482.351,1657.347 z M1482.453,1664.847 L1464.445,1690.989 L1507.596,1725.51 L1523.865,1691.097 L1482.453,1664.847 z" fill="#31323D"/>
        </g>
        <g id="Shape">
          <path d="M1880.5,1584.795 C1880.5,1584.795 1763.649,1636.278 1762.125,1633.231 C1760.602,1630.183 1639.449,1678.457 1639.449,1678.457 L1570.479,1691.459 L1519.6,1712.376 L1432.54,2028.96 L1421.275,2123.505 L1647.364,1979.776 L1880.5,1584.795 z" fill="#3C3C3C"/>
          <path d="M1880.5,1584.795 L1647.364,1979.776 L1421.275,2123.505 L1432.54,2028.96 L1519.6,1712.376 L1570.479,1691.459 L1639.449,1678.457 C1639.449,1678.457 1760.602,1630.183 1762.125,1633.231 C1763.649,1636.278 1880.5,1584.795 1880.5,1584.795 z M1854.979,1607.375 C1834.869,1616.044 1843.689,1612.264 1828.531,1618.739 C1827.481,1619.186 1826.441,1619.628 1825.409,1620.066 C1808.922,1627.066 1795.13,1632.777 1784.888,1636.806 C1778.977,1639.131 1774.301,1640.875 1770.904,1642.007 C1768.909,1642.672 1767.299,1643.147 1765.961,1643.444 C1764.898,1643.68 1763.939,1643.827 1762.887,1643.856 C1761.36,1643.842 1761.876,1643.924 1761.318,1643.832 C1760.133,1644.145 1760.75,1643.975 1759.468,1644.346 C1756.379,1645.262 1751.841,1646.78 1746.035,1648.833 C1735.633,1652.512 1721.487,1657.793 1704.552,1664.284 C1703.44,1664.71 1702.318,1665.141 1701.187,1665.575 C1688.307,1670.526 1674.696,1675.832 1661.215,1681.139 C1656.496,1682.996 1652.131,1684.721 1648.227,1686.269 C1646.861,1686.81 1645.65,1687.291 1644.608,1687.705 C1644.244,1687.85 1644.032,1687.934 1643.659,1688.083 C1643.39,1688.19 1643.39,1688.19 1643.336,1688.211 C1642.708,1688.461 1642.058,1688.65 1641.395,1688.775 L1573.479,1701.579 L1528.358,1720.129 L1442.873,2030.984 L1434.32,2102.77 L1639.603,1972.268 L1854.979,1607.375 z M1757.732,1642.954 C1757.964,1643.081 1757.872,1643.06 1757.984,1643.082 L1757.732,1642.954 z M1754.106,1640.047 C1755.74,1641.88 1755.002,1641.453 1755.849,1641.919 L1754.106,1640.047 z M1752.734,1637.926 C1753.675,1639.568 1753.251,1639.086 1753.701,1639.592 L1752.734,1637.926 z" fill="#31323D"/>
        </g>
        <g id="Shape">
          <path d="M1466,1680 C1494.5,1683.5 1526.43,1690.757 1526.43,1690.757 L1441.019,2123.369 L1384,2142 C1384,2142 1461,1720 1466,1680 z" fill="#3C3C3C"/>
          <path d="M1465.397,1672.523 L1466.914,1672.556 C1469.663,1672.893 1472.501,1673.272 1475.421,1673.69 C1482.075,1674.642 1489.07,1675.783 1496.279,1677.073 C1504.058,1678.465 1511.679,1679.955 1518.828,1681.446 C1521.333,1681.968 1523.6,1682.453 1525.592,1682.889 C1526.292,1683.042 1526.907,1683.178 1527.434,1683.295 C1527.754,1683.367 1527.975,1683.417 1528.092,1683.443 C1532.05,1684.343 1534.574,1688.228 1533.788,1692.209 L1448.377,2124.822 C1447.852,2127.485 1445.929,2129.656 1443.349,2130.499 L1386.329,2149.129 C1380.928,2150.894 1375.602,2146.244 1376.622,2140.654 C1376.662,2140.434 1376.662,2140.434 1376.858,2139.361 C1377.052,2138.294 1377.282,2137.035 1377.545,2135.589 C1378.298,2131.458 1379.172,2126.663 1380.156,2121.259 C1382.967,2105.818 1386.099,2088.59 1389.473,2070.006 C1399.111,2016.911 1408.75,1963.598 1417.745,1913.536 C1418.069,1911.736 1418.391,1909.943 1418.712,1908.157 C1441.83,1779.441 1456.491,1695.605 1458.558,1679.07 C1458.965,1676.62 1460.323,1674.463 1462.601,1673.313 C1463.466,1672.877 1464.465,1672.786 1465.397,1672.523 z M1466,1680 C1461,1720 1384,2142 1384,2142 L1441.019,2123.369 L1526.43,1690.757 C1526.43,1690.757 1494.5,1683.5 1466,1680 z" fill="#31323D"/>
        </g>
        <g id="Shape">
          <path d="M1482.656,1656.778 C1503.071,1692.3 1522.199,1741.88 1537,1813.5 C1637.749,1734.938 1911.458,1633.096 1911.458,1633.096 L1898.891,1543.241 C1898.891,1543.241 1527.977,1658.819 1482.656,1656.778 z" fill="#3C3C3C"/>
          <path d="M1898.891,1543.241 L1911.458,1633.096 C1911.458,1633.096 1637.749,1734.938 1537,1813.5 C1522.199,1741.88 1503.071,1692.3 1482.656,1656.778 C1527.977,1658.819 1898.891,1543.241 1898.891,1543.241 z M1890.202,1556.927 C1888.368,1557.494 1889.693,1557.084 1886.228,1558.154 C1873.636,1562.039 1859.521,1566.368 1844.215,1571.03 C1800.482,1584.35 1755.958,1597.67 1713.289,1610.104 C1705.889,1612.26 1698.597,1614.374 1691.423,1616.443 C1647.15,1629.111 1602.861,1641.787 1558.179,1652.951 C1538.729,1657.811 1519.158,1662.638 1499.331,1665.718 C1520.201,1706.543 1533.93,1750.753 1543.822,1795.429 C1562.825,1781.986 1582.924,1770.186 1603.235,1758.851 C1631.719,1743.073 1664.766,1726.545 1701.484,1709.506 C1746.631,1688.556 1794.968,1667.904 1843.3,1648.439 C1860.213,1641.627 1875.919,1635.45 1890.019,1630.018 C1895.709,1627.831 1892.417,1629.093 1899.896,1626.237 L1890.202,1556.927 z" fill="#31323D"/>
        </g>
      </g>
      <g>
        <path d="M1393.876,1974.441 C1391.031,1974.441 1388.725,1971.961 1388.725,1968.902 C1388.725,1965.842 1391.031,1963.362 1393.876,1963.362 C1396.721,1963.362 1399.027,1965.842 1399.027,1968.902 C1399.027,1971.961 1396.721,1974.441 1393.876,1974.441 z" fill="#31323D"/>
        <path d="M1393.876,1955.362 C1401.274,1955.362 1407.027,1961.549 1407.027,1968.902 C1407.027,1976.254 1401.274,1982.441 1393.876,1982.441 C1386.478,1982.441 1380.725,1976.254 1380.725,1968.902 C1380.725,1961.549 1386.478,1955.362 1393.876,1955.362 z M1393.876,1963.362 C1391.031,1963.362 1388.725,1965.842 1388.725,1968.902 C1388.725,1971.961 1391.031,1974.441 1393.876,1974.441 C1396.721,1974.441 1399.027,1971.961 1399.027,1968.902 C1399.027,1965.842 1396.721,1963.362 1393.876,1963.362 z" fill="#31323D"/>
      </g>
      <g>
        <path d="M1378.905,1847.131 C1376.06,1847.131 1373.754,1844.651 1373.754,1841.591 C1373.754,1838.532 1376.06,1836.052 1378.905,1836.052 C1381.75,1836.052 1384.056,1838.532 1384.056,1841.591 C1384.056,1844.651 1381.75,1847.131 1378.905,1847.131 z" fill="#31323D"/>
        <path d="M1378.905,1828.052 C1386.303,1828.052 1392.056,1834.239 1392.056,1841.591 C1392.056,1848.944 1386.303,1855.131 1378.905,1855.131 C1371.507,1855.131 1365.754,1848.944 1365.754,1841.591 C1365.754,1834.239 1371.507,1828.052 1378.905,1828.052 z M1378.905,1836.052 C1376.06,1836.052 1373.754,1838.532 1373.754,1841.591 C1373.754,1844.651 1376.06,1847.131 1378.905,1847.131 C1381.75,1847.131 1384.056,1844.651 1384.056,1841.591 C1384.056,1838.532 1381.75,1836.052 1378.905,1836.052 z" fill="#31323D"/>
      </g>
      <g>
        <path d="M1363.656,1718.104 C1360.811,1718.104 1358.505,1715.624 1358.505,1712.564 C1358.505,1709.505 1360.811,1707.025 1363.656,1707.025 C1366.5,1707.025 1368.807,1709.505 1368.807,1712.564 C1368.807,1715.624 1366.5,1718.104 1363.656,1718.104 z" fill="#31323D"/>
        <path d="M1363.656,1699.025 C1371.054,1699.025 1376.807,1705.212 1376.807,1712.564 C1376.807,1719.917 1371.054,1726.104 1363.656,1726.104 C1356.258,1726.104 1350.505,1719.917 1350.505,1712.564 C1350.505,1705.212 1356.258,1699.025 1363.656,1699.025 z M1363.656,1707.025 C1360.811,1707.025 1358.505,1709.505 1358.505,1712.564 C1358.505,1715.624 1360.811,1718.104 1363.656,1718.104 C1366.5,1718.104 1368.807,1715.624 1368.807,1712.564 C1368.807,1709.505 1366.5,1707.025 1363.656,1707.025 z" fill="#31323D"/>
      </g>
      <path d="M1457.958,1840.634 L1476.422,1843.549" fill-opacity="0" stroke="#31323D" stroke-width="7.5" stroke-linecap="square" stroke-linejoin="round"/>
      <path d="M1433.905,1967.944 L1452.37,1970.859" fill-opacity="0" stroke="#31323D" stroke-width="7.5" stroke-linecap="square" stroke-linejoin="round"/>
      <path d="M1480.31,1707.525 L1498.775,1710.44" fill-opacity="0" stroke="#31323D" stroke-width="7.5" stroke-linecap="square" stroke-linejoin="round" id="Shape"/>
    </g>
    <g id="Jacket">
      <g>
        <path d="M976.913,1589.435 C918.712,1966.046 832.276,2069.49 1002.233,2250.914 C1270.206,2279.829 1705.748,2267.345 1940.144,2247.584 C2170.124,2028.499 1956.098,1753.933 1922.81,1594.979 C1837.597,1584.754 1895.724,1571.384 1895.724,1571.384 L1424.189,2129.44 z" fill="#808080"/>
        <path d="M976.913,1589.435 C918.712,1966.046 832.276,2069.49 1002.233,2250.914 C1270.206,2279.829 1705.748,2267.345 1940.144,2247.584 C2170.124,2028.499 1956.098,1753.933 1922.81,1594.979 C1837.597,1584.754 1895.724,1571.384 1895.724,1571.384 L1424.189,2129.44 z" fill-opacity="0" stroke="#31323D" stroke-width="10.5"/>
      </g>
      <g id="Shape" display="none">
        <path d="M1436.163,2175.485 C1434.092,2175.485 1432.413,2173.459 1432.413,2170.96 C1432.413,2168.461 1434.092,2166.435 1436.163,2166.435 C1438.234,2166.435 1439.913,2168.461 1439.913,2170.96 C1439.913,2173.459 1438.234,2175.485 1436.163,2175.485 z" fill="#808080"/>
        <path d="M1436.163,2175.485 C1434.092,2175.485 1432.413,2173.459 1432.413,2170.96 C1432.413,2168.461 1434.092,2166.435 1436.163,2166.435 C1438.234,2166.435 1439.913,2168.461 1439.913,2170.96 C1439.913,2173.459 1438.234,2175.485 1436.163,2175.485 z" fill-opacity="0" stroke="#31323D" stroke-width="10.5"/>
      </g>
      <g id="Shape">
        <path d="M1441.635,2212.022 C1436.542,2212.022 1432.413,2208.426 1432.413,2203.99 C1432.413,2199.553 1436.542,2195.957 1441.635,2195.957 C1446.729,2195.957 1450.858,2199.553 1450.858,2203.99 C1450.858,2208.426 1446.729,2212.022 1441.635,2212.022 z" fill="#31323D"/>
        <path d="M1441.635,2212.022 C1436.542,2212.022 1432.413,2208.426 1432.413,2203.99 C1432.413,2199.553 1436.542,2195.957 1441.635,2195.957 C1446.729,2195.957 1450.858,2199.553 1450.858,2203.99 C1450.858,2208.426 1446.729,2212.022 1441.635,2212.022 z" fill-opacity="0" stroke="#31323D" stroke-width="10.5"/>
      </g>
      <g id="Shape">
        <path d="M1441.239,2176.075 C1436.146,2176.075 1432.017,2172.479 1432.017,2168.042 C1432.017,2163.606 1436.146,2160.01 1441.239,2160.01 C1446.332,2160.01 1450.461,2163.606 1450.461,2168.042 C1450.461,2172.479 1446.332,2176.075 1441.239,2176.075 z" fill="#31323D"/>
        <path d="M1441.239,2176.075 C1436.146,2176.075 1432.017,2172.479 1432.017,2168.042 C1432.017,2163.606 1436.146,2160.01 1441.239,2160.01 C1446.332,2160.01 1450.461,2163.606 1450.461,2168.042 C1450.461,2172.479 1446.332,2176.075 1441.239,2176.075 z" fill-opacity="0" stroke="#31323D" stroke-width="10.5"/>
      </g>
      <path d="M1431.861,2234.064 L1453.189,2234.067" fill-opacity="0" stroke="#31323D" stroke-width="7.5" stroke-linecap="square" stroke-linejoin="round"/>
      <g>
        <path d="M1424.618,2131.508 L1424.189,2266.775" fill="#808080"/>
        <path d="M1424.618,2131.508 L1424.189,2266.775" fill-opacity="0" stroke="#31323D" stroke-width="10.5"/>
      </g>
      <g>
        <path d="M1614.126,1992.38 L1725.162,1992.38 L1725.162,2011.352 L1614.126,2011.352 z" fill="#808080"/>
        <path d="M1614.126,1992.38 L1725.162,1992.38 L1725.162,2011.352 L1614.126,2011.352 z" fill-opacity="0" stroke="#31323D" stroke-width="10.5"/>
      </g>
      <path d="M893.992,2127.631 C897.147,2124.764 895.426,2127.631 902.308,2122.183 C898.007,2159.174 980.131,2259.657 1009.044,2261.522 C1037.956,2263.387 973.135,2262.976 971.988,2262.403 C915.785,2259.249 895.426,2140.248 893.992,2127.631 z" fill="#505050" fill-opacity="0.453" id="Shape" opacity="0.5"/>
      <path d="M967.335,1673.444 C991.01,1710.27 1009.065,1682.848 1009.065,1682.848 C1009.065,1682.848 884.293,2054.347 1059.948,2254.405 C1034.946,2250.532 1025.979,2249.208 1008.218,2250.589 C833.704,2085.504 924.597,1920.518 967.335,1673.444 z" fill="#505050" fill-opacity="0.453" id="Shape" opacity="0.5"/>
      <g id="Jacket_collar">
        <path d="M1902.912,1543.241 C1902.912,1543.241 1944.501,1623.965 1944.501,1623.965 C1944.501,1623.965 1879.953,1700.11 1879.953,1700.11 C1879.953,1700.11 1847.279,1678.746 1847.279,1678.746 C1847.279,1678.746 1857.333,1721.474 1857.333,1721.474 C1857.333,1721.474 1423.144,2119.231 1423.144,2119.231 C1423.144,2119.231 1024.133,1715.191 1024.133,1715.191 C1024.133,1715.191 1033.558,1674.348 1033.558,1674.348 C1033.558,1674.348 999.627,1695.083 999.627,1695.083 C999.627,1695.083 954.386,1647.328 954.386,1647.328 C954.386,1647.328 992.913,1559.25 992.913,1559.25 C992.913,1559.25 1423.289,2119.231 1423.289,2119.231 C1423.289,2119.231 1902.912,1543.241 1902.912,1543.241 z" fill="#808080"/>
        <path d="M1904.986,1524.341 L1912.246,1538.432 C1912.571,1539.063 1912.571,1539.063 1914.033,1541.901 C1915.982,1545.685 1915.982,1545.685 1918.744,1551.045 C1925.243,1563.658 1925.243,1563.658 1933.041,1578.794 C1940.839,1593.93 1940.839,1593.93 1947.337,1606.543 C1950.099,1611.903 1950.099,1611.903 1952.048,1615.687 C1953.51,1618.525 1953.51,1618.525 1953.835,1619.156 L1957.051,1625.398 L1952.511,1630.754 C1952.007,1631.349 1952.007,1631.349 1949.737,1634.026 C1946.712,1637.596 1946.712,1637.596 1942.425,1642.652 C1932.34,1654.55 1932.34,1654.55 1920.237,1668.827 C1908.134,1683.104 1908.134,1683.104 1898.048,1695.002 C1893.762,1700.058 1893.762,1700.058 1890.736,1703.628 C1888.467,1706.305 1888.467,1706.305 1887.963,1706.9 L1881.967,1713.972 L1874.207,1708.898 C1873.186,1708.231 1873.186,1708.231 1869.102,1705.56 C1867.24,1704.343 1865.377,1703.125 1863.515,1701.907 C1864.338,1705.403 1865.16,1708.898 1865.983,1712.393 C1867.239,1717.734 1867.239,1717.734 1867.553,1719.069 L1868.963,1725.059 L1864.425,1729.217 C1863.577,1729.993 1863.577,1729.993 1859.549,1733.683 C1854.037,1738.733 1854.037,1738.733 1845.769,1746.308 C1825.416,1764.953 1825.416,1764.953 1796.583,1791.366 C1728.741,1853.516 1728.741,1853.516 1647.331,1928.095 C1565.921,2002.675 1565.921,2002.675 1498.079,2064.824 C1469.246,2091.238 1469.246,2091.238 1448.893,2109.883 C1440.625,2117.457 1440.625,2117.457 1435.113,2122.507 C1433.865,2123.649 1432.618,2124.792 1431.371,2125.934 L1431.358,2125.95 L1422.961,2136.035 L1415.87,2126.809 L1415.673,2126.609 C1414.894,2125.82 1414.894,2125.82 1411.192,2122.072 C1406.126,2116.942 1406.126,2116.942 1398.528,2109.248 C1379.824,2090.309 1379.824,2090.309 1353.328,2063.478 C1290.982,2000.347 1290.982,2000.347 1216.167,1924.589 C1141.353,1848.831 1141.353,1848.831 1079.007,1785.7 C1052.511,1758.869 1052.511,1758.869 1033.807,1739.93 C1026.209,1732.236 1026.209,1732.236 1021.143,1727.106 C1017.441,1723.358 1017.441,1723.358 1016.662,1722.568 L1012.603,1718.458 L1013.902,1712.829 C1014.196,1711.553 1014.196,1711.553 1015.375,1706.448 C1016.152,1703.078 1016.93,1699.709 1017.707,1696.34 C1015.273,1697.827 1012.839,1699.315 1010.404,1700.803 C1006.163,1703.395 1006.163,1703.395 1005.102,1704.043 L997.85,1708.475 L992.005,1702.304 C991.651,1701.931 991.651,1701.931 990.061,1700.252 C987.94,1698.014 987.94,1698.014 984.936,1694.843 C977.867,1687.381 977.867,1687.381 969.384,1678.427 C960.901,1669.473 960.901,1669.473 953.832,1662.011 C950.828,1658.84 950.828,1658.84 948.707,1656.601 C947.117,1654.923 947.117,1654.923 946.763,1654.549 L941.976,1649.497 L944.766,1643.12 C945.067,1642.432 945.067,1642.432 946.421,1639.335 C948.227,1635.207 948.227,1635.207 950.786,1629.358 C954.981,1619.766 959.177,1610.174 963.373,1600.582 C968.006,1589.989 972.64,1579.397 977.273,1568.804 C979.832,1562.955 979.832,1562.955 981.638,1558.827 C982.992,1555.73 982.992,1555.73 983.293,1555.042 L990.413,1538.766 L1001.239,1552.851 C1002.079,1553.945 1002.079,1553.945 1006.072,1559.14 C1011.536,1566.25 1011.536,1566.25 1019.731,1576.913 C1039.905,1603.162 1039.905,1603.162 1068.485,1640.349 C1135.731,1727.846 1135.731,1727.846 1216.427,1832.842 C1297.122,1937.839 1297.122,1937.839 1364.368,2025.336 C1392.948,2062.522 1392.948,2062.522 1413.122,2088.771 C1416.62,2093.323 1420.119,2097.876 1423.618,2102.428 C1427.688,2097.54 1431.758,2092.651 1435.829,2087.763 C1458.311,2060.763 1458.311,2060.763 1490.161,2022.514 C1565.102,1932.516 1565.102,1932.516 1655.031,1824.517 C1744.961,1716.519 1744.961,1716.519 1819.902,1626.521 C1851.752,1588.272 1851.752,1588.272 1874.234,1561.272 C1883.368,1550.303 1883.368,1550.303 1889.457,1542.991 C1893.906,1537.647 1893.906,1537.647 1894.843,1536.522 L1904.986,1524.341 z M1902.912,1543.241 C1743.194,1735.052 1583.474,1926.86 1423.756,2118.671 L1423.229,2119.153 L1423.289,2119.231 C1423.503,2118.975 1423.347,2119.161 1423.756,2118.671 C1568.275,1986.266 1712.817,1853.884 1857.333,1721.474 C1857.333,1721.474 1847.279,1678.746 1847.279,1678.746 C1847.279,1678.746 1879.953,1700.11 1879.953,1700.11 C1879.953,1700.11 1944.501,1623.965 1944.501,1623.965 C1944.501,1623.965 1902.912,1543.241 1902.912,1543.241 z M992.913,1559.25 C992.913,1559.25 954.386,1647.328 954.385,1647.328 C954.386,1647.328 999.627,1695.083 999.627,1695.083 C999.627,1695.083 1033.558,1674.348 1033.558,1674.347 C1033.558,1674.348 1024.133,1715.191 1024.133,1715.191 C1024.133,1715.191 1423.144,2119.231 1423.144,2119.231 C1423.17,2119.207 1423.197,2119.183 1423.223,2119.159 C1423.225,2119.157 1423.227,2119.155 1423.229,2119.153 C1279.787,1932.522 1136.358,1745.88 992.913,1559.25 z" fill="#31323D"/>
      </g>
      <path d="M992.913,1559.25 L1026.109,1603.503 C1026.109,1603.503 996.484,1671.292 999.627,1695.083 C982.438,1672.228 954.386,1647.328 954.386,1647.328 z" fill="#505050" fill-opacity="0.453" opacity="0.5"/>
      <path d="M2040.87,2106.129 C2043.44,2106.129 2067.031,2114.821 2067.031,2114.821 C2067.031,2114.821 2067.922,2165.098 2048.102,2194.242 C2025.585,2227.352 1993.276,2249.111 1993.276,2249.111 C1993.276,2249.111 2044.215,2176.075 2040.87,2106.129 z" fill="#A1A1A1" fill-opacity="0.961" opacity="0.5"/>
      <path d="M1854.454,1601.794 L1902.912,1543.241 L1944.501,1623.965 C1944.501,1623.965 1904.999,1668.372 1906.088,1667.332 C1885.508,1616.394 1854.454,1601.794 1854.454,1601.794 z" fill="#A1A1A1" fill-opacity="0.961" id="Shape" opacity="0.5"/>
      <path d="M1890.388,1704.134 C1890.388,1704.134 1919.164,1667.528 1934.455,1652.635 C2096.084,2010.515 2049.827,2117.265 1938.477,2242.717 C1919.442,2243.471 1928.939,2242.454 1913.658,2243.16 C2128.782,2032.351 1890.388,1704.134 1890.388,1704.134 z" fill="#A1A1A1" fill-opacity="0.961" opacity="0.5"/>
      <g>
        <path d="M1926.459,2040.339 C1880.042,2092.441 1894.142,2166.531 1874.966,2270.649 C1851.052,2262.713 1754.058,2267.422 1693.596,2288.939 C1679.053,2251.302 1706.394,2050.342 1677.154,2034.184" fill="#808080"/>
        <path d="M1926.459,2040.339 C1880.042,2092.441 1894.142,2166.531 1874.966,2270.649 C1851.052,2262.713 1754.058,2267.422 1693.596,2288.939 C1679.053,2251.302 1706.394,2050.342 1677.154,2034.184" fill-opacity="0" stroke="#31323D" stroke-width="10.5" stroke-linecap="round"/>
      </g>
      <path d="M1691.947,2054.225 C1700.225,2097.689 1722.277,2274.013 1722.277,2274.013 C1722.277,2274.013 1721.597,2268.64 1697.726,2283.028 C1685.245,2150.412 1702.985,2143.215 1691.947,2054.225 z" fill="#505050" fill-opacity="0.453" id="Shape" opacity="0.5" display="none"/>
      <g id="Shape">
        <path d="M976.272,2045.026 C1022.69,2097.128 1008.589,2171.218 1027.765,2275.336 C1051.679,2267.4 1148.673,2272.108 1209.135,2293.625 C1223.678,2255.989 1196.338,2055.029 1225.577,2038.87" fill="#808080"/>
        <path d="M976.272,2045.026 C1022.69,2097.128 1008.589,2171.218 1027.765,2275.336 C1051.679,2267.4 1148.673,2272.108 1209.135,2293.625 C1223.678,2255.989 1196.338,2055.029 1225.577,2038.87" fill-opacity="0" stroke="#31323D" stroke-width="10.5" stroke-linecap="round"/>
      </g>
      <g id="Shape" display="none">
        <path d="M1201.421,2007.106 C1239.39,2131.417 1234.432,2241.899 1208.781,2305.33 C1148.319,2283.813 1089.761,2276.651 1027.411,2287.041 C973.305,2110.242 947.989,1995.723 975.851,1922.517 C1014.716,1820.401 1145.79,1824.973 1201.421,2007.106 z" fill="#808080"/>
        <path d="M1201.421,2007.106 C1239.39,2131.417 1234.432,2241.899 1208.781,2305.33 C1148.319,2283.813 1089.761,2276.651 1027.411,2287.041 C973.305,2110.242 947.989,1995.723 975.851,1922.517 C1014.716,1820.401 1145.79,1824.973 1201.421,2007.106 z" fill-opacity="0" stroke="#31323D" stroke-width="10.5"/>
      </g>
      <path d="M984.151,2045.849 C973.207,2031.146 1007.719,2048.89 1022.544,2078.54 C1037.369,2108.19 1055.283,2208.333 1060.912,2266.4 C1047.581,2267.289 1047.581,2264.03 1031.286,2268.77 C1014.992,2134.268 1022.544,2097.426 984.151,2045.849 z" fill="#505050" fill-opacity="0.453" id="Shape" opacity="0.5"/>
      <path d="M1685.326,2034.82 C1698.593,2040.756 1703.798,2045.192 1712.21,2069.386 C1720.622,2093.579 1716.051,2220.217 1728.661,2272.785 C1715.329,2273.674 1705.576,2278.524 1697.726,2283.028 C1687.071,2144.103 1709.766,2104.3 1685.326,2034.82 z" fill="#505050" fill-opacity="0.453" id="Shape" opacity="0.5"/>
      <path d="M1194.428,2067.64 C1201.342,2055.588 1205.617,2049.71 1217.641,2037.419 C1197.601,2056.39 1212.065,2231.626 1204.774,2284.538 C1197.055,2282.285 1192.607,2282.105 1181.354,2278.759 C1184.36,2226.937 1187.514,2079.693 1194.428,2067.64 z" fill="#A1A1A1" fill-opacity="0.961" id="Shape" opacity="0.5"/>
      <path d="M1885.048,2065.992 C1897.429,2047.64 1899.103,2048.207 1920.5,2036.5 C1904.603,2055.707 1887.708,2068.406 1872.167,2261.512 C1856.906,2261.627 1866.912,2260.515 1854.676,2261.153 C1857.682,2209.331 1872.668,2084.345 1885.048,2065.992 z" fill="#A1A1A1" fill-opacity="0.961" id="Shape" opacity="0.5"/>
    </g>
  </g>
</svg>
