<?xml version="1.0" encoding="UTF-8"?>
<!DOCTYPE svg PUBLIC "-//W3C//DTD SVG 1.1//EN" "http://www.w3.org/Graphics/SVG/1.1/DTD/svg11.dtd">
<svg version="1.1" xmlns="http://www.w3.org/2000/svg" xmlns:xlink="http://www.w3.org/1999/xlink" x="0" y="0" width="3000" height="3000" viewBox="0, 0, 3000, 3000">
  <g id="Coffee_mug">
    <g id="Shape">
      <path d="M886.435,2212.13 C924.861,2204.376 935.034,2272.912 934.09,2332.734 C933.145,2392.555 917.311,2440.119 883.016,2428.762 C851.232,2418.238 823.173,2378.913 824.117,2319.092 C825.062,2259.27 852.962,2211.382 886.435,2212.13 z M884.599,2238.425 C865.246,2238.397 849.615,2275.097 849.685,2320.396 C849.755,2365.695 865.5,2402.439 884.852,2402.467 C904.205,2402.495 910.962,2373.216 910.892,2327.917 C910.822,2282.618 903.952,2238.453 884.599,2238.425 z" fill="#FFFFFF"/>
      <path d="M886.435,2212.13 C924.861,2204.376 935.034,2272.912 934.09,2332.734 C933.145,2392.555 917.311,2440.119 883.016,2428.762 C851.232,2418.238 823.173,2378.913 824.117,2319.092 C825.062,2259.27 852.962,2211.382 886.435,2212.13 z M884.599,2238.425 C865.246,2238.397 849.615,2275.097 849.685,2320.396 C849.755,2365.695 865.5,2402.439 884.852,2402.467 C904.205,2402.495 910.962,2373.216 910.892,2327.917 C910.822,2282.618 903.952,2238.453 884.599,2238.425 z" fill-opacity="0" stroke="#31323D" stroke-width="10"/>
    </g>
    <path d="M643.708,2356.122 C763.453,2365.227 857.189,2416.491 853.073,2470.624 C848.956,2524.756 738.419,2550.763 618.674,2541.658 C498.929,2532.552 415.322,2491.783 419.438,2437.651 C423.554,2383.518 523.963,2347.017 643.708,2356.122 z" fill="#31323D" fill-opacity="0.377"/>
    <g>
      <path d="M883.618,2187.979 L883.618,2459.592 L882.968,2459.592 C879.108,2486.969 860.81,2505.112 843.796,2517.477 C823.242,2532.414 800.639,2541.7 778.096,2549.291 C725.335,2565.786 651.469,2559.738 592.62,2548.741 C565.429,2540.592 538.472,2527.43 515.089,2506.653 C502.529,2495.494 489.871,2480.146 486.277,2459.592 L485.474,2459.592 L485.474,2187.979 L883.618,2187.979 z" fill="#FFFFFF"/>
      <path d="M883.618,2187.979 L883.618,2459.592 L882.968,2459.592 C879.108,2486.969 860.81,2505.112 843.796,2517.477 C823.242,2532.414 800.639,2541.7 778.096,2549.291 C725.335,2565.786 651.469,2559.738 592.62,2548.741 C565.429,2540.592 538.472,2527.43 515.089,2506.653 C502.529,2495.494 489.871,2480.146 486.277,2459.592 L485.474,2459.592 L485.474,2187.979 L883.618,2187.979 z" fill-opacity="0" stroke="#31323D" stroke-width="10"/>
    </g>
    <g id="Shape">
      <path d="M692.46,2348.385 z" fill="#FFFFFF"/>
      <path d="M692.46,2348.385 z" fill-opacity="0" stroke="#31323D" stroke-width="10"/>
    </g>
    <g>
      <path d="M684.546,2239.644 C574.602,2239.644 485.474,2215.256 485.474,2185.172 C485.474,2155.089 574.602,2130.701 684.546,2130.701 C794.49,2130.701 883.618,2155.089 883.618,2185.172 C883.618,2215.256 794.49,2239.644 684.546,2239.644 z" fill="#FFFFFF"/>
      <path d="M684.546,2239.644 C574.602,2239.644 485.474,2215.256 485.474,2185.172 C485.474,2155.089 574.602,2130.701 684.546,2130.701 C794.49,2130.701 883.618,2155.089 883.618,2185.172 C883.618,2215.256 794.49,2239.644 684.546,2239.644 z" fill-opacity="0" stroke="#31323D" stroke-width="10"/>
    </g>
    <g id="Shape">
      <path d="M684.546,2239.644 C588.677,2239.644 510.961,2222.537 510.961,2201.436 C510.961,2180.334 588.677,2163.229 684.546,2163.229 C780.415,2163.229 858.134,2180.334 858.134,2201.436 C858.134,2222.537 780.415,2239.644 684.546,2239.644 z" fill="#94622E"/>
      <path d="M684.546,2239.644 C588.677,2239.644 510.961,2222.537 510.961,2201.436 C510.961,2180.334 588.677,2163.229 684.546,2163.229 C780.415,2163.229 858.134,2180.334 858.134,2201.436 C858.134,2222.537 780.415,2239.644 684.546,2239.644 z" fill-opacity="0" stroke="#31323D" stroke-width="10"/>
    </g>
    <path d="M484.974,2197.459 C484.974,2197.459 532.5,2217.698 532.754,2225.075 C533.236,2239.055 532.036,2460.578 545.678,2525.916 C531.318,2517.3 504.686,2499.494 484.974,2461.727 C486.085,2416.062 484.974,2197.459 484.974,2197.459 z" fill="#31323D" fill-opacity="0.377"/>
    <path d="M691.203,1917.315 L690.972,1916.03 L690.397,1913.443 L689.707,1911.676 L688.942,1910.78 L688.163,1909.91 L687.363,1909.058 L686.542,1908.226 L685.7,1907.413 L684.836,1906.62 L683.949,1905.851 L683.018,1905.13 L682.066,1904.43 L681.094,1903.754 L680.105,1903.102 L679.096,1902.474 L678.069,1901.871 L677.023,1901.293 L675.959,1900.742 L674.877,1900.218 L673.772,1899.729 L672.641,1899.277 L671.494,1898.856 L670.328,1898.464 L669.146,1898.104 L667.947,1897.775 L666.731,1897.479 L665.497,1897.217 L664.247,1896.989 L662.98,1896.797 L661.695,1896.641 L661.011,1896.574 L661.011,1896.574 C660.98,1896.572 660.949,1896.57 660.918,1896.568 L660.918,1896.568 L660.317,1896.52 L658.909,1896.468 L657.409,1896.478 L655.883,1896.552 L654.328,1896.691 L652.75,1896.896 L651.152,1897.167 L649.532,1897.509 L647.894,1897.925 L646.232,1898.42 L644.545,1899.003 L642.826,1899.686 L641.068,1900.486 L639.26,1901.423 L637.394,1902.522 L635.46,1903.817 L634.206,1904.748 L634.206,1904.748 C634.071,1904.852 633.936,1904.959 633.802,1905.067 L633.802,1905.067 L633.459,1905.341 L632.392,1906.234 L631.207,1907.292 L630.042,1908.41 L628.903,1909.59 L627.806,1910.824 L626.761,1912.105 L625.785,1913.417 L624.893,1914.744 L624.092,1916.07 L623.39,1917.379 L622.791,1918.656 L622.133,1920.34 L621.507,1922.509 L621.148,1924.626 L621.05,1926.554 L621.161,1928.331 L621.443,1929.989 L621.868,1931.553 L622.42,1933.05 L623.086,1934.494 L623.858,1935.9 L624.726,1937.274 L625.687,1938.626 L626.734,1939.96 L627.863,1941.278 L629.069,1942.586 L630.349,1943.884 L631.698,1945.173 L633.11,1946.455 L634.584,1947.733 L636.116,1949 L637.703,1950.258 L639.338,1951.512 L641.017,1952.761 L642.733,1954.005 L645.364,1955.857 L648.972,1958.312 L652.66,1960.75 L656.386,1963.164 L660.113,1965.551 L663.806,1967.907 L667.431,1970.227 L670.077,1971.942 L671.797,1973.071 L673.48,1974.192 L675.118,1975.303 L676.707,1976.401 L678.243,1977.488 L679.719,1978.561 L681.131,1979.621 L682.473,1980.667 L683.742,1981.697 L684.931,1982.708 L686.036,1983.701 L687.05,1984.671 L687.97,1985.617 L688.788,1986.534 L689.497,1987.421 L690.094,1988.268 L690.576,1989.065 L690.936,1989.799 L691.175,1990.45 L691.218,1990.636 L691.179,1990.503 L691.305,1990.979 L691.51,1991.839 L691.677,1992.652 L691.813,1993.445 L691.912,1994.223 L691.984,1994.981 L692.028,1995.718 L692.047,1996.431 L692.041,1997.122 L692.012,1997.79 L691.962,1998.433 L691.874,1999.063 L691.691,2000.025 L691.361,2001.222 L690.99,2002.24 L690.583,2003.147 L690.141,2003.949 L689.687,2004.656 L689.225,2005.281 L688.754,2005.847 L688.266,2006.378 L687.739,2006.894 L687.16,2007.412 L686.521,2007.953 L685.816,2008.522 L685.031,2009.127 L684.16,2009.772 L683.2,2010.454 L682.14,2011.151 L680.993,2011.869 L679.769,2012.61 L678.466,2013.375 L677.092,2014.158 L675.648,2014.959 L673.3,2016.209 L670.026,2017.845 L666.633,2019.487 L663.079,2021.181 L659.393,2022.935 L655.587,2024.774 L651.677,2026.766 L647.665,2028.908 L644.516,2030.678 L642.321,2031.969 L640.18,2033.31 L638.008,2034.727 L635.799,2036.23 L633.552,2037.832 L631.263,2039.548 L628.933,2041.392 L626.564,2043.379 L624.159,2045.529 L621.773,2047.892 L619.41,2050.441 L617.086,2053.153 L614.836,2056.015 L612.699,2059.008 L610.721,2062.093 L608.939,2065.231 L607.389,2068.372 L606.086,2071.478 L605.057,2074.502 L604.543,2076.321 L604.543,2076.321 C604.459,2076.64 604.383,2076.955 604.317,2077.266 L604.317,2077.266 L604.239,2077.635 L603.892,2080.046 L603.859,2082.632 L604.169,2084.799 L604.725,2086.607 L605.454,2088.129 L606.304,2089.419 L607.248,2090.534 L608.264,2091.509 L609.342,2092.373 L610.475,2093.15 L611.662,2093.856 L612.899,2094.502 L614.184,2095.099 L615.512,2095.652 L616.889,2096.17 L618.308,2096.655 L619.771,2097.111 L621.276,2097.542 L622.823,2097.949 L624.405,2098.335 L626.019,2098.701 L627.67,2099.05 L629.354,2099.383 L631.065,2099.7 L632.803,2100.003 L635.433,2100.43 L639.024,2100.963 L642.69,2101.458 L646.389,2101.92 L650.103,2102.355 L653.799,2102.769 L657.457,2103.166 L661.055,2103.553 L664.56,2103.934 L667.952,2104.304 L670.411,2104.563 L671.995,2104.738 L673.538,2104.916 L675.031,2105.096 L676.473,2105.28 L677.893,2105.417 L679.25,2105.56 L680.539,2105.709 L681.761,2105.865 L682.901,2106.026 L683.961,2106.193 L684.925,2106.375 L685.793,2106.566 L686.557,2106.756 L687.215,2106.943 L687.754,2107.119 L688.163,2107.28 L688.422,2107.42 L688.384,2107.406 L688.175,2107.274 L688.526,2107.499 L688.883,2107.766 L689.064,2107.956 L689.174,2108.127 L689.217,2108.268 L689.212,2108.371 L689.171,2108.424 L689.107,2108.425 L689.03,2108.369 L688.942,2108.271 L688.852,2108.128 L688.777,2107.941 L688.72,2107.721 L688.685,2107.478 L688.668,2107.229 L688.666,2106.985 L688.672,2106.761 L688.681,2106.563 L688.708,2106.405 L688.721,2106.297 L688.712,2106.245 L688.673,2106.254 L688.595,2106.33 L688.479,2106.465 L688.138,2106.947 L687.585,2107.699 L686.959,2108.505 L686.162,2109.499 L685.203,2110.658 L684.099,2111.958 L682.145,2114.205 L680.071,2116.544 L678.6,2118.196 L677.029,2119.965 L675.404,2121.81 L673.731,2123.741 L672.395,2125.314 L671.453,2126.447 L670.552,2127.553 L669.639,2128.699 L668.711,2129.894 L667.769,2131.146 L666.813,2132.462 L665.846,2133.852 L664.872,2135.324 L663.896,2136.889 L662.924,2138.563 L661.978,2140.344 L661.079,2142.235 L660.258,2144.227 L659.756,2145.646 L659.756,2145.646 C659.69,2145.845 659.628,2146.043 659.569,2146.239 L659.569,2146.239 L659.395,2146.82 L658.924,2148.531 L658.484,2150.38 L658.131,2152.179 L657.862,2153.92 L657.675,2155.607 L657.567,2157.237 L657.534,2158.806 L657.572,2160.32 L657.678,2161.773 L657.846,2163.171 L658.073,2164.509 L658.354,2165.796 L658.687,2167.032 L659.066,2168.218 L659.488,2169.357 L659.951,2170.452 L660.449,2171.504 L660.983,2172.52 L661.545,2173.495 L662.137,2174.437 L662.753,2175.346 L663.694,2176.616 L665.032,2178.242 L666.466,2179.812 L667.954,2181.301 L669.483,2182.723 L671.038,2184.085 L672.611,2185.4 L674.963,2187.295 L678.398,2189.426 L681.192,2190.68 L682.983,2191.5 L684.73,2192.335 L686.759,2192.831 L688.944,2193.126 L691.056,2193.461 L693.09,2193.844 L694.545,2194.146 L695.493,2194.346 L696.632,2194.405 L697.753,2194.485 L698.854,2194.588 L699.935,2194.714 L700.456,2194.761 L700.456,2194.761 C701.829,2197.469 706.52,2196.626 710.933,2192.88 C715.347,2189.134 717.811,2183.902 716.439,2181.195 L716.534,2180.405 L716.72,2178.881 L716.868,2177.371 L716.98,2175.872 L717.059,2174.385 L716.897,2173.07 L716.599,2171.154 L716.149,2168.675 L715.626,2166.245 L715.049,2163.861 L714.209,2161.75 L713.002,2160.039 L711.776,2158.362 L709.972,2155.935 L707.255,2153.215 L705.071,2151.459 L703.698,2150.314 L702.394,2149.178 L701.173,2148.053 L700.041,2146.934 L699.008,2145.823 L698.052,2144.684 L697.399,2143.816 L697.018,2143.266 L696.668,2142.723 L696.347,2142.181 L696.058,2141.649 L695.798,2141.122 L695.567,2140.603 L695.366,2140.091 L695.193,2139.59 L695.048,2139.1 L694.929,2138.62 L694.834,2138.15 L694.764,2137.696 L694.716,2137.252 L694.689,2136.823 L694.681,2136.4 L694.691,2135.99 L694.718,2135.585 L694.762,2135.182 L694.823,2134.783 L694.9,2134.378 L695.054,2133.778 L695.233,2133.182 L695.046,2133.775 L694.715,2134.677 L694.31,2135.595 L693.921,2136.363 L693.576,2136.974 L693.293,2137.431 L693.088,2137.735 L692.963,2137.904 L692.921,2137.948 L692.962,2137.88 L693.082,2137.71 L693.28,2137.447 L693.551,2137.1 L693.889,2136.681 L694.237,2136.258 L694.923,2135.442 L696.085,2134.097 L697.427,2132.571 L698.922,2130.889 L700.583,2129.023 L703.264,2125.991 L706.033,2122.792 L708.008,2120.442 L710.035,2117.953 L712.097,2115.312 L714.172,2112.511 L716.131,2109.698 L717.53,2107.54 L718.498,2105.935 L719.438,2104.289 L720.347,2102.597 L721.213,2100.863 L722.024,2099.097 L722.768,2097.305 L723.406,2095.5 L723.953,2093.697 L724.398,2091.903 L724.731,2090.135 L724.943,2088.407 L725.029,2086.736 L724.986,2085.135 L724.814,2083.615 L724.527,2082.181 L724.129,2080.83 L723.619,2079.579 L723.002,2078.425 L722.287,2077.366 L721.482,2076.395 L720.602,2075.503 L719.649,2074.682 L718.721,2073.991 L718.372,2073.756 L718.372,2073.756 C718.303,2073.711 718.233,2073.667 718.162,2073.625 L718.162,2073.625 L717.558,2073.273 L716.554,2072.758 L715.529,2072.29 L714.468,2071.861 L713.37,2071.466 L712.225,2071.095 L711.039,2070.747 L709.81,2070.409 L708.544,2070.074 L707.232,2069.75 L705.881,2069.437 L704.485,2069.131 L703.047,2068.831 L701.574,2068.538 L700.026,2068.302 L698.442,2068.072 L696.826,2067.847 L695.175,2067.625 L692.654,2067.299 L689.202,2066.901 L685.674,2066.518 L682.102,2066.133 L678.503,2065.742 L674.907,2065.341 L671.344,2064.924 L667.833,2064.486 L664.404,2064.024 L661.069,2063.531 L658.646,2063.139 L657.093,2062.869 L655.584,2062.591 L654.125,2062.304 L652.716,2062.008 L651.36,2061.703 L650.068,2061.39 L648.842,2061.07 L647.683,2060.742 L646.598,2060.409 L645.589,2060.071 L644.667,2059.731 L643.83,2059.392 L643.089,2059.06 L642.447,2058.74 L641.909,2058.439 L641.476,2058.169 L641.153,2057.944 L640.942,2057.787 L640.836,2057.727 L640.821,2057.795 L640.876,2058.048 L640.956,2058.54 L640.994,2059.341 L640.899,2060.51 L640.706,2061.452 L640.788,2061.066 L640.562,2062.011 L640.46,2062.283 L640.41,2062.261 L640.287,2062.38 L640.11,2062.591 L639.888,2062.855 L639.649,2063.12 L639.421,2063.342 L639.244,2063.483 L639.149,2063.52 L639.164,2063.437 L639.296,2063.208 L639.542,2062.807 L639.951,2062.279 L640.517,2061.642 L641.234,2060.91 L642.097,2060.093 L643.094,2059.205 L644.215,2058.256 L645.449,2057.253 L646.702,2056.22 L648.844,2054.538 L652.073,2052.127 L655.561,2049.606 L659.249,2046.953 L663.092,2044.217 L667.044,2041.403 L671.073,2038.503 L675.075,2035.543 L678.053,2033.301 L680.083,2031.746 L682.113,2030.149 L684.135,2028.508 L686.152,2026.815 L688.154,2025.069 L690.142,2023.267 L692.122,2021.415 L694.075,2019.488 L695.993,2017.481 L697.859,2015.395 L699.654,2013.236 L701.362,2011.007 L702.97,2008.727 L704.457,2006.409 L705.792,2004.072 L706.961,2001.738 L707.954,1999.426 L708.769,1997.149 L709.42,1994.913 L709.902,1992.722 L710.211,1990.641 L710.363,1989.099 L710.428,1988.037 L710.473,1986.97 L710.481,1985.909 L710.452,1984.851 L710.387,1983.797 L710.287,1982.747 L710.152,1981.698 L709.981,1980.65 L709.783,1979.595 L709.55,1978.541 L709.29,1977.512 L709.158,1977.036 L709.158,1977.036 C709.146,1976.991 709.133,1976.946 709.119,1976.902 L709.119,1976.902 L708.875,1976.164 L708.362,1974.945 L707.741,1973.78 L707.02,1972.651 L706.204,1971.544 L705.298,1970.45 L704.308,1969.361 L703.235,1968.276 L702.083,1967.19 L700.856,1966.104 L699.557,1965.013 L698.192,1963.919 L696.762,1962.819 L695.274,1961.713 L693.731,1960.601 L692.138,1959.482 L690.498,1958.357 L688.816,1957.227 L687.096,1956.09 L685.34,1954.946 L682.657,1953.221 L679.008,1950.904 L675.302,1948.572 L671.579,1946.226 L667.877,1943.867 L664.235,1941.498 L660.682,1939.119 L658.1,1937.331 L656.432,1936.142 L654.812,1934.955 L653.24,1933.769 L651.724,1932.586 L650.265,1931.41 L648.869,1930.244 L647.541,1929.082 L646.289,1927.929 L645.117,1926.786 L644.031,1925.655 L643.033,1924.537 L642.132,1923.438 L641.329,1922.362 L640.629,1921.314 L640.036,1920.303 L639.551,1919.337 L639.176,1918.431 L638.906,1917.601 L638.733,1916.873 L638.64,1916.274 L638.598,1915.836 L638.564,1915.599 L638.541,1915.425 L638.523,1915.36 L638.442,1915.475 L638.334,1915.626 L638.203,1915.798 L638.057,1915.972 L637.905,1916.137 L637.764,1916.274 L637.651,1916.367 L637.579,1916.411 L637.563,1916.397 L637.611,1916.327 L637.862,1916.096 L638.21,1915.81 L637.806,1916.129 L637.52,1916.315 L637.621,1916.193 L637.912,1915.975 L638.369,1915.695 L638.969,1915.379 L639.691,1915.047 L640.512,1914.718 L641.411,1914.406 L642.375,1914.117 L643.384,1913.859 L644.427,1913.637 L645.491,1913.453 L646.564,1913.312 L647.637,1913.214 L648.697,1913.16 L649.793,1913.154 L650.42,1913.17 L650.327,1913.164 L650.826,1913.182 L651.894,1913.247 L652.962,1913.343 L654.027,1913.47 L655.087,1913.628 L656.144,1913.816 L657.196,1914.034 L658.241,1914.281 L659.278,1914.557 L660.309,1914.861 L661.33,1915.193 L662.351,1915.543 L663.367,1915.913 L664.372,1916.309 L665.366,1916.731 L666.348,1917.178 L667.317,1917.65 L668.274,1918.146 L669.215,1918.664 L670.143,1919.206 L671.055,1919.769 L671.977,1920.328 L672.886,1920.904 L673.778,1921.5 L674.654,1922.117 L675.511,1922.752 L676.35,1923.405 L677.161,1924.067 L678.756,1924.7 L681.077,1925.424 L682.227,1925.839 C683.311,1927.172 686.199,1926.344 688.677,1923.99 C691.156,1921.636 692.286,1918.648 691.203,1917.315 L691.203,1917.315" fill="#31323D" opacity="0.337"/>
  </g>
</svg>
