<?xml version="1.0" encoding="UTF-8"?>
<!DOCTYPE svg PUBLIC "-//W3C//DTD SVG 1.1//EN" "http://www.w3.org/Graphics/SVG/1.1/DTD/svg11.dtd">
<svg version="1.1" xmlns="http://www.w3.org/2000/svg" xmlns:xlink="http://www.w3.org/1999/xlink" x="0" y="0" width="3000" height="3000" viewBox="0, 0, 3000, 3000">
  <g id="Coffee_cup_&amp;_saucer">
    <path d="M663.782,2565.61 C480.526,2573.512 330.139,2537.485 327.882,2485.141 C325.625,2432.797 472.353,2383.958 655.608,2376.056 C838.863,2368.154 989.251,2404.182 991.508,2456.526 C993.765,2508.87 847.037,2557.708 663.782,2565.61 z" fill="#31323D" fill-opacity="0.377" id="Shape"/>
    <g id="Shape">
      <path d="M643.064,2553.248 C454.916,2553.248 331.82,2483.429 331.82,2443.238 C331.82,2403.048 497.825,2406.115 685.973,2406.115 C874.121,2406.115 1053.101,2403.048 1053.101,2443.238 C1053.101,2483.429 920.212,2553.982 732.064,2553.982 z" fill="#808080"/>
      <path d="M643.064,2553.248 C454.916,2553.248 331.82,2483.429 331.82,2443.238 C331.82,2403.048 497.825,2406.115 685.973,2406.115 C874.121,2406.115 1053.101,2403.048 1053.101,2443.238 C1053.101,2483.429 920.212,2553.982 732.064,2553.982 z" fill-opacity="0" stroke="#31323D" stroke-width="10"/>
    </g>
    <g id="Shape">
      <path d="M692.46,2539.242 C493.284,2539.242 331.82,2496.26 331.82,2443.238 C331.82,2390.217 493.284,2347.234 692.46,2347.234 C891.637,2347.234 1053.101,2390.217 1053.101,2443.238 C1053.101,2496.26 891.637,2539.242 692.46,2539.242 z" fill="#FFFFFF"/>
      <path d="M692.46,2539.242 C493.284,2539.242 331.82,2496.26 331.82,2443.238 C331.82,2390.217 493.284,2347.234 692.46,2347.234 C891.637,2347.234 1053.101,2390.217 1053.101,2443.238 C1053.101,2496.26 891.637,2539.242 692.46,2539.242 z" fill-opacity="0" stroke="#31323D" stroke-width="10"/>
    </g>
    <g id="Shape">
      <path d="M847.968,2185.337 C887.006,2182.606 921.014,2214.127 923.926,2255.742 C926.838,2297.357 897.551,2333.307 858.512,2336.039 C819.473,2338.77 785.465,2307.249 782.553,2265.634 C779.642,2224.019 808.929,2188.069 847.968,2185.337 z M849.747,2210.765 C825.523,2212.46 807.449,2236.186 809.378,2263.757 C811.307,2291.329 832.509,2312.306 856.733,2310.611 C880.957,2308.916 899.031,2285.191 897.101,2257.619 C895.172,2230.048 873.971,2209.07 849.747,2210.765 z" fill="#FFFFFF"/>
      <path d="M847.968,2185.337 C887.006,2182.606 921.014,2214.127 923.926,2255.742 C926.838,2297.357 897.551,2333.307 858.512,2336.039 C819.473,2338.77 785.465,2307.249 782.553,2265.634 C779.642,2224.019 808.929,2188.069 847.968,2185.337 z M849.747,2210.765 C825.523,2212.46 807.449,2236.186 809.378,2263.757 C811.307,2291.329 832.509,2312.306 856.733,2310.611 C880.957,2308.916 899.031,2285.191 897.101,2257.619 C895.172,2230.048 873.971,2209.07 849.747,2210.765 z" fill-opacity="0" stroke="#31323D" stroke-width="10"/>
    </g>
    <g>
      <path d="M684.546,2484.197 C619.951,2484.197 567.586,2469.581 567.586,2451.552 C567.586,2433.522 619.951,2418.906 684.546,2418.906 C749.142,2418.906 801.507,2433.522 801.507,2451.552 C801.507,2469.581 749.142,2484.197 684.546,2484.197 z" fill="#FFFFFF"/>
      <path d="M684.546,2484.197 C619.951,2484.197 567.586,2469.581 567.586,2451.552 C567.586,2433.522 619.951,2418.906 684.546,2418.906 C749.142,2418.906 801.507,2433.522 801.507,2451.552 C801.507,2469.581 749.142,2484.197 684.546,2484.197 z" fill-opacity="0" stroke="#31323D" stroke-width="10" stroke-linecap="round" stroke-linejoin="round"/>
    </g>
    <path d="M623.215,2499.381 C526.05,2499.788 447.184,2476.517 447.062,2447.403 C446.94,2418.289 525.608,2394.357 622.773,2393.95 C719.937,2393.542 798.803,2416.813 798.926,2445.927 C799.048,2475.041 720.379,2498.973 623.215,2499.381 z" fill="#31323D" fill-opacity="0.377"/>
    <path d="M243.257,992.93 C204.881,988.005 175.144,973.321 176.837,960.133 C178.53,946.944 211.011,940.246 249.387,945.171 C287.762,950.096 317.499,964.78 315.806,977.969 C314.114,991.157 281.632,997.856 243.257,992.93 z" fill="#31323D" fill-opacity="0.377" id="Shape" display="none"/>
    <g>
      <path d="M883.503,2185.172 C883.64,2189.967 883.549,2186.346 883.618,2196.039 C883.443,2292.179 832.339,2427.958 770.375,2454.242 C712.5,2472.349 668.694,2472.933 599.622,2454.242 C530.265,2422.117 486.44,2293.345 485.474,2196.039 C485.544,2186.346 485.453,2189.967 485.59,2185.172 L883.503,2185.172 z" fill="#FFFFFF"/>
      <path d="M883.503,2185.172 C883.64,2189.967 883.549,2186.346 883.618,2196.039 C883.443,2292.179 832.339,2427.958 770.375,2454.242 C712.5,2472.349 668.694,2472.933 599.622,2454.242 C530.265,2422.117 486.44,2293.345 485.474,2196.039 C485.544,2186.346 485.453,2189.967 485.59,2185.172 L883.503,2185.172 z" fill-opacity="0" stroke="#31323D" stroke-width="10"/>
    </g>
    <g id="Shape">
      <path d="M684.546,2239.644 C574.602,2239.644 485.474,2215.256 485.474,2185.172 C485.474,2155.089 574.602,2130.701 684.546,2130.701 C794.49,2130.701 883.618,2155.089 883.618,2185.172 C883.618,2215.256 794.49,2239.644 684.546,2239.644 z" fill="#FFFFFF"/>
      <path d="M684.546,2239.644 C574.602,2239.644 485.474,2215.256 485.474,2185.172 C485.474,2155.089 574.602,2130.701 684.546,2130.701 C794.49,2130.701 883.618,2155.089 883.618,2185.172 C883.618,2215.256 794.49,2239.644 684.546,2239.644 z" fill-opacity="0" stroke="#31323D" stroke-width="10"/>
    </g>
    <g id="Shape">
      <path d="M684.546,2239.644 C588.677,2239.644 510.961,2222.537 510.961,2201.436 C510.961,2180.334 588.677,2163.229 684.546,2163.229 C780.415,2163.229 858.134,2180.334 858.134,2201.436 C858.134,2222.537 780.415,2239.644 684.546,2239.644 z" fill="#684706" fill-opacity="0.883"/>
      <path d="M684.546,2239.644 C588.677,2239.644 510.961,2222.537 510.961,2201.436 C510.961,2180.334 588.677,2163.229 684.546,2163.229 C780.415,2163.229 858.134,2180.334 858.134,2201.436 C858.134,2222.537 780.415,2239.644 684.546,2239.644 z" fill-opacity="0" stroke="#31323D" stroke-width="10"/>
    </g>
    <path d="M490.55,2204.491 C490.55,2204.491 504.22,2213.28 531.089,2223.347 C520.799,2259.952 565.029,2406.242 609.031,2453.066 C566.286,2437.668 537.688,2388.958 520.419,2346.341 C490.119,2277.383 490.55,2204.491 490.55,2204.491 z" fill="#31323D" fill-opacity="0.377" id="Shape"/>
    <path d="M678.341,1914.508 L678.11,1913.224 L677.536,1910.636 L676.845,1908.869 L676.08,1907.973 L675.301,1907.103 L674.501,1906.251 L673.681,1905.42 L672.838,1904.606 L671.974,1903.813 L671.087,1903.044 L670.156,1902.323 L669.204,1901.624 L668.233,1900.947 L667.243,1900.295 L666.234,1899.667 L665.207,1899.064 L664.161,1898.486 L663.097,1897.936 L662.016,1897.412 L660.911,1896.922 L659.779,1896.47 L658.632,1896.049 L657.466,1895.657 L656.284,1895.297 L655.085,1894.969 L653.869,1894.673 L652.635,1894.41 L651.385,1894.182 L650.118,1893.99 L648.832,1893.834 L648.15,1893.767 L648.15,1893.767 C648.118,1893.765 648.087,1893.763 648.055,1893.762 L648.055,1893.762 L647.456,1893.713 L646.047,1893.662 L644.548,1893.672 L643.021,1893.746 L641.465,1893.885 L639.889,1894.089 L638.289,1894.361 L636.671,1894.702 L635.031,1895.118 L633.369,1895.614 L631.682,1896.197 L629.963,1896.879 L628.205,1897.679 L626.398,1898.616 L624.532,1899.715 L622.598,1901.01 L621.344,1901.941 L621.344,1901.941 C621.209,1902.046 621.074,1902.152 620.94,1902.26 L620.94,1902.26 L620.597,1902.535 L619.53,1903.427 L618.345,1904.485 L617.18,1905.604 L616.042,1906.784 L614.944,1908.018 L613.899,1909.298 L612.924,1910.61 L612.031,1911.937 L611.23,1913.263 L610.528,1914.573 L609.929,1915.85 L609.43,1917.085 L609.026,1918.273 L608.613,1919.83 L608.286,1921.819 L608.189,1923.748 L608.299,1925.524 L608.58,1927.181 L609.006,1928.746 L609.559,1930.243 L610.225,1931.687 L610.996,1933.093 L611.864,1934.467 L612.825,1935.819 L613.872,1937.153 L615.001,1938.471 L616.207,1939.779 L617.487,1941.077 L618.836,1942.367 L620.248,1943.649 L621.722,1944.926 L623.254,1946.193 L624.841,1947.451 L626.476,1948.705 L628.155,1949.954 L629.871,1951.198 L632.503,1953.05 L636.11,1955.505 L639.798,1957.943 L643.524,1960.357 L647.251,1962.744 L650.944,1965.1 L654.569,1967.42 L657.216,1969.135 L658.935,1970.265 L660.618,1971.386 L662.257,1972.496 L663.845,1973.594 L665.381,1974.681 L666.857,1975.754 L668.269,1976.814 L669.611,1977.86 L670.88,1978.89 L672.069,1979.901 L673.174,1980.894 L674.188,1981.864 L675.108,1982.81 L675.926,1983.727 L676.635,1984.614 L677.233,1985.461 L677.714,1986.258 L678.074,1986.992 L678.314,1987.644 L678.356,1987.83 L678.318,1987.697 L678.443,1988.172 L678.648,1989.032 L678.815,1989.845 L678.951,1990.638 L679.051,1991.417 L679.122,1992.174 L679.166,1992.911 L679.185,1993.626 L679.179,1994.315 L679.15,1994.984 L679.1,1995.626 L679.012,1996.254 L678.829,1997.219 L678.5,1998.415 L678.128,1999.433 L677.721,2000.339 L677.279,2001.143 L676.825,2001.849 L676.364,2002.474 L675.892,2003.041 L675.405,2003.571 L674.878,2004.087 L674.297,2004.607 L673.66,2005.145 L672.954,2005.715 L672.17,2006.32 L671.298,2006.966 L670.338,2007.649 L669.28,2008.342 L668.133,2009.061 L666.908,2009.803 L665.604,2010.569 L664.228,2011.352 L662.786,2012.152 L660.437,2013.403 L657.166,2015.037 L653.773,2016.679 L650.219,2018.373 L646.531,2020.128 L642.726,2021.966 L638.812,2023.961 L634.803,2026.102 L631.654,2027.871 L629.459,2029.162 L627.315,2030.505 L625.143,2031.923 L622.933,2033.427 L620.688,2035.027 L618.399,2036.743 L616.072,2038.585 L613.702,2040.573 L611.297,2042.722 L608.911,2045.085 L606.548,2047.634 L604.224,2050.346 L601.974,2053.209 L599.837,2056.201 L597.859,2059.286 L596.076,2062.427 L594.527,2065.565 L593.225,2068.669 L592.195,2071.696 L591.682,2073.514 L591.682,2073.514 C591.597,2073.833 591.521,2074.148 591.455,2074.459 L591.455,2074.459 L591.377,2074.828 L591.03,2077.239 L590.997,2079.825 L591.308,2081.992 L591.863,2083.8 L592.592,2085.322 L593.442,2086.612 L594.386,2087.728 L595.402,2088.702 L596.48,2089.566 L597.613,2090.343 L598.801,2091.049 L600.037,2091.696 L601.322,2092.292 L602.65,2092.845 L604.028,2093.363 L605.446,2093.848 L606.91,2094.304 L608.414,2094.735 L609.961,2095.143 L611.543,2095.529 L613.157,2095.895 L614.808,2096.244 L616.493,2096.576 L618.203,2096.893 L619.941,2097.196 L622.572,2097.624 L626.162,2098.156 L629.828,2098.651 L633.527,2099.114 L637.241,2099.549 L640.937,2099.962 L644.595,2100.359 L648.193,2100.747 L651.698,2101.128 L655.09,2101.498 L657.55,2101.757 L659.132,2101.931 L660.678,2102.109 L662.171,2102.29 L663.614,2102.474 L665.03,2102.611 L666.388,2102.754 L667.679,2102.903 L668.895,2103.058 L670.037,2103.219 L671.097,2103.386 L672.063,2103.568 L672.929,2103.759 L673.696,2103.949 L674.352,2104.135 L674.891,2104.312 L675.3,2104.473 L675.561,2104.613 L675.522,2104.599 L675.313,2104.468 L675.664,2104.692 L676.021,2104.959 L676.203,2105.149 L676.312,2105.32 L676.355,2105.461 L676.35,2105.564 L676.31,2105.618 L676.245,2105.617 L676.169,2105.564 L676.08,2105.463 L675.99,2105.32 L675.915,2105.134 L675.859,2104.915 L675.823,2104.675 L675.806,2104.424 L675.804,2104.179 L675.81,2103.954 L675.818,2103.757 L675.847,2103.596 L675.86,2103.49 L675.849,2103.441 L675.811,2103.448 L675.734,2103.522 L675.618,2103.658 L675.276,2104.14 L674.723,2104.892 L674.097,2105.698 L673.3,2106.692 L672.341,2107.851 L671.237,2109.151 L669.283,2111.398 L667.21,2113.738 L665.738,2115.389 L664.167,2117.158 L662.542,2119.003 L660.869,2120.935 L659.534,2122.508 L658.591,2123.64 L657.69,2124.747 L656.777,2125.892 L655.849,2127.087 L654.907,2128.339 L653.951,2129.656 L652.985,2131.045 L652.01,2132.517 L651.034,2134.082 L650.062,2135.756 L649.116,2137.537 L648.217,2139.428 L647.396,2141.42 L646.894,2142.84 L646.894,2142.84 C646.828,2143.038 646.766,2143.236 646.707,2143.433 L646.707,2143.433 L646.533,2144.013 L646.062,2145.724 L645.622,2147.574 L645.269,2149.372 L645.001,2151.114 L644.814,2152.801 L644.705,2154.431 L644.672,2156 L644.711,2157.513 L644.816,2158.966 L644.984,2160.364 L645.211,2161.702 L645.493,2162.99 L645.825,2164.226 L646.204,2165.411 L646.626,2166.55 L647.089,2167.646 L647.587,2168.698 L648.121,2169.713 L648.683,2170.688 L649.275,2171.631 L649.891,2172.539 L650.832,2173.809 L652.17,2175.436 L653.604,2177.006 L655.092,2178.495 L656.621,2179.916 L658.176,2181.278 L659.749,2182.594 L662.101,2184.488 L665.536,2186.619 L668.331,2187.874 L670.121,2188.694 L671.869,2189.529 L673.898,2190.024 L676.083,2190.32 L678.194,2190.654 L680.228,2191.037 L681.683,2191.339 L682.631,2191.539 L683.771,2191.598 L684.891,2191.678 L685.992,2191.781 L687.073,2191.907 L687.595,2191.955 L687.595,2191.955 C688.967,2194.662 693.658,2193.819 698.071,2190.073 C702.485,2186.327 704.95,2181.095 703.577,2178.388 L703.672,2177.598 L703.858,2176.074 L704.006,2174.564 L704.118,2173.066 L704.197,2171.578 L704.035,2170.263 L703.738,2168.347 L703.287,2165.868 L702.765,2163.438 L702.187,2161.054 L701.347,2158.943 L700.141,2157.232 L698.914,2155.555 L697.11,2153.128 L694.393,2150.408 L692.209,2148.652 L690.836,2147.507 L689.532,2146.371 L688.311,2145.246 L687.179,2144.127 L686.146,2143.017 L685.19,2141.877 L684.537,2141.009 L684.156,2140.459 L683.807,2139.916 L683.485,2139.374 L683.196,2138.843 L682.936,2138.315 L682.706,2137.796 L682.504,2137.284 L682.331,2136.783 L682.186,2136.293 L682.067,2135.813 L681.973,2135.343 L681.903,2134.889 L681.854,2134.446 L681.827,2134.016 L681.819,2133.594 L681.829,2133.183 L681.856,2132.778 L681.9,2132.375 L681.961,2131.976 L682.039,2131.572 L682.192,2130.972 L682.371,2130.375 L682.185,2130.968 L681.853,2131.87 L681.448,2132.789 L681.059,2133.556 L680.714,2134.167 L680.431,2134.624 L680.226,2134.928 L680.101,2135.097 L680.06,2135.141 L680.1,2135.073 L680.22,2134.903 L680.418,2134.64 L680.69,2134.293 L681.027,2133.874 L681.375,2133.451 L682.061,2132.636 L683.223,2131.29 L684.566,2129.764 L686.06,2128.082 L687.721,2126.216 L690.402,2123.184 L693.171,2119.985 L695.147,2117.635 L697.173,2115.146 L699.235,2112.505 L701.311,2109.705 L703.269,2106.891 L704.668,2104.734 L705.635,2103.13 L706.577,2101.482 L707.487,2099.787 L708.351,2098.057 L709.162,2096.292 L709.906,2094.498 L710.545,2092.693 L711.092,2090.889 L711.537,2089.094 L711.869,2087.325 L712.081,2085.6 L712.167,2083.93 L712.124,2082.329 L711.953,2080.81 L711.665,2079.372 L711.268,2078.024 L710.757,2076.771 L710.141,2075.618 L709.426,2074.559 L708.62,2073.588 L707.741,2072.696 L706.787,2071.875 L705.859,2071.184 L705.51,2070.949 L705.51,2070.949 C705.441,2070.905 705.371,2070.861 705.3,2070.818 L705.3,2070.818 L704.696,2070.466 L703.693,2069.952 L702.668,2069.483 L701.609,2069.054 L700.508,2068.659 L699.366,2068.289 L698.178,2067.94 L696.95,2067.603 L695.684,2067.268 L694.374,2066.944 L693.018,2066.63 L691.623,2066.324 L690.187,2066.025 L688.709,2065.731 L687.163,2065.495 L685.579,2065.265 L683.965,2065.04 L682.312,2064.818 L679.793,2064.493 L676.34,2064.094 L672.812,2063.711 L669.24,2063.327 L665.641,2062.936 L662.045,2062.534 L658.482,2062.117 L654.971,2061.679 L651.543,2061.217 L648.207,2060.725 L645.784,2060.333 L644.231,2060.062 L642.722,2059.784 L641.263,2059.497 L639.854,2059.202 L638.498,2058.896 L637.206,2058.583 L635.98,2058.263 L634.821,2057.936 L633.736,2057.602 L632.727,2057.264 L631.805,2056.925 L630.968,2056.585 L630.228,2056.253 L629.585,2055.933 L629.047,2055.632 L628.615,2055.362 L628.292,2055.137 L628.08,2054.98 L627.974,2054.92 L627.959,2054.988 L628.014,2055.241 L628.094,2055.733 L628.132,2056.534 L628.037,2057.703 L627.845,2058.645 L627.927,2058.259 L627.7,2059.204 L627.598,2059.477 L627.547,2059.456 L627.425,2059.573 L627.25,2059.782 L627.026,2060.049 L626.787,2060.313 L626.56,2060.535 L626.382,2060.677 L626.287,2060.713 L626.302,2060.63 L626.434,2060.402 L626.681,2060 L627.089,2059.473 L627.657,2058.833 L628.375,2058.101 L629.239,2057.283 L630.235,2056.396 L631.357,2055.447 L632.587,2054.446 L633.84,2053.413 L635.983,2051.731 L639.215,2049.319 L642.698,2046.8 L646.387,2044.146 L650.229,2041.411 L654.181,2038.598 L658.209,2035.698 L662.214,2032.736 L665.191,2030.494 L667.223,2028.938 L669.251,2027.342 L671.273,2025.702 L673.289,2024.01 L675.291,2022.264 L677.281,2020.459 L679.261,2018.608 L681.214,2016.682 L683.131,2014.674 L684.996,2012.589 L686.793,2010.428 L688.5,2008.201 L690.108,2005.92 L691.595,2003.602 L692.93,2001.266 L694.099,1998.931 L695.092,1996.619 L695.907,1994.343 L696.558,1992.106 L697.04,1989.915 L697.349,1987.833 L697.502,1986.294 L697.567,1985.23 L697.611,1984.162 L697.619,1983.102 L697.59,1982.043 L697.526,1980.99 L697.425,1979.941 L697.29,1978.891 L697.119,1977.843 L696.921,1976.789 L696.688,1975.734 L696.428,1974.705 L696.296,1974.228 L696.296,1974.228 C696.284,1974.183 696.271,1974.139 696.257,1974.095 L696.257,1974.095 L696.013,1973.357 L695.501,1972.138 L694.88,1970.974 L694.158,1969.844 L693.342,1968.737 L692.436,1967.644 L691.446,1966.554 L690.373,1965.469 L689.221,1964.383 L687.994,1963.297 L686.695,1962.206 L685.33,1961.112 L683.9,1960.012 L682.412,1958.906 L680.869,1957.794 L679.276,1956.676 L677.636,1955.551 L675.954,1954.42 L674.234,1953.283 L672.478,1952.139 L669.795,1950.414 L666.146,1948.097 L662.44,1945.766 L658.717,1943.419 L655.016,1941.06 L651.373,1938.692 L647.82,1936.312 L645.238,1934.524 L643.57,1933.335 L641.95,1932.148 L640.378,1930.963 L638.862,1929.779 L637.403,1928.603 L636.007,1927.437 L634.679,1926.276 L633.427,1925.122 L632.256,1923.979 L631.169,1922.848 L630.172,1921.73 L629.27,1920.632 L628.467,1919.556 L627.767,1918.507 L627.174,1917.496 L626.69,1916.53 L626.314,1915.625 L626.044,1914.796 L625.871,1914.067 L625.778,1913.467 L625.736,1913.03 L625.734,1912.664 L625.747,1912.464 L625.715,1912.483 L625.661,1912.553 L625.581,1912.668 L625.472,1912.82 L625.341,1912.991 L625.194,1913.166 L625.043,1913.33 L624.902,1913.467 L624.789,1913.561 L624.717,1913.604 L624.701,1913.591 L624.749,1913.52 L625,1913.289 L625.348,1913.003 L624.944,1913.322 L624.658,1913.508 L624.759,1913.386 L625.049,1913.168 L625.508,1912.888 L626.108,1912.572 L626.83,1912.24 L627.651,1911.911 L628.55,1911.599 L629.512,1911.31 L630.523,1911.052 L631.565,1910.83 L632.63,1910.646 L633.702,1910.505 L634.775,1910.407 L635.835,1910.353 L636.931,1910.347 L637.559,1910.363 L637.464,1910.357 L637.965,1910.375 L639.033,1910.44 L640.1,1910.536 L641.165,1910.664 L642.226,1910.821 L643.282,1911.009 L644.334,1911.227 L645.379,1911.474 L646.416,1911.75 L647.447,1912.055 L648.468,1912.387 L649.489,1912.736 L650.505,1913.106 L651.51,1913.503 L652.504,1913.924 L653.486,1914.372 L654.455,1914.843 L655.412,1915.339 L656.353,1915.857 L657.281,1916.399 L658.194,1916.962 L659.116,1917.521 L660.024,1918.097 L660.916,1918.693 L661.792,1919.31 L662.649,1919.945 L663.488,1920.598 L664.299,1921.26 L665.894,1921.893 L668.215,1922.617 L669.366,1923.033 C670.449,1924.365 673.337,1923.537 675.815,1921.183 C678.294,1918.829 679.424,1915.841 678.341,1914.508 L678.341,1914.508" fill="#31323D" id="Shape" opacity="0.337"/>
  </g>
</svg>
