<?xml version="1.0" encoding="UTF-8"?>
<!DOCTYPE svg PUBLIC "-//W3C//DTD SVG 1.1//EN" "http://www.w3.org/Graphics/SVG/1.1/DTD/svg11.dtd">
<svg version="1.1" xmlns="http://www.w3.org/2000/svg" xmlns:xlink="http://www.w3.org/1999/xlink" x="0" y="0" width="3000" height="3000" viewBox="0, 0, 3000, 3000">
  <g id="Final_grey_suit">
    <g id="Pants_and_belt">
      <g id="Shape">
        <path d="M1192.138,2236.073 L1185.714,2293.609 L1710.902,2293.625 L1710.821,2239.612 L1192.138,2236.073 z" fill="#808080"/>
        <path d="M1192.138,2236.073 L1185.714,2293.609 L1710.902,2293.625 L1710.821,2239.612 L1192.138,2236.073 z" fill-opacity="0" stroke="#31323D" stroke-width="10.5"/>
      </g>
      <g id="Shape">
        <path d="M1858.008,2232.976 C1858.008,2231.501 1854.379,2263.148 1855.527,2275.823 C1868.154,2278.74 1889.391,2267.628 1942.809,2236.073 C1975.623,2193.156 1915.219,2255.25 1915.219,2255.25 C1915.219,2255.25 1947.971,2261.365 1979.146,2262.478 C2067.429,2219.334 2071.996,2147.082 2072.478,2113.523 C2046.782,2099.506 2021.342,2097.926 2021.342,2097.926 C2021.342,2097.926 1858.008,2234.45 1858.008,2232.976 z" fill="#808080"/>
        <path d="M1858.008,2232.976 C1858.008,2231.501 1854.379,2263.148 1855.527,2275.823 C1868.154,2278.74 1889.391,2267.628 1942.809,2236.073 C1975.623,2193.156 1915.219,2255.25 1915.219,2255.25 C1915.219,2255.25 1947.971,2261.365 1979.146,2262.478 C2067.429,2219.334 2071.996,2147.082 2072.478,2113.523 C2046.782,2099.506 2021.342,2097.926 2021.342,2097.926 C2021.342,2097.926 1858.008,2234.45 1858.008,2232.976 z" fill-opacity="0" stroke="#31323D" stroke-width="10.5"/>
      </g>
      <g id="Shape">
        <path d="M927.175,2097.926 C927.759,2097.926 906.154,2110.773 889.546,2120.912 C909.657,2262.007 969.995,2262.478 969.995,2262.478 L1016.811,2261.34 L992.106,2224.937 C992.106,2224.937 1018.981,2279.35 1044.315,2275.642 C1052.133,2260.255 1052.24,2243.025 1052.24,2243.025 L1022.937,2138.801 L927.175,2097.926 z" fill="#808080"/>
        <path d="M927.175,2097.926 C927.759,2097.926 906.154,2110.773 889.546,2120.912 C909.657,2262.007 969.995,2262.478 969.995,2262.478 L1016.811,2261.34 L992.106,2224.937 C992.106,2224.937 1018.981,2279.35 1044.315,2275.642 C1052.133,2260.255 1052.24,2243.025 1052.24,2243.025 L1022.937,2138.801 L927.175,2097.926 z" fill-opacity="0" stroke="#31323D" stroke-width="10.5"/>
      </g>
      <g id="Belt">
        <path d="M1197.429,2260.819 C1192.948,2262.611 1705.15,2270.229 1704.253,2257.682 C1703.357,2245.135 1703.357,2260.819 1706.494,2269.333 C1697.98,2273.366 1196.533,2276.055 1196.981,2267.989 C1197.429,2259.923 1201.911,2259.026 1197.429,2260.819 z" fill="#808080"/>
        <path d="M1197.429,2260.819 C1192.948,2262.611 1705.15,2270.229 1704.253,2257.682 C1703.357,2245.135 1703.357,2260.819 1706.494,2269.333 C1697.98,2273.366 1196.533,2276.055 1196.981,2267.989 C1197.429,2259.923 1201.911,2259.026 1197.429,2260.819 z" fill-opacity="0" stroke="#31323D" stroke-width="10.5"/>
      </g>
      <g id="Belt_buckle">
        <path d="M1394.179,2250.72 L1454.802,2250.72 C1456.182,2250.72 1457.302,2251.756 1457.302,2253.033 L1457.302,2275.683 C1457.302,2276.96 1456.182,2277.996 1454.802,2277.996 L1394.179,2277.996 C1392.798,2277.996 1391.679,2276.96 1391.679,2275.683 L1391.679,2253.033 C1391.679,2251.756 1392.798,2250.72 1394.179,2250.72 z" fill="#C6C6C6"/>
        <path d="M1394.179,2250.72 L1454.802,2250.72 C1456.182,2250.72 1457.302,2251.756 1457.302,2253.033 L1457.302,2275.683 C1457.302,2276.96 1456.182,2277.996 1454.802,2277.996 L1394.179,2277.996 C1392.798,2277.996 1391.679,2276.96 1391.679,2275.683 L1391.679,2253.033 C1391.679,2251.756 1392.798,2250.72 1394.179,2250.72 z" fill-opacity="0" stroke="#31323D" stroke-width="10.5"/>
      </g>
    </g>
    <g id="Shirt_and_tie">
      <g id="Shape">
        <path d="M997.957,1591.207 C997.957,1591.207 1257.824,1648.166 1259.347,1645.119 C1260.871,1642.071 1383.449,1679.474 1383.449,1679.474 L1474.719,1681.275 L1884.229,1588.205 L1539.274,2081.696 L1429.646,2169.55 L1311.157,2086.954 L997.957,1591.207 z" fill="#FFFFFF"/>
        <path d="M1884.229,1588.204 L1539.274,2081.696 L1429.646,2169.55 L1311.157,2086.954 L997.957,1591.207 C997.957,1591.207 1257.824,1648.166 1259.347,1645.119 C1260.871,1642.071 1383.449,1679.474 1383.449,1679.474 L1474.719,1681.275 L1884.229,1588.204 z M1860.05,1604.468 L1477.046,1691.514 C1476.214,1691.703 1475.364,1691.79 1474.511,1691.773 L1383.242,1689.972 C1382.273,1689.953 1381.312,1689.8 1380.385,1689.517 C1380.332,1689.5 1380.332,1689.5 1380.064,1689.419 C1379.693,1689.306 1379.693,1689.306 1379.12,1689.131 C1378.084,1688.816 1376.88,1688.451 1375.52,1688.038 C1371.635,1686.86 1367.287,1685.548 1362.584,1684.134 C1349.147,1680.094 1335.552,1676.055 1322.645,1672.287 C1321.235,1671.876 1319.84,1671.469 1318.46,1671.068 C1301.327,1666.087 1287.017,1662.062 1276.495,1659.299 C1270.622,1657.757 1266.034,1656.636 1262.91,1655.985 C1261.816,1655.765 1262.236,1655.841 1261.653,1655.738 C1260.477,1655.838 1259.291,1655.762 1258.114,1655.726 C1257.203,1655.696 1256.157,1655.597 1254.871,1655.436 C1252.728,1655.167 1249.76,1654.699 1245.938,1654.032 C1238.88,1652.801 1228.835,1650.88 1216.022,1648.32 C1193.544,1643.83 1163.03,1637.473 1126.471,1629.698 C1124.595,1629.299 1122.705,1628.897 1120.802,1628.491 C1093.047,1622.579 1063.646,1616.244 1034.468,1609.91 C1024.716,1607.791 1029.459,1608.823 1020.238,1606.816 L1318.901,2079.552 L1429.208,2156.445 L1531.532,2074.445 L1860.05,1604.468 z" fill="#31323D"/>
      </g>
      <g id="Shape">
        <path d="M1459.5,1732 L1508.225,2087.713 L1470.517,2177.382 L1377.463,2177.381 L1350.262,2081.654 L1387.5,1732.5 z" fill="#D70100"/>
        <path d="M1459.5,1732 L1508.225,2087.713 L1470.517,2177.382 L1377.463,2177.381 L1350.262,2081.654 L1387.5,1732.5 L1459.5,1732 z M1450.349,1742.564 L1396.947,1742.935 L1360.919,2080.743 L1385.395,2166.881 L1463.542,2166.882 L1497.433,2086.291 L1450.349,1742.564 z" fill="#31323D"/>
      </g>
      <g>
        <path d="M1423.677,1786.012 L1347.233,1754.042 L1399.599,1667.92 L1455.859,1666.622 L1503.898,1758.37 L1423.677,1786.012 z" fill="#D70100"/>
        <path d="M1455.859,1666.621 L1503.898,1758.37 L1423.677,1786.012 L1347.233,1754.042 L1399.599,1667.92 L1455.859,1666.621 z M1449.582,1677.269 L1405.585,1678.285 L1362.547,1749.066 L1424.038,1774.782 L1488.931,1752.421 L1449.582,1677.269 z" fill="#31323D"/>
      </g>
      <g id="Shape">
        <path d="M1418.269,1662.916 C1418.269,1662.916 1345.5,1785.5 1345.5,1785.5 C1345.5,1785.5 982.946,1627.234 982.946,1627.234 L993,1553.815 L1418.269,1662.916 z" fill="#FFFFFF"/>
        <path d="M993,1553.815 L1418.269,1662.916 C1418.269,1662.916 1345.5,1785.5 1345.5,1785.5 C1345.5,1785.5 982.946,1627.234 982.946,1627.234 L993,1553.815 z M1001.804,1566.914 L994.426,1620.789 C997.192,1621.996 999.959,1623.204 1002.725,1624.412 C1019.72,1631.83 1019.72,1631.83 1043.795,1642.34 C1086.282,1660.887 1128.769,1679.434 1168.423,1696.744 C1219.408,1719 1261.895,1737.547 1293.052,1751.148 C1310.754,1758.875 1324.563,1764.903 1334.122,1769.076 C1336.483,1770.107 1338.843,1771.137 1341.204,1772.167 C1343.416,1768.44 1345.629,1764.714 1347.841,1760.986 C1354.095,1750.452 1362.622,1736.087 1372.855,1718.848 C1380.814,1705.441 1389.342,1691.075 1397.87,1676.71 C1399.276,1674.341 1400.682,1671.973 1402.087,1669.605 L1001.804,1566.914 z" fill="#31323D"/>
      </g>
      <g>
        <path d="M1439.5,1662.916 C1439.5,1662.916 1501,1782.5 1501,1782.5 C1501,1782.5 1906.175,1616.426 1906.175,1616.426 L1899.24,1553.815 L1439.5,1662.916 z" fill="#FFFFFF"/>
        <path d="M1899.24,1553.815 L1906.175,1616.426 C1906.175,1616.426 1501,1782.5 1501,1782.5 L1498.757,1777.027 L1498.169,1776.995 C1478.611,1738.97 1459.058,1700.942 1439.5,1662.916 L1899.24,1553.815 z M1510.325,1777.675 C1510.331,1777.684 1510.331,1777.684 1510.333,1777.69 L1510.334,1777.691 L1510.332,1777.686 L1510.328,1777.679 L1510.325,1777.675 z M1890.111,1566.773 L1454.969,1670.037 C1456.128,1672.291 1457.288,1674.545 1458.447,1676.799 C1465.654,1690.813 1472.861,1704.826 1479.587,1717.906 C1479.588,1717.906 1479.588,1717.906 1479.588,1717.906 C1488.236,1734.723 1495.443,1748.736 1500.728,1759.013 C1502.463,1762.385 1504.197,1765.758 1505.932,1769.131 C1508.764,1767.97 1511.596,1766.809 1514.428,1765.648 C1525.111,1761.269 1540.542,1754.944 1560.326,1746.835 C1595.146,1732.563 1642.627,1713.101 1699.605,1689.747 C1743.921,1671.583 1791.402,1652.121 1838.884,1632.659 C1865.79,1621.631 1865.79,1621.631 1884.782,1613.846 C1888.144,1612.469 1891.505,1611.091 1894.867,1609.713 L1890.111,1566.773 z" fill="#31323D"/>
      </g>
    </g>
    <g id="Jacket">
      <g>
        <path d="M977,1584 C918.799,1960.61 832.362,2064.054 1002.319,2245.479 C1270.292,2274.394 1705.834,2261.91 1940.23,2242.149 C2170.21,2023.064 1956.185,1748.498 1922.896,1589.544 C1837.684,1579.319 1895.811,1565.948 1895.811,1565.948 L1424.275,2124.005 z" fill="#808080"/>
        <path d="M977,1584 C918.799,1960.61 832.362,2064.054 1002.319,2245.479 C1270.292,2274.394 1705.834,2261.91 1940.23,2242.149 C2170.21,2023.064 1956.185,1748.498 1922.896,1589.544 C1837.684,1579.319 1895.811,1565.948 1895.811,1565.948 L1424.275,2124.005 z" fill-opacity="0" stroke="#31323D" stroke-width="10.5"/>
      </g>
      <g id="Shape" display="none">
        <path d="M1436.25,2170.05 C1434.179,2170.05 1432.5,2168.024 1432.5,2165.525 C1432.5,2163.026 1434.179,2161 1436.25,2161 C1438.321,2161 1440,2163.026 1440,2165.525 C1440,2168.024 1438.321,2170.05 1436.25,2170.05 z" fill="#808080"/>
        <path d="M1436.25,2170.05 C1434.179,2170.05 1432.5,2168.024 1432.5,2165.525 C1432.5,2163.026 1434.179,2161 1436.25,2161 C1438.321,2161 1440,2163.026 1440,2165.525 C1440,2168.024 1438.321,2170.05 1436.25,2170.05 z" fill-opacity="0" stroke="#31323D" stroke-width="10.5"/>
      </g>
      <g id="Shape">
        <path d="M1441.722,2206.587 C1436.629,2206.587 1432.5,2202.991 1432.5,2198.554 C1432.5,2194.118 1436.629,2190.522 1441.722,2190.522 C1446.815,2190.522 1450.944,2194.118 1450.944,2198.554 C1450.944,2202.991 1446.815,2206.587 1441.722,2206.587 z" fill="#31323D"/>
        <path d="M1441.722,2206.587 C1436.629,2206.587 1432.5,2202.991 1432.5,2198.554 C1432.5,2194.118 1436.629,2190.522 1441.722,2190.522 C1446.815,2190.522 1450.944,2194.118 1450.944,2198.554 C1450.944,2202.991 1446.815,2206.587 1441.722,2206.587 z" fill-opacity="0" stroke="#31323D" stroke-width="10.5"/>
      </g>
      <g id="Shape">
        <path d="M1441.326,2170.64 C1436.232,2170.64 1432.103,2167.043 1432.103,2162.607 C1432.103,2158.171 1436.232,2154.574 1441.326,2154.574 C1446.419,2154.574 1450.548,2158.171 1450.548,2162.607 C1450.548,2167.043 1446.419,2170.64 1441.326,2170.64 z" fill="#31323D"/>
        <path d="M1441.326,2170.64 C1436.232,2170.64 1432.103,2167.043 1432.103,2162.607 C1432.103,2158.171 1436.232,2154.574 1441.326,2154.574 C1446.419,2154.574 1450.548,2158.171 1450.548,2162.607 C1450.548,2167.043 1446.419,2170.64 1441.326,2170.64 z" fill-opacity="0" stroke="#31323D" stroke-width="10.5"/>
      </g>
      <path d="M1431.948,2228.629 L1453.276,2228.632" fill-opacity="0" stroke="#31323D" stroke-width="7.5" stroke-linecap="square" stroke-linejoin="round"/>
      <g>
        <path d="M1424.705,2126.073 L1424.275,2261.34" fill="#808080"/>
        <path d="M1424.705,2126.073 L1424.275,2261.34" fill-opacity="0" stroke="#31323D" stroke-width="10.5"/>
      </g>
      <g>
        <path d="M1612.678,1991.8 L1723.714,1991.8 L1723.714,2010.773 L1612.678,2010.773 z" fill="#808080"/>
        <path d="M1612.678,1991.8 L1723.714,1991.8 L1723.714,2010.773 L1612.678,2010.773 z" fill-opacity="0" stroke="#31323D" stroke-width="10.5"/>
      </g>
      <path d="M894.079,2122.196 C897.233,2119.329 895.513,2122.196 902.395,2116.748 C898.094,2153.739 980.218,2254.222 1009.13,2256.087 C1038.042,2257.952 973.221,2257.541 972.074,2256.968 C915.872,2253.813 895.513,2134.813 894.079,2122.196 z" fill="#505050" fill-opacity="0.453" id="Shape" opacity="0.5"/>
      <path d="M967.422,1668.009 C991.096,1704.835 1009.151,1677.413 1009.151,1677.413 C1009.151,1677.413 884.38,2048.912 1060.035,2248.97 C1035.033,2245.097 1026.065,2243.773 1008.305,2245.154 C833.791,2080.069 924.684,1915.083 967.422,1668.009 z" fill="#505050" fill-opacity="0.453" id="Shape" opacity="0.5"/>
      <g id="Jacket_collar">
        <path d="M1902.998,1537.806 C1902.998,1537.806 1944.588,1618.53 1944.588,1618.53 C1944.588,1618.53 1880.04,1694.675 1880.04,1694.675 C1880.04,1694.675 1847.365,1673.311 1847.365,1673.311 C1847.365,1673.311 1857.419,1716.039 1857.419,1716.039 C1857.419,1716.039 1423.231,2113.796 1423.231,2113.796 C1423.231,2113.796 1024.22,1709.755 1024.22,1709.755 C1024.22,1709.755 1033.645,1668.912 1033.645,1668.912 C1033.645,1668.912 999.714,1689.648 999.714,1689.648 C999.714,1689.648 954.472,1641.893 954.472,1641.893 C954.472,1641.893 993,1553.815 993,1553.815 C993,1553.815 1423.376,2113.796 1423.376,2113.796 C1423.376,2113.796 1902.998,1537.806 1902.998,1537.806 z" fill="#808080"/>
        <path d="M1905.073,1518.906 L1912.332,1532.997 C1912.657,1533.628 1912.657,1533.628 1914.119,1536.466 C1916.069,1540.25 1916.069,1540.25 1918.831,1545.61 C1925.329,1558.223 1925.329,1558.223 1933.127,1573.359 C1940.925,1588.495 1940.925,1588.495 1947.423,1601.108 C1950.185,1606.468 1950.185,1606.468 1952.135,1610.252 C1953.597,1613.09 1953.597,1613.09 1953.922,1613.721 L1957.138,1619.963 L1952.597,1625.319 C1952.093,1625.914 1952.093,1625.914 1949.824,1628.591 C1946.798,1632.161 1946.798,1632.161 1942.512,1637.217 C1932.426,1649.115 1932.426,1649.115 1920.323,1663.392 C1908.221,1677.669 1908.221,1677.669 1898.135,1689.567 C1893.849,1694.623 1893.849,1694.623 1890.823,1698.193 C1888.554,1700.87 1888.554,1700.87 1888.049,1701.465 L1882.054,1708.537 L1874.294,1703.463 C1873.273,1702.796 1873.273,1702.796 1869.188,1700.125 C1867.326,1698.907 1865.464,1697.69 1863.602,1696.472 C1864.424,1699.968 1865.247,1703.463 1866.069,1706.958 C1867.326,1712.299 1867.326,1712.299 1867.64,1713.634 L1869.05,1719.625 L1864.512,1723.781 C1863.664,1724.558 1863.664,1724.558 1859.636,1728.248 C1854.124,1733.298 1854.124,1733.298 1845.855,1740.873 C1825.503,1759.517 1825.503,1759.517 1796.67,1785.931 C1748.171,1830.36 1699.673,1874.789 1651.175,1919.218 C1600.172,1965.942 1549.167,2012.665 1498.165,2059.389 C1469.332,2085.803 1469.332,2085.803 1448.98,2104.448 C1440.712,2112.022 1440.712,2112.022 1435.199,2117.072 C1433.952,2118.214 1432.705,2119.357 1431.458,2120.499 L1431.444,2120.515 L1423.047,2130.6 L1415.957,2121.374 L1415.759,2121.174 C1414.98,2120.385 1414.98,2120.385 1411.278,2116.637 C1406.213,2111.507 1406.213,2111.507 1398.615,2103.813 C1379.911,2084.874 1379.911,2084.874 1353.414,2058.043 C1291.069,1994.911 1291.069,1994.911 1216.254,1919.154 C1141.44,1843.396 1141.44,1843.396 1079.094,1780.265 C1052.597,1753.434 1052.597,1753.434 1033.894,1734.495 C1026.295,1726.801 1026.295,1726.801 1021.23,1721.671 C1017.528,1717.923 1017.528,1717.923 1016.748,1717.134 L1012.689,1713.023 L1013.988,1707.394 C1014.283,1706.118 1014.283,1706.118 1015.461,1701.013 C1016.239,1697.643 1017.016,1694.274 1017.794,1690.905 C1015.359,1692.392 1012.925,1693.88 1010.491,1695.368 C1006.249,1697.96 1006.249,1697.96 1005.189,1698.608 L997.937,1703.04 L992.091,1696.869 C991.738,1696.496 991.738,1696.496 990.147,1694.817 C988.027,1692.579 988.027,1692.579 985.022,1689.408 C980.337,1684.462 975.651,1679.516 970.965,1674.57 C965.283,1668.572 959.601,1662.574 953.919,1656.576 C950.914,1653.405 950.914,1653.405 948.794,1651.166 C947.203,1649.488 947.203,1649.488 946.85,1649.114 L942.063,1644.062 L944.852,1637.685 C945.153,1636.997 945.153,1636.997 946.508,1633.901 C948.314,1629.772 948.314,1629.772 950.872,1623.923 C955.068,1614.331 959.264,1604.739 963.46,1595.147 C968.093,1584.554 972.727,1573.962 977.36,1563.369 C979.919,1557.52 979.919,1557.52 981.724,1553.391 C983.079,1550.295 983.079,1550.295 983.38,1549.607 L990.5,1533.331 L1001.325,1547.417 C1002.166,1548.51 1002.166,1548.51 1006.159,1553.705 C1011.622,1560.814 1011.622,1560.814 1019.818,1571.478 C1039.992,1597.727 1039.992,1597.727 1068.571,1634.914 C1135.818,1722.411 1135.818,1722.411 1216.513,1827.407 C1297.209,1932.404 1297.209,1932.404 1364.455,2019.901 C1393.034,2057.087 1393.034,2057.087 1413.208,2083.336 C1416.707,2087.888 1420.206,2092.441 1423.704,2096.993 C1427.775,2092.104 1431.845,2087.216 1435.916,2082.328 C1458.398,2055.328 1458.398,2055.328 1490.248,2017.079 C1543.821,1952.742 1597.394,1888.404 1650.968,1824.067 C1707.308,1756.406 1763.649,1688.747 1819.988,1621.086 C1851.838,1582.837 1851.838,1582.837 1874.321,1555.837 C1883.454,1544.868 1883.454,1544.868 1889.543,1537.556 C1893.993,1532.212 1893.993,1532.212 1894.929,1531.087 L1905.073,1518.906 z M1902.998,1537.806 C1743.28,1729.616 1583.561,1921.425 1423.843,2113.235 L1423.316,2113.718 L1423.376,2113.796 C1423.59,2113.539 1423.434,2113.726 1423.843,2113.235 C1568.369,1980.837 1712.893,1848.437 1857.419,1716.039 C1857.419,1716.039 1847.365,1673.311 1847.365,1673.311 C1847.365,1673.311 1880.04,1694.675 1880.04,1694.675 C1880.04,1694.675 1944.588,1618.53 1944.588,1618.53 C1944.588,1618.53 1902.998,1537.806 1902.998,1537.806 z M993,1553.815 C993,1553.815 954.472,1641.893 954.472,1641.893 C954.472,1641.893 999.714,1689.648 999.714,1689.648 C999.714,1689.648 1033.645,1668.912 1033.645,1668.912 C1033.645,1668.912 1024.22,1709.755 1024.219,1709.755 C1024.22,1709.755 1423.231,2113.796 1423.23,2113.796 C1423.257,2113.772 1423.283,2113.748 1423.31,2113.724 C1423.312,2113.722 1423.314,2113.72 1423.316,2113.718 C1279.874,1927.087 1136.444,1740.445 993,1553.815 z" fill="#31323D"/>
      </g>
      <path d="M993,1553.815 L1026.196,1598.068 C1026.196,1598.068 996.571,1665.857 999.714,1689.648 C982.525,1666.793 954.472,1641.893 954.472,1641.893 z" fill="#505050" fill-opacity="0.453" opacity="0.5"/>
      <path d="M2040.956,2106.628 C2043.527,2106.628 2067.118,2114.962 2067.118,2114.962 C2067.118,2114.962 2066.283,2162.115 2048.188,2191.117 C2033.137,2223.669 1997.803,2244.971 1997.803,2244.971 C1997.803,2244.971 2044.301,2173.697 2040.956,2106.628 z" fill="#A1A1A1" fill-opacity="0.961" opacity="0.5"/>
      <path d="M1854.541,1596.359 L1902.998,1537.806 L1944.588,1618.53 C1944.588,1618.53 1905.086,1662.937 1906.175,1661.897 C1885.594,1610.959 1854.541,1596.359 1854.541,1596.359 z" fill="#A1A1A1" fill-opacity="0.961" id="Shape" opacity="0.5"/>
      <path d="M1890.475,1698.698 C1890.475,1698.698 1919.251,1662.093 1934.542,1647.2 C2096.171,2005.08 2049.914,2111.83 1938.564,2237.282 C1919.528,2238.036 1929.026,2237.019 1913.745,2237.725 C2128.869,2026.916 1890.475,1698.698 1890.475,1698.698 z" fill="#A1A1A1" fill-opacity="0.961" opacity="0.5"/>
      <g id="Shape" display="none">
        <path d="M1710.976,1980.467 C1673.007,2104.778 1668.031,2220.073 1693.682,2283.504 C1754.144,2261.987 1812.703,2254.824 1875.053,2265.214 C1929.159,2088.416 1987.029,1970.325 1959.167,1897.119 C1920.302,1795.003 1766.607,1798.334 1710.976,1980.467 z" fill="#808080"/>
        <path d="M1710.976,1980.467 C1673.007,2104.778 1668.031,2220.073 1693.682,2283.504 C1754.144,2261.987 1812.703,2254.824 1875.053,2265.214 C1929.159,2088.416 1987.029,1970.325 1959.167,1897.119 C1920.302,1795.003 1766.607,1798.334 1710.976,1980.467 z" fill-opacity="0" stroke="#31323D" stroke-width="10.5"/>
      </g>
      <g>
        <path d="M1928.342,2045.026 C1881.924,2097.128 1896.024,2171.218 1876.849,2275.336 C1852.935,2267.4 1755.94,2272.108 1695.478,2293.625 C1680.935,2255.989 1708.276,2055.029 1679.036,2038.87" fill="#808080"/>
        <path d="M1928.342,2045.026 C1881.924,2097.128 1896.024,2171.218 1876.849,2275.336 C1852.935,2267.4 1755.94,2272.108 1695.478,2293.625 C1680.935,2255.989 1708.276,2055.029 1679.036,2038.87" fill-opacity="0" stroke="#31323D" stroke-width="10.5" stroke-linecap="round"/>
      </g>
      <path d="M1687.208,2039.507 C1700.476,2045.443 1705.68,2049.879 1714.092,2074.073 C1722.504,2098.266 1717.933,2224.904 1730.544,2277.472 C1717.212,2278.361 1707.459,2283.211 1699.608,2287.715 C1688.954,2148.79 1711.648,2108.987 1687.208,2039.507 z" fill="#505050" fill-opacity="0.453" id="Shape" opacity="0.5"/>
      <path d="M1886.931,2070.679 C1899.312,2052.326 1900.985,2052.894 1922.382,2041.187 C1906.485,2060.394 1889.591,2073.093 1874.05,2266.198 C1858.788,2266.314 1868.794,2265.202 1856.558,2265.84 C1859.564,2214.018 1874.55,2089.031 1886.931,2070.679 z" fill="#A1A1A1" fill-opacity="0.961" id="Shape" opacity="0.5"/>
      <path d="M1697.158,2048.689 C1698.466,2214.154 1771.715,2258.3 1771.715,2258.3 C1771.715,2258.3 1721.684,2263.205 1697.812,2277.593 C1667.728,2197.477 1688.329,2098.721 1697.158,2048.689 z" fill="#505050" fill-opacity="0.453" id="Shape" opacity="0.5" display="none"/>
      <path d="M1825.254,1840.83 C1848.93,1835.223 1868.245,1830.55 1901.89,1843.011 C1965.13,1876.656 1978.215,1927.124 1933.977,2067.624 C1950.489,1930.239 1857.03,1853.914 1825.254,1840.83 z" fill="#A1A1A1" fill-opacity="0.961" opacity="0.5" display="none"/>
      <g id="Shape" display="none">
        <path d="M1201.507,2001.671 C1239.477,2125.982 1234.519,2236.464 1208.868,2299.895 C1148.406,2278.378 1089.848,2271.216 1027.497,2281.605 C973.391,2104.807 948.075,1990.288 975.937,1917.082 C1014.802,1814.966 1145.877,1819.538 1201.507,2001.671 z" fill="#808080"/>
        <path d="M1201.507,2001.671 C1239.477,2125.982 1234.519,2236.464 1208.868,2299.895 C1148.406,2278.378 1089.848,2271.216 1027.497,2281.605 C973.391,2104.807 948.075,1990.288 975.937,1917.082 C1014.802,1814.966 1145.877,1819.538 1201.507,2001.671 z" fill-opacity="0" stroke="#31323D" stroke-width="10.5"/>
      </g>
      <g id="Shape">
        <path d="M983.446,2051.296 C1029.863,2103.397 1015.763,2177.487 1034.938,2281.605 C1058.853,2273.67 1155.847,2278.378 1216.309,2299.895 C1230.852,2262.258 1203.511,2061.299 1232.751,2045.14" fill="#808080"/>
        <path d="M983.446,2051.296 C1029.863,2103.397 1015.763,2177.487 1034.938,2281.605 C1058.853,2273.67 1155.847,2278.378 1216.309,2299.895 C1230.852,2262.258 1203.511,2061.299 1232.751,2045.14" fill-opacity="0" stroke="#31323D" stroke-width="10.5" stroke-linecap="round"/>
      </g>
      <path d="M991.325,2052.118 C980.381,2037.416 1014.893,2055.159 1029.718,2084.809 C1044.543,2114.459 1062.457,2214.603 1068.086,2272.67 C1054.754,2273.559 1054.754,2270.3 1038.46,2275.04 C1022.165,2140.537 1029.718,2103.696 991.325,2052.118 z" fill="#505050" fill-opacity="0.453" id="Shape" opacity="0.5"/>
      <path d="M1201.602,2073.91 C1208.516,2061.858 1212.791,2055.979 1224.815,2043.688 C1204.775,2062.659 1219.239,2237.895 1211.948,2290.808 C1204.229,2288.554 1199.781,2288.375 1188.527,2285.029 C1191.533,2233.206 1194.688,2085.962 1201.602,2073.91 z" fill="#A1A1A1" fill-opacity="0.961" id="Shape" opacity="0.5"/>
      <path d="M978.143,2076.544 C1014.313,2172.071 1059.14,2264.197 1096.237,2271.307 C1059.449,2270.689 1032.154,2275.281 1031.007,2274.708 C1031.007,2274.708 1000.092,2186.292 978.143,2076.544 z" fill="#505050" fill-opacity="0.453" id="Shape" opacity="0.5" display="none"/>
      <path d="M1002,1881.913 C1045.095,1845.732 1072.302,1854.168 1105.948,1866.63 C1179.149,1902.315 1210.564,2058.478 1210.564,2058.478 C1210.564,2058.478 1080.813,1867.997 1002,1881.913 z" fill="#A1A1A1" fill-opacity="0.961" opacity="0.5" display="none"/>
    </g>
  </g>
</svg>
