<?xml version="1.0" encoding="UTF-8"?>
<!DOCTYPE svg PUBLIC "-//W3C//DTD SVG 1.1//EN" "http://www.w3.org/Graphics/SVG/1.1/DTD/svg11.dtd">
<svg version="1.1" xmlns="http://www.w3.org/2000/svg" xmlns:xlink="http://www.w3.org/1999/xlink" x="0" y="0" width="3000" height="3000" viewBox="0, 0, 3000, 3000">
  <g id="Teacup&amp;saucer">
    <g id="Shape">
      <path d="M642.011,2553.248 C453.863,2553.248 330.767,2483.429 330.767,2443.238 C330.767,2403.048 496.773,2406.115 684.921,2406.115 C873.068,2406.115 1052.048,2403.048 1052.048,2443.238 C1052.048,2483.429 919.159,2553.982 731.011,2553.982 z" fill="#808080"/>
      <path d="M642.011,2553.248 C453.863,2553.248 330.767,2483.429 330.767,2443.238 C330.767,2403.048 496.773,2406.115 684.921,2406.115 C873.068,2406.115 1052.048,2403.048 1052.048,2443.238 C1052.048,2483.429 919.159,2553.982 731.011,2553.982 z" fill-opacity="0" stroke="#31323D" stroke-width="10"/>
    </g>
    <path d="M663.782,2565.61 C480.526,2573.512 330.139,2537.485 327.882,2485.141 C325.625,2432.797 472.353,2383.958 655.608,2376.056 C838.863,2368.154 989.251,2404.182 991.508,2456.526 C993.765,2508.87 847.037,2557.708 663.782,2565.61 z" fill="#31323D" fill-opacity="0.377" id="Shape"/>
    <g id="Shape">
      <path d="M691.408,2539.242 C492.231,2539.242 330.767,2496.26 330.767,2443.238 C330.767,2390.217 492.231,2347.234 691.408,2347.234 C890.584,2347.234 1052.048,2390.217 1052.048,2443.238 C1052.048,2496.26 890.584,2539.242 691.408,2539.242 z" fill="#FFFFFF"/>
      <path d="M691.408,2539.242 C492.231,2539.242 330.767,2496.26 330.767,2443.238 C330.767,2390.217 492.231,2347.234 691.408,2347.234 C890.584,2347.234 1052.048,2390.217 1052.048,2443.238 C1052.048,2496.26 890.584,2539.242 691.408,2539.242 z" fill-opacity="0" stroke="#31323D" stroke-width="10"/>
    </g>
    <g id="Shape">
      <path d="M846.915,2185.337 C885.954,2182.606 919.961,2214.127 922.873,2255.742 C925.785,2297.357 896.498,2333.307 857.459,2336.039 C818.42,2338.77 784.412,2307.249 781.501,2265.634 C778.589,2224.019 807.876,2188.069 846.915,2185.337 z M848.694,2210.765 C824.47,2212.46 806.396,2236.186 808.325,2263.757 C810.254,2291.329 831.456,2312.306 855.68,2310.611 C879.904,2308.916 897.978,2285.191 896.049,2257.619 C894.119,2230.048 872.918,2209.07 848.694,2210.765 z" fill="#FFFFFF"/>
      <path d="M846.915,2185.337 C885.954,2182.606 919.961,2214.127 922.873,2255.742 C925.785,2297.357 896.498,2333.307 857.459,2336.039 C818.42,2338.77 784.412,2307.249 781.501,2265.634 C778.589,2224.019 807.876,2188.069 846.915,2185.337 z M848.694,2210.765 C824.47,2212.46 806.396,2236.186 808.325,2263.757 C810.254,2291.329 831.456,2312.306 855.68,2310.611 C879.904,2308.916 897.978,2285.191 896.049,2257.619 C894.119,2230.048 872.918,2209.07 848.694,2210.765 z" fill-opacity="0" stroke="#31323D" stroke-width="10"/>
    </g>
    <g>
      <path d="M683.493,2484.197 C618.898,2484.197 566.533,2469.581 566.533,2451.552 C566.533,2433.522 618.898,2418.906 683.493,2418.906 C748.089,2418.906 800.454,2433.522 800.454,2451.552 C800.454,2469.581 748.089,2484.197 683.493,2484.197 z" fill="#FFFFFF"/>
      <path d="M683.493,2484.197 C618.898,2484.197 566.533,2469.581 566.533,2451.552 C566.533,2433.522 618.898,2418.906 683.493,2418.906 C748.089,2418.906 800.454,2433.522 800.454,2451.552 C800.454,2469.581 748.089,2484.197 683.493,2484.197 z" fill-opacity="0" stroke="#31323D" stroke-width="10" stroke-linecap="round" stroke-linejoin="round"/>
    </g>
    <path d="M623.215,2499.381 C526.05,2499.788 447.184,2476.517 447.062,2447.403 C446.94,2418.289 525.608,2394.357 622.773,2393.95 C719.937,2393.542 798.803,2416.813 798.926,2445.927 C799.048,2475.041 720.379,2498.973 623.215,2499.381 z" fill="#31323D" fill-opacity="0.377"/>
    <g>
      <path d="M882.45,2185.172 C882.587,2189.967 882.496,2186.346 882.565,2196.039 C882.39,2292.179 831.286,2427.958 769.322,2454.242 C711.447,2472.349 667.641,2472.933 598.569,2454.242 C529.213,2422.117 485.387,2293.345 484.421,2196.039 C484.491,2186.346 484.4,2189.967 484.537,2185.172 L882.45,2185.172 z" fill="#FFFFFF"/>
      <path d="M882.45,2185.172 C882.587,2189.967 882.496,2186.346 882.565,2196.039 C882.39,2292.179 831.286,2427.958 769.322,2454.242 C711.447,2472.349 667.641,2472.933 598.569,2454.242 C529.213,2422.117 485.387,2293.345 484.421,2196.039 C484.491,2186.346 484.4,2189.967 484.537,2185.172 L882.45,2185.172 z" fill-opacity="0" stroke="#31323D" stroke-width="10"/>
    </g>
    <g id="Shape">
      <path d="M683.493,2239.644 C573.549,2239.644 484.422,2215.256 484.422,2185.172 C484.422,2155.089 573.549,2130.701 683.493,2130.701 C793.438,2130.701 882.565,2155.089 882.565,2185.172 C882.565,2215.256 793.438,2239.644 683.493,2239.644 z" fill="#FFFFFF"/>
      <path d="M683.493,2239.644 C573.549,2239.644 484.422,2215.256 484.422,2185.172 C484.422,2155.089 573.549,2130.701 683.493,2130.701 C793.438,2130.701 882.565,2155.089 882.565,2185.172 C882.565,2215.256 793.438,2239.644 683.493,2239.644 z" fill-opacity="0" stroke="#31323D" stroke-width="10"/>
    </g>
    <g id="Shape">
      <path d="M683.493,2239.644 C587.624,2239.644 509.908,2222.537 509.908,2201.436 C509.908,2180.334 587.624,2163.228 683.493,2163.228 C779.363,2163.228 857.081,2180.334 857.081,2201.436 C857.081,2222.537 779.363,2239.644 683.493,2239.644 z" fill="#C57F15" fill-opacity="0.736"/>
      <path d="M683.493,2239.644 C587.624,2239.644 509.908,2222.537 509.908,2201.436 C509.908,2180.334 587.624,2163.228 683.493,2163.228 C779.363,2163.228 857.081,2180.334 857.081,2201.436 C857.081,2222.537 779.363,2239.644 683.493,2239.644 z" fill-opacity="0" stroke="#31323D" stroke-width="10"/>
    </g>
    <path d="M677.288,1914.508 L677.057,1913.224 L676.483,1910.636 L675.792,1908.869 L675.027,1907.973 L674.249,1907.103 L673.448,1906.251 L672.628,1905.42 L671.785,1904.606 L670.921,1903.813 L670.035,1903.044 L669.103,1902.323 L668.151,1901.624 L667.18,1900.947 L666.19,1900.295 L665.181,1899.667 L664.154,1899.064 L663.108,1898.487 L662.044,1897.935 L660.963,1897.412 L659.858,1896.922 L658.727,1896.47 L657.579,1896.049 L656.413,1895.657 L655.231,1895.297 L654.032,1894.968 L652.817,1894.673 L651.582,1894.41 L650.333,1894.182 L649.065,1893.99 L647.781,1893.834 L647.096,1893.767 L647.096,1893.767 C647.065,1893.765 647.034,1893.763 647.003,1893.762 L647.003,1893.762 L646.402,1893.713 L644.994,1893.662 L643.495,1893.672 L641.968,1893.746 L640.414,1893.884 L638.836,1894.089 L637.237,1894.36 L635.617,1894.703 L633.979,1895.118 L632.317,1895.614 L630.63,1896.197 L628.912,1896.879 L627.153,1897.679 L625.345,1898.616 L623.48,1899.715 L621.546,1901.01 L620.292,1901.941 L620.292,1901.941 C620.156,1902.046 620.021,1902.152 619.888,1902.26 L619.888,1902.26 L619.544,1902.535 L618.477,1903.427 L617.292,1904.485 L616.127,1905.604 L614.989,1906.784 L613.891,1908.017 L612.846,1909.298 L611.87,1910.611 L610.978,1911.937 L610.177,1913.263 L609.476,1914.572 L608.877,1915.849 L608.218,1917.533 L607.592,1919.702 L607.233,1921.82 L607.136,1923.747 L607.246,1925.524 L607.528,1927.182 L607.953,1928.747 L608.506,1930.244 L609.172,1931.687 L609.943,1933.093 L610.811,1934.467 L611.772,1935.819 L612.819,1937.153 L613.948,1938.471 L615.154,1939.779 L616.434,1941.077 L617.783,1942.367 L619.195,1943.649 L620.669,1944.926 L622.202,1946.193 L623.789,1947.451 L625.423,1948.705 L627.102,1949.954 L628.818,1951.198 L631.45,1953.05 L635.057,1955.505 L638.745,1957.943 L642.471,1960.357 L646.198,1962.744 L649.892,1965.1 L653.517,1967.42 L656.163,1969.135 L657.882,1970.265 L659.565,1971.386 L661.204,1972.496 L662.793,1973.594 L664.328,1974.681 L665.804,1975.754 L667.216,1976.814 L668.559,1977.86 L669.827,1978.89 L671.016,1979.901 L672.121,1980.894 L673.136,1981.864 L674.055,1982.81 L674.873,1983.727 L675.583,1984.614 L676.18,1985.461 L676.661,1986.258 L677.021,1986.992 L677.261,1987.643 L677.303,1987.83 L677.265,1987.696 L677.39,1988.172 L677.596,1989.032 L677.762,1989.845 L677.898,1990.639 L677.998,1991.416 L678.069,1992.174 L678.113,1992.911 L678.132,1993.625 L678.126,1994.315 L678.098,1994.983 L678.047,1995.626 L677.959,1996.256 L677.777,1997.218 L677.447,1998.415 L677.076,1999.433 L676.668,2000.34 L676.227,2001.142 L675.772,2001.849 L675.311,2002.474 L674.84,2003.041 L674.352,2003.571 L673.825,2004.087 L673.245,2004.605 L672.607,2005.146 L671.901,2005.715 L671.117,2006.32 L670.245,2006.965 L669.286,2007.648 L668.225,2008.344 L667.079,2009.062 L665.855,2009.804 L664.551,2010.568 L663.178,2011.351 L661.733,2012.152 L659.385,2013.402 L656.111,2015.038 L652.718,2016.68 L649.165,2018.374 L645.478,2020.128 L641.672,2021.967 L637.763,2023.959 L633.751,2026.101 L630.601,2027.871 L628.406,2029.162 L626.266,2030.503 L624.094,2031.92 L621.885,2033.423 L619.638,2035.025 L617.348,2036.741 L615.018,2038.585 L612.65,2040.573 L610.244,2042.723 L607.858,2045.085 L605.496,2047.634 L603.171,2050.346 L600.921,2053.208 L598.784,2056.201 L596.806,2059.286 L595.025,2062.424 L593.474,2065.565 L592.171,2068.671 L591.142,2071.696 L590.629,2073.514 L590.629,2073.514 C590.544,2073.833 590.468,2074.148 590.402,2074.459 L590.402,2074.459 L590.324,2074.828 L589.977,2077.239 L589.944,2079.825 L590.255,2081.992 L590.81,2083.8 L591.539,2085.322 L592.389,2086.612 L593.333,2087.728 L594.35,2088.702 L595.427,2089.566 L596.56,2090.343 L597.748,2091.049 L598.984,2091.696 L600.269,2092.292 L601.597,2092.845 L602.975,2093.363 L604.393,2093.848 L605.857,2094.304 L607.361,2094.735 L608.908,2095.143 L610.49,2095.529 L612.104,2095.895 L613.756,2096.244 L615.44,2096.576 L617.15,2096.893 L618.888,2097.196 L621.519,2097.624 L625.109,2098.156 L628.775,2098.651 L632.475,2099.114 L636.188,2099.549 L639.884,2099.962 L643.542,2100.359 L647.14,2100.747 L650.645,2101.128 L654.038,2101.498 L656.497,2101.757 L658.081,2101.931 L659.623,2102.109 L661.117,2102.29 L662.558,2102.473 L663.979,2102.611 L665.335,2102.754 L666.624,2102.903 L667.846,2103.059 L668.986,2103.219 L670.046,2103.386 L671.011,2103.569 L671.879,2103.759 L672.642,2103.949 L673.301,2104.136 L673.839,2104.312 L674.248,2104.473 L674.508,2104.613 L674.469,2104.599 L674.26,2104.468 L674.611,2104.692 L674.968,2104.959 L675.15,2105.149 L675.259,2105.32 L675.302,2105.461 L675.297,2105.564 L675.256,2105.617 L675.193,2105.618 L675.116,2105.562 L675.027,2105.465 L674.937,2105.321 L674.862,2105.135 L674.806,2104.914 L674.77,2104.671 L674.753,2104.423 L674.751,2104.178 L674.757,2103.954 L674.766,2103.756 L674.793,2103.598 L674.807,2103.49 L674.798,2103.438 L674.758,2103.448 L674.68,2103.524 L674.565,2103.658 L674.223,2104.14 L673.67,2104.892 L673.044,2105.698 L672.247,2106.692 L671.288,2107.851 L670.185,2109.151 L668.23,2111.398 L666.157,2113.738 L664.685,2115.389 L663.114,2117.158 L661.49,2119.003 L659.816,2120.935 L658.481,2122.508 L657.539,2123.64 L656.637,2124.747 L655.724,2125.892 L654.796,2127.087 L653.854,2128.339 L652.898,2129.656 L651.932,2131.045 L650.957,2132.517 L649.981,2134.082 L649.01,2135.756 L648.063,2137.537 L647.164,2139.428 L646.343,2141.42 L645.841,2142.84 L645.841,2142.84 C645.776,2143.038 645.713,2143.236 645.655,2143.433 L645.655,2143.433 L645.48,2144.013 L645.01,2145.724 L644.57,2147.573 L644.216,2149.372 L643.948,2151.114 L643.761,2152.801 L643.653,2154.431 L643.62,2156 L643.658,2157.513 L643.763,2158.966 L643.932,2160.364 L644.158,2161.702 L644.44,2162.99 L644.772,2164.226 L645.151,2165.411 L645.574,2166.55 L646.036,2167.646 L646.534,2168.698 L647.068,2169.713 L647.63,2170.688 L648.222,2171.631 L648.839,2172.539 L649.779,2173.809 L651.117,2175.436 L652.552,2177.006 L654.039,2178.495 L655.568,2179.916 L657.123,2181.278 L658.696,2182.594 L661.048,2184.488 L664.483,2186.619 L667.278,2187.874 L669.069,2188.694 L670.816,2189.529 L672.845,2190.024 L675.03,2190.32 L677.141,2190.654 L679.175,2191.037 L680.63,2191.339 L681.578,2191.539 L682.718,2191.598 L683.838,2191.678 L684.939,2191.781 L686.021,2191.907 L686.542,2191.955 L686.542,2191.955 C687.915,2194.662 692.605,2193.819 697.019,2190.073 C701.432,2186.327 703.897,2181.095 702.524,2178.388 L702.62,2177.598 L702.805,2176.075 L702.953,2174.564 L703.065,2173.065 L703.144,2171.578 L702.982,2170.263 L702.685,2168.347 L702.235,2165.868 L701.712,2163.438 L701.134,2161.054 L700.295,2158.943 L699.088,2157.232 L697.861,2155.555 L696.058,2153.128 L693.34,2150.408 L691.157,2148.652 L689.783,2147.507 L688.479,2146.371 L687.258,2145.246 L686.127,2144.127 L685.093,2143.017 L684.137,2141.877 L683.484,2141.009 L683.104,2140.459 L682.754,2139.916 L682.433,2139.374 L682.144,2138.843 L681.883,2138.315 L681.653,2137.796 L681.451,2137.284 L681.278,2136.783 L681.133,2136.293 L681.014,2135.813 L680.92,2135.343 L680.85,2134.889 L680.802,2134.446 L680.774,2134.016 L680.766,2133.594 L680.776,2133.183 L680.803,2132.778 L680.847,2132.375 L680.908,2131.976 L680.986,2131.572 L681.14,2130.972 L681.319,2130.375 L681.132,2130.968 L680.8,2131.87 L680.395,2132.788 L680.006,2133.556 L679.661,2134.167 L679.378,2134.624 L679.173,2134.928 L679.049,2135.097 L679.007,2135.141 L679.047,2135.073 L679.167,2134.903 L679.365,2134.64 L679.637,2134.293 L679.974,2133.874 L680.322,2133.451 L681.008,2132.636 L682.17,2131.29 L683.513,2129.764 L685.007,2128.082 L686.668,2126.216 L689.349,2123.184 L692.118,2119.985 L694.094,2117.635 L696.12,2115.146 L698.182,2112.505 L700.258,2109.705 L702.216,2106.891 L703.615,2104.733 L704.583,2103.128 L705.524,2101.483 L706.433,2099.79 L707.299,2098.056 L708.11,2096.291 L708.853,2094.499 L709.492,2092.694 L710.038,2090.89 L710.484,2089.096 L710.816,2087.329 L711.028,2085.6 L711.114,2083.929 L711.071,2082.328 L710.9,2080.808 L710.612,2079.374 L710.215,2078.023 L709.705,2076.772 L709.088,2075.618 L708.373,2074.559 L707.568,2073.588 L706.688,2072.696 L705.734,2071.875 L704.806,2071.184 L704.457,2070.949 L704.457,2070.949 C704.388,2070.905 704.318,2070.861 704.247,2070.818 L704.247,2070.818 L703.643,2070.466 L702.64,2069.951 L701.615,2069.483 L700.554,2069.054 L699.455,2068.659 L698.31,2068.289 L697.124,2067.94 L695.895,2067.602 L694.629,2067.267 L693.317,2066.943 L691.967,2066.63 L690.57,2066.324 L689.133,2066.025 L687.659,2065.731 L686.111,2065.495 L684.528,2065.265 L682.911,2065.04 L681.26,2064.818 L678.74,2064.493 L675.287,2064.094 L671.759,2063.711 L668.187,2063.326 L664.588,2062.936 L660.992,2062.534 L657.429,2062.117 L653.918,2061.679 L650.49,2061.217 L647.154,2060.725 L644.731,2060.333 L643.178,2060.062 L641.669,2059.784 L640.21,2059.497 L638.801,2059.202 L637.445,2058.896 L636.153,2058.583 L634.927,2058.263 L633.769,2057.936 L632.683,2057.602 L631.675,2057.264 L630.752,2056.925 L629.915,2056.585 L629.175,2056.253 L628.533,2055.933 L627.994,2055.632 L627.562,2055.362 L627.239,2055.137 L627.027,2054.98 L626.922,2054.92 L626.906,2054.988 L626.962,2055.241 L627.041,2055.733 L627.079,2056.534 L626.984,2057.703 L626.792,2058.645 L626.874,2058.259 L626.647,2059.204 L626.546,2059.477 L626.495,2059.454 L626.372,2059.573 L626.195,2059.784 L625.974,2060.049 L625.734,2060.313 L625.507,2060.535 L625.33,2060.676 L625.234,2060.713 L625.249,2060.63 L625.381,2060.401 L625.628,2060 L626.037,2059.472 L626.602,2058.836 L627.32,2058.103 L628.182,2057.286 L629.179,2056.398 L630.301,2055.449 L631.535,2054.446 L632.787,2053.413 L634.929,2051.731 L638.158,2049.321 L641.646,2046.8 L645.334,2044.146 L649.178,2041.41 L653.13,2038.597 L657.158,2035.697 L661.161,2032.737 L664.138,2030.494 L666.168,2028.939 L668.198,2027.342 L670.221,2025.702 L672.238,2024.009 L674.24,2022.262 L676.227,2020.46 L678.208,2018.608 L680.161,2016.681 L682.079,2014.674 L683.944,2012.588 L685.739,2010.429 L687.448,2008.2 L689.056,2005.92 L690.542,2003.602 L691.877,2001.265 L693.046,1998.931 L694.039,1996.619 L694.854,1994.342 L695.505,1992.106 L695.987,1989.915 L696.296,1987.834 L696.449,1986.293 L696.514,1985.23 L696.558,1984.163 L696.566,1983.102 L696.537,1982.044 L696.473,1980.991 L696.373,1979.941 L696.237,1978.892 L696.066,1977.843 L695.868,1976.789 L695.635,1975.734 L695.375,1974.705 L695.243,1974.229 L695.243,1974.229 C695.231,1974.184 695.218,1974.139 695.204,1974.095 L695.204,1974.095 L694.96,1973.358 L694.448,1972.139 L693.827,1970.973 L693.106,1969.844 L692.289,1968.737 L691.383,1967.644 L690.393,1966.554 L689.32,1965.469 L688.168,1964.383 L686.941,1963.297 L685.642,1962.206 L684.277,1961.112 L682.847,1960.012 L681.359,1958.906 L679.816,1957.794 L678.223,1956.676 L676.583,1955.551 L674.901,1954.42 L673.181,1953.283 L671.426,1952.139 L668.742,1950.414 L665.093,1948.097 L661.388,1945.766 L657.664,1943.419 L653.963,1941.06 L650.32,1938.692 L646.768,1936.312 L644.185,1934.524 L642.518,1933.335 L640.897,1932.148 L639.326,1930.963 L637.809,1929.779 L636.35,1928.603 L634.954,1927.437 L633.626,1926.275 L632.374,1925.122 L631.203,1923.979 L630.116,1922.848 L629.119,1921.73 L628.217,1920.632 L627.414,1919.556 L626.714,1918.507 L626.121,1917.496 L625.637,1916.53 L625.261,1915.624 L624.991,1914.794 L624.818,1914.066 L624.725,1913.467 L624.683,1913.029 L624.649,1912.792 L624.626,1912.619 L624.608,1912.554 L624.527,1912.669 L624.419,1912.819 L624.288,1912.991 L624.142,1913.166 L623.99,1913.33 L623.85,1913.467 L623.737,1913.561 L623.664,1913.604 L623.648,1913.591 L623.696,1913.52 L623.947,1913.289 L624.295,1913.003 L623.891,1913.322 L623.605,1913.508 L623.706,1913.387 L623.997,1913.168 L624.454,1912.889 L625.055,1912.573 L625.776,1912.24 L626.597,1911.912 L627.497,1911.599 L628.46,1911.31 L629.469,1911.052 L630.513,1910.83 L631.576,1910.647 L632.649,1910.505 L633.723,1910.407 L634.782,1910.353 L635.878,1910.347 L636.505,1910.363 L636.412,1910.357 L636.911,1910.375 L637.98,1910.44 L639.047,1910.536 L640.113,1910.664 L641.172,1910.821 L642.23,1911.009 L643.282,1911.227 L644.326,1911.474 L645.364,1911.75 L646.394,1912.055 L647.415,1912.387 L648.436,1912.736 L649.452,1913.106 L650.457,1913.503 L651.451,1913.924 L652.433,1914.372 L653.402,1914.843 L654.359,1915.339 L655.3,1915.857 L656.228,1916.399 L657.141,1916.962 L658.063,1917.521 L658.971,1918.097 L659.863,1918.693 L660.739,1919.31 L661.596,1919.945 L662.435,1920.598 L663.246,1921.26 L664.841,1921.893 L667.163,1922.617 L668.313,1923.033 C669.396,1924.365 672.284,1923.537 674.762,1921.183 C677.241,1918.829 678.372,1915.841 677.288,1914.508 L677.288,1914.508" fill="#31323D" id="Shape" opacity="0.337"/>
    <path d="M490.55,2204.491 C490.55,2204.491 504.22,2213.28 531.089,2223.347 C520.799,2259.952 565.029,2406.242 609.031,2453.066 C566.286,2437.668 537.688,2388.958 520.419,2346.341 C490.119,2277.383 490.55,2204.491 490.55,2204.491 z" fill="#31323D" fill-opacity="0.377" id="Shape"/>
    <path d="M525.613,2405.562 L513.672,2442.513 L489.032,2425.012 L498.791,2401.361 L525.613,2405.562 z" fill="#31323D" fill-opacity="0.254"/>
    <g id="Shape">
      <path d="M496.282,2396.533 L532.571,2402.98 L515.623,2449.72 L476.942,2446.497 z" fill="#C0C0C0"/>
      <path d="M496.282,2396.533 L532.571,2402.98 L515.623,2449.72 L476.942,2446.497 z" fill-opacity="0" stroke="#31323D" stroke-width="10" stroke-linecap="round" stroke-linejoin="round"/>
    </g>
    <path d="M547.74,2224.603 C496.477,2137.635 556.309,2406.062 510.96,2406.062" fill-opacity="0" stroke="#31323D" stroke-width="10" stroke-linecap="round" stroke-linejoin="round"/>
  </g>
</svg>
