<?xml version="1.0" encoding="UTF-8"?>
<!DOCTYPE svg PUBLIC "-//W3C//DTD SVG 1.1//EN" "http://www.w3.org/Graphics/SVG/1.1/DTD/svg11.dtd">
<svg version="1.1" xmlns="http://www.w3.org/2000/svg" xmlns:xlink="http://www.w3.org/1999/xlink" x="0" y="0" width="3000" height="3000" viewBox="0, 0, 3000, 3000">
  <g id="Tuxedo">
    <g id="Pants_and_belt">
      <g id="Shape">
        <path d="M1192.138,2236.073 L1185.714,2293.609 L1710.902,2293.625 L1710.821,2239.612 L1192.138,2236.073 z" fill="#31323D"/>
        <path d="M1192.138,2236.073 L1185.714,2293.609 L1710.902,2293.625 L1710.821,2239.612 L1192.138,2236.073 z" fill-opacity="0" stroke="#000000" stroke-width="10.5"/>
      </g>
      <g id="Shape">
        <path d="M1858.008,2232.976 C1858.008,2231.501 1854.379,2263.148 1855.527,2275.823 C1868.154,2278.74 1889.391,2267.628 1942.809,2236.073 C1975.623,2193.156 1915.219,2255.25 1915.219,2255.25 C1915.219,2255.25 1947.971,2261.365 1979.146,2262.478 C2067.429,2219.334 2071.996,2147.082 2072.478,2113.523 C2046.782,2099.506 2021.342,2097.926 2021.342,2097.926 C2021.342,2097.926 1858.008,2234.45 1858.008,2232.976 z" fill="#31323D"/>
        <path d="M1858.008,2232.976 C1858.008,2231.501 1854.379,2263.148 1855.527,2275.823 C1868.154,2278.74 1889.391,2267.628 1942.809,2236.073 C1975.623,2193.156 1915.219,2255.25 1915.219,2255.25 C1915.219,2255.25 1947.971,2261.365 1979.146,2262.478 C2067.429,2219.334 2071.996,2147.082 2072.478,2113.523 C2046.782,2099.506 2021.342,2097.926 2021.342,2097.926 C2021.342,2097.926 1858.008,2234.45 1858.008,2232.976 z" fill-opacity="0" stroke="#000000" stroke-width="10.5"/>
      </g>
      <g id="Shape">
        <path d="M927.175,2097.926 C927.759,2097.926 906.154,2110.773 889.546,2120.912 C909.657,2262.007 969.995,2262.478 969.995,2262.478 L1016.811,2261.34 L992.106,2224.937 C992.106,2224.937 1018.981,2279.35 1044.315,2275.642 C1052.133,2260.255 1052.24,2243.025 1052.24,2243.025 L1022.937,2138.801 L927.175,2097.926 z" fill="#31323D"/>
        <path d="M927.175,2097.926 C927.759,2097.926 906.154,2110.773 889.546,2120.912 C909.657,2262.007 969.995,2262.478 969.995,2262.478 L1016.811,2261.34 L992.106,2224.937 C992.106,2224.937 1018.981,2279.35 1044.315,2275.642 C1052.133,2260.255 1052.24,2243.025 1052.24,2243.025 L1022.937,2138.801 L927.175,2097.926 z" fill-opacity="0" stroke="#000000" stroke-width="10.5"/>
      </g>
      <g id="Belt">
        <path d="M1197.429,2260.819 C1192.948,2262.611 1705.15,2270.229 1704.253,2257.682 C1703.357,2245.135 1703.357,2260.819 1706.494,2269.333 C1697.98,2273.366 1196.533,2276.055 1196.981,2267.989 C1197.429,2259.923 1201.911,2259.026 1197.429,2260.819 z" fill="#808080"/>
        <path d="M1197.429,2260.819 C1192.948,2262.611 1705.15,2270.229 1704.253,2257.682 C1703.357,2245.135 1703.357,2260.819 1706.494,2269.333 C1697.98,2273.366 1196.533,2276.055 1196.981,2267.989 C1197.429,2259.923 1201.911,2259.026 1197.429,2260.819 z" fill-opacity="0" stroke="#31323D" stroke-width="10.5"/>
      </g>
      <g id="Belt_buckle">
        <path d="M1394.179,2250.72 L1454.802,2250.72 C1456.182,2250.72 1457.302,2251.756 1457.302,2253.033 L1457.302,2275.683 C1457.302,2276.96 1456.182,2277.996 1454.802,2277.996 L1394.179,2277.996 C1392.798,2277.996 1391.679,2276.96 1391.679,2275.683 L1391.679,2253.033 C1391.679,2251.756 1392.798,2250.72 1394.179,2250.72 z" fill="#3C3D4B"/>
        <path d="M1394.179,2250.72 L1454.802,2250.72 C1456.182,2250.72 1457.302,2251.756 1457.302,2253.033 L1457.302,2275.683 C1457.302,2276.96 1456.182,2277.996 1454.802,2277.996 L1394.179,2277.996 C1392.798,2277.996 1391.679,2276.96 1391.679,2275.683 L1391.679,2253.033 C1391.679,2251.756 1392.798,2250.72 1394.179,2250.72 z" fill-opacity="0" stroke="#31323D" stroke-width="10.5"/>
      </g>
    </g>
    <g id="Shirt_and_bowtie">
      <g id="Shape">
        <path d="M997.957,1591.207 C997.957,1591.207 1257.824,1648.166 1259.347,1645.119 C1260.871,1642.071 1383.449,1679.474 1383.449,1679.474 L1474.719,1681.275 L1884.229,1588.205 L1539.274,2081.696 L1429.646,2169.55 L1311.157,2086.954 L997.957,1591.207 z" fill="#FFFFFF"/>
        <path d="M1884.229,1588.204 L1539.274,2081.696 L1429.646,2169.55 L1311.157,2086.954 L997.957,1591.207 C997.957,1591.207 1257.824,1648.166 1259.347,1645.119 C1260.871,1642.071 1383.449,1679.474 1383.449,1679.474 L1474.719,1681.275 L1884.229,1588.204 z M1860.05,1604.468 L1477.046,1691.514 C1476.214,1691.703 1475.364,1691.79 1474.511,1691.773 L1383.242,1689.972 C1382.273,1689.953 1381.312,1689.8 1380.385,1689.517 C1380.332,1689.5 1380.332,1689.5 1380.064,1689.419 C1379.693,1689.306 1379.693,1689.306 1379.12,1689.131 C1378.084,1688.816 1376.88,1688.451 1375.52,1688.038 C1371.635,1686.86 1367.287,1685.548 1362.584,1684.134 C1349.147,1680.094 1335.552,1676.055 1322.645,1672.287 C1321.235,1671.876 1319.84,1671.469 1318.46,1671.068 C1301.327,1666.087 1287.017,1662.062 1276.495,1659.299 C1270.622,1657.757 1266.034,1656.636 1262.91,1655.985 C1261.816,1655.765 1262.236,1655.841 1261.653,1655.738 C1260.477,1655.838 1259.291,1655.762 1258.114,1655.726 C1257.203,1655.696 1256.157,1655.597 1254.871,1655.436 C1252.728,1655.167 1249.76,1654.699 1245.938,1654.032 C1238.88,1652.801 1228.835,1650.88 1216.022,1648.32 C1193.544,1643.83 1163.03,1637.473 1126.471,1629.698 C1124.595,1629.299 1122.705,1628.897 1120.802,1628.491 C1093.047,1622.579 1063.646,1616.244 1034.468,1609.91 C1024.716,1607.791 1029.459,1608.823 1020.238,1606.816 L1318.901,2079.552 L1429.208,2156.445 L1531.532,2074.445 L1860.05,1604.468 z" fill="#31323D"/>
      </g>
      <g id="Shape">
        <path d="M1277.097,1603.005 C1277.097,1603.005 1277.098,1650.306 1277.097,1650.305 C1277.097,1650.305 985.222,1584.489 985.222,1584.489 C985.222,1584.489 999.106,1548.058 999.643,1548.166 C1014.569,1551.182 1277.097,1603.005 1277.097,1603.005 z" fill="#FFFFFF"/>
        <path d="M999.643,1548.166 C1014.569,1551.182 1277.097,1603.005 1277.097,1603.005 C1277.097,1603.005 1277.098,1650.306 1277.097,1650.305 C1277.097,1650.305 985.222,1584.489 985.222,1584.489 C985.222,1584.489 999.106,1548.058 999.643,1548.166 z M1005.937,1560.127 C1004.681,1563.263 1003.453,1566.411 1002.225,1569.558 C1002.113,1569.846 1002.113,1569.846 1002.001,1570.134 C999.546,1576.47 1000.417,1574.208 999.375,1576.916 L1000.073,1577.074 C1013.755,1580.159 1013.755,1580.159 1033.137,1584.53 C1067.342,1592.242 1101.546,1599.955 1133.47,1607.154 C1174.515,1616.409 1208.719,1624.122 1233.802,1629.778 C1244.734,1632.243 1255.665,1634.709 1266.597,1637.174 L1266.597,1611.635 C1264.638,1611.248 1265.799,1611.477 1263.113,1610.947 C1253.608,1609.071 1243.015,1606.979 1231.608,1604.727 C1199.016,1598.292 1166.424,1591.855 1136.005,1585.847 C1135.933,1585.833 1135.933,1585.833 1135.862,1585.818 C1092.555,1577.249 1049.238,1568.725 1005.937,1560.127 z" fill="#31323D"/>
      </g>
      <g>
        <path d="M1521.096,1617.426 C1521.096,1617.426 1509.941,1668.464 1509.942,1668.463 C1509.942,1668.463 1910.455,1601.275 1910.455,1601.275 L1905.263,1548.173 L1521.096,1617.426 z" fill="#FFFFFF"/>
        <path d="M1905.263,1548.173 L1910.455,1601.275 C1910.455,1601.275 1509.942,1668.463 1509.941,1668.463 C1509.941,1668.464 1521.096,1617.426 1521.096,1617.426 L1905.263,1548.173 z M1895.921,1560.526 L1529.857,1626.516 C1529.857,1626.517 1529.856,1626.518 1529.856,1626.519 C1529.774,1626.893 1529.693,1627.268 1529.611,1627.642 C1527.868,1635.617 1527.868,1635.617 1525.776,1645.186 L1525.776,1645.186 C1525.022,1648.637 1524.268,1652.089 1523.514,1655.54 C1524.518,1655.371 1523.885,1655.477 1525.414,1655.221 C1535.974,1653.449 1551.228,1650.89 1570.784,1647.61 C1605.203,1641.836 1652.138,1633.962 1708.46,1624.514 C1708.46,1624.514 1708.46,1624.514 1708.461,1624.514 C1752.267,1617.165 1799.202,1609.291 1846.137,1601.418 C1872.734,1596.956 1872.734,1596.956 1891.508,1593.806 C1894.022,1593.385 1896.536,1592.963 1899.051,1592.541 L1895.921,1560.526 z" fill="#31323D"/>
      </g>
      <g>
        <path d="M1428.068,1675.042 L1456.141,1675.042 C1459.455,1675.042 1462.141,1679.889 1462.141,1685.87 L1462.141,2081.598 C1462.141,2087.578 1459.455,2092.426 1456.141,2092.426 L1428.068,2092.426 C1424.755,2092.426 1422.068,2087.578 1422.068,2081.598 L1422.068,1685.87 C1422.068,1679.889 1424.755,1675.042 1428.068,1675.042 z" fill="#FFFFFF"/>
        <path d="M1428.068,1675.042 L1456.141,1675.042 C1459.455,1675.042 1462.141,1679.889 1462.141,1685.87 L1462.141,2081.598 C1462.141,2087.578 1459.455,2092.426 1456.141,2092.426 L1428.068,2092.426 C1424.755,2092.426 1422.068,2087.578 1422.068,2081.598 L1422.068,1685.87 C1422.068,1679.889 1424.755,1675.042 1428.068,1675.042 z" fill-opacity="0" stroke="#31323D" stroke-width="10" stroke-linejoin="round"/>
      </g>
      <path d="M1441,1774.5 L1441,1774.5" fill-opacity="0" stroke="#31323D" stroke-width="10" stroke-linecap="round" stroke-linejoin="round"/>
      <path d="M1441,1843.667 L1441,1843.667" fill-opacity="0" stroke="#31323D" stroke-width="10" stroke-linecap="round" stroke-linejoin="round"/>
      <path d="M1441,1912.833 L1441,1912.833" fill-opacity="0" stroke="#31323D" stroke-width="10" stroke-linecap="round" stroke-linejoin="round"/>
      <path d="M1441,1982 L1441,1982" fill-opacity="0" stroke="#31323D" stroke-width="10" stroke-linecap="round" stroke-linejoin="round"/>
      <g id="Bow_tie_band">
        <path d="M1283.443,1642.23 C1283.443,1642.23 1286.327,1670.494 1286.327,1670.494 L990.414,1611.081 C986.195,1592.787 999.066,1584.489 999.066,1584.489 z" fill="#31323D"/>
        <path d="M999.128,1574.489 L1001.056,1574.688 L1285.432,1632.429 C1289.722,1633.301 1292.947,1636.86 1293.391,1641.214 C1293.481,1642.098 1293.481,1642.098 1293.841,1645.631 C1294.292,1650.047 1294.292,1650.047 1294.833,1655.347 C1295.374,1660.646 1295.374,1660.646 1295.824,1665.063 C1296.185,1668.596 1296.185,1668.596 1296.275,1669.479 C1296.959,1676.178 1290.96,1681.624 1284.358,1680.298 L988.445,1620.885 C984.594,1620.112 981.552,1617.156 980.67,1613.328 C977.919,1601.403 980.404,1591.175 986.288,1583.254 C987.767,1581.263 989.36,1579.566 990.982,1578.141 C992.039,1577.213 992.952,1576.532 993.648,1576.084 C995.425,1574.865 997.018,1574.782 999.128,1574.489 z M999.066,1584.489 C999.066,1584.489 986.195,1592.787 990.414,1611.081 L1286.327,1670.494 C1286.327,1670.494 1283.443,1642.23 1283.442,1642.23 L999.066,1584.489 z" fill="#000000"/>
      </g>
      <g id="Bow_tie_band">
        <path d="M1582.816,1644.537 L1905.263,1584.489 C1910.748,1582.912 1899.255,1586.165 1900.831,1591.65 L1902.671,1595.331 C1904.247,1600.816 1901.846,1611.633 1896.361,1613.209 L1586.277,1669.34 C1586.277,1669.34 1582.816,1644.537 1582.816,1644.537 z" fill="#31323D"/>
        <path d="M1906.873,1574.092 C1907.611,1574.111 1907.611,1574.111 1908.838,1574.312 C1910.464,1574.698 1910.464,1574.698 1913.108,1576.371 C1916.021,1579.542 1916.021,1579.542 1916.758,1584.142 C1916.234,1587.69 1916.234,1587.69 1915.255,1589.373 C1913.774,1591.303 1913.774,1591.303 1913.063,1591.867 C1912.361,1592.398 1912.642,1592.212 1912.247,1592.465 L1912.282,1592.569 C1915.412,1603.46 1910.529,1619.542 1899.123,1622.82 C1898.8,1622.913 1898.473,1622.989 1898.143,1623.049 L1588.058,1679.181 C1582.468,1680.193 1577.158,1676.349 1576.373,1670.722 C1576.265,1669.947 1576.265,1669.947 1575.832,1666.847 C1575.292,1662.971 1575.292,1662.971 1574.643,1658.321 C1573.994,1653.67 1573.994,1653.67 1573.453,1649.794 C1573.02,1646.694 1573.02,1646.694 1572.912,1645.919 C1572.173,1640.624 1575.73,1635.685 1580.985,1634.706 L1902.964,1574.745 C1903.392,1574.62 1903.821,1574.5 1904.255,1574.394 C1904.585,1574.315 1904.893,1574.251 1905.291,1574.194 C1905.809,1574.122 1905.809,1574.122 1906.873,1574.092 z M1906.756,1584.094 C1906.248,1584.183 1905.757,1584.346 1905.263,1584.489 L1582.816,1644.537 C1582.816,1644.537 1586.277,1669.34 1586.277,1669.34 L1896.361,1613.209 C1901.846,1611.633 1904.247,1600.816 1902.671,1595.331 L1900.831,1591.65 C1900.097,1587.736 1903.982,1585.811 1906.756,1584.094 z" fill="#000000"/>
      </g>
      <g>
        <path d="M1403.663,1630.715 L1272.514,1596.946 L1274.87,1746.943 L1397.38,1710.033 z" fill="#31323D"/>
        <path d="M1271.472,1586.994 C1274.218,1587.035 1273.047,1586.879 1275.007,1587.262 L1406.156,1621.031 C1410.861,1622.242 1414.015,1626.661 1413.631,1631.505 L1407.349,1710.822 C1407.023,1714.931 1404.211,1718.419 1400.265,1719.608 L1277.754,1756.518 C1271.398,1758.433 1264.975,1753.737 1264.871,1747.1 L1262.515,1597.103 C1262.757,1591.178 1265.923,1588.227 1271.472,1586.994 z M1272.514,1596.946 L1274.87,1746.943 L1397.38,1710.033 L1403.662,1630.715 L1272.514,1596.946 z" fill="#000000"/>
      </g>
      <g>
        <path d="M1481.053,1630.715 L1612.202,1596.946 L1609.846,1746.943 L1487.336,1710.033 z" fill="#31323D"/>
        <path d="M1613.244,1586.994 C1618.544,1587.823 1621.969,1591.78 1622.201,1597.103 L1619.845,1747.1 C1619.741,1753.737 1613.318,1758.433 1606.962,1756.518 L1484.451,1719.607 C1480.505,1718.419 1477.693,1714.931 1477.367,1710.822 L1471.085,1631.505 C1470.701,1626.661 1473.854,1622.242 1478.56,1621.031 L1609.709,1587.262 C1611.669,1586.879 1610.498,1587.035 1613.244,1586.994 z M1612.202,1596.946 L1481.053,1630.715 L1487.336,1710.033 L1609.846,1746.943 L1612.202,1596.946 z" fill="#000000"/>
      </g>
      <g id="Shape">
        <path d="M1406.608,1647.375 L1284.401,1611.48 L1285.771,1729.303 L1405.512,1693.682 z" fill="#31323D"/>
        <path d="M1283.635,1601.501 C1286.424,1601.626 1285.239,1601.431 1287.219,1601.885 L1409.427,1637.78 C1413.768,1639.055 1416.713,1643.087 1416.605,1647.611 L1415.509,1693.918 C1415.407,1698.254 1412.521,1702.03 1408.364,1703.267 L1288.623,1738.887 C1282.258,1740.781 1275.849,1736.059 1275.772,1729.419 L1274.402,1611.596 C1274.681,1605.566 1277.962,1602.61 1283.635,1601.501 z M1284.401,1611.48 L1285.771,1729.303 L1405.512,1693.682 L1406.608,1647.375 L1284.401,1611.48 z" fill="#000000"/>
      </g>
      <g id="Shape">
        <path d="M1474.288,1643.812 L1597.865,1613.398 L1596.495,1726.563 L1469.904,1690.668 z" fill="#31323D"/>
        <path d="M1597.19,1603.441 C1598.415,1603.458 1597.817,1603.454 1598.984,1603.454 C1604.234,1604.314 1607.618,1608.242 1607.864,1613.519 L1606.494,1726.684 C1606.415,1733.268 1600.103,1737.98 1593.767,1736.183 L1467.176,1700.288 C1462.538,1698.973 1459.498,1694.536 1459.947,1689.736 L1464.332,1642.881 C1464.728,1638.642 1467.765,1635.12 1471.898,1634.102 L1595.475,1603.688 C1596.045,1603.566 1596.609,1603.465 1597.19,1603.441 z M1597.865,1613.398 L1474.288,1643.812 L1469.904,1690.668 L1596.495,1726.562 L1597.865,1613.398 z" fill="#000000"/>
      </g>
      <g id="Shape">
        <path d="M1414.28,1624.701 L1466.052,1624.701 C1473.127,1624.701 1478.861,1633.503 1478.861,1644.361 L1478.861,1704.733 C1478.861,1715.591 1473.127,1724.393 1466.052,1724.393 L1414.28,1724.393 C1407.205,1724.393 1401.47,1715.591 1401.47,1704.733 L1401.47,1644.361 C1401.47,1633.503 1407.205,1624.701 1414.28,1624.701 z" fill="#31323D"/>
        <path d="M1466.052,1614.701 C1479.772,1614.701 1488.861,1628.651 1488.861,1644.361 L1488.861,1704.733 C1488.861,1720.443 1479.772,1734.393 1466.052,1734.393 L1414.279,1734.393 C1400.56,1734.393 1391.47,1720.443 1391.47,1704.733 L1391.47,1644.361 C1391.47,1628.651 1400.56,1614.701 1414.279,1614.701 L1466.052,1614.701 z M1466.052,1624.701 L1414.279,1624.701 C1407.205,1624.701 1401.47,1633.503 1401.47,1644.361 L1401.47,1704.733 C1401.47,1715.591 1407.205,1724.393 1414.279,1724.393 L1466.052,1724.393 C1473.127,1724.393 1478.861,1715.591 1478.861,1704.733 L1478.861,1644.361 C1478.861,1633.503 1473.127,1624.701 1466.052,1624.701 z" fill="#000000"/>
      </g>
      <g>
        <path d="M1602.967,1584.989 L1496.212,1614.042 L1629.449,1655.934 z" fill="#FFFFFF"/>
        <path d="M1602.967,1584.989 L1496.212,1614.042 L1629.449,1655.934 z" fill-opacity="0" stroke="#31323D" stroke-width="10" stroke-linejoin="round"/>
      </g>
      <g>
        <path d="M1284.269,1591.022 L1391.025,1620.076 L1258.778,1655.934 z" fill="#FFFFFF"/>
        <path d="M1284.269,1591.022 L1391.025,1620.076 L1258.778,1655.934 z" fill-opacity="0" stroke="#31323D" stroke-width="10" stroke-linejoin="round"/>
      </g>
      <g id="Cummerbund_">
        <path d="M1126.005,2008.554 L1763.115,2008.554 C1768.914,2008.554 1773.615,2013.255 1773.615,2019.054 L1773.615,2111.34 C1773.615,2117.139 1768.914,2121.84 1763.115,2121.84 L1126.005,2121.84 C1120.206,2121.84 1115.505,2117.139 1115.505,2111.34 L1115.505,2019.054 C1115.505,2013.255 1120.206,2008.554 1126.005,2008.554 z" fill="#31323D"/>
        <path d="M1763.115,1998.554 C1774.437,1998.554 1783.615,2007.732 1783.615,2019.054 L1783.615,2111.34 C1783.615,2122.661 1774.437,2131.84 1763.115,2131.84 L1126.005,2131.84 C1114.683,2131.84 1105.505,2122.661 1105.505,2111.34 L1105.505,2019.054 C1105.505,2007.732 1114.683,1998.554 1126.005,1998.554 L1763.115,1998.554 z M1763.115,2008.554 L1126.005,2008.554 C1120.206,2008.554 1115.505,2013.255 1115.505,2019.054 L1115.505,2111.34 C1115.505,2117.139 1120.206,2121.84 1126.005,2121.84 L1763.115,2121.84 C1768.914,2121.84 1773.615,2117.139 1773.615,2111.34 L1773.615,2019.054 C1773.615,2013.255 1768.914,2008.554 1763.115,2008.554 z" fill="#000000"/>
      </g>
      <g id="Cummerbund_">
        <path d="M1112.215,2035.427 L1749.326,2035.427 C1755.125,2035.427 1759.826,2036.39 1759.826,2037.577 L1759.826,2056.474 C1759.826,2057.661 1755.125,2058.624 1749.326,2058.624 L1112.215,2058.624 C1106.416,2058.624 1101.715,2057.661 1101.715,2056.474 L1101.715,2037.577 C1101.715,2036.39 1106.416,2035.427 1112.215,2035.427 z" fill="#31323D"/>
        <path d="M1749.326,2025.427 C1752.782,2025.427 1756.086,2025.713 1758.756,2026.26 C1760.458,2026.609 1761.966,2027.066 1763.358,2027.74 C1764.553,2028.318 1765.655,2029.043 1766.686,2030.075 C1768.563,2031.953 1769.826,2034.5 1769.826,2037.577 L1769.826,2056.474 C1769.826,2059.551 1768.563,2062.098 1766.686,2063.976 C1765.655,2065.008 1764.553,2065.733 1763.358,2066.312 C1761.966,2066.986 1760.458,2067.443 1758.756,2067.791 C1756.086,2068.338 1752.782,2068.624 1749.326,2068.624 L1112.215,2068.624 C1108.76,2068.624 1105.455,2068.338 1102.785,2067.791 C1101.083,2067.443 1099.575,2066.986 1098.183,2066.312 C1096.988,2065.733 1095.886,2065.008 1094.855,2063.976 C1092.979,2062.098 1091.715,2059.551 1091.715,2056.474 L1091.715,2037.577 C1091.715,2034.5 1092.979,2031.953 1094.855,2030.075 C1095.886,2029.043 1096.988,2028.318 1098.183,2027.74 C1099.575,2027.066 1101.083,2026.609 1102.785,2026.26 C1105.455,2025.713 1108.76,2025.427 1112.215,2025.427 L1749.326,2025.427 z M1749.326,2035.427 L1112.215,2035.427 C1106.416,2035.427 1101.715,2036.39 1101.715,2037.577 L1101.715,2056.474 C1101.715,2057.661 1106.416,2058.624 1112.215,2058.624 L1749.326,2058.624 C1755.125,2058.624 1759.826,2057.661 1759.826,2056.474 L1759.826,2037.577 C1759.826,2036.39 1755.125,2035.427 1749.326,2035.427 z" fill="#000000"/>
      </g>
    </g>
    <g id="Jacket">
      <g id="Jacket_body">
        <path d="M977,1584 C918.799,1960.61 832.362,2064.054 1002.319,2245.479 C1270.292,2274.394 1705.834,2261.91 1940.23,2242.149 C2170.21,2023.064 1928.698,1590.766 1928.698,1590.766 C1928.698,1590.766 1890.548,1529.846 1883.656,1624.042 C1876.763,1718.238 1414.555,2120.79 1414.555,2120.79 z" fill="#FFFFFF"/>
        <path d="M977,1584 C918.799,1960.61 832.362,2064.054 1002.319,2245.479 C1270.292,2274.394 1705.834,2261.91 1940.23,2242.149 C2170.21,2023.064 1928.698,1590.766 1928.698,1590.766 C1928.698,1590.766 1890.548,1529.846 1883.656,1624.042 C1876.763,1718.238 1414.555,2120.79 1414.555,2120.79 z" fill-opacity="0" stroke="#31323D" stroke-width="10.5"/>
      </g>
      <g id="Jacket_button">
        <path d="M1439.589,2195.659 C1434.496,2195.659 1430.367,2192.195 1430.367,2187.921 C1430.367,2183.648 1434.496,2180.184 1439.589,2180.184 C1444.682,2180.184 1448.811,2183.648 1448.811,2187.921 C1448.811,2192.195 1444.682,2195.659 1439.589,2195.659 z" fill="#31323D"/>
        <path d="M1439.589,2195.659 C1434.496,2195.659 1430.367,2192.195 1430.367,2187.921 C1430.367,2183.648 1434.496,2180.184 1439.589,2180.184 C1444.682,2180.184 1448.811,2183.648 1448.811,2187.921 C1448.811,2192.195 1444.682,2195.659 1439.589,2195.659 z" fill-opacity="0" stroke="#31323D" stroke-width="10.5"/>
      </g>
      <path d="M1409.716,2126.416 C1386.698,2183.65 1400.677,2228.26 1418.306,2258.152" fill-opacity="0" stroke="#31323D" stroke-width="13" stroke-linecap="round"/>
      <g id="Jacket_pocket">
        <path d="M1612.678,1991.8 L1723.714,1991.8 L1723.714,2010.773 L1612.678,2010.773 z" fill="#FFFFFF"/>
        <path d="M1612.678,1991.8 L1723.714,1991.8 L1723.714,2010.773 L1612.678,2010.773 z" fill-opacity="0" stroke="#31323D" stroke-width="8" stroke-linejoin="round"/>
      </g>
      <path d="M894.079,2122.196 C897.233,2119.329 895.513,2122.196 902.395,2116.748 C898.094,2153.739 980.218,2254.222 1009.13,2256.087 C1038.042,2257.952 973.221,2257.541 972.074,2256.968 C915.872,2253.813 895.513,2134.813 894.079,2122.196 z" fill="#1E1E1E" fill-opacity="0.453" id="Shading"/>
      <path d="M967.422,1668.009 C991.096,1704.835 1009.151,1677.413 1009.151,1677.413 C1009.151,1677.413 884.38,2048.912 1060.035,2248.97 C1035.033,2245.097 1026.065,2243.773 1008.305,2245.154 C833.791,2080.069 924.684,1915.083 967.422,1668.009 z" fill="#505050" fill-opacity="0.453" id="Shading" opacity="0.5"/>
      <g>
        <path d="M1414.555,2120.79 C1414.555,2120.79 1008.28,1802.547 949.718,1630.598 C957.494,1597.696 994.617,1543.35 994.617,1543.35 C994.617,1543.35 1428.663,2106.21 1428.663,2106.21" fill="#31323D"/>
        <path d="M1414.555,2120.79 C1414.555,2120.79 1008.28,1802.547 949.718,1630.598 C957.494,1597.696 994.617,1543.35 994.617,1543.35 C994.617,1543.35 1428.663,2106.21 1428.663,2106.21" fill-opacity="0" stroke="#000000" stroke-width="10.5" stroke-linejoin="round"/>
      </g>
      <g id="Jacket_collar">
        <path d="M1906.441,1543.35 C1906.441,1543.35 1946.771,1584.899 1954.547,1617.801 C1903.701,1792.958 1409.716,2126.416 1409.716,2126.416 C1409.716,2126.416 1906.441,1543.35 1906.441,1543.35 z" fill="#31323D"/>
        <path d="M1906.441,1543.35 C1906.441,1543.35 1946.771,1584.899 1954.547,1617.801 C1903.701,1792.958 1409.716,2126.416 1409.716,2126.416 C1409.716,2126.416 1906.441,1543.35 1906.441,1543.35 z" fill-opacity="0" stroke="#000000" stroke-width="10.5" stroke-linejoin="round"/>
      </g>
      <path d="M994.226,1552.192 L1026.802,1592.586 C1026.802,1592.586 992.402,1672.072 996.05,1705.43 C984.844,1691.357 966.862,1661.387 954.613,1629.593 C963.735,1599.622 994.226,1552.192 994.226,1552.192 z" fill="#505050" fill-opacity="0.453" id="Shading" opacity="0.5"/>
      <path d="M2040.956,2106.628 C2043.527,2106.628 2067.118,2114.962 2067.118,2114.962 C2067.118,2114.962 2066.283,2162.115 2048.188,2191.117 C2033.137,2223.669 1997.803,2244.971 1997.803,2244.971 C1997.803,2244.971 2044.301,2173.697 2040.956,2106.628 z" fill="#A1A1A1" fill-opacity="0.961" id="Shading" opacity="0.201"/>
      <g id="Shape" display="none">
        <path d="M1710.976,1980.467 C1673.007,2104.778 1668.031,2220.073 1693.682,2283.504 C1754.144,2261.987 1812.703,2254.824 1875.053,2265.214 C1929.159,2088.416 1987.029,1970.325 1959.167,1897.119 C1920.302,1795.003 1766.607,1798.334 1710.976,1980.467 z" fill="#FFFFFF"/>
        <path d="M1710.976,1980.467 C1673.007,2104.778 1668.031,2220.073 1693.682,2283.504 C1754.144,2261.987 1812.703,2254.824 1875.053,2265.214 C1929.159,2088.416 1987.029,1970.325 1959.167,1897.119 C1920.302,1795.003 1766.607,1798.334 1710.976,1980.467 z" fill-opacity="0" stroke="#31323D" stroke-width="10.5"/>
      </g>
      <path d="M1697.158,2048.689 C1698.466,2214.154 1771.715,2258.3 1771.715,2258.3 C1771.715,2258.3 1721.684,2263.205 1697.812,2277.593 C1667.728,2197.477 1688.329,2098.721 1697.158,2048.689 z" fill="#505050" fill-opacity="0.453" id="Shading" opacity="0.5" display="none"/>
      <g id="Shape" display="none">
        <path d="M1201.507,2001.671 C1239.477,2125.982 1234.519,2236.464 1208.868,2299.895 C1148.406,2278.378 1089.848,2271.216 1027.497,2281.605 C973.391,2104.807 948.075,1990.288 975.937,1917.082 C1014.802,1814.966 1145.877,1819.538 1201.507,2001.671 z" fill="#FFFFFF"/>
        <path d="M1201.507,2001.671 C1239.477,2125.982 1234.519,2236.464 1208.868,2299.895 C1148.406,2278.378 1089.848,2271.216 1027.497,2281.605 C973.391,2104.807 948.075,1990.288 975.937,1917.082 C1014.802,1814.966 1145.877,1819.538 1201.507,2001.671 z" fill-opacity="0" stroke="#31323D" stroke-width="10.5"/>
      </g>
      <path d="M978.143,2076.544 C1014.313,2172.071 1059.14,2264.197 1096.237,2271.307 C1059.449,2270.689 1032.154,2275.281 1031.007,2274.708 C1031.007,2274.708 1000.092,2186.292 978.143,2076.544 z" fill="#505050" fill-opacity="0.453" id="Shading" opacity="0.5" display="none"/>
      <g>
        <path d="M1926.459,2040.339 C1880.042,2092.441 1894.142,2166.531 1874.966,2270.649 C1851.052,2262.713 1754.058,2267.422 1693.596,2288.939 C1679.053,2251.302 1706.394,2050.342 1677.154,2034.184" fill="#FFFFFF"/>
        <path d="M1926.459,2040.339 C1880.042,2092.441 1894.142,2166.531 1874.966,2270.649 C1851.052,2262.713 1754.058,2267.422 1693.596,2288.939 C1679.053,2251.302 1706.394,2050.342 1677.154,2034.184" fill-opacity="0" stroke="#31323D" stroke-width="10.5" stroke-linecap="round"/>
      </g>
      <g id="Shape">
        <path d="M976.272,2045.026 C1022.69,2097.128 1008.589,2171.218 1027.765,2275.336 C1051.679,2267.4 1148.673,2272.108 1209.135,2293.625 C1223.678,2255.989 1196.338,2055.029 1225.577,2038.87" fill="#FFFFFF"/>
        <path d="M976.272,2045.026 C1022.69,2097.128 1008.589,2171.218 1027.765,2275.336 C1051.679,2267.4 1148.673,2272.108 1209.135,2293.625 C1223.678,2255.989 1196.338,2055.029 1225.577,2038.87" fill-opacity="0" stroke="#31323D" stroke-width="10.5" stroke-linecap="round"/>
      </g>
      <path d="M984.151,2045.849 C973.207,2031.146 1007.719,2048.89 1022.544,2078.54 C1037.369,2108.19 1055.283,2208.333 1060.912,2266.4 C1047.581,2267.289 1047.581,2264.03 1031.286,2268.77 C1014.992,2134.268 1022.544,2097.426 984.151,2045.849 z" fill="#505050" fill-opacity="0.453" id="Shape" opacity="0.5"/>
      <path d="M1685.326,2034.82 C1698.593,2040.756 1703.798,2045.192 1712.21,2069.386 C1720.622,2093.579 1716.051,2220.217 1728.661,2272.785 C1715.329,2273.674 1705.576,2278.524 1697.726,2283.028 C1687.071,2144.103 1709.766,2104.3 1685.326,2034.82 z" fill="#505050" fill-opacity="0.453" id="Shape" opacity="0.5"/>
      <path d="M1194.428,2067.64 C1201.342,2055.588 1205.617,2049.71 1217.641,2037.419 C1197.601,2056.39 1212.065,2231.626 1204.774,2284.538 C1197.055,2282.285 1192.607,2282.105 1181.354,2278.759 C1184.36,2226.937 1187.514,2079.693 1194.428,2067.64 z" fill="#A1A1A1" fill-opacity="0.961" id="Shape" opacity="0.5" display="none"/>
      <path d="M1885.048,2065.992 C1897.429,2047.64 1899.103,2048.207 1920.5,2036.5 C1904.603,2055.707 1887.708,2068.406 1872.167,2261.512 C1856.906,2261.627 1866.912,2260.515 1854.676,2261.153 C1857.682,2209.331 1872.668,2084.345 1885.048,2065.992 z" fill="#A1A1A1" fill-opacity="0.961" id="Shape" opacity="0.5" display="none"/>
    </g>
  </g>
</svg>
