<svg id="scarf" xmlns="http://www.w3.org/2000/svg" width="3000" height="3000" viewBox="0 0 3000 3000">
  <defs>
    <style>
      .cls-1 {
        fill: #31323d;
      }

      .cls-1, .cls-2, .cls-3, .cls-4 {
        fill-rule: evenodd;
      }

      .cls-2 {
        fill: #d8d9e4;
      }

      .cls-3 {
        fill: #e1e2ec;
      }

      .cls-4 {
        fill: #eeeff8;
      }
    </style>
  </defs>
  <path class="cls-1" d="M1008.04,1557.59s-99.116,8.41-57.813,87.08c0,0-16.648,14.74-6.875,44.9,0,0-32.247,27.98,4.706,90.09,0,0,210.652,24.16,327.052,9.25,138.76-17.77,266.87-11.71,316.13-12.92s166.04,7.67,241.19-9.13,114.81-59.66,124.69-100.01-32.54-113.53-57.44-127.94c0,0-9.69,124.36-306.16,159.11-129.38,8.42-239.69-20.36-313.28-37.04S1136.55,1603.16,1008.04,1557.59Z"/>
  <path id="Shape_127_copy" data-name="Shape 127 copy" class="cls-2" d="M1007.85,1569.59s-78.819,2.68-45.592,75.31c0,0-16.194,18.44-6.649,47.87,0,0-29.174,19.54-.18,75,0,0,208.221,24.72,321.911,10.18,135.52-17.34,262.86-3.76,310.97-4.94s161.67-.91,235.07-17.29,108.71-49.76,118.36-89.11-14.01-90.58-38.32-104.63c0,0-22.53,110.12-312.08,144-126.36,8.22-235.27-19.66-307.14-35.94S1133.36,1614.05,1007.85,1569.59Z"/>
  <path class="cls-1" d="M1496.72,1721.46s-188.02,19.99-381.91-42.14c0,0,140.34,75.27,380.74,51.13Z"/>
  <path class="cls-1" d="M1595.23,1719.05s95.34,3.53,157.17-14.48c0,0-84.65,33.64-154.24,23.52Z"/>
  <path class="cls-1" d="M952.375,1638.71s36.5,26.59,76.585,21.23c0,0-58.32-8.94-75.207-43.21Z"/>
  <path class="cls-3" d="M955.975,1733.78c-8.723-13.71-6.84-21.12,9.695-28.85,0,0,49.21-14.58,186.13,33.99,54.96,19.5,127.93,18.06,157.7,16.54,0,0-75.29,25.79-156.98,2.48S964.98,1747.92,955.975,1733.78Z"/>
  <path class="cls-3" d="M1009.66,1584.62s227.08,102.66,384.79,118.2c0,0-131.63,25.34-389.45-79.82C1005,1623,948.1,1585.63,1009.66,1584.62Z"/>
  <path class="cls-3" d="M971.327,1660.84s54.833,11.81,88.533,15.52,67.62,22.47,96.64,36.97c0,0-70.86-19.63-123.75-29.33S955.279,1673.04,971.327,1660.84Z"/>
  <path class="cls-1" d="M948.382,1695.65c24.708-5.6,115.738,10.36,127.988,14.06s-62.49-20.44-124.7-27.01C951.668,1682.7,948.006,1687.14,948.382,1695.65Z"/>
  <path class="cls-3" d="M1909.17,1587.07s43.08,63.7-2.86,113.97-141.37,52.74-176.22,51.18l-55.26-7.89s148.19-30.62,166.25-69.34c0,0-71.11,20.86-162.56,31.39C1678.52,1706.38,1867.79,1672.42,1909.17,1587.07Z"/>
  <path class="cls-4" d="M1855,1662c0-11.5,46.85-49.23,57-40,14.33,13.03,6.5,80.5-67,107-11.22,4.05,60.97-66.23,54-79C1894.46,1641.69,1855,1666.8,1855,1662Z"/>
  <path class="cls-4" d="M980.875,1716.18s-8.972-16.15,21.715-10.66c0,0,63.51,5.02,94.03,20.52C1096.62,1726.04,1013.59,1722.7,980.875,1716.18Z"/>
  <path class="cls-4" d="M1004.35,1595.54s-4.915-13.08,10.39-7.84c0,0,123.34,47.99,148.8,59.4C1163.54,1647.1,1065.27,1634.52,1004.35,1595.54Z"/>
  <g id="knot">
    <path class="cls-1" d="M1505.52,1705.36c-14.4,12.13-18.08,22.14-16.52,42.64,0,0-97.67-1.7-171,59-54.31,44.96-70.81,89.11-86,110,0,0,95.94,26.43,185.77-14.93s90.09-86.03,94.23-92.07c0,0,36.75,5.16,71.58-18.65,0,0,21.39,68.92,98.29,96.09s117.45,15.96,181.68-4.6c0,0-23.57-77.7-106.23-124.64-51.24-30.23-128.27-17.65-148.25-10.85,0,0,.37-21.09-22.45-41.91C1566.34,1686.93,1533.45,1681.85,1505.52,1705.36Z"/>
    <path id="Shape_128_copy" data-name="Shape 128 copy" class="cls-2" d="M1516.43,1707.78c-20.01,11.86-20.19,32.19-18.25,50.71,0,0-96.61-3.65-164.92,49.73-52.79,41.26-69.66,81.68-84.1,101.51,0,0,84.5,18.92,169.91-20.37s81.82-83.44,85.76-89.18c0,0,47.92,8.15,83.4-22.19,0,0,22.9,71.54,96,97.31s103.16,19.28,164.22-.26c0,0-20.73-66.49-99.3-111.03-48.7-28.69-126.93-13.35-145.92-6.89,0,0-1.18-29.15-24.9-46.71C1559.16,1696.2,1541.28,1693.04,1516.43,1707.78Z"/>
    <path class="cls-1" d="M1503.56,1806.58s6.4-46.9-12.46-54.2l2.16-6.97s28.88,8.28,16.74,61.59Z"/>
    <path class="cls-1" d="M1586.05,1779.91s17.07-12.94,15.95-32.91l9.17,1.31s-2.54,30.46-21.13,38.66Z"/>
    <path class="cls-1" d="M1503.13,1769.57s-106.09,27.8-152.03,77.57c0,0,48.83-6.22,58.73-16.06,0,0-24.71,5.61-40.14,8.36,0,0,28.18-30.05,136.42-63.82Z"/>
    <path class="cls-1" d="M1606.89,1759.24s106.58,6.21,161.17,55.6c0,0-33.38,2.96-55.34-2.89,0,0,31.81-.49,41.05-1.35,0,0-38.02-27.61-148-45.38Z"/>
    <path class="cls-3" d="M1523,1718c3.28-8.85,26.42-20.69,53.74,2.75S1593.5,1773,1551,1788c-31.88,11.25,19.25-30.74,3-41S1518,1731.5,1523,1718Z"/>
    <path class="cls-3" d="M1284.69,1895.08s118.66,19.91,189.66-57.96c0,0-102.11,35.36-131.66,22.89-15.03-22.25,22.31-47.65,34.76-56.45C1377.45,1803.56,1302.3,1820.35,1284.69,1895.08Z"/>
    <path class="cls-3" d="M1613.49,1795.35s71.06,110.16,217.31,72.5c0,0-19.83-42.32-57.22-76.93,0,0,23.95,41.39,8.44,49.14C1766.4,1847.87,1708.28,1832.88,1613.49,1795.35Z"/>
    <path class="cls-4" d="M1539,1721c-4.5-10,10.69-10.26,27-4s35.04,33.52,9,52c0,0,6.94-19.18-2-32C1565.41,1726.12,1541.07,1725.59,1539,1721Z"/>
    <path class="cls-4" d="M1664.2,1831.17s47.44,47.77,138.98,32.24C1803.18,1863.41,1725.28,1860.15,1664.2,1831.17Z"/>
    <path class="cls-4" d="M1296.05,1890.26s96.26,9.55,130.63-22.9c0,0-69.02,18.89-93.44,6.5,0,0-18.28-11.3-6.6-36.11C1326.64,1837.75,1298.66,1855.3,1296.05,1890.26Z"/>
  </g>
</svg>
