<?xml version="1.0" encoding="UTF-8"?>
<!DOCTYPE svg PUBLIC "-//W3C//DTD SVG 1.1//EN" "http://www.w3.org/Graphics/SVG/1.1/DTD/svg11.dtd">
<svg version="1.1" xmlns="http://www.w3.org/2000/svg" xmlns:xlink="http://www.w3.org/1999/xlink" x="0" y="0" width="3000" height="3000" viewBox="0, 0, 3000, 3000">
  <defs>
    <linearGradient id="Gradient_1" gradientUnits="userSpaceOnUse" x1="687.12" y1="-2109.823" x2="687.12" y2="-1963.379" gradientTransform="matrix(1, 0, 0, -1, 0, 0)">
      <stop offset="0" stop-color="#BA99B9" stop-opacity="0.598"/>
      <stop offset="0.49" stop-color="#F754FF" stop-opacity="0.844"/>
      <stop offset="1" stop-color="#E43AE9"/>
    </linearGradient>
  </defs>
  <g id="Pink_Martini">
    <path d="M552.804,2242.316 L555.934,2243.586 L541.129,2272.494 C546.735,2271.336 552.385,2270.096 558.15,2269.761 C560.177,2269.644 562.261,2269.615 564.2,2270.217 C568.648,2272.373 561.369,2277.477 556.736,2280.492 L509.822,2361.84 L610.324,2399.914 C602.371,2402.508 605.927,2401.227 599.608,2403.647 L498.196,2366.39 L287.724,2385.737 C280.049,2387.461 266.77,2390.515 261.193,2388.784 C249.699,2384.475 308.212,2354.438 391.886,2321.697 C439.354,2303.912 486.931,2285.293 536.841,2273.483 L552.804,2242.316 z" fill="#31323D" fill-opacity="0.256" id="Shape" display="none"/>
    <path d="M566.048,2484.261 C494.673,2490.557 434.746,2472.239 432.197,2443.346 C429.649,2414.454 485.444,2385.928 556.819,2379.632 C628.194,2373.337 688.121,2391.655 690.67,2420.547 C693.218,2449.44 637.423,2477.965 566.048,2484.261 z" fill="#31323D" fill-opacity="0.256"/>
    <path d="M681.842,2460.106 C630.572,2460.106 571.686,2448.558 579.23,2427.72 C586.389,2407.948 647.672,2379.089 698.546,2385.448 C750.363,2391.926 779.352,2402.094 785.147,2420.503 C791.802,2441.641 733.112,2460.106 681.842,2460.106 z" fill="#31323D" fill-opacity="0.256" id="Shape"/>
    <g id="Shape">
      <path d="M689.959,2464.051 C626.86,2464.051 575.708,2448.699 575.708,2429.761 C575.708,2410.823 628.953,2383.798 692.052,2383.798 C755.151,2383.798 804.21,2410.823 804.21,2429.761 C804.21,2448.699 753.058,2464.051 689.959,2464.051 z" fill="#FFFFFF" fill-opacity="0.357"/>
      <path d="M689.959,2464.051 C626.86,2464.051 575.708,2448.699 575.708,2429.761 C575.708,2410.823 628.953,2383.798 692.052,2383.798 C755.151,2383.798 804.21,2410.823 804.21,2429.761 C804.21,2448.699 753.058,2464.051 689.959,2464.051 z" fill-opacity="0" stroke="#31323D" stroke-width="10" stroke-linecap="round" stroke-linejoin="round"/>
    </g>
    <g>
      <g id="Shape">
        <path d="M849.548,1963.379 C846.747,1970.406 847.892,1967.773 846.303,1971.359 L712.63,2100.605 C704.264,2102.55 694.989,2109.658 686.438,2109.823 C677.901,2109.711 669.956,2102.549 661.61,2100.605 L527.937,1971.359 C526.348,1967.773 527.493,1970.406 524.692,1963.379 L849.548,1963.379 z" fill="url(#Gradient_1)"/>
        <path d="M849.547,1963.379 C846.747,1970.406 847.892,1967.773 846.303,1971.359 L712.63,2100.605 C704.264,2102.55 694.989,2109.658 686.438,2109.823 C677.901,2109.711 669.956,2102.549 661.61,2100.605 L527.937,1971.359 C526.348,1967.773 527.493,1970.406 524.692,1963.379 L849.547,1963.379 z M829.827,1973.379 L544.413,1973.379 L666.787,2091.7 C670.041,2092.69 673.08,2094.264 676.11,2095.784 C676.383,2095.924 676.383,2095.924 676.653,2096.061 C679.786,2097.499 682.886,2099.577 686.414,2099.813 C689.095,2099.608 691.603,2098.477 694.041,2097.424 C694.937,2097.025 695.767,2096.642 697.312,2095.917 C700.643,2094.367 703.965,2092.762 707.482,2091.672 L829.827,1973.379 z" fill="#31323D"/>
      </g>
      <g id="Shape">
        <path d="M689.459,1991.325 C598.919,1991.325 525.521,1973.571 525.521,1951.672 C525.521,1929.772 598.919,1912.019 689.459,1912.019 C780,1912.019 853.397,1929.772 853.397,1951.672 C853.397,1973.571 780,1991.325 689.459,1991.325 z" fill="#AF68BC" fill-opacity="0.994"/>
        <path d="M689.459,1912.019 C780,1912.019 853.397,1929.772 853.397,1951.672 C853.397,1973.571 780,1991.325 689.459,1991.325 C598.919,1991.325 525.521,1973.571 525.521,1951.672 C525.521,1929.772 598.919,1912.019 689.459,1912.019 z M689.459,1922.019 C646.133,1922.019 605.603,1926.166 575.888,1933.353 C561.784,1936.764 550.666,1940.745 543.368,1944.918 C540.123,1946.774 537.814,1948.569 536.486,1950.139 C536.019,1950.691 535.732,1951.146 535.588,1951.489 C535.53,1951.627 535.521,1951.668 535.521,1951.672 C535.521,1951.676 535.53,1951.716 535.588,1951.855 C535.732,1952.197 536.019,1952.652 536.486,1953.204 C537.814,1954.774 540.123,1956.57 543.368,1958.426 C550.666,1962.599 561.784,1966.579 575.888,1969.991 C605.603,1977.178 646.133,1981.325 689.459,1981.324 C732.785,1981.325 773.315,1977.178 803.03,1969.991 C817.135,1966.579 828.253,1962.599 835.55,1958.426 C838.796,1956.57 841.104,1954.774 842.432,1953.204 C842.899,1952.652 843.187,1952.197 843.331,1951.855 C843.389,1951.716 843.397,1951.676 843.397,1951.672 C843.397,1951.668 843.389,1951.627 843.331,1951.489 C843.187,1951.146 842.899,1950.691 842.432,1950.139 C841.104,1948.569 838.796,1946.774 835.55,1944.918 C828.253,1940.745 817.135,1936.764 803.03,1933.353 C773.315,1926.166 732.785,1922.019 689.459,1922.019 z" fill="#31323D"/>
      </g>
    </g>
    <g>
      <path d="M727.233,2009.062 L985.722,1814.436" fill-opacity="0" stroke="#31323D" stroke-width="10" stroke-linecap="round"/>
    </g>
    <g>
      <path d="M913.079,1900.848 L696.01,2112.945 L691.381,2110.335 L684.249,2110.335 L677.695,2112.945 L462.164,1900.848 C499.042,1915.754 542.375,1920.93 581.48,1924.48 C616.784,1927.686 652.188,1928.866 687.621,1929.035 C741.177,1928.879 794.882,1926.219 847.84,1917.772 C869.788,1914.272 892.628,1909.97 913.079,1900.848 z" fill="#FFFFFF" fill-opacity="0.309"/>
      <path d="M913.079,1900.848 L696.01,2112.945 L691.381,2110.335 L684.249,2110.335 L677.695,2112.945 L462.164,1900.848 C499.042,1915.754 542.375,1920.93 581.48,1924.48 C616.784,1927.686 652.188,1928.866 687.621,1929.035 C741.177,1928.879 794.882,1926.219 847.84,1917.772 C869.788,1914.272 892.628,1909.97 913.079,1900.848 z" fill-opacity="0" stroke="#31323D" stroke-width="10" stroke-linecap="round" stroke-linejoin="round"/>
    </g>
    <path d="M688.085,1932.696 C557.299,1932.696 451.277,1911.101 451.277,1884.462 C451.277,1857.823 557.299,1836.228 688.085,1836.228 C818.87,1836.228 924.893,1857.823 924.893,1884.462 C924.893,1911.101 818.87,1932.696 688.085,1932.696 z" fill-opacity="0" stroke="#31323D" stroke-width="10" stroke-linecap="round" stroke-linejoin="round" id="Shape"/>
    <g>
      <path d="M907.819,1884.753 C892.115,1884.753 892.914,1879.846 892.914,1864.762 C892.914,1849.678 903.929,1847.627 919.633,1847.627 C935.275,1847.627 937.179,1854.038 937.179,1869.122 C937.179,1884.206 923.523,1884.753 907.819,1884.753 z" fill="#DC0100"/>
      <path d="M919.633,1837.627 C930.308,1837.627 937.773,1840.254 942.475,1847 C946.244,1852.407 947.179,1858.422 947.179,1869.122 C947.179,1880.379 941.614,1888.303 931.908,1891.954 C925.781,1894.258 919.767,1894.753 907.819,1894.753 C897.271,1894.753 890.652,1892.771 886.4,1886.36 C884.46,1883.433 883.55,1880.207 883.166,1876.26 C882.93,1873.843 882.897,1871.957 882.91,1866.761 C882.913,1865.817 882.914,1865.335 882.914,1864.762 C882.914,1853.969 887.343,1845.951 895.852,1841.624 C901.897,1838.551 908.89,1837.627 919.633,1837.627 z M919.633,1847.627 C903.929,1847.627 892.914,1849.678 892.914,1864.762 C892.914,1879.846 892.115,1884.753 907.819,1884.753 C923.523,1884.753 937.179,1884.206 937.179,1869.122 C937.179,1854.038 935.275,1847.627 919.633,1847.627 z" fill="#31323D"/>
    </g>
    <path d="M708.181,2100.54 C702.24,2108.389 676.246,2110.02 664.607,2099.367" fill-opacity="0" stroke="#31323D" stroke-width="10" stroke-linecap="round" stroke-linejoin="round" id="Shape"/>
    <g id="Shape">
      <path d="M674.237,2106.393 L701.895,2106.393 C701.895,2106.393 693.713,2336.656 713.607,2410.904 C716.875,2423.104 668.291,2423.97 669.901,2411.797 C684.348,2302.565 674.237,2106.393 674.237,2106.393" fill="#FFFFFF" fill-opacity="0.717"/>
      <path d="M701.895,2106.393 C701.895,2106.393 693.713,2336.656 713.607,2410.904 C716.875,2423.104 668.291,2423.97 669.901,2411.797 C684.348,2302.565 674.237,2106.393 674.237,2106.393 L701.895,2106.393 z M691.581,2116.393 L684.712,2116.393 L684.765,2117.598 C685.17,2126.964 685.574,2137.538 685.951,2149.102 C687.547,2197.984 688.173,2248.119 687.265,2294.963 C686.322,2333.094 685.104,2371.333 680.308,2409.212 C684.156,2410.336 688.202,2410.503 692.185,2410.492 C695.802,2410.496 699.357,2409.939 702.852,2409.063 C701.489,2403.455 700.433,2397.774 699.506,2392.079 C693.113,2352.8 691.875,2309.983 690.856,2270.266 C689.873,2227.149 690.097,2181.071 691.064,2136.915 C691.213,2130.073 691.386,2123.233 691.581,2116.393 z" fill="#31323D"/>
    </g>
    <path d="M479.932,1912.031 L503.407,1919.664 L674.237,2098.867 L669.193,2098.867 z" fill="#31323D" fill-opacity="0.256"/>
    <path d="M575.74,2467.657 C526.937,2471.827 485.949,2458.537 484.192,2437.972 C482.435,2417.408 520.573,2397.356 569.377,2393.186 C618.181,2389.016 659.169,2402.306 660.926,2422.871 C662.683,2443.435 624.544,2463.487 575.74,2467.657 z" fill="#8D1491" fill-opacity="0.158" display="none"/>
  </g>
</svg>
