<?xml version="1.0" encoding="UTF-8" standalone="no"?>
<!DOCTYPE svg PUBLIC "-//W3C//DTD SVG 1.1//EN" "http://www.w3.org/Graphics/SVG/1.1/DTD/svg11.dtd">
<svg width="100%" height="100%" viewBox="0 0 3000 3000" version="1.1" xmlns="http://www.w3.org/2000/svg" xmlns:xlink="http://www.w3.org/1999/xlink" xml:space="preserve" xmlns:serif="http://www.serif.com/" style="fill-rule:evenodd;clip-rule:evenodd;stroke-miterlimit:10;">
    <g id="Greenhat" transform="matrix(0.999962,-0.00426246,0.00426259,0.999991,-6.69603,8.01994)">
        <g transform="matrix(1.37976,-0.0258181,0.0258181,1.37976,1066.6,719.629)">
            <path d="M0,227.802L-15.158,217.497L-33.808,199.261L-38.891,191.873L-55.458,164.665L-61.753,145.95L-69.177,110.265L-68.007,69.774L-65.565,60.341L-53.678,36.46L-24.296,13.348L-3.559,4.839L21.335,0.756L40.064,0L53.354,1.702L85.446,4.999L103.697,8.183L131.488,13.694L157.007,17.204L185.932,22.771L237.794,36.777L273.23,45.703L348.918,58.293C348.918,58.293 376.483,62.551 395.085,66.049C403.553,67.641 412.761,69.456 412.928,69.489C413.461,69.597 437.813,75.413 437.813,75.413L501.713,89.784L528.392,97.914L544.225,105.014L552.953,118.304C552.953,118.304 562.916,137.45 562.58,137.75C562.242,138.05 559.998,156.176 559.998,156.176L550.756,180.252L534.867,206.832L520.863,219.73L508.145,211.554L499.818,202.882L466.658,194.899L453.637,186.723L421.842,171.279L360.939,152.284L297.051,141.284L284.78,140.438L267.431,138.886L234.424,138.463L214.12,139.172L191.682,140.996L151.069,146.654L92.818,162.028L46.271,179.801L37.048,186.347L33.581,194.504L28.566,207.899L15.594,215.261L9.214,220.823L0,227.802Z" style="fill:rgb(65,184,105);fill-rule:nonzero;"/>
        </g>
        <g transform="matrix(1.37976,-0.0258181,0.0258181,1.37976,1353.62,1017.49)">
            <path d="M0,-190.83C0,-190.83 18.219,-167.927 48.719,-163.427C58.963,-161.916 69.629,-159.489 79.277,-156.933C98.355,-151.878 112.891,-150.348 112.891,-150.348L149.141,-146.316L179.719,-143.427C179.719,-143.427 260.776,-135.3 298.549,-114.065C307.622,-108.965 320.41,-98.218 323.05,-96.049C327.451,-92.434 332.261,-82.197 333.77,-78.417C341.012,-60.277 335.471,-47.802 328.72,-35.427C319.719,-18.927 311.303,-5.924 311.303,-5.924L319.151,0L344.445,-31.853L355.688,-55.584L357.917,-90.927L339.409,-116.568L308.184,-127.476L211.656,-150.135L75.516,-172.927L18.612,-186.022L0,-190.83Z" style="fill:rgb(136,203,155);fill-rule:nonzero;"/>
        </g>
        <g transform="matrix(1.37976,-0.0258181,0.0258181,1.37976,1095.25,1032.47)">
            <path d="M0,-224.726C0,-224.726 -68.492,-185.251 -43.282,-102.766C-18.073,-20.28 3.961,-14.557 3.961,-14.557L-14.417,0.479L-33.611,-14.631L-50.322,-27.786L-69.627,-64.496L-79.157,-94.913L-84.087,-136.229L-78.96,-168.232L-61.888,-197.121L-48.978,-208.226L-35.093,-216.046L-22.244,-221.318L-10.79,-223.962L-2.601,-225.205L0,-224.726Z" style="fill:rgb(36,135,66);fill-rule:nonzero;"/>
        </g>
        <g transform="matrix(1.37976,-0.0258181,0.0258181,1.37976,1055.47,947.967)">
            <path d="M0,2.203C0,2.203 7.758,11.959 21.954,6.653C65.165,-9.499 162.559,-54.894 238.281,-49.957C338.878,-43.398 491.34,-25.175 505.105,15.961C518.87,57.097 516.809,-29.105 500.788,-37.65L516.947,-20.594L523.169,4.38L520.579,18.777L512.568,36.354L500.828,33.431L473.386,25.264L425.365,1.416L381.589,-10.018L345.001,-19.818L285.877,-26.024L236.549,-27.657L200.941,-23.737L166.644,-19.167L126.506,-9.201L103.977,-3.255L75.973,7.336L52.12,17.753L49.339,21.415L42.09,40.931L31.635,50.09L-5.189,20.325L0,2.203Z" style="fill:rgb(36,135,66);fill-rule:nonzero;"/>
        </g>
        <g transform="matrix(1.37976,-0.0258181,0.0258181,1.37976,1015.46,760.633)">
            <path d="M0,87.767L8.426,86.311C8.426,86.311 31.865,1.682 113.468,1.302L99.096,0L78.496,0.912L63.279,4.591L51.112,7.823L39.768,13.447L5.936,39.254L-1.422,47.854L-11.819,65.565C-11.819,65.565 -7.839,76.349 -7.455,76.349C-7.07,76.349 -1.806,86.311 -1.806,86.311L0,87.767Z" style="fill:rgb(36,135,66);fill-rule:nonzero;"/>
        </g>
        <g transform="matrix(1.37976,-0.0258181,0.0258181,1.37976,1125.69,390.753)">
            <path d="M0,234.38C0,234.38 -4.036,219.708 -4.007,219.823C-3.978,219.939 -5.958,212.792 -6.04,212.71C-6.122,212.628 -6.776,206.963 -6.776,206.963L-10.448,189.814L-11.386,170.486L-9.182,149.41L-4.905,132.838L-2.209,122.633L-3.632,118.801L-5.21,108.256C-5.21,108.256 -5.512,100.827 -5.674,101.019C-5.835,101.211 -4.979,84.069 -5.06,84.274C-5.142,84.478 0,69.989 0,69.989C0,69.989 8.725,55.3 8.791,55.193C8.856,55.087 19.468,38.278 19.345,38.278C19.223,38.278 31.67,21.994 31.67,21.994L43.315,11.149L56.321,-3.309L69.539,-16.58L83.297,-30.776L98.549,-42.25L104.955,-45.254L109.885,-51.205L124.438,-63.531L141.21,-73.629L160.56,-80.497L182.055,-85.43L203.652,-86.915L217.733,-86.485L226.752,-91.708L245.036,-93.423L266.462,-93.912L288.745,-91.627L312.905,-87.26L335.107,-82.363L357.077,-74.269C357.077,-74.269 374.637,-64.862 374.87,-64.981C375.104,-65.099 390.694,-53.672 390.694,-53.672L394.122,-43.306L394.408,-40.286L397.84,-41.636C397.84,-41.636 400.978,-41.918 401.101,-41.877C401.224,-41.837 413.223,-36.449 413.223,-36.449L428.16,-28.491L438.853,-18.043L449.546,-4.616L457.912,6.444L468.033,20.116L475.583,35.616L481.64,48.287L487.581,61.555L493.912,75.981L499.214,87.579L505.295,101.455L508.193,111.74L508.397,119.33L508.152,127.462L511.213,131.615L513.458,143.124L514.56,155.94L514.07,166.836L513.417,186.181L511.947,201.526L510.642,212.382L508.75,229.924L505.948,247.562L501.132,265.002L496.019,272.794L488.808,282.243L486.363,289.843L477.584,305.148L472.924,310.861L462.193,322.938L460.198,326.003L458.921,328.292L445.425,325.065L428.854,320.576L402.571,314.413L383.961,310.414L353.312,303.802L323.355,298.415L298.093,294.334L274.924,289.672L241.323,283.763L217.897,278.234L190.227,271.071L161.291,264.908L133.008,257.562L102.317,250.665L73.422,245.4L46.731,241.4L15.862,236.926L2.321,235.716L0,234.38Z" style="fill:rgb(245,247,251);fill-rule:nonzero;"/>
        </g>
        <g transform="matrix(1.37976,-0.0258181,0.0258181,1.37976,1234.63,662.986)">
            <path d="M0,-177.404C0,-177.404 -14.201,-168.914 -19.063,-153.247C-20.562,-148.418 -23.782,-145.535 -25.392,-142.981C-29.005,-137.247 -30.717,-135.727 -30.717,-135.727L-39.517,-121.216L-51.611,-99.513L-57.657,-84.705L-60.358,-80.866L-59.986,-74.061L-58.653,-60.981L-56.5,-53.986L-51.261,-36.032L-43.348,-17.145L-39.933,-10.027L-33.961,1.08L-31.604,1.08L-28.096,-1.575L-21.205,-6.315L-9.731,-11.763L5.844,-18.526L17.864,-22.349C17.864,-22.349 30.529,-25.219 30.291,-25.177C30.052,-25.135 44.763,-26.712 44.763,-26.712L47.548,-28.044L47.548,-34.793C47.548,-34.793 48.121,-62.395 47.871,-62.163C47.621,-61.932 53.54,-94.247 53.54,-94.247L61.304,-128.697L68.349,-145.551C68.349,-145.551 67.949,-149.76 67.296,-149.617C66.644,-149.474 56.706,-159.316 56.706,-159.316L41.062,-166.692L23.582,-173.028L9.572,-176.401L3.088,-178.484L0,-177.404Z" style="fill:rgb(61,61,69);fill-rule:nonzero;"/>
        </g>
        <g transform="matrix(1.37976,-0.0258181,0.0258181,1.37976,1439.11,751.129)">
            <path d="M0,-14.664L1.764,-6.914L5.409,-0.236L6.914,8.513L6.914,14.191L7.875,18.464L41.667,24.684L83.958,30.141L163.643,45.508L168.53,41.324L174.747,35.113L178.74,28.999L183.833,15.794L167.124,-12.218L123.13,-57.193L121.517,-60.172L103.96,-50.474L84.541,-42.488L66.209,-34.865L50.419,-28.602L22.106,-20.602L10.505,-17.396L0,-14.664Z" style="fill:rgb(61,61,69);fill-rule:nonzero;"/>
        </g>
        <g transform="matrix(1.37976,-0.0258181,0.0258181,1.37976,1531.51,493.926)">
            <path d="M0,-146.118L-20.019,-109.941L-36.323,-76.251L-33.932,-74.339L-25.898,-72.379L-14.893,-69.166L-4.617,-65.522L7.873,-55.976L24.303,-44.759L36.472,-36.974L53.43,-16.941L60.651,-6.596L65.092,0.085L78.525,-10.598L95.059,-19.626L110.378,-29.463L123.365,-36.281L138.834,-38.813L138.834,-48.049L131.979,-78.522L115.557,-103.71L95.821,-118.325L66.566,-135.245L52.831,-141.192L20.917,-145.703L11.395,-144.865L4.299,-145.796L0.415,-146.203" style="fill:rgb(61,61,69);fill-rule:nonzero;"/>
        </g>
        <g transform="matrix(1.37976,-0.0258181,0.0258181,1.37976,1825.77,764.295)">
            <path d="M0,-155.225L-3.603,-121.697L-9.866,-92.466L-12.229,-74.953L-14.603,-52.063L-16.002,-42.158L-12.229,-26.999L-11.356,-12.705L-12.267,0L-3.06,-11.008L4.528,-33.628L11.729,-91.298L13.292,-129.96C13.292,-129.96 11.034,-148.574 10.71,-147.901C10.386,-147.228 7.665,-153.314 6.988,-153.945C6.312,-154.576 0,-155.225 0,-155.225" style="fill:rgb(61,61,69);fill-rule:nonzero;"/>
        </g>
        <g transform="matrix(1.37976,-0.0258181,0.0258181,1.37976,1522.28,726.887)">
            <path d="M0,-343.514C0,-343.514 -115.987,-314.556 -166.076,-219.091C-169.438,-212.681 -186.544,-203.702 -189.894,-198.963C-213.353,-165.78 -229.292,-158.893 -232.282,-132.637C-232.674,-129.195 -216.703,-78.156 -216.882,-74.959C-218.05,-54.14 -214.923,-38.417 -210.237,-26.772L-201.156,0L-235.079,-4.905L-250.692,-7.347L-279.548,-10.723L-292.995,-58.01L-291.451,-95.812L-285.069,-127.279L-288.657,-152.452L-282.894,-177.129L-269.127,-203.172L-259.907,-215.562L-223.737,-254.397L-198.22,-280.003L-179.494,-294.092L-167.042,-305.361L-154.517,-315.098L-137.648,-323.931L-115.531,-331.308L-88.849,-335.833L-65.576,-336.843L-56.027,-340.618L-30.225,-343.514L0,-343.514Z" style="fill:rgb(216,216,216);fill-rule:nonzero;"/>
        </g>
        <g transform="matrix(1.37976,-0.0258181,0.0258181,1.37976,1224.47,823.689)">
            <path d="M0,-128.975C0,-128.975 51.509,-76.297 159.335,-54.607C225.294,-41.339 276.957,-31.496 308.163,-29.772C327.97,-28.677 340.331,-33.867 340.331,-33.867L352.87,-37.219C352.87,-37.219 344.742,0 336.873,-0.593C329.003,-1.185 313.004,-5.528 313.004,-5.528L269.903,-14.389L232.394,-20.672L187.8,-26.723L133.395,-39.763L101.971,-46.929L80.134,-51.679L46.267,-59.901L35.075,-61.861L15.925,-66.097L-2.725,-68.793L-12.134,-105.132L-12.134,-115.213L0,-128.975Z" style="fill:rgb(216,216,216);fill-rule:nonzero;"/>
        </g>
        <g transform="matrix(1.37976,-0.0258181,0.0258181,1.37976,1348.24,730.143)">
            <path d="M0,-208.982C0,-208.982 -12.757,-101.591 16.731,-78.879C46.219,-56.167 80.841,-31.683 121.292,-34.85L186.719,-48.827L185.864,-45.398L178.725,-39.777L142.617,-23.56L112.922,-12.167L88.222,-4.326L73.177,0L66.38,-0.086L55.706,-12.167L46.436,-18.47L29.184,-30.101L3.559,-47.573L-15.347,-64.238L-22.515,-71.765L-31.027,-78.241L-33.533,-82.964L-34.701,-110.74L-29.772,-138.899C-29.772,-138.899 -22.489,-170.272 -22.421,-170.546C-22.353,-170.821 -13.996,-196.398 -13.996,-196.398L-9.881,-200.609C-9.881,-200.609 -6.477,-204.91 -6.208,-205.178C-5.939,-205.447 0,-208.982 0,-208.982" style="fill:rgb(216,216,216);fill-rule:nonzero;"/>
        </g>
        <g transform="matrix(1.37976,-0.0258181,0.0258181,1.37976,1650.52,763.524)">
            <path d="M0,-207.659C0,-207.659 12.666,-162.449 12.918,-137.449C13.17,-112.449 6.166,-57.999 12.918,-42.474C19.67,-26.949 37.198,-3.687 33.185,-1.151C31.363,0 22.942,-10.648 15.076,-21.795C5.611,-35.209 -7.388,-47.149 -7.388,-47.149L-32.686,-73.68L-29.563,-77.399L-24.195,-103.088L-23.747,-127.946L-17.518,-160.002L-20.33,-191.937L-15.774,-199.035L-4.845,-204.878L0,-207.659Z" style="fill:rgb(216,216,216);fill-rule:nonzero;"/>
        </g>
        <g transform="matrix(1.37976,-0.0258181,0.0258181,1.37976,1476.03,555.822)">
            <path d="M0,-110.233C0,-110.233 73.313,-79.108 91.775,-36.434C91.775,-36.434 91.519,-12.327 88.053,-6.164C84.587,0 48.512,-70.112 13.859,-86.013C-20.793,-101.914 -7.621,-98.765 -7.621,-103.459C-7.621,-108.153 0,-110.233 0,-110.233" style="fill:rgb(250,251,252);fill-rule:nonzero;"/>
        </g>
        <g transform="matrix(1.37976,-0.0258181,0.0258181,1.37976,1290.58,649.026)">
            <path d="M0,-158.357L-18.361,-164.008L-35.374,-168.472L-40.222,-168.793L-44.063,-166.79L-51.671,-158.357L-64.477,-138.232L-76.092,-119.824L-87.372,-99.951L-94.396,-85.113L-98.382,-75.349L-101.083,-68.452L-97.225,-44.63L-86.103,-12.635L-75.001,5.831L-73.187,10.436L-63.514,3.857L-48.141,-3.326C-48.141,-3.326 -55.972,-60.036 -36.73,-90.712C-17.488,-121.388 0,-158.357 0,-158.357" style="fill:rgb(45,46,61);fill-rule:nonzero;"/>
        </g>
        <g transform="matrix(1.37976,-0.0258181,0.0258181,1.37976,1643.29,377.249)">
            <path d="M0,72.299C0,72.299 -47.994,-8.556 -109.746,-12.121L-117.827,4.974L-118.828,8.261L-111.33,9.94L-95.539,13.715L-76.913,24.2L-54.788,40.482L-38.617,54.603C-38.617,54.603 -25.45,68.351 -25.588,68.903C-25.726,69.455 -18.688,79.919 -18.688,79.919L-15.802,84.42L-8.755,74.974L-3.098,72.299L0,72.299Z" style="fill:rgb(45,46,61);fill-rule:nonzero;"/>
        </g>
        <g transform="matrix(1.37976,-0.0258181,0.0258181,1.37976,1447.61,812.012)">
            <path d="M0,-48.674C0,-48.674 166.693,-20.153 175.077,-28.661L179.169,-28.485L177.263,-23.029L174.169,-17.2L170.096,-10.155L161.73,-1.644L158.842,0L112.121,-7.806L86.425,-12.581L49.586,-18.084L23.078,-21.982L0.773,-27.328L-0.838,-31.338L-2.493,-40.098L-2.493,-46.086L0,-48.674Z" style="fill:rgb(45,46,61);fill-rule:nonzero;"/>
        </g>
        <g transform="matrix(1.37976,-0.0258181,0.0258181,1.37976,1532.43,425.62)">
            <path d="M0,-95.427C0,-95.427 46.534,-93.352 51.822,-90.153C57.11,-86.954 90.969,-71.231 90.969,-71.231L100.647,-64.723L126.221,-38.625L139.533,9.152L135.724,10.912C135.724,10.912 62.237,-106.339 -5.529,-86.313L-3.971,-92.337L0,-95.427Z" style="fill:rgb(90,91,100);fill-rule:nonzero;"/>
        </g>
        <g transform="matrix(1.37976,-0.0258181,0.0258181,1.37976,1825.8,766.061)">
            <path d="M0,-156.505L-2.609,-124.403C-2.609,-124.403 4.746,-59.058 -13.123,-34.908C-13.123,-34.908 -12.13,-10.261 -12.455,-10.259C-12.78,-10.256 -13.112,0 -13.112,0L-2.367,-14.353L3.68,-30.997C3.68,-30.997 6.875,-49.235 6.94,-49.72C7.006,-50.204 12.407,-86.054 12.407,-86.054L13.292,-121.143C13.292,-121.143 11.776,-144.721 11.496,-145.018C11.216,-145.316 8.604,-152.665 7.796,-153.945C6.988,-155.225 0,-156.505 0,-156.505" style="fill:rgb(90,91,100);fill-rule:nonzero;"/>
        </g>
        <g transform="matrix(1.37976,-0.0258181,0.0258181,1.37976,1314.98,623.347)">
            <path d="M0,-124.719C-0.964,-122.791 -29.481,-42.253 -26.31,-1.052L-26.31,2.232L-11.201,-0.414L-12.046,-9.023L-7.358,-54.81L-1.788,-84.029L6.077,-110.666L9.599,-117.921L6.818,-123.266L3.524,-126.951L0,-124.719Z" style="fill:rgb(90,91,100);fill-rule:nonzero;"/>
        </g>
        <g transform="matrix(1.37976,-0.0258181,0.0258181,1.37976,1446.03,962.361)">
            <path d="M0,-137.644C-15.757,-141.226 -31.521,-144.78 -47.208,-148.659C-63.028,-152.57 -78.604,-157.394 -94.477,-161.077C-124.998,-168.159 -156.233,-172.509 -187.117,-177.686C-236.754,-186.007 -300.918,-185.737 -330.171,-136.839C-339.893,-120.588 -342.603,-100.893 -341.995,-82.257C-341.358,-62.734 -337.115,-42.218 -330.249,-23.944C-319.475,4.731 -300.499,34.502 -271.87,47.731C-270.501,48.363 -265.178,46.223 -267.155,45.309C-288.27,35.552 -303.729,16.044 -314.671,-4.006C-328.125,-28.659 -335.343,-57.567 -336.257,-85.581C-337.183,-113.96 -327.828,-141.84 -304.986,-159.667C-280.802,-178.542 -248.205,-180.977 -218.713,-178.678C-201.065,-177.302 -183.631,-173.882 -166.253,-170.653C-148.322,-167.321 -130.215,-165.127 -112.321,-161.502C-94.463,-157.885 -77.089,-152.679 -59.463,-148.138C-41.304,-143.461 -22.998,-139.378 -4.715,-135.222C-3.245,-134.888 1.882,-137.216 0,-137.644" style="fill:rgb(48,50,61);fill-rule:nonzero;"/>
        </g>
        <g transform="matrix(1.37976,-0.0258181,0.0258181,1.37976,997.554,836.322)">
            <path d="M0,62.268C-4.51,47.898 -4.108,33.085 0.366,18.763C5.049,3.774 14.679,-7.769 26.062,-18.172C36.907,-28.084 48.787,-36.942 62.021,-43.403C76.924,-50.679 94.279,-53.307 110.756,-52.606C142.463,-51.256 173.799,-44.624 204.372,-36.452C219.587,-32.385 234.67,-27.833 249.729,-23.221C256.664,-21.097 263.664,-18.359 270.778,-16.936C278.25,-15.441 285.155,-13.002 292.43,-10.689C320.918,-1.631 350.156,5.149 379.861,8.552C409.975,12.001 440.208,13.079 469.983,19.122C483.65,21.896 496.393,26.086 509.276,31.339C520.339,35.85 531.484,40.182 541.281,47.157C552.297,54.999 559.108,65.935 560.59,79.413C562.067,92.845 557.122,106.521 550.287,117.844C548.746,120.396 554.625,120.071 555.748,118.21C569.368,95.65 571.802,67.1 550.921,48.195C541.899,40.027 530.555,35.104 519.421,30.56C506.606,25.328 494.161,20.374 480.633,17.198C450.069,10.021 418.848,8.649 387.727,5.466C355.209,2.141 323.334,-5.281 292.252,-15.345C278.123,-19.92 263.792,-23.47 249.544,-27.824C234.5,-32.423 219.411,-36.88 204.202,-40.906C174.229,-48.84 143.866,-54.398 112.899,-56.31C83.457,-58.128 56.365,-47.55 33.43,-29.718C22.929,-21.553 12.692,-12.576 5.006,-1.685C-3.209,9.956 -7.978,23.704 -9.022,37.894C-9.667,46.649 -8.417,55.472 -5.796,63.821C-5.066,66.145 0.712,64.539 0,62.268" style="fill:rgb(48,50,61);fill-rule:nonzero;"/>
        </g>
        <g transform="matrix(1.37976,-0.0258181,0.0258181,1.37976,1119.83,1000.26)">
            <path d="M0,-12.287C-1.658,-7.603 -3.824,-3.153 -6.075,1.269C-6.495,2.092 -1.105,1.702 -0.361,0.241C1.89,-4.182 4.056,-8.632 5.714,-13.315C6.09,-14.379 0.519,-13.754 0,-12.287" style="fill:rgb(48,50,61);fill-rule:nonzero;"/>
        </g>
        <g transform="matrix(1.37976,-0.0258181,0.0258181,1.37976,1134.8,563.689)">
            <path d="M0,111.554C-6.007,93.684 -8.956,75.201 -11.105,56.525C-13.333,37.168 -8.57,17.45 -4.874,-1.429C-4.502,-3.33 -10.296,-2.329 -10.638,-0.587C-14.199,17.605 -18.17,35.933 -17.19,54.582C-16.158,74.213 -12.049,94.501 -5.796,113.107C-5.198,114.884 0.555,113.204 0,111.554" style="fill:rgb(48,50,61);fill-rule:nonzero;"/>
        </g>
        <g transform="matrix(1.37976,-0.0258181,0.0258181,1.37976,1146.95,562.534)">
            <path d="M0,-13.824C-6.597,-12.006 -12.515,-8.271 -16.968,-3.075C-19.391,-0.247 -13.896,0.993 -12.06,-1.149C-8.591,-5.197 -3.994,-8.132 1.146,-9.549C4.742,-10.54 3.604,-14.817 0,-13.824" style="fill:rgb(48,50,61);fill-rule:nonzero;"/>
        </g>
        <g transform="matrix(1.37976,-0.0258181,0.0258181,1.37976,1148.57,666.813)">
            <path d="M0,-87.772C-2.852,-82.763 -1.074,-75.045 -0.413,-69.629C0.797,-59.709 3.483,-50.161 6.829,-40.772C9.952,-32.009 13.362,-23.415 17.603,-15.126C20.441,-9.578 22.229,-2.649 27.667,1.007C29.5,2.24 34.753,-0.348 32.209,-2.059C27.238,-5.402 25.519,-12.534 22.914,-17.625C18.838,-25.591 15.643,-33.914 12.625,-42.326C9.841,-50.083 7.614,-57.885 6.162,-66.005C5.159,-71.617 2.458,-82.105 5.467,-87.387C6.961,-90.012 1.089,-89.685 0,-87.772" style="fill:rgb(48,50,61);fill-rule:nonzero;"/>
        </g>
        <g transform="matrix(1.37976,-0.0258181,0.0258181,1.37976,1185.71,724.777)">
            <path d="M0,-41.239C-4.558,-27.894 -0.173,-12.551 -0.039,1.161C-0.029,2.153 5.774,1.282 5.757,-0.392C5.624,-13.884 1.24,-29.136 5.719,-42.25C6.109,-43.392 0.508,-42.727 0,-41.239" style="fill:rgb(48,50,61);fill-rule:nonzero;"/>
        </g>
        <g transform="matrix(1.37976,-0.0258181,0.0258181,1.37976,1193.74,627.418)">
            <path d="M0,27.725C3.078,23.517 8.507,21.285 13.1,19.151C19.498,16.179 25.823,13.075 32.337,10.358C46.013,4.655 61.026,1.244 75.856,1.1C77.878,1.08 82.073,-2.018 78.166,-1.98C61.689,-1.82 45.351,2.059 30.109,8.207C22.808,11.152 15.742,14.691 8.626,18.052C3.585,20.433 -1.99,23.111 -5.364,27.724C-6.84,29.743 -1.039,29.145 0,27.725" style="fill:rgb(48,50,61);fill-rule:nonzero;"/>
        </g>
        <g transform="matrix(1.37976,-0.0258181,0.0258181,1.37976,1322.15,623.814)">
            <path d="M0,-115.4C-8.169,-98.333 -11.111,-79.05 -14.601,-60.604C-18.386,-40.602 -20.983,-20.413 -18.647,-0.074C-18.367,2.367 -12.552,0.978 -12.851,-1.627C-15.075,-20.985 -12.599,-40.184 -9.108,-59.234C-5.69,-77.893 -2.754,-97.674 5.495,-114.908C6.864,-117.767 1.012,-117.515 0,-115.4" style="fill:rgb(48,50,61);fill-rule:nonzero;"/>
        </g>
        <g transform="matrix(1.37976,-0.0258181,0.0258181,1.37976,1224,551.866)">
            <path d="M0,-96.656C-21.224,-65.618 -42.598,-34.45 -56.649,0.639C-57.028,1.586 -51.521,1.053 -50.938,-0.402C-36.887,-35.491 -15.513,-66.66 5.711,-97.697C6.084,-98.242 0.952,-98.047 0,-96.656" style="fill:rgb(48,50,61);fill-rule:nonzero;"/>
        </g>
        <g transform="matrix(1.37976,-0.0258181,0.0258181,1.37976,1230.26,456.315)">
            <path d="M0,-26.227C2.707,-28.361 10.757,-24.73 13.717,-23.862C20.641,-21.832 27.631,-20.121 34.506,-17.907C46.609,-14.009 57.893,-7.841 65.251,2.821C66.41,4.501 72.021,2.541 70.623,0.515C61.61,-12.544 47.26,-18.367 32.625,-22.852C25.318,-25.092 17.89,-27.14 10.487,-29.044C5.332,-30.37 -0.299,-30.728 -4.674,-27.28C-7.31,-25.202 -1.516,-25.032 0,-26.227" style="fill:rgb(48,50,61);fill-rule:nonzero;"/>
        </g>
        <g transform="matrix(1.37976,-0.0258181,0.0258181,1.37976,1265.34,417.682)">
            <path d="M0,-66.149C-2.827,-61.254 -4.755,-55.88 -7.161,-50.773C-9.67,-45.445 -12.92,-40.478 -15.724,-35.306C-21.543,-24.573 -25.169,-12.445 -28.009,-0.623C-28.69,2.215 -22.754,1.519 -22.136,-1.056C-19.365,-12.591 -15.662,-24.073 -10.179,-34.628C-7.46,-39.86 -4.26,-44.818 -1.616,-50.094C0.921,-55.157 2.709,-60.559 5.545,-65.47C7.179,-68.299 1.279,-68.364 0,-66.149" style="fill:rgb(48,50,61);fill-rule:nonzero;"/>
        </g>
        <g transform="matrix(1.37976,-0.0258181,0.0258181,1.37976,1269.32,541.186)">
            <path d="M0,-157.741C-15.038,-148.946 -27.379,-136.251 -39.259,-123.698C-52.189,-110.036 -65.105,-96.362 -78.021,-82.686C-83.054,-77.357 -86.631,-70.527 -90.65,-64.395C-94.88,-57.943 -98.97,-51.408 -102.498,-44.54C-109.479,-30.952 -112.913,-15.989 -109.119,-0.937C-108.469,1.641 -102.67,0.102 -103.323,-2.49C-106.982,-17.005 -103.507,-30.839 -96.981,-43.969C-93.778,-50.413 -89.887,-56.508 -85.974,-62.537C-81.963,-68.715 -78.264,-75.747 -73.205,-81.104C-61.168,-93.848 -49.13,-106.592 -37.083,-119.326C-25.035,-132.061 -12.769,-145.557 2.52,-154.499C5.918,-156.486 2.805,-159.382 0,-157.741" style="fill:rgb(48,50,61);fill-rule:nonzero;"/>
        </g>
        <g transform="matrix(1.37976,-0.0258181,0.0258181,1.37976,1484.8,462.165)">
            <path d="M0,-51.672C-12.485,-53.907 -24.708,-51.393 -36.837,-48.394C-49.423,-45.281 -61.848,-40.034 -73.315,-34.044C-78.92,-31.116 -84.174,-27.59 -89.765,-24.625C-95.294,-21.692 -100.831,-18.826 -106.055,-15.365C-109.388,-13.157 -112.817,-10.573 -115.289,-7.399C-116.979,-5.228 -119.831,-2.269 -120.312,0.542C-120.602,2.235 -114.84,1.196 -114.57,-0.382C-113.669,-5.641 -106.754,-11.158 -102.902,-13.992C-94.437,-20.221 -84.438,-24.152 -75.539,-29.709C-65.263,-36.124 -53.836,-40.591 -42.383,-44.411C-30.093,-48.51 -16.592,-51.357 -3.688,-49.047C-2.262,-48.792 3.055,-51.125 0,-51.672" style="fill:rgb(48,50,61);fill-rule:nonzero;"/>
        </g>
        <g transform="matrix(1.37976,-0.0258181,0.0258181,1.37976,1483.11,295.453)">
            <path d="M0,66.477C9.403,42.872 22.506,21.083 34.73,-1.115C35.433,-2.391 29.871,-1.899 28.969,-0.262C16.745,21.937 3.643,43.726 -5.761,67.331C-6.373,68.868 -0.683,68.19 0,66.477" style="fill:rgb(48,50,61);fill-rule:nonzero;"/>
        </g>
        <g transform="matrix(1.37976,-0.0258181,0.0258181,1.37976,1274.89,267.418)">
            <path d="M0,39.678C4.518,33.634 11.271,28.699 17.283,24.208C23.362,19.668 30.35,16.469 37.304,13.53C52.894,6.942 69.383,3.102 86.288,2.273C102.396,1.484 119.161,3.551 134.945,6.625C150.449,9.646 165.501,14.824 179.08,22.959C180.847,24.019 186.152,21.509 183.654,20.012C169.212,11.359 153.211,6.154 136.75,2.947C119.927,-0.33 102.328,-1.96 85.204,-1.121C67.308,-0.243 49.84,4.577 33.4,11.524C25.96,14.668 18.763,18.404 12.281,23.245C5.999,27.936 -0.719,33.104 -5.435,39.412C-7.099,41.638 -1.217,41.306 0,39.678" style="fill:rgb(48,50,61);fill-rule:nonzero;"/>
        </g>
        <g transform="matrix(1.37976,-0.0258181,0.0258181,1.37976,1527.35,332.464)">
            <path d="M0,-25.807C16.936,-26.524 34.653,-24.846 51.183,-21.081C68.767,-17.077 84.01,-7.444 98.218,3.258C100.114,4.686 105.29,1.996 102.726,0.064C87.6,-11.329 71.549,-20.912 52.889,-25.162C36.003,-29.007 17.88,-30.493 0.592,-29.761C-2.587,-29.626 -3.966,-25.64 0,-25.807" style="fill:rgb(48,50,61);fill-rule:nonzero;"/>
        </g>
        <g transform="matrix(1.37976,-0.0258181,0.0258181,1.37976,1424.93,320.581)">
            <path d="M0,-39.092C17.049,-45.345 34.888,-46.404 52.866,-45.027C70.182,-43.7 87.824,-41.071 104.686,-36.897C120.549,-32.969 135.905,-27.038 150.229,-19.172C157.406,-15.229 164.309,-10.995 169.951,-4.999C171.531,-3.32 171.873,-2.142 172.329,0.024C172.633,1.461 173.814,6.061 172.578,7.185C169.672,9.826 174.237,11.97 176.455,9.954C179.899,6.825 178.807,1.708 177.947,-2.372C176.704,-8.272 170.064,-13.066 165.323,-16.18C149.722,-26.432 132.452,-33.948 114.555,-39.145C96.378,-44.424 77.339,-47.136 58.541,-49.033C38.452,-51.062 17.999,-50.214 -1.103,-43.207C-4.534,-41.948 -3.523,-37.8 0,-39.092" style="fill:rgb(48,50,61);fill-rule:nonzero;"/>
        </g>
        <g transform="matrix(1.37976,-0.0258181,0.0258181,1.37976,1662.22,437.221)">
            <path d="M0,-77.529C2.083,-73.287 8.502,-71.515 11.915,-68.481C18.099,-62.985 23.799,-56.895 28.311,-49.942C33.33,-42.204 36.015,-32.403 38.435,-23.591C40.704,-15.322 40.693,-6.592 43.527,1.524C44.218,3.503 49.969,1.822 49.322,-0.029C46.494,-8.127 46.389,-16.863 44.229,-25.144C41.989,-33.74 39.097,-42.683 34.74,-50.456C30.888,-57.329 25.314,-63.186 19.642,-68.577C17.661,-70.46 15.676,-72.212 13.374,-73.681C11.076,-75.148 7.059,-76.51 5.795,-79.082C4.837,-81.032 -0.802,-79.16 0,-77.529" style="fill:rgb(48,50,61);fill-rule:nonzero;"/>
        </g>
        <g transform="matrix(1.37976,-0.0258181,0.0258181,1.37976,1479.97,494.171)">
            <path d="M0,-72.033C10.448,-70.61 20.433,-67.979 29.688,-62.814C39.758,-57.194 49.01,-49.798 58.585,-43.381C66.76,-37.904 74.476,-31.469 81.045,-24.098C88.116,-16.163 93.874,-7.128 99.736,1.704C100.72,3.185 106.352,1.335 105.139,-0.492C99.255,-9.354 93.413,-18.231 86.445,-26.294C79.578,-34.241 71.086,-40.82 62.412,-46.633C53.063,-52.898 44.014,-59.725 34.336,-65.482C25.033,-71.015 14.218,-73.544 3.601,-74.99C1.925,-75.218 -3.206,-72.47 0,-72.033" style="fill:rgb(48,50,61);fill-rule:nonzero;"/>
        </g>
        <g transform="matrix(1.37976,-0.0258181,0.0258181,1.37976,1832.8,320.143)">
            <path d="M0,163.456C0.263,153.875 -3.827,145.32 -7.867,136.869C-12.32,127.553 -15.935,117.852 -20.096,108.401C-28.792,88.651 -37.586,69.487 -50.003,51.744C-55.442,43.971 -61.438,36.653 -67.313,29.213C-73.534,21.333 -79.689,13.868 -88.352,8.562C-92.191,6.211 -96.325,4.33 -100.375,2.376C-103.183,1.022 -107.672,-2.7 -110.817,-2.535C-114.969,-2.316 -120.404,0.24 -122.535,3.827C-123.11,4.795 -117.701,4.409 -116.797,2.888C-115.722,1.078 -113.687,0.303 -111.756,-0.185C-112.756,-0.192 -113.756,-0.2 -114.757,-0.208C-107.912,3.684 -100.605,6.672 -93.791,10.619C-86.545,14.814 -81.002,20.938 -75.811,27.394C-64.858,41.014 -54.08,54.695 -45.147,69.758C-35.961,85.25 -29.106,102.279 -22.045,118.815C-18.809,126.395 -15.764,133.992 -12.224,141.44C-8.671,148.916 -5.564,156.597 -5.795,165.009C-5.826,166.156 -0.051,165.31 0,163.456" style="fill:rgb(48,50,61);fill-rule:nonzero;"/>
        </g>
        <g transform="matrix(1.37976,-0.0258181,0.0258181,1.37976,1725.9,554.748)">
            <path d="M0,-83.489C4.057,-75.768 11.494,-70.827 17.62,-64.898C21.09,-61.54 23.989,-57.591 26.977,-53.813C30.507,-49.349 34.458,-45.429 38.44,-41.38C42.296,-37.459 45.935,-33.327 49.561,-29.196C52.55,-25.789 56.907,-22.196 58.889,-18.108C62.413,-10.838 65.92,-4.161 71.264,2.022C72.635,3.608 78.185,1.507 76.635,-0.286C71.359,-6.391 67.901,-13.023 64.419,-20.207C62.855,-23.434 59.684,-26.063 57.349,-28.738C53.736,-32.876 50.11,-36.999 46.364,-41.017C42.775,-44.867 38.868,-48.398 35.413,-52.373C32.239,-56.026 29.396,-59.959 26.271,-63.653C19.958,-71.113 10.432,-76.218 5.795,-85.042C4.716,-87.097 -0.915,-85.229 0,-83.489" style="fill:rgb(48,50,61);fill-rule:nonzero;"/>
        </g>
        <g transform="matrix(1.37976,-0.0258181,0.0258181,1.37976,1823.57,548.611)">
            <path d="M0,4.7C2.632,3.742 5.366,3.099 8.001,2.14C8.608,1.919 10.5,0.847 9.589,-0.03C8.663,-0.923 6.787,-0.367 5.776,0C3.145,0.958 0.409,1.601 -2.225,2.56C-2.832,2.782 -4.724,3.853 -3.813,4.731C-2.887,5.623 -1.011,5.068 0,4.7" style="fill:rgb(48,50,61);fill-rule:nonzero;"/>
        </g>
        <g transform="matrix(1.37976,-0.0258181,0.0258181,1.37976,1833.42,757.457)">
            <path d="M0,-149.598C1.28,-142.907 3.52,-136.447 4.35,-129.669C5.278,-122.078 4.661,-114.245 4.32,-106.633C3.681,-92.365 2.637,-78.184 1.016,-63.992C-0.294,-52.523 -1.626,-40.988 -3.773,-29.641C-5.826,-18.794 -9.008,-7.146 -16.724,1.118C-19.082,3.645 -13.421,3.653 -12.046,2.181C3.047,-13.986 3.847,-40.037 6.366,-60.811C8.242,-76.279 9.452,-91.754 10.126,-107.318C10.445,-114.684 10.742,-122.021 10.275,-129.388C9.805,-136.831 7.189,-143.867 5.795,-151.151C5.394,-153.251 -0.424,-151.812 0,-149.598" style="fill:rgb(48,50,61);fill-rule:nonzero;"/>
        </g>
        <g transform="matrix(1.37976,-0.0258181,0.0258181,1.37976,1799.09,763.726)">
            <path d="M0,-36.216C1.178,-29.556 4.018,-23.287 4.158,-16.455C4.284,-10.358 2.878,-4.52 4.16,1.55C4.728,4.241 10.533,2.733 9.955,-0.003C8.597,-6.439 10.505,-12.748 9.955,-19.206C9.413,-25.584 6.904,-31.497 5.795,-37.769C5.32,-40.457 -0.488,-38.977 0,-36.216" style="fill:rgb(48,50,61);fill-rule:nonzero;"/>
        </g>
        <g transform="matrix(1.37976,-0.0258181,0.0258181,1.37976,1819.25,708.224)">
            <path d="M0,-110.321C-1.45,-100.723 0.2,-91.104 -1.651,-81.516C-3.624,-71.3 -6.751,-61.325 -8.617,-51.093C-10.24,-42.19 -10.494,-33.066 -11.42,-24.077C-12.331,-15.236 -14.496,-7.23 -17.603,1.057C-18.348,3.044 -12.538,2.32 -11.802,0.355C-8.686,-7.956 -6.611,-15.933 -5.618,-24.78C-4.607,-33.784 -4.284,-42.842 -2.815,-51.796C-1.136,-62.034 2.079,-72.048 4.15,-82.219C6.102,-91.802 4.351,-101.419 5.801,-111.023C6.155,-113.365 0.306,-112.344 0,-110.321" style="fill:rgb(48,50,61);fill-rule:nonzero;"/>
        </g>
        <g transform="matrix(1.37976,-0.0258181,0.0258181,1.37976,1698.32,702.171)">
            <path d="M0,48.727C15.005,43.103 29.905,38.236 42.737,28.318C49.025,23.458 54.138,17.153 60.77,12.771C66.219,9.171 71.697,6.154 75.826,0.947C77.316,-0.933 71.536,-0.345 70.475,0.994C66.391,6.145 60.744,8.838 55.47,12.523C49.661,16.581 44.938,22.04 39.473,26.549C27.243,36.638 12.396,41.195 -2.203,46.667C-6.024,48.099 -2.489,49.66 0,48.727" style="fill:rgb(48,50,61);fill-rule:nonzero;"/>
        </g>
        <g transform="matrix(1.37976,-0.0258181,0.0258181,1.37976,1689.93,806.567)">
            <path d="M0,-25.44C-1.57,-20.438 -4.02,-15.831 -6.722,-11.357C-9.576,-6.632 -14.173,-3.386 -17.699,0.791C-19.043,2.382 -13.383,1.685 -12.406,0.528C-9.077,-3.416 -4.531,-6.525 -1.805,-10.951C1.211,-15.846 4.012,-20.861 5.74,-26.37C6.196,-27.822 0.504,-27.048 0,-25.44" style="fill:rgb(48,50,61);fill-rule:nonzero;"/>
        </g>
        <g transform="matrix(1.37976,-0.0258181,0.0258181,1.37976,1802.51,828.581)">
            <path d="M0,-44.624C-1.146,-25.807 -17.916,-12.87 -28.607,1.032C-30.218,3.126 -24.365,2.692 -23.203,1.182C-12.317,-12.975 4.632,-26.162 5.799,-45.337C5.945,-47.75 0.12,-46.595 0,-44.624" style="fill:rgb(48,50,61);fill-rule:nonzero;"/>
        </g>
        <g transform="matrix(1.37976,-0.0258181,0.0258181,1.37976,1603.14,767.152)">
            <path d="M0,-73.228C2.702,-67.131 8.49,-63.436 13.335,-59.164C20.301,-53.02 26.598,-45.79 32.816,-38.904C39.01,-32.048 45.041,-25.01 50.738,-17.736C53.659,-14.008 56.469,-10.289 58.439,-5.965C59.738,-3.115 60.946,-0.294 63.141,1.988C64.298,3.19 69.718,1.098 68.574,-0.091C66.23,-2.528 65.051,-5.728 63.67,-8.757C62.065,-12.277 59.618,-15.283 57.299,-18.351C51.72,-25.728 45.588,-32.691 39.468,-39.619C33.426,-46.458 27.048,-52.995 20.605,-59.454C15.64,-64.43 8.741,-68.135 5.795,-74.781C5.069,-76.418 -0.575,-74.525 0,-73.228" style="fill:rgb(48,50,61);fill-rule:nonzero;"/>
        </g>
        <g transform="matrix(1.37976,-0.0258181,0.0258181,1.37976,1447.44,661.644)">
            <path d="M0,47.962C11.008,44.517 22.233,41.837 33.275,38.508C44.136,35.233 54.083,29.868 64.94,26.583C74.752,23.614 85.274,20.952 94.186,15.795C98.945,13.041 103.624,10.148 108.345,7.329C111.46,5.469 115.024,4.204 116.94,1.046C118.225,-1.071 112.465,-0.293 111.6,1.132C109.895,3.942 105.989,5.284 103.269,6.907C99.073,9.412 94.903,11.961 90.686,14.432C81.272,19.948 69.56,22.69 59.105,25.624C49.359,28.359 40.503,33.642 30.766,36.578C20.338,39.723 9.731,42.222 -0.666,45.477C-4.035,46.531 -3.42,49.033 0,47.962" style="fill:rgb(48,50,61);fill-rule:nonzero;"/>
        </g>
        <g transform="matrix(1.37976,-0.0258181,0.0258181,1.37976,1434.27,770.438)">
            <path d="M0,-28.381C0.311,-23.601 2.276,-19.409 4.307,-15.131C6.752,-9.981 7.645,-5.22 7.041,0.474C6.719,3.514 12.635,2.744 12.92,0.059C13.453,-4.968 13.032,-9.418 11.278,-14.177C9.477,-19.067 6.228,-23.426 5.879,-28.796C5.678,-31.895 -0.171,-31.019 0,-28.381" style="fill:rgb(48,50,61);fill-rule:nonzero;"/>
        </g>
        <g transform="matrix(1.37976,-0.0258181,0.0258181,1.37976,1607.34,434.075)">
            <path d="M0,164.317C1.895,158.783 4.307,153.446 5.717,147.755C7.215,141.713 6.519,134.64 6.605,128.449C6.81,113.78 7.498,99.395 9.189,84.814C10.757,71.299 12.175,57.766 13.06,44.187C13.333,39.984 16.253,38.828 19.362,36.568C29.959,28.867 40.888,21.538 52.313,15.12C58.23,11.796 64.326,8.713 70.762,6.522C74.262,5.33 78.728,4.238 81.753,7.005C83.403,8.514 90.479,5.609 89.003,4.259C80.96,-3.097 64.268,5.433 56.484,9.165C42.62,15.812 29.646,24.476 17.121,33.344C14.137,35.458 11.175,37.607 8.259,39.814C5.402,41.976 5.422,44.883 5.207,48.172C4.633,56.989 3.767,65.786 2.827,74.571C1.239,89.414 -0.657,104.084 -0.967,119.029C-1.125,126.69 -1.123,134.351 -1.378,142.01C-1.663,150.573 -4.926,157.599 -7.652,165.564C-8.285,167.414 -0.73,166.45 0,164.317" style="fill:rgb(48,50,61);fill-rule:nonzero;"/>
        </g>
        <g transform="matrix(1.37976,-0.0258181,0.0258181,1.37976,1297.83,730.503)">
            <path d="M0,-77.27C1.135,-76.129 1.78,-74.802 3.043,-73.756C4.596,-72.469 6.592,-71.698 8.361,-70.759C11.005,-69.357 13.145,-66.518 15.279,-64.459C17.43,-62.386 19.624,-60.359 21.829,-58.344C29.873,-50.992 38.346,-44.123 47.03,-37.545C55.771,-30.925 65.434,-26.003 74.805,-20.376C84.941,-14.289 92.676,-5.661 101.172,2.417C102.801,3.964 108.283,1.714 106.527,0.044C99.033,-7.079 92.138,-14.849 83.568,-20.702C74.718,-26.746 64.903,-31.217 56.032,-37.244C46.316,-43.845 37.248,-51.702 28.503,-59.522C24.024,-63.528 19.688,-67.692 15.429,-71.93C14.015,-73.337 12.146,-74.185 10.391,-75.066C7.98,-76.277 7.119,-77.868 5.354,-79.642C3.771,-81.234 -1.731,-79.011 0,-77.27" style="fill:rgb(48,50,61);fill-rule:nonzero;"/>
        </g>
        <g transform="matrix(1.37976,-0.0258181,0.0258181,1.37976,1440.17,721.833)">
            <path d="M0,6.613C3.83,6.038 7.458,4.687 11.024,3.228C11.479,3.043 15.386,1.445 13.887,0.419C12.354,-0.631 9.16,0.313 7.656,0.928C5.421,1.842 3.477,2.68 1.768,2.936C0.15,3.179 -3.074,3.921 -3.884,5.611C-4.667,7.244 -0.489,6.686 0,6.613" style="fill:rgb(48,50,61);fill-rule:nonzero;"/>
        </g>
        <g transform="matrix(1.37976,-0.0258181,0.0258181,1.37976,1122.64,818.384)">
            <path d="M0,119.59C0.859,115.681 1.989,112.851 5.674,110.891C8.741,109.26 12.04,108.041 15.261,106.758C23.018,103.669 30.711,100.458 38.548,97.569C53.299,92.133 68.333,87.484 83.533,83.482C114.424,75.35 146.137,70.45 178.025,68.691C242.575,65.13 309.314,75.151 370.235,96.628C379.086,99.748 387.813,103.207 396.356,107.093C400.958,109.186 405.464,111.48 409.902,113.901C411.972,115.029 414.005,116.223 416.03,117.426C418.011,118.603 420.425,120.895 422.632,121.503C430.134,123.569 437.635,125.634 445.136,127.7C448.985,128.76 452.834,129.82 456.683,130.88C457.451,131.091 458.44,131.612 457.786,131.119C458.938,131.987 460.088,132.856 461.238,133.725C468.017,138.841 474.794,143.958 481.572,149.075C482.931,150.101 485.2,149.437 486.232,148.263C503.432,128.706 521.269,108.14 525.578,81.514C529.411,57.835 517.591,34.252 495.605,24.361C488.865,21.329 481.537,19.636 474.383,17.909C466.433,15.989 458.529,13.887 450.598,11.891C435.296,8.041 419.923,4.475 404.511,1.09C372.771,-5.88 340.906,-11.679 308.762,-16.426C282.727,-20.271 256.687,-24.104 230.991,-29.866C228.114,-30.511 225.168,-26.464 228.998,-25.605C260.302,-18.586 292.11,-14.464 323.795,-9.613C356.039,-4.677 387.997,1.929 419.783,9.228C435.739,12.892 451.547,17.101 467.446,20.987C481.56,24.438 495.917,27.51 506.538,38.148C527.228,58.872 521.384,89.591 508.011,112.426C500.645,125.004 490.943,135.629 481.371,146.514C482.925,146.243 484.479,145.972 486.031,145.702C481.383,142.192 476.733,138.683 472.085,135.173C468.944,132.802 464.923,128.285 461.028,127.213C449.386,124.007 437.743,120.8 426.101,117.594C423.812,116.964 421.051,114.387 418.967,113.148C415.936,111.348 412.831,109.675 409.708,108.042C403.307,104.694 396.717,101.727 390.048,98.958C375.892,93.079 361.263,88.258 346.54,84.021C315.963,75.221 284.394,69.589 252.762,66.34C205.719,61.509 158.365,63.733 111.95,72.722C88.444,77.275 65.317,83.707 42.736,91.647C32.041,95.407 21.59,99.74 11.063,103.933C6.855,105.609 2.239,107.221 -1.216,110.24C-4.056,112.722 -5.097,116.477 -5.875,120.017C-6.509,122.899 -0.572,122.195 0,119.59" style="fill:rgb(48,50,61);fill-rule:nonzero;"/>
        </g>
        <g transform="matrix(1.37976,-0.0258181,0.0258181,1.37976,1480.04,391.837)">
            <path d="M0,-3.365C-0.583,-2.307 -0.974,-1.139 -1.319,0.015C-1.542,0.763 0.411,0.496 0.62,-0.203C0.933,-1.255 1.28,-2.314 1.812,-3.278C2.28,-4.128 0.331,-3.966 0,-3.365" style="fill:rgb(48,50,61);fill-rule:nonzero;"/>
        </g>
        <g transform="matrix(1.37976,-0.0258181,0.0258181,1.37976,1481.7,391.692)">
            <path d="M0,-3.36C-0.642,-2.406 -0.885,-1.295 -1.084,-0.18C-1.208,0.515 0.732,0.176 0.842,-0.442C1.021,-1.444 1.21,-2.497 1.789,-3.357C2.041,-3.731 1.577,-3.874 1.279,-3.874C0.868,-3.875 0.249,-3.729 0,-3.36" style="fill:rgb(48,50,61);fill-rule:nonzero;"/>
        </g>
        <g transform="matrix(1.37976,-0.0258181,0.0258181,1.37976,1482.34,391.598)">
            <path d="M0,-3.764C-0.578,-2.612 -0.824,-1.368 -0.84,-0.084C-0.851,0.788 1.09,0.405 1.099,-0.298C1.113,-1.455 1.29,-2.627 1.813,-3.67C2.255,-4.552 0.311,-4.385 0,-3.764" style="fill:rgb(48,50,61);fill-rule:nonzero;"/>
        </g>
        <g transform="matrix(1.37976,-0.0258181,0.0258181,1.37976,1482.26,391.449)">
            <path d="M0,-3.232C-0.526,-2.236 -0.587,-1.121 -0.781,-0.032C-0.925,0.775 1.031,0.456 1.157,-0.251C1.328,-1.21 1.348,-2.271 1.811,-3.147C2.265,-4.007 0.319,-3.836 0,-3.232" style="fill:rgb(48,50,61);fill-rule:nonzero;"/>
        </g>
        <g transform="matrix(1.37976,-0.0258181,0.0258181,1.37976,1482.52,392.157)">
            <path d="M0,-3.626C-0.509,-2.365 -0.761,-1.041 -0.782,0.317C-0.79,0.802 1.14,0.479 1.15,-0.2C1.17,-1.473 1.446,-2.728 1.922,-3.906C2.132,-4.428 0.233,-4.203 0,-3.626" style="fill:rgb(48,50,61);fill-rule:nonzero;"/>
        </g>
        <g transform="matrix(1.37976,-0.0258181,0.0258181,1.37976,1478.2,391.623)">
            <path d="M0,-4.074C-0.723,-2.901 -1.252,-1.633 -1.793,-0.369C-2.221,0.631 -0.276,0.574 0.046,-0.178C0.586,-1.441 1.116,-2.71 1.839,-3.883C2.096,-4.299 1.618,-4.617 1.261,-4.655C0.775,-4.705 0.259,-4.494 0,-4.074" style="fill:rgb(48,50,61);fill-rule:nonzero;"/>
        </g>
        <g transform="matrix(1.37976,-0.0258181,0.0258181,1.37976,1322.03,453.974)">
            <path d="M0,2.96C1.95,2.96 6.244,0 2.342,0C0.392,0 -3.902,2.96 0,2.96" style="fill:rgb(48,50,61);fill-rule:nonzero;"/>
        </g>
        <g transform="matrix(1.37976,-0.0258181,0.0258181,1.37976,1319.64,455.812)">
            <path d="M0,1.085C0.068,1.26 0.135,1.43 0.223,1.595C0.804,2.688 2.498,2.434 3.483,2.169C4.174,1.984 4.873,1.689 5.426,1.225C5.671,1.02 6.233,0.446 6.019,0.043C5.931,-0.123 5.863,-0.293 5.796,-0.468C5.355,-1.603 3.403,-1.274 2.536,-1.042C1.846,-0.857 1.146,-0.561 0.593,-0.098C0.309,0.141 -0.17,0.646 0,1.085" style="fill:rgb(48,50,61);fill-rule:nonzero;"/>
        </g>
        <g transform="matrix(1.37976,-0.0258181,0.0258181,1.37976,1319.7,456.617)">
            <path d="M0,0.692C0.076,0.982 0.18,1.263 0.255,1.552C0.607,2.896 2.618,2.835 3.632,2.563C4.66,2.287 6.403,1.344 6.051,0C5.975,-0.29 5.872,-0.571 5.796,-0.861C5.444,-2.204 3.433,-2.143 2.419,-1.871C1.392,-1.596 -0.352,-0.653 0,0.692" style="fill:rgb(48,50,61);fill-rule:nonzero;"/>
        </g>
        <g transform="matrix(1.37976,-0.0258181,0.0258181,1.37976,1124.43,558.034)">
            <path d="M0,5.802C0.745,3.63 1.452,1.467 3.19,-0.132C4.008,-0.884 2.093,-0.826 1.649,-0.418C-0.275,1.352 -1.1,3.641 -1.929,6.056C-2.145,6.686 -0.215,6.429 0,5.802" style="fill:rgb(48,50,61);fill-rule:nonzero;"/>
        </g>
        <g transform="matrix(1.37976,-0.0258181,0.0258181,1.37976,1124.47,558.755)">
            <path d="M0,4.799C-0.615,4.005 0.638,2.561 1.086,1.974C1.74,1.118 2.488,0.33 3.249,-0.431C4.028,-1.21 2.126,-1.089 1.718,-0.681C0.748,0.29 -0.194,1.286 -1.009,2.394C-1.602,3.2 -2.552,4.561 -1.801,5.529C-1.429,6.009 0.432,5.356 0,4.799" style="fill:rgb(48,50,61);fill-rule:nonzero;"/>
        </g>
        <g transform="matrix(1.37976,-0.0258181,0.0258181,1.37976,1123.45,558.894)">
            <path d="M0,5.302C-0.31,4.307 0.447,3.13 0.927,2.306C1.542,1.248 2.297,0.186 3.212,-0.636C3.543,-0.934 2.92,-0.963 2.756,-0.949C2.327,-0.914 1.793,-0.785 1.463,-0.489C0.556,0.326 -0.172,1.368 -0.822,2.391C-1.396,3.292 -2.282,4.694 -1.932,5.82C-1.793,6.265 0.128,5.712 0,5.302" style="fill:rgb(48,50,61);fill-rule:nonzero;"/>
        </g>
        <g transform="matrix(1.37976,-0.0258181,0.0258181,1.37976,1122.35,558.925)">
            <path d="M0,5.459C0.291,3.448 1.435,1.47 3.034,0.208C4.064,-0.606 2.472,-1.082 1.788,-0.542C-0.129,0.971 -1.593,3.205 -1.946,5.647C-2.076,6.541 -0.112,6.236 0,5.459" style="fill:rgb(48,50,61);fill-rule:nonzero;"/>
        </g>
        <g transform="matrix(1.37976,-0.0258181,0.0258181,1.37976,1126.87,564.431)">
            <path d="M0,-2.927C-0.21,-1.75 -1.382,-0.944 -1.876,0.118C-2.333,1.099 -0.383,1.051 -0.038,0.31C0.528,-0.905 1.707,-1.711 1.953,-3.09C2.12,-4.026 0.148,-3.758 0,-2.927" style="fill:rgb(48,50,61);fill-rule:nonzero;"/>
        </g>
        <g transform="matrix(1.37976,-0.0258181,0.0258181,1.37976,1127.08,564.564)">
            <path d="M0,-3.075C-0.636,-2.108 -1.192,-1.094 -1.772,-0.094C-2.006,0.308 -1.575,0.53 -1.229,0.549C-0.798,0.571 -0.192,0.403 0.041,0.002C0.622,-0.999 1.177,-2.013 1.813,-2.979C2.073,-3.374 1.594,-3.604 1.27,-3.622C0.818,-3.646 0.259,-3.469 0,-3.075" style="fill:rgb(48,50,61);fill-rule:nonzero;"/>
        </g>
        <g transform="matrix(1.37976,-0.0258181,0.0258181,1.37976,1127.19,564.687)">
            <path d="M0,-2.772C-0.639,-1.839 -1.456,-1.047 -2.095,-0.113C-2.365,0.282 -1.866,0.534 -1.544,0.554C-1.078,0.583 -0.547,0.396 -0.276,0.001C0.362,-0.932 1.179,-1.724 1.818,-2.658C2.089,-3.053 1.589,-3.305 1.268,-3.325C0.801,-3.355 0.271,-3.168 0,-2.772" style="fill:rgb(48,50,61);fill-rule:nonzero;"/>
        </g>
        <g transform="matrix(1.37976,-0.0258181,0.0258181,1.37976,1127.46,564.75)">
            <path d="M0,-2.939C-0.471,-1.884 -1.171,-0.971 -1.78,0.004C-2.195,0.667 -0.287,0.392 -0.009,-0.054C0.649,-1.107 1.409,-2.095 1.917,-3.234C2.083,-3.606 1.253,-3.547 1.116,-3.526C0.752,-3.47 0.168,-3.316 0,-2.939" style="fill:rgb(48,50,61);fill-rule:nonzero;"/>
        </g>
        <g transform="matrix(1.37976,-0.0258181,0.0258181,1.37976,1128.02,564.604)">
            <path d="M0,-2.911C-0.575,-1.843 -1.147,-0.772 -1.692,0.312C-1.864,0.655 -1.01,0.571 -0.904,0.553C-0.551,0.495 0.04,0.354 0.22,-0.005C0.765,-1.089 1.337,-2.159 1.912,-3.227C2.094,-3.566 1.223,-3.485 1.124,-3.469C0.761,-3.409 0.193,-3.268 0,-2.911" style="fill:rgb(48,50,61);fill-rule:nonzero;"/>
        </g>
        <g transform="matrix(0.307041,1.34541,1.34541,-0.307041,1133.69,547.822)">
            <path d="M-6.147,-6.537C-6.147,-6.537 3.34,-9.585 8.255,-6.537" style="fill:none;stroke:rgb(48,50,61);stroke-width:4.35px;"/>
        </g>
        <g transform="matrix(1.37976,-0.0258181,0.0258181,1.37976,1123.17,544.05)">
            <path d="M0,-1.952C0.318,-1.12 0.472,-0.263 0.483,0.626C0.489,1.082 2.423,0.753 2.415,0.109C2.403,-0.781 2.25,-1.639 1.932,-2.47C1.716,-3.034 -0.188,-2.442 0,-1.952" style="fill:rgb(48,50,61);fill-rule:nonzero;"/>
        </g>
        <g transform="matrix(1.37976,-0.0258181,0.0258181,1.37976,1124.05,543.627)">
            <path d="M0,-1.255L0,0.517C0,1.043 1.932,0.699 1.932,0L1.932,-1.773C1.932,-2.298 0,-1.954 0,-1.255" style="fill:rgb(48,50,61);fill-rule:nonzero;"/>
        </g>
        <g transform="matrix(1.37976,-0.0258181,0.0258181,1.37976,1124.03,542.332)">
            <path d="M0,-1.041C0.069,-0.565 0.069,-0.089 0.069,0.391C0.07,1.384 2.024,1.072 2.023,0.232C2.023,-0.366 2.019,-0.965 1.932,-1.559C1.805,-2.425 -0.132,-1.944 0,-1.041" style="fill:rgb(48,50,61);fill-rule:nonzero;"/>
        </g>
        <g transform="matrix(1.37976,-0.0258181,0.0258181,1.37976,1124.13,541.978)">
            <path d="M0,-1.028C0.078,-0.491 0.153,0.04 0.161,0.583C0.166,0.882 2.101,0.597 2.093,0.066C2.084,-0.477 2.009,-1.009 1.932,-1.546C1.879,-1.91 -0.069,-1.504 0,-1.028" style="fill:rgb(48,50,61);fill-rule:nonzero;"/>
        </g>
        <g transform="matrix(1.37976,-0.0258181,0.0258181,1.37976,1690.31,772.772)">
            <path d="M0,-3.93C0.153,-2.433 0.166,-0.933 0.166,0.57C0.166,0.934 2.098,0.641 2.098,0.052C2.098,-1.451 2.085,-2.951 1.932,-4.448C1.889,-4.864 -0.057,-4.483 0,-3.93" style="fill:rgb(48,50,61);fill-rule:nonzero;"/>
        </g>
        <g transform="matrix(1.37976,-0.0258181,0.0258181,1.37976,1688.94,773.305)">
            <path d="M0,-4.798C0.156,-3.077 0.313,-1.36 0.325,0.368C0.332,1.312 2.278,0.962 2.272,0.185C2.26,-1.655 2.099,-3.484 1.932,-5.316C1.859,-6.11 -0.078,-5.658 0,-4.798" style="fill:rgb(48,50,61);fill-rule:nonzero;"/>
        </g>
        <g transform="matrix(1.37976,-0.0258181,0.0258181,1.37976,1689.63,773.101)">
            <path d="M0,-5.826C0.531,-3.745 1.266,-1.567 0.503,0.548C0.292,1.135 2.211,0.887 2.429,0.282C3.219,-1.91 2.483,-4.183 1.932,-6.344C1.774,-6.961 -0.16,-6.451 0,-5.826" style="fill:rgb(48,50,61);fill-rule:nonzero;"/>
        </g>
        <g transform="matrix(1.37976,-0.0258181,0.0258181,1.37976,1693.05,771.642)">
            <path d="M0,-2.815C-0.001,-1.717 -0.038,-0.651 -0.324,0.415C-0.46,0.919 1.445,0.635 1.588,0.104C1.893,-1.027 1.932,-2.167 1.932,-3.333C1.932,-3.734 0,-3.429 0,-2.815" style="fill:rgb(48,50,61);fill-rule:nonzero;"/>
        </g>
        <g transform="matrix(1.37976,-0.0258181,0.0258181,1.37976,1693.75,773.281)">
            <path d="M0,-3.875C-0.167,-2.608 -0.44,-1.325 -1.169,-0.251C-1.868,0.779 -0.065,1.156 0.464,0.376C1.359,-0.942 1.756,-2.435 1.963,-4C2.099,-5.031 0.122,-4.798 0,-3.875" style="fill:rgb(48,50,61);fill-rule:nonzero;"/>
        </g>
        <g transform="matrix(1.37976,-0.0258181,0.0258181,1.37976,1695.72,766.24)">
            <path d="M0,0.674C0.594,0.849 1.22,0.859 1.834,0.859C2.297,0.86 2.804,0.738 3.2,0.493C3.504,0.305 3.464,0.082 3.09,0.082C2.581,0.081 2.081,0.079 1.59,-0.066C1.184,-0.186 0.604,0.014 0.24,0.183C0.064,0.265 -0.411,0.553 0,0.674" style="fill:rgb(48,50,61);fill-rule:nonzero;"/>
        </g>
        <g transform="matrix(1.37976,-0.0258181,0.0258181,1.37976,1694.58,765.733)">
            <path d="M0,0.648C1.12,0.832 2.242,0.978 3.379,0.991C3.798,0.996 4.382,0.828 4.663,0.495C4.96,0.143 4.408,0.052 4.172,0.049C3.18,0.038 2.194,-0.114 1.217,-0.275C0.773,-0.348 0.204,-0.177 -0.149,0.091C-0.468,0.333 -0.375,0.586 0,0.648" style="fill:rgb(48,50,61);fill-rule:nonzero;"/>
        </g>
        <g transform="matrix(1.37976,-0.0258181,0.0258181,1.37976,1695.86,765.19)">
            <path d="M0,1.223C1.079,1.389 2.169,1.389 3.247,1.223C3.655,1.16 4.249,0.962 4.321,0.476C4.389,0.018 3.792,-0.152 3.444,-0.098C2.516,0.045 1.619,0.045 0.691,-0.098C0.25,-0.166 -0.356,0.068 -0.571,0.476C-0.801,0.913 -0.371,1.166 0,1.223" style="fill:rgb(48,50,61);fill-rule:nonzero;"/>
        </g>
        <g transform="matrix(1.37976,-0.0258181,0.0258181,1.37976,1695.85,765.662)">
            <path d="M0,1.167C1.271,1.334 2.553,1.334 3.833,1.334C4.284,1.334 4.853,1.203 5.101,0.779C5.33,0.389 4.907,0.109 4.55,0.109C3.27,0.108 1.988,0.109 0.717,-0.058C-0.113,-0.167 -1.302,0.996 0,1.167" style="fill:rgb(48,50,61);fill-rule:nonzero;"/>
        </g>
        <g transform="matrix(1.37976,-0.0258181,0.0258181,1.37976,1792.98,707.888)">
            <path d="M0,2.688C0.732,1.963 1.529,1.273 2.45,0.797C2.765,0.633 3.221,0.233 2.918,-0.154C2.632,-0.52 1.978,-0.462 1.612,-0.273C0.403,0.354 -0.639,1.214 -1.604,2.168C-1.924,2.485 -1.769,2.924 -1.366,3.054C-0.892,3.208 -0.346,3.029 0,2.688" style="fill:rgb(48,50,61);fill-rule:nonzero;"/>
        </g>
        <g transform="matrix(1.37976,-0.0258181,0.0258181,1.37976,1790.19,707.344)">
            <path d="M0,3.887C1.81,2.885 3.524,1.722 5.334,0.72C5.654,0.543 5.859,0.074 5.472,-0.15C5.039,-0.402 4.494,-0.22 4.096,0C2.286,1.002 0.571,2.165 -1.238,3.167C-1.559,3.345 -1.764,3.813 -1.376,4.037C-0.943,4.289 -0.398,4.108 0,3.887" style="fill:rgb(48,50,61);fill-rule:nonzero;"/>
        </g>
        <g transform="matrix(1.37976,-0.0258181,0.0258181,1.37976,1789.68,707.574)">
            <path d="M0,4.219C1.837,3.496 3.236,2.067 5,1.219C6.197,0.644 5.119,-0.274 4.172,0.182C2.41,1.029 0.993,2.465 -0.828,3.182C-1.153,3.31 -1.591,3.75 -1.302,4.112C-0.998,4.493 -0.382,4.369 0,4.219" style="fill:rgb(48,50,61);fill-rule:nonzero;"/>
        </g>
        <g transform="matrix(1.37976,-0.0258181,0.0258181,1.37976,1790.69,707.722)">
            <path d="M0,4.368C1.628,2.983 3.644,2.171 5.333,0.868C6.372,0.066 4.817,-0.639 4.044,-0.042C2.354,1.262 0.341,2.072 -1.289,3.458C-2.288,4.308 -0.751,5.007 0,4.368" style="fill:rgb(48,50,61);fill-rule:nonzero;"/>
        </g>
        <g transform="matrix(1.37976,-0.0258181,0.0258181,1.37976,1790.22,707.339)">
            <path d="M0,4.294C1.645,3.138 3.291,1.863 5.203,1.18C6.346,0.772 6.027,-0.537 4.855,-0.119C2.595,0.689 0.674,2.065 -1.275,3.434C-2.35,4.189 -0.765,4.831 0,4.294" style="fill:rgb(48,50,61);fill-rule:nonzero;"/>
        </g>
        <g transform="matrix(1.37976,-0.0258181,0.0258181,1.37976,1784.17,708.586)">
            <path d="M0,6.06C3.234,4.461 6.004,2.115 9.167,0.393C10.302,-0.224 8.535,-0.255 8.022,0.024C4.861,1.745 2.086,4.093 -1.145,5.691C-2.3,6.262 -0.516,6.315 0,6.06" style="fill:rgb(48,50,61);fill-rule:nonzero;"/>
        </g>
        <g transform="matrix(1.37976,-0.0258181,0.0258181,1.37976,1782.54,710.292)">
            <path d="M0,6.081C2.774,3.953 5.515,1.793 8.531,0.012C9.341,-0.466 7.396,-0.221 7.059,-0.022C3.945,1.815 1.118,4.046 -1.744,6.242C-2.142,6.547 -0.358,6.356 0,6.081" style="fill:rgb(48,50,61);fill-rule:nonzero;"/>
        </g>
        <g transform="matrix(1.37976,-0.0258181,0.0258181,1.37976,1782.92,710.27)">
            <path d="M0,6.459C2.646,4.483 5.343,2.597 8.288,1.089C9.461,0.488 8.409,-0.581 7.425,-0.077C4.334,1.505 1.49,3.479 -1.287,5.553C-2.34,6.338 -0.777,7.04 0,6.459" style="fill:rgb(48,50,61);fill-rule:nonzero;"/>
        </g>
        <g transform="matrix(1.37976,-0.0258181,0.0258181,1.37976,1772.57,713.757)">
            <path d="M0,9.237C3.929,6.848 7.341,3.755 10.509,0.443C11.292,-0.376 9.398,-0.329 8.96,0.13C5.894,3.337 2.607,6.354 -1.197,8.669C-2.314,9.348 -0.619,9.613 0,9.237" style="fill:rgb(48,50,61);fill-rule:nonzero;"/>
        </g>
        <g transform="matrix(1.37976,-0.0258181,0.0258181,1.37976,1770.57,715.186)">
            <path d="M0,9.198C3.244,5.575 7.627,3.284 11.664,0.68C12.767,-0.031 11.149,-0.605 10.404,-0.124C6.232,2.567 1.752,4.949 -1.6,8.691C-2.404,9.59 -0.542,9.803 0,9.198" style="fill:rgb(48,50,61);fill-rule:nonzero;"/>
        </g>
        <g transform="matrix(1.37976,-0.0258181,0.0258181,1.37976,1768.86,716.527)">
            <path d="M0,9.25C3.455,5.568 7.769,2.917 11.667,-0.25C12.067,-0.575 10.273,-0.377 9.921,-0.091C6.023,3.075 1.71,5.727 -1.746,9.409C-2.137,9.825 -0.31,9.58 0,9.25" style="fill:rgb(48,50,61);fill-rule:nonzero;"/>
        </g>
        <g transform="matrix(1.37976,-0.0258181,0.0258181,1.37976,1769.36,716.497)">
            <path d="M0,9.864C3.019,5.656 7.629,3.096 11.866,0.296C12.958,-0.426 11.28,-0.677 10.669,-0.273C6.207,2.676 1.38,5.397 -1.799,9.826C-2.312,10.541 -0.365,10.372 0,9.864" style="fill:rgb(48,50,61);fill-rule:nonzero;"/>
        </g>
        <g transform="matrix(1.37976,-0.0258181,0.0258181,1.37976,1773.26,713.957)">
            <path d="M0,8.246C3.773,5.617 7.152,2.383 11.322,0.364C12.486,-0.2 10.722,-0.375 10.152,-0.099C5.853,1.983 2.365,5.308 -1.525,8.018C-2.389,8.621 -0.438,8.551 0,8.246" style="fill:rgb(48,50,61);fill-rule:nonzero;"/>
        </g>
        <g transform="matrix(1.37976,-0.0258181,0.0258181,1.37976,1795.77,714.337)">
            <path d="M0,-1.656C1.158,-1.283 1.885,-0.242 2.705,0.592C3.169,1.063 4.998,0.349 4.502,-0.156C3.609,-1.063 2.803,-2.168 1.541,-2.574C1.089,-2.719 0.582,-2.63 0.175,-2.387C-0.036,-2.261 -0.456,-1.802 0,-1.656" style="fill:rgb(48,50,61);fill-rule:nonzero;"/>
        </g>
        <g transform="matrix(1.37976,-0.0258181,0.0258181,1.37976,1795.88,716.386)">
            <path d="M0,-4.17C1.098,-2.528 2.21,-0.899 3.167,0.83C3.601,1.614 5.436,0.876 4.933,-0.032C3.976,-1.762 2.863,-3.391 1.766,-5.032C1.263,-5.784 -0.573,-5.026 0,-4.17" style="fill:rgb(48,50,61);fill-rule:nonzero;"/>
        </g>
        <g transform="matrix(1.37976,-0.0258181,0.0258181,1.37976,1792.8,713.992)">
            <path d="M0,-2.838C1.609,-1.867 3.153,-0.823 4.5,0.495C4.841,0.829 6.576,0.101 6.326,-0.144C4.979,-1.463 3.435,-2.506 1.826,-3.478C1.512,-3.667 0.892,-3.45 0.588,-3.344C0.52,-3.319 -0.277,-3.006 0,-2.838" style="fill:rgb(48,50,61);fill-rule:nonzero;"/>
        </g>
        <g transform="matrix(1.37976,-0.0258181,0.0258181,1.37976,1792.22,715.06)">
            <path d="M0,-2.438C2.165,-2.104 3.757,-0.821 5.125,0.82C5.644,1.441 7.49,0.705 6.902,0C5.239,-1.996 3.296,-3.34 0.695,-3.743C-0.189,-3.879 -1.298,-2.639 0,-2.438" style="fill:rgb(48,50,61);fill-rule:nonzero;"/>
        </g>
        <g transform="matrix(1.37976,-0.0258181,0.0258181,1.37976,1795.54,723.359)">
            <path d="M0,-8.42C2.339,-5.799 3.621,-2.531 5.094,0.611C5.438,1.345 7.334,0.752 7.025,0.093C5.512,-3.137 4.189,-6.514 1.785,-9.21C1.29,-9.765 -0.557,-9.044 0,-8.42" style="fill:rgb(48,50,61);fill-rule:nonzero;"/>
        </g>
        <g transform="matrix(1.37976,-0.0258181,0.0258181,1.37976,1806.38,767.446)">
            <path d="M0,-5.942C-0.376,-3.87 -1.114,-1.877 -1.333,0.225C-1.41,0.965 0.53,0.588 0.595,-0.032C0.814,-2.134 1.552,-4.127 1.928,-6.199C2.057,-6.907 0.114,-6.571 0,-5.942" style="fill:rgb(48,50,61);fill-rule:nonzero;"/>
        </g>
        <g transform="matrix(1.37976,-0.0258181,0.0258181,1.37976,1805.83,768.505)">
            <path d="M0,-5.773C-1.478,-4.153 -1.56,-1.823 -2.242,0.165C-2.387,0.588 -0.509,0.356 -0.332,-0.159C0.309,-2.027 0.371,-4.368 1.758,-5.887C2.19,-6.361 0.326,-6.13 0,-5.773" style="fill:rgb(48,50,61);fill-rule:nonzero;"/>
        </g>
        <g transform="matrix(1.37976,-0.0258181,0.0258181,1.37976,1805.34,770.725)">
            <path d="M0,-7.9C-1.295,-5.458 -2.332,-2.919 -2.885,-0.204C-3.091,0.806 -1.108,0.591 -0.922,-0.326C-0.396,-2.905 0.631,-5.313 1.859,-7.63C2.389,-8.629 0.427,-8.706 0,-7.9" style="fill:rgb(48,50,61);fill-rule:nonzero;"/>
        </g>
        <g transform="matrix(1.37976,-0.0258181,0.0258181,1.37976,1804.95,771.222)">
            <path d="M0,-8.106C-1.594,-5.682 -2.353,-2.855 -2.571,0.019C-2.624,0.71 -0.692,0.308 -0.649,-0.259C-0.439,-3.016 0.248,-5.802 1.779,-8.134C2.228,-8.816 0.306,-8.572 0,-8.106" style="fill:rgb(48,50,61);fill-rule:nonzero;"/>
        </g>
        <g transform="matrix(1.37976,-0.0258181,0.0258181,1.37976,1805.53,770.893)">
            <path d="M0,-9.247C-1.736,-6.281 -3.229,-3.311 -3.173,0.203C-3.165,0.688 -1.23,0.348 -1.241,-0.315C-1.295,-3.738 0.236,-6.655 1.92,-9.532C2.156,-9.935 0.314,-9.784 0,-9.247" style="fill:rgb(48,50,61);fill-rule:nonzero;"/>
        </g>
        <g transform="matrix(1.37976,-0.0258181,0.0258181,1.37976,1767.28,717.487)">
            <path d="M0,10.195C2.08,9.138 3.947,7.084 5.74,5.586C7.913,3.771 10.372,2.523 12.23,0.302C12.72,-0.282 10.805,-0.08 10.453,0.341C8.713,2.42 6.428,3.856 4.221,5.379C2.387,6.643 0.824,8.747 -1.162,9.757C-2.316,10.343 -0.554,10.477 0,10.195" style="fill:rgb(48,50,61);fill-rule:nonzero;"/>
        </g>
        <g transform="matrix(1.37976,-0.0258181,0.0258181,1.37976,1760.2,728.72)">
            <path d="M0,6.533C1.407,5.741 2.499,4.618 3.68,3.534C4.83,2.477 6.012,1.478 7.022,0.281C7.532,-0.323 5.606,-0.141 5.239,0.294C4.307,1.398 3.222,2.33 2.15,3.293C1.07,4.265 0.105,5.333 -1.174,6.054C-2.308,6.692 -0.573,6.856 0,6.533" style="fill:rgb(48,50,61);fill-rule:nonzero;"/>
        </g>
        <g transform="matrix(1.37976,-0.0258181,0.0258181,1.37976,1762.13,727.629)">
            <path d="M0,6.247C0.787,5.426 1.805,4.856 2.636,4.076C3.781,3 4.879,1.874 6.06,0.835C7.043,-0.029 5.49,-0.587 4.796,0.023C3.727,0.964 2.704,1.953 1.68,2.944C0.645,3.946 -0.606,4.696 -1.602,5.733C-2.434,6.601 -0.563,6.834 0,6.247" style="fill:rgb(48,50,61);fill-rule:nonzero;"/>
        </g>
        <g transform="matrix(1.37976,-0.0258181,0.0258181,1.37976,1778.57,726.908)">
            <path d="M0,-3.958C1.237,-4.56 2.522,-5.046 3.737,-5.693C4.909,-6.317 3.842,-7.114 2.933,-6.642C1.031,-5.654 -0.454,-4.026 -2.266,-2.875C-4.535,-1.432 -6.551,0.298 -8.443,2.204C-9.271,3.038 -7.382,3.156 -6.863,2.634C-5.072,0.831 -3.172,-0.79 -1.029,-2.164C0.602,-3.209 2.036,-4.81 3.737,-5.693C3.469,-6.009 3.201,-6.326 2.933,-6.642C1.718,-5.994 0.433,-5.508 -0.805,-4.906C-2.003,-4.323 -0.915,-3.513 0,-3.958" style="fill:rgb(48,50,61);fill-rule:nonzero;"/>
        </g>
        <g transform="matrix(1.37976,-0.0258181,0.0258181,1.37976,1782.5,711.514)">
            <path d="M0,5.801C1.458,5.324 2.558,4.331 3.853,3.52C5.592,2.43 7.706,0.643 9.986,1.856C11.165,2.482 12.074,3.509 12.265,4.835C12.382,5.65 14.319,5.177 14.196,4.318C13.89,2.178 11.065,-0.383 8.757,-0.053C7.329,0.151 6.079,0.635 4.831,1.374C3.228,2.323 1.435,4.022 -0.322,4.597C-1.474,4.973 -1.172,6.184 0,5.801" style="fill:rgb(48,50,61);fill-rule:nonzero;"/>
        </g>
        <g transform="matrix(1.37976,-0.0258181,0.0258181,1.37976,1804.36,768.384)">
            <path d="M0,-8.853C-0.037,-5.59 -1.963,-2.973 -2.147,0.262C-2.191,1.036 -0.254,0.638 -0.218,0.012C-0.034,-3.223 1.893,-5.84 1.93,-9.103C1.938,-9.889 0.007,-9.468 0,-8.853" style="fill:rgb(48,50,61);fill-rule:nonzero;"/>
        </g>
        <g transform="matrix(1.37976,-0.0258181,0.0258181,1.37976,1806.36,762.349)">
            <path d="M0,-4.816C-0.33,-3.976 -0.715,-3.199 -1.198,-2.436C-1.674,-1.685 -2.118,-1.024 -2.248,-0.125C-2.385,0.824 -0.415,0.546 -0.295,-0.288C-0.186,-1.047 0.227,-1.619 0.641,-2.246C1.138,-2.996 1.511,-3.79 1.84,-4.625C2.239,-5.64 0.3,-5.577 0,-4.816" style="fill:rgb(48,50,61);fill-rule:nonzero;"/>
        </g>
        <g transform="matrix(1.37976,-0.0258181,0.0258181,1.37976,1805,769.301)">
            <path d="M0,-11.095C-1.011,-9.799 -1.046,-8.237 -1.422,-6.692C-1.961,-4.478 -2.422,-2.496 -2.605,-0.206C-2.673,0.636 -0.724,0.275 -0.668,-0.426C-0.524,-2.214 -0.401,-3.926 0.144,-5.643C0.695,-7.38 0.669,-9.547 1.811,-11.011C2.372,-11.731 0.412,-11.623 0,-11.095" style="fill:rgb(48,50,61);fill-rule:nonzero;"/>
        </g>
        <g transform="matrix(1.37976,-0.0258181,0.0258181,1.37976,1804.74,768.323)">
            <path d="M0,-11.669C-1.581,-7.84 -2.147,-4.241 -2.033,-0.072C-2.009,0.829 -0.071,0.444 -0.092,-0.276C-0.202,-4.305 0.28,-7.831 1.818,-11.555C2.208,-12.498 0.273,-12.332 0,-11.669" style="fill:rgb(48,50,61);fill-rule:nonzero;"/>
        </g>
        <g transform="matrix(1.37976,-0.0258181,0.0258181,1.37976,1815.42,765.282)">
            <path d="M0,-4.076C-1.194,-2.682 -2.376,-1.108 -4.111,-0.363C-4.238,-0.309 -4.977,0.013 -4.669,0.257C-4.368,0.494 -3.718,0.318 -3.414,0.188C-1.215,-0.756 0.238,-2.382 1.766,-4.163C2.054,-4.499 1.517,-4.57 1.288,-4.558C0.877,-4.538 0.284,-4.407 0,-4.076" style="fill:rgb(48,50,61);fill-rule:nonzero;"/>
        </g>
        <g transform="matrix(1.37976,-0.0258181,0.0258181,1.37976,1813.29,763.486)">
            <path d="M0,-1.967C-0.411,-1.202 -1.25,-0.461 -2.059,-0.135C-2.156,-0.095 -2.93,0.225 -2.629,0.437C-2.321,0.654 -1.684,0.464 -1.381,0.342C-0.107,-0.172 1.242,-1.058 1.908,-2.297C2.082,-2.621 1.219,-2.524 1.129,-2.508C0.781,-2.448 0.187,-2.314 0,-1.967" style="fill:rgb(48,50,61);fill-rule:nonzero;"/>
        </g>
        <g transform="matrix(1.37976,-0.0258181,0.0258181,1.37976,1812.58,765.097)">
            <path d="M0,-2.394C-0.167,-1.868 -0.376,-1.574 -0.864,-1.331C-1.432,-1.049 -1.994,-0.804 -2.522,-0.447C-2.866,-0.215 -3.011,0.291 -2.625,0.557C-2.207,0.846 -1.627,0.704 -1.239,0.442C-0.678,0.064 -0.019,-0.139 0.556,-0.499C1.183,-0.893 1.625,-1.464 1.848,-2.168C2.188,-3.24 0.261,-3.217 0,-2.394" style="fill:rgb(48,50,61);fill-rule:nonzero;"/>
        </g>
        <g transform="matrix(1.37976,-0.0258181,0.0258181,1.37976,1819.74,766.429)">
            <path d="M0,-9.281C-1.342,-7.97 -2.2,-6.286 -3.36,-4.825C-4.71,-3.125 -6.46,-1.712 -8.467,-0.872C-9.697,-0.357 -8.595,0.543 -7.645,0.145C-5.839,-0.61 -4.271,-1.766 -2.872,-3.121C-1.121,-4.818 -0.138,-7.109 1.594,-8.801C2.442,-9.63 0.557,-9.824 0,-9.281" style="fill:rgb(48,50,61);fill-rule:nonzero;"/>
        </g>
        <g transform="matrix(1.37976,-0.0258181,0.0258181,1.37976,1816.13,765.244)">
            <path d="M0,-4.932C-0.5,-3.999 -1.293,-3.318 -2.026,-2.572C-2.839,-1.745 -3.581,-0.85 -4.647,-0.337C-5.862,0.248 -4.734,0.771 -3.907,0.373C-2.729,-0.194 -1.805,-0.946 -0.897,-1.88C0.03,-2.834 1.151,-3.75 1.787,-4.936C2.198,-5.703 0.274,-5.444 0,-4.932" style="fill:rgb(48,50,61);fill-rule:nonzero;"/>
        </g>
        <g transform="matrix(1.37976,-0.0258181,0.0258181,1.37976,1810.67,772.932)">
            <path d="M0,-6.227C0.171,-4.98 -1.024,-3.974 -1.666,-3.018C-2.509,-1.762 -3.42,-0.552 -4.581,0.427C-5.423,1.138 -3.496,1.096 -3.04,0.712C-1.669,-0.444 -0.622,-1.885 0.372,-3.366C1.101,-4.451 2.127,-5.326 1.932,-6.745C1.847,-7.365 -0.096,-6.924 0,-6.227" style="fill:rgb(48,50,61);fill-rule:nonzero;"/>
        </g>
        <g transform="matrix(1.37976,-0.0258181,0.0258181,1.37976,1811.2,775.267)">
            <path d="M0,-7.712C-0.048,-6.171 -1.074,-5.083 -1.949,-3.909C-3.006,-2.489 -3.928,-1.001 -5.198,0.248C-6.004,1.04 -4.1,1.002 -3.651,0.561C-2.297,-0.771 -1.247,-2.33 -0.15,-3.872C0.76,-5.153 1.88,-6.301 1.932,-7.956C1.956,-8.752 0.02,-8.347 0,-7.712" style="fill:rgb(48,50,61);fill-rule:nonzero;"/>
        </g>
        <g transform="matrix(1.37976,-0.0258181,0.0258181,1.37976,1801.96,766.01)">
            <path d="M0,-1.953C-0.263,-1.205 -0.349,-0.437 -0.356,0.352C-0.361,0.815 1.568,0.496 1.575,-0.165C1.583,-0.88 1.682,-1.567 1.92,-2.242C2.104,-2.768 0.2,-2.521 0,-1.953" style="fill:rgb(48,50,61);fill-rule:nonzero;"/>
        </g>
        <g transform="matrix(1.37976,-0.0258181,0.0258181,1.37976,1801.33,712.408)">
            <path d="M0,-3.683C0.685,-2.34 1.058,-0.933 1.278,0.553C1.362,1.118 3.306,0.679 3.21,0.036C2.989,-1.45 2.616,-2.858 1.932,-4.201C1.626,-4.801 -0.24,-4.154 0,-3.683" style="fill:rgb(48,50,61);fill-rule:nonzero;"/>
        </g>
        <g transform="matrix(1.37976,-0.0258181,0.0258181,1.37976,1801.32,712.123)">
            <path d="M0,-3.513C0.392,-2.884 0.761,-2.263 0.949,-1.541C1.132,-0.838 1.19,-0.166 1.497,0.505C1.761,1.082 3.642,0.452 3.429,-0.013C3.127,-0.674 3.015,-1.35 2.881,-2.058C2.745,-2.775 2.311,-3.423 1.932,-4.031C1.58,-4.595 -0.237,-3.893 0,-3.513" style="fill:rgb(48,50,61);fill-rule:nonzero;"/>
        </g>
        <g transform="matrix(1.37976,-0.0258181,0.0258181,1.37976,1801.36,711.244)">
            <path d="M0,-3.132C0.096,-2.568 0.466,-2.121 0.729,-1.627C1.081,-0.966 1.103,-0.162 1.425,0.52C1.672,1.042 3.471,0.572 3.356,0.002C3.177,-0.891 2.694,-1.661 2.407,-2.518C2.219,-3.079 0.303,-2.517 0.476,-2C0.763,-1.144 1.245,-0.373 1.425,0.52C2.068,0.347 2.713,0.175 3.356,0.002C3.06,-0.628 2.956,-1.313 2.735,-1.97C2.534,-2.57 2.04,-3.007 1.932,-3.65C1.843,-4.174 -0.101,-3.726 0,-3.132" style="fill:rgb(48,50,61);fill-rule:nonzero;"/>
        </g>
        <g transform="matrix(1.37976,-0.0258181,0.0258181,1.37976,1797.01,696.732)">
            <path d="M0,4.454C0.928,3.767 1.745,2.892 2.376,1.924C2.939,1.06 3.701,0.14 4.01,-0.848C4.272,-1.693 2.405,-1.198 2.131,-0.795C1.383,0.309 0.682,1.448 -0.092,2.534C-0.742,3.448 -1.39,4.304 -1.729,5.388C-1.967,6.147 -0.012,5.889 0.211,5.178C0.549,4.099 1.303,3.227 1.949,2.321C2.646,1.341 3.271,0.304 3.947,-0.692C3.32,-0.674 2.695,-0.656 2.068,-0.638C1.825,0.143 1.146,0.811 0.739,1.52C0.256,2.364 -0.442,3.193 -1.227,3.774C-2.281,4.556 -0.658,4.942 0,4.454" style="fill:rgb(48,50,61);fill-rule:nonzero;"/>
        </g>
        <g transform="matrix(1.37976,-0.0258181,0.0258181,1.37976,1799.18,697.969)">
            <path d="M0,-1.147C-0.177,-0.785 -0.336,-0.414 -0.512,-0.051C-0.926,0.798 1.008,0.579 1.289,0C1.466,-0.362 1.625,-0.732 1.801,-1.095C2.215,-1.945 0.281,-1.725 0,-1.147" style="fill:rgb(48,50,61);fill-rule:nonzero;"/>
        </g>
        <g transform="matrix(1.37976,-0.0258181,0.0258181,1.37976,1798.65,701.696)">
            <path d="M0,0.292C0.045,0.227 0.1,0.169 0.163,0.122C0.437,-0.129 0.426,-0.392 0.012,-0.447C-0.412,-0.503 -1.031,-0.378 -1.354,-0.081C-1.5,0.053 -1.649,0.182 -1.777,0.333C-2.07,0.682 -1.527,0.795 -1.283,0.79C-0.854,0.78 -0.289,0.636 0,0.292" style="fill:rgb(48,50,61);fill-rule:nonzero;"/>
        </g>
        <g transform="matrix(1.37976,-0.0258181,0.0258181,1.37976,1798.68,700.932)">
            <path d="M0,0.819C0.054,0.733 0.109,0.656 0.19,0.593C0.501,0.353 0.71,-0.104 0.302,-0.374C-0.095,-0.637 -0.721,-0.528 -1.081,-0.249C-1.401,0 -1.627,0.278 -1.842,0.621C-2.102,1.037 -1.616,1.364 -1.261,1.402C-0.769,1.456 -0.264,1.239 0,0.819" style="fill:rgb(48,50,61);fill-rule:nonzero;"/>
        </g>
        <g transform="matrix(1.37976,-0.0258181,0.0258181,1.37976,1798.18,701.033)">
            <path d="M0,0.71C0.057,0.65 0.122,0.555 0.19,0.511C0.449,0.344 0.776,-0.052 0.356,-0.258C-0.051,-0.457 -0.651,-0.314 -1.013,-0.081C-1.219,0.053 -1.386,0.201 -1.553,0.378C-1.825,0.666 -1.793,0.985 -1.366,1.076C-0.94,1.167 -0.309,1.037 0,0.71" style="fill:rgb(48,50,61);fill-rule:nonzero;"/>
        </g>
        <g transform="matrix(1.37976,-0.0258181,0.0258181,1.37976,1798.1,701.032)">
            <path d="M0,0.805C0.081,0.701 0.158,0.588 0.267,0.509C0.556,0.301 0.816,-0.126 0.403,-0.369C0.003,-0.604 -0.615,-0.48 -0.974,-0.22C-1.209,-0.05 -1.406,0.131 -1.584,0.36C-2.315,1.303 -0.469,1.409 0,0.805" style="fill:rgb(48,50,61);fill-rule:nonzero;"/>
        </g>
        <g transform="matrix(1.37976,-0.0258181,0.0258181,1.37976,1798.04,701.364)">
            <path d="M0,0.321C0.1,0.189 0.212,0.073 0.328,-0.044C0.658,-0.378 0.046,-0.504 -0.166,-0.499C-0.623,-0.488 -1.122,-0.331 -1.449,-0.001C-1.564,0.116 -1.678,0.232 -1.777,0.364C-2.046,0.72 -1.548,0.825 -1.283,0.819C-0.874,0.809 -0.265,0.671 0,0.321" style="fill:rgb(48,50,61);fill-rule:nonzero;"/>
        </g>
        <g transform="matrix(1.37976,-0.0258181,0.0258181,1.37976,1798.13,701.82)">
            <path d="M0,-0.199C0.001,-0.208 0.003,-0.217 0.004,-0.226C0.324,-0.413 0.255,-0.621 -0.104,-0.63C-0.567,-0.642 -1.072,-0.497 -1.471,-0.264C-1.655,-0.157 -1.794,-0.036 -1.904,0.148C-2.08,0.443 -1.204,0.331 -1.135,0.319C-0.794,0.257 -0.198,0.132 0,-0.199" style="fill:rgb(48,50,61);fill-rule:nonzero;"/>
        </g>
        <g transform="matrix(1.37976,-0.0258181,0.0258181,1.37976,1273.62,328.031)">
            <path d="M0,-4.568C-1.197,-2.855 -3.376,-2.124 -4.717,-0.523C-5.496,0.408 -3.645,0.629 -3.114,-0.005C-1.674,-1.725 0.527,-2.508 1.837,-4.384C2.12,-4.79 1.595,-5.112 1.261,-5.146C0.758,-5.197 0.285,-4.976 0,-4.568" style="fill:rgb(48,50,61);fill-rule:nonzero;"/>
        </g>
        <g transform="matrix(1.37976,-0.0258181,0.0258181,1.37976,1272.25,328.28)">
            <path d="M0,-4.307C-1.229,-2.753 -2.919,-1.522 -3.805,0.287C-3.978,0.639 -2.146,0.479 -1.895,-0.034C-1.05,-1.759 0.586,-2.933 1.759,-4.416C2.177,-4.946 0.301,-4.688 0,-4.307" style="fill:rgb(48,50,61);fill-rule:nonzero;"/>
        </g>
        <g transform="matrix(1.37976,-0.0258181,0.0258181,1.37976,1271.88,327.964)">
            <path d="M0,-3.911C-1.042,-2.904 -1.724,-1.598 -2.693,-0.527C-2.994,-0.196 -2.872,0.234 -2.452,0.373C-1.993,0.526 -1.409,0.364 -1.086,0.007C-0.116,-1.063 0.565,-2.37 1.607,-3.377C1.935,-3.693 1.764,-4.145 1.366,-4.277C0.884,-4.437 0.352,-4.251 0,-3.911" style="fill:rgb(48,50,61);fill-rule:nonzero;"/>
        </g>
        <g transform="matrix(1.37976,-0.0258181,0.0258181,1.37976,1271.77,327.932)">
            <path d="M0,-3.371C-1.07,-2.23 -2.14,-1.089 -3.177,0.082C-3.474,0.417 -2.921,0.494 -2.698,0.483C-2.279,0.464 -1.703,0.329 -1.411,0C-0.374,-1.171 0.696,-2.312 1.766,-3.453C2.076,-3.784 1.499,-3.865 1.287,-3.855C0.857,-3.835 0.305,-3.697 0,-3.371" style="fill:rgb(48,50,61);fill-rule:nonzero;"/>
        </g>
        <g transform="matrix(1.37976,-0.0258181,0.0258181,1.37976,1272.19,328.139)">
            <path d="M0,-3.621C-1.088,-2.625 -2.291,-1.673 -3.022,-0.366C-3.496,0.479 -1.546,0.318 -1.212,-0.279C-0.543,-1.474 0.572,-2.329 1.566,-3.239C1.877,-3.524 1.765,-3.89 1.366,-3.987C0.905,-4.1 0.347,-3.938 0,-3.621" style="fill:rgb(48,50,61);fill-rule:nonzero;"/>
        </g>
        <g transform="matrix(1.37976,-0.0258181,0.0258181,1.37976,1271.91,329.769)">
            <path d="M0,-4.603C-0.783,-4.119 -1.169,-3.337 -1.633,-2.571C-2.244,-1.561 -3.186,-0.759 -3.948,0.133C-4.148,0.368 -3.223,0.27 -3.189,0.264C-2.813,0.191 -2.31,0.075 -2.048,-0.231C-1.37,-1.026 -0.619,-1.754 0.023,-2.58C0.503,-3.198 0.774,-4.186 1.462,-4.611C1.761,-4.796 1.738,-4.971 1.366,-4.969C0.919,-4.967 0.383,-4.84 0,-4.603" style="fill:rgb(48,50,61);fill-rule:nonzero;"/>
        </g>
        <g transform="matrix(1.37976,-0.0258181,0.0258181,1.37976,1272.57,328.042)">
            <path d="M0,-5.357C-1.075,-4.889 -1.75,-3.914 -2.663,-3.219C-3.536,-2.553 -4.48,-1.93 -4.91,-0.873C-5.341,0.188 -3.396,0.242 -3.051,-0.607C-2.719,-1.425 -1.85,-1.889 -1.177,-2.402C-0.468,-2.941 0.048,-3.773 0.878,-4.134C1.255,-4.299 1.602,-4.79 1.32,-5.183C1.021,-5.599 0.408,-5.535 0,-5.357" style="fill:rgb(48,50,61);fill-rule:nonzero;"/>
        </g>
        <g transform="matrix(1.37976,-0.0258181,0.0258181,1.37976,1270.68,327.068)">
            <path d="M0,-3.269C-0.855,-2.278 -1.678,-1.258 -2.568,-0.297C-3.336,0.531 -1.447,0.46 -1.023,0.002C-0.05,-1.049 0.858,-2.156 1.795,-3.241C2.106,-3.601 1.533,-3.788 1.276,-3.792C0.81,-3.8 0.309,-3.626 0,-3.269" style="fill:rgb(48,50,61);fill-rule:nonzero;"/>
        </g>
        <g transform="matrix(1.37976,-0.0258181,0.0258181,1.37976,1270.54,328.109)">
            <path d="M0,-3.86C-1.201,-2.875 -2.314,-1.39 -2.772,0.102C-2.885,0.47 -1.016,0.236 -0.869,-0.244C-0.43,-1.672 0.598,-3.075 1.746,-4.016C2.094,-4.301 1.439,-4.33 1.294,-4.317C0.854,-4.278 0.348,-4.145 0,-3.86" style="fill:rgb(48,50,61);fill-rule:nonzero;"/>
        </g>
        <g transform="matrix(1.37976,-0.0258181,0.0258181,1.37976,1271.73,328.207)">
            <path d="M0,-3.903C-1.105,-3.049 -2.187,-1.889 -2.771,-0.608C-3.226,0.39 -1.275,0.365 -0.927,-0.399C-0.46,-1.422 0.391,-2.36 1.275,-3.043C1.591,-3.286 1.789,-3.752 1.384,-4.024C0.985,-4.293 0.362,-4.183 0,-3.903" style="fill:rgb(48,50,61);fill-rule:nonzero;"/>
        </g>
        <g transform="matrix(1.37976,-0.0258181,0.0258181,1.37976,1271.81,327.922)">
            <path d="M0,-3.577C-0.991,-2.732 -1.822,-1.724 -2.653,-0.727C-2.944,-0.378 -2.83,0.066 -2.399,0.22C-1.945,0.383 -1.343,0.227 -1.033,-0.145C-0.304,-1.021 0.416,-1.939 1.285,-2.681C1.594,-2.945 1.799,-3.404 1.386,-3.691C0.999,-3.96 0.35,-3.875 0,-3.577" style="fill:rgb(48,50,61);fill-rule:nonzero;"/>
        </g>
        <g transform="matrix(1.37976,-0.0258181,0.0258181,1.37976,1271.2,329.202)">
            <path d="M0,-4.069C-1.542,-3.499 -1.969,-1.791 -3.009,-0.694C-3.309,-0.379 -3.2,0.022 -2.784,0.146C-2.329,0.282 -1.744,0.124 -1.418,-0.22C-0.982,-0.679 -0.653,-1.228 -0.317,-1.761C-0.033,-2.214 0.292,-2.864 0.821,-3.06C1.14,-3.178 1.587,-3.618 1.3,-3.972C0.992,-4.351 0.382,-4.21 0,-4.069" style="fill:rgb(48,50,61);fill-rule:nonzero;"/>
        </g>
        <g transform="matrix(1.37976,-0.0258181,0.0258181,1.37976,1270.97,327.375)">
            <path d="M0,-4.347C-1.749,-4.137 -3.008,-2.42 -3.172,-0.732C-3.247,0.029 -1.304,-0.348 -1.243,-0.982C-1.196,-1.459 -1.038,-1.91 -0.84,-2.345C-0.72,-2.61 -0.548,-2.855 -0.373,-3.085C-0.215,-3.29 0.078,-3.348 -0.271,-3.306C0.087,-3.349 0.722,-3.539 0.829,-3.951C0.939,-4.376 0.234,-4.375 0,-4.347" style="fill:rgb(48,50,61);fill-rule:nonzero;"/>
        </g>
        <g transform="matrix(1.37976,-0.0258181,0.0258181,1.37976,1269.45,327.22)">
            <path d="M0,-3.982C-1.305,-3.46 -2.489,-2.049 -2.637,-0.63C-2.731,0.278 -0.771,-0.041 -0.69,-0.818C-0.602,-1.668 0.001,-2.665 0.816,-2.991C1.124,-3.114 1.59,-3.536 1.298,-3.892C0.995,-4.26 0.374,-4.131 0,-3.982" style="fill:rgb(48,50,61);fill-rule:nonzero;"/>
        </g>
        <g transform="matrix(1.37976,-0.0258181,0.0258181,1.37976,1268.69,328.365)">
            <path d="M0,-4.512C-1.337,-3.574 -2.022,-1.907 -2.06,-0.31C-2.077,0.452 -0.146,0.032 -0.132,-0.568C-0.1,-1.941 0.372,-3.42 1.538,-4.238C1.879,-4.477 1.731,-4.813 1.366,-4.878C0.884,-4.964 0.389,-4.785 0,-4.512" style="fill:rgb(48,50,61);fill-rule:nonzero;"/>
        </g>
        <g transform="matrix(1.37976,-0.0258181,0.0258181,1.37976,1528.09,292.202)">
            <path d="M0,0.92C0.697,0.804 1.402,0.807 2.107,0.807C2.524,0.806 3.105,0.642 3.393,0.319C3.698,-0.022 3.129,-0.095 2.91,-0.095C2.043,-0.094 1.18,-0.075 0.322,0.068C-0.014,0.124 -0.656,0.272 -0.797,0.646C-0.936,1.015 -0.15,0.945 0,0.92" style="fill:rgb(48,50,61);fill-rule:nonzero;"/>
        </g>
        <g transform="matrix(1.37976,-0.0258181,0.0258181,1.37976,1526.86,291.802)">
            <path d="M0,0.773L2.625,0.773C3.088,0.773 3.595,0.651 3.991,0.407C4.296,0.22 4.256,0 3.883,0L1.258,0C0.795,0 0.288,0.122 -0.108,0.365C-0.413,0.553 -0.373,0.773 0,0.773" style="fill:rgb(48,50,61);fill-rule:nonzero;"/>
        </g>
        <g transform="matrix(1.37976,-0.0258181,0.0258181,1.37976,1527.02,291.353)">
            <path d="M0,1C1.062,1.196 2.123,1.045 3.188,1.171C3.618,1.222 4.226,1.005 4.457,0.622C4.708,0.208 4.243,0.01 3.911,-0.029C2.999,-0.137 2.064,0.032 1.16,-0.135C0.69,-0.222 0.146,-0.113 -0.206,0.231C-0.491,0.51 -0.425,0.921 0,1" style="fill:rgb(48,50,61);fill-rule:nonzero;"/>
        </g>
        <g transform="matrix(1.37976,-0.0258181,0.0258181,1.37976,1526.58,291.463)">
            <path d="M0,1.153C1.251,1.03 2.507,1.03 3.763,1.03C4.196,1.029 4.772,0.883 5.04,0.509C5.306,0.136 4.815,-0.035 4.522,-0.035C3.104,-0.035 1.687,-0.021 0.273,0.118C-0.083,0.153 -0.722,0.356 -0.828,0.761C-0.94,1.188 -0.23,1.175 0,1.153" style="fill:rgb(48,50,61);fill-rule:nonzero;"/>
        </g>
        <g transform="matrix(1.37976,-0.0258181,0.0258181,1.37976,1527.19,291.759)">
            <path d="M0,1.246C5.207,0.945 10.396,0.457 15.532,1.648C16.067,1.772 17.796,0.941 16.741,0.696C11.47,-0.526 6.131,-0.04 0.783,0.269C0.154,0.306 -1.293,1.321 0,1.246" style="fill:rgb(48,50,61);fill-rule:nonzero;"/>
        </g>
        <g transform="matrix(1.37976,-0.0258181,0.0258181,1.37976,1526.87,291.587)">
            <path d="M0,1.46C5.617,0.838 11.895,0.897 17.498,1.596C18.069,1.667 19.768,0.727 18.693,0.593C12.732,-0.151 6.248,-0.207 0.281,0.453C-0.633,0.554 -1.344,1.609 0,1.46" style="fill:rgb(48,50,61);fill-rule:nonzero;"/>
        </g>
        <g transform="matrix(1.37976,-0.0258181,0.0258181,1.37976,1526.93,290.461)">
            <path d="M0,2.715C7.738,1.765 15.318,0.798 22.99,2.752C23.516,2.886 25.244,2.073 24.549,1.896C16.438,-0.171 8.496,0.789 0.305,1.795C-0.569,1.902 -1.349,2.881 0,2.715" style="fill:rgb(48,50,61);fill-rule:nonzero;"/>
        </g>
        <g transform="matrix(1.37976,-0.0258181,0.0258181,1.37976,1677.75,330.188)">
            <path d="M0,-4.985C-3.372,-5.009 -6.458,-2.67 -8.557,-0.221C-8.768,0.024 -7.828,-0.066 -7.794,-0.072C-7.407,-0.144 -6.923,-0.267 -6.656,-0.578C-5.439,-1.996 -3.26,-4.254 -1.264,-4.239C-0.885,-4.236 0.93,-4.978 0,-4.985" style="fill:rgb(48,50,61);fill-rule:nonzero;"/>
        </g>
        <g transform="matrix(1.37976,-0.0258181,0.0258181,1.37976,1677.02,332.516)">
            <path d="M0,-6.732C-3.171,-5.429 -6.903,-3.914 -8.445,-0.568C-8.888,0.392 -6.939,0.301 -6.613,-0.407C-5.256,-3.353 -1.957,-4.563 0.824,-5.707C2.059,-6.214 0.953,-7.124 0,-6.732" style="fill:rgb(48,50,61);fill-rule:nonzero;"/>
        </g>
        <g transform="matrix(1.37976,-0.0258181,0.0258181,1.37976,1680.05,332.471)">
            <path d="M0,-6.202C-3.908,-6.069 -8.518,-3.953 -10.677,-0.602C-11.094,0.044 -9.188,-0.231 -8.907,-0.668C-7.241,-3.252 -3.875,-5.183 -0.801,-5.288C-0.205,-5.308 1.292,-6.246 0,-6.202" style="fill:rgb(48,50,61);fill-rule:nonzero;"/>
        </g>
        <g transform="matrix(1.37976,-0.0258181,0.0258181,1.37976,1729.8,445.996)">
            <path d="M0,0.952C0.627,0.952 2.088,0 0.789,0C0.162,0 -1.299,0.952 0,0.952" style="fill:rgb(48,50,61);fill-rule:nonzero;"/>
        </g>
        <g transform="matrix(1.37976,-0.0258181,0.0258181,1.37976,1727.05,431.749)">
            <path d="M0,0.952C0.627,0.952 2.088,0 0.789,0C0.162,0 -1.299,0.952 0,0.952" style="fill:rgb(48,50,61);fill-rule:nonzero;"/>
        </g>
        <g transform="matrix(1.37976,-0.0258181,0.0258181,1.37976,1719.02,436.469)">
            <path d="M0,-9.757C0.452,-8.033 1.023,-6.409 1.045,-4.61C1.065,-2.863 0.898,-1.197 1.243,0.533C1.354,1.091 3.295,0.62 3.175,0.015C2.834,-1.7 2.939,-3.39 2.977,-5.127C3.015,-6.913 2.379,-8.571 1.932,-10.275C1.781,-10.848 -0.151,-10.334 0,-9.757" style="fill:rgb(48,50,61);fill-rule:nonzero;"/>
        </g>
        <g transform="matrix(1.37976,-0.0258181,0.0258181,1.37976,1624.35,442.154)">
            <path d="M0,43.132C0.006,35.413 8.457,31.286 13.984,27.433C20.781,22.693 27.747,18.036 34.688,13.515C41.891,8.824 49.109,5.554 56.954,2.16C60.245,0.736 66.885,-0.225 70.178,1.316C73.513,2.877 76.461,5.66 79.077,8.205C80.531,9.619 86,7.442 84.462,5.944C81.535,3.098 78.366,0.519 74.794,-1.474C71.459,-3.335 67.789,-2.825 64.186,-2.261C59.693,-1.559 56.248,-0.716 51.961,0.897C46.47,2.963 41.335,5.38 36.33,8.455C32.197,10.994 28.106,13.685 24.211,16.578C19.135,20.347 13.563,23.378 8.448,27.109C2.137,31.712 -5.789,35.864 -5.795,44.685C-5.797,46.467 -0.001,45.373 0,43.132" style="fill:rgb(48,50,61);fill-rule:nonzero;"/>
        </g>
        <g transform="matrix(1.37976,-0.0258181,0.0258181,1.37976,1826.81,551.286)">
            <path d="M0,-3.794C0.382,-1.598 -2.664,-0.813 -4.247,-0.259C-2.899,-0.122 -1.552,0.016 -0.205,0.153C-1.609,-4.654 -3.352,-9.152 -6.077,-13.37C-7.028,-14.842 -12.173,-13.373 -11.666,-11.461C-10.069,-5.437 -7.205,0.064 -8.166,6.461C-8.521,8.827 -3.271,7.454 -2.57,6.157C-1.626,4.405 -1.037,3.81 0.938,4.906C2.514,5.781 3.778,7.295 4.167,9.039C4.613,11.048 10.426,9.568 9.962,7.487C9.153,3.853 5.058,0.955 1.424,0.713C-2.807,0.432 -5.984,2.36 -7.967,6.037C-6.102,5.935 -4.236,5.834 -2.371,5.732C-1.362,-0.984 -4.19,-6.674 -5.871,-13.013C-7.733,-12.377 -9.597,-11.74 -11.46,-11.104C-8.884,-7.117 -7.323,-2.822 -6,1.706C-5.563,3.203 -2.88,2.441 -1.958,2.119C1.215,1.009 6.519,-1.186 5.795,-5.347C5.451,-7.328 -0.371,-5.929 0,-3.794" style="fill:rgb(48,50,61);fill-rule:nonzero;"/>
        </g>
        <g transform="matrix(1.37976,-0.0258181,0.0258181,1.37976,1825.22,530.759)">
            <path d="M0,6.484C-0.713,7.773 -0.894,9.284 -1.821,10.458C-0.033,10.673 1.755,10.89 3.543,11.106C5.064,5.723 5.748,0.468 5.337,-5.12C5.142,-7.781 -0.665,-6.384 -0.458,-3.567C-0.079,1.592 -0.931,6.589 -2.33,11.54C-3.101,14.265 2.059,13.422 3.034,12.188C4.268,10.629 4.606,8.86 5.545,7.162C7.133,4.29 1.241,4.238 0,6.484" style="fill:rgb(48,50,61);fill-rule:nonzero;"/>
        </g>
        <g transform="matrix(1.37976,-0.0258181,0.0258181,1.37976,1438.99,666.098)">
            <path d="M0,49.047C4.683,47.234 9.958,46.888 14.838,45.695C20.513,44.308 25.983,42.75 31.484,40.785C42.495,36.852 53.849,33.907 64.69,29.496C75.188,25.224 85.3,20.056 95.797,15.757C100.46,13.848 105.081,11.861 109.581,9.589C111.691,8.523 113.685,7.254 115.649,5.943C117.75,4.543 119.629,2.268 121.829,1.082C125.243,-0.76 119.949,-0.916 118.384,-0.073C114.548,1.996 111.529,5.351 107.718,7.594C102.786,10.498 97.291,12.526 92.01,14.689C81.517,18.986 71.41,24.148 60.912,28.42C50.645,32.597 39.827,35.39 29.363,39.034C23.777,40.979 18.214,42.479 12.473,43.882C7.575,45.08 2.618,45.463 -2.12,47.296C-5.944,48.776 -2.367,49.963 0,49.047" style="fill:rgb(48,50,61);fill-rule:nonzero;"/>
        </g>
        <g transform="matrix(1.37976,-0.0258181,0.0258181,1.37976,1454.2,695.168)">
            <path d="M0,23.912C4.166,21.815 9.827,20.928 14.334,19.703C20.051,18.149 25.771,16.719 31.422,14.928C36.613,13.283 41.719,11.368 46.679,9.121C52.322,6.565 57.701,3.437 63.96,2.659C66.886,2.295 68.667,-1.347 64.671,-0.85C53.183,0.579 43.069,7.504 32.226,11.173C26.064,13.258 19.772,14.884 13.474,16.492C8.414,17.784 2.311,18.873 -2.37,21.229C-5.945,23.028 -2.677,25.259 0,23.912" style="fill:rgb(48,50,61);fill-rule:nonzero;"/>
        </g>
        <g transform="matrix(1.37976,-0.0258181,0.0258181,1.37976,1441.86,720.736)">
            <path d="M0,9.104C-0.654,5.027 -4.295,2.366 -5.5,-1.483C-6.122,-3.47 -11.895,-1.845 -11.296,0.069C-10.09,3.921 -6.445,6.608 -5.796,10.657C-5.488,12.574 0.337,11.205 0,9.104" style="fill:rgb(48,50,61);fill-rule:nonzero;"/>
        </g>
        <g transform="matrix(1.37976,-0.0258181,0.0258181,1.37976,1078.12,1002.14)">
            <path d="M0,23.525C7.628,14.871 17.757,8.717 27.69,3.06C31.112,1.11 27.996,-1.938 25.136,-0.308C14.357,5.832 3.438,12.457 -4.841,21.85C-7.263,24.598 -1.708,25.463 0,23.525" style="fill:rgb(48,50,61);fill-rule:nonzero;"/>
        </g>
        <g transform="matrix(1.37976,-0.0258181,0.0258181,1.37976,1116.26,1001.96)">
            <path d="M0,-1.417C-0.15,-0.777 -0.091,-0.114 -0.382,0.491C-0.555,0.851 0.292,0.783 0.414,0.764C0.778,0.706 1.355,0.558 1.533,0.187C1.824,-0.417 1.765,-1.08 1.915,-1.721C2.043,-2.268 0.127,-1.96 0,-1.417" style="fill:rgb(48,50,61);fill-rule:nonzero;"/>
        </g>
        <g transform="matrix(1.37976,-0.0258181,0.0258181,1.37976,1116.48,1001.54)">
            <path d="M0,-1.225C-0.116,-0.598 -0.334,-0.031 -0.654,0.52C-0.852,0.859 0.043,0.79 0.137,0.775C0.519,0.713 1.049,0.569 1.259,0.209C1.579,-0.342 1.797,-0.909 1.913,-1.536C2.015,-2.084 0.097,-1.747 0,-1.225" style="fill:rgb(48,50,61);fill-rule:nonzero;"/>
        </g>
        <g transform="matrix(1.37976,-0.0258181,0.0258181,1.37976,1116.92,1002.86)">
            <path d="M0,-2.355C-0.185,-1.719 -0.396,-1.076 -0.758,-0.516C-1.431,0.523 0.369,0.85 0.866,0.082C1.316,-0.613 1.622,-1.32 1.853,-2.114C2.169,-3.205 0.247,-3.203 0,-2.355" style="fill:rgb(48,50,61);fill-rule:nonzero;"/>
        </g>
        <g transform="matrix(1.37976,-0.0258181,0.0258181,1.37976,1116.66,1003.04)">
            <path d="M0,-1.987C-0.146,-1.14 -0.145,-0.28 -0.491,0.521C-0.65,0.888 0.171,0.822 0.307,0.801C0.661,0.745 1.264,0.595 1.425,0.221C1.771,-0.58 1.77,-1.44 1.916,-2.287C2.018,-2.875 0.093,-2.528 0,-1.987" style="fill:rgb(48,50,61);fill-rule:nonzero;"/>
        </g>
        <g transform="matrix(1.37976,-0.0258181,0.0258181,1.37976,1116.96,1003.76)">
            <path d="M0,-2.776C-0.316,-1.775 -0.847,-0.873 -1.3,0.069C-1.729,0.961 0.212,0.789 0.513,0.163C1.015,-0.88 1.589,-1.881 1.939,-2.99C2.176,-3.737 0.222,-3.479 0,-2.776" style="fill:rgb(48,50,61);fill-rule:nonzero;"/>
        </g>
        <g transform="matrix(1.37976,-0.0258181,0.0258181,1.37976,1116.91,1003.96)">
            <path d="M0,-2.313C-0.34,-1.403 -0.677,-0.496 -1.145,0.358C-1.314,0.667 -0.453,0.559 -0.372,0.544C-0.036,0.483 0.575,0.355 0.76,0.018C1.229,-0.836 1.565,-1.744 1.905,-2.654C2.027,-2.98 1.251,-2.86 1.132,-2.839C0.843,-2.788 0.125,-2.647 0,-2.313" style="fill:rgb(48,50,61);fill-rule:nonzero;"/>
        </g>
        <g transform="matrix(1.37976,-0.0258181,0.0258181,1.37976,1116.72,1003.97)">
            <path d="M0,-2.08C-0.195,-1.236 -0.544,-0.496 -0.979,0.25C-1.225,0.67 -0.767,0.986 -0.4,1.025C0.078,1.076 0.613,0.868 0.86,0.443C1.358,-0.411 1.73,-1.276 1.953,-2.242C2.165,-3.156 0.19,-2.905 0,-2.08" style="fill:rgb(48,50,61);fill-rule:nonzero;"/>
        </g>
        <g transform="matrix(1.37976,-0.0258181,0.0258181,1.37976,1117.8,987.045)">
            <path d="M0,-1.893C-0.266,-1.126 -0.242,-0.318 -0.343,0.477C-0.367,0.663 1.519,0.515 1.589,-0.04C1.683,-0.781 1.653,-1.538 1.9,-2.25C2.006,-2.556 1.251,-2.418 1.138,-2.397C0.876,-2.348 0.109,-2.207 0,-1.893" style="fill:rgb(48,50,61);fill-rule:nonzero;"/>
        </g>
        <g transform="matrix(1.37976,-0.0258181,0.0258181,1.37976,1118.07,989.667)">
            <path d="M0,-3.593C-0.516,-2.377 -0.687,-1.055 -0.981,0.223C-1.09,0.695 0.812,0.396 0.928,-0.104C1.222,-1.383 1.393,-2.704 1.909,-3.92C2.065,-4.288 0.217,-4.103 0,-3.593" style="fill:rgb(48,50,61);fill-rule:nonzero;"/>
        </g>
        <g transform="matrix(1.37976,-0.0258181,0.0258181,1.37976,1117.4,992.003)">
            <path d="M0,-3.669C-0.291,-2.352 -0.761,-1.088 -1.145,0.203C-1.406,1.08 0.568,0.847 0.808,0.04C1.192,-1.25 1.663,-2.514 1.953,-3.831C2.156,-4.749 0.182,-4.494 0,-3.669" style="fill:rgb(48,50,61);fill-rule:nonzero;"/>
        </g>
        <g transform="matrix(1.37976,-0.0258181,0.0258181,1.37976,1116,995.597)">
            <path d="M0,-2.882C-0.475,-1.79 -0.729,-0.645 -0.943,0.521C-0.967,0.653 0.887,0.56 0.989,0.004C1.194,-1.113 1.445,-2.201 1.899,-3.245C2.025,-3.535 1.231,-3.396 1.141,-3.378C0.861,-3.324 0.136,-3.195 0,-2.882" style="fill:rgb(48,50,61);fill-rule:nonzero;"/>
        </g>
        <g transform="matrix(1.37976,-0.0258181,0.0258181,1.37976,1125.96,981.403)">
            <path d="M0,-4.265C-0.633,-2.871 -0.91,-1.352 -1.145,0.151C-1.233,0.718 0.688,0.363 0.769,-0.158C1.004,-1.661 1.28,-3.18 1.914,-4.575C2.1,-4.983 0.241,-4.796 0,-4.265" style="fill:rgb(48,50,61);fill-rule:nonzero;"/>
        </g>
        <g transform="matrix(1.37976,-0.0258181,0.0258181,1.37976,1125.52,982.441)">
            <path d="M0,-4.385C-0.422,-2.914 -0.789,-1.398 -0.818,0.14C-0.833,0.919 1.099,0.501 1.111,-0.113C1.14,-1.65 1.507,-3.166 1.929,-4.638C2.12,-5.304 0.182,-5.021 0,-4.385" style="fill:rgb(48,50,61);fill-rule:nonzero;"/>
        </g>
        <g transform="matrix(1.37976,-0.0258181,0.0258181,1.37976,1126.52,980.799)">
            <path d="M0,-4.361C-0.076,-2.825 -0.402,-1.343 -0.983,0.081C-1.413,1.136 0.532,1.173 0.873,0.336C1.501,-1.203 1.879,-2.829 1.962,-4.49C2.014,-5.534 0.045,-5.279 0,-4.361" style="fill:rgb(48,50,61);fill-rule:nonzero;"/>
        </g>
        <g transform="matrix(1.37976,-0.0258181,0.0258181,1.37976,1125.46,982.867)">
            <path d="M0,-2.38C-0.3,-1.432 -0.425,-0.442 -0.873,0.455C-1.054,0.818 -0.194,0.76 -0.073,0.741C0.303,0.683 0.858,0.532 1.044,0.158C1.492,-0.74 1.617,-1.73 1.917,-2.678C2.082,-3.198 0.176,-2.936 0,-2.38" style="fill:rgb(48,50,61);fill-rule:nonzero;"/>
        </g>
        <g transform="matrix(1.37976,-0.0258181,0.0258181,1.37976,1131.26,973.322)">
            <path d="M0,-2.457C-0.777,-1.615 -1.484,-0.711 -2.29,0.106C-2.606,0.426 -2.016,0.488 -1.819,0.477C-1.392,0.451 -0.842,0.317 -0.53,0.001C0.275,-0.816 0.982,-1.72 1.76,-2.561C2.061,-2.888 1.499,-2.945 1.289,-2.933C0.873,-2.908 0.297,-2.778 0,-2.457" style="fill:rgb(48,50,61);fill-rule:nonzero;"/>
        </g>
        <g transform="matrix(1.37976,-0.0258181,0.0258181,1.37976,1132.79,975.492)">
            <path d="M0,-4.864C-1.945,-3.64 -3.173,-1.687 -4.525,0.114C-4.715,0.367 -3.809,0.257 -3.766,0.249C-3.408,0.18 -2.861,0.065 -2.626,-0.248C-1.408,-1.87 -0.291,-3.763 1.463,-4.867C1.76,-5.054 1.74,-5.231 1.366,-5.23C0.921,-5.229 0.38,-5.103 0,-4.864" style="fill:rgb(48,50,61);fill-rule:nonzero;"/>
        </g>
        <g transform="matrix(1.37976,-0.0258181,0.0258181,1.37976,1133.4,975.58)">
            <path d="M0,-5.449C-2.048,-4.186 -3.489,-2.227 -4.874,-0.304C-5.155,0.087 -4.635,0.342 -4.324,0.362C-3.848,0.392 -3.337,0.2 -3.055,-0.191C-1.835,-1.886 -0.575,-3.638 1.231,-4.753C1.531,-4.937 1.776,-5.378 1.375,-5.604C0.956,-5.841 0.38,-5.684 0,-5.449" style="fill:rgb(48,50,61);fill-rule:nonzero;"/>
        </g>
        <g transform="matrix(1.37976,-0.0258181,0.0258181,1.37976,1132.72,979.143)">
            <path d="M0,-7.723C-2.77,-6.112 -3.983,-2.987 -5.64,-0.409C-6.151,0.387 -4.196,0.244 -3.83,-0.326C-2.348,-2.631 -1.255,-5.64 1.218,-7.078C2.348,-7.736 0.666,-8.11 0,-7.723" style="fill:rgb(48,50,61);fill-rule:nonzero;"/>
        </g>
        <g transform="matrix(1.37976,-0.0258181,0.0258181,1.37976,1129.01,979.234)">
            <path d="M0,-5.308C-1.271,-3.885 -1.736,-2.022 -2.572,-0.349C-3.038,0.582 -1.086,0.485 -0.744,-0.199C0.021,-1.728 0.431,-3.538 1.591,-4.836C2.388,-5.728 0.521,-5.89 0,-5.308" style="fill:rgb(48,50,61);fill-rule:nonzero;"/>
        </g>
        <g transform="matrix(1.37976,-0.0258181,0.0258181,1.37976,1126.02,984.402)">
            <path d="M0,-4.529C-0.943,-3.026 -1.463,-1.319 -2.236,0.269C-2.418,0.644 -0.577,0.476 -0.324,-0.045C0.449,-1.633 0.969,-3.341 1.912,-4.843C2.119,-5.173 1.205,-5.103 1.123,-5.09C0.735,-5.026 0.223,-4.884 0,-4.529" style="fill:rgb(48,50,61);fill-rule:nonzero;"/>
        </g>
    </g>
    <g transform="matrix(3.17959,0,0,3.25941,-618.367,-539.749)">
        <g id="Final-Product-Setup--Rec-" serif:id="Final Product Setup (Rec)">
            <rect x="194.48" y="165.597" width="943.517" height="920.411" style="fill:none;"/>
        </g>
    </g>
</svg>
